/* XPM */
static const char * background_xpm[] = {
"36 36 5 1",
" 	c None",
".	c #B5C3D0",
"+	c #BAC6D3",
"@	c #B1BECC",
"#	c #BCC8D5",
"............+.....@@........+####+++",
"...............@@@@@@......+#####+++",
"............@@@@@@@@@......+####+...",
"...........@@@@@@@@@@......++##+...@",
"@...........@@@@@@@@.......+##+..@@@",
"@......................+..++##+.@@@@",
"@.....................++++####.@@@@@",
".+++..@@...+++++.....++######..@@@@@",
"+###..@@..+####+.....+####++..@@@@@.",
"+###..@@@.+####+..@..+###+..@@@@@@..",
"+##+.@@@@.+###+..@@@.+##+..@@@@@@...",
"+++..@@@@.+#++..@@@@.+##..@@@@@@....",
"....@@@@@..+...@@@@@..++..@@@@@.....",
"....@@@@@.....@@@@@@..++..@@@@......",
"....@@@@@....@@@@@@@......@@@.++++..",
"....@@@@.....@@@@@@..........+###+..",
".....@@......................+###+..",
".............................+##+...",
"@@.......++####+++................@@",
"@@@....++#######++..............@@@@",
"@@@...+#######++.............@@@@@@@",
"@@...+######+................@@@@@@@",
"@....+####+....@@@@@...........@@@@@",
"....+####+...@@@@@@@................",
"....####+...@@@@@@@...........+++...",
"...+###+...@@@@@@@..++...@...+###++.",
"...+###+..@@@@@@@..###..@@..+####+..",
"@..+##+..@@@@@@@..+###..@@@.+###+..@",
"@@.+##+.@@@@@@@@..+##+.@@@@.+##+..@@",
"@@.+##..@@@@@@@...+++..@@@@..++..@@@",
"@@.+++..@@@@@@.........@@@@..+...@@@",
"@@..++.@@@@@..........@@@@@.....@@@@",
"@...+..@@@@..++.......@@@@@....@@@@@",
"@.......@@..+##+......@@@@@.....@@@@",
"...........+###+.......@@@..........",
"...........+##++..............+++..."};
