/* XPM */
static const char * chain_closed_xpm[] = {
"15 53 12 1",
" 	c None",
".	c #9B9B9B",
"+	c #FFFFFF",
"@	c #020204",
"#	c #6E6E6E",
"$	c #D0D0D1",
"%	c #B5B5B6",
"&	c #5A5A5C",
"*	c #9A9A98",
"=	c #E8E8E9",
"-	c #DCDCDC",
";	c #8F8F91",
"               ",
"               ",
"               ",
"   .....       ",
"   +++++.      ",
"       +.      ",
"       +.      ",
"       +.      ",
"       +.      ",
"       +.      ",
"               ",
"               ",
"               ",
"               ",
"               ",
"               ",
"     @@@@@     ",
"    @#$$%&@    ",
"    @*@@@=@    ",
"    @$@-@$@    ",
"    @$@-@$@    ",
"    @%@-@$@    ",
"    @*@@@$@    ",
"    @;@#@;@    ",
"     @@%@@     ",
"      @$@      ",
"      @$@      ",
"     @@$@@     ",
"    @#@%@;@    ",
"    @%@@@%@    ",
"    @%@-@=@    ",
"    @%@-@=@    ",
"    @%@-@=@    ",
"    @$@@@=@    ",
"    @#=$=%@    ",
"     @@@@@     ",
"               ",
"               ",
"               ",
"               ",
"               ",
"               ",
"       +.      ",
"       +.      ",
"       +.      ",
"       +.      ",
"       +.      ",
"       +.      ",
"   +++++.      ",
"   .....       ",
"               ",
"               ",
"               "};
