/* XPM */
static const char * close32x32_xpm[] = {
"32 32 231 2",
"  	c None",
". 	c #737388",
"+ 	c #737387",
"@ 	c #62627A",
"# 	c #54546F",
"$ 	c #51516D",
"% 	c #50506C",
"& 	c #52526D",
"* 	c #606078",
"= 	c #757589",
"- 	c #6F6F84",
"; 	c #61617A",
"> 	c #494967",
", 	c #494968",
"' 	c #6D6D89",
") 	c #8B8BA3",
"! 	c #A7A7B9",
"~ 	c #AAAABB",
"{ 	c #9797AD",
"] 	c #74748F",
"^ 	c #484867",
"/ 	c #454561",
"( 	c #5C5C73",
"_ 	c #9595A4",
": 	c #484866",
"< 	c #4E4E6C",
"[ 	c #81819B",
"} 	c #CECEDA",
"| 	c #E8E8EE",
"1 	c #EBEBF0",
"2 	c #EDEDF2",
"3 	c #ECECF1",
"4 	c #E9E9EF",
"5 	c #D9D9E2",
"6 	c #8E8EA7",
"7 	c #4C4C69",
"8 	c #43435F",
"9 	c #91919F",
"0 	c #444463",
"a 	c #5E5E7B",
"b 	c #ABABBE",
"c 	c #DFDFE7",
"d 	c #E3E3EA",
"e 	c #E0E0E9",
"f 	c #B9B9C9",
"g 	c #696984",
"h 	c #40405D",
"i 	c #5C5C7A",
"j 	c #A8A8BC",
"k 	c #D1D1DD",
"l 	c #C9C9D7",
"m 	c #D8D8E2",
"n 	c #D5D5E0",
"o 	c #D2D2DE",
"p 	c #DCDCE5",
"q 	c #D4D4DF",
"r 	c #B8B8C9",
"s 	c #656581",
"t 	c #41415D",
"u 	c #4C4C6B",
"v 	c #9A9AB0",
"w 	c #C4C4D3",
"x 	c #B6B6C9",
"y 	c #CCCCD9",
"z 	c #EBEBF1",
"A 	c #D0D0DD",
"B 	c #C7C7D6",
"C 	c #C2C2D2",
"D 	c #F0F0F4",
"E 	c #C6C6D5",
"F 	c #A8A8BD",
"G 	c #595970",
"H 	c #6F6F8C",
"I 	c #B6B6C8",
"J 	c #AFAFC3",
"K 	c #C7C7D5",
"L 	c #F6F6F9",
"M 	c #FDFDFE",
"N 	c #B9B9CB",
"O 	c #B9B9CA",
"P 	c #B8B8CA",
"Q 	c #F9F9FB",
"R 	c #FDFDFF",
"S 	c #EEEEF3",
"T 	c #C6C6D4",
"U 	c #B7B7C9",
"V 	c #7F7F9A",
"W 	c #40405C",
"X 	c #6A6A7F",
"Y 	c #464666",
"Z 	c #9696AE",
"` 	c #A9A9BE",
" .	c #B0B0C3",
"..	c #DEDEE7",
"+.	c #FCFCFE",
"@.	c #FEFEFF",
"#.	c #E7E7EE",
"$.	c #ACACC0",
"%.	c #D1D1DC",
"&.	c #FAFAFC",
"*.	c #EAEAEF",
"=.	c #B2B2C3",
"-.	c #8F8FA7",
";.	c #757591",
">.	c #3D3D5D",
",.	c #707083",
"'.	c #575776",
").	c #9797AF",
"!.	c #9B9BB3",
"~.	c #DDDDE6",
"{.	c #E4E4EB",
"].	c #E9E9EE",
"^.	c #9595AB",
"/.	c #616180",
"(.	c #545474",
"_.	c #525272",
":.	c #474766",
"<.	c #53536F",
"[.	c #8A8AA4",
"}.	c #8C8CA6",
"|.	c #9C9CB3",
"1.	c #DBDBE5",
"2.	c #FBFBFC",
"3.	c #8D8DA4",
"4.	c #555575",
"5.	c #4B4B6A",
"6.	c #4A4A64",
"7.	c #5E5E7D",
"8.	c #7B7B98",
"9.	c #7C7C99",
"0.	c #7D7D99",
"a.	c #9292AB",
"b.	c #9292A8",
"c.	c #565676",
"d.	c #4B4B6B",
"e.	c #474762",
"f.	c #6A6A88",
"g.	c #6A6A89",
"h.	c #6B6B89",
"i.	c #797995",
"j.	c #C0C0CE",
"k.	c #D3D3DE",
"l.	c #73738F",
"m.	c #535373",
"n.	c #515171",
"o.	c #5B5B7B",
"p.	c #5C5C7C",
"q.	c #696987",
"r.	c #BABAC9",
"s.	c #CDCDD9",
"t.	c #6D6D8A",
"u.	c #4A4A6A",
"v.	c #484862",
"w.	c #60607F",
"x.	c #B4B4C4",
"y.	c #C8C8D5",
"z.	c #6C6C89",
"A.	c #464665",
"B.	c #56566C",
"C.	c #707084",
"D.	c #424261",
"E.	c #5F5F7E",
"F.	c #B1B1C2",
"G.	c #9393A9",
"H.	c #757590",
"I.	c #C6C6D3",
"J.	c #3B3B5A",
"K.	c #6D6D80",
"L.	c #6E6E83",
"M.	c #727290",
"N.	c #9494AA",
"O.	c #767692",
"P.	c #CCCCD8",
"Q.	c #FBFBFD",
"R.	c #E0E0E8",
"S.	c #84849E",
"T.	c #545473",
"U.	c #3B3B56",
"V.	c #67677B",
"W.	c #636382",
"X.	c #676786",
"Y.	c #83839E",
"Z.	c #E5E5EC",
"`.	c #9C9CB2",
" +	c #696988",
".+	c #666686",
"++	c #7E7E9A",
"@+	c #E2E2EA",
"#+	c #9595AD",
"$+	c #626281",
"%+	c #40405F",
"&+	c #53536A",
"*+	c #42425E",
"=+	c #6D6D8C",
"-+	c #70708E",
";+	c #8B8BA5",
">+	c #9898AF",
",+	c #737391",
"'+	c #8686A0",
")+	c #9595AC",
"!+	c #4F4F6E",
"~+	c #393954",
"{+	c #9191A0",
"]+	c #3F3F5D",
"^+	c #585877",
"/+	c #767693",
"(+	c #7B7B97",
"_+	c #757592",
":+	c #555573",
"<+	c #373754",
"[+	c #8C8C9A",
"}+	c #50506E",
"|+	c #787894",
"1+	c #8585A0",
"2+	c #8585A1",
"3+	c #8686A1",
"4+	c #777793",
"5+	c #3A3A55",
"6+	c #8D8D9A",
"7+	c #555574",
"8+	c #70708B",
"9+	c #7B7B96",
"0+	c #7D7D98",
"a+	c #7C7C98",
"b+	c #7A7A95",
"c+	c #6E6E8A",
"d+	c #535371",
"e+	c #3E3E5A",
"f+	c #51516C",
"g+	c #4D4D67",
"h+	c #55556C",
"                                                                ",
"                                                                ",
"                                                                ",
"                                                                ",
"                                                                ",
"                      . + @ # $ % & * = -                       ",
"                    ; > , ' ) ! ~ { ] ^ / (                     ",
"                _ : < [ } | 1 2 2 3 4 5 6 7 8 9                 ",
"              _ 0 a b c d d d d d d d d e f g h 9               ",
"              : i j k l m n n n n n n o p q r s t               ",
"            ; u v w x y z A B B B B C p D o E F u G             ",
"          . > H I J K L M 4 w N O P q Q R S T U V W X           ",
"          + Y Z `  ...+.@.@.#.N $.%.&.@.M *.=.-.;.>.,.          ",
"          @ '.).!.!.F ~.@.@.@.{.} &.@.@.].^./.(._.:.G           ",
"          <./.[.}.}.}.|.1.@.@.@.2.@.@.D 3.4._._._.5.6.          ",
"          $ 7.8.9.9.9.0.a.5 @.@.@.@.D b.c._._._._.d.e.          ",
"          % c.f.g.g.g.h.i.j.2.@.@.@.k.l.m._._._._.d.e.          ",
"          & n.o.p.p.p.q.r.&.@.@.@.@.@.s.t._._._._.u.v.          ",
"          * 5.4.4.4.w.x.&.@.@.D k.@.@.@.y.z.m.m._.A.B.          ",
"          C.D.m.(.E.F.L @.@.D G.H.s.@.@.2.I.t.(.m.J.K.          ",
"          L./ 4.p.M.%.+.M *.N.w.p.O.P.Q.M R.S.p.T.U.V.          ",
"            ( :.W.X.Y.5 Z.`. +.+.+.+++} @+#+X.$+%+&+            ",
"              *+m.=+-+;+>+,+-+-+-+-+-+'+)+-+=+!+~+              ",
"              {+]+^+/+(+8.8.8.8.8.8.8.8.8._+:+<+[+              ",
"                9 t }+|+Y.1+2+3+2+2+1+Y.4+5.5+6+                ",
"                    G 8 7+8+9+0+a+b+c+d+e+&+                    ",
"                      X ,.G f+f+% g+h+K.V.                      ",
"                                                                ",
"                                                                ",
"                                                                ",
"                                                                ",
"                                                                "};
