/* XPM */
static const char * play32x32_xpm[] = {
"32 32 5 1",
" 	c None",
".	c #000000",
"+	c #00FF00",
"@	c #00C000",
"#	c #008000",
"                                ",
"                                ",
"                                ",
"                                ",
"                                ",
"                                ",
"          ...                   ",
"         .+++.                  ",
"         .++++..                ",
"         .++@+++.               ",
"         .++@@@++..             ",
"         .++@@@@+++.            ",
"         .++@@@@@@++..          ",
"         .++@@@@@@@+++.         ",
"         .++@@@@@@@@@++.        ",
"         .++@@@@@@@@@@#.        ",
"         .++@@@@@@@@@##.        ",
"         .++@@@@@@@###.         ",
"         .++@@@@@@##..          ",
"         .++@@@@###.            ",
"         .++@@@##..             ",
"         .++@###.               ",
"         .++##..                ",
"         .+##.                  ",
"          ...                   ",
"                                ",
"                                ",
"                                ",
"                                ",
"                                ",
"                                ",
"                                "};
