/* XPM */
static const char * shadingon32x32_xpm[] = {
"32 32 5 1",
" 	c None",
".	c #4C4C4C",
"+	c #BBCDEF",
"@	c #000000",
"#	c #CBCDE2",
"                                ",
"                                ",
"                                ",
"    ........................    ",
"   .++++++++++++++++++++++++.   ",
"   .++++++++++++++++++++++++.   ",
"   .++++++++++++++++++++++++.   ",
"   .++++++++++++++++++++++++.   ",
"   .++++++++++++++++++++++++.   ",
"   .++++++++++++++++++++++++.   ",
"   .++++++++++++++++++++++++.   ",
"   .++++++++++++++++++++++++.   ",
"   .++++++++++++++++++++++++.   ",
"   .++++++++++++++++++++++++.   ",
"   .@@@@@@@@@@@@@@@@@@@@@@@@.   ",
"   .@@@@@@@@@@@@@@@@@@@@@@@@.   ",
"   .@@@@@@@@@@@@@@@@@@@@@@@@.   ",
"   .########################.   ",
"   .########################.   ",
"   .########################.   ",
"   .########################.   ",
"   .########################.   ",
"   .########################.   ",
"   .########################.   ",
"   .########################.   ",
"   .########################.   ",
"   .########################.   ",
"   .########################.   ",
"    ........................    ",
"                                ",
"                                ",
"                                "};
