/* XPM */
static char const *zoomyout[]={
"32 32 5 1",
". c None",
"b c #000000",
"# c #303030",
"c c #ff0000",
"a c #ffffff",
".......#######..................",
".....##aaaaaaa##................",
"....#aaa#####aaa#...............",
"...#aa##.....##aa#..............",
"..#aa#....a....#aa#.............",
".#aa#....aba....#aa#............",
".#a#....abbba....#a#............",
"#aa#...abbbbba...#aa#...........",
"#a#.....aabaa.....#a#...........",
"#a#......aba......#a#..cccccc...",
"#a#......aba......#a#..ccccccb..",
"#ab......aba......#a#...bbbbbb..",
"#ab.....aabaa.....#a#...........",
"#aab...abbbbba...#aa#...........",
".#ab....abbba....#a#............",
".#aab....aba.....ba#............",
"..#aab....a.....baa#............",
"...#aabb.....bbbaabb#...........",
"....#aaabbbbbaaaabbbb#..........",
".....##aaaaaaa###bbbbb#.........",
".......#######...#bbbbb#........",
"..................#bbbbb#.......",
"...................#bbbbb#......",
"....................#bbbbb#.....",
".....................#bbbbb#....",
"......................#bbbbb#...",
".......................#bbbbb#..",
"........................#bbbbb#.",
".........................#bbbbb#",
"..........................#bbbbb",
"...........................#bbbb",
"............................#bbb"};
