<?xml version="1.0" encoding="UTF-8" standalone="no"?>
<!-- Created with Inkscape (http://www.inkscape.org/) -->

<svg
   xmlns:dc="http://purl.org/dc/elements/1.1/"
   xmlns:cc="http://creativecommons.org/ns#"
   xmlns:rdf="http://www.w3.org/1999/02/22-rdf-syntax-ns#"
   xmlns:svg="http://www.w3.org/2000/svg"
   xmlns="http://www.w3.org/2000/svg"
   xmlns:sodipodi="http://sodipodi.sourceforge.net/DTD/sodipodi-0.dtd"
   xmlns:inkscape="http://www.inkscape.org/namespaces/inkscape"
   version="1.1"
   width="1100"
   height="1000"
   id="svg2"
   inkscape:version="0.92.4 5da689c313, 2019-01-14"
   sodipodi:docname="countdown.svg"
   inkscape:export-filename="/home/tom/DEVELOP/QT4/nootka/unused-picts/proto/note.png"
   inkscape:export-xdpi="300.09186"
   inkscape:export-ydpi="300.09186">
  <sodipodi:namedview
     pagecolor="#ffffff"
     bordercolor="#666666"
     borderopacity="1"
     objecttolerance="10"
     gridtolerance="10"
     guidetolerance="10"
     inkscape:pageopacity="0"
     inkscape:pageshadow="2"
     inkscape:window-width="1600"
     inkscape:window-height="1163"
     id="namedview8"
     showgrid="false"
     inkscape:zoom="0.67396115"
     inkscape:cx="714.56967"
     inkscape:cy="507.66913"
     inkscape:window-x="0"
     inkscape:window-y="0"
     inkscape:window-maximized="1"
     inkscape:current-layer="svg2"
     showguides="true"
     inkscape:guide-bbox="true">
    <sodipodi:guide
       orientation="1,0"
       position="348.68479,854.64867"
       id="guide5187"
       inkscape:locked="false" />
    <sodipodi:guide
       orientation="0,1"
       position="-83.090843,500.02882"
       id="guide2996"
       inkscape:locked="false" />
  </sodipodi:namedview>
  <defs
     id="defs4" />
  <metadata
     id="metadata7">
    <rdf:RDF>
      <cc:Work
         rdf:about="">
        <dc:format>image/svg+xml</dc:format>
        <dc:type
           rdf:resource="http://purl.org/dc/dcmitype/StillImage" />
        <dc:title></dc:title>
      </cc:Work>
    </rdf:RDF>
  </metadata>
  <g
     aria-label="1"
     style="font-style:normal;font-variant:normal;font-weight:normal;font-stretch:normal;font-size:16px;line-height:1.25;font-family:Arial;-inkscape-font-specification:Arial;letter-spacing:0px;word-spacing:0px;fill:#000000;fill-opacity:1;stroke:none;stroke-width:0.33857802"
     id="text848"
     transform="matrix(2.953529,0,0,2.953529,-600.69664,-518.44485)">
    <path
       d="m 276.63674,418.3493 h -28.992 v -79.296 q 0,-4.992 0.192,-13.056 0.384,-8.064 0.576,-14.208 -0.96,1.152 -4.224,4.224 -3.072,2.88 -5.76,5.184 l -15.744,12.672 -14.016,-17.472 44.16,-35.136 h 23.808 z"
       style="font-style:normal;font-variant:normal;font-weight:bold;font-stretch:normal;font-size:192px;font-family:'Noto Sans';-inkscape-font-specification:'Noto Sans Bold';stroke-width:0.33857802"
       id="path910"
       inkscape:connector-curvature="0" />
  </g>
  <g
     aria-label="2"
     style="font-style:normal;font-variant:normal;font-weight:normal;font-stretch:normal;font-size:16px;line-height:1.25;font-family:Arial;-inkscape-font-specification:Arial;letter-spacing:0px;word-spacing:0px;fill:#000000;fill-opacity:1;stroke:none;stroke-width:0.33857802"
     id="text848-0"
     transform="matrix(2.953529,0,0,2.953529,-571.73401,-518.44485)">
    <path
       d="m 377.41522,365.23938 h -95.808 v -20.16 l 34.368,-34.752 q 10.368,-10.752 16.704,-17.856 6.336,-7.296 9.216,-13.056 2.88,-5.952 2.88,-12.672 0,-8.256 -4.608,-12.288 -4.416,-4.032 -12.096,-4.032 -7.872,0 -15.36,3.648 -7.488,3.648 -15.744,10.368 l -15.744,-18.624 q 5.952,-5.184 12.48,-9.6 6.72,-4.416 15.36,-7.104 8.832,-2.88 21.12,-2.88 13.44,0 23.04,4.992 9.792,4.8 14.976,13.248 5.376,8.256 5.376,18.816 0,11.328 -4.608,20.736 -4.416,9.408 -13.056,18.624 -8.448,9.216 -20.544,20.352 l -17.664,16.512 v 1.344 h 59.712 z"
       style="font-style:normal;font-variant:normal;font-weight:bold;font-stretch:normal;font-size:192px;font-family:'Noto Sans';-inkscape-font-specification:'Noto Sans Bold';stroke-width:0.33857802"
       id="path913"
       inkscape:connector-curvature="0" />
  </g>
  <g
     aria-label="3"
     style="font-style:normal;font-variant:normal;font-weight:normal;font-stretch:normal;font-size:16px;line-height:1.25;font-family:Arial;-inkscape-font-specification:Arial;letter-spacing:0px;word-spacing:0px;fill:#000000;fill-opacity:1;stroke:none;stroke-width:0.33857802"
     id="text848-06"
     transform="matrix(2.953529,0,0,2.953529,-548.44231,-518.44485)">
    <path
       d="m 461.29773,310.06129 q 0,14.208 -8.64,22.656 -8.448,8.448 -20.928,11.52 v 0.576 q 16.512,1.92 24.96,9.984 8.64,8.064 8.64,21.696 0,11.904 -5.952,21.504 -5.76,9.408 -18.048,14.976 -12.096,5.376 -31.296,5.376 -22.272,0 -39.552,-7.488 v -24.576 q 8.832,4.416 18.432,6.72 9.792,2.304 18.048,2.304 15.552,0 21.696,-5.376 6.336,-5.376 6.336,-15.168 0,-5.76 -2.88,-9.6 -2.88,-4.032 -10.176,-5.952 -7.104,-2.112 -19.968,-2.112 h -10.368 v -22.272 h 10.56 q 12.672,0 19.2,-2.304 6.72,-2.496 9.024,-6.528 2.496,-4.224 2.496,-9.6 0,-7.296 -4.608,-11.328 -4.416,-4.224 -14.976,-4.224 -9.792,0 -17.088,3.456 -7.104,3.264 -12.096,6.528 l -13.44,-19.968 q 8.064,-5.76 18.816,-9.6 10.944,-3.84 25.92,-3.84 21.12,0 33.408,8.64 12.48,8.448 12.48,24 z"
       style="font-style:normal;font-variant:normal;font-weight:bold;font-stretch:normal;font-size:192px;font-family:'Noto Sans';-inkscape-font-specification:'Noto Sans Bold';stroke-width:0.33857802"
       id="path916"
       inkscape:connector-curvature="0" />
  </g>
  <g
     aria-label="."
     style="font-style:normal;font-variant:normal;font-weight:normal;font-stretch:normal;font-size:16px;line-height:1.25;font-family:Arial;-inkscape-font-specification:Arial;letter-spacing:0px;word-spacing:0px;fill:#000000;fill-opacity:1;stroke:none;stroke-width:0.33857802"
     id="text848-2"
     transform="matrix(2.953529,0,0,2.953529,-560.3183,-518.44485)">
    <path
       d="m 469.74505,405.29329 q 0,-7.104 3.456,-9.984 3.456,-2.88 8.256,-2.88 4.992,0 8.448,2.88 3.648,2.88 3.648,9.984 0,6.912 -3.648,9.984 -3.456,3.072 -8.448,3.072 -4.8,0 -8.256,-3.072 -3.456,-3.072 -3.456,-9.984 z"
       style="font-style:normal;font-variant:normal;font-weight:normal;font-stretch:normal;font-size:192px;font-family:'Noto Sans';-inkscape-font-specification:'Noto Sans';stroke-width:0.33857802"
       id="path919"
       inkscape:connector-curvature="0" />
  </g>
  <g
     aria-label="."
     style="font-style:normal;font-variant:normal;font-weight:normal;font-stretch:normal;font-size:16px;line-height:1.25;font-family:Arial;-inkscape-font-specification:Arial;letter-spacing:0px;word-spacing:0px;fill:#000000;fill-opacity:1;stroke:none;stroke-width:0.33857802"
     id="text848-2-8"
     transform="matrix(2.953529,0,0,2.953529,-560.3183,-518.44485)">
    <path
       d="m 500.73684,405.29329 q 0,-7.104 3.456,-9.984 3.456,-2.88 8.256,-2.88 4.992,0 8.448,2.88 3.648,2.88 3.648,9.984 0,6.912 -3.648,9.984 -3.456,3.072 -8.448,3.072 -4.8,0 -8.256,-3.072 -3.456,-3.072 -3.456,-9.984 z"
       style="font-style:normal;font-variant:normal;font-weight:normal;font-stretch:normal;font-size:192px;font-family:'Noto Sans';-inkscape-font-specification:'Noto Sans';stroke-width:0.33857802"
       id="path922"
       inkscape:connector-curvature="0" />
  </g>
  <g
     aria-label="."
     style="font-style:normal;font-variant:normal;font-weight:normal;font-stretch:normal;font-size:16px;line-height:1.25;font-family:Arial;-inkscape-font-specification:Arial;letter-spacing:0px;word-spacing:0px;fill:#000000;fill-opacity:1;stroke:none;stroke-width:0.33857802"
     id="text848-2-2"
     transform="matrix(2.953529,0,0,2.953529,-560.3183,-518.44485)">
    <path
       d="m 530.41213,405.29329 q 0,-7.104 3.456,-9.984 3.456,-2.88 8.256,-2.88 4.992,0 8.448,2.88 3.648,2.88 3.648,9.984 0,6.912 -3.648,9.984 -3.456,3.072 -8.448,3.072 -4.8,0 -8.256,-3.072 -3.456,-3.072 -3.456,-9.984 z"
       style="font-style:normal;font-variant:normal;font-weight:normal;font-stretch:normal;font-size:192px;font-family:'Noto Sans';-inkscape-font-specification:'Noto Sans';stroke-width:0.33857802"
       id="path925"
       inkscape:connector-curvature="0" />
  </g>
</svg>
