<?xml version="1.0" encoding="UTF-8" standalone="no"?>
<!-- Created with Inkscape (http://www.inkscape.org/) -->

<svg
   xmlns:dc="http://purl.org/dc/elements/1.1/"
   xmlns:cc="http://creativecommons.org/ns#"
   xmlns:rdf="http://www.w3.org/1999/02/22-rdf-syntax-ns#"
   xmlns:svg="http://www.w3.org/2000/svg"
   xmlns="http://www.w3.org/2000/svg"
   xmlns:sodipodi="http://sodipodi.sourceforge.net/DTD/sodipodi-0.dtd"
   xmlns:inkscape="http://www.inkscape.org/namespaces/inkscape"
   version="1.1"
   width="1000"
   height="1000"
   id="svg2"
   inkscape:version="0.92.2 2405546, 2018-03-11"
   sodipodi:docname="glyph-edit.svg"
   inkscape:export-filename="/home/tom/DEVELOP/QT4/nootka/unused-picts/proto/note.png"
   inkscape:export-xdpi="300.09186"
   inkscape:export-ydpi="300.09186">
  <sodipodi:namedview
     pagecolor="#ffffff"
     bordercolor="#666666"
     borderopacity="1"
     objecttolerance="10"
     gridtolerance="10"
     guidetolerance="10"
     inkscape:pageopacity="0"
     inkscape:pageshadow="2"
     inkscape:window-width="1920"
     inkscape:window-height="1039"
     id="namedview8"
     showgrid="false"
     inkscape:zoom="0.67396115"
     inkscape:cx="262.75931"
     inkscape:cy="534.27531"
     inkscape:window-x="0"
     inkscape:window-y="0"
     inkscape:window-maximized="1"
     inkscape:current-layer="svg2"
     showguides="true"
     inkscape:guide-bbox="true">
    <sodipodi:guide
       orientation="1,0"
       position="348.68479,854.64867"
       id="guide5187"
       inkscape:locked="false" />
    <sodipodi:guide
       orientation="0,1"
       position="-83.090843,500.02882"
       id="guide2996"
       inkscape:locked="false" />
  </sodipodi:namedview>
  <defs
     id="defs4" />
  <metadata
     id="metadata7">
    <rdf:RDF>
      <cc:Work
         rdf:about="">
        <dc:format>image/svg+xml</dc:format>
        <dc:type
           rdf:resource="http://purl.org/dc/dcmitype/StillImage" />
        <dc:title></dc:title>
      </cc:Work>
    </rdf:RDF>
  </metadata>
  <g
     style="font-size:600px;font-style:normal;font-variant:normal;font-weight:normal;font-stretch:normal;line-height:125%;letter-spacing:0px;word-spacing:0px;fill:#000000;fill-opacity:1;stroke:none;font-family:Emmentaler;-inkscape-font-specification:Emmentaler"
     id="text5163" />
  <g
     style="font-size:600px;font-style:normal;font-variant:normal;font-weight:normal;font-stretch:normal;line-height:125%;letter-spacing:0px;word-spacing:0px;fill:#000000;fill-opacity:1;stroke:none;font-family:Emmentaler;-inkscape-font-specification:Emmentaler"
     id="text5167" />
  <path
     style="color:#000000;font-style:normal;font-variant:normal;font-weight:normal;font-stretch:normal;font-size:medium;line-height:normal;font-family:sans-serif;font-variant-ligatures:normal;font-variant-position:normal;font-variant-caps:normal;font-variant-numeric:normal;font-variant-alternates:normal;font-feature-settings:normal;text-indent:0;text-align:start;text-decoration:none;text-decoration-line:none;text-decoration-style:solid;text-decoration-color:#000000;letter-spacing:normal;word-spacing:normal;text-transform:none;writing-mode:lr-tb;direction:ltr;text-orientation:mixed;dominant-baseline:auto;baseline-shift:baseline;text-anchor:start;white-space:normal;shape-padding:0;clip-rule:nonzero;display:inline;overflow:visible;visibility:visible;opacity:1;isolation:auto;mix-blend-mode:normal;color-interpolation:sRGB;color-interpolation-filters:linearRGB;solid-color:#000000;solid-opacity:1;vector-effect:none;fill:#000000;fill-opacity:1;fill-rule:nonzero;stroke:none;stroke-width:26.41279793;stroke-linecap:round;stroke-linejoin:miter;stroke-miterlimit:4;stroke-dasharray:none;stroke-dashoffset:0;stroke-opacity:1;color-rendering:auto;image-rendering:auto;shape-rendering:auto;text-rendering:auto;enable-background:accumulate"
     d="M 897.00586 19.134766 C 893.22417 19.196438 889.42312 19.835671 885.64258 20.832031 C 883.33963 21.438701 881.04529 22.230848 878.7207 23.205078 L 878.70508 23.210938 C 871.73142 26.133298 864.48881 30.684454 855.94922 36.708984 C 844.56319 44.741734 831.42819 55.495975 817.11523 68.734375 C 788.48913 95.211104 755.20723 131.61168 723.42969 175.42969 C 670.08742 248.98352 620.93811 343.55685 607.00977 446.76953 C 606.50963 446.36768 606.35172 446.00017 605.7168 445.58984 C 601.44701 442.83033 592.49836 443.55359 588.88672 446.3125 C 581.66345 451.83 582.07306 455.60743 580.37305 461.19922 C 575.57062 476.98447 575.13946 497.9503 574.33203 519.17188 C 573.59287 518.42007 572.69413 517.63703 571.38672 516.85156 C 568.57573 515.163 563.2291 514.23496 559.29492 515.67383 C 551.42647 518.55149 551.02194 522.8589 550.00977 525.44336 C 548.9976 528.02815 548.41247 530.48073 547.8125 533.52148 C 546.61246 539.60282 545.57009 547.88428 544.49609 559.69922 C 543.28308 573.02588 542.71599 590.67188 541.99219 607.29688 C 540.26512 606.36137 538.16131 605.6022 535.0332 605.57031 C 530.8226 605.52701 526.74735 607.82421 524.73242 609.87891 C 522.71741 611.93345 521.92273 613.67224 521.30664 615.14258 C 520.07471 618.08342 519.69176 620.39318 519.28516 623.22656 C 517.65911 634.55984 517.46889 654.03713 518.62109 691.50781 C 519.12844 707.75081 515.42548 722.6921 515.79883 738.42383 C 516.09566 751.55227 517.3006 762.30287 521.20898 771.52344 L 459.19727 908.03906 A 13.20772 13.20772 0 1 0 483.24414 918.96094 L 542.46289 788.5918 C 545.25014 788.80369 548.03914 788.55945 550.56836 787.89648 L 550.58398 787.88867 L 550.59961 787.88086 C 561.78506 784.91957 569.65219 777.34389 579.05078 767.11133 L 579.0625 767.10352 L 579.07617 767.0957 C 579.63917 766.48114 584.60283 762.14168 589.97461 757.82422 C 595.34614 753.50667 601.53311 748.62997 606.77148 744.11133 C 609.39062 741.85214 611.7644 739.70644 613.87305 737.5 C 615.98152 735.29365 618.16788 734.32897 619.95703 727.91406 C 620.85165 724.70648 620.18227 717.23059 615.72461 713.32617 C 615.71661 713.31347 615.70573 713.3189 615.70312 713.3125 C 627.48973 701.31505 642.86009 687.07383 651.37109 675.93164 C 654.97187 671.21386 657.32566 667.89334 659.11719 663.89062 C 660.01299 661.88918 661.094 659.71819 660.87305 655.46875 C 660.6522 651.2194 656.18354 644.49092 651.7207 642.76953 C 650.0698 642.13267 648.89925 642.05717 647.70117 641.93945 C 656.44982 630.68717 667.44042 617.18278 678.64648 603.89648 C 699.769 578.85284 721.30087 554.19391 731.0332 541.5332 C 737.56269 533.04171 741.46324 527.55398 744.02344 522.35352 C 745.30354 519.75321 747.6326 517.83094 746.07812 510.40234 C 745.30071 506.68782 741.26577 501.5953 737.24219 500.0957 C 733.21852 498.59627 730.59226 499.16335 728.76172 499.55273 C 728.19261 499.67342 727.82495 499.83721 727.31445 499.9707 C 735.56016 488.30724 743.63263 477.015 752.03711 464.84961 C 765.76393 444.9803 779.01344 425.40384 789.6582 409.0918 C 800.30177 392.78164 808.09772 380.38306 812.01562 372.16602 C 824.52723 345.9427 836.45369 316.44159 846.91211 293.74805 C 889.8086 200.67458 915.49491 133.69255 924.74414 89.396484 C 929.36879 67.248525 930.79687 50.726872 924.71875 36.763672 C 921.67961 29.782112 915.64163 23.530864 908.24609 20.902344 C 904.54824 19.588094 900.78755 19.073093 897.00586 19.134766 z M 897.31055 45.595703 C 898.46925 45.570901 899.14903 45.709767 899.38867 45.794922 C 899.86821 45.965322 899.69451 45.491527 900.48633 47.310547 C 902.06964 50.948717 903.02792 64.105237 898.87305 84.003906 C 890.56322 123.80124 865.45374 190.38788 822.91016 282.69531 C 812.01529 306.33598 800.15762 335.65324 788.16016 360.79883 C 785.95619 365.42162 777.97109 378.65015 767.52344 394.66016 C 757.0757 410.67026 743.92361 430.10863 730.29102 449.8418 C 703.0255 489.30824 673.60952 530.24507 660.35156 547.13672 C 658.91795 548.96319 657.932 548.75786 656.2168 554.25195 C 655.78798 555.62534 654.92605 557.73659 656.03516 561.88281 C 657.14427 566.02911 662.56436 570.75061 666.20703 571.51758 C 668.42314 571.98423 669.89404 572.04925 671.08398 571.98047 C 666.7599 577.06541 662.82544 581.66902 658.43945 586.86914 C 637.13603 612.12736 616.93661 636.11944 608.47852 651.60352 C 606.25733 655.67612 602.76208 658.86537 605.68164 667.94336 C 606.94715 671.87848 610.97249 675.43821 614.43359 676.97852 C 607.70105 683.77077 600.13615 691.25938 593.81055 697.8418 C 587.35891 704.55543 582.32304 709.10699 578.66992 716.75977 C 577.75665 718.673 576.55563 720.97488 576.83984 725.4082 C 576.97241 727.47596 578.07498 729.95224 579.58789 732.19922 C 577.43141 733.93417 575.52161 735.5392 573.41016 737.23633 C 568.58244 741.11663 564.48877 744.26914 561.00586 747.76953 L 812.26172 194.64258 A 13.20772 13.20772 0 0 0 795.31055 176.78906 A 13.20772 13.20772 0 0 0 788.21484 183.7207 L 543.21289 723.08398 C 544.1707 714.05455 545.39214 703.05985 545.00586 690.67773 C 544.67686 679.98293 544.74134 673.63654 544.66797 665.69141 C 544.71547 665.71181 544.72362 665.73361 544.77344 665.75391 C 548.32528 667.25477 554.99243 666.63257 558.35547 664.15625 C 565.07979 659.20455 563.98345 656.11646 564.46875 653.66016 C 567.85461 636.56427 568.56836 611.8418 569.33203 590.18945 C 570.80398 591.73739 573.12862 593.73481 577.17578 594.43164 C 581.5459 595.1842 586.39926 593.20451 588.72461 591.22461 C 593.37505 587.26489 593.45224 584.71512 594.25195 582.18359 C 599.40203 565.88071 599.74996 544.15344 600.61328 522.20508 C 600.68618 520.35682 600.83382 518.75554 600.91406 516.91211 C 601.98975 518.56098 603.47691 520.2964 606.72656 521.9043 C 611.73118 524.38062 619.94731 522.31867 623.02148 519.60156 C 626.09599 516.88437 627.096 514.61588 628.16016 512.30664 L 629.39453 509.62891 L 629.37109 506.68164 C 628.52306 388.51932 683.37784 275.61193 744.79492 190.92383 C 775.50347 148.57978 807.78686 113.31929 835.03906 88.113281 C 848.66528 75.510242 861.0471 65.41743 871.16211 58.28125 C 881.2772 51.14518 889.68263 47.066324 892.34375 46.365234 L 892.35742 46.376953 C 894.51441 45.808468 896.15185 45.620506 897.31055 45.595703 z M 720.25977 510.33789 C 720.35367 510.36929 720.39633 510.52068 720.31055 510.69531 C 720.25545 510.80472 719.91217 511.30811 719.82422 511.4668 C 719.92591 510.69737 720.1222 510.29217 720.25977 510.33789 z "
     id="path840" />
  <path
     style="fill:#000000;stroke-width:1.12484396"
     d="M 134.96863,867.05673 C 92.283724,866.92185 51.036264,831.98571 51.387665,787.92677 55.388623,699.09699 158.03018,634.47597 240.82747,661.73156 c 15.47121,1.79089 37.79655,36.608 31.61351,3.78456 0.48683,-180.30419 -0.48391,-360.63022 0.60629,-540.92126 33.66096,-17.38254 17.3406,42.59427 32.60833,59.71611 40.19911,104.14285 151.56316,164.2283 180.99279,273.98954 9.17243,39.0316 8.06221,81.23189 -9.37366,117.88417 -14.17686,41.45654 -42.165,-14.85324 -33.11259,-36.9431 5.88563,-60.51992 -15.8621,-123.25907 -61.6004,-164.10962 -27.62178,-25.24658 -56.9108,-49.47515 -89.48235,-68.04737 -1.12821,145.87531 0.37593,291.78638 -0.84205,437.66066 -9.63272,73.61752 -85.71401,125.78184 -157.26871,122.31148 z"
     id="path3066"
     inkscape:connector-curvature="0" />
</svg>
