<?xml version="1.0" encoding="UTF-8" standalone="no"?>
<!-- Created with Inkscape (http://www.inkscape.org/) -->

<svg
   xmlns:dc="http://purl.org/dc/elements/1.1/"
   xmlns:cc="http://creativecommons.org/ns#"
   xmlns:rdf="http://www.w3.org/1999/02/22-rdf-syntax-ns#"
   xmlns:svg="http://www.w3.org/2000/svg"
   xmlns="http://www.w3.org/2000/svg"
   xmlns:sodipodi="http://sodipodi.sourceforge.net/DTD/sodipodi-0.dtd"
   xmlns:inkscape="http://www.inkscape.org/namespaces/inkscape"
   width="793.69604"
   height="1066.6666"
   id="svg3088"
   version="1.1"
   inkscape:version="0.92.1 r"
   sodipodi:docname="piano-glyph.svg">
  <defs
     id="defs3090" />
  <sodipodi:namedview
     id="base"
     pagecolor="#ffffff"
     bordercolor="#666666"
     borderopacity="1.0"
     inkscape:pageopacity="0.0"
     inkscape:pageshadow="2"
     inkscape:zoom="0.7"
     inkscape:cx="171.13722"
     inkscape:cy="520.39127"
     inkscape:document-units="px"
     inkscape:current-layer="layer1"
     showgrid="false"
     inkscape:window-width="1920"
     inkscape:window-height="1039"
     inkscape:window-x="0"
     inkscape:window-y="0"
     inkscape:window-maximized="1"
     showguides="true"
     inkscape:guide-bbox="true">
    <sodipodi:guide
       orientation="0,1"
       position="-73.269731,157.31442"
       id="guide2983"
       inkscape:locked="false" />
    <sodipodi:guide
       orientation="0,1"
       position="-51.71981,907.25167"
       id="guide2985"
       inkscape:locked="false" />
  </sodipodi:namedview>
  <metadata
     id="metadata3093">
    <rdf:RDF>
      <cc:Work
         rdf:about="">
        <dc:format>image/svg+xml</dc:format>
        <dc:type
           rdf:resource="http://purl.org/dc/dcmitype/StillImage" />
        <dc:title />
      </cc:Work>
    </rdf:RDF>
  </metadata>
  <g
     inkscape:label="Layer 1"
     inkscape:groupmode="layer"
     id="layer1"
     transform="translate(0,-55.852995)">
    <path
       style="fill:#000000;stroke-width:1.64112234"
       d="m 422.57211,935.21462 -6.97552,-5.30726 0.56693,-20.51402 c 0.31199,-11.28272 1.53825,-26.78424 2.72509,-34.44777 1.75603,-11.33891 1.79332,-22.79964 0.19971,-61.5421 -1.94737,-47.35199 -6.28993,-116.90609 -10.90832,-174.71826 -1.33059,-16.65595 -1.86754,-30.75995 -1.19333,-31.34214 1.59664,-1.37859 77.8589,-13.27146 78.83614,-12.29425 0.40998,0.41 -0.46334,20.90238 -1.94127,45.53845 -9.19476,153.28858 -12.77165,247.72793 -9.46011,249.77461 1.27168,0.78588 1.89769,7.90864 1.89769,21.58999 0,11.22945 -0.21583,20.41721 -0.47944,20.41721 -0.26362,0 -10.04908,1.84218 -21.74486,4.09383 -11.6958,2.25161 -22.0036,4.08599 -22.9062,4.07639 -0.90262,-0.0134 -4.78009,-2.40572 -8.61663,-5.32468 z M 93.527794,788.45013 l -6.154212,-4.2262 v -13.79392 c 0,-11.55235 0.574925,-14.57163 3.537933,-18.5793 3.477981,-4.70422 3.52055,-5.51645 2.512095,-47.93638 -0.924614,-38.89326 -4.859661,-105.33382 -9.35009,-157.86975 -0.918285,-10.74344 -1.47456,-19.72224 -1.236173,-19.95291 0.411797,-0.39822 60.531183,21.85899 61.268103,22.68278 0.19292,0.21585 -0.63416,15.53185 -1.83847,34.03553 -7.74173,118.94825 -9.05136,164.45268 -4.89137,169.95277 1.70388,2.25269 2.42482,7.62224 2.46173,18.33473 0.062,17.38197 2.65549,15.1177 -22.10296,19.28162 -18.170716,3.05598 -16.7869,3.16627 -24.206586,-1.92897 z m 672.860146,-12.20196 -6.15415,-5.02751 v -15.52564 c 0,-8.53909 0.8533,-20.69255 1.89622,-27.0076 2.05432,-12.43957 0.14573,-70.66874 -4.42411,-134.98966 -1.2913,-18.17363 -2.35851,-36.04785 -2.3716,-39.72052 l -0.0248,-6.67747 29.59646,-5.43789 c 16.27808,-2.9908 30.02245,-5.01181 30.54319,-4.49115 0.52039,0.52039 -0.65682,27.75848 -2.61661,60.52847 -1.95979,32.77 -3.99841,76.65429 -4.53042,97.52064 -0.85667,33.60388 -0.65793,38.38043 1.73972,41.8035 2.0841,2.9755 2.70689,7.70249 2.70689,20.5443 v 16.67959 l -18.61555,3.46927 c -10.23863,1.90814 -19.28535,3.44454 -20.1038,3.41426 -0.8185,-0.0309 -4.2575,-2.31743 -7.64235,-5.08258 z M 322.26139,597.99033 c -6.83019,-5.70472 -9.23231,-20.96881 -9.23291,-58.67012 -6.4e-4,-38.77473 1.97355,-49.65632 10.99427,-60.60001 7.73443,-9.38327 14.70692,-11.89018 48.19146,-17.32714 35.5089,-5.7657 47.50058,-8.62542 59.03722,-14.0793 16.41986,-7.7622 31.05393,-27.38771 35.14244,-47.12874 0.97574,-4.71125 2.31576,-17.72697 2.97791,-28.92397 l 1.20386,-20.35808 6.12229,-3.17224 c 4.64884,-2.40874 18.07804,-4.52671 55.7982,-8.80003 139.77223,-15.83497 230.0873,-29.41944 291.33113,-43.81962 l 23.38598,-5.49871 -0.0248,34.59212 c -0.0373,46.85583 -3.09396,188.42112 -4.09415,189.42136 -0.44162,0.44162 -39.3904,8.08188 -86.55239,16.97788 -128.50376,24.23922 -408.8745,70.25855 -428.04701,70.25855 -1.53696,0 -4.34187,-1.29239 -6.23306,-2.87195 z M 128.40167,525.39424 -36.531166,463.40931 -36.970251,422.94708 c -0.282037,-25.99024 0.177831,-41.61493 1.285712,-43.68501 3.2558,-6.08353 15.369057,-10.16396 54.000655,-18.19028 45.439811,-9.44089 52.400058,-11.68786 61.780217,-19.94461 10.069262,-8.86329 12.056267,-15.60343 13.543121,-45.93956 0.989261,-20.18372 1.838851,-26.43453 3.868769,-28.46447 2.808627,-2.80856 34.526207,-6.14406 106.385057,-11.18757 97.47951,-6.84171 130.36568,-7.1864 329.04499,-3.44838 199.93361,3.76156 279.49941,5.80366 294.20437,7.55076 13.29853,1.58001 21.71175,4.11431 21.71175,6.54009 0,1.28768 -45.86233,12.73501 -68.10657,16.99953 -56.59433,10.84996 -142.89514,22.86924 -253.81969,35.35006 -49.86798,5.61094 -58.89978,8.04802 -69.75072,18.821 l -6.83373,6.78461 L 293.98293,313.4177 C 149.42288,285.02027 137.22222,282.86925 132.32342,284.91612 c -8.28037,3.45974 -9.14955,6.71266 -8.55683,32.02482 0.50615,21.62256 0.73192,22.94175 4.63508,27.10925 2.25653,2.40936 5.28877,5.02039 6.73827,5.80223 1.44943,0.78189 67.17644,17.34389 146.05986,36.80439 78.88348,19.46056 144.47507,35.76439 145.75928,36.23076 6.42908,2.335 -12.33995,9.01986 -36.36271,12.95112 -8.78651,1.4379 -17.88129,3.33897 -20.21058,4.22459 -2.32931,0.88554 -11.59478,1.61012 -20.58995,1.61012 -14.52285,0 -20.71529,-1.09457 -55.28102,-9.77155 -35.23439,-8.84481 -112.15486,-29.58696 -176.81425,-47.67921 l -24.650592,-6.89743 -34.103787,8.63424 c -52.6791114,13.33709 -61.6398574,8.20402 102.431889,58.67743 l 135.5466,41.69818 -2.23495,9.26081 c -4.67303,19.36362 -4.30446,77.12181 0.57313,89.83299 0.48628,1.26746 0.25121,2.22479 -0.52227,2.1274 -0.77352,-0.0973 -75.62614,-28.07024 -166.33923,-62.16202 z"
       id="path4496"
       inkscape:connector-curvature="0" />
  </g>
</svg>
