<?xml version="1.0" encoding="UTF-8" standalone="no"?>
<svg
   viewBox="0 0 800 1000"
   version="1.1"
   id="svg6"
   sodipodi:docname="split.svg"
   inkscape:version="1.1 (c4e8f9ed74, 2021-05-24)"
   width="800"
   height="1000"
   inkscape:export-filename="../../../picts/mic.png"
   inkscape:export-xdpi="2044.9126"
   inkscape:export-ydpi="2044.9126"
   xmlns:inkscape="http://www.inkscape.org/namespaces/inkscape"
   xmlns:sodipodi="http://sodipodi.sourceforge.net/DTD/sodipodi-0.dtd"
   xmlns="http://www.w3.org/2000/svg"
   xmlns:svg="http://www.w3.org/2000/svg"
   xmlns:rdf="http://www.w3.org/1999/02/22-rdf-syntax-ns#"
   xmlns:cc="http://creativecommons.org/ns#"
   xmlns:dc="http://purl.org/dc/elements/1.1/">
  <metadata
     id="metadata10">
    <rdf:RDF>
      <cc:Work
         rdf:about="">
        <dc:format>image/svg+xml</dc:format>
        <dc:type
           rdf:resource="http://purl.org/dc/dcmitype/StillImage" />
        <cc:license
           rdf:resource="http://creativecommons.org/publicdomain/zero/1.0/" />
      </cc:Work>
      <cc:License
         rdf:about="http://creativecommons.org/publicdomain/zero/1.0/">
        <cc:permits
           rdf:resource="http://creativecommons.org/ns#Reproduction" />
        <cc:permits
           rdf:resource="http://creativecommons.org/ns#Distribution" />
        <cc:permits
           rdf:resource="http://creativecommons.org/ns#DerivativeWorks" />
      </cc:License>
    </rdf:RDF>
  </metadata>
  <sodipodi:namedview
     pagecolor="#ffffff"
     bordercolor="#666666"
     borderopacity="1"
     objecttolerance="10"
     gridtolerance="10"
     guidetolerance="10"
     inkscape:pageopacity="0"
     inkscape:pageshadow="2"
     inkscape:window-width="2560"
     inkscape:window-height="1403"
     id="namedview8"
     showgrid="false"
     inkscape:zoom="0.65186405"
     inkscape:cx="134.23044"
     inkscape:cy="409.59461"
     inkscape:window-x="0"
     inkscape:window-y="0"
     inkscape:window-maximized="1"
     inkscape:current-layer="svg6"
     fit-margin-top="0"
     fit-margin-left="0"
     fit-margin-right="0"
     fit-margin-bottom="0"
     inkscape:document-rotation="0"
     showguides="true"
     inkscape:guide-bbox="true"
     inkscape:pagecheckerboard="0">
    <sodipodi:guide
       position="-247.09002,200.00444"
       orientation="0,-1"
       id="guide849" />
    <sodipodi:guide
       position="399.67214,980.23348"
       orientation="1,0"
       id="guide857" />
  </sodipodi:namedview>
  <defs
     id="defs3051">
    <style
       type="text/css"
       id="current-color-scheme">
      .ColorScheme-Text {
        color:#4d4d4d;
      }
      </style>
    <filter
       style="color-interpolation-filters:sRGB"
       inkscape:label="Drop Shadow"
       id="filter2822"
       x="-0.097912092"
       y="-0.047649986"
       width="1.2832457"
       height="1.1378446">
      <feFlood
         flood-opacity="0.831373"
         flood-color="rgb(15,15,15)"
         result="flood"
         id="feFlood2812" />
      <feComposite
         in="flood"
         in2="SourceGraphic"
         operator="in"
         result="composite1"
         id="feComposite2814" />
      <feGaussianBlur
         in="composite1"
         stdDeviation="7"
         result="blur"
         id="feGaussianBlur2816" />
      <feOffset
         dx="15"
         dy="15"
         result="offset"
         id="feOffset2818" />
      <feComposite
         in="SourceGraphic"
         in2="offset"
         operator="over"
         result="composite2"
         id="feComposite2820" />
    </filter>
  </defs>
  <path
     fill="currentColor"
     d="m 399.67214,452.09486 -166.43,-339.44659 c -4.69,-7.7062 -12.29,-7.7062 -16.97,0 -32.8,53.89405 -32.8,141.29114 0,195.18519 l 115.52,255.79579 -24.86,56.84775 c -10.92,-7.0818 -22.81,-10.97598 -35.26,-10.97598 -53.02,0 -96,70.62094 -96,157.7387 0,87.11777 42.98,157.7387 96,157.7387 53.02,0 96,-70.62093 96,-157.7387 0,-7.45971 -0.32,-14.77156 -0.93,-21.95196 l 32.93,-54.10766 32.93,54.10766 c -0.61,7.1804 -0.93,14.50868 -0.93,21.95196 0,87.11777 42.98,157.7387 96,157.7387 53.02,0 96,-70.62093 96,-157.7387 0,-87.11776 -42.98,-157.7387 -96,-157.7387 -12.45,0 -24.34,3.89418 -35.26,10.97598 l -24.86,-56.84775 115.52,-255.79579 c 32.8,-53.89405 32.8,-141.29114 0,-195.18519 -4.68,-7.7062 -12.28,-7.7062 -16.97,0 z m -96,315.14486 c 0,28.9845 -14.36,68.57957 -32,68.57957 -17.64,0 -32,-39.59507 -32,-68.57957 0,-28.98448 14.36,-52.57955 32,-52.57955 17.64,0 32,23.59507 32,52.57955 z m 256,0 c 0,28.9845 -14.36,68.57957 -32,68.57957 -17.64,0 -32,-39.59507 -32,-68.57957 0,-28.98448 14.36,-52.57955 32,-52.57955 17.64,0 32,23.59507 32,52.57955 z"
     id="path2"
     style="stroke-width:1.28184"
     sodipodi:nodetypes="ccccccsssscccssssccccccssssssssss" />
</svg>
