<?xml version="1.0" encoding="UTF-8" standalone="no"?>
<svg
   xmlns:dc="http://purl.org/dc/elements/1.1/"
   xmlns:cc="http://creativecommons.org/ns#"
   xmlns:rdf="http://www.w3.org/1999/02/22-rdf-syntax-ns#"
   xmlns:svg="http://www.w3.org/2000/svg"
   xmlns="http://www.w3.org/2000/svg"
   xmlns:sodipodi="http://sodipodi.sourceforge.net/DTD/sodipodi-0.dtd"
   xmlns:inkscape="http://www.inkscape.org/namespaces/inkscape"
   height="1000"
   width="1000"
   viewBox="0 0 1000 1000"
   id="svg2"
   version="1.1"
   inkscape:version="1.0.2 (e86c870879, 2021-01-15, custom)"
   sodipodi:docname="ukulele-head.svg">
  <defs
     id="defs8" />
  <sodipodi:namedview
     pagecolor="#ffffff"
     bordercolor="#666666"
     borderopacity="1"
     objecttolerance="10000"
     gridtolerance="10000"
     guidetolerance="10000"
     inkscape:pageopacity="0"
     inkscape:pageshadow="2"
     inkscape:window-width="2560"
     inkscape:window-height="1403"
     id="namedview6"
     showgrid="true"
     units="px"
     inkscape:snap-path-clip="true"
     inkscape:snap-path-mask="true"
     inkscape:snap-perpendicular="true"
     inkscape:snap-tangential="true"
     fit-margin-top="0"
     fit-margin-left="0"
     fit-margin-right="0"
     fit-margin-bottom="0"
     inkscape:zoom="0.7523616"
     inkscape:cx="1078.0041"
     inkscape:cy="592.41795"
     inkscape:window-x="0"
     inkscape:window-y="0"
     inkscape:window-maximized="1"
     inkscape:current-layer="svg2"
     inkscape:document-rotation="0"
     inkscape:snap-grids="false"
     inkscape:snap-others="false"
     inkscape:object-nodes="false"
     inkscape:snap-nodes="false">
    <inkscape:grid
       type="xygrid"
       id="grid3195"
       originx="-324.28336"
       originy="709.56955" />
  </sodipodi:namedview>
  <metadata
     id="metadata4">
    <rdf:RDF>
      <cc:Work
         rdf:about="">
        <dc:format>image/svg+xml</dc:format>
        <dc:type
           rdf:resource="http://purl.org/dc/dcmitype/StillImage" />
        <dc:title></dc:title>
      </cc:Work>
    </rdf:RDF>
  </metadata>
  <path
     id="path26"
     style="fill:#000000;stroke:none;stroke-width:0.752093;stroke-linecap:butt;stroke-linejoin:miter;stroke-miterlimit:4;stroke-dasharray:none;stroke-opacity:1"
     d="m 501.35388,106.0077 c -43.71385,0.81281 -76.16768,21.8003 -90.59721,26.95418 -15.89294,5.67657 -73.77834,18.74352 -73.77834,18.74352 0,0 12.2942,61.28036 21.21936,118.90677 h -33.50221 a 29.840108,42.287603 0 0 0 -28.30052,-28.88484 29.840108,42.287603 0 0 0 -29.83964,42.28814 29.840108,42.287603 0 0 0 29.83964,42.28813 29.840108,42.287603 0 0 0 28.43005,-29.45712 h 37.18284 c 3.34273,24.47493 5.57795,46.32349 5.23179,59.59797 -0.58928,22.59863 -5.29248,62.60421 -10.07806,98.49762 h -32.4661 a 29.840108,42.287603 0 0 0 -28.30052,-28.88485 29.840108,42.287603 0 0 0 -29.83964,42.28815 29.840108,42.287603 0 0 0 29.83964,42.28814 29.840108,42.287603 0 0 0 28.43005,-29.45712 h 28.7252 c -3.89085,27.56994 -7.11729,48.39035 -7.11729,48.3904 l -3.57522,25.18012 2.76199,12.16836 c 0,0 35.53116,37.25705 49.6253,58.72752 14.09415,21.47045 8.27089,57.05585 8.27089,57.05585 l 188.48039,0.19276 c 0,0 0.7806,-36.14134 13.21657,-63.25149 12.43595,-27.11014 35.9178,-41.01708 35.9178,-41.01708 l 11.33105,-18.99654 -3.87039,-19.68928 c 0,0 -3.57284,-25.42604 -7.38836,-59.67025 H 675.175 a 29.840108,42.287603 0 0 0 28.43004,29.45713 29.840108,42.287603 0 0 0 29.83964,-42.28814 29.840108,42.287603 0 0 0 -29.83964,-42.28814 29.840108,42.287603 0 0 0 -28.30052,28.88485 h -36.86659 c -3.38852,-34.0866 -6.32514,-72.19668 -6.32514,-102.24755 0,-16.43141 1.54805,-36.08012 3.91256,-56.57394 H 675.175 a 29.840108,42.287603 0 0 0 28.43004,29.45714 29.840108,42.287603 0 0 0 29.83964,-42.28815 29.840108,42.287603 0 0 0 -29.83964,-42.28813 29.840108,42.287603 0 0 0 -28.30052,28.88485 h -35.88468 c 8.56392,-60.62583 21.60189,-120.08446 21.60189,-120.08446 -2.72291,0.95497 -43.45514,-10.41979 -62.29368,-15.54782 -17.25779,-4.69775 -64.93832,-27.9398 -97.37417,-27.3367 z m -73.01932,144.46641 a 31.128833,31.128833 0 0 1 31.12876,31.12877 31.128833,31.128833 0 0 1 -31.12876,31.12875 31.128833,31.128833 0 0 1 -31.12877,-31.12875 31.128833,31.128833 0 0 1 31.12877,-31.12877 z m 141.8761,0 a 31.128833,31.128833 0 0 1 31.12877,31.12877 31.128833,31.128833 0 0 1 -31.12877,31.12875 31.128833,31.128833 0 0 1 -31.12877,-31.12875 31.128833,31.128833 0 0 1 31.12877,-31.12877 z M 428.5213,265.60927 a 16.592084,16.592084 0 0 0 -16.47852,16.59298 16.592084,16.592084 0 0 0 16.59297,16.58997 16.592084,16.592084 0 0 0 16.59298,-16.58997 16.592084,16.592084 0 0 0 -16.59298,-16.59298 16.592084,16.592084 0 0 0 -0.11442,0 z m 141.87611,0 a 16.592084,16.592084 0 0 0 -16.47852,16.59298 16.592084,16.592084 0 0 0 16.59296,16.58997 16.592084,16.592084 0 0 0 16.59298,-16.58997 16.592084,16.592084 0 0 0 -16.59298,-16.59298 16.592084,16.592084 0 0 0 -0.11442,0 z M 428.33456,435.5299 a 31.128833,31.128833 0 0 1 31.12876,31.12876 31.128833,31.128833 0 0 1 -31.12876,31.12876 31.128833,31.128833 0 0 1 -31.12877,-31.12876 31.128833,31.128833 0 0 1 31.12877,-31.12876 z m 141.8761,0 a 31.128833,31.128833 0 0 1 31.12877,31.12876 31.128833,31.128833 0 0 1 -31.12877,31.12876 31.128833,31.128833 0 0 1 -31.12877,-31.12876 31.128833,31.128833 0 0 1 31.12877,-31.12876 z M 428.5213,450.85182 a 16.592084,16.592084 0 0 0 -16.47852,16.58995 16.592084,16.592084 0 0 0 16.59297,16.59298 16.592084,16.592084 0 0 0 16.59298,-16.59298 16.592084,16.592084 0 0 0 -16.59298,-16.58995 16.592084,16.592084 0 0 0 -0.11442,0 z m 141.87611,0 a 16.592084,16.592084 0 0 0 -16.47852,16.58995 16.592084,16.592084 0 0 0 16.59296,16.59298 16.592084,16.592084 0 0 0 16.59298,-16.59298 16.592084,16.592084 0 0 0 -16.59298,-16.58995 16.592084,16.592084 0 0 0 -0.11442,0 z m 19.92422,254.05412 -187.45032,0.44879 -2.10838,91.28695 191.99237,-0.61143 z m 2.14451,100.66625 -191.93211,0.43673 -0.72288,87.67859 194.87484,0.31631 z" />
</svg>
