<?xml version="1.0" encoding="UTF-8" standalone="no"?>
<svg
   height="1000"
   width="1000"
   viewBox="0 0 1000 1000"
   id="svg2"
   version="1.1"
   inkscape:version="1.1 (c4e8f9ed74, 2021-05-24)"
   sodipodi:docname="ukulele-head.svg"
   xmlns:inkscape="http://www.inkscape.org/namespaces/inkscape"
   xmlns:sodipodi="http://sodipodi.sourceforge.net/DTD/sodipodi-0.dtd"
   xmlns="http://www.w3.org/2000/svg"
   xmlns:svg="http://www.w3.org/2000/svg"
   xmlns:rdf="http://www.w3.org/1999/02/22-rdf-syntax-ns#"
   xmlns:cc="http://creativecommons.org/ns#"
   xmlns:dc="http://purl.org/dc/elements/1.1/">
  <defs
     id="defs8" />
  <sodipodi:namedview
     pagecolor="#ffffff"
     bordercolor="#666666"
     borderopacity="1"
     objecttolerance="10000"
     gridtolerance="10000"
     guidetolerance="10000"
     inkscape:pageopacity="0"
     inkscape:pageshadow="2"
     inkscape:window-width="2560"
     inkscape:window-height="1403"
     id="namedview6"
     showgrid="true"
     units="px"
     inkscape:snap-path-clip="true"
     inkscape:snap-path-mask="true"
     inkscape:snap-perpendicular="true"
     inkscape:snap-tangential="true"
     fit-margin-top="0"
     fit-margin-left="0"
     fit-margin-right="0"
     fit-margin-bottom="0"
     inkscape:zoom="0.26599999"
     inkscape:cx="62.030076"
     inkscape:cy="-135.33835"
     inkscape:window-x="0"
     inkscape:window-y="0"
     inkscape:window-maximized="1"
     inkscape:current-layer="svg2"
     inkscape:document-rotation="0"
     inkscape:snap-grids="false"
     inkscape:snap-others="false"
     inkscape:object-nodes="false"
     inkscape:snap-nodes="false"
     inkscape:pagecheckerboard="0">
    <inkscape:grid
       type="xygrid"
       id="grid3195"
       originx="-324.28336"
       originy="709.56955" />
  </sodipodi:namedview>
  <metadata
     id="metadata4">
    <rdf:RDF>
      <cc:Work
         rdf:about="">
        <dc:format>image/svg+xml</dc:format>
        <dc:type
           rdf:resource="http://purl.org/dc/dcmitype/StillImage" />
      </cc:Work>
    </rdf:RDF>
  </metadata>
  <path
     id="path26"
     style="fill:#000000;stroke:none;stroke-width:0.752093;stroke-linecap:butt;stroke-linejoin:miter;stroke-miterlimit:4;stroke-dasharray:none;stroke-opacity:1"
     d="m 501.35388,106.0077 c -43.71385,0.81281 -76.16768,21.8003 -90.59721,26.95418 -15.89294,5.67657 -73.77834,18.74352 -73.77834,18.74352 0,0 12.2942,61.28036 21.21936,118.90677 h -33.50221 c -4.06808,-17.25176 -15.46514,-28.88413 -28.30052,-28.88484 -16.4802,3.7e-4 -29.83985,18.93339 -29.83964,42.28814 -2.1e-4,23.35475 13.35944,42.28776 29.83964,42.28813 12.99107,-0.002 24.48843,-11.91482 28.43005,-29.45712 h 37.18284 c 3.34273,24.47493 5.57795,46.32349 5.23179,59.59797 -0.58928,22.59863 -5.29248,62.60421 -10.07806,98.49762 h -32.4661 c -4.06808,-17.25176 -15.46514,-28.88414 -28.30052,-28.88485 -16.4802,3.7e-4 -29.83985,18.9334 -29.83964,42.28815 -2.1e-4,23.35475 13.35944,42.28777 29.83964,42.28814 12.99107,-0.002 24.48843,-11.91482 28.43005,-29.45712 h 28.7252 c -3.89085,27.56994 -7.11729,48.39035 -7.11729,48.3904 l -3.57522,25.18012 2.76199,12.16836 c 0,0 35.53116,37.25705 49.6253,58.72752 14.09415,21.47045 8.27089,57.05585 8.27089,57.05585 l 188.48039,0.19276 c 0,0 0.7806,-36.14134 13.21657,-63.25149 12.43595,-27.11014 35.9178,-41.01708 35.9178,-41.01708 l 11.33105,-18.99654 -3.87039,-19.68928 c 0,0 -3.57284,-25.42604 -7.38836,-59.67025 H 675.175 c 3.94162,17.5423 15.43898,29.45503 28.43004,29.45713 16.4802,-3.7e-4 29.83985,-18.93339 29.83964,-42.28814 2.1e-4,-23.35475 -13.35944,-42.28777 -29.83964,-42.28814 -12.83538,7.1e-4 -24.23244,11.63309 -28.30052,28.88485 h -36.86659 c -3.38852,-34.0866 -6.32514,-72.19668 -6.32514,-102.24755 0,-16.43141 1.54805,-36.08012 3.91256,-56.57394 H 675.175 c 3.94161,17.54231 15.43897,29.45503 28.43004,29.45714 16.4802,-3.7e-4 29.83985,-18.9334 29.83964,-42.28815 2.1e-4,-23.35475 -13.35944,-42.28776 -29.83964,-42.28813 -12.83538,7.1e-4 -24.23244,11.63309 -28.30052,28.88485 h -35.88468 c 8.56392,-60.62583 21.60189,-120.08446 21.60189,-120.08446 -2.72291,0.95497 -43.45514,-10.41979 -62.29368,-15.54782 -17.25779,-4.69775 -64.93832,-27.9398 -97.37417,-27.3367 z m -73.01932,140.46641 c 21.51664,0.57624 39.01819,15.48111 39.12876,35.12877 0.12102,21.50405 -18.72718,38.85542 -39.12876,39.12875 -23.83509,0.31933 -39.71701,-21.9469 -39.12877,-39.12875 0.57337,-16.74749 15.02607,-35.77427 39.12877,-35.12877 z m 141.8761,-4 c 19.3971,0.20104 39.44793,17.02701 39.12877,39.12877 -0.32926,22.80107 -15.34997,39.30216 -39.12877,39.12875 -23.28308,-0.16979 -38.21227,-21.96128 -39.12877,-39.12875 -1.05478,-19.7576 16.39683,-39.36438 39.12877,-39.12877 z M 428.5213,265.60927 c -9.11952,0.0624 -16.47923,7.47324 -16.47852,16.59298 0.001,9.16308 7.42989,16.59046 16.59297,16.58997 9.16308,4.9e-4 16.59181,-7.42689 16.59298,-16.58997 4.9e-4,-9.16425 -7.42873,-16.59347 -16.59298,-16.59298 -0.0381,-1.3e-4 -0.0763,-1.3e-4 -0.11442,0 z m 141.87611,0 c -9.11952,0.0624 -16.47923,7.47324 -16.47852,16.59298 10e-4,9.16307 7.42989,16.59045 16.59296,16.58997 9.16308,4.9e-4 16.59181,-7.42689 16.59298,-16.58997 4.9e-4,-9.16425 -7.42873,-16.59347 -16.59298,-16.59298 -0.0381,-1.3e-4 -0.0763,-1.3e-4 -0.11442,0 z M 428.33456,427.5299 c 23.2199,0.41988 39.26992,19.90807 39.12876,39.12876 -0.14891,20.27705 -16.4502,38.85522 -39.12876,39.12876 -23.43058,0.28261 -39.55653,-17.03552 -39.12877,-39.12876 0.38337,-19.8003 15.43836,-39.55715 39.12877,-39.12876 z m 141.8761,0 c 22.1509,-0.0835 39.29243,18.72657 39.12877,43.12876 -0.14397,21.46718 -17.6507,34.97255 -39.12877,35.12876 -23.69198,0.17231 -39.27123,-18.43957 -39.12877,-39.12876 0.14041,-20.39125 17.17666,-39.046 39.12877,-39.12876 z M 428.5213,450.85182 c -9.11834,0.0624 -16.47756,7.47139 -16.47852,16.58995 -4.9e-4,9.16425 7.42872,16.59347 16.59297,16.59298 9.16425,4.9e-4 16.59347,-7.42873 16.59298,-16.59298 -10e-4,-9.16307 -7.42991,-16.59044 -16.59298,-16.58995 -0.0381,-1.3e-4 -0.0763,-1.3e-4 -0.11442,0 z m 141.87611,0 c -9.11834,0.0624 -16.47756,7.47139 -16.47852,16.58995 -4.9e-4,9.16425 7.42871,16.59346 16.59296,16.59298 9.16425,4.9e-4 16.59347,-7.42873 16.59298,-16.59298 -10e-4,-9.16307 -7.42991,-16.59044 -16.59298,-16.58995 -0.0381,-1.3e-4 -0.0763,-1.3e-4 -0.11442,0 z m 19.92422,254.05412 -187.45032,0.44879 -2.10838,91.28695 191.99237,-0.61143 z m 2.14451,100.66625 -191.93211,0.43673 -0.72288,87.67859 194.87484,0.31631 z"
     sodipodi:nodetypes="ssccccccccsccccccccccsccsccccccccccsccccccccsssssssssssssccccsssccccsssssssssssssccccssscccssscccccccccc" />
</svg>
