/* XPM */
static const char * autofollow32x32_xpm[] = {
"32 32 5 1",
" 	c None",
".	c #000000",
"+	c #D9D9D9",
"@	c #3F3F3F",
"#	c #7C7C7C",
"                                ",
"                                ",
"                                ",
"                .               ",
"               .+.              ",
"              .++@.             ",
"             .++##@.            ",
"            .++####@.           ",
"           .+@@###@@@.          ",
"           ....@#@....          ",
"               .+.              ",
"               .+.              ",
"               .+.              ",
"               .+.              ",
"               ...              ",
"                                ",
"                                ",
"               ...              ",
"               .+.              ",
"               .+.              ",
"               .+.              ",
"               .+.              ",
"           ....++#....          ",
"           .++++##+++.          ",
"            .######@.           ",
"             .####@.            ",
"              .##@.             ",
"               .@.              ",
"                .               ",
"                                ",
"                                ",
"                                "};
