/* XPM */
static const char * end32x32_xpm[] = {
"32 32 5 1",
" 	c None",
".	c #000000",
"+	c #0080FF",
"@	c #0000C0",
"#	c #0000FF",
"                                ",
"                                ",
"                                ",
"                                ",
"                                ",
"                                ",
"                                ",
"                                ",
"        ...         ....        ",
"       .+++.       .++++.       ",
"       .++++..     .+++@.       ",
"       .++#+++.    .++#@.       ",
"       .++###++..  .++#@.       ",
"       .++####+++. .++#@.       ",
"       .++######++..++#@.       ",
"       .++#######@..++#@.       ",
"       .++######@@..++#@.       ",
"       .++####@@@. .++#@.       ",
"       .++###@@..  .++#@.       ",
"       .++#@@@.    .++#@.       ",
"       .++@@..     .++#@.       ",
"       .+@@.       .+@@@.       ",
"        ...         ....        ",
"                                ",
"                                ",
"                                ",
"                                ",
"                                ",
"                                ",
"                                ",
"                                ",
"                                "};
