/* XPM */
static const char * iconOpen[] = {
"30 26 107 2",
"  	c None",
". 	c #C0C0C0",
"+ 	c #000000",
"@ 	c #ABABAB",
"# 	c #A3D4A0",
"$ 	c #6D8E6B",
"% 	c #FCFCFC",
"& 	c #FBFBFB",
"* 	c #A9A9A9",
"= 	c #F6F6F6",
"- 	c #F5F5F5",
"; 	c #A6A6A6",
"> 	c #A2A2A2",
", 	c #EFEFEF",
"' 	c #F0F0F0",
") 	c #F1F1F1",
"! 	c #5F7C5E",
"~ 	c #617E5F",
"{ 	c #9B9B9B",
"] 	c #E7E7E7",
"^ 	c #E8E8E8",
"/ 	c #EAEAEA",
"( 	c #9E9E9E",
"_ 	c #5C775B",
": 	c #8BB589",
"< 	c #8DB88B",
"[ 	c #617D5F",
"} 	c #969696",
"| 	c #DFDFDF",
"1 	c #E0E0E0",
"2 	c #E3E3E3",
"3 	c #9A9A9A",
"4 	c #86AE84",
"5 	c #88B186",
"6 	c #8AB488",
"7 	c #8DB88A",
"8 	c #607D5F",
"9 	c #909090",
"0 	c #D6D6D6",
"a 	c #D7D7D7",
"b 	c #DBDBDB",
"c 	c #959595",
"d 	c #567054",
"e 	c #83AA80",
"f 	c #85AD83",
"g 	c #87B085",
"h 	c #8AB387",
"i 	c #8CB68A",
"j 	c #898989",
"k 	c #CDCDCD",
"l 	c #CFCFCF",
"m 	c #BBBBBB",
"n 	c #7DA27A",
"o 	c #7FA57D",
"p 	c #82A97F",
"q 	c #84AC82",
"r 	c #87AF84",
"s 	c #89B287",
"t 	c #5F7B5D",
"u 	c #838383",
"v 	c #C4C4C4",
"w 	c #A1A1A1",
"x 	c #4F674E",
"y 	c #799D76",
"z 	c #7CA17A",
"A 	c #7EA47C",
"B 	c #81A77E",
"C 	c #83AA81",
"D 	c #7D7D7D",
"E 	c #739570",
"F 	c #769973",
"G 	c #789C76",
"H 	c #7BA079",
"I 	c #7DA37B",
"J 	c #80A77D",
"K 	c #5E7A5D",
"L 	c #B2B2B2",
"M 	c #939393",
"N 	c #485F47",
"O 	c #6F906D",
"P 	c #729470",
"Q 	c #759773",
"R 	c #779B75",
"S 	c #7A9E78",
"T 	c #8B8B8B",
"U 	c #485E46",
"V 	c #6E906D",
"W 	c #71936F",
"X 	c #739772",
"Y 	c #769A74",
"Z 	c #6B6B6B",
"` 	c #848484",
" .	c #485D46",
"..	c #70926E",
"+.	c #546D52",
"@.	c #465C46",
"#.	c #6C8D6A",
"$.	c #505050",
"%.	c #465B45",
"&.	c #6C8C69",
"*.	c #4D654C",
"=.	c #465B44",
"-.	c #6B8A69",
";.	c #4B624A",
">.	c #455A44",
",.	c #698968",
"'.	c #4A6149",
"                                                            ",
"                                                            ",
"                                                            ",
"              + +     + +                                   ",
"              + @ + + # $ + +                               ",
"              + % & * + + # $ + +   + +                     ",
"              + = - - = ; + + # $ + # $ + +                 ",
"          + + + > , , , ' ) > + + # # # # $ + +             ",
"        + ! ~ + + { ] ] ] ] ^ / ( + + $ # # # $ +           ",
"        + _ : < [ + + } | | | | 1 2 3 + + $ # # +           ",
"          + 4 5 6 7 8 + + 9 0 0 0 0 a b c + + # +           ",
"          + d e f g h i ! + + j k k k k l m + # +           ",
"            + n o p q r s : t + + u v v v w + # +           ",
"            + x y z A B C 4 5 6 t + + D m 3 + # +           ",
"              + E F G H I J e f g h K + L M + # +           ",
"              + N O P Q R S n o p q r + * T + # +           ",
"                + + U V W X Y y z A B + Z ` + # +           ",
"                    + +  .$ ..E F G H +.+ D + # +           ",
"                        + + @.#.O P Q R + $.+ # +           ",
"                            + + %.&.V W *.+ + # +           ",
"                                + + =.-.$ ;.+ # +           ",
"                                    + + >.,.#.'.+           ",
"                                        + + + +             ",
"                                                            ",
"                                                            ",
"                                                            "};
