/* XPM */
static const char * playrecord32x32_xpm[] = {
"32 32 167 2",
"  	c None",
". 	c #000000",
"+ 	c #00FF00",
"@ 	c #494949",
"# 	c #181818",
"$ 	c #030303",
"% 	c #4B4B4B",
"& 	c #070100",
"* 	c #662010",
"= 	c #A02A10",
"- 	c #B62A0A",
"; 	c #B5290A",
"> 	c #9F290F",
", 	c #621B0C",
"' 	c #555555",
") 	c #00C000",
"! 	c #333333",
"~ 	c #390B02",
"{ 	c #AE2608",
"] 	c #D16E58",
"^ 	c #E49F91",
"/ 	c #EBB4A8",
"( 	c #E39E90",
"_ 	c #CF6C58",
": 	c #AB2209",
"< 	c #380A02",
"[ 	c #414141",
"} 	c #4D4D4D",
"| 	c #380B02",
"1 	c #B12407",
"2 	c #D98273",
"3 	c #E8A79B",
"4 	c #EBAA9C",
"5 	c #EDA99C",
"6 	c #EDA89C",
"7 	c #EBA79B",
"8 	c #E6A79C",
"9 	c #D68271",
"0 	c #AC1F06",
"a 	c #360901",
"b 	c #656565",
"c 	c #080000",
"d 	c #A82007",
"e 	c #CD624D",
"f 	c #E4998B",
"g 	c #E9998A",
"h 	c #EC9A8A",
"i 	c #EE9A8A",
"j 	c #ED998A",
"k 	c #EC998A",
"l 	c #E89889",
"m 	c #E2978A",
"n 	c #C75C4D",
"o 	c #A21B04",
"p 	c #B01F06",
"q 	c #D87968",
"r 	c #E38675",
"s 	c #E88675",
"t 	c #EA8675",
"u 	c #EB8675",
"v 	c #E98575",
"w 	c #E58476",
"x 	c #E18275",
"y 	c #D57668",
"z 	c #A91803",
"A 	c #5E180D",
"B 	c #686868",
"C 	c #D9705F",
"D 	c #E1715F",
"E 	c #E3715F",
"F 	c #E4715F",
"G 	c #E5705F",
"H 	c #E56F5F",
"I 	c #E46E5E",
"J 	c #E36E5E",
"K 	c #DC6D5E",
"L 	c #D56B5E",
"M 	c #AD1402",
"N 	c #901D0C",
"O 	c #262626",
"P 	c #DB5947",
"Q 	c #DD5946",
"R 	c #DE5846",
"S 	c #DE5746",
"T 	c #DE5646",
"U 	c #DC5647",
"V 	c #D85447",
"W 	c #CD4A3D",
"X 	c #AD1100",
"Y 	c #9A1000",
"Z 	c #050505",
"` 	c #008000",
" .	c #D13C2D",
"..	c #D53D2C",
"+.	c #D63C2D",
"@.	c #D53C2D",
"#.	c #D33A2C",
"$.	c #D03A2B",
"%.	c #CE392B",
"&.	c #BE2114",
"*.	c #A90D00",
"=.	c #960D01",
"-.	c #C4190A",
";.	c #CB200F",
">.	c #CB1F0E",
",.	c #CC1E0E",
"'.	c #CB1D0F",
").	c #CA1D0E",
"!.	c #C71C0E",
"~.	c #BE1508",
"{.	c #B00900",
"].	c #A00800",
"^.	c #88160C",
"/.	c #AB0B00",
"(.	c #B70B00",
"_.	c #BF0E00",
":.	c #C31102",
"<.	c #C31104",
"[.	c #C31004",
"}.	c #C10F02",
"|.	c #BB0A00",
"1.	c #B10600",
"2.	c #A30500",
"3.	c #940500",
"4.	c #57120B",
"5.	c #8E0700",
"6.	c #9B0600",
"7.	c #A80600",
"8.	c #B60600",
"9.	c #B80500",
"0.	c #B70400",
"a.	c #B30400",
"b.	c #AD0200",
"c.	c #A30200",
"d.	c #950000",
"e.	c #880300",
"f.	c #070000",
"g.	c #4E4E4E",
"h.	c #2F0100",
"i.	c #8D0200",
"j.	c #960100",
"k.	c #9F0200",
"l.	c #A60000",
"m.	c #AB0000",
"n.	c #AA0000",
"o.	c #A30000",
"p.	c #9B0000",
"q.	c #920000",
"r.	c #870000",
"s.	c #2D0000",
"t.	c #3E3E3E",
"u.	c #2E0000",
"v.	c #850000",
"w.	c #8C0000",
"x.	c #980000",
"y.	c #970000",
"z.	c #910000",
"A.	c #890000",
"B.	c #810000",
"C.	c #2C0000",
"D.	c #474747",
"E.	c #636363",
"F.	c #530E0B",
"G.	c #7B0905",
"H.	c #830000",
"I.	c #7D0C08",
"J.	c #050000",
"                                                                ",
"                                                                ",
"                                                                ",
"                                                                ",
"                                                                ",
"                                                                ",
"                                                                ",
"        . . .                                                   ",
"      . + + + .                       @ # $ $ # @               ",
"      . + + + + . .               % & * = - ; > , & '           ",
"      . + + ) + + + .           ! ~ { ] ^ / / ( _ : < [         ",
"      . + + ) ) ) + + . .     } | 1 2 3 4 5 6 7 8 9 0 a b       ",
"      . + + ) ) ) ) + + + .   c d e f g h i j k l m n o c       ",
"      . + + ) ) ) ) ) ) + + . . p q r s t u t v w x y z A B     ",
"      . + + ) ) ) ) ) ) ) + + + . C D E F G H I J K L M N O     ",
"      . + + ) ) ) ) ) ) ) ) ) + + . P Q Q R S T U V W X Y Z     ",
"      . + + ) ) ) ) ) ) ) ) ) ) ` .  ...+.+.@.#.$.%.&.*.=.Z     ",
"      . + + ) ) ) ) ) ) ) ) ) ` ` . -.;.>.,.'.).!.~.{.].^.O     ",
"      . + + ) ) ) ) ) ) ) ` ` ` . /.(._.:.<.[.}.|.1.2.3.4.B     ",
"      . + + ) ) ) ) ) ) ` ` . . 5.6.7.1.8.9.0.a.b.c.d.e.f.      ",
"      . + + ) ) ) ) ` ` ` .   g.h.i.j.k.l.m.n.o.p.q.r.s.B       ",
"      . + + ) ) ) ` ` . .       t.u.v.w.q.x.y.z.A.B.C.D.        ",
"      . + + ) ` ` ` .             E.f.F.G.H.H.I.F.J.            ",
"      . + + ` ` . .                   B O Z Z O B               ",
"      . + ` ` .                                                 ",
"        . . .                                                   ",
"                                                                ",
"                                                                ",
"                                                                ",
"                                                                ",
"                                                                ",
"                                                                "};
