/* XPM */
static const char * record32x32_xpm[] = {
"32 32 179 2",
"  	c None",
". 	c #494949",
"+ 	c #181818",
"@ 	c #030303",
"# 	c #4B4B4B",
"$ 	c #070100",
"% 	c #662010",
"& 	c #A02A10",
"* 	c #B62A0A",
"= 	c #B5290A",
"- 	c #9F290F",
"; 	c #621B0C",
"> 	c #555555",
", 	c #333333",
"' 	c #390B02",
") 	c #AE2608",
"! 	c #D16E58",
"~ 	c #E49F91",
"{ 	c #EBB4A8",
"] 	c #E39E90",
"^ 	c #CF6C58",
"/ 	c #AB2209",
"( 	c #380A02",
"_ 	c #414141",
": 	c #4D4D4D",
"< 	c #380B02",
"[ 	c #B12407",
"} 	c #D98273",
"| 	c #E8A79B",
"1 	c #EBAA9C",
"2 	c #EDA99C",
"3 	c #EDA89C",
"4 	c #EBA79B",
"5 	c #E6A79C",
"6 	c #D68271",
"7 	c #AC1F06",
"8 	c #360901",
"9 	c #656565",
"0 	c #080000",
"a 	c #A82007",
"b 	c #CD624D",
"c 	c #E4998B",
"d 	c #E9998A",
"e 	c #EC9A8A",
"f 	c #EE9A8A",
"g 	c #ED998A",
"h 	c #EC998A",
"i 	c #E89889",
"j 	c #E2978A",
"k 	c #C75C4D",
"l 	c #A21B04",
"m 	c #5D170A",
"n 	c #B01F06",
"o 	c #D87968",
"p 	c #E38675",
"q 	c #E88675",
"r 	c #EA8675",
"s 	c #EB8675",
"t 	c #E98575",
"u 	c #E58476",
"v 	c #E18275",
"w 	c #D57668",
"x 	c #A91803",
"y 	c #5E180D",
"z 	c #686868",
"A 	c #931F0B",
"B 	c #B41B04",
"C 	c #D9705F",
"D 	c #E1715F",
"E 	c #E3715F",
"F 	c #E4715F",
"G 	c #E5705F",
"H 	c #E56F5F",
"I 	c #E46E5E",
"J 	c #E36E5E",
"K 	c #DC6D5E",
"L 	c #D56B5E",
"M 	c #AD1402",
"N 	c #901D0C",
"O 	c #262626",
"P 	c #A21804",
"Q 	c #B51802",
"R 	c #D2503E",
"S 	c #DB5947",
"T 	c #DD5946",
"U 	c #DE5846",
"V 	c #DE5746",
"W 	c #DE5646",
"X 	c #DC5647",
"Y 	c #D85447",
"Z 	c #CD4A3D",
"` 	c #AD1100",
" .	c #9A1000",
"..	c #050505",
"+.	c #9E1402",
"@.	c #B11401",
"#.	c #C42815",
"$.	c #D13C2D",
"%.	c #D53D2C",
"&.	c #D63C2D",
"*.	c #D53C2D",
"=.	c #D33A2C",
"-.	c #D03A2B",
";.	c #CE392B",
">.	c #BE2114",
",.	c #A90D00",
"'.	c #960D01",
").	c #891709",
"!.	c #A80F00",
"~.	c #B61100",
"{.	c #C4190A",
"].	c #CB200F",
"^.	c #CB1F0E",
"/.	c #CC1E0E",
"(.	c #CB1D0F",
"_.	c #CA1D0E",
":.	c #C71C0E",
"<.	c #BE1508",
"[.	c #B00900",
"}.	c #A00800",
"|.	c #88160C",
"1.	c #454545",
"2.	c #561108",
"3.	c #9B0B00",
"4.	c #AB0B00",
"5.	c #B70B00",
"6.	c #BF0E00",
"7.	c #C31102",
"8.	c #C31104",
"9.	c #C31004",
"0.	c #C10F02",
"a.	c #BB0A00",
"b.	c #B10600",
"c.	c #A30500",
"d.	c #940500",
"e.	c #57120B",
"f.	c #060000",
"g.	c #8E0700",
"h.	c #9B0600",
"i.	c #A80600",
"j.	c #B60600",
"k.	c #B80500",
"l.	c #B70400",
"m.	c #B30400",
"n.	c #AD0200",
"o.	c #A30200",
"p.	c #950000",
"q.	c #880300",
"r.	c #070000",
"s.	c #4E4E4E",
"t.	c #2F0100",
"u.	c #8D0200",
"v.	c #960100",
"w.	c #9F0200",
"x.	c #A60000",
"y.	c #AB0000",
"z.	c #AA0000",
"A.	c #A30000",
"B.	c #9B0000",
"C.	c #920000",
"D.	c #870000",
"E.	c #2D0000",
"F.	c #3E3E3E",
"G.	c #2E0000",
"H.	c #850000",
"I.	c #8C0000",
"J.	c #980000",
"K.	c #970000",
"L.	c #910000",
"M.	c #890000",
"N.	c #810000",
"O.	c #2C0000",
"P.	c #474747",
"Q.	c #636363",
"R.	c #530E0B",
"S.	c #7B0905",
"T.	c #830000",
"U.	c #7D0C08",
"V.	c #050000",
"                                                                ",
"                                                                ",
"                                                                ",
"                                                                ",
"                                                                ",
"                                                                ",
"                                                                ",
"                                                                ",
"                          . + @ @ + .                           ",
"                      # $ % & * = - ; $ >                       ",
"                    , ' ) ! ~ { { ] ^ / ( _                     ",
"                  : < [ } | 1 2 3 4 5 6 7 8 9                   ",
"                  0 a b c d e f g h i j k l 0                   ",
"                # m n o p q r s r t u v w x y z                 ",
"                + A B C D E F G H I J K L M N O                 ",
"                @ P Q R S T T U V W X Y Z `  ...                ",
"                @ +.@.#.$.%.&.&.*.=.-.;.>.,.'...                ",
"                + ).!.~.{.].^./.(._.:.<.[.}.|.O                 ",
"                1.2.3.4.5.6.7.8.9.0.a.b.c.d.e.z                 ",
"                  f.g.h.i.b.j.k.l.m.n.o.p.q.r.                  ",
"                  s.t.u.v.w.x.y.z.A.B.C.D.E.z                   ",
"                    F.G.H.I.C.J.K.L.M.N.O.P.                    ",
"                      Q.r.R.S.T.T.U.R.V.                        ",
"                          z O ....O z                           ",
"                                                                ",
"                                                                ",
"                                                                ",
"                                                                ",
"                                                                ",
"                                                                ",
"                                                                ",
"                                                                "};
