/* XPM */
static const char * save32x32_xpm[] = {
"32 32 238 2",
"  	c None",
". 	c #000000",
"+ 	c #C3D7F4",
"@ 	c #A9CDE5",
"# 	c #75757A",
"$ 	c #EFC5BB",
"% 	c #F1C8BE",
"& 	c #F0C6BC",
"* 	c #EEBCB2",
"= 	c #EEBEB5",
"- 	c #EEC1B8",
"; 	c #EDBFB6",
"> 	c #E9B7AD",
", 	c #E9B8AF",
"' 	c #E9B9B1",
") 	c #E5BFBA",
"! 	c #737277",
"~ 	c #B3CDE3",
"{ 	c #A1BED6",
"] 	c #BBD6E8",
"^ 	c #8AAAC5",
"/ 	c #605F68",
"( 	c #E08D7E",
"_ 	c #E0826E",
": 	c #E0806E",
"< 	c #DC7A68",
"[ 	c #DC8171",
"} 	c #DA7868",
"| 	c #D48173",
"1 	c #D47D6E",
"2 	c #CE7265",
"3 	c #CF7264",
"4 	c #CE7567",
"5 	c #C4675B",
"6 	c #C36558",
"7 	c #626169",
"8 	c #87A3B7",
"9 	c #567187",
"0 	c #CDCDCD",
"a 	c #BAD5E9",
"b 	c #88A7C3",
"c 	c #686670",
"d 	c #C8817B",
"e 	c #CB7C74",
"f 	c #CB7A73",
"g 	c #CB7B73",
"h 	c #CC7C72",
"i 	c #CB7D73",
"j 	c #BF6B64",
"k 	c #CC7A70",
"l 	c #C16A62",
"m 	c #CC7C73",
"n 	c #C2655B",
"o 	c #C36459",
"p 	c #BA6C6A",
"q 	c #819EB6",
"r 	c #547086",
"s 	c #C8C8C8",
"t 	c #B6D3E7",
"u 	c #87ABC1",
"v 	c #737373",
"w 	c #FFFFFF",
"x 	c #83A0B8",
"y 	c #526C80",
"z 	c #C5C5C5",
"A 	c #B9D3E7",
"B 	c #85A4BF",
"C 	c #4F697C",
"D 	c #C4C4C4",
"E 	c #B9D3E6",
"F 	c #84A3BF",
"G 	c #CECECE",
"H 	c #BFBFBF",
"I 	c #88A4BB",
"J 	c #486276",
"K 	c #C3C3C3",
"L 	c #B7D2E7",
"M 	c #82A0BB",
"N 	c #636363",
"O 	c #465E70",
"P 	c #C1C1C1",
"Q 	c #B5CAE5",
"R 	c #7FA2B9",
"S 	c #87A3BA",
"T 	c #455C6D",
"U 	c #C0C0C0",
"V 	c #AECCE5",
"W 	c #7DA0B6",
"X 	c #546069",
"Y 	c #B0D1E4",
"Z 	c #83A1B6",
"` 	c #735B5B",
" .	c #515C64",
"..	c #AACEE3",
"+.	c #7B9BB2",
"@.	c #7A8E9A",
"#.	c #7A7A7A",
"$.	c #6B6F72",
"%.	c #6F6F6F",
"&.	c #696969",
"*.	c #6F777E",
"=.	c #86A2B9",
"-.	c #3A515D",
";.	c #BDBDBD",
">.	c #A9C9E2",
",.	c #7494AF",
"'.	c #829FB7",
").	c #7F9DB6",
"!.	c #7E9CB5",
"~.	c #7998B2",
"{.	c #85A1B8",
"].	c #8CA7BD",
"^.	c #8AA5BB",
"/.	c #364A59",
"(.	c #BCBCBC",
"_.	c #ABC4E2",
":.	c #7294AD",
"<.	c #6F90AC",
"[.	c #7192AE",
"}.	c #414A4E",
"|.	c #424A51",
"1.	c #525B63",
"2.	c #626F79",
"3.	c #5F6C76",
"4.	c #5C6971",
"5.	c #5A666F",
"6.	c #58636B",
"7.	c #57636A",
"8.	c #3B5360",
"9.	c #39424B",
"0.	c #7897B3",
"a.	c #A4B9CB",
"b.	c #364853",
"c.	c #BBBBBB",
"d.	c #AAC9E2",
"e.	c #7091AA",
"f.	c #6F8FA7",
"g.	c #4A5359",
"h.	c #97938C",
"i.	c #DFDDDA",
"j.	c #E3E1DE",
"k.	c #EBEAE8",
"l.	c #EAE9E7",
"m.	c #CFCEC9",
"n.	c #C9C6C0",
"o.	c #9B968E",
"p.	c #566168",
"q.	c #4B657A",
"r.	c #54738C",
"s.	c #AAC6DD",
"t.	c #34464E",
"u.	c #B9B9B9",
"v.	c #AAC9E1",
"w.	c #6C8EA6",
"x.	c #6C8CA4",
"y.	c #40474D",
"z.	c #DAD8D3",
"A.	c #E7E6E2",
"B.	c #67655E",
"C.	c #524F47",
"D.	c #D9D7D4",
"E.	c #C7C5BF",
"F.	c #C0BCB5",
"G.	c #B8B3AB",
"H.	c #434C54",
"I.	c #4D697F",
"J.	c #4F6F84",
"K.	c #B3CADC",
"L.	c #313E49",
"M.	c #A8C8E1",
"N.	c #6B8DA6",
"O.	c #728FA4",
"P.	c #E2E1DD",
"Q.	c #F0EFEC",
"R.	c #CDCAC6",
"S.	c #C2BFB9",
"T.	c #CAC6C0",
"U.	c #DCDAD7",
"V.	c #4B555D",
"W.	c #4E697F",
"X.	c #BACCDC",
"Y.	c #B8B8B8",
"Z.	c #A4C4DE",
"`.	c #698BA3",
" +	c #708AA1",
".+	c #383E43",
"++	c #E0DEDA",
"@+	c #514E46",
"#+	c #4F4C44",
"$+	c #C7C4BE",
"%+	c #CBC8C2",
"&+	c #E1E0DC",
"*+	c #E9E8E6",
"=+	c #475158",
"-+	c #4E6879",
";+	c #4D6C80",
">+	c #A3C3DB",
",+	c #383F43",
"'+	c #B7B7B7",
")+	c #778999",
"!+	c #6E899E",
"~+	c #65859C",
"{+	c #33383C",
"]+	c #D7D4D0",
"^+	c #D6D4D0",
"/+	c #4E4A43",
"(+	c #4D4942",
"_+	c #D1CEC9",
":+	c #E6E5E2",
"<+	c #EDECEA",
"[+	c #454F55",
"}+	c #486173",
"|+	c #4D6678",
"1+	c #A1C1DA",
"2+	c #373C40",
"3+	c #B5B5B5",
"4+	c #A2A2A2",
"5+	c #0C0D0F",
"6+	c #4E5E6A",
"7+	c #5B6E7C",
"8+	c #4F5B62",
"9+	c #A4A099",
"0+	c #CCC9C3",
"a+	c #D7D5D1",
"b+	c #E4E2E0",
"c+	c #DDDBD7",
"d+	c #B8B5B0",
"e+	c #3E474D",
"f+	c #4A6176",
"g+	c #4A6070",
"h+	c #9BC3D8",
"i+	c #363C41",
"j+	c #9E9E9E",
"k+	c #28323E",
"l+	c #818181",
"m+	c #BEBEBE",
"n+	c #B6B6B6",
"o+	c #B2B2B2",
"                                                                ",
"                                                                ",
"                                                                ",
"                                                                ",
"                                                                ",
"            . . . . . . . . . . . . . . . . . . .               ",
"          . + @ # $ % & * = - ; > , > , ' ) ! ~ { .             ",
"          . ] ^ / ( _ : < [ } | 1 2 3 4 5 6 7 8 9 . 0           ",
"          . a b c d e f g h i j k l m n o p c q r . s           ",
"          . t u v w w w w w w w w w w w w w v x y . z           ",
"          . A B v w w w w w w w w w w w w w v x C . D           ",
"          . E F v G 0 0 0 0 0 0 0 0 0 0 0 H v I J . K           ",
"          . L M N w w w w w w w w w w w w w v I O . P           ",
"          . Q R v w w w w w w w w w w w w w v S T . U           ",
"          . V W v G 0 0 0 0 0 0 0 0 0 0 0 z v S X . U           ",
"          . Y Z ` w w w w w w w w w w w w w v x  .. H           ",
"          . ..+.@.#.v v v v v $.%.v v v v &.*.=.-.. ;.          ",
"          . >.,.q x =.'.).!.'.~.=.{.{.S '.].x ^./.. (.          ",
"          . _.:.<.[.}.|.1.2.3.4.5.6.7.1.8.9.0.a.b.. c.          ",
"          . d.e.f.g.h.i.j.k.k.l.i.m.n.o.p.q.r.s.t.. u.          ",
"          . v.w.x.y.z.A.B.C.C.D.E.F.G.m.H.I.J.K.L.. u.          ",
"          . M.N.O.y.P.Q.B.C.C.R.S.F.T.U.V.W.J.X.L.. Y.          ",
"          . Z.`. +.+++k.@+#+#+$+F.%+&+*+=+-+;+>+,+. '+          ",
"          . )+!+~+{+]+^+/+(+(+F._+:+<+:+[+}+|+1+2+. 3+          ",
"          4+5+6+7+8+9+F.G.0+0+a+b+l.c+d+e+f+g+h+i+. 3+          ",
"            j+. . . . . . . . . . . . . . . . k+. l+            ",
"              m+n+o+o+o+o+o+o+o+o+o+o+o+o+o+o+o+o+              ",
"                                                                ",
"                                                                ",
"                                                                ",
"                                                                ",
"                                                                "};
