/* XPM */
static char const *zoomx[]={
"32 32 5 1",
"b c None",
". c None",
"c c #000000",
"# c #303030",
"a c #ffffff",
".......#######..................",
".....##aaaaaaa##................",
"....#aaa#####aaa#...............",
"...#aa##.....##aa#..............",
"..#aa#.........#aa#.............",
".#aa#...........#aa#............",
".#a#.............#a#...bbbb.....",
"#aa#...a.....a...#aa#.bbbbbbbb..",
"#a#...aca...aca...#a#.bbbbbbbb..",
"#a#..accaaaaacca..#a#.bbbbbbbb..",
"#a#.accccccccccca.#a#.bbbbbbbb..",
"#ac..accaaaaacca..#a#.....b.bbb.",
"#ac...aca...aca...#a#.....b...b.",
"#aac...a.....a...#aa#...........",
".#ac.............#a#............",
".#aac............ca#............",
"..#aac..........caa#............",
"...#aacc.....cccaacc#...........",
"....#aaacccccaaaacccc#..........",
".....##aaaaaaa###ccccc#.........",
".......#######...#ccccc#........",
"..................#ccccc#.......",
"...................#ccccc#......",
"....................#ccccc#.....",
".....................#ccccc#....",
"......................#ccccc#...",
".......................#ccccc#..",
"........................#ccccc#.",
".........................#ccccc#",
"..........................#ccccc",
"...........................#cccc",
"............................#ccc"};
