<?xml version="1.0" encoding="UTF-8" standalone="no"?>
<!-- Created with Inkscape (http://www.inkscape.org/) -->

<svg
   xmlns:dc="http://purl.org/dc/elements/1.1/"
   xmlns:cc="http://creativecommons.org/ns#"
   xmlns:rdf="http://www.w3.org/1999/02/22-rdf-syntax-ns#"
   xmlns:svg="http://www.w3.org/2000/svg"
   xmlns="http://www.w3.org/2000/svg"
   xmlns:sodipodi="http://sodipodi.sourceforge.net/DTD/sodipodi-0.dtd"
   xmlns:inkscape="http://www.inkscape.org/namespaces/inkscape"
   version="1.1"
   width="1024"
   height="1024"
   id="svg2"
   inkscape:version="0.48.1 r9760"
   sodipodi:docname="1.svg">
  <sodipodi:namedview
     pagecolor="#ffffff"
     bordercolor="#666666"
     borderopacity="1"
     objecttolerance="10"
     gridtolerance="10"
     guidetolerance="10"
     inkscape:pageopacity="0"
     inkscape:pageshadow="2"
     inkscape:window-width="1600"
     inkscape:window-height="1176"
     id="namedview2992"
     showgrid="false"
     inkscape:zoom="0.34506811"
     inkscape:cx="502.10729"
     inkscape:cy="364.67087"
     inkscape:window-x="-8"
     inkscape:window-y="-3"
     inkscape:window-maximized="1"
     inkscape:current-layer="svg2"
     showguides="true"
     inkscape:guide-bbox="true">
    <sodipodi:guide
       orientation="1,0"
       position="98.531273,1149.0485"
       id="guide2992" />
  </sodipodi:namedview>
  <defs
     id="defs4" />
  <metadata
     id="metadata7">
    <rdf:RDF>
      <cc:Work
         rdf:about="">
        <dc:format>image/svg+xml</dc:format>
        <dc:type
           rdf:resource="http://purl.org/dc/dcmitype/StillImage" />
        <dc:title></dc:title>
      </cc:Work>
    </rdf:RDF>
  </metadata>
  <g
     style="font-size:18px;font-style:normal;font-variant:normal;font-weight:normal;font-stretch:normal;line-height:125%;letter-spacing:0px;word-spacing:0px;fill:#000000;fill-opacity:1;stroke:none;font-family:Emmentaler;-inkscape-font-specification:Emmentaler"
     id="text3790"
     transform="matrix(8.2671958,0,0,8.2671958,6514.5882,2205.613)">
    <path
       inkscape:connector-curvature="0"
       style="font-size:144px"
       id="path3795"
       d="m -723.49259,-238.55543 c -3.312,0 -6.624,-2.592 -8.352,-2.592 -0.432,0 -0.864,0.144 -1.008,0.576 l -18.576,36 c -0.288,0.432 -0.288,0.864 -0.288,1.296 0,1.44 1.44,2.448 2.736,2.448 0.864,0 1.584,-0.288 2.16,-1.296 l 9.504,-18.288 c 0.288,-0.72 0.864,-1.008 1.584,-1.008 1.296,0 2.88,1.15201 2.88,3.312 l 0,30.96 c 0,7.488 -4.46401,14.4 -11.52,14.4 -1.44,0 -2.16,1.152 -2.16,2.16 0,1.008 0.72,2.016 2.16,2.016 7.05599,0 13.82401,-2.016 20.88,-2.016 7.05599,0 13.96801,2.016 21.024,2.016 1.44,0 2.016,-1.008 2.016,-2.016 0,-1.008 -0.576,-2.16 -2.016,-2.16 -7.05599,0 -11.664,-6.912 -11.664,-14.4 l 0,-50.544 c 0,-1.72799 -1.152,-3.024 -2.304,-3.024 -1.008,0 -3.888,2.16 -7.056,2.16" />
  </g>
  <path
     style="font-size:medium;font-style:normal;font-variant:normal;font-weight:normal;font-stretch:normal;text-indent:0;text-align:start;text-decoration:none;line-height:normal;letter-spacing:normal;word-spacing:normal;text-transform:none;direction:ltr;block-progression:tb;writing-mode:lr-tb;text-anchor:start;baseline-shift:baseline;color:#000000;fill:#000000;fill-opacity:1;stroke:none;stroke-width:10;marker:none;visibility:visible;display:inline;overflow:visible;enable-background:accumulate;font-family:Sans;-inkscape-font-specification:Sans"
     d="M 499.98051,124 C 278.99015,124 100,303.27397 100,523.98157 100,744.68916 278.99015,924 499.98051,924 c 220.99035,0 400.019,-179.31084 400.019,-400.01843 a 6.1606777,5.9000231 0 0 0 -0.0385,-0.58994 6.1606777,5.9000231 0 0 0 0,-0.0368 6.1606777,5.9000231 0 0 0 0.0385,-0.73743 C 899.24131,302.44807 720.4332,124 499.98051,124 z m 0,11.79887 c 213.5113,0 386.96164,172.77504 387.69888,386.85533 a 6.1606777,5.9000231 0 0 0 0.0385,0.73743 6.1606777,5.9000231 0 0 0 -0.0385,0.58994 c 0,214.60485 -173.66559,388.21956 -387.69888,388.21956 -214.0333,0 -387.66038,-173.61471 -387.66038,-388.21956 0,-214.60487 173.62708,-388.1827 387.66038,-388.1827 z"
     id="path2997"
     inkscape:connector-curvature="0" />
</svg>
