<?xml version="1.0" encoding="UTF-8" standalone="no"?>
<!-- Created with Inkscape (http://www.inkscape.org/) -->

<svg
   xmlns:dc="http://purl.org/dc/elements/1.1/"
   xmlns:cc="http://creativecommons.org/ns#"
   xmlns:rdf="http://www.w3.org/1999/02/22-rdf-syntax-ns#"
   xmlns:svg="http://www.w3.org/2000/svg"
   xmlns="http://www.w3.org/2000/svg"
   xmlns:sodipodi="http://sodipodi.sourceforge.net/DTD/sodipodi-0.dtd"
   xmlns:inkscape="http://www.inkscape.org/namespaces/inkscape"
   version="1.1"
   width="1024"
   height="1024"
   id="svg2"
   inkscape:version="0.48.1 r9760"
   sodipodi:docname="2.svg">
  <sodipodi:namedview
     pagecolor="#ffffff"
     bordercolor="#666666"
     borderopacity="1"
     objecttolerance="10"
     gridtolerance="10"
     guidetolerance="10"
     inkscape:pageopacity="0"
     inkscape:pageshadow="2"
     inkscape:window-width="1600"
     inkscape:window-height="1176"
     id="namedview2992"
     showgrid="false"
     inkscape:zoom="0.34506811"
     inkscape:cx="502.10729"
     inkscape:cy="364.67087"
     inkscape:window-x="-8"
     inkscape:window-y="-3"
     inkscape:window-maximized="1"
     inkscape:current-layer="svg2"
     showguides="true"
     inkscape:guide-bbox="true">
    <sodipodi:guide
       orientation="1,0"
       position="98.531273,1149.0485"
       id="guide2992" />
  </sodipodi:namedview>
  <defs
     id="defs4" />
  <metadata
     id="metadata7">
    <rdf:RDF>
      <cc:Work
         rdf:about="">
        <dc:format>image/svg+xml</dc:format>
        <dc:type
           rdf:resource="http://purl.org/dc/dcmitype/StillImage" />
        <dc:title />
      </cc:Work>
    </rdf:RDF>
  </metadata>
  <path
     style="font-size:medium;font-style:normal;font-variant:normal;font-weight:normal;font-stretch:normal;text-indent:0;text-align:start;text-decoration:none;line-height:normal;letter-spacing:normal;word-spacing:normal;text-transform:none;direction:ltr;block-progression:tb;writing-mode:lr-tb;text-anchor:start;baseline-shift:baseline;color:#000000;fill:#000000;fill-opacity:1;stroke:none;stroke-width:10;marker:none;visibility:visible;display:inline;overflow:visible;enable-background:accumulate;font-family:Sans;-inkscape-font-specification:Sans"
     d="M 499.98051,124 C 278.99015,124 100,303.27397 100,523.98157 100,744.68916 278.99015,924 499.98051,924 c 220.99035,0 400.019,-179.31084 400.019,-400.01843 a 6.1606777,5.9000231 0 0 0 -0.0385,-0.58994 6.1606777,5.9000231 0 0 0 0,-0.0368 6.1606777,5.9000231 0 0 0 0.0385,-0.73743 C 899.24131,302.44807 720.4332,124 499.98051,124 z m 0,11.79887 c 213.5113,0 386.96164,172.77504 387.69888,386.85533 a 6.1606777,5.9000231 0 0 0 0.0385,0.73743 6.1606777,5.9000231 0 0 0 -0.0385,0.58994 c 0,214.60485 -173.66559,388.21956 -387.69888,388.21956 -214.0333,0 -387.66038,-173.61471 -387.66038,-388.21956 0,-214.60487 173.62708,-388.1827 387.66038,-388.1827 z"
     id="path2997"
     inkscape:connector-curvature="0" />
  <g
     style="font-size:1200px;font-style:normal;font-variant:normal;font-weight:normal;font-stretch:normal;line-height:125%;letter-spacing:0px;word-spacing:0px;fill:#000000;fill-opacity:1;stroke:none;font-family:Emmentaler;-inkscape-font-specification:Emmentaler"
     id="text3032">
    <path
       d="M 564.8,812 C 685.99988,812 740,700.39997 740,672.8 740,662.00001 730.39999,656 722,656 c -25.19997,0 -9.60006,50.4 -70.8,50.4 -70.79993,0 -97.20011,-73.2 -204,-73.2 l -8.4,0 C 556.39988,573.20006 718.4,558.79983 718.4,386 718.4,278.00011 606.79988,212 489.2,212 c -99.5999,0 -188.4,67.20009 -188.4,160.8 0,40.79996 32.40004,73.2 73.2,73.2 40.79996,0 73.2,-32.40004 73.2,-73.2 0,-28.79997 -37.2,-44.40003 -37.2,-73.2 0,-34.79997 39.60004,-52.8 79.2,-52.8 57.59994,0 74.4,72.00007 74.4,139.2 0,208.79979 -279.6,220.80019 -279.6,409.2 0,10.79999 9.60001,16.8 18,16.8 8.39999,0 15.6,-4.80001 16.8,-15.6 3.6,-41.99996 37.20003,-67.2 72,-67.2 63.59994,0 60.00011,82.8 174,82.8"
       style=""
       id="path2986" />
  </g>
</svg>
