<?xml version="1.0" encoding="UTF-8" standalone="no"?>
<!-- Created with Inkscape (http://www.inkscape.org/) -->

<svg
   xmlns:dc="http://purl.org/dc/elements/1.1/"
   xmlns:cc="http://creativecommons.org/ns#"
   xmlns:rdf="http://www.w3.org/1999/02/22-rdf-syntax-ns#"
   xmlns:svg="http://www.w3.org/2000/svg"
   xmlns="http://www.w3.org/2000/svg"
   xmlns:sodipodi="http://sodipodi.sourceforge.net/DTD/sodipodi-0.dtd"
   xmlns:inkscape="http://www.inkscape.org/namespaces/inkscape"
   version="1.1"
   width="1024"
   height="1024"
   id="svg2"
   inkscape:version="0.48.1 r9760"
   sodipodi:docname="3.svg">
  <sodipodi:namedview
     pagecolor="#ffffff"
     bordercolor="#666666"
     borderopacity="1"
     objecttolerance="10"
     gridtolerance="10"
     guidetolerance="10"
     inkscape:pageopacity="0"
     inkscape:pageshadow="2"
     inkscape:window-width="1600"
     inkscape:window-height="1176"
     id="namedview2992"
     showgrid="false"
     inkscape:zoom="0.34506811"
     inkscape:cx="502.10729"
     inkscape:cy="364.67087"
     inkscape:window-x="-8"
     inkscape:window-y="-3"
     inkscape:window-maximized="1"
     inkscape:current-layer="svg2"
     showguides="true"
     inkscape:guide-bbox="true">
    <sodipodi:guide
       orientation="1,0"
       position="98.531273,1149.0485"
       id="guide2992" />
  </sodipodi:namedview>
  <defs
     id="defs4" />
  <metadata
     id="metadata7">
    <rdf:RDF>
      <cc:Work
         rdf:about="">
        <dc:format>image/svg+xml</dc:format>
        <dc:type
           rdf:resource="http://purl.org/dc/dcmitype/StillImage" />
        <dc:title></dc:title>
      </cc:Work>
    </rdf:RDF>
  </metadata>
  <path
     style="font-size:medium;font-style:normal;font-variant:normal;font-weight:normal;font-stretch:normal;text-indent:0;text-align:start;text-decoration:none;line-height:normal;letter-spacing:normal;word-spacing:normal;text-transform:none;direction:ltr;block-progression:tb;writing-mode:lr-tb;text-anchor:start;baseline-shift:baseline;color:#000000;fill:#000000;fill-opacity:1;stroke:none;stroke-width:10;marker:none;visibility:visible;display:inline;overflow:visible;enable-background:accumulate;font-family:Sans;-inkscape-font-specification:Sans"
     d="M 499.98051,124 C 278.99015,124 100,303.27397 100,523.98157 100,744.68916 278.99015,924 499.98051,924 c 220.99035,0 400.019,-179.31084 400.019,-400.01843 a 6.1606777,5.9000231 0 0 0 -0.0385,-0.58994 6.1606777,5.9000231 0 0 0 0,-0.0368 6.1606777,5.9000231 0 0 0 0.0385,-0.73743 C 899.24131,302.44807 720.4332,124 499.98051,124 z m 0,11.79887 c 213.5113,0 386.96164,172.77504 387.69888,386.85533 a 6.1606777,5.9000231 0 0 0 0.0385,0.73743 6.1606777,5.9000231 0 0 0 -0.0385,0.58994 c 0,214.60485 -173.66559,388.21956 -387.69888,388.21956 -214.0333,0 -387.66038,-173.61471 -387.66038,-388.21956 0,-214.60487 173.62708,-388.1827 387.66038,-388.1827 z"
     id="path2997"
     inkscape:connector-curvature="0" />
  <g
     style="font-size:1200px;font-style:normal;font-variant:normal;font-weight:normal;font-stretch:normal;line-height:125%;letter-spacing:0px;word-spacing:0px;fill:#000000;fill-opacity:1;stroke:none;font-family:Emmentaler;-inkscape-font-specification:Emmentaler"
     id="text3007">
    <path
       d="m 628.39999,492.8 c 0,-52.79995 70.8,-10.80013 70.8,-145.2 0,-98.3999 -97.20011,-135.6 -208.8,-135.6 -87.59991,0 -169.2,50.40008 -169.2,130.8 0,33.59997 27.60004,61.2 61.2,61.2 33.59997,0 61.2,-27.60003 61.2,-61.2 0,-22.79998 -37.2,-27.60002 -37.2,-50.4 0,-35.99996 43.20004,-45.6 84,-45.6 53.99995,0 73.2,40.80006 73.2,100.8 l 0,36 c 0,50.39995 -3.60004,87.6 -51.6,87.6 l -88.8,0 c -14.39998,0 -21.6,10.80001 -21.6,21.6 0,10.79999 7.20002,21.6 21.6,21.6 l 88.8,0 c 46.79996,0 51.6,34.80005 51.6,82.8 l 0,45.6 c 0,64.79994 -12.00005,134.4 -67.2,134.4 -45.59995,0 -96,-10.80004 -96,-50.4 0,-26.39997 43.2,-31.20003 43.2,-57.6 0,-38.39996 -31.20003,-69.6 -69.6,-69.6 -38.39996,0 -69.6,31.20004 -69.6,69.6 0,88.79991 93.6001,142.8 192,142.8 123.59988,0 223.2,-56.40011 223.2,-169.2 0,-116.39988 -91.2,-104.40005 -91.2,-150"
       style=""
       id="path3012" />
  </g>
</svg>
