<?xml version="1.0" encoding="UTF-8" standalone="no"?>
<!-- Created with Inkscape (http://www.inkscape.org/) -->

<svg
   xmlns:dc="http://purl.org/dc/elements/1.1/"
   xmlns:cc="http://creativecommons.org/ns#"
   xmlns:rdf="http://www.w3.org/1999/02/22-rdf-syntax-ns#"
   xmlns:svg="http://www.w3.org/2000/svg"
   xmlns="http://www.w3.org/2000/svg"
   xmlns:sodipodi="http://sodipodi.sourceforge.net/DTD/sodipodi-0.dtd"
   xmlns:inkscape="http://www.inkscape.org/namespaces/inkscape"
   version="1.1"
   width="1024"
   height="1024"
   id="svg2"
   inkscape:version="0.48.1 r9760"
   sodipodi:docname="3.svg">
  <sodipodi:namedview
     pagecolor="#ffffff"
     bordercolor="#666666"
     borderopacity="1"
     objecttolerance="10"
     gridtolerance="10"
     guidetolerance="10"
     inkscape:pageopacity="0"
     inkscape:pageshadow="2"
     inkscape:window-width="1600"
     inkscape:window-height="1176"
     id="namedview2992"
     showgrid="false"
     inkscape:zoom="0.34506811"
     inkscape:cx="502.10729"
     inkscape:cy="364.67087"
     inkscape:window-x="-2"
     inkscape:window-y="-3"
     inkscape:window-maximized="1"
     inkscape:current-layer="svg2"
     showguides="true"
     inkscape:guide-bbox="true">
    <sodipodi:guide
       orientation="1,0"
       position="98.531273,1149.0485"
       id="guide2992" />
  </sodipodi:namedview>
  <defs
     id="defs4" />
  <metadata
     id="metadata7">
    <rdf:RDF>
      <cc:Work
         rdf:about="">
        <dc:format>image/svg+xml</dc:format>
        <dc:type
           rdf:resource="http://purl.org/dc/dcmitype/StillImage" />
        <dc:title />
      </cc:Work>
    </rdf:RDF>
  </metadata>
  <g
     style="font-size:1200px;font-style:normal;font-variant:normal;font-weight:normal;font-stretch:normal;line-height:125%;letter-spacing:0px;word-spacing:0px;fill:#000000;fill-opacity:1;stroke:none;font-family:Emmentaler;-inkscape-font-specification:Emmentaler"
     id="text3007">
    <path
       d="m 628.39999,492.8 c 0,-52.79995 70.8,-10.80013 70.8,-145.2 0,-98.3999 -97.20011,-135.6 -208.8,-135.6 -87.59991,0 -169.2,50.40008 -169.2,130.8 0,33.59997 27.60004,61.2 61.2,61.2 33.59997,0 61.2,-27.60003 61.2,-61.2 0,-22.79998 -37.2,-27.60002 -37.2,-50.4 0,-35.99996 43.20004,-45.6 84,-45.6 53.99995,0 73.2,40.80006 73.2,100.8 l 0,36 c 0,50.39995 -3.60004,87.6 -51.6,87.6 l -88.8,0 c -14.39998,0 -21.6,10.80001 -21.6,21.6 0,10.79999 7.20002,21.6 21.6,21.6 l 88.8,0 c 46.79996,0 51.6,34.80005 51.6,82.8 l 0,45.6 c 0,64.79994 -12.00005,134.4 -67.2,134.4 -45.59995,0 -96,-10.80004 -96,-50.4 0,-26.39997 43.2,-31.20003 43.2,-57.6 0,-38.39996 -31.20003,-69.6 -69.6,-69.6 -38.39996,0 -69.6,31.20004 -69.6,69.6 0,88.79991 93.6001,142.8 192,142.8 123.59988,0 223.2,-56.40011 223.2,-169.2 0,-116.39988 -91.2,-104.40005 -91.2,-150"
       style=""
       id="path3012" />
  </g>
  <path
     style="font-size:medium;font-style:normal;font-variant:normal;font-weight:normal;font-stretch:normal;text-indent:0;text-align:start;text-decoration:none;line-height:normal;letter-spacing:normal;word-spacing:normal;text-transform:none;direction:ltr;block-progression:tb;writing-mode:lr-tb;text-anchor:start;baseline-shift:baseline;color:#000000;fill:#000000;fill-opacity:1;stroke:none;stroke-width:20;marker:none;visibility:visible;display:inline;overflow:visible;enable-background:accumulate;font-family:Sans;-inkscape-font-specification:Sans"
     d="M 500.05553,124.1436 C 279.16503,124.1436 100,303.38239 100,524.07179 100,744.7612 279.16503,924 500.05553,924 c 220.8904,0 400.0886,-179.2388 400.0886,-399.92821 0,-220.6894 -179.1982,-399.92819 -400.0886,-399.92819 z m 0,20.95751 c 209.2945,0 378.8831,169.47509 378.8831,378.97068 0,209.49561 -169.5886,378.97071 -378.8831,378.97071 -209.2946,0 -378.85001,-169.4751 -378.85001,-378.97071 0,-209.49559 169.55541,-378.97068 378.85001,-378.97068 z"
     id="path2985"
     inkscape:connector-curvature="0" />
</svg>
