<?xml version="1.0" encoding="UTF-8" standalone="no"?>
<!-- Created with Inkscape (http://www.inkscape.org/) -->

<svg
   xmlns:dc="http://purl.org/dc/elements/1.1/"
   xmlns:cc="http://creativecommons.org/ns#"
   xmlns:rdf="http://www.w3.org/1999/02/22-rdf-syntax-ns#"
   xmlns:svg="http://www.w3.org/2000/svg"
   xmlns="http://www.w3.org/2000/svg"
   xmlns:sodipodi="http://sodipodi.sourceforge.net/DTD/sodipodi-0.dtd"
   xmlns:inkscape="http://www.inkscape.org/namespaces/inkscape"
   version="1.1"
   width="1000"
   height="1000"
   id="svg2"
   inkscape:version="0.48.1 r9760"
   sodipodi:docname="letterFlat.svg">
  <sodipodi:namedview
     pagecolor="#ffffff"
     bordercolor="#666666"
     borderopacity="1"
     objecttolerance="10"
     gridtolerance="10"
     guidetolerance="10"
     inkscape:pageopacity="0"
     inkscape:pageshadow="2"
     inkscape:window-width="1600"
     inkscape:window-height="1176"
     id="namedview8"
     showgrid="false"
     inkscape:zoom="0.67396115"
     inkscape:cx="254.86326"
     inkscape:cy="438.43672"
     inkscape:window-x="-2"
     inkscape:window-y="-3"
     inkscape:window-maximized="1"
     inkscape:current-layer="svg2"
     showguides="true"
     inkscape:guide-bbox="true">
    <sodipodi:guide
       orientation="1,0"
       position="348.68479,854.64867"
       id="guide5187" />
    <sodipodi:guide
       orientation="0,1"
       position="-83.090843,500.02882"
       id="guide2996" />
  </sodipodi:namedview>
  <defs
     id="defs4" />
  <metadata
     id="metadata7">
    <rdf:RDF>
      <cc:Work
         rdf:about="">
        <dc:format>image/svg+xml</dc:format>
        <dc:type
           rdf:resource="http://purl.org/dc/dcmitype/StillImage" />
        <dc:title></dc:title>
      </cc:Work>
    </rdf:RDF>
  </metadata>
  <text
     xml:space="preserve"
     style="font-size:600px;font-style:normal;font-variant:normal;font-weight:normal;font-stretch:normal;line-height:125%;letter-spacing:0px;word-spacing:0px;fill:#000000;fill-opacity:1;stroke:none;font-family:Emmentaler;-inkscape-font-specification:Emmentaler"
     x="1030.295"
     y="-227.54099"
     id="text5163"
     sodipodi:linespacing="125%"><tspan
       sodipodi:role="line"
       id="tspan5165"
       x="1030.295"
       y="-227.54099" /></text>
  <text
     xml:space="preserve"
     style="font-size:600px;font-style:normal;font-variant:normal;font-weight:normal;font-stretch:normal;line-height:125%;letter-spacing:0px;word-spacing:0px;fill:#000000;fill-opacity:1;stroke:none;font-family:Emmentaler;-inkscape-font-specification:Emmentaler"
     x="1034.4918"
     y="-718.55737"
     id="text5167"
     sodipodi:linespacing="125%"><tspan
       sodipodi:role="line"
       id="tspan5169"
       x="1034.4918"
       y="-718.55737" /></text>
  <g
     style="font-size:600px;font-style:normal;font-variant:normal;font-weight:normal;font-stretch:normal;line-height:125%;letter-spacing:0px;word-spacing:0px;fill:#000000;fill-opacity:1;stroke:none;font-family:Emmentaler;-inkscape-font-specification:Emmentaler"
     id="text5178"
     transform="matrix(1.4354067,0,0,1.4354067,-639.48934,-177.38256)">
    <path
       d="m 748.34424,573.40985 c 1,-33.99996 16.00003,-68 47,-68 25.99997,0 39,31.00003 39,61 0,54.99995 -43.00004,96.00004 -83,134 -3,-19.99998 -5,-41.00002 -5,-62 l 0,-10 2,-55 m -56,174 c 0,19.99998 13.00002,38 32,38 29.99997,0 38.00002,-37.00002 58,-57 53.99994,-51.99995 129,-94.00007 129,-169 0,-53.99994 -26.00005,-108 -75,-108 -37.99996,0 -74.00003,17.00003 -99,46 l 9,-330 c -10.99999,-5.99999 -23.00001,-9 -35,-9 -11.99999,0 -24.00001,3.00001 -35,9 l 16,580"
       style="font-size:1000px"
       id="path5183"
       inkscape:connector-curvature="0" />
  </g>
</svg>
