<?xml version="1.0" encoding="UTF-8" standalone="no"?>
<!-- Created with Inkscape (http://www.inkscape.org/) -->

<svg
   xmlns:dc="http://purl.org/dc/elements/1.1/"
   xmlns:cc="http://creativecommons.org/ns#"
   xmlns:rdf="http://www.w3.org/1999/02/22-rdf-syntax-ns#"
   xmlns:svg="http://www.w3.org/2000/svg"
   xmlns="http://www.w3.org/2000/svg"
   xmlns:sodipodi="http://sodipodi.sourceforge.net/DTD/sodipodi-0.dtd"
   xmlns:inkscape="http://www.inkscape.org/namespaces/inkscape"
   version="1.1"
   width="1000"
   height="1000"
   id="svg2"
   inkscape:version="0.48.1 r9760"
   sodipodi:docname="letterDblSharp.svg">
  <sodipodi:namedview
     pagecolor="#ffffff"
     bordercolor="#666666"
     borderopacity="1"
     objecttolerance="10"
     gridtolerance="10"
     guidetolerance="10"
     inkscape:pageopacity="0"
     inkscape:pageshadow="2"
     inkscape:window-width="1600"
     inkscape:window-height="1176"
     id="namedview8"
     showgrid="false"
     inkscape:zoom="0.67396115"
     inkscape:cx="254.86326"
     inkscape:cy="438.43672"
     inkscape:window-x="-8"
     inkscape:window-y="-3"
     inkscape:window-maximized="1"
     inkscape:current-layer="svg2"
     showguides="true"
     inkscape:guide-bbox="true">
    <sodipodi:guide
       orientation="1,0"
       position="348.68479,854.64867"
       id="guide5187" />
    <sodipodi:guide
       orientation="0,1"
       position="-83.090843,500.02882"
       id="guide2996" />
  </sodipodi:namedview>
  <defs
     id="defs4" />
  <metadata
     id="metadata7">
    <rdf:RDF>
      <cc:Work
         rdf:about="">
        <dc:format>image/svg+xml</dc:format>
        <dc:type
           rdf:resource="http://purl.org/dc/dcmitype/StillImage" />
        <dc:title />
      </cc:Work>
    </rdf:RDF>
  </metadata>
  <text
     xml:space="preserve"
     style="font-size:600px;font-style:normal;font-variant:normal;font-weight:normal;font-stretch:normal;line-height:125%;letter-spacing:0px;word-spacing:0px;fill:#000000;fill-opacity:1;stroke:none;font-family:Emmentaler;-inkscape-font-specification:Emmentaler"
     x="1030.295"
     y="-227.54099"
     id="text5163"
     sodipodi:linespacing="125%"><tspan
       sodipodi:role="line"
       id="tspan5165"
       x="1030.295"
       y="-227.54099" /></text>
  <text
     xml:space="preserve"
     style="font-size:600px;font-style:normal;font-variant:normal;font-weight:normal;font-stretch:normal;line-height:125%;letter-spacing:0px;word-spacing:0px;fill:#000000;fill-opacity:1;stroke:none;font-family:Emmentaler;-inkscape-font-specification:Emmentaler"
     x="1034.4918"
     y="-718.55737"
     id="text5167"
     sodipodi:linespacing="125%"><tspan
       sodipodi:role="line"
       id="tspan5169"
       x="1034.4918"
       y="-718.55737" /></text>
  <g
     style="font-size:600px;font-style:normal;font-variant:normal;font-weight:normal;font-stretch:normal;line-height:125%;letter-spacing:0px;word-spacing:0px;fill:#000000;fill-opacity:1;stroke:none;font-family:Emmentaler;-inkscape-font-specification:Emmentaler"
     id="text5242"
     transform="matrix(1.7482517,0,0,1.7482517,-745.75343,-153.58589)">
    <path
       d="m 746.57098,373.85114 c 20.99998,-20.99998 53.00003,-26 83,-26 9.99999,0 18,-8.00001 18,-18 l 8,-81 c 1,-9.99999 -7.00001,-18 -16,-18 l -2,0 -81,8 c -9.99999,0.99999 -18,8.00001 -18,18 0,29.99997 -5.00002,62.00002 -26,83 -20.99998,-20.99998 -26,-53.00003 -26,-83 0,-9.99999 -8.00001,-17.00001 -18,-18 l -81,-8 -2,0 c -8.99999,0 -17,8.00001 -16,18 l 8,81 c 0,9.99999 8.00001,18 18,18 29.99997,0 62.00002,5.00002 83,26 -20.99998,20.99997 -53.00003,26 -83,26 -9.99999,0 -18,8.00001 -18,18 l -8,81 c -1,9.99999 7.00001,18 16,18 l 2,0 81,-8 c 9.99999,-1 18,-8.00001 18,-18 0,-29.99997 5.00002,-62.00003 26,-83 20.99998,20.99997 26,53.00003 26,83 0,9.99999 8.00001,17 18,18 l 81,8 2,0 c 8.99999,0 17,-8.00001 16,-18 l -8,-81 c 0,-9.99999 -8.00001,-18 -18,-18 -29.99997,0 -62.00002,-5.00003 -83,-26"
       style="font-size:1000px"
       id="path5247"
       inkscape:connector-curvature="0" />
  </g>
</svg>
