<?xml version="1.0" encoding="UTF-8" standalone="no"?>
<!-- Created with Inkscape (http://www.inkscape.org/) -->

<svg
   xmlns:dc="http://purl.org/dc/elements/1.1/"
   xmlns:cc="http://creativecommons.org/ns#"
   xmlns:rdf="http://www.w3.org/1999/02/22-rdf-syntax-ns#"
   xmlns:svg="http://www.w3.org/2000/svg"
   xmlns="http://www.w3.org/2000/svg"
   xmlns:sodipodi="http://sodipodi.sourceforge.net/DTD/sodipodi-0.dtd"
   xmlns:inkscape="http://www.inkscape.org/namespaces/inkscape"
   version="1.1"
   width="1024"
   height="1024"
   id="svg2"
   inkscape:version="0.48.1 r9760"
   sodipodi:docname="questMark.svg">
  <sodipodi:namedview
     pagecolor="#ffffff"
     bordercolor="#666666"
     borderopacity="1"
     objecttolerance="10"
     gridtolerance="10"
     guidetolerance="10"
     inkscape:pageopacity="0"
     inkscape:pageshadow="2"
     inkscape:window-width="1600"
     inkscape:window-height="1176"
     id="namedview2992"
     showgrid="false"
     inkscape:zoom="0.34506811"
     inkscape:cx="502.10729"
     inkscape:cy="364.67087"
     inkscape:window-x="-8"
     inkscape:window-y="-3"
     inkscape:window-maximized="1"
     inkscape:current-layer="svg2"
     showguides="true"
     inkscape:guide-bbox="true">
    <sodipodi:guide
       orientation="1,0"
       position="98.531273,1149.0485"
       id="guide2992" />
  </sodipodi:namedview>
  <defs
     id="defs4" />
  <metadata
     id="metadata7">
    <rdf:RDF>
      <cc:Work
         rdf:about="">
        <dc:format>image/svg+xml</dc:format>
        <dc:type
           rdf:resource="http://purl.org/dc/dcmitype/StillImage" />
        <dc:title></dc:title>
      </cc:Work>
    </rdf:RDF>
  </metadata>
  <g
     style="font-size:1106.50073242px;font-style:normal;font-variant:normal;font-weight:normal;font-stretch:normal;line-height:125%;letter-spacing:0px;word-spacing:0px;fill:#000000;fill-opacity:1;stroke:none;font-family:FL Jazzowy 1;-inkscape-font-specification:FL Jazzowy 1"
     id="text3004">
    <path
       d="m 211.7635,339.22021 c -1e-5,-85.67654 34.79861,-147.34923 104.39596,-185.01826 54.42179,-28.80453 129.77519,-43.20714 226.06042,-43.20786 47.61883,7.2e-4 92.62155,9.97176 135.00831,29.91313 50.23513,23.63574 87.91182,57.98042 113.03021,103.03413 14.65146,27.32861 21.97749,56.87241 21.9781,88.6315 -6.1e-4,50.96356 -19.36225,100.08014 -58.08497,147.34987 -28.25808,34.71432 -59.65532,61.30374 -94.19184,79.76835 -54.94565,29.54408 -97.59358,62.78086 -127.94392,99.71044 -10.46608,13.29488 -15.69896,25.11241 -15.69865,35.4526 -3.1e-4,1.47733 -0.52359,4.06241 -1.56986,7.75525 -0.52359,2.95452 -0.78524,5.1703 -0.78493,6.64737 -3.1e-4,14.03343 -19.1003,21.05008 -57.30004,21.04998 -16.22217,1e-4 -25.37969,-1.84638 -27.47262,-5.53947 -1.57008,-1.47708 -2.09337,-3.69287 -1.56986,-6.64736 0.52306,-2.95427 0.78471,-6.64724 0.78493,-11.07894 -2.2e-4,-43.57699 19.8847,-84.93831 59.65483,-124.0841 11.51205,-11.81727 29.56546,-28.06636 54.16031,-48.74733 25.11746,-20.68036 43.69417,-36.92945 55.73018,-48.74732 39.24617,-39.14519 58.86945,-79.02933 58.8699,-119.65253 -4.5e-4,-20.68019 -6.80319,-40.99156 -20.40823,-60.93416 -18.83878,-27.32749 -45.00316,-40.9915 -78.49321,-40.99207 -20.40857,5.7e-4 -39.50856,7.01722 -57.30003,21.04999 -20.9318,16.98823 -31.39755,38.77679 -31.39729,65.36573 -2.6e-4,8.12502 2.09289,15.88027 6.27946,23.26577 4.70932,7.38641 7.06411,13.66446 7.06439,18.83419 -2.8e-4,10.34078 -9.94274,15.51094 -29.82742,15.51052 l -209.57685,0 c -20.93154,4.2e-4 -31.39729,-17.72586 -31.39728,-53.17891 l 0,-15.51051 m 165.62065,429.86278 145.99736,0 c 8.37228,6e-5 24.5942,17.35705 48.66579,52.07101 25.11743,36.92976 37.67633,63.51919 37.67674,79.76836 -4.1e-4,7.38587 -2.09356,10.70955 -6.27946,9.97103 -4.1867,-0.73867 -7.58807,-1.10797 -10.20411,-1.10789 l -120.09461,0 c -4.18657,-8e-5 -19.3619,-16.61847 -45.52605,-49.85522 -29.30432,-36.92978 -46.04953,-67.21218 -50.23566,-90.84729"
       id="path3009"
       inkscape:connector-curvature="0" />
  </g>
</svg>
