<?xml version="1.0" encoding="UTF-8" standalone="no"?>
<!-- Created with Inkscape (http://www.inkscape.org/) -->

<svg
   xmlns:dc="http://purl.org/dc/elements/1.1/"
   xmlns:cc="http://creativecommons.org/ns#"
   xmlns:rdf="http://www.w3.org/1999/02/22-rdf-syntax-ns#"
   xmlns:svg="http://www.w3.org/2000/svg"
   xmlns="http://www.w3.org/2000/svg"
   version="1.1"
   width="1024"
   height="1024"
   id="svg2">
  <defs
     id="defs4" />
  <metadata
     id="metadata7">
    <rdf:RDF>
      <cc:Work
         rdf:about="">
        <dc:format>image/svg+xml</dc:format>
        <dc:type
           rdf:resource="http://purl.org/dc/dcmitype/StillImage" />
        <dc:title></dc:title>
      </cc:Work>
    </rdf:RDF>
  </metadata>
  <g
     transform="matrix(177.81108,0,0,177.81108,408.96621,493.2623)"
     id="g1341">
    <g
       id="text1343"
       style="font-size:4px;fill:currentColor;font-family:Emmentaler">
      <path
         d="m 1.0122192,0.29265725 0,-0.7288635 0.1518466,-0.0607386 c 0.0658,-0.0253077 0.1113541,-0.0961696 0.1113541,-0.16703122 l 0,-0.21258519 c 0,-0.10123094 -0.086046,-0.18221594 -0.1822158,-0.18221594 -0.035431,0 -0.055677,0.010123 -0.080985,0.020246 l 0,-0.6276325 c 0,-0.070862 -0.0556771,-0.1265388 -0.12653878,-0.1265388 -0.0708617,0 -0.13160035,0.055677 -0.13160035,0.1265388 l 0,0.73392507 -0.34924709,0.14678501 0,-0.62763248 c 0,-0.070862 -0.0607387,-0.1316003 -0.13160035,-0.1316003 -0.0708617,0 -0.12653881,0.060739 -0.12653881,0.1316003 l 0,0.72886352 -0.15184656,0.0658002 c -0.06580011,0.0253077 -0.11135414,0.0961696 -0.11135414,0.16703121 l 0,0.20752364 c 0,0.10123094 0.08604648,0.18221587 0.18221587,0.18221587 0.03543083,0 0.0556771,-0.01012311 0.08098483,-0.02024621 l 0,0.7288635 -0.15184656,0.0607386 c -0.06580011,0.0253077 -0.11135414,0.0961696 -0.11135414,0.16703122 l 0,0.21258515 c 0,0.101231 0.08604648,0.1822159 0.18221587,0.1822159 0.03543083,0 0.0556771,-0.010123 0.08098483,-0.020246 l 0,0.6276324 c 0,0.070862 0.0556772,0.1265388 0.12653881,0.1265388 0.0708617,0 0.13160035,-0.055677 0.13160035,-0.1265388 l 0,-0.733925 0.34924709,-0.146785 0,0.6276324 c 0,0.070862 0.0607387,0.1316004 0.13160035,0.1316004 0.0708617,0 0.12653878,-0.060739 0.12653878,-0.1316004 l 0,-0.72886344 0.1518466,-0.0658002 c 0.0658,-0.0253077 0.1113541,-0.0961696 0.1113541,-0.16703121 l 0,-0.20752364 c 0,-0.10123094 -0.086046,-0.18221587 -0.1822158,-0.18221587 -0.035431,0 -0.055677,0.0101231 -0.080985,0.0202462 m -0.25813913,-0.62257091 0,0.7288635 -0.34924709,0.14172346 0,-0.7288635 0.34924709,-0.14172346"
         id="path5180"
         style="font-size:5.06155205px" />
    </g>
  </g>
</svg>
