<?xml version="1.0" encoding="UTF-8" standalone="no"?>
<!-- Created with Inkscape (http://www.inkscape.org/) -->

<svg
   xmlns:dc="http://purl.org/dc/elements/1.1/"
   xmlns:cc="http://creativecommons.org/ns#"
   xmlns:rdf="http://www.w3.org/1999/02/22-rdf-syntax-ns#"
   xmlns:svg="http://www.w3.org/2000/svg"
   xmlns="http://www.w3.org/2000/svg"
   xmlns:sodipodi="http://sodipodi.sourceforge.net/DTD/sodipodi-0.dtd"
   xmlns:inkscape="http://www.inkscape.org/namespaces/inkscape"
   width="36.923378"
   height="34.242474"
   id="svg3262"
   version="1.1"
   inkscape:version="0.48.3.1 r9886"
   sodipodi:docname="accidSettings.svg"
   inkscape:export-filename="/home/tom/DEVELOP/QT4/nootka/picts/accidSettings.png"
   inkscape:export-xdpi="388.9906"
   inkscape:export-ydpi="388.9906">
  <defs
     id="defs3264">
    <filter
       id="filter4748"
       inkscape:label="Drop shadow"
       width="1.5"
       height="1.5"
       x="-0.25"
       y="-0.25"
       color-interpolation-filters="sRGB">
      <feGaussianBlur
         id="feGaussianBlur4750"
         in="SourceAlpha"
         stdDeviation="1"
         result="blur" />
      <feColorMatrix
         id="feColorMatrix4752"
         result="bluralpha"
         type="matrix"
         values="1 0 0 0 0 0 1 0 0 0 0 0 1 0 0 0 0 0 0.7 0 " />
      <feOffset
         id="feOffset4754"
         in="bluralpha"
         dx="1"
         dy="1"
         result="offsetBlur" />
      <feMerge
         id="feMerge4756">
        <feMergeNode
           id="feMergeNode4758"
           in="offsetBlur" />
        <feMergeNode
           id="feMergeNode4760"
           in="SourceGraphic" />
      </feMerge>
    </filter>
    <filter
       id="filter4748-4"
       inkscape:label="Drop shadow"
       width="1.5"
       height="1.5"
       x="-0.25"
       y="-0.25"
       color-interpolation-filters="sRGB">
      <feGaussianBlur
         id="feGaussianBlur4750-5"
         in="SourceAlpha"
         stdDeviation="1"
         result="blur" />
      <feColorMatrix
         id="feColorMatrix4752-2"
         result="bluralpha"
         type="matrix"
         values="1 0 0 0 0 0 1 0 0 0 0 0 1 0 0 0 0 0 0.7 0 " />
      <feOffset
         id="feOffset4754-5"
         in="bluralpha"
         dx="1"
         dy="1"
         result="offsetBlur" />
      <feMerge
         id="feMerge4756-4">
        <feMergeNode
           id="feMergeNode4758-7"
           in="offsetBlur" />
        <feMergeNode
           id="feMergeNode4760-4"
           in="SourceGraphic" />
      </feMerge>
    </filter>
    <filter
       id="filter4748-3"
       inkscape:label="Drop shadow"
       width="1.5"
       height="1.5"
       x="-0.25"
       y="-0.25"
       color-interpolation-filters="sRGB">
      <feGaussianBlur
         id="feGaussianBlur4750-0"
         in="SourceAlpha"
         stdDeviation="1"
         result="blur" />
      <feColorMatrix
         id="feColorMatrix4752-7"
         result="bluralpha"
         type="matrix"
         values="1 0 0 0 0 0 1 0 0 0 0 0 1 0 0 0 0 0 0.7 0 " />
      <feOffset
         id="feOffset4754-8"
         in="bluralpha"
         dx="1"
         dy="1"
         result="offsetBlur" />
      <feMerge
         id="feMerge4756-6">
        <feMergeNode
           id="feMergeNode4758-8"
           in="offsetBlur" />
        <feMergeNode
           id="feMergeNode4760-8"
           in="SourceGraphic" />
      </feMerge>
    </filter>
    <filter
       id="filter3663"
       style="color-interpolation-filters:sRGB;"
       inkscape:label="Drop Shadow">
      <feFlood
         id="feFlood3665"
         flood-opacity="0.5"
         flood-color="rgb(0,0,0)"
         result="flood" />
      <feComposite
         id="feComposite3667"
         in2="SourceGraphic"
         in="flood"
         operator="in"
         result="composite1" />
      <feGaussianBlur
         id="feGaussianBlur3669"
         in="composite"
         stdDeviation="2"
         result="blur" />
      <feOffset
         id="feOffset3671"
         dx="15"
         dy="15"
         result="offset" />
      <feComposite
         id="feComposite3673"
         in2="offset"
         in="SourceGraphic"
         operator="over"
         result="composite2" />
    </filter>
    <filter
       id="filter3675"
       style="color-interpolation-filters:sRGB;"
       inkscape:label="Drop Shadow">
      <feFlood
         id="feFlood3677"
         flood-opacity="0.5"
         flood-color="rgb(0,0,0)"
         result="flood" />
      <feComposite
         id="feComposite3679"
         in2="SourceGraphic"
         in="flood"
         operator="in"
         result="composite1" />
      <feGaussianBlur
         id="feGaussianBlur3681"
         in="composite"
         stdDeviation="2"
         result="blur" />
      <feOffset
         id="feOffset3683"
         dx="15"
         dy="15"
         result="offset" />
      <feComposite
         id="feComposite3685"
         in2="offset"
         in="SourceGraphic"
         operator="over"
         result="composite2" />
    </filter>
    <filter
       id="filter3711"
       style="color-interpolation-filters:sRGB;"
       inkscape:label="Drop Shadow">
      <feFlood
         id="feFlood3713"
         flood-opacity="0.5"
         flood-color="rgb(0,0,0)"
         result="flood" />
      <feComposite
         id="feComposite3715"
         in2="SourceGraphic"
         in="flood"
         operator="in"
         result="composite1" />
      <feGaussianBlur
         id="feGaussianBlur3717"
         in="composite"
         stdDeviation="2"
         result="blur" />
      <feOffset
         id="feOffset3719"
         dx="20"
         dy="20"
         result="offset" />
      <feComposite
         id="feComposite3721"
         in2="offset"
         in="SourceGraphic"
         operator="over"
         result="composite2" />
    </filter>
  </defs>
  <sodipodi:namedview
     id="base"
     pagecolor="#ffffff"
     bordercolor="#666666"
     borderopacity="1.0"
     inkscape:pageopacity="0.0"
     inkscape:pageshadow="2"
     inkscape:zoom="3.959798"
     inkscape:cx="-16.719453"
     inkscape:cy="1.1574324"
     inkscape:document-units="px"
     inkscape:current-layer="layer1"
     showgrid="false"
     fit-margin-top="0"
     fit-margin-left="0"
     fit-margin-right="0"
     fit-margin-bottom="0"
     inkscape:window-width="856"
     inkscape:window-height="763"
     inkscape:window-x="159"
     inkscape:window-y="210"
     inkscape:window-maximized="0" />
  <metadata
     id="metadata3267">
    <rdf:RDF>
      <cc:Work
         rdf:about="">
        <dc:format>image/svg+xml</dc:format>
        <dc:type
           rdf:resource="http://purl.org/dc/dcmitype/StillImage" />
        <dc:title></dc:title>
      </cc:Work>
    </rdf:RDF>
  </metadata>
  <g
     inkscape:label="Layer 1"
     inkscape:groupmode="layer"
     id="layer1"
     transform="translate(-520.68619,-413.02269)">
    <rect
       style="fill:#ffffff;fill-opacity:1;filter:url(#filter4748)"
       id="rect3894"
       width="24.615585"
       height="22.828316"
       x="144.83507"
       y="326.66232"
       ry="2.6451859" />
    <rect
       style="fill:#ffffff;fill-opacity:1;filter:url(#filter4748-4)"
       id="rect3894-4"
       width="24.615585"
       height="22.828316"
       x="833.40649"
       y="292.37659"
       ry="2.6451859" />
    <rect
       style="fill:#ffffff;fill-opacity:1;filter:url(#filter4748-3)"
       id="rect3894-43"
       width="24.615585"
       height="22.828316"
       x="526.84009"
       y="418.72977"
       ry="2.6451859" />
    <g
       id="g3215"
       transform="matrix(1.0408118,0,0,1,-21.553726,0)">
      <path
         inkscape:export-ydpi="328.67273"
         inkscape:export-xdpi="328.67273"
         inkscape:export-filename="/home/tom/DEVELOP/QT4/nootka/picts/c1-trecle.png"
         id="line8"
         d="m 528.12454,435.59798 21.75331,0"
         style="stroke:currentColor;stroke-width:0.2496305;stroke-linecap:round;stroke-linejoin:round"
         inkscape:connector-curvature="0" />
      <path
         inkscape:export-ydpi="328.67273"
         inkscape:export-xdpi="328.67273"
         inkscape:export-filename="/home/tom/DEVELOP/QT4/nootka/picts/c1-trecle.png"
         id="line10"
         d="m 528.12454,433.10168 21.75331,0"
         style="stroke:currentColor;stroke-width:0.2496305;stroke-linecap:round;stroke-linejoin:round"
         inkscape:connector-curvature="0" />
      <path
         inkscape:export-ydpi="328.67273"
         inkscape:export-xdpi="328.67273"
         inkscape:export-filename="/home/tom/DEVELOP/QT4/nootka/picts/c1-trecle.png"
         id="line12"
         d="m 528.12454,430.60537 21.75331,0"
         style="stroke:currentColor;stroke-width:0.2496305;stroke-linecap:round;stroke-linejoin:round"
         inkscape:connector-curvature="0" />
      <path
         inkscape:export-ydpi="328.67273"
         inkscape:export-xdpi="328.67273"
         inkscape:export-filename="/home/tom/DEVELOP/QT4/nootka/picts/c1-trecle.png"
         id="line14"
         d="m 528.12454,428.10907 21.75331,0"
         style="stroke:currentColor;stroke-width:0.2496305;stroke-linecap:round;stroke-linejoin:round"
         inkscape:connector-curvature="0" />
      <path
         inkscape:export-ydpi="328.67273"
         inkscape:export-xdpi="328.67273"
         inkscape:export-filename="/home/tom/DEVELOP/QT4/nootka/picts/c1-trecle.png"
         id="line16"
         d="m 528.12454,425.61276 21.75331,0"
         style="stroke:currentColor;stroke-width:0.2496305;stroke-linecap:round;stroke-linejoin:round"
         inkscape:connector-curvature="0" />
    </g>
    <path
       d="m 531.34182,435.71781 c -1.87722,0 -3.32508,-1.71746 -3.32508,-3.73448 0,-1.80732 1.31805,-3.13536 2.50629,-4.51332 -0.21967,-0.69896 -0.3994,-1.4179 -0.48927,-2.14682 -0.0599,-0.54919 -0.0799,-1.08839 -0.0799,-1.64756 0,-1.18824 0.54919,-2.2966 1.49778,-3.01554 0.03,-0.02 0.0699,-0.0399 0.0999,-0.0399 0.0399,0 0.0699,0.01 0.0998,0.0399 0.76887,0.88869 1.44786,2.62612 1.44786,3.83433 0,1.4878 -0.89867,2.64608 -1.87722,3.78439 0.22966,0.72893 0.43935,1.46783 0.62907,2.20674 0.01,0 0.02,-0.01 0.0299,-0.01 1.54771,0 2.55621,1.2781 2.55621,2.60614 0,0.75887 -0.32951,1.53772 -1.06842,2.0969 -0.24963,0.18971 -0.52921,0.30954 -0.82877,0.38942 v 0.31953 c 0,0.47929 -0.01,0.96856 -0.0399,1.44785 -0.0699,1.2182 -0.94859,2.27664 -2.15681,2.27664 -1.11834,0 -2.01701,-0.91865 -2.01701,-2.04698 0,-0.57914 0.52922,-1.03846 1.11834,-1.03846 0.53921,0 0.9486,0.47929 0.9486,1.03846 0,0.51924 -0.42936,0.9486 -0.9486,0.9486 -0.11982,0 -0.22966,-0.0299 -0.33949,-0.0799 0.25961,0.44933 0.72892,0.74889 1.26812,0.74889 0.97855,0 1.64756,-0.90866 1.70747,-1.90718 0.0299,-0.45932 0.0399,-0.92862 0.0399,-1.38794 v -0.22967 c -0.25962,0.0399 -0.50924,0.0599 -0.77885,0.0599 z m 1.18824,-0.56916 c 0.71894,-0.22966 1.20821,-0.9486 1.20821,-1.66753 0,-0.8787 -0.62906,-1.7574 -1.63757,-1.90718 0.22966,1.08839 0.38942,2.35651 0.42936,3.57471 z m -1.15828,0.13979 c 0.24963,0 0.49926,-0.01 0.73891,-0.0399 -0.0399,-1.25814 -0.20969,-2.57619 -0.44934,-3.69453 -0.85873,0.0499 -1.34801,0.6091 -1.34801,1.2182 0,0.43935 0.25962,0.91863 0.81879,1.23816 0.0499,0.0499 0.0699,0.0999 0.0699,0.14978 0,0.10984 -0.0999,0.21968 -0.21968,0.21968 -0.0299,0 -0.0599,-0.01 -0.0899,-0.02 -0.79882,-0.42937 -1.16827,-1.1483 -1.16827,-1.84726 0,-0.90866 0.61908,-1.78736 1.69748,-1.98706 -0.15976,-0.62907 -0.33949,-1.24816 -0.52921,-1.86724 -1.08839,1.24815 -2.17678,2.4963 -2.17678,4.14387 0,1.35799 1.29808,2.48632 2.65607,2.48632 z m 0.67899,-13.20046 c -0.99852,0.52922 -1.62759,1.56768 -1.62759,2.69601 0,0.86871 0.21968,1.57767 0.42937,2.2966 0.83875,-1.01849 1.54771,-2.08691 1.54771,-3.40496 0,-0.69897 -0.0699,-0.97855 -0.34949,-1.58765 z"
       id="path22"
       inkscape:connector-curvature="0"
       style="fill:currentColor"
       inkscape:export-filename="/home/tom/DEVELOP/QT4/nootka/picts/c1-trecle.png"
       inkscape:export-xdpi="328.67273"
       inkscape:export-ydpi="328.67273" />
    <g
       style="font-size:600px;font-style:normal;font-variant:normal;font-weight:normal;font-stretch:normal;line-height:125%;letter-spacing:0px;word-spacing:0px;fill:#000000;fill-opacity:1;stroke:none;font-family:Emmentaler;-inkscape-font-specification:Emmentaler;filter:url(#filter3711)"
       id="text5216"
       transform="matrix(0.00985498,0,0,0.00985498,531.96741,419.33343)">
      <path
         d="m 780.89563,519.16599 0,-144 30,-12 c 12.99999,-5 22,-19.00002 22,-33 l 0,-42 c 0,-19.99998 -17.00002,-36 -36,-36 -6.99999,0 -11.00001,2 -16,4 l 0,-124 c 0,-13.99999 -11.00001,-25 -25,-25 -13.99999,0 -26,11.00001 -26,25 l 0,145 -69,29 0,-124 c 0,-13.99999 -12.00001,-26 -26,-26 -13.99999,0 -25,12.00001 -25,26 l 0,144 -30,13 c -12.99999,4.99999 -22,19.00001 -22,33 l 0,41 c 0,19.99998 17.00002,36 36,36 6.99999,0 11,-2.00001 16,-4 l 0,144 -30,12 c -12.99999,4.99999 -22,19.00001 -22,33 l 0,42 c 0,19.99998 17.00002,36 36,36 6.99999,0 11,-2.00001 16,-4 l 0,124 c 0,13.99998 11.00001,25 25,25 13.99999,0 26,-11.00002 26,-25 l 0,-145 69,-29 0,124 c 0,13.99998 12.00001,26 26,26 13.99999,0 25,-12.00002 25,-26 l 0,-144 30,-13 c 12.99999,-5 22,-19.00002 22,-33 l 0,-41 c 0,-19.99998 -17.00002,-36 -36,-36 -6.99999,0 -11.00001,2 -16,4 m -51,-123 0,144 -69,28 0,-144 69,-28"
         style="font-size:1000px"
         id="path5221"
         inkscape:connector-curvature="0" />
    </g>
    <g
       style="font-size:600px;font-style:normal;font-variant:normal;font-weight:normal;font-stretch:normal;line-height:125%;letter-spacing:0px;word-spacing:0px;fill:#000000;fill-opacity:1;stroke:none;font-family:Emmentaler;-inkscape-font-specification:Emmentaler"
       id="text5178"
       transform="matrix(0.00897241,0,0,0.00897241,529.05066,425.13778)">
      <path
         d="m 748.34424,573.40985 c 1,-33.99996 16.00003,-68 47,-68 25.99997,0 39,31.00003 39,61 0,54.99995 -43.00004,96.00004 -83,134 -3,-19.99998 -5,-41.00002 -5,-62 l 0,-10 2,-55 m -56,174 c 0,19.99998 13.00002,38 32,38 29.99997,0 38.00002,-37.00002 58,-57 53.99994,-51.99995 129,-94.00007 129,-169 0,-53.99994 -26.00005,-108 -75,-108 -37.99996,0 -74.00003,17.00003 -99,46 l 9,-330 c -10.99999,-5.99999 -23.00001,-9 -35,-9 -11.99999,0 -24.00001,3.00001 -35,9 l 16,580"
         style="font-size:1000px"
         id="path5183"
         inkscape:connector-curvature="0" />
    </g>
    <g
       style="font-size:600px;font-style:normal;font-variant:normal;font-weight:normal;font-stretch:normal;line-height:125%;letter-spacing:0px;word-spacing:0px;fill:#000000;fill-opacity:1;stroke:none;font-family:Emmentaler;-inkscape-font-specification:Emmentaler;filter:url(#filter3675)"
       id="text5279"
       transform="matrix(0.01412482,0,0,0.01412482,532.09144,430.82445)">
      <path
         d="m 800.92487,239.98761 c 0.99999,-33.99997 13.00003,-68 43,-68 25.99997,0 36,31.00003 36,61 0,53.99995 -37.00004,96.00004 -76,134 -3,-19.99998 -5,-41.00002 -5,-62 l 0,-10 2,-55 m -56,174 c 0,19.99998 12.00001,38 31,38 29.99997,0 39.00002,-37.00002 59,-57 53.99994,-51.99995 128,-95.00008 128,-170 0,-54.99995 -28.00005,-107 -78,-107 -36.99997,0 -73.00003,17.00003 -96,46 l 10,-330 c -10.99999,-5.99999 -24.00002,-9 -36,-9 -11.99999,0 -24.00002,3.00001 -35,9 l 9,294 c -9,-6.99999 -21.00002,-10 -34,-10 -31.99997,0 -61.00002,18.00003 -76,46 l 9,-330 c -10.99999,-5.99999 -23.00002,-9 -35,-9 -11.99999,0 -24.00002,3.00001 -35,9 l 16,580 c 0,19.99998 13.00001,38 32,38 28.99997,0 32.00001,-37.00002 50,-57 24.99997,-27.99997 55.00002,-54.00003 78,-83 l 3,102 m -120,-174 c 0.99999,-32.99997 8.00002,-68 37,-68 24.99997,0 31,32.00003 31,61 0,52.99995 -29.00004,100.00004 -64,140 -4,-21.99998 -6,-45.00002 -6,-67 l 0,-11 2,-55"
         style="font-size:1000px"
         id="path5284"
         inkscape:connector-curvature="0" />
    </g>
    <g
       style="font-size:600px;font-style:normal;font-variant:normal;font-weight:normal;font-stretch:normal;line-height:125%;letter-spacing:0px;word-spacing:0px;fill:#000000;fill-opacity:1;stroke:none;font-family:Emmentaler;-inkscape-font-specification:Emmentaler;filter:url(#filter3663)"
       id="text5242"
       transform="matrix(0.01898385,0,0,0.01898385,534.28631,418.57725)">
      <path
         d="m 746.57098,373.85114 c 20.99998,-20.99998 53.00003,-26 83,-26 9.99999,0 18,-8.00001 18,-18 l 8,-81 c 1,-9.99999 -7.00001,-18 -16,-18 l -2,0 -81,8 c -9.99999,0.99999 -18,8.00001 -18,18 0,29.99997 -5.00002,62.00002 -26,83 -20.99998,-20.99998 -26,-53.00003 -26,-83 0,-9.99999 -8.00001,-17.00001 -18,-18 l -81,-8 -2,0 c -8.99999,0 -17,8.00001 -16,18 l 8,81 c 0,9.99999 8.00001,18 18,18 29.99997,0 62.00002,5.00002 83,26 -20.99998,20.99997 -53.00003,26 -83,26 -9.99999,0 -18,8.00001 -18,18 l -8,81 c -1,9.99999 7.00001,18 16,18 l 2,0 81,-8 c 9.99999,-1 18,-8.00001 18,-18 0,-29.99997 5.00002,-62.00003 26,-83 20.99998,20.99997 26,53.00003 26,83 0,9.99999 8.00001,17 18,18 l 81,8 2,0 c 8.99999,0 17,-8.00001 16,-18 l -8,-81 c 0,-9.99999 -8.00001,-18 -18,-18 -29.99997,0 -62.00002,-5.00003 -83,-26"
         style="font-size:1000px"
         id="path5247"
         inkscape:connector-curvature="0" />
    </g>
  </g>
</svg>
