<?xml version="1.0" encoding="UTF-8" standalone="no"?>
<svg
   xmlns:dc="http://purl.org/dc/elements/1.1/"
   xmlns:cc="http://creativecommons.org/ns#"
   xmlns:rdf="http://www.w3.org/1999/02/22-rdf-syntax-ns#"
   xmlns:svg="http://www.w3.org/2000/svg"
   xmlns="http://www.w3.org/2000/svg"
   xmlns:sodipodi="http://sodipodi.sourceforge.net/DTD/sodipodi-0.dtd"
   xmlns:inkscape="http://www.inkscape.org/namespaces/inkscape"
   version="1.2"
   width="54.880001"
   height="53.616917"
   viewBox="0 0 8.8137301 8.6108786"
   id="svg2"
   inkscape:version="0.48.1 r9760"
   sodipodi:docname="c1-treble_8.svg"
   inkscape:export-filename="/home/tom/DEVELOP/QT4/nootka/picts/c1-trecle_8.png"
   inkscape:export-xdpi="299.98074"
   inkscape:export-ydpi="299.98074">
  <metadata
     id="metadata50">
    <rdf:RDF>
      <cc:Work
         rdf:about="">
        <dc:format>image/svg+xml</dc:format>
        <dc:type
           rdf:resource="http://purl.org/dc/dcmitype/StillImage" />
        <dc:title></dc:title>
      </cc:Work>
    </rdf:RDF>
  </metadata>
  <defs
     id="defs48" />
  <sodipodi:namedview
     pagecolor="#ffffff"
     bordercolor="#666666"
     borderopacity="1"
     objecttolerance="10"
     gridtolerance="10"
     guidetolerance="10"
     inkscape:pageopacity="0"
     inkscape:pageshadow="2"
     inkscape:window-width="1600"
     inkscape:window-height="1176"
     id="namedview46"
     showgrid="false"
     fit-margin-top="0"
     fit-margin-left="0"
     fit-margin-right="0"
     fit-margin-bottom="0"
     inkscape:zoom="11.309815"
     inkscape:cx="32.968876"
     inkscape:cy="24.008478"
     inkscape:window-x="-2"
     inkscape:window-y="-3"
     inkscape:window-maximized="1"
     inkscape:current-layer="svg2" />
  <!-- Page: 1/1 -->
  <g
     style="font-size:2.19950008px;text-anchor:start;fill:currentColor;font-family:Century Schoolbook L"
     id="text4"
     transform="translate(0,-13.999998)" />
  <path
     style="stroke:currentColor;stroke-width:0.1;stroke-linecap:round;stroke-linejoin:round"
     d="m 0.05,5.9999998 8.7142002,0"
     id="line26"
     inkscape:export-filename="/home/tom/DEVELOP/QT4/nootka/picts/c1-trecle_8.png"
     inkscape:export-xdpi="327.32205"
     inkscape:export-ydpi="327.32205"
     inkscape:connector-curvature="0" />
  <path
     style="stroke:currentColor;stroke-width:0.1;stroke-linecap:round;stroke-linejoin:round"
     d="m 0.05,4.9999998 8.7142002,0"
     id="line28"
     inkscape:export-filename="/home/tom/DEVELOP/QT4/nootka/picts/c1-trecle_8.png"
     inkscape:export-xdpi="327.32205"
     inkscape:export-ydpi="327.32205"
     inkscape:connector-curvature="0" />
  <path
     style="stroke:currentColor;stroke-width:0.1;stroke-linecap:round;stroke-linejoin:round"
     d="m 0.05,3.9999998 8.7142002,0"
     id="line30"
     inkscape:export-filename="/home/tom/DEVELOP/QT4/nootka/picts/c1-trecle_8.png"
     inkscape:export-xdpi="327.32205"
     inkscape:export-ydpi="327.32205"
     inkscape:connector-curvature="0" />
  <path
     style="stroke:currentColor;stroke-width:0.1;stroke-linecap:round;stroke-linejoin:round"
     d="m 0.05,2.9999998 8.7142002,0"
     id="line32"
     inkscape:export-filename="/home/tom/DEVELOP/QT4/nootka/picts/c1-trecle_8.png"
     inkscape:export-xdpi="327.32205"
     inkscape:export-ydpi="327.32205"
     inkscape:connector-curvature="0" />
  <path
     style="stroke:currentColor;stroke-width:0.1;stroke-linecap:round;stroke-linejoin:round"
     d="m 0.05,1.9999998 8.7142002,0"
     id="line34"
     inkscape:export-filename="/home/tom/DEVELOP/QT4/nootka/picts/c1-trecle_8.png"
     inkscape:export-xdpi="327.32205"
     inkscape:export-ydpi="327.32205"
     inkscape:connector-curvature="0" />
  <g
     style="font-size:1.38540006px;font-style:italic;text-anchor:start;fill:currentColor;font-family:Century Schoolbook L"
     id="text36"
     inkscape:export-filename="/home/tom/DEVELOP/QT4/nootka/picts/c1-trecle_8.png"
     inkscape:export-xdpi="327.32205"
     inkscape:export-ydpi="327.32205"
     transform="translate(0,-13.999998)">
    <path
       d="m 2.2107104,22.077499 c 0.063728,-0.03048 0.092822,-0.0471 0.1177591,-0.0665 0.059572,-0.04572 0.091436,-0.109446 0.091436,-0.180102 0,-0.126071 -0.106676,-0.216122 -0.2549137,-0.216122 -0.1787164,0 -0.3172566,0.130228 -0.3172566,0.296475 0,0.08451 0.029093,0.13854 0.103905,0.192571 -0.163477,0.06234 -0.2507574,0.163477 -0.2507574,0.289549 0,0.132998 0.1108322,0.217507 0.2881632,0.217507 0.211966,0 0.3657457,-0.130227 0.3657457,-0.310329 0,-0.05126 -0.016625,-0.09975 -0.047104,-0.141311 -0.020781,-0.02771 -0.045718,-0.04849 -0.096978,-0.08174 m -0.059572,-0.03186 C 2.011213,21.977751 1.9585676,21.92372 1.9585676,21.844752 c 0,-0.09421 0.08728,-0.170404 0.1953414,-0.170404 0.094207,0 0.1620918,0.06234 0.1620918,0.148238 0,0.08728 -0.058187,0.17456 -0.1426962,0.213351 -0.00554,0.0014 -0.015239,0.0055 -0.022166,0.0097 m -0.1468524,0.09559 c 0.065114,0.03048 0.088666,0.04156 0.1233006,0.06234 0.06927,0.04156 0.1066758,0.09836 0.1066758,0.159321 0,0.10529 -0.099749,0.187029 -0.2299764,0.187029 -0.1177589,0 -0.1911852,-0.0665 -0.1911852,-0.173175 0,-0.09421 0.062343,-0.180102 0.1648626,-0.224435 0.00277,-0.0014 0.011083,-0.0042 0.026323,-0.01108"
       id="path3041"
       inkscape:connector-curvature="0" />
  </g>
  <path
     d="m 2.14,6.0479998 c -0.752,0 -1.332,-0.688 -1.332,-1.496 0,-0.724 0.528,-1.256 1.004,-1.808 -0.088,-0.28 -0.16,-0.568 -0.196,-0.86 -0.024,-0.22 -0.032,-0.436 -0.032,-0.66 0,-0.47599997 0.22,-0.91999997 0.6,-1.20799997 0.012,-0.008 0.028,-0.0159999958693 0.04,-0.0159999958693 0.016,0 0.028,0.003999995869 0.04,0.0159999958693 0.308,0.356 0.58,1.05199997 0.58,1.53599997 0,0.596 -0.36,1.06 -0.752,1.516 0.092,0.292 0.176,0.588 0.252,0.884 0.004,0 0.008,-0.004 0.012,-0.004 0.62,0 1.024,0.512 1.024,1.044 0,0.304 -0.132,0.616 -0.428,0.84 -0.1,0.076 -0.212,0.124 -0.332,0.156 v 0.128 c 0,0.192 -0.004,0.388 -0.016,0.58 -0.028,0.488 -0.38,0.912 -0.864,0.912 -0.448,0 -0.808,-0.368 -0.808,-0.82 0,-0.232 0.212,-0.416 0.448,-0.416 0.216,0 0.38,0.192 0.38,0.416 0,0.208 -0.172,0.38 -0.38,0.38 -0.048,0 -0.092,-0.012 -0.136,-0.032 0.104,0.18 0.292,0.3 0.508,0.3 0.392,0 0.66,-0.364 0.684,-0.764 0.012,-0.184 0.016,-0.372 0.016,-0.556 v -0.092 c -0.104,0.016 -0.204,0.024 -0.312,0.024 z m 0.476,-0.228 c 0.288,-0.092 0.484,-0.38 0.484,-0.668 0,-0.352 -0.252,-0.704 -0.656,-0.764 0.092,0.436 0.156,0.944 0.172,1.432 z m -0.464,0.056 c 0.1,0 0.2,-0.004 0.296,-0.016 -0.016,-0.504 -0.084,-1.032 -0.18,-1.48 -0.344,0.02 -0.54,0.244 -0.54,0.488 0,0.176 0.104,0.368 0.328,0.496 0.02,0.02 0.028,0.04 0.028,0.06 0,0.044 -0.04,0.088 -0.088,0.088 -0.012,0 -0.024,-0.004 -0.036,-0.008 -0.32,-0.172 -0.468,-0.46 -0.468,-0.74 0,-0.364 0.248,-0.716 0.68,-0.796 -0.064,-0.252 -0.136,-0.5 -0.212,-0.748 -0.436,0.5 -0.872,1 -0.872,1.66 0,0.544 0.52,0.996 1.064,0.996 z M 2.424,0.58799983 c -0.4,0.212 -0.652,0.62799997 -0.652,1.07999997 0,0.348 0.088,0.632 0.172,0.92 0.336,-0.408 0.62,-0.836 0.62,-1.364 0,-0.27999997 -0.028,-0.39199997 -0.14,-0.63599997 z"
     id="path40"
     inkscape:connector-curvature="0"
     style="fill:currentColor"
     inkscape:export-filename="/home/tom/DEVELOP/QT4/nootka/picts/c1-trecle_8.png"
     inkscape:export-xdpi="327.32205"
     inkscape:export-ydpi="327.32205" />
  <path
     style="fill:currentColor"
     d="m 5.8400002,3.6877998 0.05,0 c 0.02216,0 0.04,0.01784 0.04,0.04 l 0,3.2322 c 0,0.02216 -0.01784,0.04 -0.04,0.04 l -0.05,0 c -0.02216,0 -0.04,-0.01784 -0.04,-0.04 l 0,-3.2322 c 0,-0.02216 0.01784,-0.04 0.04,-0.04 z"
     id="rect42"
     inkscape:export-filename="/home/tom/DEVELOP/QT4/nootka/picts/c1-trecle_8.png"
     inkscape:export-xdpi="327.32205"
     inkscape:export-ydpi="327.32205"
     inkscape:connector-curvature="0" />
  <path
     d="m 6.68,2.9479998 c 0.224,0 0.436,0.116 0.436,0.364 0,0.288 -0.224,0.484 -0.412,0.596 -0.144,0.084 -0.304,0.144 -0.468,0.144 -0.224,0 -0.436,-0.116 -0.436,-0.364 0,-0.288 0.224,-0.484 0.412,-0.596 0.144,-0.084 0.304,-0.144 0.468,-0.144 z"
     id="path44"
     inkscape:connector-curvature="0"
     style="fill:currentColor"
     inkscape:export-filename="/home/tom/DEVELOP/QT4/nootka/picts/c1-trecle_8.png"
     inkscape:export-xdpi="327.32205"
     inkscape:export-ydpi="327.32205" />
</svg>
