<?xml version="1.0" encoding="UTF-8" standalone="no"?>
<!-- Created with Inkscape (http://www.inkscape.org/) -->

<svg
   xmlns:dc="http://purl.org/dc/elements/1.1/"
   xmlns:cc="http://creativecommons.org/ns#"
   xmlns:rdf="http://www.w3.org/1999/02/22-rdf-syntax-ns#"
   xmlns:svg="http://www.w3.org/2000/svg"
   xmlns="http://www.w3.org/2000/svg"
   xmlns:sodipodi="http://sodipodi.sourceforge.net/DTD/sodipodi-0.dtd"
   xmlns:inkscape="http://www.inkscape.org/namespaces/inkscape"
   width="54.952026"
   height="53.619999"
   id="svg3240"
   version="1.1"
   inkscape:version="0.48.1 r9760"
   sodipodi:docname="c1-treble.svg"
   inkscape:export-filename="/home/tom/DEVELOP/QT4/nootka/picts/c1-trecle.png"
   inkscape:export-xdpi="300"
   inkscape:export-ydpi="300">
  <defs
     id="defs3242" />
  <sodipodi:namedview
     id="base"
     pagecolor="#ffffff"
     bordercolor="#666666"
     borderopacity="1.0"
     inkscape:pageopacity="0.0"
     inkscape:pageshadow="2"
     inkscape:zoom="7.9195959"
     inkscape:cx="31.033647"
     inkscape:cy="24.176005"
     inkscape:document-units="px"
     inkscape:current-layer="layer1"
     showgrid="false"
     fit-margin-top="0"
     fit-margin-left="0"
     fit-margin-right="0"
     fit-margin-bottom="0"
     inkscape:window-width="1600"
     inkscape:window-height="1176"
     inkscape:window-x="-2"
     inkscape:window-y="-3"
     inkscape:window-maximized="1" />
  <metadata
     id="metadata3245">
    <rdf:RDF>
      <cc:Work
         rdf:about="">
        <dc:format>image/svg+xml</dc:format>
        <dc:type
           rdf:resource="http://purl.org/dc/dcmitype/StillImage" />
        <dc:title></dc:title>
      </cc:Work>
    </rdf:RDF>
  </metadata>
  <g
     inkscape:label="Layer 1"
     inkscape:groupmode="layer"
     id="layer1"
     transform="translate(-418.23088,-405.28551)">
    <g
       id="g3290"
       transform="translate(0,-6.2476711)">
      <path
         inkscape:export-ydpi="328.67273"
         inkscape:export-xdpi="328.67273"
         inkscape:export-filename="/home/tom/DEVELOP/QT4/nootka/picts/c1-trecle.png"
         id="line8"
         d="m 418.58415,448.89305 54.26027,0"
         style="stroke:currentColor;stroke-width:0.62266487;stroke-linecap:round;stroke-linejoin:round"
         inkscape:connector-curvature="0" />
      <path
         inkscape:export-ydpi="328.67273"
         inkscape:export-xdpi="328.67273"
         inkscape:export-filename="/home/tom/DEVELOP/QT4/nootka/picts/c1-trecle.png"
         id="line10"
         d="m 418.58415,442.6664 54.26027,0"
         style="stroke:currentColor;stroke-width:0.62266487;stroke-linecap:round;stroke-linejoin:round"
         inkscape:connector-curvature="0" />
      <path
         inkscape:export-ydpi="328.67273"
         inkscape:export-xdpi="328.67273"
         inkscape:export-filename="/home/tom/DEVELOP/QT4/nootka/picts/c1-trecle.png"
         id="line12"
         d="m 418.58415,436.43975 54.26027,0"
         style="stroke:currentColor;stroke-width:0.62266487;stroke-linecap:round;stroke-linejoin:round"
         inkscape:connector-curvature="0" />
      <path
         inkscape:export-ydpi="328.67273"
         inkscape:export-xdpi="328.67273"
         inkscape:export-filename="/home/tom/DEVELOP/QT4/nootka/picts/c1-trecle.png"
         id="line14"
         d="m 418.58415,430.2131 54.26027,0"
         style="stroke:currentColor;stroke-width:0.62266487;stroke-linecap:round;stroke-linejoin:round"
         inkscape:connector-curvature="0" />
      <path
         inkscape:export-ydpi="328.67273"
         inkscape:export-xdpi="328.67273"
         inkscape:export-filename="/home/tom/DEVELOP/QT4/nootka/picts/c1-trecle.png"
         id="line16"
         d="m 418.58415,423.98645 54.26027,0"
         style="stroke:currentColor;stroke-width:0.62266487;stroke-linecap:round;stroke-linejoin:round"
         inkscape:connector-curvature="0" />
      <path
         inkscape:export-ydpi="328.67273"
         inkscape:export-xdpi="328.67273"
         inkscape:export-filename="/home/tom/DEVELOP/QT4/nootka/picts/c1-trecle.png"
         id="rect18"
         d="m 452.96148,454.49703 11.04794,0 c 0.34496,0 0.62267,0.27771 0.62267,0.62267 0,0.34495 -0.27771,0.62266 -0.62267,0.62266 l -11.04794,0 c -0.34496,0 -0.62267,-0.27771 -0.62267,-0.62266 0,-0.34496 0.27771,-0.62267 0.62267,-0.62267 z"
         style="fill:currentColor"
         inkscape:connector-curvature="0" />
      <path
         inkscape:export-ydpi="328.67273"
         inkscape:export-xdpi="328.67273"
         inkscape:export-filename="/home/tom/DEVELOP/QT4/nootka/picts/c1-trecle.png"
         id="rect20"
         d="m 462.0225,433.32643 0.31133,0 c 0.13798,0 0.24907,0.11108 0.24907,0.24906 l 0,20.12578 c 0,0.13798 -0.11109,0.24906 -0.24907,0.24906 l -0.31133,0 c -0.13798,0 -0.24907,-0.11108 -0.24907,-0.24906 l 0,-20.12578 c 0,-0.13798 0.11109,-0.24906 0.24907,-0.24906 z"
         style="fill:currentColor"
         inkscape:connector-curvature="0" />
      <path
         inkscape:export-ydpi="328.67273"
         inkscape:export-xdpi="328.67273"
         inkscape:export-filename="/home/tom/DEVELOP/QT4/nootka/picts/c1-trecle.png"
         style="fill:currentColor"
         inkscape:connector-curvature="0"
         id="path22"
         d="m 431.59785,449.19193 c -4.68244,0 -8.2939,-4.28394 -8.2939,-9.31507 0,-4.50809 3.28767,-7.82067 6.25156,-11.25778 -0.54795,-1.74346 -0.99626,-3.53674 -1.22042,-5.35492 -0.14944,-1.36986 -0.19926,-2.71482 -0.19926,-4.10959 0,-2.96388 1.36987,-5.72851 3.73599,-7.52179 0.0747,-0.0498 0.17435,-0.0996 0.24907,-0.0996 0.0996,0 0.17434,0.0249 0.24906,0.0996 1.91781,2.21669 3.61146,6.55044 3.61146,9.56413 0,3.71109 -2.24159,6.60025 -4.68244,9.4396 0.57285,1.81818 1.09589,3.66127 1.56912,5.50436 0.0249,0 0.0498,-0.0249 0.0747,-0.0249 3.86052,0 6.37609,3.18804 6.37609,6.50062 0,1.8929 -0.82192,3.83562 -2.66501,5.23039 -0.62267,0.47322 -1.32005,0.7721 -2.06725,0.97135 v 0.79702 c 0,1.19551 -0.0249,2.41593 -0.0996,3.61145 -0.17434,3.03861 -2.36612,5.67871 -5.37982,5.67871 -2.78954,0 -5.03113,-2.29141 -5.03113,-5.10586 0,-1.44458 1.32005,-2.59028 2.78953,-2.59028 1.34496,0 2.36613,1.19551 2.36613,2.59028 0,1.29515 -1.07098,2.36613 -2.36613,2.36613 -0.29887,0 -0.57285,-0.0747 -0.84682,-0.19925 0.64757,1.12079 1.81818,1.86799 3.16314,1.86799 2.44084,0 4.10959,-2.2665 4.25903,-4.75716 0.0747,-1.1457 0.0996,-2.31631 0.0996,-3.46201 v -0.57286 c -0.64758,0.0996 -1.27024,0.14944 -1.94272,0.14944 z m 2.96388,-1.41968 c 1.79328,-0.57285 3.0137,-2.36613 3.0137,-4.1594 0,-2.19178 -1.56911,-4.38356 -4.08468,-4.75716 0.57285,2.71482 0.97136,5.87796 1.07098,8.91656 z m -2.88916,0.34869 c 0.62266,0 1.24533,-0.0249 1.84309,-0.0996 -0.0996,-3.13823 -0.52304,-6.4259 -1.1208,-9.21544 -2.14197,0.12454 -3.36239,1.5193 -3.36239,3.03861 0,1.09589 0.64757,2.2914 2.04234,3.08841 0.12453,0.12454 0.17435,0.24907 0.17435,0.3736 0,0.27398 -0.24907,0.54795 -0.54795,0.54795 -0.0747,0 -0.14944,-0.0249 -0.22416,-0.0498 -1.99252,-1.07099 -2.91407,-2.86426 -2.91407,-4.60772 0,-2.2665 1.54421,-4.45828 4.23412,-4.95641 -0.3985,-1.56912 -0.84682,-3.11333 -1.32005,-4.65754 -2.71482,3.11333 -5.42963,6.22665 -5.42963,10.33624 0,3.3873 3.23785,6.20174 6.62515,6.20174 z m 1.69365,-32.92652 c -2.49066,1.32005 -4.05978,3.91034 -4.05978,6.72478 0,2.16688 0.54795,3.93525 1.07099,5.72852 2.09215,-2.54047 3.86052,-5.20548 3.86052,-8.49315 0,-1.74346 -0.17435,-2.44084 -0.87173,-3.96015 z" />
      <path
         inkscape:export-ydpi="328.67273"
         inkscape:export-xdpi="328.67273"
         inkscape:export-filename="/home/tom/DEVELOP/QT4/nootka/picts/c1-trecle.png"
         style="fill:currentColor"
         inkscape:connector-curvature="0"
         id="path24"
         d="m 459.86683,451.68259 c 1.39477,0 2.71482,0.72229 2.71482,2.2665 0,1.79327 -1.39477,3.01369 -2.56538,3.71108 -0.89663,0.52304 -1.8929,0.89664 -2.91407,0.89664 -1.39477,0 -2.71482,-0.7223 -2.71482,-2.2665 0,-1.79328 1.39477,-3.0137 2.56538,-3.71109 0.89664,-0.52304 1.8929,-0.89663 2.91407,-0.89663 z" />
    </g>
  </g>
</svg>
