<?xml version="1.0" encoding="UTF-8" standalone="no"?>
<!-- Created with Inkscape (http://www.inkscape.org/) -->

<svg
   xmlns:dc="http://purl.org/dc/elements/1.1/"
   xmlns:cc="http://creativecommons.org/ns#"
   xmlns:rdf="http://www.w3.org/1999/02/22-rdf-syntax-ns#"
   xmlns:svg="http://www.w3.org/2000/svg"
   xmlns="http://www.w3.org/2000/svg"
   xmlns:sodipodi="http://sodipodi.sourceforge.net/DTD/sodipodi-0.dtd"
   xmlns:inkscape="http://www.inkscape.org/namespaces/inkscape"
   width="56"
   height="56"
   id="svg3240"
   version="1.1"
   inkscape:version="0.48.4 r9939"
   sodipodi:docname="correct.svg"
   inkscape:export-filename="/home/tom/DEVELOP/QT4/nootka/picts/correct.png"
   inkscape:export-xdpi="228.61855"
   inkscape:export-ydpi="228.61855">
  <defs
     id="defs3242">
    <filter
       inkscape:collect="always"
       id="filter3826"
       color-interpolation-filters="sRGB">
      <feGaussianBlur
         inkscape:collect="always"
         stdDeviation="0.4158178"
         id="feGaussianBlur3828" />
    </filter>
    <filter
       inkscape:collect="always"
       id="filter3854"
       x="-0.11342207"
       width="1.2268441"
       y="-0.067063972"
       height="1.1341279"
       color-interpolation-filters="sRGB">
      <feGaussianBlur
         inkscape:collect="always"
         stdDeviation="0.97358481"
         id="feGaussianBlur3856" />
    </filter>
  </defs>
  <sodipodi:namedview
     id="base"
     pagecolor="#ffffff"
     bordercolor="#666666"
     borderopacity="1.0"
     inkscape:pageopacity="0.0"
     inkscape:pageshadow="2"
     inkscape:zoom="5.6"
     inkscape:cx="29.359748"
     inkscape:cy="20.692179"
     inkscape:document-units="px"
     inkscape:current-layer="layer1"
     showgrid="false"
     fit-margin-top="0"
     fit-margin-left="0"
     fit-margin-right="0"
     fit-margin-bottom="0"
     inkscape:window-width="1366"
     inkscape:window-height="744"
     inkscape:window-x="-2"
     inkscape:window-y="-3"
     inkscape:window-maximized="1" />
  <metadata
     id="metadata3245">
    <rdf:RDF>
      <cc:Work
         rdf:about="">
        <dc:format>image/svg+xml</dc:format>
        <dc:type
           rdf:resource="http://purl.org/dc/dcmitype/StillImage" />
        <dc:title></dc:title>
      </cc:Work>
    </rdf:RDF>
  </metadata>
  <g
     inkscape:label="Layer 1"
     inkscape:groupmode="layer"
     id="layer1"
     transform="translate(-420.84184,-389.52795)">
    <rect
       style="fill:#c6e9af;opacity:0.7"
       id="rect2994"
       width="51.964287"
       height="49.82143"
       x="2.3214285"
       y="3.6785715"
       transform="translate(420.84184,389.52795)"
       ry="6.6872373"
       inkscape:export-xdpi="222.19354"
       inkscape:export-ydpi="222.19354" />
    <path
       inkscape:connector-curvature="0"
       style="stroke:currentColor;stroke-width:0.5115962;stroke-linecap:round;stroke-linejoin:round"
       d="m 431.09764,434.64538 36.62924,0"
       id="line8"
       inkscape:export-filename="/home/tom/DEVELOP/QT4/nootka/picts/c1-trecle.png"
       inkscape:export-xdpi="328.67273"
       inkscape:export-ydpi="328.67273" />
    <path
       inkscape:connector-curvature="0"
       style="stroke:currentColor;stroke-width:0.5115962;stroke-linecap:round;stroke-linejoin:round"
       d="m 431.09764,428.41873 36.62924,0"
       id="line10"
       inkscape:export-filename="/home/tom/DEVELOP/QT4/nootka/picts/c1-trecle.png"
       inkscape:export-xdpi="328.67273"
       inkscape:export-ydpi="328.67273" />
    <path
       inkscape:connector-curvature="0"
       style="stroke:currentColor;stroke-width:0.5115962;stroke-linecap:round;stroke-linejoin:round"
       d="m 431.09764,422.19208 36.62924,0"
       id="line12"
       inkscape:export-filename="/home/tom/DEVELOP/QT4/nootka/picts/c1-trecle.png"
       inkscape:export-xdpi="328.67273"
       inkscape:export-ydpi="328.67273" />
    <path
       inkscape:connector-curvature="0"
       style="stroke:currentColor;stroke-width:0.5115962;stroke-linecap:round;stroke-linejoin:round"
       d="m 431.09764,415.96543 36.62924,0"
       id="line14"
       inkscape:export-filename="/home/tom/DEVELOP/QT4/nootka/picts/c1-trecle.png"
       inkscape:export-xdpi="328.67273"
       inkscape:export-ydpi="328.67273" />
    <path
       inkscape:connector-curvature="0"
       style="stroke:currentColor;stroke-width:0.5115962;stroke-linecap:round;stroke-linejoin:round"
       d="m 431.09764,409.73878 36.62924,0"
       id="line16"
       inkscape:export-filename="/home/tom/DEVELOP/QT4/nootka/picts/c1-trecle.png"
       inkscape:export-xdpi="328.67273"
       inkscape:export-ydpi="328.67273" />
    <path
       style="opacity:0.6;fill:#2e902e;fill-opacity:1;stroke:#47af31;stroke-width:0.9254362;stroke-opacity:1;filter:url(#filter3854)"
       d="m 432.94477,441.1553 c -1.99423,-0.006 -3.92131,-1.63851 -3.90489,-3.69693 0.18692,-4.15011 4.98231,-7.1692 8.85059,-5.89582 0.72282,0.0837 1.76585,1.71032 1.47698,0.17682 0.0228,-8.42379 -0.0226,-16.84858 0.0283,-25.27175 1.57263,-0.81211 0.81015,1.99 1.52346,2.78993 1.8781,4.86554 7.081,7.67271 8.45595,12.80074 0.42853,1.82355 0.37666,3.79514 -0.43793,5.50752 -0.66234,1.93685 -1.96995,-0.69393 -1.54702,-1.72596 0.27497,-2.82748 -0.74107,-5.75864 -2.87797,-7.66718 -1.29047,-1.17952 -2.65885,-2.31147 -4.18059,-3.17916 -0.0527,6.81526 0.0176,13.63221 -0.0393,20.44742 -0.45003,3.4394 -4.00453,5.87651 -7.34755,5.71437 z"
       id="path3066-2-5"
       inkscape:connector-curvature="0"
       transform="matrix(1.117791,0,0,1.1087883,-42.366376,-54.734282)" />
    <path
       style="fill:#2e902e;fill-opacity:1;stroke:#47af31;stroke-opacity:1;filter:url(#filter3826)"
       d="m 432.94477,441.1553 c -1.99423,-0.006 -3.92131,-1.63851 -3.90489,-3.69693 0.18692,-4.15011 4.98231,-7.1692 8.85059,-5.89582 0.72282,0.0837 1.76585,1.71032 1.47698,0.17682 0.0228,-8.42379 -0.0226,-16.84858 0.0283,-25.27175 1.57263,-0.81211 0.81015,1.99 1.52346,2.78993 1.8781,4.86554 7.081,7.67271 8.45595,12.80074 0.42853,1.82355 0.37666,3.79514 -0.43793,5.50752 -0.66234,1.93685 -1.96995,-0.69393 -1.54702,-1.72596 0.27497,-2.82748 -0.74107,-5.75864 -2.87797,-7.66718 -1.29047,-1.17952 -2.65885,-2.31147 -4.18059,-3.17916 -0.0527,6.81526 0.0176,13.63221 -0.0393,20.44742 -0.45003,3.4394 -4.00453,5.87651 -7.34755,5.71437 z"
       id="path3066-2"
       inkscape:connector-curvature="0"
       transform="matrix(1.0168799,0,0,1.0438368,2.5852589,-27.004112)" />
    <path
       style="fill:#000000;stroke:none"
       d="m 442.8382,433.19843 c -1.99423,-0.006 -3.92131,-1.63851 -3.90489,-3.69693 0.18692,-4.15011 4.98231,-7.1692 8.85059,-5.89582 0.72282,0.0837 1.76585,1.71032 1.47698,0.17682 0.0228,-8.42379 -0.0226,-16.84858 0.0283,-25.27175 1.57263,-0.81211 0.81015,1.99 1.52346,2.78993 1.8781,4.86554 7.081,7.67271 8.45595,12.80074 0.42853,1.82355 0.37666,3.79514 -0.43793,5.50752 -0.66234,1.93685 -1.96995,-0.69393 -1.54702,-1.72596 0.27497,-2.82748 -0.74107,-5.75864 -2.87797,-7.66718 -1.29047,-1.17952 -2.65885,-2.31147 -4.18059,-3.17916 -0.0527,6.81526 0.0176,13.63221 -0.0393,20.44742 -0.45003,3.4394 -4.00453,5.87651 -7.34755,5.71437 z"
       id="path3066"
       inkscape:connector-curvature="0" />
  </g>
</svg>
