<?xml version="1.0" encoding="UTF-8" standalone="no"?>
<!-- Created with Inkscape (http://www.inkscape.org/) -->

<svg
   xmlns:dc="http://purl.org/dc/elements/1.1/"
   xmlns:cc="http://creativecommons.org/ns#"
   xmlns:rdf="http://www.w3.org/1999/02/22-rdf-syntax-ns#"
   xmlns:svg="http://www.w3.org/2000/svg"
   xmlns="http://www.w3.org/2000/svg"
   xmlns:xlink="http://www.w3.org/1999/xlink"
   xmlns:sodipodi="http://sodipodi.sourceforge.net/DTD/sodipodi-0.dtd"
   xmlns:inkscape="http://www.inkscape.org/namespaces/inkscape"
   width="195.06377"
   height="215.66063"
   id="svg2"
   version="1.1"
   inkscape:version="0.48.1 r9760"
   sodipodi:docname="levels-1.svg"
   inkscape:export-filename="/home/tom/DEVELOP/QT4/nootka/picts/levelCreator.png"
   inkscape:export-xdpi="300"
   inkscape:export-ydpi="300">
  <defs
     id="defs4">
    <linearGradient
       id="linearGradient3785">
      <stop
         id="stop3787"
         offset="0"
         style="stop-color:#0096c8;stop-opacity:0.40000001;" />
      <stop
         style="stop-color:#002e3d;stop-opacity:0.40000001;"
         offset="0.16897547"
         id="stop3797" />
      <stop
         style="stop-color:#0095c7;stop-opacity:0.40000001;"
         offset="0.50896662"
         id="stop3795" />
      <stop
         style="stop-color:#002e3d;stop-opacity:0.40000001;"
         offset="0.84936064"
         id="stop3793" />
      <stop
         id="stop3789"
         offset="1"
         style="stop-color:#0095c7;stop-opacity:0.40000001;" />
    </linearGradient>
    <linearGradient
       id="linearGradient3799">
      <stop
         id="stop3801"
         offset="0"
         style="stop-color:#3a7d74;stop-opacity:0.5;" />
      <stop
         style="stop-color:#00101f;stop-opacity:0.5;"
         offset="0.29954749"
         id="stop3809" />
      <stop
         style="stop-color:#d8d9d8;stop-opacity:0.5;"
         offset="0.61358374"
         id="stop3807" />
      <stop
         id="stop3803"
         offset="1"
         style="stop-color:#77b5b4;stop-opacity:0.5;" />
    </linearGradient>
    <linearGradient
       id="linearGradient3819">
      <stop
         id="stop3821"
         offset="0"
         style="stop-color:#067f94;stop-opacity:0.1;" />
      <stop
         style="stop-color:#068096;stop-opacity:0.2;"
         offset="0.73704278"
         id="stop3827" />
      <stop
         id="stop3823"
         offset="1"
         style="stop-color:#045766;stop-opacity:0.30000001;" />
    </linearGradient>
    <linearGradient
       id="linearGradient3829">
      <stop
         id="stop3831"
         offset="0"
         style="stop-color:#f2f4f3;stop-opacity:0.5;" />
      <stop
         style="stop-color:#f3f5f4;stop-opacity:0.5;"
         offset="0.7530852"
         id="stop3837" />
      <stop
         id="stop3833"
         offset="1"
         style="stop-color:#bdc7c2;stop-opacity:0.5;" />
    </linearGradient>
    <linearGradient
       id="linearGradient3839">
      <stop
         id="stop3841"
         offset="0"
         style="stop-color:#b3cbcb;stop-opacity:0.30000001;" />
      <stop
         id="stop3843"
         offset="1"
         style="stop-color:#eff0f2;stop-opacity:0.02;" />
    </linearGradient>
    <linearGradient
       id="linearGradient3849">
      <stop
         id="stop3851"
         offset="0"
         style="stop-color:#ffffff;stop-opacity:0.5;" />
      <stop
         id="stop3853"
         offset="1"
         style="stop-color:#edf1f2;stop-opacity:0.5;" />
    </linearGradient>
    <linearGradient
       id="linearGradient3857">
      <stop
         id="stop3859"
         offset="0"
         style="stop-color:#8aa9b7;stop-opacity:0.5;" />
      <stop
         id="stop3861"
         offset="1"
         style="stop-color:#ffffff;stop-opacity:0.5;" />
    </linearGradient>
    <linearGradient
       id="linearGradient3869">
      <stop
         id="stop3871"
         offset="0"
         style="stop-color:#ffffff;stop-opacity:0.5;" />
      <stop
         style="stop-color:#cccccc;stop-opacity:0.49803922;"
         offset="0.5"
         id="stop3877" />
      <stop
         id="stop3873"
         offset="1"
         style="stop-color:#ffffff;stop-opacity:0.5;" />
    </linearGradient>
    <linearGradient
       gradientTransform="matrix(1,0,0,0.37982557,0,522.56803)"
       gradientUnits="userSpaceOnUse"
       xlink:href="#linearGradient4238"
       id="linearGradient5099"
       y2="756.56433"
       x2="337.0303"
       y1="934.04303"
       x1="326.27402" />
    <linearGradient
       gradientTransform="matrix(1,0,0,0.63353328,0,308.79021)"
       gradientUnits="userSpaceOnUse"
       xlink:href="#linearGradient4238"
       id="linearGradient5097"
       y2="756.56433"
       x2="337.0303"
       y1="934.04303"
       x1="326.27402" />
    <linearGradient
       gradientUnits="userSpaceOnUse"
       xlink:href="#linearGradient4238"
       id="linearGradient5095"
       y2="756.56433"
       x2="337.0303"
       y1="934.04303"
       x1="326.27402" />
    <linearGradient
       gradientTransform="matrix(1,0,0,0.91914927,0,68.126003)"
       gradientUnits="userSpaceOnUse"
       xlink:href="#linearGradient3957"
       id="linearGradient5093"
       y2="905.35962"
       x2="358.54288"
       y1="738.63721"
       x1="360.3356" />
    <linearGradient
       gradientTransform="matrix(0.56140352,0,0,0.28,0,564.08762)"
       gradientUnits="userSpaceOnUse"
       xlink:href="#linearGradient4258"
       id="linearGradient5091"
       y2="747.60071"
       x2="78.879433"
       y1="607.76904"
       x1="182.85687" />
    <linearGradient
       gradientUnits="userSpaceOnUse"
       xlink:href="#linearGradient3957"
       id="linearGradient5089"
       y2="905.35962"
       x2="358.54288"
       y1="738.63721"
       x1="360.3356" />
    <linearGradient
       gradientTransform="matrix(0.74561405,0,0,0.54666666,0,355.16628)"
       gradientUnits="userSpaceOnUse"
       xlink:href="#linearGradient4258"
       id="linearGradient5087"
       y2="747.60071"
       x2="78.879433"
       y1="607.76904"
       x1="182.85687" />
    <linearGradient
       gradientTransform="matrix(0.86842107,0,0,0.73333333,0,208.92134)"
       gradientUnits="userSpaceOnUse"
       xlink:href="#linearGradient4258"
       id="linearGradient5085"
       y2="747.60071"
       x2="78.879433"
       y1="607.76904"
       x1="182.85687" />
    <linearGradient
       gradientTransform="matrix(0.98245616,0,0,0.97333333,0,20.892134)"
       gradientUnits="userSpaceOnUse"
       xlink:href="#linearGradient4258"
       id="linearGradient5083"
       y2="747.60071"
       x2="78.879433"
       y1="607.76904"
       x1="182.85687" />
    <linearGradient
       gradientTransform="matrix(1.0526316,0,0,1.12,0,-94.014602)"
       gradientUnits="userSpaceOnUse"
       xlink:href="#linearGradient4258"
       id="linearGradient5081"
       y2="747.60071"
       x2="78.879433"
       y1="607.76904"
       x1="182.85687" />
    <linearGradient
       gradientUnits="userSpaceOnUse"
       xlink:href="#linearGradient3967"
       id="linearGradient5079"
       y2="761.94244"
       x2="21.512573"
       y1="706.36829"
       x1="84.257584" />
    <linearGradient
       gradientUnits="userSpaceOnUse"
       xlink:href="#linearGradient3947"
       id="linearGradient5077"
       y2="661.55042"
       x2="127.28272"
       y1="846.20001"
       x1="-17.927141" />
    <linearGradient
       gradientUnits="userSpaceOnUse"
       xlink:href="#linearGradient4222"
       id="linearGradient5075"
       y2="742.2226"
       x2="360.3356"
       y1="-241.97762"
       x1="383.64087" />
    <clipPath
       id="clipPath4991">
      <rect
         style="opacity:0.53539824;fill:#000000;fill-opacity:1;fill-rule:nonzero;stroke:none"
         id="rect4993"
         y="-1.7538811"
         x="0"
         height="840.78308"
         width="749.35461" />
    </clipPath>
    <clipPath
       id="clipPath4987">
      <rect
         style="opacity:0.53539824;fill:#000000;fill-opacity:1;fill-rule:nonzero;stroke:none"
         id="rect4989"
         y="28.901384"
         x="-660.54047"
         height="1553.6224"
         width="1028.3914" />
    </clipPath>
    <clipPath
       id="clipPath4983">
      <rect
         style="opacity:0.53539824;fill:#000000;fill-opacity:1;fill-rule:nonzero;stroke:none"
         id="rect4985"
         y="9.194952"
         x="-658.0802"
         height="1569.0544"
         width="1028.3914" />
    </clipPath>
    <clipPath
       id="clipPath4979">
      <rect
         style="opacity:0.53539824;fill:#000000;fill-opacity:1;fill-rule:nonzero;stroke:none"
         id="rect4981"
         y="5.9107184"
         x="0"
         height="817.74164"
         width="749.35461" />
    </clipPath>
    <clipPath
       id="clipPath4975">
      <rect
         style="opacity:0.53539824;fill:#000000;fill-opacity:1;fill-rule:nonzero;stroke:none"
         id="rect4977"
         y="-233.52563"
         x="523.0874"
         height="863.82745"
         width="769.89307" />
    </clipPath>
    <clipPath
       id="clipPath4971">
      <rect
         style="opacity:0.53539824;fill:#000000;fill-opacity:1;fill-rule:nonzero;stroke:none"
         id="rect4973"
         y="62.78397"
         x="-536.02161"
         height="1681.5658"
         width="1498.7089" />
    </clipPath>
    <clipPath
       id="clipPath4967">
      <rect
         style="opacity:0.53539824;fill:#000000;fill-opacity:1;fill-rule:nonzero;stroke:none"
         id="rect4969"
         y="-6.0978136"
         x="11.545925"
         height="897.95465"
         width="718.01794" />
    </clipPath>
    <clipPath
       id="clipPath4963">
      <rect
         style="opacity:0.53539824;fill:#000000;fill-opacity:1;fill-rule:nonzero;stroke:none"
         id="rect4965"
         transform="scale(-1,1)"
         y="536.06049"
         x="-487.61816"
         height="1681.5658"
         width="1498.7089" />
    </clipPath>
    <clipPath
       id="clipPath4959">
      <rect
         style="opacity:0.53539824;fill:#000000;fill-opacity:1;fill-rule:nonzero;stroke:none"
         id="rect4961"
         y="14.245301"
         x="23.959158"
         height="799.25922"
         width="735.71973" />
    </clipPath>
    <clipPath
       id="clipPath4955">
      <rect
         style="opacity:0.53539824;fill:#000000;fill-opacity:1;fill-rule:nonzero;stroke:none"
         id="rect4957"
         y="70.876747"
         x="-1193.0258"
         height="1225.141"
         width="1091.9166" />
    </clipPath>
    <clipPath
       id="clipPath4951">
      <rect
         style="opacity:0.53539824;fill:#000000;fill-opacity:1;fill-rule:nonzero;stroke:none"
         id="rect4953"
         y="6.3082356"
         x="-0.040341634"
         height="776.74615"
         width="745.08972" />
    </clipPath>
    <clipPath
       id="clipPath4947">
      <rect
         style="opacity:0.53539824;fill:#000000;fill-opacity:1;fill-rule:nonzero;stroke:none"
         id="rect4949"
         transform="scale(-1,1)"
         y="480.81458"
         x="104.98743"
         height="1207.8854"
         width="1076.5375" />
    </clipPath>
    <clipPath
       id="clipPath4943">
      <rect
         style="opacity:0.53539824;fill:#000000;fill-opacity:1;fill-rule:nonzero;stroke:none"
         id="rect4945"
         y="-21.712942"
         x="0.002153612"
         height="863.82745"
         width="769.89307" />
    </clipPath>
    <clipPath
       id="clipPath4939">
      <rect
         style="opacity:0.53539824;fill:#000000;fill-opacity:1;fill-rule:nonzero;stroke:none"
         id="rect4941"
         y="-1.7538811"
         x="0"
         height="840.78308"
         width="749.35461" />
    </clipPath>
    <clipPath
       id="clipPath4935">
      <rect
         style="opacity:0.53539824;fill:#000000;fill-opacity:1;fill-rule:nonzero;stroke:none"
         id="rect4937"
         y="-1.7538811"
         x="0"
         height="840.78308"
         width="749.35461" />
    </clipPath>
    <clipPath
       id="clipPath4931">
      <rect
         style="opacity:0.53539824;fill:#000000;fill-opacity:1;fill-rule:nonzero;stroke:none"
         id="rect4933"
         y="-1.7538811"
         x="0"
         height="840.78308"
         width="749.35461" />
    </clipPath>
    <clipPath
       id="clipPath4927">
      <rect
         style="opacity:0.53539824;fill:#000000;fill-opacity:1;fill-rule:nonzero;stroke:none"
         id="rect4929"
         y="-48.242527"
         x="-7.9057183"
         height="941.16602"
         width="770.26971" />
    </clipPath>
    <clipPath
       id="clipPath4923">
      <rect
         style="opacity:0.53539824;fill:#000000;fill-opacity:1;fill-rule:nonzero;stroke:none"
         id="rect4925"
         y="379.83817"
         x="-722.46387"
         height="1161.0814"
         width="749.35461" />
    </clipPath>
    <clipPath
       id="clipPath4919">
      <rect
         style="opacity:0.53539824;fill:#000000;fill-opacity:1;fill-rule:nonzero;stroke:none"
         id="rect4921"
         y="-1.7538811"
         x="0"
         height="840.78308"
         width="749.35461" />
    </clipPath>
    <clipPath
       id="clipPath4915">
      <rect
         style="opacity:0.53539824;fill:#000000;fill-opacity:1;fill-rule:nonzero;stroke:none"
         id="rect4917"
         y="-1.7538811"
         x="0"
         height="840.78308"
         width="749.35461" />
    </clipPath>
    <clipPath
       id="clipPath4911">
      <rect
         style="opacity:0.53539824;fill:#000000;fill-opacity:1;fill-rule:nonzero;stroke:none"
         id="rect4913"
         y="-1.7538811"
         x="0"
         height="840.78308"
         width="749.35461" />
    </clipPath>
    <clipPath
       id="clipPath4907">
      <rect
         style="opacity:0.53539824;fill:#000000;fill-opacity:1;fill-rule:nonzero;stroke:none"
         id="rect4909"
         y="-1.7538811"
         x="0"
         height="840.78308"
         width="749.35461" />
    </clipPath>
    <clipPath
       id="clipPath4903">
      <rect
         style="opacity:0.53539824;fill:#000000;fill-opacity:1;fill-rule:nonzero;stroke:none"
         id="rect4905"
         y="-1.7538811"
         x="0"
         height="840.78308"
         width="749.35461" />
    </clipPath>
    <clipPath
       id="clipPath4899">
      <rect
         style="opacity:0.53539824;fill:#000000;fill-opacity:1;fill-rule:nonzero;stroke:none"
         id="rect4901"
         y="-1.7538811"
         x="0"
         height="840.78308"
         width="749.35461" />
    </clipPath>
    <clipPath
       id="clipPath4895">
      <rect
         style="opacity:0.53539824;fill:#000000;fill-opacity:1;fill-rule:nonzero;stroke:none"
         id="rect4897"
         y="-1.7538811"
         x="0"
         height="840.78308"
         width="749.35461" />
    </clipPath>
    <clipPath
       id="clipPath4891">
      <rect
         style="opacity:0.53539824;fill:#000000;fill-opacity:1;fill-rule:nonzero;stroke:none"
         id="rect4893"
         y="-1.7538811"
         x="0"
         height="840.78308"
         width="749.35461" />
    </clipPath>
    <clipPath
       id="clipPath4887">
      <rect
         style="opacity:0.53539824;fill:#000000;fill-opacity:1;fill-rule:nonzero;stroke:none"
         id="rect4889"
         y="-1.7538811"
         x="0"
         height="840.78308"
         width="749.35461" />
    </clipPath>
    <clipPath
       id="clipPath4883">
      <rect
         style="opacity:0.53539824;fill:#000000;fill-opacity:1;fill-rule:nonzero;stroke:none"
         id="rect4885"
         y="-1.7538811"
         x="0"
         height="840.78308"
         width="749.35461" />
    </clipPath>
    <clipPath
       id="clipPath4879">
      <rect
         style="opacity:0.53539824;fill:#000000;fill-opacity:1;fill-rule:nonzero;stroke:none"
         id="rect4881"
         y="-1.7538811"
         x="0"
         height="840.78308"
         width="749.35461" />
    </clipPath>
    <clipPath
       id="clipPath4875">
      <rect
         style="opacity:0.53539824;fill:#000000;fill-opacity:1;fill-rule:nonzero;stroke:none"
         id="rect4877"
         y="31.766142"
         x="-220.61592"
         height="1094.7697"
         width="975.72217" />
    </clipPath>
    <clipPath
       id="clipPath4871">
      <rect
         style="opacity:0.53539824;fill:#000000;fill-opacity:1;fill-rule:nonzero;stroke:none"
         id="rect4873"
         y="32.053207"
         x="-105.67568"
         height="960.13525"
         width="862.8028" />
    </clipPath>
    <clipPath
       id="clipPath4867">
      <rect
         style="opacity:0.53539824;fill:#000000;fill-opacity:1;fill-rule:nonzero;stroke:none"
         id="rect4869"
         y="28.216951"
         x="-475.04739"
         height="1379.6698"
         width="1229.6417" />
    </clipPath>
    <filter
       id="filter4861"
       color-interpolation-filters="sRGB">
      <feGaussianBlur
         stdDeviation="9.0733831"
         id="feGaussianBlur4863" />
    </filter>
    <filter
       id="filter4839"
       color-interpolation-filters="sRGB">
      <feGaussianBlur
         stdDeviation="3.5491986"
         id="feGaussianBlur4841" />
    </filter>
    <filter
       id="filter4798"
       color-interpolation-filters="sRGB"
       height="1.3917646"
       width="1.172987"
       y="-0.19588231"
       x="-0.086493514">
      <feGaussianBlur
         stdDeviation="7.4621759"
         id="feGaussianBlur4800" />
    </filter>
    <filter
       id="filter4743"
       color-interpolation-filters="sRGB"
       height="1.2628572"
       width="1.0777465"
       y="-0.13142858"
       x="-0.03887324">
      <feGaussianBlur
         stdDeviation="4.1232425"
         id="feGaussianBlur4745" />
    </filter>
    <filter
       id="filter4680"
       color-interpolation-filters="sRGB"
       height="1.4309411"
       width="1.1902857"
       y="-0.21547052"
       x="-0.095142871">
      <feGaussianBlur
         stdDeviation="8.2083927"
         id="feGaussianBlur4682" />
    </filter>
    <filter
       id="filter4605"
       color-interpolation-filters="sRGB">
      <feGaussianBlur
         stdDeviation="5.1942592"
         id="feGaussianBlur4607" />
    </filter>
    <filter
       id="filter4570"
       color-interpolation-filters="sRGB">
      <feGaussianBlur
         stdDeviation="5.1238547"
         id="feGaussianBlur4572" />
    </filter>
    <filter
       id="filter4528"
       color-interpolation-filters="sRGB"
       height="1.3809589"
       width="1.3412271"
       y="-0.19047946"
       x="-0.1706135">
      <feGaussianBlur
         stdDeviation="20.773077"
         id="feGaussianBlur4530" />
    </filter>
    <filter
       id="filter4466"
       color-interpolation-filters="sRGB">
      <feGaussianBlur
         stdDeviation="5.5394873"
         id="feGaussianBlur4468" />
    </filter>
    <filter
       id="filter4450"
       color-interpolation-filters="sRGB">
      <feGaussianBlur
         stdDeviation="6.9243591"
         id="feGaussianBlur4452" />
    </filter>
    <clipPath
       id="clipPath4300">
      <rect
         style="fill:#ffcc00;fill-opacity:1;fill-rule:nonzero;stroke:none"
         id="rect4302"
         y="34.100407"
         x="498.3746"
         height="267.11444"
         width="256.35815" />
    </clipPath>
    <linearGradient
       gradientTransform="matrix(0.56140352,0,0,0.28,0,564.08762)"
       gradientUnits="userSpaceOnUse"
       xlink:href="#linearGradient4258"
       id="linearGradient4280"
       y2="747.60071"
       x2="78.879433"
       y1="607.76904"
       x1="182.85687" />
    <linearGradient
       gradientTransform="matrix(0.74561405,0,0,0.54666666,0,355.16628)"
       gradientUnits="userSpaceOnUse"
       xlink:href="#linearGradient4258"
       id="linearGradient4276"
       y2="747.60071"
       x2="78.879433"
       y1="607.76904"
       x1="182.85687" />
    <linearGradient
       gradientTransform="matrix(0.86842107,0,0,0.73333333,0,208.92134)"
       gradientUnits="userSpaceOnUse"
       xlink:href="#linearGradient4258"
       id="linearGradient4272"
       y2="747.60071"
       x2="78.879433"
       y1="607.76904"
       x1="182.85687" />
    <linearGradient
       gradientTransform="matrix(0.98245616,0,0,0.97333333,0,20.892134)"
       gradientUnits="userSpaceOnUse"
       xlink:href="#linearGradient4258"
       id="linearGradient4268"
       y2="747.60071"
       x2="78.879433"
       y1="607.76904"
       x1="182.85687" />
    <linearGradient
       gradientTransform="matrix(1.0526316,0,0,1.12,0,-94.014602)"
       gradientUnits="userSpaceOnUse"
       xlink:href="#linearGradient4258"
       id="linearGradient4264"
       y2="747.60071"
       x2="78.879433"
       y1="607.76904"
       x1="182.85687" />
    <linearGradient
       gradientTransform="matrix(1,0,0,0.37982557,0,522.56803)"
       gradientUnits="userSpaceOnUse"
       xlink:href="#linearGradient4238"
       id="linearGradient4252"
       y2="756.56433"
       x2="337.0303"
       y1="934.04303"
       x1="326.27402" />
    <linearGradient
       gradientTransform="matrix(1,0,0,0.63353328,0,308.79021)"
       gradientUnits="userSpaceOnUse"
       xlink:href="#linearGradient4238"
       id="linearGradient4248"
       y2="756.56433"
       x2="337.0303"
       y1="934.04303"
       x1="326.27402" />
    <linearGradient
       gradientUnits="userSpaceOnUse"
       xlink:href="#linearGradient4238"
       id="linearGradient4244"
       y2="756.56433"
       x2="337.0303"
       y1="934.04303"
       x1="326.27402" />
    <linearGradient
       gradientTransform="matrix(1,0,0,0.91914927,0,68.126003)"
       gradientUnits="userSpaceOnUse"
       xlink:href="#linearGradient3957"
       id="linearGradient4232"
       y2="905.35962"
       x2="358.54288"
       y1="738.63721"
       x1="360.3356" />
    <linearGradient
       gradientUnits="userSpaceOnUse"
       xlink:href="#linearGradient4222"
       id="linearGradient4228"
       y2="742.2226"
       x2="360.3356"
       y1="-241.97762"
       x1="383.64087" />
    <linearGradient
       gradientUnits="userSpaceOnUse"
       xlink:href="#linearGradient4199"
       id="linearGradient4218"
       y2="801.63824"
       x2="-317.31042"
       y1="733.34442"
       x1="-313.72501" />
    <linearGradient
       gradientUnits="userSpaceOnUse"
       xlink:href="#linearGradient4115"
       id="linearGradient4158"
       y2="740.42987"
       x2="-279.66345"
       y1="591.63458"
       x1="-338.82303" />
    <linearGradient
       gradientUnits="userSpaceOnUse"
       xlink:href="#linearGradient4115"
       id="linearGradient4148"
       y2="751.18616"
       x2="-326.27402"
       y1="631.07428"
       x1="-342.40845" />
    <linearGradient
       gradientUnits="userSpaceOnUse"
       xlink:href="#linearGradient4115"
       id="linearGradient4138"
       y2="727.14862"
       x2="-345.76663"
       y1="638.49762"
       x1="-341.39847" />
    <linearGradient
       gradientUnits="userSpaceOnUse"
       xlink:href="#linearGradient4115"
       id="linearGradient4128"
       y2="752.55585"
       x2="-342.67029"
       y1="641.70972"
       x1="-342.93216" />
    <clipPath
       id="clipPath4061">
      <rect
         style="fill:#000080;fill-opacity:1;fill-rule:nonzero;stroke:none"
         id="rect4063"
         y="430.29031"
         x="-910.69891"
         height="595.18115"
         width="1115.0684" />
    </clipPath>
    <clipPath
       id="clipPath4057">
      <rect
         style="fill:#000080;fill-opacity:1;fill-rule:nonzero;stroke:none"
         id="rect4059"
         y="487.02487"
         x="-851.87024"
         height="531.44006"
         width="995.64984" />
    </clipPath>
    <clipPath
       id="clipPath4053">
      <rect
         style="fill:#000080;fill-opacity:1;fill-rule:nonzero;stroke:none"
         id="rect4055"
         y="519.8667"
         x="-807.57861"
         height="503.99509"
         width="897.69043" />
    </clipPath>
    <clipPath
       id="clipPath4049">
      <rect
         style="fill:#000080;fill-opacity:1;fill-rule:nonzero;stroke:none"
         id="rect4051"
         y="563.84991"
         x="-768.35577"
         height="456.90353"
         width="821.08917" />
    </clipPath>
    <clipPath
       id="clipPath4045">
      <rect
         style="fill:#000080;fill-opacity:1;fill-rule:nonzero;stroke:none"
         id="rect4047"
         y="600.82904"
         x="-741.97156"
         height="419.79922"
         width="764.48218" />
    </clipPath>
    <clipPath
       id="clipPath4041">
      <rect
         style="fill:#000080;fill-opacity:1;fill-rule:nonzero;stroke:none"
         id="rect4043"
         y="991.40991"
         x="-602.35205"
         height="595.18115"
         width="1115.0684" />
    </clipPath>
    <clipPath
       id="clipPath4014">
      <rect
         style="fill:#808000;fill-opacity:1;fill-rule:nonzero;stroke:none"
         id="rect4016"
         y="642.85223"
         x="-715.29303"
         ry="0"
         height="391.92975"
         width="704.53674" />
    </clipPath>
    <clipPath
       id="clipPath4010">
      <rect
         style="fill:#808000;fill-opacity:1;fill-rule:nonzero;stroke:none"
         id="rect4012"
         y="605.69714"
         x="-764.35065"
         ry="0"
         height="418.52499"
         width="806.14777" />
    </clipPath>
    <clipPath
       id="clipPath4002">
      <rect
         style="fill:#808000;fill-opacity:1;fill-rule:nonzero;stroke:none"
         id="rect4004"
         y="648.61591"
         x="-709.91492"
         ry="428.45874"
         rx="0"
         height="348.70221"
         width="686.60962" />
    </clipPath>
    <linearGradient
       gradientUnits="userSpaceOnUse"
       xlink:href="#linearGradient3967"
       id="linearGradient3973"
       y2="761.94244"
       x2="21.512573"
       y1="706.36829"
       x1="84.257584" />
    <linearGradient
       gradientUnits="userSpaceOnUse"
       xlink:href="#linearGradient3957"
       id="linearGradient3963"
       y2="905.35962"
       x2="358.54288"
       y1="738.63721"
       x1="360.3356" />
    <linearGradient
       gradientUnits="userSpaceOnUse"
       xlink:href="#linearGradient3947"
       id="linearGradient3953"
       y2="661.55042"
       x2="127.28272"
       y1="846.20001"
       x1="-17.927141" />
    <linearGradient
       id="linearGradient3947">
      <stop
         offset="0"
         style="stop-color:#aa8800;stop-opacity:1"
         id="stop3949" />
      <stop
         offset="1"
         style="stop-color:#aa8800;stop-opacity:0"
         id="stop3951" />
    </linearGradient>
    <linearGradient
       id="linearGradient3957">
      <stop
         offset="0"
         style="stop-color:#00ffff;stop-opacity:1"
         id="stop3959" />
      <stop
         offset="1"
         style="stop-color:#00ffff;stop-opacity:0"
         id="stop3961" />
    </linearGradient>
    <linearGradient
       id="linearGradient3967">
      <stop
         offset="0"
         style="stop-color:#ffdd55;stop-opacity:1"
         id="stop3969" />
      <stop
         offset="1"
         style="stop-color:#ffdd55;stop-opacity:0"
         id="stop3971" />
    </linearGradient>
    <linearGradient
       id="linearGradient4115">
      <stop
         offset="0"
         style="stop-color:#b3b3b3;stop-opacity:1"
         id="stop4117" />
      <stop
         offset="1"
         style="stop-color:#b3b3b3;stop-opacity:0"
         id="stop4119" />
    </linearGradient>
    <linearGradient
       id="linearGradient4199">
      <stop
         offset="0"
         style="stop-color:#999999;stop-opacity:1"
         id="stop4201" />
      <stop
         offset="1"
         style="stop-color:#999999;stop-opacity:0"
         id="stop4203" />
    </linearGradient>
    <linearGradient
       id="linearGradient4222">
      <stop
         offset="0"
         style="stop-color:#0000ff;stop-opacity:1"
         id="stop4224" />
      <stop
         offset="1"
         style="stop-color:#0000ff;stop-opacity:0"
         id="stop4226" />
    </linearGradient>
    <linearGradient
       id="linearGradient4238">
      <stop
         offset="0"
         style="stop-color:#000080;stop-opacity:1"
         id="stop4240" />
      <stop
         offset="1"
         style="stop-color:#000080;stop-opacity:0"
         id="stop4242" />
    </linearGradient>
    <linearGradient
       id="linearGradient4258">
      <stop
         offset="0"
         style="stop-color:#808000;stop-opacity:1"
         id="stop4260" />
      <stop
         offset="1"
         style="stop-color:#808000;stop-opacity:0"
         id="stop4262" />
    </linearGradient>
    <linearGradient
       inkscape:collect="always"
       xlink:href="#linearGradient4222"
       id="linearGradient4423"
       gradientUnits="userSpaceOnUse"
       x1="383.64087"
       y1="-241.97762"
       x2="360.3356"
       y2="742.2226" />
    <linearGradient
       inkscape:collect="always"
       xlink:href="#linearGradient4115"
       id="linearGradient4425"
       gradientUnits="userSpaceOnUse"
       x1="-338.82303"
       y1="591.63458"
       x2="-279.66345"
       y2="740.42987" />
    <linearGradient
       inkscape:collect="always"
       xlink:href="#linearGradient4115"
       id="linearGradient4427"
       gradientUnits="userSpaceOnUse"
       x1="-342.40845"
       y1="631.07428"
       x2="-326.27402"
       y2="751.18616" />
    <linearGradient
       inkscape:collect="always"
       xlink:href="#linearGradient4115"
       id="linearGradient4429"
       gradientUnits="userSpaceOnUse"
       x1="-342.93216"
       y1="641.70972"
       x2="-342.67029"
       y2="752.55585" />
    <linearGradient
       inkscape:collect="always"
       xlink:href="#linearGradient4115"
       id="linearGradient4431"
       gradientUnits="userSpaceOnUse"
       x1="-341.39847"
       y1="638.49762"
       x2="-345.76663"
       y2="727.14862" />
    <linearGradient
       inkscape:collect="always"
       xlink:href="#linearGradient3947"
       id="linearGradient4433"
       gradientUnits="userSpaceOnUse"
       x1="-17.927141"
       y1="846.20001"
       x2="127.28272"
       y2="661.55042" />
    <linearGradient
       inkscape:collect="always"
       xlink:href="#linearGradient3967"
       id="linearGradient4435"
       gradientUnits="userSpaceOnUse"
       x1="84.257584"
       y1="706.36829"
       x2="21.512573"
       y2="761.94244" />
    <linearGradient
       inkscape:collect="always"
       xlink:href="#linearGradient4199"
       id="linearGradient4437"
       gradientUnits="userSpaceOnUse"
       x1="-313.72501"
       y1="733.34442"
       x2="-317.31042"
       y2="801.63824" />
    <linearGradient
       inkscape:collect="always"
       xlink:href="#linearGradient4258"
       id="linearGradient4439"
       gradientUnits="userSpaceOnUse"
       gradientTransform="matrix(1.0526316,0,0,1.12,0,-94.014602)"
       x1="182.85687"
       y1="607.76904"
       x2="78.879433"
       y2="747.60071" />
    <linearGradient
       inkscape:collect="always"
       xlink:href="#linearGradient4258"
       id="linearGradient4441"
       gradientUnits="userSpaceOnUse"
       gradientTransform="matrix(0.98245616,0,0,0.97333333,0,20.892134)"
       x1="182.85687"
       y1="607.76904"
       x2="78.879433"
       y2="747.60071" />
    <linearGradient
       inkscape:collect="always"
       xlink:href="#linearGradient4258"
       id="linearGradient4443"
       gradientUnits="userSpaceOnUse"
       gradientTransform="matrix(0.86842107,0,0,0.73333333,0,208.92134)"
       x1="182.85687"
       y1="607.76904"
       x2="78.879433"
       y2="747.60071" />
    <linearGradient
       inkscape:collect="always"
       xlink:href="#linearGradient4258"
       id="linearGradient4445"
       gradientUnits="userSpaceOnUse"
       gradientTransform="matrix(0.74561405,0,0,0.54666666,0,355.16628)"
       x1="182.85687"
       y1="607.76904"
       x2="78.879433"
       y2="747.60071" />
    <linearGradient
       inkscape:collect="always"
       xlink:href="#linearGradient3957"
       id="linearGradient4447"
       gradientUnits="userSpaceOnUse"
       x1="360.3356"
       y1="738.63721"
       x2="358.54288"
       y2="905.35962" />
    <linearGradient
       inkscape:collect="always"
       xlink:href="#linearGradient4258"
       id="linearGradient4449"
       gradientUnits="userSpaceOnUse"
       gradientTransform="matrix(0.56140352,0,0,0.28,0,564.08762)"
       x1="182.85687"
       y1="607.76904"
       x2="78.879433"
       y2="747.60071" />
    <linearGradient
       inkscape:collect="always"
       xlink:href="#linearGradient3957"
       id="linearGradient4451"
       gradientUnits="userSpaceOnUse"
       gradientTransform="matrix(1,0,0,0.91914927,0,68.126003)"
       x1="360.3356"
       y1="738.63721"
       x2="358.54288"
       y2="905.35962" />
    <linearGradient
       inkscape:collect="always"
       xlink:href="#linearGradient4238"
       id="linearGradient4453"
       gradientUnits="userSpaceOnUse"
       x1="326.27402"
       y1="934.04303"
       x2="337.0303"
       y2="756.56433" />
    <linearGradient
       inkscape:collect="always"
       xlink:href="#linearGradient4238"
       id="linearGradient4455"
       gradientUnits="userSpaceOnUse"
       gradientTransform="matrix(1,0,0,0.63353328,0,308.79021)"
       x1="326.27402"
       y1="934.04303"
       x2="337.0303"
       y2="756.56433" />
    <linearGradient
       inkscape:collect="always"
       xlink:href="#linearGradient4238"
       id="linearGradient4457"
       gradientUnits="userSpaceOnUse"
       gradientTransform="matrix(1,0,0,0.37982557,0,522.56803)"
       x1="326.27402"
       y1="934.04303"
       x2="337.0303"
       y2="756.56433" />
    <linearGradient
       inkscape:collect="always"
       xlink:href="#linearGradient3957"
       id="linearGradient5268"
       gradientUnits="userSpaceOnUse"
       x1="360.3356"
       y1="738.63721"
       x2="358.54288"
       y2="905.35962"
       gradientTransform="scale(2.7213286,1)" />
    <linearGradient
       inkscape:collect="always"
       xlink:href="#linearGradient3957"
       id="linearGradient5270"
       gradientUnits="userSpaceOnUse"
       gradientTransform="matrix(2.7213286,0,0,0.91914927,0,68.126003)"
       x1="360.3356"
       y1="738.63721"
       x2="358.54288"
       y2="905.35962" />
    <linearGradient
       inkscape:collect="always"
       xlink:href="#linearGradient4238"
       id="linearGradient5272"
       gradientUnits="userSpaceOnUse"
       x1="326.27402"
       y1="934.04303"
       x2="337.0303"
       y2="756.56433"
       gradientTransform="scale(2.7213286,1)" />
    <linearGradient
       inkscape:collect="always"
       xlink:href="#linearGradient4238"
       id="linearGradient5274"
       gradientUnits="userSpaceOnUse"
       gradientTransform="matrix(2.7213286,0,0,0.63353328,0,308.79021)"
       x1="326.27402"
       y1="934.04303"
       x2="337.0303"
       y2="756.56433" />
    <linearGradient
       inkscape:collect="always"
       xlink:href="#linearGradient4238"
       id="linearGradient5276"
       gradientUnits="userSpaceOnUse"
       gradientTransform="matrix(2.7213286,0,0,0.37982557,0,522.56803)"
       x1="326.27402"
       y1="934.04303"
       x2="337.0303"
       y2="756.56433" />
  </defs>
  <sodipodi:namedview
     id="base"
     pagecolor="#ffffff"
     bordercolor="#666666"
     borderopacity="1.0"
     inkscape:pageopacity="0.0"
     inkscape:pageshadow="2"
     inkscape:zoom="1.4"
     inkscape:cx="393.27765"
     inkscape:cy="262.06868"
     inkscape:document-units="px"
     inkscape:current-layer="layer1"
     showgrid="false"
     inkscape:window-width="1600"
     inkscape:window-height="1176"
     inkscape:window-x="-8"
     inkscape:window-y="-3"
     inkscape:window-maximized="1"
     fit-margin-top="0"
     fit-margin-left="0"
     fit-margin-right="0"
     fit-margin-bottom="0" />
  <metadata
     id="metadata7">
    <rdf:RDF>
      <cc:Work
         rdf:about="">
        <dc:format>image/svg+xml</dc:format>
        <dc:type
           rdf:resource="http://purl.org/dc/dcmitype/StillImage" />
        <dc:title></dc:title>
      </cc:Work>
    </rdf:RDF>
  </metadata>
  <g
     inkscape:label="Layer 1"
     inkscape:groupmode="layer"
     id="layer1"
     transform="translate(-185.32269,-773.18124)">
    <g
       id="g3460"
       transform="matrix(1.3681766,0,0,1.3681766,17.350021,904.03003)">
      <path
         id="path7459"
         d="m 175.05714,49.867374 c -6.2507,0 -12.38342,-3.066373 -12.38342,-10.142621 0,-8.373558 6.72243,-14.38837 12.26548,-17.690618 4.24575,-2.594625 9.19913,-4.245749 14.1525,-4.245749 6.25067,0 12.38343,3.066374 12.38343,10.142622 0,8.373558 -6.84038,14.38837 -12.38343,17.690618 -4.24575,2.594625 -9.08118,4.245748 -14.03456,4.245748 z"
         inkscape:connector-curvature="0"
         style="fill:currentColor" />
      <g
         transform="matrix(1.616487,0,0,1.616487,-138.47853,38.418322)"
         id="g3456">
        <path
           style="fill:currentColor"
           inkscape:connector-curvature="0"
           d="m 210.21844,-65.123005 h -1.09584 v -17.122388 h 1.09584 c 0,13.56094 14.31429,22.943997 14.31429,36.504933 0,4.86274 -1.09582,9.65703 -2.87654,14.17732 -0.34247,0.54791 -0.82188,0.82188 -1.30132,0.82188 -0.89034,0 -1.78072,-0.75338 -1.57525,-1.84922 1.78072,-4.17786 2.87657,-8.62968 2.87657,-13.14998 0,-7.122919 -6.50652,-14.245815 -11.43775,-19.382545 z"
           id="path256" />
        <rect
           rx="0.15407853"
           style="fill:currentColor"
           x="207.99252"
           y="-82.930252"
           width="2.2259097"
           height="77.860512"
           ry="0.15407853"
           id="rect258" />
      </g>
    </g>
    <g
       id="g4748"
       transform="matrix(0.25949753,0,0,1.6926012,137.23191,-689.07624)"
       style="opacity:0.7">
      <path
         transform="translate(185.32269,152.29593)"
         inkscape:connector-curvature="0"
         d="m 0,772.69874 c 0,0 23.305287,5.37814 59.159575,-1.79272 35.854288,-7.17085 60.952285,-23.30528 84.257575,-14.34171 23.30529,8.96357 55.57415,19.71986 87.84301,19.71986 32.26886,0 44.81786,-21.51258 71.70857,-21.51258 26.89072,0 71.70858,16.13443 116.52644,14.34172 44.81786,-1.79272 23.30529,-12.549 105.77015,-3.58543 82.46486,8.96357 109.35558,14.34171 132.66086,3.58543 23.30529,-10.75629 26.89072,-19.71986 53.78143,-10.75629 26.89072,8.96357 35.85429,8.96357 35.85429,8.96357 l 0,75.29401 L 0,839.02917 z"
         clip-path="url(#clipPath4903)"
         id="path3943"
         style="fill:#0000ff;stroke:none" />
      <path
         transform="translate(185.32269,152.29593)"
         inkscape:connector-curvature="0"
         d="m 0,772.69874 c 0,0 23.305287,5.37814 59.159575,-1.79272 35.854288,-7.17085 60.952285,-23.30528 84.257575,-14.34171 23.30529,8.96357 55.57415,19.71986 87.84301,19.71986 32.26886,0 44.81786,-21.51258 71.70857,-21.51258 26.89072,0 71.70858,16.13443 116.52644,14.34172 44.81786,-1.79272 23.30529,-12.549 105.77015,-3.58543 82.46486,8.96357 109.35558,14.34171 132.66086,3.58543 23.30529,-10.75629 26.89072,-19.71986 53.78143,-10.75629 26.89072,8.96357 35.85429,8.96357 35.85429,8.96357 l 0,75.29401 L 0,839.02917 z"
         clip-path="url(#clipPath4899)"
         id="path3955"
         style="fill:url(#linearGradient5268);fill-opacity:1;stroke:none" />
      <path
         transform="translate(185.32269,152.29593)"
         inkscape:connector-curvature="0"
         d="m 0,778.35149 c 0,0 23.305287,4.94331 59.159575,-1.64778 35.854288,-6.59108 60.952285,-21.42103 84.257575,-13.18217 23.30529,8.23886 55.57415,18.12549 87.84301,18.12549 32.26886,0 44.81786,-19.77327 71.70857,-19.77327 26.89072,0 71.70858,14.82995 116.52644,13.18218 44.81786,-1.64777 23.30529,-11.5344 105.77015,-3.29554 82.46486,8.23886 109.35558,13.18217 132.66086,3.29554 23.30529,-9.88663 26.89072,-18.12549 53.78143,-9.88663 26.89072,8.23886 35.85429,8.23886 35.85429,8.23886 l 0,69.20643 L 0,839.31905 z"
         clip-path="url(#clipPath4891)"
         id="path4230"
         style="fill:url(#linearGradient5270);fill-opacity:1;stroke:none" />
      <path
         transform="translate(185.32269,152.29593)"
         inkscape:connector-curvature="0"
         d="m 0,792.48336 c 0,0 23.305287,3.85624 59.159575,-1.28542 35.854288,-5.14166 60.952285,-16.71041 84.257575,-10.28333 23.30529,6.42708 55.57415,14.13958 87.84301,14.13958 32.26886,0 44.81786,-15.425 71.70857,-15.425 26.89072,0 71.70858,11.56875 116.52644,10.28333 44.81786,-1.28541 23.30529,-8.99791 105.77015,-2.57083 82.46486,6.42708 109.35558,10.28333 132.66086,2.57083 23.30529,-7.71249 26.89072,-14.13958 53.78143,-7.71249 26.89072,6.42708 35.85429,6.42708 35.85429,6.42708 l 0,53.98749 L 0,840.04376 z"
         clip-path="url(#clipPath4887)"
         id="path4234"
         style="fill:url(#linearGradient5272);fill-opacity:1;stroke:none" />
      <path
         transform="translate(185.32269,152.29593)"
         inkscape:connector-curvature="0"
         d="m 0,810.85479 c 0,0 23.305287,2.44306 59.159575,-0.81436 35.854288,-3.25741 60.952285,-10.5866 84.257575,-6.51483 23.30529,4.07177 55.57415,8.9579 87.84301,8.9579 32.26886,0 44.81786,-9.77225 71.70857,-9.77225 26.89072,0 71.70858,7.32918 116.52644,6.51483 44.81786,-0.81435 23.30529,-5.70048 105.77015,-1.62871 82.46486,4.07177 109.35558,6.51483 132.66086,1.62871 23.30529,-4.88612 26.89072,-8.9579 53.78143,-4.88612 26.89072,4.07177 35.85429,4.07177 35.85429,4.07177 l 0,34.20287 L 0,840.98589 z"
         clip-path="url(#clipPath4883)"
         id="path4246"
         style="fill:url(#linearGradient5274);fill-opacity:1;stroke:none" />
      <path
         transform="translate(185.32269,152.29593)"
         inkscape:connector-curvature="0"
         d="m 0,823.57347 c 0,0 23.305287,1.4647 59.159575,-0.48824 35.854288,-1.95293 60.952285,-6.34704 84.257575,-3.90587 23.30529,2.44117 55.57415,5.37058 87.84301,5.37058 32.26886,0 44.81786,-5.85881 71.70857,-5.85881 26.89072,0 71.70858,4.3941 116.52644,3.90587 44.81786,-0.48823 23.30529,-3.41764 105.77015,-0.97647 82.46486,2.44117 109.35558,3.90587 132.66086,0.97647 23.30529,-2.9294 26.89072,-5.37057 53.78143,-2.9294 26.89072,2.44117 35.85429,2.44117 35.85429,2.44117 l 0,20.50583 L 0,841.63813 z"
         clip-path="url(#clipPath4879)"
         id="path4250"
         style="fill:url(#linearGradient5276);fill-opacity:1;stroke:none" />
    </g>
    <path
       style="fill-rule:evenodd"
       inkscape:connector-curvature="0"
       id="path891"
       d="m 364.42892,979.16036 c -1.57114,1.67492 10.58079,-0.25897 11.28935,2.23384 -1.51466,2.8468 -6.65424,1.42806 -9.23686,1.48954 -10.41906,0.24779 -20.37988,-1.65721 -29.76306,-0.7443 -5.32057,0.51794 -12.94906,2.218 -21.55181,0.7443 1.95237,2.94461 6.884,1.28646 10.26246,1.49047 14.36359,0.86727 32.78853,0.88031 50.28927,0.74524 3.41825,0.23381 -3.08965,3.52961 2.05249,2.97907 4.18842,-2.11367 2.10255,-6.67637 2.05249,-9.68339 -0.35941,-21.50281 -1.98318,-66.91927 -1.02689,-90.12214 1.17964,-28.61421 0,-50.34898 0,-80.43968 0,-4.73597 3.01135,-11.92003 -3.07809,-14.15108 -2.09357,12.31035 -1.43765,20.11109 -1.02561,31.28215 -9.36522,-0.91757 -24.80961,-0.59339 -36.94743,-0.74523 -3.52864,-0.0438 -8.16119,-2.2031 -10.26246,0.74523 3.65059,2.91853 10.32023,1.30044 15.39434,1.48954 10.31123,0.3838 21.2001,1.456 30.78866,0.7443 2.38238,4.22921 0.35043,11.66293 1.02689,17.13108 -10.90812,-0.81323 -33.74097,-1.27528 -46.18428,-0.7443 3.0075,2.88778 10.39082,1.82489 16.42122,2.23384 6.59647,0.44714 20.54417,1.74012 28.73617,0 2.35543,1.51842 0.37225,6.18545 1.02689,8.93816 -12.46642,0.44714 -20.24638,-1.61623 -29.76306,-0.74524 7.581,4.70243 18.68936,1.90501 28.73617,2.23477 2.34002,1.03215 0.38252,5.18404 1.02689,7.44769 -9.17781,0.0913 -22.41311,-0.59246 -35.92054,-0.7443 -3.90089,-0.0438 -9.08411,-2.11926 -11.28806,0.7443 1.08208,1.93575 6.86603,1.40384 10.26246,1.48954 12.47027,0.31486 26.05343,0.27294 35.92054,0 2.59931,2.72476 0.45439,4.78347 2.05249,7.44862 -6.55026,0.40988 -20.00891,-0.28505 -29.76306,0 3.62106,4.8198 19.11166,1.02656 27.70928,2.23384 2.73409,1.23709 1.05641,5.00239 1.02689,6.70338 -8.47054,0.47602 -22.97148,-0.65115 -35.92054,-0.74523 -3.49912,-0.0252 -7.85056,-1.44203 -9.23686,0.74523 2.80983,2.88592 10.99284,1.27622 17.44683,1.48954 9.10721,0.29996 19.90237,1.91991 27.71057,0 1.9267,1.76621 -1.29388,4.30746 1.02561,6.70339 -6.69275,1.25851 -21.52101,-1.6656 -28.73618,0 3.54148,4.22361 20.94466,2.05498 27.71057,1.48953 0,4.71734 0,9.43467 0,14.15107 -4.78016,1.49606 -18.43905,-1.48488 -26.68496,0.74524 3.11532,4.04942 19.39021,2.17422 25.65807,1.48954 2.32847,0.79274 0.39022,4.68193 1.02689,6.70338 -12.84252,-1.1104 -32.74745,-1.0573 -44.13051,-0.74523 3.74173,3.84354 13.34441,2.23384 21.55181,2.23384 8.07519,0 16.50081,0 23.60559,0 0.31705,2.71358 -0.16302,4.84775 -1.02561,6.70338 -6.22679,1.18958 -20.14497,-2.13137 -27.71057,0 3.79821,4.03731 20.77651,2.17702 27.71057,1.49047 0,2.23384 0,4.46861 0,6.70245 -6.61572,-0.43782 -13.77185,0.22171 -21.55309,0 -7.58613,-0.21611 -18.00391,-3.20264 -22.5787,1.49047 12.84509,0.90174 29.91967,2.55616 43.10491,0.74431 2.97797,1.91804 1.00635,3.5529 1.02688,6.70338 -5.56444,0.0689 -12.76806,-0.96508 -20.5262,-0.74523 -2.78929,0.0792 -7.91474,-1.19797 -8.20997,1.49046 2.0281,2.16584 8.8338,1.51376 13.34184,1.48954 5.14984,-0.0279 10.808,0.25059 15.39433,-1.48954 0,2.48257 0,4.96513 0,7.44769 -17.59059,0.25524 -29.13281,-0.12762 -43.10618,0.74524 2.95872,3.95719 11.98121,2.23384 19.5006,2.23384 7.49756,0 16.15166,0 22.5787,0 2.29509,0.32138 0.41589,3.67028 1.02688,5.21384 -5.35265,0.89522 -23.31035,-1.74943 -28.73617,1.49047 5.69153,3.27345 20.07438,0.92596 27.70929,0.74431 2.31435,0.5552 0.40048,4.17797 1.02688,5.95815 -11.97094,-0.99862 -38.76758,2.31674 -49.26238,-2.23384 3.44521,-1.7215 11.27138,-0.26084 16.42123,-0.74524 -5.26794,-1.89569 -12.69876,-2.45275 -20.52621,-1.48954 3.79948,2.66701 -0.42488,4.68101 -6.15748,4.46862 5.41555,3.41131 16.21071,-1.67771 18.47372,3.72431 11.68598,-1.0452 27.55782,0.013 41.05241,-1.49047 0.17842,2.61297 0.84846,5.5818 -4.10499,4.46954 -0.4621,2.07362 5.59398,-0.58408 5.13188,1.48954 -1.58911,2.84307 -7.65417,0.86447 -12.31624,0.74523 -6.19727,-0.15836 -14.03756,-0.50396 -19.49932,0.74524 0.33631,3.87242 9.14059,2.21334 14.36745,2.23384 6.10741,0.0242 12.79759,0.30089 16.42122,-0.74524 2.15518,3.9898 -2.92663,4.54407 -10.26631,3.72524 z"
       clip-rule="evenodd" />
  </g>
</svg>
