<?xml version="1.0" encoding="UTF-8" standalone="no"?>
<!-- Created with Inkscape (http://www.inkscape.org/) -->

<svg
   xmlns:dc="http://purl.org/dc/elements/1.1/"
   xmlns:cc="http://creativecommons.org/ns#"
   xmlns:rdf="http://www.w3.org/1999/02/22-rdf-syntax-ns#"
   xmlns:svg="http://www.w3.org/2000/svg"
   xmlns="http://www.w3.org/2000/svg"
   xmlns:sodipodi="http://sodipodi.sourceforge.net/DTD/sodipodi-0.dtd"
   xmlns:inkscape="http://www.inkscape.org/namespaces/inkscape"
   width="36.923378"
   height="34.242474"
   id="svg3262"
   version="1.1"
   inkscape:version="0.48.1 r9760"
   sodipodi:docname="license.svg"
   inkscape:export-filename="/home/tom/DEVELOP/QT4/nootka/picts/license.png"
   inkscape:export-xdpi="388.9906"
   inkscape:export-ydpi="388.9906">
  <defs
     id="defs3264">
    <filter
       id="filter4748"
       inkscape:label="Drop shadow"
       width="1.5"
       height="1.5"
       x="-0.25"
       y="-0.25"
       color-interpolation-filters="sRGB">
      <feGaussianBlur
         id="feGaussianBlur4750"
         in="SourceAlpha"
         stdDeviation="1"
         result="blur" />
      <feColorMatrix
         id="feColorMatrix4752"
         result="bluralpha"
         type="matrix"
         values="1 0 0 0 0 0 1 0 0 0 0 0 1 0 0 0 0 0 0.7 0 " />
      <feOffset
         id="feOffset4754"
         in="bluralpha"
         dx="1"
         dy="1"
         result="offsetBlur" />
      <feMerge
         id="feMerge4756">
        <feMergeNode
           id="feMergeNode4758"
           in="offsetBlur" />
        <feMergeNode
           id="feMergeNode4760"
           in="SourceGraphic" />
      </feMerge>
    </filter>
    <filter
       id="filter4748-4"
       inkscape:label="Drop shadow"
       width="1.5"
       height="1.5"
       x="-0.25"
       y="-0.25"
       color-interpolation-filters="sRGB">
      <feGaussianBlur
         id="feGaussianBlur4750-5"
         in="SourceAlpha"
         stdDeviation="1"
         result="blur" />
      <feColorMatrix
         id="feColorMatrix4752-2"
         result="bluralpha"
         type="matrix"
         values="1 0 0 0 0 0 1 0 0 0 0 0 1 0 0 0 0 0 0.7 0 " />
      <feOffset
         id="feOffset4754-5"
         in="bluralpha"
         dx="1"
         dy="1"
         result="offsetBlur" />
      <feMerge
         id="feMerge4756-4">
        <feMergeNode
           id="feMergeNode4758-7"
           in="offsetBlur" />
        <feMergeNode
           id="feMergeNode4760-4"
           in="SourceGraphic" />
      </feMerge>
    </filter>
    <filter
       id="filter4748-3"
       inkscape:label="Drop shadow"
       width="1.5"
       height="1.5"
       x="-0.25"
       y="-0.25"
       color-interpolation-filters="sRGB">
      <feGaussianBlur
         id="feGaussianBlur4750-0"
         in="SourceAlpha"
         stdDeviation="1"
         result="blur" />
      <feColorMatrix
         id="feColorMatrix4752-7"
         result="bluralpha"
         type="matrix"
         values="1 0 0 0 0 0 1 0 0 0 0 0 1 0 0 0 0 0 0.7 0 " />
      <feOffset
         id="feOffset4754-8"
         in="bluralpha"
         dx="1"
         dy="1"
         result="offsetBlur" />
      <feMerge
         id="feMerge4756-6">
        <feMergeNode
           id="feMergeNode4758-8"
           in="offsetBlur" />
        <feMergeNode
           id="feMergeNode4760-8"
           in="SourceGraphic" />
      </feMerge>
    </filter>
    <filter
       inkscape:collect="always"
       id="filter4413">
      <feGaussianBlur
         inkscape:collect="always"
         stdDeviation="0.2040107"
         id="feGaussianBlur4415" />
    </filter>
    <filter
       inkscape:collect="always"
       id="filter3838">
      <feGaussianBlur
         inkscape:collect="always"
         stdDeviation="0.1686106"
         id="feGaussianBlur3840" />
    </filter>
  </defs>
  <sodipodi:namedview
     id="base"
     pagecolor="#ffffff"
     bordercolor="#666666"
     borderopacity="1.0"
     inkscape:pageopacity="0.0"
     inkscape:pageshadow="2"
     inkscape:zoom="11.2"
     inkscape:cx="-5.1513085"
     inkscape:cy="11.464256"
     inkscape:document-units="px"
     inkscape:current-layer="layer1"
     showgrid="false"
     fit-margin-top="0"
     fit-margin-left="0"
     fit-margin-right="0"
     fit-margin-bottom="0"
     inkscape:window-width="1600"
     inkscape:window-height="1176"
     inkscape:window-x="-8"
     inkscape:window-y="-3"
     inkscape:window-maximized="1" />
  <metadata
     id="metadata3267">
    <rdf:RDF>
      <cc:Work
         rdf:about="">
        <dc:format>image/svg+xml</dc:format>
        <dc:type
           rdf:resource="http://purl.org/dc/dcmitype/StillImage" />
        <dc:title></dc:title>
      </cc:Work>
    </rdf:RDF>
  </metadata>
  <g
     inkscape:label="Layer 1"
     inkscape:groupmode="layer"
     id="layer1"
     transform="translate(-520.68619,-413.02269)">
    <rect
       style="fill:#ffffff;fill-opacity:1;filter:url(#filter4748)"
       id="rect3894"
       width="24.615585"
       height="22.828316"
       x="144.83507"
       y="326.66232"
       ry="2.6451859" />
    <rect
       style="fill:#ffffff;fill-opacity:1;filter:url(#filter4748-4)"
       id="rect3894-4"
       width="24.615585"
       height="22.828316"
       x="833.40649"
       y="292.37659"
       ry="2.6451859" />
    <rect
       style="fill:#ffffff;fill-opacity:1;filter:url(#filter4748-3)"
       id="rect3894-43"
       width="24.615585"
       height="22.828316"
       x="526.84009"
       y="418.72977"
       ry="2.6451859" />
    <g
       transform="matrix(0.79574161,0,0,1,529.55918,422.21976)"
       id="g4345">
      <g
         transform="matrix(0.31002331,0,0,2.2844887,0.08375204,13.810804)"
         id="g867">
        <line
           x1="0.042417582"
           y1="0"
           x2="80.938499"
           y2="0"
           id="line869"
           style="stroke:currentColor;stroke-width:0.25815895;stroke-linecap:round;stroke-linejoin:round" />
      </g>
      <g
         transform="matrix(0.31002331,0,0,2.2844887,0.08375204,11.526315)"
         id="g871">
        <line
           x1="0.042417582"
           y1="0"
           x2="80.938499"
           y2="0"
           id="line873"
           style="stroke:currentColor;stroke-width:0.25815895;stroke-linecap:round;stroke-linejoin:round" />
      </g>
      <g
         transform="matrix(0.31002331,0,0,2.2844887,0.08375204,9.2418271)"
         id="g875">
        <line
           x1="0.042417582"
           y1="0"
           x2="80.938499"
           y2="0"
           id="line877"
           style="stroke:currentColor;stroke-width:0.25815895;stroke-linecap:round;stroke-linejoin:round" />
      </g>
      <g
         transform="matrix(0.31002331,0,0,2.2844887,0.08375204,6.9573391)"
         id="g879">
        <line
           x1="0.042417582"
           y1="0"
           x2="80.938499"
           y2="0"
           id="line881"
           style="stroke:currentColor;stroke-width:0.25815895;stroke-linecap:round;stroke-linejoin:round" />
      </g>
      <g
         transform="matrix(0.31002331,0,0,2.2844887,0.08375204,4.6728501)"
         id="g883">
        <line
           x1="0.042417582"
           y1="0"
           x2="80.938499"
           y2="0"
           id="line885"
           style="stroke:currentColor;stroke-width:0.25815895;stroke-linecap:round;stroke-linejoin:round" />
      </g>
    </g>
    <g
       transform="matrix(1.4765249,0,0,1.1029386,458.60042,417.16537)"
       style="font-size:20px;font-style:normal;font-variant:normal;font-weight:normal;font-stretch:normal;line-height:125%;letter-spacing:0px;word-spacing:0px;opacity:0.5;fill:#000000;fill-opacity:1;stroke:none;filter:url(#filter3838);font-family:FL Jazzowy 1;-inkscape-font-specification:FL Jazzowy 1"
       id="text3042-7">
      <path
         d="m 56.473896,7.3400323 c -0.173339,-0.1599891 -0.260006,-0.3666555 -0.26,-0.62 -6e-6,-0.2533217 0.113328,-0.4933214 0.34,-0.72 0.22666,-0.2266543 0.339994,-0.3533209 0.34,-0.38 -6e-6,-0.1733207 -0.120006,-0.3199872 -0.36,-0.44 -0.240006,-0.1333203 -0.533339,-0.1999869 -0.88,-0.2 -0.506671,1.31e-5 -0.920004,0.1333463 -1.24,0.4 -0.30667,0.2533458 -0.460003,0.5933455 -0.46,1.02 -3e-6,0.5600112 0.226663,1.033344 0.68,1.42 l 2.74,2.2599997 c 1.186659,0.986674 1.779991,2.020006 1.78,3.1 -9e-6,0.706671 -0.220008,1.286671 -0.66,1.74 -0.426674,0.440003 -0.980007,0.660003 -1.66,0.66 l -0.36,0 c 0.74666,0.653336 1.246659,1.180002 1.5,1.58 0.253326,0.386668 0.379992,0.833334 0.38,1.34 -8e-6,0.759999 -0.266674,1.373332 -0.8,1.84 -0.520007,0.466664 -1.213339,0.699997 -2.08,0.7 -0.773338,-3e-6 -1.42667,-0.193336 -1.96,-0.58 -0.533336,-0.386668 -0.800002,-0.860001 -0.8,-1.42 -2e-6,-0.306667 0.1,-0.566667 0.3,-0.78 0.213331,-0.2 0.47333,-0.3 0.78,-0.3 0.266663,0 0.49333,0.08 0.68,0.24 0.186663,0.16 0.279996,0.36 0.28,0.6 -4e-6,0.239999 -0.113337,0.473332 -0.34,0.7 -0.22667,0.226665 -0.340004,0.366665 -0.34,0.42 -4e-6,0.186665 0.139996,0.346665 0.42,0.48 0.293329,0.146665 0.626662,0.219998 1,0.22 0.533328,-2e-6 0.953327,-0.140002 1.26,-0.42 0.319993,-0.280001 0.479993,-0.653334 0.48,-1.12 -7e-6,-0.426667 -0.180007,-0.84 -0.54,-1.24 -0.360006,-0.413332 -0.793339,-0.793332 -1.3,-1.14 -0.506671,-0.359998 -1.013337,-0.733331 -1.52,-1.12 -0.50667,-0.386663 -0.940002,-0.859996 -1.3,-1.42 -0.360002,-0.559995 -0.540002,-1.159995 -0.54,-1.8 -2e-6,-0.679993 0.219998,-1.246659 0.66,-1.7 0.439997,-0.453325 0.986663,-0.6799916 1.64,-0.6799997 0.199996,8.1e-6 0.366662,0.00667 0.5,0.02 -0.800004,-0.6666546 -1.333336,-1.1999874 -1.6,-1.5999967 -0.266669,-0.3999899 -0.400002,-0.8666561 -0.4,-1.4 -2e-6,-0.7199882 0.253331,-1.3066542 0.76,-1.76 0.519996,-0.45332 1.193329,-0.6799864 2.02,-0.68 0.733327,1.36e-5 1.339994,0.18668 1.82,0.56 0.493326,0.373346 0.739992,0.8400122 0.74,1.4 -8e-6,0.3333446 -0.09334,0.5933443 -0.28,0.78 -0.173341,0.1866773 -0.420007,0.2800105 -0.74,0.28 -0.266673,1.05e-5 -0.493339,-0.079989 -0.68,-0.24 m 1.64,6.4999967 c -8e-6,-0.693328 -0.486674,-1.433327 -1.46,-2.22 -0.960005,-0.799992 -1.693338,-1.199992 -2.2,-1.2 -0.38667,8e-6 -0.713337,0.126675 -0.98,0.38 -0.253336,0.253341 -0.380003,0.57334 -0.38,0.96 -3e-6,0.666673 0.439997,1.400005 1.32,2.2 0.893329,0.800004 1.666661,1.200003 2.32,1.2 0.373327,3e-6 0.693326,-0.13333 0.96,-0.4 0.279993,-0.266663 0.419992,-0.573329 0.42,-0.92"
         style="font-family:FreeSerif;-inkscape-font-specification:FreeSerif"
         id="path3047-4"
         inkscape:connector-curvature="0" />
    </g>
    <g
       transform="matrix(1.4765249,0,0,1.1029386,457.32374,416.39103)"
       style="font-size:20px;font-style:normal;font-variant:normal;font-weight:normal;font-stretch:normal;line-height:125%;letter-spacing:0px;word-spacing:0px;fill:#000000;fill-opacity:1;stroke:none;font-family:FL Jazzowy 1;-inkscape-font-specification:FL Jazzowy 1"
       id="text3042">
      <path
         d="m 56.473896,7.3400323 c -0.173339,-0.1599891 -0.260006,-0.3666555 -0.26,-0.62 -6e-6,-0.2533217 0.113328,-0.4933214 0.34,-0.72 0.22666,-0.2266543 0.339994,-0.3533209 0.34,-0.38 -6e-6,-0.1733207 -0.120006,-0.3199872 -0.36,-0.44 -0.240006,-0.1333203 -0.533339,-0.1999869 -0.88,-0.2 -0.506671,1.31e-5 -0.920004,0.1333463 -1.24,0.4 -0.30667,0.2533458 -0.460003,0.5933455 -0.46,1.02 -3e-6,0.5600112 0.226663,1.033344 0.68,1.42 l 2.74,2.2599997 c 1.186659,0.986674 1.779991,2.020006 1.78,3.1 -9e-6,0.706671 -0.220008,1.286671 -0.66,1.74 -0.426674,0.440003 -0.980007,0.660003 -1.66,0.66 l -0.36,0 c 0.74666,0.653336 1.246659,1.180002 1.5,1.58 0.253326,0.386668 0.379992,0.833334 0.38,1.34 -8e-6,0.759999 -0.266674,1.373332 -0.8,1.84 -0.520007,0.466664 -1.213339,0.699997 -2.08,0.7 -0.773338,-3e-6 -1.42667,-0.193336 -1.96,-0.58 -0.533336,-0.386668 -0.800002,-0.860001 -0.8,-1.42 -2e-6,-0.306667 0.1,-0.566667 0.3,-0.78 0.213331,-0.2 0.47333,-0.3 0.78,-0.3 0.266663,0 0.49333,0.08 0.68,0.24 0.186663,0.16 0.279996,0.36 0.28,0.6 -4e-6,0.239999 -0.113337,0.473332 -0.34,0.7 -0.22667,0.226665 -0.340004,0.366665 -0.34,0.42 -4e-6,0.186665 0.139996,0.346665 0.42,0.48 0.293329,0.146665 0.626662,0.219998 1,0.22 0.533328,-2e-6 0.953327,-0.140002 1.26,-0.42 0.319993,-0.280001 0.479993,-0.653334 0.48,-1.12 -7e-6,-0.426667 -0.180007,-0.84 -0.54,-1.24 -0.360006,-0.413332 -0.793339,-0.793332 -1.3,-1.14 -0.506671,-0.359998 -1.013337,-0.733331 -1.52,-1.12 -0.50667,-0.386663 -0.940002,-0.859996 -1.3,-1.42 -0.360002,-0.559995 -0.540002,-1.159995 -0.54,-1.8 -2e-6,-0.679993 0.219998,-1.246659 0.66,-1.7 0.439997,-0.453325 0.986663,-0.6799916 1.64,-0.6799997 0.199996,8.1e-6 0.366662,0.00667 0.5,0.02 -0.800004,-0.6666564 -1.333336,-1.1999892 -1.6,-1.5999985 -0.266669,-0.3999899 -0.400002,-0.8666561 -0.4,-1.4 -2e-6,-0.7199882 0.253331,-1.3066542 0.76,-1.76 0.519996,-0.45332 1.193329,-0.6799864 2.02,-0.68 0.733327,1.36e-5 1.339994,0.18668 1.82,0.56 0.493326,0.373346 0.739992,0.8400122 0.74,1.4 -8e-6,0.3333446 -0.09334,0.5933443 -0.28,0.78 -0.173341,0.1866773 -0.420007,0.2800105 -0.74,0.28 -0.266673,1.05e-5 -0.493339,-0.079989 -0.68,-0.24 m 1.64,6.4999985 c -8e-6,-0.693328 -0.486674,-1.433327 -1.46,-2.22 -0.960005,-0.799992 -1.693338,-1.199992 -2.2,-1.2 -0.38667,8e-6 -0.713337,0.126675 -0.98,0.38 -0.253336,0.253341 -0.380003,0.57334 -0.38,0.96 -3e-6,0.666673 0.439997,1.400005 1.32,2.2 0.893329,0.800004 1.666661,1.200003 2.32,1.2 0.373327,3e-6 0.693326,-0.13333 0.96,-0.4 0.279993,-0.266663 0.419992,-0.573329 0.42,-0.92"
         style="font-family:FreeSerif;-inkscape-font-specification:FreeSerif"
         id="path3047"
         inkscape:connector-curvature="0" />
    </g>
  </g>
</svg>
