<?xml version="1.0" encoding="UTF-8" standalone="no"?>
<!-- Created with Inkscape (http://www.inkscape.org/) -->

<svg
   xmlns:dc="http://purl.org/dc/elements/1.1/"
   xmlns:cc="http://creativecommons.org/ns#"
   xmlns:rdf="http://www.w3.org/1999/02/22-rdf-syntax-ns#"
   xmlns:svg="http://www.w3.org/2000/svg"
   xmlns="http://www.w3.org/2000/svg"
   xmlns:sodipodi="http://sodipodi.sourceforge.net/DTD/sodipodi-0.dtd"
   xmlns:inkscape="http://www.inkscape.org/namespaces/inkscape"
   width="57.5"
   height="46.785717"
   id="svg3240"
   version="1.1"
   inkscape:version="0.48.4 r9939"
   sodipodi:docname="linearChart.svg"
   inkscape:export-filename="/home/tom/DEVELOP/QT4/nootka/picts/charts.png"
   inkscape:export-xdpi="189.35709"
   inkscape:export-ydpi="189.35709">
  <defs
     id="defs3242">
    <marker
       inkscape:stockid="DotM"
       orient="auto"
       refY="0"
       refX="0"
       id="DotM"
       style="overflow:visible">
      <path
         id="path3860"
         d="m -2.5,-1 c 0,2.76 -2.24,5 -5,5 -2.76,0 -5,-2.24 -5,-5 0,-2.76 2.24,-5 5,-5 2.76,0 5,2.24 5,5 z"
         style="fill-rule:evenodd;stroke:#000000;stroke-width:1pt"
         transform="matrix(0.4,0,0,0.4,2.96,0.4)"
         inkscape:connector-curvature="0" />
    </marker>
    <marker
       inkscape:stockid="EmptyDiamondMstart"
       orient="auto"
       refY="0"
       refX="0"
       id="EmptyDiamondMstart"
       style="overflow:visible">
      <path
         id="path3914"
         d="M 0,-7.0710768 -7.0710894,0 0,7.0710589 7.0710462,0 0,-7.0710768 z"
         style="fill:#ffffff;fill-rule:evenodd;stroke:#000000;stroke-width:1pt"
         transform="matrix(0.4,0,0,0.4,2.6,0)"
         inkscape:connector-curvature="0" />
    </marker>
    <marker
       inkscape:stockid="EmptyDiamondMend"
       orient="auto"
       refY="0"
       refX="0"
       id="EmptyDiamondMend"
       style="overflow:visible">
      <path
         id="path3923"
         d="M 0,-7.0710768 -7.0710894,0 0,7.0710589 7.0710462,0 0,-7.0710768 z"
         style="fill:#ffffff;fill-rule:evenodd;stroke:#000000;stroke-width:1pt"
         transform="matrix(0.4,0,0,0.4,-2.6,0)"
         inkscape:connector-curvature="0" />
    </marker>
    <marker
       inkscape:stockid="Arrow1Lend"
       orient="auto"
       refY="0"
       refX="0"
       id="Arrow1Lend"
       style="overflow:visible">
      <path
         id="path3799"
         d="M 0,0 5,-5 -12.5,0 5,5 0,0 z"
         style="fill-rule:evenodd;stroke:#000000;stroke-width:1pt"
         transform="matrix(-0.8,0,0,-0.8,-10,0)"
         inkscape:connector-curvature="0" />
    </marker>
    <marker
       inkscape:stockid="Arrow1Lstart"
       orient="auto"
       refY="0"
       refX="0"
       id="Arrow1Lstart"
       style="overflow:visible">
      <path
         id="path3796"
         d="M 0,0 5,-5 -12.5,0 5,5 0,0 z"
         style="fill-rule:evenodd;stroke:#000000;stroke-width:1pt"
         transform="matrix(0.8,0,0,0.8,10,0)"
         inkscape:connector-curvature="0" />
    </marker>
    <filter
       inkscape:collect="always"
       id="filter4994"
       x="-0.14248802"
       width="1.284976"
       y="-0.048170384"
       height="1.0963408"
       color-interpolation-filters="sRGB">
      <feGaussianBlur
         inkscape:collect="always"
         stdDeviation="0.7811793"
         id="feGaussianBlur4996" />
    </filter>
  </defs>
  <sodipodi:namedview
     id="base"
     pagecolor="#ffffff"
     bordercolor="#666666"
     borderopacity="1.0"
     inkscape:pageopacity="0.0"
     inkscape:pageshadow="2"
     inkscape:zoom="5.6"
     inkscape:cx="37.258886"
     inkscape:cy="13.551507"
     inkscape:document-units="px"
     inkscape:current-layer="layer1"
     showgrid="false"
     fit-margin-top="0"
     fit-margin-left="0"
     fit-margin-right="0"
     fit-margin-bottom="0"
     inkscape:window-width="1600"
     inkscape:window-height="1176"
     inkscape:window-x="-2"
     inkscape:window-y="-3"
     inkscape:window-maximized="1" />
  <metadata
     id="metadata3245">
    <rdf:RDF>
      <cc:Work
         rdf:about="">
        <dc:format>image/svg+xml</dc:format>
        <dc:type
           rdf:resource="http://purl.org/dc/dcmitype/StillImage" />
        <dc:title></dc:title>
      </cc:Work>
    </rdf:RDF>
  </metadata>
  <g
     inkscape:label="Layer 1"
     inkscape:groupmode="layer"
     id="layer1"
     transform="translate(-413.5842,-405.42551)">
    <rect
       style="fill:#ffffff;fill-opacity:1;stroke:none;opacity:0.5"
       id="rect3841"
       width="57.5"
       height="46.785717"
       x="413.5842"
       y="405.42551"
       ry="4.0178571"
       rx="2.2321429" />
    <path
       sodipodi:nodetypes="cscssscc"
       inkscape:connector-curvature="0"
       id="line8"
       d="m 418.70982,446.05357 c -0.26998,0.0164 -0.29985,0.28805 -0.28348,0.55803 0.0164,0.26999 0.3327,0.48958 0.60268,0.47322 l 50.06473,0.0446 c 0.26998,2.4e-4 0.51562,-0.24564 0.51562,-0.51562 0,-0.26998 -0.24564,-0.51539 -0.51562,-0.51563 l -50.32143,-0.0446 c -0.0208,-10e-4 -0.0417,-10e-4 -0.0625,0 z"
       style="font-size:medium;font-style:normal;font-variant:normal;font-weight:normal;font-stretch:normal;text-indent:0;text-align:start;text-decoration:none;line-height:normal;letter-spacing:normal;word-spacing:normal;text-transform:none;direction:ltr;block-progression:tb;writing-mode:lr-tb;text-anchor:start;baseline-shift:baseline;color:#000000;fill:currentColor;fill-opacity:1;fill-rule:nonzero;stroke:none;stroke-width:1.023;marker:none;visibility:visible;display:inline;overflow:visible;enable-background:accumulate;font-family:Sans;-inkscape-font-specification:Sans" />
    <path
       sodipodi:nodetypes="ccccc"
       id="path3022"
       d="m 461.58763,446.5293 -0.0295,4.22594 8.11665,-4.13665 -8.11665,-4.04735 z"
       style="fill-rule:evenodd;stroke:#000000;stroke-width:0.8pt"
       inkscape:connector-curvature="0" />
    <path
       inkscape:connector-curvature="0"
       id="line8-7"
       d="m 418.648,407.87513 a 0.41848604,0.43810528 0 0 0 -0.28054,0.42422 l 0,38.11502 a 0.420815,0.44054343 0 0 0 0.84163,0 l 0,-38.11502 a 0.41848604,0.43810528 0 0 0 -0.56109,-0.42422 z"
       style="font-size:medium;font-style:normal;font-variant:normal;font-weight:normal;font-stretch:normal;text-indent:0;text-align:start;text-decoration:none;line-height:normal;letter-spacing:normal;word-spacing:normal;text-transform:none;direction:ltr;block-progression:tb;writing-mode:lr-tb;text-anchor:start;baseline-shift:baseline;color:#000000;fill:currentColor;fill-opacity:1;fill-rule:nonzero;stroke:none;stroke-width:0.83899999;marker:none;visibility:visible;display:inline;overflow:visible;enable-background:accumulate;font-family:Sans;-inkscape-font-specification:Sans" />
    <path
       style="fill:none;stroke:#1a57a1;stroke-width:1.79835892;stroke-linecap:butt;stroke-linejoin:miter;stroke-miterlimit:4;stroke-opacity:1;stroke-dasharray:none;marker-mid:none;marker-end:none"
       d="m 422.21952,436.67491 c 5.51818,-7.13292 5.51818,-7.31581 5.51818,-7.31581 8.20658,11.15662 8.20658,11.15662 8.20658,11.15662 7.78205,-18.10668 7.78205,-18.10668 7.78205,-18.10668 7.07464,10.79085 7.07464,10.79085 7.07464,10.79085 6.22564,-7.86452 6.22564,-7.86452 6.22564,-7.86452 8.20656,10.60793 8.20656,10.60793 8.20656,10.60793"
       id="path5006"
       inkscape:connector-curvature="0" />
    <path
       sodipodi:type="arc"
       style="fill:#008000;fill-opacity:1;stroke:none"
       id="path3002"
       sodipodi:cx="-14.20527"
       sodipodi:cy="50.400139"
       sodipodi:rx="2.2097087"
       sodipodi:ry="1.0732871"
       d="m -11.995561,50.400139 c 0,0.59276 -0.98932,1.073287 -2.209709,1.073287 -1.220388,0 -2.209709,-0.480527 -2.209709,-1.073287 0,-0.59276 0.989321,-1.073287 2.209709,-1.073287 1.220389,0 2.209709,0.480527 2.209709,1.073287 z"
       transform="matrix(1.2100531,0,0,1.5814725,444.60362,349.4943)" />
    <path
       sodipodi:type="arc"
       style="fill:#008000;fill-opacity:1;stroke:none"
       id="path3002-1"
       sodipodi:cx="-14.20527"
       sodipodi:cy="50.400139"
       sodipodi:rx="2.2097087"
       sodipodi:ry="1.0732871"
       d="m -11.995561,50.400139 c 0,0.59276 -0.98932,1.073287 -2.209709,1.073287 -1.220388,0 -2.209709,-0.480527 -2.209709,-1.073287 0,-0.59276 0.989321,-1.073287 2.209709,-1.073287 1.220389,0 2.209709,0.480527 2.209709,1.073287 z"
       transform="matrix(1.2100531,0,0,1.5814725,461.25797,341.90605)" />
    <path
       sodipodi:type="arc"
       style="fill:#008000;fill-opacity:1;stroke:none"
       id="path3002-17"
       sodipodi:cx="-14.20527"
       sodipodi:cy="50.400139"
       sodipodi:rx="2.2097087"
       sodipodi:ry="1.0732871"
       d="m -11.995561,50.400139 c 0,0.59276 -0.98932,1.073287 -2.209709,1.073287 -1.220388,0 -2.209709,-0.480527 -2.209709,-1.073287 0,-0.59276 0.989321,-1.073287 2.209709,-1.073287 1.220389,0 2.209709,0.480527 2.209709,1.073287 z"
       transform="matrix(1.2100531,0,0,1.5814725,453.15999,361.07639)" />
    <path
       sodipodi:type="arc"
       style="fill:#008000;fill-opacity:1;stroke:none"
       id="path3002-9"
       sodipodi:cx="-14.20527"
       sodipodi:cy="50.400139"
       sodipodi:rx="2.2097087"
       sodipodi:ry="1.0732871"
       d="m -11.995561,50.400139 c 0,0.59276 -0.98932,1.073287 -2.209709,1.073287 -1.220388,0 -2.209709,-0.480527 -2.209709,-1.073287 0,-0.59276 0.989321,-1.073287 2.209709,-1.073287 1.220389,0 2.209709,0.480527 2.209709,1.073287 z"
       transform="matrix(1.2100531,0,0,1.5814725,468.21002,353.8875)" />
    <path
       sodipodi:type="arc"
       style="fill:#008000;fill-opacity:1;stroke:none"
       id="path3002-4"
       sodipodi:cx="-14.20527"
       sodipodi:cy="50.400139"
       sodipodi:rx="2.2097087"
       sodipodi:ry="1.0732871"
       d="m -11.995561,50.400139 c 0,0.59276 -0.98932,1.073287 -2.209709,1.073287 -1.220388,0 -2.209709,-0.480527 -2.209709,-1.073287 0,-0.59276 0.989321,-1.073287 2.209709,-1.073287 1.220389,0 2.209709,0.480527 2.209709,1.073287 z"
       transform="matrix(1.2100531,0,0,1.5814725,482.19052,355.88441)" />
    <path
       sodipodi:nodetypes="ccccc"
       id="path3022-5"
       d="m 418.78541,416.74084 4.21531,0.0308 -4.12625,-8.47578 -4.03717,8.47578 z"
       style="fill-rule:evenodd;stroke:#000000;stroke-width:0.81647778pt"
       inkscape:connector-curvature="0" />
  </g>
</svg>
