<?xml version="1.0" encoding="UTF-8" standalone="no"?>
<!-- Generator: Adobe Illustrator 13.0.2, SVG Export Plug-In . SVG Version: 6.00 Build 14948)  -->

<svg
   xmlns:ns="http://ns.adobe.com/SaveForWeb/1.0/"
   xmlns:dc="http://purl.org/dc/elements/1.1/"
   xmlns:cc="http://creativecommons.org/ns#"
   xmlns:rdf="http://www.w3.org/1999/02/22-rdf-syntax-ns#"
   xmlns:svg="http://www.w3.org/2000/svg"
   xmlns="http://www.w3.org/2000/svg"
   xmlns:sodipodi="http://sodipodi.sourceforge.net/DTD/sodipodi-0.dtd"
   xmlns:inkscape="http://www.inkscape.org/namespaces/inkscape"
   version="1.1"
   id="measuring_glass_xA0_Image_1_"
   x="0px"
   y="0px"
   width="281.44px"
   height="409.551px"
   viewBox="0 0 281.44 409.551"
   enable-background="new 0 0 281.44 409.551"
   xml:space="preserve"
   inkscape:version="0.48.1 r9760"
   sodipodi:docname="measuring_glass.svg"><defs
   id="defs927">
	
	
	
	
	
	
	
	
	
	
	
	
	
	
	
	
	
	
	
	
	
	
	
	
	
	
	
	
	
	
	
	
	
	
	
	
	
	
	
	
	
	
	
	
	
	
	
	
	
	
	
	
	
	
	
	
	
	
	
	
	
	
	
	
	
	
	
	
	
	
	
	
	
	
	
	
	
	
	
	
	
	
	
	
	
	
	
	
	
	
	
	
	
	
	
	
	
	
	
	
	
	
	
	
	
	
	
	
	
	
	
	
	
	
	
	
	
	
	
	
	
	
	
	
	
	
	
	
	
	
	
	
	
	
	
	
	
	
	
	
	
	
	
	
	
	
	
	
	
	
	
	
	
	
	
	
	
	
	
	
	
	
	
	
	
	
	
	
	
	
	
	
	
	
	
	
	
	
	
	
	
	
	
	
	
	
	
	
	
	
	
	
	
	
	
	
	
	
	
	
	
	
	
	
	
	
	
	
	
	
	
	
	
	
	
	
	
	
	
	
	
	
	
	
	
	
	
	
	
	
	
	
	
	
	
	
	
	
	
	
	
	
	
	
	
	
	
	
	
	
	
	
	
	
	
	
	
	
	
	
	
	
	
	
	
	
	
	
	
	
	
	
	
	
	
	
	
	
	
	
	
	
	
	
	
	
	
	
	
	
	
	
	
	
	
	
	
	
	
	
	
	
	
	
	
	
	
	
	
	
	
	
	
	
	
	
	
	
	
	
	
	
	
	
	
	
	
	
	
	
	
	
	
	
	
	
	
	
	
	
	
	
	
	
	
	
	
	
	
	
	
	
	
	
	
	
	
	
	
	
	
	
	
	
	
	
	
	
	
	
	
	
	
	
	
	
	
	
	
	
	
	
	
	
	
	
	
	
	
	
	
	
	
	
	
	
	
	
	
	
	
	
	
	
	
	
	
	
	
	
	
	
	
	
	
	
	
	
	
	
	
	
	
	
	
	
	
	
	
	
	
	
	
	
	
	
	
	
	
	
	
	
	
	
	
	
	
	
	
	
	
	
	
	
	
	
	
	
	
</defs><sodipodi:namedview
   pagecolor="#ffffff"
   bordercolor="#666666"
   borderopacity="1"
   objecttolerance="10"
   gridtolerance="10"
   guidetolerance="10"
   inkscape:pageopacity="0"
   inkscape:pageshadow="2"
   inkscape:window-width="1600"
   inkscape:window-height="1176"
   id="namedview925"
   showgrid="false"
   inkscape:zoom="3.370209"
   inkscape:cx="53.004599"
   inkscape:cy="148.55131"
   inkscape:window-x="-8"
   inkscape:window-y="-3"
   inkscape:window-maximized="1"
   inkscape:current-layer="measuring_glass_xA0_Image_1_" />
<metadata
   id="metadata3">
	<ns:sfw>
		<ns:slices />
		<ns:sliceSourceBounds
   height="409.551"
   width="281.44"
   y="100.786"
   x="248.884"
   bottomLeftOrigin="true" />
	</ns:sfw>
<rdf:RDF><cc:Work
     rdf:about=""><dc:format>image/svg+xml</dc:format><dc:type
       rdf:resource="http://purl.org/dc/dcmitype/StillImage" /></cc:Work></rdf:RDF></metadata>
<path
   style="fill-rule:evenodd"
   inkscape:connector-curvature="0"
   id="path265"
   d="m 141.52,159.962 c -2.452,5.888 -17.854,2.829 -23.986,2.398 2.089,-4.179 7.081,-2.14 10.394,-2.398 4.035,-0.315 8.853,-0.665 13.592,0 z"
   clip-rule="evenodd" /><path
   style="fill-rule:evenodd"
   inkscape:connector-curvature="0"
   id="path359"
   d="m 151.914,228.723 c -1.081,3.055 -6.106,1.377 -9.595,1.599 -3.52,0.225 -10.258,1.087 -15.991,0.8 -3.175,-0.159 -8.444,1.559 -8.795,-2.398 12.083,1.151 23.894,-2.221 34.381,-10e-4 z"
   clip-rule="evenodd" /><path
   style="fill-rule:evenodd"
   inkscape:connector-curvature="0"
   id="path519"
   d="m 149.515,287.089 c -1.756,2.443 -5.121,-0.922 0,0 l 0,0 z"
   clip-rule="evenodd" /><path
   style="fill-rule:evenodd"
   inkscape:connector-curvature="0"
   id="path887"
   d="m 40.777,388.632 c -6.13,-2.391 -8.33,-0.057 -12.792,-2.399 -0.885,-0.464 3.258,-1.027 3.198,-0.799 0.254,-0.967 -8.083,-2.349 -3.998,-3.998 -6.093,0.837 -11.972,1.887 -19.189,1.599 -1.333,0 -2.665,0 -3.998,0 0.247,-1.085 2.001,-0.663 3.198,-0.799 4.716,-2.214 15.294,1.435 17.59,-3.198 -7.228,-2.261 -15.151,0.688 -22.387,-0.8 5.167,-2.296 13.894,-1.03 19.988,-2.398 -1.725,-0.94 -3.671,-1.659 -5.597,-2.398 0.717,-1.682 1.243,-3.555 2.398,-4.798 -2.445,-0.58 -2.352,1.38 -4.797,0.8 0.11,-3.088 3.121,-3.275 6.396,-3.198 -5.071,-1.857 -13.586,-0.272 -19.988,-0.8 3.496,-3.33 10.634,0.959 15.991,-2.398 -0.016,-2.383 -3.772,-1.025 -4.797,-2.398 2.134,-1.632 2.344,-1.454 1.599,-4.798 2.665,0 5.331,0.001 7.996,0 -0.595,-1.803 -4.485,-0.312 -6.396,-0.799 0.473,-2.925 -0.042,-3.659 3.198,-4.798 -0.192,-1.406 -1.375,-1.822 -3.198,-1.599 0.817,-1.848 3.676,-1.654 6.396,-1.6 -0.205,-1.66 -3.513,-0.218 -3.998,-1.599 0.953,0.791 3.914,-3.419 1.599,-1.6 2.653,-2.085 3.073,-2.928 9.595,-2.398 -5.674,-2.588 -15.241,-1.282 -23.187,-1.599 -0.8,0 -1.599,0 -2.399,0 -0.799,0 -1.599,0 -2.398,0 0.248,-1.085 2.002,-0.663 3.198,-0.8 2.665,0 5.33,0 7.995,0 3.211,-0.786 7.016,-0.979 11.194,-0.8 -2.083,-0.082 -4.931,-2.009 -7.996,-2.398 -5.188,-0.66 -12.107,1.836 -15.191,-1.599 9.658,-0.502 13.027,0.337 21.588,0.799 -0.1,-1.766 -3.392,-0.339 -4.797,-0.799 6.229,-3.44 18.529,-0.502 27.984,-1.6 -9.925,-2.334 -25.232,0.714 -35.18,-1.599 -2.399,0 -4.797,0 -7.196,0 -2.444,-1.236 3.468,-0.704 4.797,-0.8 4.797,0 9.595,0 14.392,0 -8.301,0.039 -12.148,-4.376 -20.788,-3.998 0.68,-0.827 10.046,-1.866 13.592,-2.398 -3.754,-2.729 -11.329,1.17 -14.392,-0.8 13.854,-3.203 33.212,-0.901 49.572,-1.599 -5.758,-2.963 -14.216,-1.217 -23.187,-0.8 -8.612,0.401 -17.215,-0.077 -24.786,-0.8 7.148,-3.245 19.914,-0.873 29.583,-1.599 -8.439,-1.954 -20.947,0.159 -29.583,-1.599 9.25,-1.428 21.688,-1.123 29.583,-1.6 -8.373,-1.267 -21.286,-1.202 -28.783,-0.8 0.997,-2.315 4.836,-2.166 7.196,-2.398 8.374,-0.822 19.998,0.618 28.784,0 -7.749,-2.187 -20.866,0.175 -29.583,-0.8 -2.139,-0.238 -5.757,-0.088 -6.396,-2.398 19.546,-1.212 37.051,2.433 50.371,-0.8 -13.333,-0.426 -34.854,0.863 -49.572,-0.799 13.907,-4.387 33.12,1.16 47.973,-1.6 -2.589,-2.972 -7.335,-0.973 -11.993,-0.799 -5.732,0.213 -12.4,-0.8 -18.39,-0.8 -36.857312,0.14669 17.695065,-1.75691 28.783,-1.6 -2.096,-2.145 -6.444,-0.828 -10.394,-0.799 -10.649,0.078 -26.507,0.324 -34.38,-0.8 40.941239,1.13185 28.084009,2.88707 36.779,-95.148 -0.547,-41.738 2.427,-84.866 -3.198,-121.531 -0.426,-2.775 0.177,-5.988 0,-8.795 -1.037,-16.422 -8.114,-31.156 -12.793,-43.175 -1.209,-3.106 -0.485,-7.4 0,-11.993 C 40.068,6.027 72.269,4.139 99.144,0.853 c 20.365,-2.49 46.119,1.141 65.563,2.398 5.794,0.375 10.536,-0.665 14.392,2.398 2.773,0.642 3.073,-1.19 5.597,-0.799 6.387,2.469 12.339,4.937 19.189,7.196 4.001,1.32 8.801,1.733 12.792,3.198 2.505,0.919 4.559,3.309 7.196,3.998 14.151,3.699 29.06,1.111 40.776,8.795 7.285,9.144 -10.444,12.695 -17.59,16.79 -11.561,6.625 -16.309,12.173 -22.387,23.187 -5.38,9.748 -5.417,13.978 -9.595,27.984 -0.032,27.61 0.247,56.902 -0.8,84.752 -0.276,7.348 1.518,14.846 0.8,22.387 -0.211,2.211 -1.51,4.892 -1.6,7.196 -0.273,7.049 1.739,13.963 1.6,20.788 -0.078,3.812 -0.996,6.422 -0.8,11.193 0.531,12.913 -1.139,27.019 -0.8,37.579 -4.384,7.863 -5.686,16.954 -10.394,25.585 -3.686,6.758 -8.913,13.283 -15.191,18.39 -2.776,2.259 -5.229,3.068 -8.795,5.597 -1.005,0.713 -1.007,2.84 -3.198,2.398 1.479,1.188 3.799,1.532 6.396,1.6 2.139,0.237 -2.125,-3.102 1.599,-2.398 3.246,-0.226 1.805,0.292 1.6,2.398 5.638,0.546 9.146,3.595 14.392,2.398 -5.058,1.54 2.365,5.726 5.597,3.998 -1.776,2.177 0.897,5.022 3.998,4.797 0.474,4.323 3.105,6.489 4.797,9.595 2.411,19.322 -7.618,32.803 -23.187,36.779 1.368,1.829 6.104,0.293 8.795,0.799 -11.548,-0.896 -24.072,4.728 -39.178,5.598 -15.128,0.871 -29.333,0.612 -43.975,1.599 0.345,1.788 3.94,0.324 5.597,0.8 -7.828,3.565 -16.884,-4.82 -19.989,0 -11.468,-0.74 -23.569,1.106 -35.18,-0.8 -0.572,-2.171 3.771,0.572 3.198,-1.599 -4.299,-1.298 -10.119,-1.075 -15.191,-1.6 -0.225,-1.291 0.756,-1.376 0.8,-2.398 -3.746,0.374 -9.073,0.854 -7.996,-2.398 -5.664,0.378 -8.376,-0.966 -12.792,0 -1.273,-0.812 4.528,-1.282 5.597,-2.399 z M 247.059,24.839 C 240.274,23.644 232.519,23.992 225.471,22.44 219.779,21.187 214.06,17.872 208.681,16.044 183.497,7.484 145.979,1.119 115.934,4.85 109.471,2.625 95.816,2.141 91.148,6.449 c -1.393,-3.844 -3.141,-1.091 -5.597,0 -2.092,-1.68 -4.849,-1.044 -8.795,-0.8 -12.56,0.78 -52.249,7.029 -48.772,22.388 1.027,4.537 10.414,7.314 19.189,9.594 8.041,2.089 16.243,4.186 24.786,4.797 26.272,1.882 45.342,5.027 68.761,3.998 15.679,-0.689 31.261,-1.659 43.175,-3.998 13.269,-2.605 24.893,-8.37 35.979,-10.394 16.259,-2.969 31.497,2.233 42.376,0.799 -2.432,-6.982 -10.223,-7.119 -15.191,-7.994 z m -175.1,30.383 c -2.846,-1.684 -1.887,-7.174 -3.998,-9.594 0.05235,27.071757 -4.884367,-2.298266 -9.594,-1.599 3.435359,14.893104 -0.240539,2.366858 -2.398,-1.599 -6.408,1.074 -12.938,-5.947 -15.991,-0.8 -0.436,-4.628 -6.14,-3.987 -8.795,-6.396 7.05,22.126 12.827,45.456 11.992,71.159 -0.211,6.505 -1.252,14.156 -0.799,20.788 0.173,2.533 1.539,4.739 1.599,7.196 0.287,11.744 -0.352,19.752 0,29.583 1.013,28.287 -0.368,70.044 0.799,95.146 0.734,15.775 1.507,26.488 4.797,35.979 0.949,2.735 1.224,6.55 2.399,8.795 3.672,7.016 15.021,16.308 21.587,20.788 2.291,1.563 4.331,3.479 6.396,4.797 12.359,7.893 26.263,11.875 41.576,12.793 13.296,0.797 27.552,-1.24 38.378,-4.797 9.814,-3.226 27.684,-14.699 33.581,-22.388 8.227,-10.726 16.059,-29.999 17.59,-47.173 0.491,-5.501 -0.849,-11.313 -0.8,-17.59 0.307,-39.064 -0.104,-86.512 1.6,-123.13 0.738,-15.86 -1.476,-31.049 1.599,-43.975 2.392,-10.053 9.195,-16.397 11.993,-26.385 4.716,-2.837 6.436,-8.185 11.194,-11.193 6.625,-4.189 15.374,-5.371 22.387,-9.595 -6.722,-1.357 -14.89,0.457 -19.188,-1.599 -5.292,1.878 -10.415,1.024 -15.191,1.599 -7.885,0.949 -14.335,4.734 -21.588,3.998 0.697,2.563 -1.23,2.5 -2.398,3.198 -0.076,-1.256 0.106,-2.772 -1.6,-2.398 -1.32,0.012 -0.447,2.218 -1.599,2.398 -4.187,-1.358 -5.543,2.317 -11.194,0.8 -1.362,0.503 -1.315,2.416 -2.398,3.198 -5.454,-2.843 -11.216,3.323 -16.79,0 -1.32,0.012 -0.447,2.218 -1.6,2.398 -0.881,-2.605 -7.232,-2.233 -7.195,0.8 -1.339,-1.061 -2.679,-2.119 -5.597,-1.599 -3.013,2.194 -1.747,0.102 -4.797,0 2.126,0.071 -2.79,0.904 -2.399,0.799 -4.731,1.267 -1.976,0.278 -7.196,0 -1.572,-0.239 -1.585,1.08 -2.398,1.599 -2.396,-3.575 -4.588,1.764 -6.396,-2.398 -0.388,0.945 -0.853,1.812 -1.599,2.398 -1.855,-1.17 1.562,-2.534 -1.599,-2.398 -1.32,0.012 -0.447,2.218 -1.599,2.398 -2.53,-3.83 -3.25,0.284 -6.396,-2.398 -1.32,0.012 -0.447,2.218 -1.599,2.398 -1.428,-3.895 -2.638,-1.463 -4.797,0 -0.654,-5.712 -21.392,-3.594 -23.986,-1.599 0,-0.799 0,-1.599 0,-2.398 -4.093,-0.562 1.353,3.418 -1.599,3.998 -2.21,-0.189 -0.287,-4.511 -3.198,-3.998 -2.800413,8.917021 -0.01217,-0.370835 -3.198,0 -4.350126,13.168319 1.919366,1.860449 -4.798,-0.8 3.080939,16.489909 -3.113613,2.14199 -3.198,2.399 0.842,0.832 1.649,5.71 -0.002,6.397 z M 51.171,311.875 c -2.841,-0.714 -11.153,-2.358 -11.993,0 3.997,0 7.995,0 11.993,0 z m -18.39,3.199 c 2.212,1.056 2.745,-3.161 1.599,-0.8 -1.12,-0.06 -3.057,0.179 -1.599,0.8 z m 17.591,-0.8 c -1.406,0.46 -4.698,-0.966 -4.797,0.8 1.405,-0.46 4.697,0.967 4.797,-0.8 z m 14.391,6.396 c -4.688,-1.609 -7.678,2.78 0,0 z m -9.595,0 c -1.405,0.46 -4.697,-0.966 -4.797,0.8 1.406,-0.46 4.698,0.967 4.797,-0.8 z m -35.979,2.399 c -8.955,0.306 1.12,1.873 4.797,0 -1.707,0.039 -3.291,-0.051 -4.797,0 z m 38.378,1.599 c -8.019,-1.47 -17.585,-2.572 -27.185,-0.8 9.948,-0.618 17.466,1.192 27.185,0.8 z m -23.986,1.599 c -7.685,0 -16.014,-1.302 -21.588,1.6 11.957,-0.094 25.504,-1.041 35.979,-0.8 3.791,0.088 7.345,2.229 8.795,-0.8 -7.138,0 -15.327,0 -23.186,0 z m 31.182,3.998 c 2.43,-0.502 6.887,1.023 7.996,-0.8 -4.449,-0.739 -0.709,-1.459 0.799,-2.398 -4.547,-1.775 -4.593,2.054 -8.795,3.198 z m -19.989,-1.598 c -1.629,1.834 -6.64,0.289 -9.594,0.799 -1.599,0 -3.198,0 -4.797,0 -1.734,-0.577 -5.088,0.817 -1.599,0.8 6.93,0 13.859,0 20.788,0 -0.029,-2.57 -2.274,-0.357 -4.798,-1.599 z m 13.593,4.796 c -0.679,-0.679 -2.281,0.581 -2.398,0.8 -0.757,1.404 2.95,-0.247 2.398,-0.8 z m 133.524,6.397 c -6.404,-1.167 -10.599,-3.824 -16.791,-2.398 2.737,2.383 10.158,-0.833 11.993,3.997 -3.11,0.406 -6.545,-2.995 -7.995,-1.599 0.712,0.469 4.561,1.68 2.398,2.398 -3.32,0.11 -0.161,0.526 0,1.599 -1.162,0.438 -4.133,-0.934 -3.998,0.8 2.322,1.698 9.06,3.172 7.996,5.597 -3.012,-1.526 -3.386,-1.526 -6.396,0 -4.417,-1.713 -7.584,-4.676 -11.193,-7.195 -8.544,3.449 -18.432,5.555 -28.784,7.195 -2.691,0.507 -7.426,-1.03 -8.795,0.8 3.198,0 6.396,0 9.595,0 9.159,-1.238 20.24,-4.807 27.984,-4.797 -2.965,3.331 -8.157,2.16 -12.793,3.198 -1.48,0.331 -1.988,1.313 -3.198,1.599 -10.77,2.539 -25.058,2.738 -39.178,2.398 1.836,1.909 13.698,0.685 18.39,2.398 -10.506,2.302 -23.472,-1.404 -32.781,0 3.321,0.677 6.898,1.098 9.594,2.399 -3.464,0 -6.929,0 -10.394,0 -2.511,-0.188 5.562,1.539 7.196,2.398 -5.32,1.33 -11.334,-3.385 -13.592,0 0.941,0.125 2.27,-0.138 2.399,0.8 -1.657,0.476 -5.252,-0.988 -5.597,0.799 0.945,0.388 1.812,0.853 2.398,1.6 -5.607,-0.534 -13.84,-2.67 -18.39,-1.6 2.499,1.766 7.666,0.863 9.595,3.198 -7.911,0.962 -12.891,-2.438 -15.991,-3.198 -12.687,-3.113 33.198,16.784 0,0.8 1.607,0.773 6.096,2.861 11.193,3.998 1.594,0.355 7.051,-1.342 8.795,2.398 -14.649,-0.275 -24.269,-5.58 -34.38,-10.395 0.996,3.535 5.679,3.383 7.196,6.396 1.333,0 2.666,0 3.998,0 4.07,5.446 17.244,2.386 21.587,7.196 -15.642,-0.083 -25.073,-6.375 -35.18,-11.993 -0.136,1.196 0.286,2.95 -0.8,3.198 -4.033,-3.527 -6.391,-0.374 -9.594,-3.998 -1.04,1.985 2.346,3.318 0,3.998 -0.011,-1.225 -2.182,-2.629 -1.599,0 6.038,-0.167 10.792,5.439 11.193,11.193 3.727,-1.062 3.549,1.781 4.797,3.198 2.19,-1.561 5.085,0.878 7.196,1.599 5.462,1.866 8.611,1.939 14.392,3.198 27.007,5.881 57.794,6.79 84.752,4.798 -1.573,0.952 -0.075,8.065 1.599,5.597 -1.104,-0.391 -1.94,-7.208 0.8,-6.396 1.605,0.892 0.917,6.185 0,7.196 11.99,-1.336 24.565,-2.087 31.981,-7.996 -1.844,0.245 -0.888,-2.31 -2.398,-2.398 -0.183,1.417 0.806,4.004 -1.6,3.198 0,-1.865 0,-3.731 0,-5.597 5.724,-0.577 7.481,-1.954 10.395,-3.998 0.125,0.941 -0.138,2.27 0.8,2.398 -0.518,-7.446 7.266,-6.592 7.195,-13.592 1.022,0.044 1.107,1.024 2.398,0.8 2.086,-10.56 -1.457,-18.278 -7.195,-23.188 -1.711,0.458 -3.822,3.285 -4.797,0 1.588,-1.331 1.017,0.072 3.197,0 -5.518,-6.594 -15.731,-9.811 -24.785,-8.795 5.094,1.572 12.632,0.698 15.192,4.801 z M 70.36,349.455 c 2.105,-0.758 5.323,3.116 3.998,0.799 -1.065,-0.801 -2.413,-1.317 -3.198,-2.398 0.009,-1.057 1.401,-0.73 1.599,-1.599 -3.015,-2.468 4.7,-6.999 0.799,-7.996 -3.701,6.96 -8.694,12.628 -16.791,15.191 2.772,0.427 4.257,2.14 7.196,2.398 -1.081,-5.978 8.34,1.198 6.396,-1.599 -0.746,-0.854 -2.949,-0.249 -2.398,-2.398 3.293,0.378 -0.769,-2.152 2.399,-2.398 z m 87.95,-9.595 c 2.048,-0.085 3.812,-0.453 4.797,-1.6 -1.478,0.198 -6.55,0.811 -4.797,1.6 z m -27.185,7.995 c -0.615,0.108 -5.686,-0.704 -3.998,0.8 2.132,0 4.265,0 6.396,0 1.494,-0.638 2.929,-1.336 4.797,-1.6 3.198,0 6.396,0 9.595,0 5.577,-2.686 13.742,-2.782 18.389,-6.396 -10.715,2.409 -24.992,5.405 -35.179,7.196 z m 3.998,-3.198 c 2.494,0.947 8.514,-0.905 8.795,-1.599 -3.582,-0.118 -6.843,0.086 -8.795,1.599 z m -12.792,3.198 c -5.122,-0.923 -1.756,2.442 0,0 z m -7.996,3.998 c 4.276,-0.521 10.645,1.05 13.592,-0.8 -2.802,0.831 -11.346,-2.641 -13.592,0.8 z m -67.162,8.795 c -2.524,-3.199 -1.942,-5.253 -3.998,-7.995 -1.532,3.362 1.385,6.422 3.998,7.995 z m 10.394,-2.398 c -3.232,-2.813 -1.885,2.572 0,0 z m 27.185,2.398 c 3.096,-0.145 -1.854,-0.987 -4.797,-1.6 -0.461,-0.096 -12.752,-2.344 -8.795,0 6.017,0.242 9.43,1.793 13.592,1.6 z m 111.936,23.986 c 0.533,0 1.066,0 1.6,0 0.487,-0.046 0.946,-0.119 0.799,-0.8 -1.057,-0.009 -0.73,-1.401 -1.599,-1.599 0.034,1.101 -0.377,1.757 -0.8,2.399 z m -1.599,0.8 c 0.218,-1.089 -0.495,-3.121 -0.8,-1.6 -0.217,1.089 0.496,3.122 0.8,1.6 z m -135.123,9.594 c 3.218,-0.513 8.502,1.04 10.394,-0.799 -3.648,-0.506 -10.057,-0.827 -10.394,0.799 z m 91.948,0 c 2.718,1.37 6.069,-2.369 3.998,-0.799 -1.866,-0.243 -3.446,-1.707 -3.998,0.799 z m -27.185,0.8 c -5.121,-0.923 -1.756,2.442 0,0 z m -31.982,1.599 c -5.121,-0.923 -1.756,2.442 0,0 z"
   clip-rule="evenodd"
   sodipodi:nodetypes="cccccccccccccccccccccccccccsccccccccccccccccccccccccccccccccccccccccscccccccsccccccccccccccccccccccccccccccccscccccccccssccscccccccscsccsccsccccsccccccccccccccccccccccccccccccccccccccccccccccccccccccccscccscccccccccccccccccccccccccccccccccccccccccccccccccccccccccccccccccccccccccccccccccccccccccccccccccccccccccccccccccccccccccccccccccccccc" /><path
   style="fill-rule:evenodd"
   inkscape:connector-curvature="0"
   id="path891"
   d="m 124.729,315.874 c 1.224,1.798 -8.243,-0.278 -8.795,2.398 1.18,3.056 5.184,1.533 7.196,1.599 8.117,0.266 15.877,-1.779 23.187,-0.799 4.145,0.556 10.088,2.381 16.79,0.799 -1.521,3.161 -5.363,1.381 -7.995,1.6 -11.19,0.931 -25.544,0.945 -39.178,0.8 -2.663,0.251 2.407,3.789 -1.599,3.198 -3.263,-2.269 -1.638,-7.167 -1.599,-10.395 0.28,-23.083 1.545,-71.837 0.8,-96.745 -0.919,-30.717 0,-54.049 0,-86.351 0,-5.084 -2.346,-12.796 2.398,-15.191 1.631,13.215 1.12,21.589 0.799,33.581 7.296,-0.985 19.328,-0.637 28.784,-0.8 2.749,-0.047 6.358,-2.365 7.995,0.8 -2.844,3.133 -8.04,1.396 -11.993,1.599 -8.033,0.412 -16.516,1.563 -23.986,0.799 -1.856,4.54 -0.273,12.52 -0.8,18.39 8.498,-0.873 26.286,-1.369 35.98,-0.799 -2.343,3.1 -8.095,1.959 -12.793,2.398 -5.139,0.48 -16.005,1.868 -22.387,0 -1.835,1.63 -0.29,6.64 -0.8,9.595 9.712,0.48 15.773,-1.735 23.187,-0.8 -5.906,5.048 -14.56,2.045 -22.387,2.399 -1.823,1.108 -0.298,5.565 -0.8,7.995 7.15,0.098 17.461,-0.636 27.984,-0.799 3.039,-0.047 7.077,-2.275 8.794,0.799 -0.843,2.078 -5.349,1.507 -7.995,1.599 -9.715,0.338 -20.297,0.293 -27.984,0 -2.025,2.925 -0.354,5.135 -1.599,7.996 5.103,0.44 15.588,-0.306 23.187,0 -2.821,5.174 -14.889,1.102 -21.587,2.398 -2.13,1.328 -0.823,5.37 -0.8,7.196 6.599,0.511 17.896,-0.699 27.984,-0.8 2.726,-0.027 6.116,-1.548 7.196,0.8 -2.189,3.098 -8.564,1.37 -13.592,1.599 -7.095,0.322 -15.505,2.061 -21.588,0 -1.501,1.896 1.008,4.624 -0.799,7.196 5.214,1.351 16.766,-1.788 22.387,0 -2.759,4.534 -16.317,2.206 -21.588,1.599 0,5.064 0,10.128 0,15.191 3.724,1.606 14.365,-1.594 20.789,0.8 -2.427,4.347 -15.106,2.334 -19.989,1.599 -1.814,0.851 -0.304,5.026 -0.8,7.196 10.005,-1.192 25.512,-1.135 34.38,-0.8 -2.915,4.126 -10.396,2.398 -16.79,2.398 -6.291,0 -12.855,0 -18.39,0 -0.247,2.913 0.127,5.204 0.799,7.196 4.851,1.277 15.694,-2.288 21.588,0 -2.959,4.334 -16.186,2.337 -21.588,1.6 0,2.398 0,4.797 0,7.195 5.154,-0.47 10.729,0.238 16.791,0 5.91,-0.232 14.026,-3.438 17.59,1.6 -10.007,0.968 -23.309,2.744 -33.581,0.799 -2.32,2.059 -0.784,3.814 -0.8,7.196 4.335,0.074 9.947,-1.036 15.991,-0.8 2.173,0.085 6.166,-1.286 6.396,1.6 -1.58,2.325 -6.882,1.625 -10.394,1.599 -4.012,-0.03 -8.42,0.269 -11.993,-1.599 0,2.665 0,5.33 0,7.995 13.704,0.274 22.696,-0.137 33.582,0.8 -2.305,4.248 -9.334,2.398 -15.192,2.398 -5.841,0 -12.583,0 -17.59,0 -1.788,0.345 -0.324,3.94 -0.8,5.597 4.17,0.961 18.16,-1.878 22.387,1.6 -4.434,3.514 -15.639,0.994 -21.587,0.799 -1.803,0.596 -0.312,4.485 -0.8,6.396 9.326,-1.072 30.202,2.487 38.378,-2.398 -2.684,-1.848 -8.781,-0.28 -12.793,-0.8 4.104,-2.035 9.893,-2.633 15.991,-1.599 -2.96,2.863 0.331,5.025 4.797,4.797 -4.219,3.662 -12.629,-1.801 -14.392,3.998 -9.104,-1.122 -21.469,0.014 -31.982,-1.6 -0.139,2.805 -0.661,5.992 3.198,4.798 0.36,2.226 -4.358,-0.627 -3.998,1.599 1.238,3.052 5.963,0.928 9.595,0.8 4.828,-0.17 10.936,-0.541 15.191,0.8 -0.262,4.157 -7.121,2.376 -11.193,2.398 -4.758,0.026 -9.97,0.323 -12.793,-0.8 -1.679,4.283 2.28,4.878 7.998,3.999 z"
   clip-rule="evenodd" />
</svg>