<?xml version="1.0" encoding="UTF-8" standalone="no"?>
<!-- Created with Inkscape (http://www.inkscape.org/) -->
<svg
   xmlns:dc="http://purl.org/dc/elements/1.1/"
   xmlns:cc="http://web.resource.org/cc/"
   xmlns:rdf="http://www.w3.org/1999/02/22-rdf-syntax-ns#"
   xmlns:svg="http://www.w3.org/2000/svg"
   xmlns="http://www.w3.org/2000/svg"
   xmlns:sodipodi="http://sodipodi.sourceforge.net/DTD/sodipodi-0.dtd"
   xmlns:inkscape="http://www.inkscape.org/namespaces/inkscape"
   width="248"
   height="312"
   id="svg5887"
   sodipodi:version="0.32"
   inkscape:version="0.44.1"
   version="1.0"
   sodipodi:docbase="C:\Documents and Settings\Will\Desktop\Glasses\!Artwork"
   sodipodi:docname="Old Fashioned Glass.svg">
  <defs
     id="defs5889" />
  <sodipodi:namedview
     id="base"
     pagecolor="#ffffff"
     bordercolor="#666666"
     borderopacity="1.0"
     gridtolerance="10000"
     guidetolerance="10"
     objecttolerance="10"
     inkscape:pageopacity="0.0"
     inkscape:pageshadow="2"
     inkscape:zoom="0.35"
     inkscape:cx="375"
     inkscape:cy="520"
     inkscape:document-units="px"
     inkscape:current-layer="layer1"
     inkscape:window-width="853"
     inkscape:window-height="573"
     inkscape:window-x="329"
     inkscape:window-y="153" />
  <metadata
     id="metadata5892">
    <rdf:RDF>
      <cc:Work
         rdf:about="">
        <dc:format>image/svg+xml</dc:format>
        <dc:type
           rdf:resource="http://purl.org/dc/dcmitype/StillImage" />
      </cc:Work>
    </rdf:RDF>
  </metadata>
  <g
     inkscape:label="Layer 1"
     inkscape:groupmode="layer"
     id="layer1">
    <g
       id="g5853">
      <path
         style="fill:#fafafa"
         d="M 0,156 L 0,0 L 124,0 L 248,0 L 248,156 L 248,312 L 124,312 L 0,312 L 0,156 z "
         id="path5885" />
      <path
         style="fill:#f5f5f5"
         d="M 70,306.37873 C 21.335055,303.41905 13.491644,301.74543 9.9811321,293.57202 C 8.4576679,290.02498 8.1559365,284.6009 7.6407444,251.5 C 7.3154508,230.6 6.5825707,197.975 6.0121221,179 C 5.1693675,150.96721 4.3819929,109.47421 2.7779891,8.5679662 C 2.7492127,6.7576753 3.5316603,4.9879059 4.823166,3.9421081 C 5.9736474,3.0105047 6.7465431,2.0799199 6.540712,1.8741419 C 6.3348808,1.6683638 59.524825,1.616165 124.74059,1.7581443 C 210.08331,1.9439416 243.69099,2.3285807 244.65735,3.1305891 C 246.15563,4.3740534 246.48605,11.074167 245.12187,12.55 C 244.6389,13.0725 243.95746,38.925 243.60757,70 C 243.25767,101.075 242.54567,138.65 242.02535,153.5 C 241.50502,168.35 240.59565,203.9 240.00453,232.5 C 239.4134,261.1 238.47755,286.79556 237.92486,289.60125 C 236.01137,299.3149 231.00155,301.56012 204.5,304.58103 C 192.33942,305.96722 178.71021,306.33086 132.5,306.50205 C 101.15,306.6182 73.025,306.5627 70,306.37873 z M 74.032536,294.4608 C 75.878703,292.2363 76.536863,270.09809 75.057597,259.98133 C 74.16237,253.85883 74.14344,251.45837 74.983799,250.62325 C 75.720931,249.89071 82.268421,249.44196 93.807047,249.33315 C 111.25621,249.16861 177.076,248.09413 180.00912,247.92594 C 180.83913,247.87835 181.96413,247.94699 182.50912,248.07846 C 184.57311,248.57641 192.32938,244.99751 192.43168,243.5 C 192.55512,241.69313 175.17574,241.05511 127.5,241.11627 C 69.453473,241.19073 75,241.40301 75,239.10699 C 75,238.06583 75.7875,236.82833 76.75,236.35699 C 77.7125,235.88564 107.075,235.38246 142,235.23881 C 176.925,235.09515 207.6257,234.93048 210.22378,234.87286 C 215.88449,234.74733 218.04363,232.90077 216.12395,229.82686 C 213.85631,226.1958 213.8008,215.15497 215.78039,161.5 C 216.85587,132.35 217.83566,104.45 217.9577,99.5 C 218.07974,94.55 218.63061,86 219.18185,80.5 C 219.73309,75 220.40427,57.7875 220.67337,42.25 L 221.16264,14 L 218.08132,14 C 215.57711,14 214.98447,14.421411 214.91708,16.25 C 214.87148,17.4875 214.65175,27.5 214.4288,38.5 C 214.20585,49.5 213.55169,74.025 212.97511,93 C 212.39852,111.975 211.98015,133.575 212.04538,141 C 212.1864,157.05122 210.14604,218.7437 209.3912,221.25198 C 208.99019,222.58454 208.22191,222.85164 206.18198,222.36767 C 202.17087,221.41605 200.00419,219.05587 199.96456,215.59501 C 199.94508,213.89276 199.28602,211.375 198.5,210 C 196.29831,206.14854 196.56723,200.92593 199,200.28975 C 200.59793,199.87188 201,198.92573 201,195.58337 C 201,193.28252 201.52649,190.87351 202.16997,190.23003 C 203.06326,189.33674 203.0419,188.15699 202.07963,185.24128 C 200.06047,179.12316 201.74116,162.28963 204.60878,159.90972 C 206.45198,158.38 206.38576,153.56504 204.5,152 C 203.675,151.31531 203,149.94668 203,148.95859 C 203,147.97051 202.25752,145.86838 201.35004,144.28718 C 200.17169,142.23403 199.89881,140.35295 200.39535,137.70614 C 200.97306,134.62666 201.50568,134 203.54531,134 C 205.33333,134 206,133.45682 206,132 C 206,130.66667 205.33333,130 204,130 C 202.88889,130 202,130.66667 202,131.5 C 202,132.325 201.6051,133 201.12244,133 C 200.63979,133 199.68469,132.325 199,131.5 C 198.03397,130.336 198.02208,129.67832 198.94695,128.56392 C 199.83714,127.49131 199.8562,126.59983 199.02226,125.0416 C 197.77123,122.70402 198.63696,111.28703 200.21639,109.2938 C 200.74208,108.6304 200.84474,107.5578 200.44454,106.91026 C 200.04434,106.26272 199.62672,104.24757 199.5165,102.43214 C 199.40628,100.61672 198.56998,97.992646 197.65805,96.600869 C 195.86043,93.857348 195.37268,86 197,86 C 197.55,86 198,85.1 198,84 C 198,82.722669 197.33333,82 196.15499,82 C 193.75069,82 191.42151,79.260506 190.62853,75.5 C 190.2806,73.85 189.84649,59.585444 189.66385,43.800986 L 189.33177,15.101973 L 192.41588,14.711023 C 194.17299,14.488289 193.08569,14.251215 189.88889,14.160037 L 184.27778,14 L 183.72655,20.079003 C 183.42338,23.422454 182.88641,26.446922 182.53329,26.800042 C 181.15655,28.176788 179.95358,24.249683 180.22012,19.248637 L 180.5,13.997273 L 173.5,14.013949 C 168.67088,14.025454 166.96519,14.326539 168,14.9848 C 169.16647,15.726809 169.25191,16.339653 168.38425,17.740945 C 167.60157,19.005 167.54911,21.476857 168.2085,26.021458 C 169.27865,33.397025 168.33754,58.013476 166.9305,59.45 C 166.354,60.038582 166,58.421711 166,55.2 C 166,50.666667 165.74359,50 164,50 C 162.66667,50 162,50.666667 162,52 C 162,53.111111 162.66667,54 163.5,54 C 165.55951,54 165.63049,62.820828 163.57732,63.608704 C 161.00263,64.596705 158.6199,73.870058 160.0048,77.512614 C 160.60712,79.096845 160.32807,79.938536 158.90609,80.826574 C 157.71419,81.570928 157,83.149599 157,85.039859 C 157,86.8044 156.37558,88.302381 155.5,88.638374 C 153.81967,89.283178 153.51726,93.702552 154.99626,96 C 155.84557,97.319286 156.33539,97.289167 159.06199,95.75 C 163.55809,93.211953 164,93.484903 164,98.8 C 164,104.59392 162.78921,106 157.8,106 C 154.6471,106 154,106.34592 154,108.03138 C 154,109.14865 153.325,110.32179 152.5,110.63837 C 151.52758,111.01153 151,112.56247 151,115.04797 C 151,119.40437 149.94379,120.45369 146.44316,119.57509 C 144.67357,119.13095 144,118.27791 144,116.48095 C 144,114.35085 143.54039,113.99844 140.75,113.98899 C 138.9625,113.98294 135.8125,113.69906 133.75,113.35815 L 130,112.73832 L 130,117.36916 L 130,122 L 122,122 C 115.55556,122 114,122.29167 114,123.5 C 114,124.57018 112.91111,125 110.2,125 C 105.85102,125 104,123.5968 104,120.3 C 104,118.41111 104.53623,118 107,118 C 109.33333,118 110,117.55556 110,116 C 110,114.23451 109.33333,114 104.31445,114 C 97.432639,114 94,111.50401 94,106.5 C 94,102.645 89.916061,98.138925 88.305325,100.21669 C 87.758154,100.92251 87.029737,102.2875 86.686619,103.25 C 85.973598,105.25014 83.056851,105.63405 82.887922,103.75 C 82.826278,103.0625 82.869095,97.647699 82.983069,91.717108 C 83.11832,84.679335 82.784831,80.445663 82.022889,79.52758 C 81.380817,78.75393 81.000501,76.856231 81.177742,75.310472 C 81.479016,72.683009 81.760468,72.52259 85.5,72.846912 C 87.7,73.037713 89.65,73.600213 89.833333,74.096912 C 90.016667,74.59361 91.029167,75 92.083333,75 C 93.688272,75 94,74.268116 94,70.5 C 94,66.666667 93.703704,66 92,66 C 90.449143,66 90,66.666667 90,68.968615 C 90,71.196542 89.62574,71.793613 88.5,71.361626 C 86.680868,70.66356 86.520552,68.334371 88.25,67.729433 C 89.166219,67.408951 89.032707,66.764868 87.75,65.317359 C 86.455561,63.85661 86,61.605853 86,56.671259 C 86,50.313535 85.88826,50 83.622445,50 C 82.314789,50 80.765728,49.422646 80.180087,48.716992 C 79.539427,47.945044 79.041366,40.831902 78.929712,30.859564 L 78.744139,14.285145 L 67.982617,13.631536 C 62.06378,13.272051 56.608849,13.213158 55.860548,13.500662 C 54.762834,13.922413 54.477703,19.327894 54.384581,41.481829 C 54.285594,65.03105 54.037439,69.293915 52.641536,71.424333 C 51.127055,73.735722 51.135079,73.979832 52.756955,74.935906 C 53.891287,75.60458 54.131076,76.231715 53.443589,76.731704 C 52.862563,77.154267 51.463608,78.175 50.3348,79 C 46.697453,81.65839 43.13503,99.801697 45.739099,102.40577 C 46.145603,102.81227 46.525013,105.40348 46.582231,108.16401 C 46.698431,113.77016 44.942473,115.53093 42.382326,112.37543 C 40.989241,110.65838 40.908113,110.96448 41.421678,116 C 41.730194,119.025 41.986527,124.3125 41.991308,127.75 C 41.999649,133.74768 42.100927,134 44.5,134 C 46.860349,134 47,134.30393 47,139.44098 C 47,142.43352 46.55,145.16008 46,145.5 C 44.506091,146.42329 44.793396,149.58364 46.5,151 C 49.31703,153.33793 47.500405,181.41839 44.29074,185.14962 C 42.434437,187.30757 43.604228,194.00495 46.15215,195.8067 C 47.426324,196.70773 48.018507,198.41524 48.059611,201.3067 C 48.092397,203.61302 48.503128,207.525 48.972347,210 C 49.441566,212.475 50.150273,216.19768 50.54725,218.27262 C 51.343927,222.43674 49.526075,225.45471 45.232067,227.09683 C 43.984704,227.57385 42.549962,229.05349 42.04375,230.38493 C 41.537539,231.71636 40.645609,233.10099 40.061683,233.46188 C 39.477757,233.82276 39,234.98657 39,236.04811 C 39,237.85717 39.556285,237.9387 47.871618,237.34847 C 58.593746,236.58739 62,237.25064 62,240.0995 C 62,241.58149 60.85716,242.60981 57.933968,243.75807 L 53.867936,245.35526 L 58.183968,247.42763 C 62.379817,249.44229 62.503101,249.63784 62.611374,254.45021 C 63.052126,274.04019 64.30971,293.66825 65.192233,294.73163 C 66.658358,296.4982 72.489912,296.31954 74.032536,294.4608 z M 89.542025,224.65439 C 87.213526,222.95175 88.138153,220 91,220 C 93.623194,220 94.713117,222.71545 92.841249,224.58732 C 91.62593,225.80264 91.126246,225.8128 89.542025,224.65439 z M 167.05763,211.80902 C 167.08933,209.98906 167.48758,206.7 167.94263,204.5 C 168.71155,200.78259 168.77813,200.9727 168.885,207.19098 C 168.94825,210.87102 168.55,214.16008 168,214.5 C 167.40664,214.86672 167.02343,213.77245 167.05763,211.80902 z M 167,137.55902 C 167,135.05156 167.45,133 168,133 C 168.55,133 169,134.77344 169,136.94098 C 169,139.10852 168.55,141.16008 168,141.5 C 167.38919,141.8775 167,140.34372 167,137.55902 z M 46,124.91667 C 46,121.29711 46.359946,119.95187 47.25,120.24499 C 48.75455,120.74049 49.391181,124.30527 48.563828,127.60171 C 47.514909,131.78094 46,130.1944 46,124.91667 z M 85.63948,114.30615 C 84.686465,113.35313 84.866915,111 85.893011,111 C 87.119821,111 88.104658,113.81728 87.095806,114.44079 C 86.646541,114.71845 85.991194,114.65786 85.63948,114.30615 z M 166,87.5 C 166,79.830434 167.30323,77.551161 168.52026,83.092232 C 169.33881,86.819097 168.25227,95 166.93873,95 C 166.42243,95 166,91.625 166,87.5 z M 55.621937,84.174639 C 55.179435,82.895691 55.083475,81.583191 55.408694,81.257973 C 56.445303,80.221363 57.173941,81.749884 56.794046,84.164136 L 56.426486,86.5 L 55.621937,84.174639 z M 165.58295,71.134215 C 165.15218,70.437212 165.06979,69.596877 165.39986,69.266802 C 166.29483,68.371841 167.27063,69.688105 166.78725,71.138246 C 166.44853,72.154421 166.21298,72.153632 165.58295,71.134215 z M 181.74119,66.378416 C 181.44662,65.895287 181.04685,57.662524 180.8528,48.083387 C 180.5834,34.783842 180.79548,30.568266 181.75,30.250053 C 183.32627,29.724562 183.21239,28.583792 183.52199,48 C 183.76089,62.982535 183.2,68.771055 181.74119,66.378416 z M 139.25,264.253 C 132.5125,264.07999 121.4875,264.07999 114.75,264.253 C 108.0125,264.42601 113.525,264.56756 127,264.56756 C 140.475,264.56756 145.9875,264.42601 139.25,264.253 z M 203,244 C 203,243.45 202.55,243 202,243 C 201.45,243 201,243.45 201,244 C 201,244.55 201.45,245 202,245 C 202.55,245 203,244.55 203,244 z M 40.53047,182.56503 C 40.136055,177.30427 39.517847,173.00021 39.156675,173.00046 C 38.56804,173.00088 38.387639,189.5028 38.92164,194.5 C 39.126235,196.4146 39.180457,196.4067 40.191475,194.31503 C 40.870189,192.91086 40.991328,188.71202 40.53047,182.56503 z M 39,147.44098 C 39,146.64844 38.55,146 38,146 C 37.45,146 37,146.92656 37,148.05902 C 37,149.19148 37.45,149.83992 38,149.5 C 38.55,149.16008 39,148.23352 39,147.44098 z M 38,132.55902 C 38,131.21648 37.597153,129.86906 37.104785,129.56476 C 35.928133,128.83755 34.903933,131.58608 35.638374,133.5 C 36.537638,135.84345 38,135.26077 38,132.55902 z M 36.793551,94.5 C 36.405004,92.3 36.067504,85.914058 36.043551,80.309017 C 36.01934,74.643677 35.555917,69.843576 35,69.5 C 32.984116,68.254115 33.332926,115.91467 35.365931,119.5 C 36.278536,121.10944 36.597641,119.25425 37,110 C 37.275,103.675 37.182098,96.7 36.793551,94.5 z M 118,91.883369 C 118,90.352772 117.25076,90 114,90 C 110,90 110,90 110,86 C 110,82.666667 109.66667,82 108,82 C 106.66667,82 106,82.666667 106,84 C 106,85.111111 106.66667,86 107.5,86 C 108.57911,86 109,87.103731 109,89.933578 C 109,93.477026 109.27274,93.900318 111.75,94.20153 C 115.95893,94.713298 118,93.956254 118,91.883369 z M 151,84 C 151,82.533333 150.33333,82 148.5,82 C 146.66667,82 146,82.533333 146,84 C 146,85.466667 146.66667,86 148.5,86 C 150.33333,86 151,85.466667 151,84 z M 158,62.5 C 158,58.666667 157.7037,58 156,58 C 154.2963,58 154,58.666667 154,62.5 C 154,66.333333 154.2963,67 156,67 C 157.7037,67 158,66.333333 158,62.5 z M 34.749405,34.782799 C 34.852789,29.07918 34.540144,23.082252 34.05464,21.456292 C 33.436717,19.386856 33.146121,22.642558 33.085953,32.309017 C 33.038679,39.903976 33.351323,45.900904 33.780718,45.635524 C 34.210113,45.370143 34.646022,40.486417 34.749405,34.782799 z M 165.66228,26.75 C 165.38487,26.0625 165.15789,26.625 165.15789,28 C 165.15789,29.375 165.38487,29.9375 165.66228,29.25 C 165.93969,28.5625 165.93969,27.4375 165.66228,26.75 z M 160,15.043855 C 161.41642,14.615084 156.64869,14.285634 149,14.283757 C 140.83102,14.281752 136.88212,14.567977 139,15.00858 C 143.64066,15.974019 156.85393,15.996214 160,15.043855 z M 110.75,14.283746 C 109.2375,14.054621 106.7625,14.054621 105.25,14.283746 C 103.7375,14.51287 104.975,14.700336 108,14.700336 C 111.025,14.700336 112.2625,14.51287 110.75,14.283746 z M 122.76166,14.31292 C 121.80557,14.062627 120.00557,14.053546 118.76166,14.292739 C 117.51775,14.531932 118.3,14.736717 120.5,14.747817 C 122.7,14.758916 123.71775,14.563212 122.76166,14.31292 z M 132.72917,14.395833 C 132.39687,14.063542 131.53438,14.028015 130.8125,14.316886 C 130.01477,14.636112 130.25172,14.873069 131.41667,14.921053 C 132.47083,14.964474 133.06146,14.728125 132.72917,14.395833 z M 122.26903,7.3440633 C 121.592,7.0701402 120.242,7.0534659 119.26903,7.3070093 C 118.29606,7.5605527 118.85,7.7846716 120.5,7.8050513 C 122.15,7.825431 122.94606,7.6179864 122.26903,7.3440633 z "
         id="path5883" />
      <path
         style="fill:#ebebeb"
         d="M 73.5,305.92935 C 38.838734,304.757 23.694072,302.92522 15.934752,298.96671 C 8.7527971,295.30275 8.8724139,296.11647 7.8655452,244.074 C 2.8600255,-14.648546 3.1003756,6.6886771 5.1668974,4.5 C 7.0316874,2.5249794 8.5244387,2.4967247 124.68537,2.2377592 C 235.26059,1.9912463 242.43076,2.0798587 244.23784,3.7152465 C 245.69371,5.0327822 245.99887,6.1884695 245.49533,8.4774873 C 244.83837,11.463939 244.04271,39.86454 242.04879,131.5 C 239.76268,236.56375 238.91223,268.10274 238.03386,280.3944 C 237.14277,292.86402 237.01196,293.39245 234.06277,296.43524 C 230.32488,300.29176 225.97906,301.51585 208.96764,303.50378 C 181.19351,306.74943 126.63055,307.72639 73.5,305.92935 z M 182.91667,299.58624 C 182.07305,298.74852 162.4342,298.28798 160.5,299.06056 C 159.32916,299.52824 163.64772,299.88857 170.91667,299.92971 C 177.74583,299.96837 183.14583,299.81381 182.91667,299.58624 z M 76.17249,295.25 C 78.737097,292.22257 80,285.6127 80,275.21731 C 80,268.42177 80.37962,265.04013 81.172136,264.77595 C 81.816811,264.56106 80.916811,263.79397 79.172136,263.0713 C 76.135817,261.81362 74.741795,259 77.154988,259 C 77.84603,259 77.645185,258.26542 76.654988,257.17126 C 74.656004,254.96241 74.530925,252.63419 76.330984,251.14027 C 77.245945,250.38092 94.671648,249.84652 132.08098,249.43058 C 174.34669,248.96063 187.65101,248.51 191.65391,247.41275 C 194.48856,246.63574 199.55106,246 202.90391,246 C 207.5406,246 209,245.65557 209,244.56127 C 209,241.53855 187.38541,240.52768 128,240.77308 C 98.177788,240.89631 77.907026,240.60109 77.008359,240.03045 C 74.128196,238.20159 77.717249,236.71737 86.848992,235.96095 C 91.772275,235.55313 113.05782,235.38117 134.15021,235.57881 C 226.29379,236.44225 216.44526,236.75348 218.02979,232.92809 C 218.78723,231.09945 219.24765,226.14158 219.16739,220.67809 C 219.09323,215.63014 219.03356,209.1375 219.03478,206.25 C 219.036,203.35165 218.58078,201 218.0185,201 C 216.29221,201 216.89456,196.15838 218.75,195.12022 C 220.6663,194.04802 220.7664,193.54506 221.6233,180.68344 C 222.10348,173.47616 222.47973,171.97011 223.68459,172.43246 C 224.83583,172.87423 225.03451,172.39626 224.59216,170.24902 C 224.28069,168.73706 223.93705,164.125 223.82852,160 C 223.71999,155.875 223.15543,152.18124 222.57395,151.79164 C 221.85054,151.30694 221.90876,150.69124 222.75836,149.84164 C 224.21866,148.38134 224.44939,139 223.025,139 C 222.48875,139 222.27037,137.7625 222.53971,136.25 C 222.80905,134.7375 223.22222,130.8 223.45786,127.5 C 223.6935,124.2 224.34228,119.475 224.8996,117 C 226.38682,110.39536 226.22956,108.87279 224,108.28975 C 221.77431,107.70772 221.21612,104 223.35419,104 C 224.39214,104 224.6544,102.26865 224.4772,96.586406 C 224.35004,92.508929 224.58165,86.546429 224.99189,83.336406 C 225.67512,77.990202 225.74878,77.856959 225.86888,81.75 C 225.97613,85.226133 226.349,86 227.91667,86 C 228.97083,86 230.10082,86.5625 230.42775,87.25 C 230.75469,87.9375 230.79833,87.375 230.52474,86 C 230.25115,84.625 230.02116,81.39239 230.01365,78.816422 C 230.00094,74.454382 229.81121,74.111122 227.25,73.816422 C 225.06771,73.565323 224.5,72.983898 224.5,71 C 224.5,69.03574 225.07118,68.433942 227.16537,68.191744 C 230.47999,67.808401 230.63419,67.280702 230.19929,57.809471 C 229.8777,50.80597 229.65202,50.091295 227.67308,49.809471 C 225.54261,49.506069 225.5,49.176443 225.5,33 L 225.5,16.5 L 228.75,16.186642 C 230.5375,16.014294 232,15.492893 232,15.027972 C 232,14.128754 222.52465,14.012367 112,13.553987 C 73.225,13.393175 37,13.583515 31.5,13.976964 C 25.763361,14.387341 23.63168,14.75957 26.5,14.850052 L 31.5,15.007779 L 31.5,42.959079 C 31.5,67.988281 31.323867,71.045742 29.8152,72.20519 C 28.466667,73.24157 28.116511,75.2963 28.060817,82.5 C 28.022547,87.45 28.077528,92.85 28.182997,94.5 C 28.288466,96.15 28.306818,102.225 28.223778,108 C 28.140739,113.775 28.168918,130.74274 28.286399,145.70608 C 28.479383,170.28625 28.668579,173.03706 30.246582,174.20608 C 31.726576,175.3025 31.834491,176.07015 30.953601,179.23543 C 30.210446,181.90579 30.234476,183.56961 31.037879,185.07078 C 32.214334,187.269 32.944753,192.09005 33.375506,200.5 C 33.516359,203.25 34.558319,207.56771 35.690972,210.09492 C 37.962125,215.16238 37.647771,220.32173 34.541157,228.96629 C 33.611206,231.55399 33.197678,234.62353 33.557999,236.26407 C 34.143947,238.93187 34.420401,239.06582 38.33995,238.58095 C 51.170473,236.99374 57.539522,236.92029 59.462253,238.33737 C 61.131545,239.56766 61.225238,240.02368 60.089808,241.39179 C 59.355725,242.2763 58.247711,243.00251 57.627555,243.00558 C 57.0074,243.00864 54.7,243.51789 52.5,244.13723 L 48.5,245.2633 L 53.837823,247.01947 C 56.773625,247.98537 59.674972,249.27497 60.285261,249.88526 C 61.023744,250.62374 61.412457,257.98448 61.447438,271.89248 C 61.495489,290.9966 61.663491,292.97073 63.404988,294.89504 C 65.898047,297.6498 73.949926,297.87366 76.17249,295.25 z M 221.08595,92.45 C 221.1709,88.546326 221.18232,88.534903 222.05992,91.476033 C 222.60906,93.316399 222.57626,94.823736 221.97397,95.426033 C 221.34201,96.057989 221.03018,95.012948 221.08595,92.45 z M 211.232,44 C 211.232,42.075 211.4378,41.2875 211.68933,42.25 C 211.94085,43.2125 211.94085,44.7875 211.68933,45.75 C 211.4378,46.7125 211.232,45.925 211.232,44 z M 37.078947,21.416667 C 37.126931,20.251724 37.363888,20.014767 37.683114,20.8125 C 37.971985,21.534375 37.936458,22.396875 37.604167,22.729167 C 37.271875,23.061458 37.035526,22.470833 37.078947,21.416667 z M 157.59812,265.46479 C 169.09415,264.62042 178.95,263.78613 179.5,263.6108 C 180.05,263.43546 167.675,263.38236 152,263.49279 C 105.22849,263.82228 87.439164,264.13259 88.561307,264.59938 C 90.473852,265.39497 111.23572,266.71515 124.09812,266.85906 C 131.02709,266.93658 146.10209,266.30916 157.59812,265.46479 z M 30,60 C 30,57.8 29.55,56 29,56 C 27.89364,56 27.608409,62.275076 28.666667,63.333333 C 29.834463,64.501129 30,64.087285 30,60 z M 29,41.277759 C 29,39.34854 27.206475,39.745681 26.035184,41.934259 C 24.380423,45.026207 24.833766,46.122759 27,44.267972 C 28.1,43.326122 29,41.980527 29,41.277759 z M 28.797717,24.170631 C 29.074839,18.426871 28.946377,18 26.940729,18 C 25.386761,18 24.955253,18.441007 25.393011,19.581787 C 25.726855,20.451771 26,23.414271 26,26.165121 C 26,33.711919 28.420633,31.986253 28.797717,24.170631 z M 74.25,7.2677949 C 71.9125,7.0572601 68.0875,7.0572601 65.75,7.2677949 C 63.4125,7.4783298 65.325,7.6505856 70,7.6505856 C 74.675,7.6505856 76.5875,7.4783298 74.25,7.2677949 z M 143.25,7.2514478 C 133.2125,7.0883369 116.7875,7.0883369 106.75,7.2514478 C 96.7125,7.4145586 104.925,7.5480129 125,7.5480129 C 145.075,7.5480129 153.2875,7.4145586 143.25,7.2514478 z M 176.25,7.3377193 C 175.5625,7.060307 174.4375,7.060307 173.75,7.3377193 C 173.0625,7.6151316 173.625,7.8421053 175,7.8421053 C 176.375,7.8421053 176.9375,7.6151316 176.25,7.3377193 z M 213.75,7.2715316 C 211.6875,7.0557874 208.3125,7.0557874 206.25,7.2715316 C 204.1875,7.4872758 205.875,7.6637938 210,7.6637938 C 214.125,7.6637938 215.8125,7.4872758 213.75,7.2715316 z "
         id="path5881" />
      <path
         style="fill:#e3e3e3"
         d="M 82,305.93486 C 30.991878,304.52078 15.980248,301.93573 10.959516,293.70145 C 9.1981401,290.8127 9.0047136,288.54651 8.9791927,270.5 C 8.9636368,259.5 8.5177559,237.225 7.9883463,221 C 7.0731748,192.95242 4.2759931,58.43039 3.8652868,22.713869 C 3.7438125,12.150021 4.0583642,5.5416358 4.713867,4.886133 C 5.2867496,4.3132504 7.2729906,3.5160183 9.1277359,3.1145061 C 14.90864,1.8630656 240.50618,1.6653483 242.83124,2.9096846 C 245.64681,4.4165279 246.36063,7.3841363 244.70511,10.700021 C 243.59368,12.926126 243.26756,21.185878 243.11393,51 C 242.88173,96.060971 240.84348,185.24169 238.15121,268.13648 C 237.42763,290.41528 237.37387,290.83666 234.74858,294.80373 C 232.57958,298.08131 231.09256,299.11653 226.79058,300.34385 C 208.41007,305.58768 150.34895,307.82968 82,305.93486 z M 172.97264,300.46672 C 197.39332,299.65862 194.69626,297.93366 166.60477,296.39401 C 158.0291,295.92399 155.19897,295.46816 156.46334,294.76058 C 157.42793,294.22077 159.96828,294.05912 162.10857,294.40137 C 165.70962,294.9772 166,294.84703 166,292.65687 C 166,291.08985 167.8291,288.56023 171.41307,285.17065 C 175.54398,281.26382 176.69661,279.55584 176.27926,277.95989 C 175.97847,276.80967 176.28697,274.8323 176.96482,273.56573 C 178.73298,270.2619 177.91051,267.56928 174.98978,267.09976 C 173.43521,266.84985 175.69277,266.0629 181,265.00467 L 189.5,263.30983 L 179.71215,262.53316 C 174.32884,262.10599 168.25384,262.0193 166.21215,262.34051 C 164.17047,262.66173 144.15172,262.98767 121.72605,263.06484 C 90.23199,263.17321 80.606518,262.91833 79.43367,261.94495 C 78.380223,261.07067 78.234443,260.36556 78.957618,259.64238 C 80.504332,258.09567 80.234154,257.20909 78,256.5 C 75.778565,255.79494 75.305993,252.54703 77.25,251.34536 C 77.9375,250.92039 88.85,250.46066 101.5,250.32374 C 114.15,250.18681 141.88506,249.88865 163.13347,249.66115 C 197.84192,249.28955 202.18856,249.0615 205.91689,247.41657 C 208.57063,246.24574 209.96015,245.02937 209.77091,244.04281 C 209.43697,242.30185 204.17684,241.4799 186.75,240.44558 C 178.49165,239.95542 176,239.48217 176,238.40377 C 176,236.82095 180.58265,236.54994 198,237.10275 C 214.21925,237.61753 215.91753,237.51104 217.55181,235.87676 C 219.90316,233.52541 222.71303,214.34664 225.00573,185 C 226.1444,170.425 227.50524,154.675 228.02982,150 C 228.55439,145.325 228.98728,138.04789 228.9918,133.82864 C 228.99631,129.60939 229.66091,117.90939 230.46868,107.82864 C 232.43056,83.345104 233.78191,59.548627 234.51929,36.5 C 234.85361,26.05 235.33264,16.779366 235.5838,15.89859 C 235.97327,14.532792 234.52942,14.201099 225.77023,13.644136 C 211.10136,12.711399 13.787103,12.781082 13.038503,13.719263 C 12.366582,14.561346 13.368716,56.883797 14.525058,76.5 C 14.914117,83.1 15.370503,93 15.539249,98.5 C 15.707996,104 16.272714,114.35 16.79418,121.5 C 17.315645,128.65 17.76521,135.4 17.793211,136.5 C 18.033025,145.92065 19.857907,170.96107 20.364367,171.78054 C 20.716057,172.34959 21.049306,176.11926 21.104919,180.15759 C 21.160533,184.19591 21.53415,187.95 21.93518,188.5 C 22.33621,189.05 23.16946,191.975 23.786846,195 C 24.404233,198.025 25.674505,204.1 26.609674,208.5 C 27.544843,212.9 28.354948,219.875 28.409908,224 C 28.536078,233.46964 29.712406,238.69222 31.844023,239.24655 C 32.754811,239.4834 37.1,239.2853 41.5,238.80632 C 51.357474,237.73326 59.214605,238.11076 59.732163,239.6823 C 60.363761,241.60011 56.37739,243.08473 48.916751,243.7102 C 45.077014,244.03211 41.730038,244.62779 41.479027,245.03394 C 41.228015,245.44008 43.546509,246.08772 46.631235,246.47313 C 53.298642,247.30617 60.803654,250.32475 61.642523,252.51081 C 61.972545,253.37084 61.51913,254.87387 60.634935,255.8509 C 59.428306,257.18421 59.312652,257.91265 60.171272,258.77127 C 61.029892,259.62989 60.974148,260.32622 59.947794,261.5629 C 58.156314,263.72151 57.525544,280.37501 58.910594,288.9469 C 59.606924,293.25639 60.540393,295.74221 61.726144,296.44469 C 69.245114,300.8992 112.56873,302.46553 172.97264,300.46672 z M 78.692934,298.30175 C 80.124618,298.0237 81.27814,296.68726 82.015889,294.45186 C 83.554863,289.78872 84.685004,289.36807 87.50352,292.4093 C 89.142179,294.17744 90.951553,295.00486 93.202251,295.01531 C 97.886944,295.03707 99.576706,296.27858 97.384713,298.08827 C 96.06153,299.18068 95.579597,299.21726 95.254045,298.25 C 95.022654,297.5625 93.944276,297 92.85765,297 C 91.771024,297 91.160081,297.45 91.5,298 C 91.894424,298.63819 89.292666,298.95073 84.309017,298.86382 C 80.014058,298.78892 77.48682,298.53599 78.692934,298.30175 z M 79.166873,239.70107 C 76.300389,236.24717 80.505305,235.92411 126.81613,236.04026 C 151.46318,236.10207 172.22009,236.51799 172.94259,236.96452 C 177.0125,239.47986 171.63996,239.91285 135.71849,239.96449 C 115.24832,239.99392 94.441648,240.29804 89.48144,240.64033 C 82.000871,241.15653 80.241864,240.99635 79.166873,239.70107 z M 218.6214,255.07816 C 220.18077,254.111 219.90525,254.03165 217,254.61117 C 215.075,254.99515 208.325,255.65406 202,256.07539 L 190.5,256.84146 L 203.6214,256.54239 C 211.33685,256.36653 217.51678,255.76328 218.6214,255.07816 z M 36.269032,255.34406 C 35.591999,255.07014 34.241999,255.05347 33.269032,255.30701 C 32.296064,255.56055 32.85,255.78467 34.5,255.80505 C 36.15,255.82543 36.946064,255.61799 36.269032,255.34406 z M 230.98469,245.69098 C 230.97224,243.90975 230.78809,243.78052 230,245 C 228.72681,246.97012 228.72681,249.28687 230,248.5 C 230.55,248.16008 230.99311,246.89602 230.98469,245.69098 z M 231.68311,240.8125 C 231.36389,240.01477 231.12693,240.25172 231.07895,241.41667 C 231.03553,242.47083 231.27187,243.06146 231.60417,242.72917 C 231.93646,242.39687 231.97198,241.53438 231.68311,240.8125 z M 232.68311,235.8125 C 232.36389,235.01477 232.12693,235.25172 232.07895,236.41667 C 232.03553,237.47083 232.27187,238.06146 232.60417,237.72917 C 232.93646,237.39687 232.97198,236.53438 232.68311,235.8125 z M 233.5,7 C 231.06107,5.9519571 70.927195,5.9159153 62.5,6.9615126 C 59.2,7.3709573 96.775,7.7404887 146,7.7826935 C 196.7148,7.8261756 234.63329,7.4869921 233.5,7 z "
         id="path5879" />
      <path
         style="fill:#dbdbdb"
         d="M 91.5,305.9457 C 72.8,305.5741 54.35,304.9604 50.5,304.58192 C 28.396548,302.409 24.215336,301.71682 18.89361,299.34961 C 9.1693801,295.02407 9.3548341,295.88058 8.6412845,252 C 8.3058978,231.375 7.5715631,199.2 7.0094297,180.5 C 6.4472963,161.8 5.5546531,115 5.0257783,76.5 L 4.0641876,6.5 L 6.1428778,4.75 C 8.0967111,3.105114 15.260555,3 125.41078,3 C 215.22462,3 242.88032,3.2803198 243.8,4.2 C 245.18224,5.5822396 245.41762,10.623865 244.13686,11.415413 C 243.66214,11.708809 243.22291,19.272867 243.16079,28.22443 C 242.85651,72.073263 241.81695,133.18741 240.9788,156.5 C 240.46468,170.8 239.76969,196.9 239.43437,214.5 C 238.04427,287.46265 237.64824,292.2089 232.52265,297.33449 C 225.7959,304.06125 169.53891,307.49644 91.5,305.9457 z M 165,301.04178 C 178.475,300.55808 190.2875,299.85266 191.25,299.47418 C 193.91253,298.42719 193.33954,297.00169 190.25,296.98635 C 188.7375,296.97884 186.46915,296.69655 185.20923,296.35905 C 182.94763,295.75323 182.94395,295.72756 184.9201,294.34341 C 186.02099,293.57231 188.62657,289.69709 190.71027,285.73181 C 194.01718,279.43874 194.45441,277.82161 194.14956,273.01111 C 193.95748,269.98 193.34634,266.94496 192.79147,266.26657 C 192.05968,265.37188 192.43039,264.7934 194.14131,264.16015 C 195.43859,263.68001 197.175,263.01843 198,262.68998 C 198.825,262.36153 172.94151,262.35585 140.48114,262.67737 C 88.057763,263.19661 81.319266,263.08962 80.182579,261.71999 C 79.320732,260.68153 79.245261,259.96645 79.951442,259.53001 C 81.598383,258.51214 81.184243,257.19325 79,256.5 C 76.595502,255.73684 76.347293,252.46444 78.627538,251.58943 C 79.522684,251.24593 102.36018,250.73685 129.37754,250.45814 C 203.66545,249.69178 205.86578,249.59044 208.63885,246.80757 C 212.70026,242.7318 210.58496,241.59867 197.28931,240.72779 C 190.80519,240.30307 183.5875,239.90896 181.25,239.85199 C 178.58539,239.78705 177,239.2848 177,238.50562 C 177,236.97255 193.08194,236.57436 203.51183,237.84917 C 207.35532,238.31895 212.15691,238.49941 214.18202,238.25019 C 218.67913,237.69675 219.89909,235.12772 222.3736,221 C 225.47845,203.27346 234.3602,75.287233 235.42007,33 C 235.63373,24.475 236.10249,16.770569 236.46175,15.879042 C 236.86842,14.869858 236.51777,14.028929 235.53268,13.650913 C 233.62545,12.91904 13.505697,12.570044 12.326097,13.297022 C 10.932158,14.156095 14.35097,130.34823 16.054178,140 C 17.259603,146.83092 17.616696,150.45397 19.060301,170.5 C 20.327415,188.09526 26.104399,229.18127 28.199761,235.5 C 29.72753,240.10711 29.440096,240.06148 47.740259,238.60222 C 56.805003,237.87939 58.053214,237.9751 58.613798,239.43596 C 58.962101,240.34362 59.049351,241.28398 58.807685,241.52565 C 58.56602,241.76731 54.347927,242.53541 49.434147,243.23252 C 44.520366,243.92963 40.593066,244.95 40.706813,245.5 C 40.82056,246.05 43.601884,246.95 46.887533,247.5 C 50.173183,248.05 53.192617,248.8375 53.597387,249.25 C 54.002158,249.6625 55.293333,250 56.466667,250 C 60.471214,250 62.886631,255.3388 59.474477,256.64817 C 58.298089,257.09959 58.211681,257.55013 59.096921,258.61678 C 60.662699,260.50343 58.544241,263 55.377555,263 C 54.0699,263 53,263.45 53,264 C 53,264.55 53.3375,264.99906 53.75,264.9979 C 54.1625,264.99675 54.34339,268.03425 54.151977,271.7479 C 53.960565,275.46156 54.284808,280.75 54.872517,283.5 C 55.460227,286.25 56.307213,290.3 56.754709,292.5 C 58.062437,298.92911 61.294829,299.91267 84.312408,300.88533 C 111.13983,302.01898 136.4114,302.06799 165,301.04178 z M 80.526557,239.64308 C 79.010153,238.53426 78.936891,238.15079 80.09851,237.40264 C 81.708071,236.36599 160.59318,235.5135 165.73037,236.47724 C 167.71948,236.8504 168.96373,237.60923 168.73122,238.30736 C 168.4348,239.19737 159.09341,239.5452 131.91701,239.67812 C 111.88765,239.77609 92.542621,240.10928 88.928048,240.41855 C 84.259569,240.818 81.826195,240.5934 80.526557,239.64308 z M 170.5,238 C 170.83992,237.45 171.54148,237 172.05902,237 C 172.57656,237 173,237.45 173,238 C 173,238.55 172.29844,239 171.44098,239 C 170.58352,239 170.16008,238.55 170.5,238 z M 46.827745,256.96341 C 44.81985,255.79179 29.198617,254.39529 30.199805,255.47692 C 30.584697,255.89273 34.409697,256.56759 38.699805,256.9766 C 42.989912,257.38561 46.95,257.76952 47.5,257.82972 C 48.05,257.88992 47.747485,257.50008 46.827745,256.96341 z M 218,255.87716 C 229.36285,253.83113 231.3684,251.53684 232.38468,239.4215 L 232.96528,232.5 L 231.10633,239 C 228.37868,248.53752 227.34304,250.73192 224.79463,252.37368 C 223.26341,253.36015 217.17689,254.2417 206.5,255.02342 C 197.7,255.66772 189.15,256.58213 187.5,257.05544 C 183.43691,258.22095 210.86897,257.1612 218,255.87716 z M 18.979944,252.47583 C 18.284224,251.63754 17.454656,251.21201 17.13646,251.53021 C 16.818263,251.8484 17.219889,252.52739 18.02896,253.03906 C 20.145931,254.37787 20.422537,254.21405 18.979944,252.47583 z M 16.279377,247.96034 C 15.986016,246.83852 15.522552,246.14411 15.249458,246.41721 C 14.708465,246.9582 15.664049,250 16.374996,250 C 16.615766,250 16.572738,249.08215 16.279377,247.96034 z M 180.30902,8.0190375 C 217.92226,8.0064328 236.9092,7.6620998 236.5,7 C 236.09529,6.3451731 204.43406,6 144.77432,6 C 94.665109,6 53.943831,6.2771643 54.282587,6.6159207 C 55.829807,8.1631405 63.215237,8.4843043 92.297391,8.2690375 C 109.45883,8.1420081 149.06406,8.0295081 180.30902,8.0190375 z "
         id="path5877" />
      <path
         style="fill:#d3d3d3"
         d="M 69,305.36437 C 65.425,305.16064 54.246904,304.32732 44.159786,303.51256 C 28.36315,302.23663 24.994012,301.66069 19.86695,299.3598 C 9.2153392,294.57964 9.6025663,296.13943 8.8543493,255 C 8.4992413,235.475 7.6826213,200.58779 7.0396381,177.47287 C 6.3966549,154.35795 5.5237137,106.43295 5.0997688,70.972871 C 4.3450932,7.8494478 4.3696969,6.4633717 6.2752639,4.75 C 8.105516,3.104347 15.213816,3 125.48834,3 C 253.99525,3 246.13306,2.6205238 244.50083,8.7442536 C 243.80311,11.361902 243.14409,37.906661 241.52777,128.49584 C 241.13528,150.49356 240.68203,168.71856 240.52055,168.99584 C 240.35907,169.27313 239.94757,183 239.60611,199.5 C 237.68089,292.53072 237.84653,289.8903 233.58537,295.47696 C 227.87532,302.96322 205.59119,305.13599 131,305.47934 C 100.475,305.61984 72.575,305.56811 69,305.36437 z M 174.5,301.00137 C 183.85,300.46714 192.45652,299.76044 193.6256,299.43092 C 195.24502,298.97447 195.89591,297.7761 196.35884,294.39867 C 196.69303,291.96044 197.72632,288.51079 198.65503,286.73277 C 199.8386,284.46681 200.41958,280.5407 200.59767,273.60483 C 200.75585,267.44471 201.28885,263.43952 202.00972,262.99399 C 202.85087,262.47413 202.80275,262.16488 201.83385,261.86368 C 200.20322,261.35677 169.55815,261.56138 121.23879,262.40179 C 101.29512,262.74867 83.857619,262.75138 82.488786,262.40783 C 79.856408,261.74714 79.149178,259.56372 81.25,258.58333 C 82.118348,258.1781 82.161645,257.83633 81.39181,257.46394 C 80.782306,257.1691 79.432306,256.29693 78.39181,255.52577 C 76.542242,254.15497 76.544657,254.08928 78.5,252.58409 C 80.098771,251.35338 83.408911,251.05686 95,251.10602 C 102.975,251.13984 131.24761,250.85304 157.82801,250.46869 C 205.64376,249.77727 206.18305,249.74661 208.70615,247.57634 C 210.53995,245.99897 211.07307,244.80557 210.60405,243.32784 C 209.86838,241.00993 204.58241,240.02399 192.80902,240.00869 C 186.6606,240.0007 183.65371,238.95009 185.86603,237.5828 C 186.36029,237.27733 191.65513,237.48024 197.63234,238.03371 C 218.00805,239.92044 217.25925,239.99203 219.22778,235.96889 C 223.00912,228.24088 226.44667,204.35387 227.4728,178.67562 C 227.73268,172.17221 228.41337,163.17221 228.98544,158.67562 C 229.55751,154.17903 230.47129,141.275 231.01605,130 C 231.56082,118.725 232.48138,104.55 233.06173,98.5 C 233.64208,92.45 234.27232,83.225 234.46226,78 C 234.6522,72.775 235.32263,62.65 235.95212,55.5 C 236.5816,48.35 236.99976,40.025 236.88136,37 C 236.76296,33.975 237.01561,27.608501 237.4428,22.852225 C 238.1561,14.910589 238.06766,14.16011 236.35976,13.661448 C 234.01125,12.975745 11.286308,12.322512 10.833892,13 C 10.524209,13.463747 10.702775,22.097708 12.374684,87.5 C 13.085927,115.32266 14.819111,142.39403 16.105824,145.77834 C 16.597621,147.07186 17,150.43704 17,153.2565 C 17,164.80666 19.926152,192.0324 23.582294,214.5 C 28.009848,241.70806 27.963455,241.62069 37.153985,240.05943 C 46.442373,238.48156 56.44026,237.95069 57.991641,238.953 C 60.582269,240.62675 57.907084,241.83256 49.187157,242.92152 C 44.615094,243.49249 40.445253,244.22482 39.920845,244.54892 C 38.34276,245.52423 39.950071,247 42.590402,247 C 43.950204,247 45.321791,247.675 45.638374,248.5 C 46.056896,249.59065 47.770011,250 51.915859,250 C 58.235857,250 61.701076,251.73064 60.684646,254.37942 C 60.332473,255.29716 59.062146,256.41138 57.861697,256.85546 C 55.999257,257.54442 55.922655,257.75634 57.339531,258.30005 C 59.44598,259.10837 59.493812,261.59653 57.418213,262.39301 C 56.548229,262.72686 53.510729,263.0522 50.668213,263.116 C 47.825696,263.1798 46.347971,263.44944 47.384379,263.7152 C 49.070636,264.1476 49.206883,264.89767 48.680243,270.8492 C 48.199082,276.28679 48.586229,279.23295 50.80257,287 C 52.293534,292.225 53.842778,297.01125 54.245336,297.63611 C 56.832571,301.65209 128.17107,303.64845 174.5,301.00137 z M 80,239.03915 C 80,238.53253 80.366887,237.89129 80.815304,237.61415 C 83.247573,236.11092 168.30945,236.57164 167.8049,238.08531 C 167.34374,239.46877 80,240.4176 80,239.03915 z M 109.78352,258.26633 C 107.18946,258.06108 102.68946,258.05895 99.783522,258.2616 C 96.877585,258.46424 99,258.63217 104.5,258.63477 C 110,258.63737 112.37758,258.47158 109.78352,258.26633 z M 47.5,256.49442 C 43.1,255.77831 35.480672,254.8769 30.568161,254.49128 C 22.578846,253.86415 21.338938,253.49278 18.818161,250.97201 C 17.268172,249.42202 16,247.24579 16,246.13594 C 16,245.02609 15.55,243.83992 15,243.5 C 12.667643,242.05852 15.001665,251.47013 17.39609,253.16189 C 19.614964,254.72961 40.079219,257.64671 49.5,257.73818 L 55.5,257.79644 L 47.5,256.49442 z M 214.091,256.96847 C 227.58473,255.3132 229.41737,254.51162 230.81729,249.65249 C 232.59687,243.47558 234.00398,235.20023 233.96959,231.11351 C 233.92735,226.09355 232.57651,228.86517 231.10061,237 C 230.45201,240.575 229.52983,244.4 229.05134,245.5 C 228.57285,246.6 227.92188,248.30782 227.60474,249.29515 C 226.5946,252.43993 220.6342,253.94031 204.81128,255.03281 C 196.39007,255.61426 186.575,256.45817 183,256.90817 C 177.38923,257.61442 178.49612,257.74507 191.091,257.86318 C 199.11604,257.93843 209.46604,257.53581 214.091,256.96847 z M 240.5,7.8935189 C 241.05,7.8575355 240.15,7.3500725 238.5,6.7658234 C 236.49734,6.0567022 209.40283,5.6440447 157,5.5245543 C 88.309386,5.3679241 33.557493,6.0863475 48.5,6.94823 C 51.25,7.1068498 54.85,7.5281219 56.5,7.8843902 C 58.67748,8.3545521 233.32075,8.3632165 240.5,7.8935189 z "
         id="path5875" />
      <path
         style="fill:#cbcbcb"
         d="M 72.5,305.02821 C 44.108739,303.90918 27.80176,302.27191 21.476373,299.90528 C 14.640474,297.34764 10.319625,292.57516 9.6042103,286.7922 C 9.3121653,284.43149 8.8619407,266.75 8.6037112,247.5 C 8.3454818,228.25 7.6340699,192.025 7.0227961,167 C 6.4115222,141.975 5.5539513,95.85 5.1170829,64.5 L 4.3227767,7.5 L 6.5216702,5.4181464 L 8.7205637,3.3362928 L 125.93948,3.4872707 C 226.41291,3.6166805 243.28775,3.8426585 244.06388,5.0691243 C 245.27846,6.9884252 245.22556,8.7100122 243.87444,11.234604 C 243.22549,12.447185 242.81991,17.394735 242.91662,22.918862 C 243.15727,36.665285 241.1622,144.15694 240.01972,179 C 239.48771,195.225 238.79128,224.25 238.47209,243.5 C 237.61097,295.43289 237.12382,297.31317 223.7442,300.34618 C 209.14418,303.65584 185.08235,305.09087 138,305.45989 C 112.975,305.65603 83.5,305.46177 72.5,305.02821 z M 153.5,302.00049 C 171.1,301.47648 188.72778,300.53087 192.67285,299.89912 L 199.84571,298.75049 L 201.4822,291.62525 C 202.38227,287.70636 203.54199,283.71861 204.05935,282.76357 C 204.57671,281.80853 205,277.45317 205,273.085 C 205,267.47438 205.42637,264.71649 206.45238,263.69048 C 207.25119,262.89167 207.63815,261.97148 207.31229,261.64562 C 206.98643,261.31977 178.9289,261.33201 144.96223,261.67283 C 110.99556,262.01365 82.408348,261.98694 81.435102,261.61347 C 76.170805,259.59337 85.399799,259.08397 130.50029,258.9053 C 173.15282,258.73633 212.99284,257.73212 221,256.62417 C 229.75597,255.41261 231,254.84838 231,252.08871 C 231,250.60992 231.45571,248.94429 232.0127,248.3873 C 233.08684,247.31316 234.71922,224.0983 233.65227,225.07018 C 233.30799,225.38377 232.32235,229.43377 231.46195,234.07018 C 229.42344,245.05505 227.33017,250.51198 224.66035,251.8012 C 220.05678,254.0242 218.15274,254.2145 172,257.06413 C 145.9156,258.67468 81.154152,257.58272 79.068631,255.4972 C 75.828398,252.25697 79.164868,251.61678 100.24519,251.43391 C 111.38534,251.33727 140.075,250.94109 164,250.55351 C 205.00922,249.88917 207.61821,249.73863 209.56445,247.92441 C 210.6999,246.86599 212.40152,246 213.34584,246 C 214.29015,246 215.34019,245.2125 215.67927,244.25 C 216.01834,243.2875 217.44088,240.9539 218.84047,239.06423 C 220.31457,237.07395 221.68925,233.49783 222.10793,230.56423 C 222.50545,227.7789 223.53718,221.54138 224.40069,216.70306 C 226.40976,205.44593 227.47805,193.22368 230.01237,152.5 C 231.14189,134.35 232.75182,111.85 233.59,102.5 C 236.34443,71.773806 237.01401,61.726032 237.55503,43 C 237.849,32.825 238.22616,22.0972 238.39317,19.160445 C 238.57684,15.930615 238.26283,13.658746 237.59841,13.410516 C 236.99428,13.18481 198.25,12.781791 151.5,12.514919 C 10.163827,11.708102 7.4972542,11.759489 9.6535264,15.248411 C 10.043775,15.879846 10.483803,28.344768 10.631366,42.948238 C 10.891588,68.700907 12.020627,97.154912 13.966492,127 C 15.333129,147.96107 19.705614,195.44094 20.942411,202.75 C 21.524085,206.1875 22.51461,212.0375 23.143578,215.75 C 25.227911,228.05284 27.821463,239.22146 28.827743,240.22774 C 29.484422,240.88442 32.611383,240.84462 38.06913,240.11013 C 49.452997,238.5781 58.283885,238.64083 57.758718,240.25 C 57.522633,240.97339 54.433203,241.8503 50.425385,242.33151 C 42.680798,243.26137 39,244.44436 39,246.00356 C 39,246.5791 40.342696,247.31854 41.983769,247.64675 C 43.624842,247.97497 44.723284,248.63872 44.424752,249.12175 C 44.12622,249.60479 46.783671,250 50.330199,250 C 55.059369,250 57.37347,250.48183 59.010427,251.80736 C 61.107323,253.50532 61.139969,253.71717 59.549783,255.30736 C 57.598099,257.25904 54.979313,257.38722 46.191442,255.96118 C 42.721735,255.39814 35.561302,254.5286 30.279369,254.02888 C 19.054535,252.96691 17.827597,252.12561 15.65339,244 L 14.181729,238.5 L 14.1131,244 C 14.011766,252.12107 15.6064,253.66661 26.007374,255.52808 C 30.678318,256.36405 39.532197,257.32943 45.68266,257.67338 C 51.833123,258.01732 57.454361,258.66278 58.174301,259.10772 C 60.812387,260.73815 57.059865,262.39549 49.249725,263.04936 C 44.987376,263.4062 42.346024,263.76608 43.380052,263.84908 C 45.050601,263.98318 45.17677,264.52932 44.512271,268.75 C 43.460478,275.43065 43.623145,281.02314 44.906586,282.30659 C 45.507964,282.90796 46.006775,284.7725 46.015056,286.45 C 46.034889,290.46756 48.376829,297.07641 50.117957,298.02821 C 53.723007,299.99892 79.601785,301.86846 116.5,302.82377 C 119.25,302.89497 135.9,302.52449 153.5,302.00049 z M 211,241.57332 C 211,240.64569 211.855,240 213.08333,240 C 215.52038,240 215.1759,242.33677 212.66713,242.82332 C 211.68037,243.0147 211,242.50456 211,241.57332 z M 80.591474,239.14801 C 80.272481,238.63187 80.720707,237.93742 81.587531,237.60478 C 84.173755,236.61236 167,236.90484 167,237.9064 C 167,238.42362 156.80254,238.80056 143.25,238.78431 C 130.1875,238.76864 110.87608,239.05521 100.33573,239.42113 C 88.705007,239.82491 80.943467,239.71754 80.591474,239.14801 z M 186.5,239 C 185.79338,237.85667 186.43417,237.77016 194,237.98745 C 202.42504,238.22942 202.65291,240 194.25902,240 C 190.33148,240 186.83992,239.55 186.5,239 z M 202.75,239.33772 C 203.4375,239.06031 204.5625,239.06031 205.25,239.33772 C 205.9375,239.61513 205.375,239.84211 204,239.84211 C 202.625,239.84211 202.0625,239.61513 202.75,239.33772 z M 26,246.05902 C 26,245.54148 25.55,244.83992 25,244.5 C 24.45,244.16008 24,244.58352 24,245.44098 C 24,246.29844 24.45,247 25,247 C 25.55,247 26,246.57656 26,246.05902 z M 156.24938,8.5402139 C 202.86154,8.5180963 240.99904,8.1625 240.99938,7.75 C 240.99972,7.3375 240.12656,7 239.05902,7 C 237.99148,7 236.83992,6.55 236.5,6 C 235.8163,4.8937562 85.210631,4.7874013 55,5.8718281 L 37.5,6.5 L 47,7.3082817 C 52.225,7.7528366 58.075,8.4872948 60,8.940411 C 61.925,9.3935271 65.3,9.4978966 67.5,9.1723432 C 69.7,8.8467897 109.63722,8.5623316 156.24938,8.5402139 z "
         id="path5873" />
      <path
         style="fill:#c3c3c3"
         d="M 82,304.90352 C 31.958861,303.77717 17.999085,301.42494 12.087768,293.12326 C 10.19701,290.46793 9.9993833,288.79037 9.9934645,275.34563 C 9.9898699,267.18053 9.3416279,237.325 8.5529267,209 C 6.6809667,141.77142 4.7165039,30.484063 5.1550842,16.511293 C 5.4876199,5.9170049 5.5897327,5.4809583 8,4.3628063 C 9.8072472,3.5244027 18.888595,3.353345 40.772685,3.7454952 C 57.422661,4.0438531 70.888815,4.4445181 70.697471,4.635862 C 70.506128,4.8272058 59.609329,5.2240043 46.482364,5.5176364 C 33.355398,5.8112685 22.471564,6.1951023 22.296066,6.3706005 C 22.120568,6.5460986 29.86189,6.997445 39.499004,7.3735925 C 57.18933,8.0640659 63.869708,9.2056745 60.966116,11.042103 C 60.159752,11.552102 48.7,11.983156 35.5,12 C 22.3,12.016844 11.032684,12.361235 10.461519,12.765313 C 8.1808461,14.378806 11.729459,111.09546 15.5885,152.5 C 15.844809,155.25 16.726053,165.15 17.54682,174.5 C 19.706272,199.1 21.531734,212.90201 24.424376,226.5 C 27.337282,240.19326 28.866394,242.4723 34.12838,240.96318 C 39.302935,239.47914 56.6352,238.60072 57.367376,239.78541 C 58.076128,240.93219 55.719896,241.55248 46.790467,242.56983 C 43.650224,242.92761 40.319253,243.77729 39.38831,244.45801 C 37.825937,245.60045 37.873744,245.87374 40.009584,248.00958 C 41.944419,249.94442 43.730402,250.41985 50.91174,250.91174 C 58.460954,251.42883 59.5,251.72878 59.5,253.39101 C 59.5,257.02219 56.851939,257.46575 45.852445,255.67704 C 40.1586,254.75111 33.475,253.99249 31,253.99119 C 28.525,253.9899 24.776553,253.51028 22.670118,252.92536 C 18.237455,251.6945 16.43473,248.42975 15.076367,239.17304 L 14.243884,233.5 L 14.121942,242.05887 C 14.044106,247.52202 14.453482,251.23791 15.253761,252.33236 C 16.66169,254.25782 34.158216,257.45312 49.301967,258.55042 C 59.84557,259.31439 60.87812,261.3591 50.920631,261.75578 C 42.406897,262.09494 39.406709,262.80671 40.765084,264.16508 C 41.486607,264.88661 41.502815,266.12778 40.816427,268.09675 C 39.17076,272.81752 41.534683,290.92193 44.350907,295.16603 C 46.562393,298.49878 47.176887,298.72565 57.262564,299.93286 C 92.079069,304.10024 185.92649,303.11939 202.11755,298.4189 C 203.14737,298.11993 203.94896,296.38903 204.32368,293.65513 C 205.22759,287.06038 206.71321,284.05953 209.62157,282.95378 C 212.23554,281.95995 212.26599,281.84167 211.48357,275.72171 C 211.04608,272.29977 210.75872,267.64009 210.84499,265.36687 C 211.05023,259.9587 210.68557,259.87868 189.43003,260.66744 C 177.5718,261.10748 171.77079,260.95891 170.43003,260.18085 C 168.9529,259.32365 172.72391,259.05595 186.5,259.04006 C 203.0482,259.02097 219.29533,257.90507 228,256.18971 C 230.88274,255.62164 231.5,255.0591 231.5,253 C 231.5,251.625 231.92588,249.83746 232.44641,249.0277 C 232.96693,248.21793 233.49213,241.01793 233.61352,233.0277 C 233.73491,225.03746 233.64218,219.85 233.40745,221.5 C 230.7614,240.10012 228.52262,248.49145 225.54742,250.96065 C 222.23967,253.70583 212.84653,254.67109 166,257.07987 C 141.23939,258.35303 82.512085,257.55985 79.878176,255.9167 C 78.883785,255.29636 78.781473,254.60504 79.510774,253.43417 C 80.404531,251.99926 84.745859,251.7586 117.01077,251.35534 C 137.07985,251.1045 166.61865,250.58137 182.65255,250.19282 C 208.34712,249.57016 212.03358,249.27959 213.73129,247.74318 C 214.79069,246.78443 216.35107,246 217.19878,246 C 218.19049,246 219.19833,244.30626 220.02521,241.25 C 220.73203,238.6375 221.72769,235.95909 222.23779,235.29799 C 222.74789,234.63688 222.87976,233.19651 222.53084,232.09715 C 222.18191,230.9978 222.41863,228.16371 223.05686,225.79917 C 223.6951,223.43462 224.59672,219.025 225.06047,216 C 225.52422,212.975 226.36431,207.8 226.92734,204.5 C 227.83339,199.18953 228.68097,187.4098 229.51761,168.5 C 229.66362,165.2 230.47781,153.29748 231.32693,142.04997 C 232.17605,130.80245 232.66705,121.2703 232.41805,120.86741 C 232.16905,120.46452 232.41404,115.94203 232.96246,110.81744 C 235.76585,84.621906 237.11026,65.961966 237.98824,41.061191 C 238.52035,25.969847 238.76601,13.432681 238.53416,13.200823 C 238.3023,12.968965 203.32476,12.624656 160.8063,12.435693 C 118.28783,12.246729 79.225,11.764546 74,11.364174 C 53.560542,9.7979759 74.743343,9.1780505 157.75,8.9131875 C 204.0875,8.7653308 242,8.2743768 242,7.8221786 C 242,7.3699804 241.1551,7 240.12244,7 C 239.08979,7 237.70008,6.3435407 237.03419,5.5412015 C 236.03764,4.3404309 236.27125,3.9700251 238.35491,3.4470583 C 239.74719,3.0976187 241.39344,3.1251253 242.01324,3.5081841 C 244.13666,4.8205255 244.80746,8.4055458 243.43316,11.096782 C 242.70383,12.525012 242.35965,14.659298 242.66832,15.83964 C 243.28873,18.2121 241.45729,125.04749 239.97417,173 C 239.45534,189.775 238.76592,219.025 238.44212,238 C 237.5001,293.20399 236.86145,296.44482 226.32084,299.50906 C 217.59448,302.04588 197.84357,303.88327 167.5,304.98103 C 139.29399,306.00147 130.42175,305.99343 82,304.90352 z M 25.977764,246.25 C 25.965534,245.8375 25.067031,244.375 23.981089,243 L 22.00665,240.5 L 23.10115,243.75 C 24.060332,246.59819 26.039072,248.31786 25.977764,246.25 z M 21.662281,228.75 C 21.384868,228.0625 21.157895,228.625 21.157895,230 C 21.157895,231.375 21.384868,231.9375 21.662281,231.25 C 21.939693,230.5625 21.939693,229.4375 21.662281,228.75 z M 10.97688,7.1589601 C 9.3053724,6.6017908 6.8162933,7.8937393 7.4829784,8.9724585 C 7.8700868,9.5988129 8.8096533,9.5113109 10.05623,8.7328111 C 11.13616,8.0583837 11.550452,7.3501508 10.97688,7.1589601 z M 81.636115,261.22024 C 81.268309,260.62512 81.349788,259.90185 81.817181,259.61299 C 83.156281,258.78538 165.99905,259.41225 165.99955,260.25 C 165.9998,260.6625 165.4375,261.00307 164.75,261.00682 C 164.0625,261.01058 145.23109,261.30359 122.90243,261.65796 C 94.217403,262.11322 82.108625,261.98478 81.636115,261.22024 z M 81.466463,239.13313 C 79.814725,237.48139 84.845573,237 103.75902,237 C 116.67986,237 125.0172,237.36406 124.45,237.90351 C 123.52815,238.78025 82.29318,239.95985 81.466463,239.13313 z M 187.47301,238.95633 C 187.14793,238.43035 187.80852,238 188.94098,238 C 191.35555,238 191.59914,238.55611 189.53203,239.34934 C 188.72464,239.65916 187.79808,239.48231 187.47301,238.95633 z M 157.16188,237.96922 C 158.20957,237.35772 159.68786,237.34554 161.16188,237.93624 C 163.20687,238.75576 162.99852,238.87736 159.5,238.90621 C 156.44993,238.93135 155.89467,238.70883 157.16188,237.96922 z M 131.8125,4.316886 C 132.53438,4.0280154 133.39687,4.0635417 133.72917,4.3958333 C 134.06146,4.728125 133.47083,4.9644737 132.41667,4.9210526 C 131.25172,4.8730687 131.01477,4.6361123 131.8125,4.316886 z "
         id="path5871" />
      <path
         style="fill:#bbb"
         d="M 90,304.9344 C 31.221614,303.75255 20.264888,302.04568 12.542224,292.86781 C 10.024666,289.87586 9.9998637,289.67022 9.985947,271.67327 C 9.9782179,261.67797 9.3306408,231.45 8.5468869,204.5 C 7.763133,177.55 6.5568349,122.03303 5.8662245,81.128964 C 4.6423375,8.6395253 4.6582814,6.7230391 6.4964143,5.3789635 C 7.9237994,4.3352341 12.407817,4.0073925 24.94113,4.0304087 C 45.215793,4.067641 44.367521,5.5662734 23.69371,6.2342121 C 14.672852,6.525662 8.4470371,7.1529629 7.7603765,7.8396235 C 6.103227,9.496773 7.5095998,10.332822 9.8486122,9.0810203 C 12.538172,7.6416114 54.873311,7.6211353 58.651016,9.0574162 C 64.407001,11.245838 58.247343,11.969531 33.735768,11.984687 L 8.9715363,12 L 9.5357916,37.75 C 10.034384,60.50343 11.979052,105.61354 13.512631,130 C 14.66039,148.2513 19.109843,199.71555 19.872834,203.56482 C 20.315979,205.80046 20.589098,210.75046 20.479767,214.56482 C 20.210208,223.96918 22.49715,244.68918 24.005271,246.50635 C 26.203661,249.15525 27.111816,246.91901 25.156805,243.67082 C 23.149405,240.33559 21.675314,229.14339 22.967967,227.05183 C 23.935819,225.48581 24.594851,227.11547 25.538516,233.40828 C 25.92319,235.97347 27.033072,239.05422 28.004921,240.2544 C 29.650391,242.28647 30.10645,242.35628 34.635959,241.26937 C 41.866054,239.53442 55.646776,238.61945 56.391782,239.8249 C 57.073147,240.92737 54.601609,241.56564 45.736785,242.57654 C 42.567016,242.93801 39.64501,243.74366 39.243438,244.36687 C 38.686976,245.23047 38.131972,249.27453 38.453534,250.12254 C 38.47909,250.18993 43.220438,250.52743 48.989863,250.87254 C 57.717782,251.39461 59.533553,251.78261 59.800193,253.18253 C 60.362487,256.1347 56.701423,257.16137 49.769169,255.99551 C 46.321126,255.41562 38.699362,254.53124 32.831915,254.03022 C 26.964468,253.52919 21.217776,252.52993 20.061488,251.80963 C 17.5301,250.23273 16.137344,245.80249 15.316967,236.71771 C 14.406687,226.63733 12.99841,227.53708 13.011006,238.19098 C 13.023216,248.51932 13.850294,255.21056 15.024991,254.48456 C 15.448353,254.2229 19.553424,254.70083 24.14737,255.54661 C 28.741317,256.39239 37.675,257.545 44,258.10797 C 50.325,258.67093 56.162389,259.35115 56.971975,259.61956 C 60.290267,260.71973 55.314985,261.97008 47.5,262 C 43.1,262.01684 38.825,262.46684 38,263 C 37.175,263.53316 37.01511,263.97627 37.644689,263.98469 C 38.42263,263.99509 38.550835,265.05767 38.044842,267.30118 C 36.885553,272.44131 38.480162,289.41974 40.376488,292.12713 C 41.26942,293.40196 42,295.18634 42,296.0924 C 42,299.10234 54.979952,300.51865 103.65726,302.82016 C 128.57251,303.99818 190.52603,301.58177 202.77855,298.95407 C 205.92966,298.27828 208,297.30115 208,296.48972 C 208,295.75021 209.2375,294.17171 210.75,292.98194 L 213.5,290.81871 L 213.5,275.95662 L 213.5,261.09453 L 211.05215,260.47855 C 206.75518,259.39727 210.86177,258.03303 218.5,258.00431 C 222.35,257.98983 227.15152,257.7049 229.17005,257.37113 L 232.8401,256.76426 L 233.38526,248.63213 C 233.68509,244.15946 234.11222,234.425 234.33442,227 C 234.75736,212.86729 234.42346,213.43788 231.46108,231.91018 C 229.62554,243.35586 227.10884,250.358 224.31569,251.79056 C 220.61699,253.68755 214.08158,254.28833 167,257.0594 C 142.18493,258.51993 82.845837,257.37414 80.283833,255.38498 C 78.582347,254.06393 78.592326,253.92714 80.5,252.42173 C 82.014699,251.22642 83.591927,251.0162 87,251.55539 C 92.652684,252.44968 85.975748,252.49644 153,251.09324 C 208.74752,249.92613 210.62893,249.82351 214.73042,247.7263 C 219.4418,245.31724 221.49009,241.15885 222.96927,231 C 223.40972,227.975 224.70229,219.65 225.84165,212.5 C 226.981,205.35 229.07085,181.725 230.48576,160 C 231.90067,138.275 233.95615,109.40021 235.0535,95.833791 C 237.13982,70.040854 239.41165,14.078674 238.41299,13.079164 C 238.09473,12.760624 202.6591,12.398671 159.66716,12.274823 C 83.43091,12.055209 68.233981,11.650735 72.5,9.9548215 C 74.359466,9.2156094 137.45711,8.7807309 210.84925,9.0012976 C 236.12894,9.077271 242.11572,8.8442521 241.77092,7.797756 C 241.53576,7.0839902 240.36609,6.3562021 239.17167,6.180449 C 236.51198,5.7890889 236.33384,4.4074663 238.85797,3.7473935 C 241.73863,2.9940836 244,4.8128577 244,7.8830234 C 244,9.4140272 243.72555,10.941118 243.39011,11.276559 C 243.05467,11.612 242.64965,23.0495 242.49007,36.693226 C 242.02907,76.108098 240.98179,129.6254 239.9401,167 C 239.41124,185.975 238.5354,219.95 237.9938,242.5 C 237.45219,265.05 236.74532,285.17066 236.42296,287.21257 C 235.44519,293.40607 231.11571,298.34122 225.41047,299.76565 C 213.54853,302.72723 158.50947,306.32202 133,305.8013 C 128.875,305.7171 109.525,305.32699 90,304.9344 z M 231.92971,285.75 C 231.96837,285.3375 231.55,285 231,285 C 230.45,285 230.03163,286.2375 230.07029,287.75 C 230.13257,290.18684 230.23844,290.27225 231,288.5 C 231.47269,287.4 231.89106,286.1625 231.92971,285.75 z M 232.98469,270.19098 C 232.97623,264.28601 232.60431,260.07536 232.15389,260.78523 C 230.87759,262.79675 230.68088,282.31526 231.94478,281.53413 C 232.58024,281.14139 232.99391,276.62918 232.98469,270.19098 z M 82,260.30621 C 82,258.89486 83.191613,258.77726 91.75,259.344 C 97.1125,259.69911 108.925,260.04831 118,260.11999 C 129.17665,260.20828 133.04818,260.49499 130,261.00867 C 127.525,261.42575 115.7125,261.80009 103.75,261.84053 C 84.404403,261.90594 82,261.73632 82,260.30621 z M 155.25,260.31067 C 156.2125,260.05915 157.7875,260.05915 158.75,260.31067 C 159.7125,260.5622 158.925,260.768 157,260.768 C 155.075,260.768 154.2875,260.5622 155.25,260.31067 z M 182.58045,259.86984 C 182.87612,259.39143 185.67898,259.00689 188.80902,259.01531 C 192.81117,259.02608 194.05487,259.31422 193,259.98629 C 191.1415,261.17035 181.84093,261.0664 182.58045,259.86984 z M 176.26903,259.30701 C 177.242,259.05347 178.592,259.07014 179.26903,259.34406 C 179.94606,259.61799 179.15,259.82543 177.5,259.80505 C 175.85,259.78467 175.29606,259.56055 176.26903,259.30701 z M 82.106046,238.56062 C 82.841094,237.82557 94.958066,237.62473 95.669144,238.33581 C 96.034448,238.70111 93.033333,239 89,239 C 84.966667,239 81.864388,238.80228 82.106046,238.56062 z M 101.41465,237.9565 C 103.13343,237.44251 104.97975,237.4653 105.91465,238.01204 C 107.04862,238.67521 106.21878,238.92337 103,238.88364 C 98.845578,238.83236 98.723831,238.76116 101.41465,237.9565 z M 109.8125,238.31689 C 110.53438,238.02802 111.39687,238.06354 111.72917,238.39583 C 112.06146,238.72813 111.47083,238.96447 110.41667,238.92105 C 109.25172,238.87307 109.01477,238.63611 109.8125,238.31689 z M 60.75,4.294267 C 61.9875,4.0559141 64.0125,4.0559141 65.25,4.294267 C 66.4875,4.5326199 65.475,4.7276359 63,4.7276359 C 60.525,4.7276359 59.5125,4.5326199 60.75,4.294267 z "
         id="path5869" />
      <path
         style="fill:#b3b3b3"
         d="M 56,303.90405 C 37.221433,302.78209 25.29688,301.19884 21.623852,299.33986 C 15.566117,296.27393 15.015344,295.28501 14.80414,287.09501 L 14.608279,279.5 L 14.255912,286.36134 C 13.910116,293.09471 13.867142,293.18974 11.951772,291.45635 C 10.137066,289.81407 9.9993351,288.24371 9.9905321,269.09501 C 9.9853248,257.76776 9.5513893,235.45 9.0262311,219.5 C 7.8456904,183.64486 6.138426,99.287558 5.5587058,48.166803 C 5.1731923,14.171538 5.2959235,9.8995789 6.6432501,10.416597 C 7.478838,10.737242 9.126066,10.324681 10.303757,9.4997939 C 12.043591,8.2811669 16.421707,8 33.657407,8 C 53.247732,8 61.450286,8.8797901 59.557355,10.777978 C 59.161343,11.17509 47.511433,11.725 33.668666,12 L 8.5,12.5 L 8.6580572,17 C 8.7449887,19.475 9.3126478,37.025 9.919522,56 C 11.51784,105.97424 14.214738,149.75644 18.032286,187.70485 C 18.596911,193.31751 19.475492,206.81751 19.984689,217.70485 C 20.948901,238.32102 22.723362,248 25.538741,248 C 27.224244,248 27.513852,245.43561 25.938317,244.46188 C 24.229956,243.40605 22.840018,238.77356 23.473858,236.24813 C 24.215654,233.29258 25.566888,234.08444 26.334961,237.92481 C 27.195722,242.22861 30.027966,243.40815 35.255111,241.63975 C 37.5898,240.8499 42.2,240.10411 45.5,239.98243 C 58.408657,239.50645 59.469263,240.37337 47.97302,242.00383 C 43.899177,242.5816 39.595947,243.68995 38.410287,244.46683 C 37.224626,245.2437 35.297269,245.62899 34.12727,245.32303 C 32.957272,245.01707 32,245.21674 32,245.76674 C 32,246.31674 32.945277,247.01393 34.100616,247.31606 C 35.255954,247.61819 35.936016,248.29451 35.611863,248.819 C 34.693605,250.30477 38.697478,250.97149 48.627555,250.98635 C 55.620127,250.99681 58.054524,251.36077 59.035174,252.54238 C 61.063921,254.98687 58.750682,256.34377 52.907166,256.13695 C 50.062126,256.03625 47.384791,255.73781 46.957534,255.47375 C 46.530276,255.20969 40.91573,254.56452 34.480764,254.04003 C 27.085658,253.43728 21.919561,252.52209 20.440027,251.55266 C 17.582031,249.68003 16.098282,244.87907 15.324383,235 C 14.241337,221.17456 13.024099,224.1297 13.264858,240 L 13.5,255.5 L 16.699184,255.17996 C 18.458735,255.00394 23.633735,255.54524 28.199184,256.38285 C 32.764633,257.22046 40.899595,258.21452 46.276878,258.59187 C 51.654161,258.96922 56.293219,259.66542 56.585895,260.13898 C 57.284279,261.26899 57.961,261.1562 46.184631,261.87254 L 35.869263,262.5 L 35.439091,269.25599 C 34.911893,277.5358 36.497628,289.44468 38.509869,292.31755 C 39.329441,293.48766 40,295.1961 40,296.1141 C 40,297.0321 41.040228,298.04426 42.311618,298.36336 C 47.665381,299.70707 72.841865,301.89269 90.5,302.54669 C 100.95,302.93373 111.525,303.59113 114,304.00758 C 120.031,305.02237 73.322176,304.939 56,303.90405 z M 13.683114,215.8125 C 13.363888,215.01477 13.126931,215.25172 13.078947,216.41667 C 13.035526,217.47083 13.271875,218.06146 13.604167,217.72917 C 13.936458,217.39687 13.971985,216.53438 13.683114,215.8125 z M 125,304.07863 C 126.925,303.61231 140.2,302.96626 154.5,302.64298 C 179.71761,302.07287 193.61832,301.04208 205,298.89824 C 212.29948,297.52331 214.25993,296.9266 213.61067,296.27733 C 213.31364,295.9803 213.63926,294.92542 214.33427,293.93315 C 215.21603,292.67426 215.51928,288.6446 215.33767,280.59961 C 215.1816,273.68572 215.47853,268.82229 216.07938,268.45094 C 216.63047,268.11035 216.80087,266.94796 216.45806,265.86786 C 216.11525,264.78775 216.37331,263.25512 217.03153,262.46201 C 218.00316,261.29126 217.78357,260.85194 215.86414,260.12659 C 214.01653,259.42837 214.81091,259.21211 219.5,259.13676 C 222.8,259.08374 226.69797,258.87249 228.16215,258.66733 C 229.78158,258.44042 230.69309,258.72628 230.48931,259.39716 C 230.30507,260.00372 229.86535,268.15 229.51215,277.5 C 228.91938,293.1922 228.99512,294.37711 230.49671,292.90256 C 231.84899,291.57464 232.27127,287.44108 232.9996,268.40256 C 234.76419,222.27599 234.9805,210.05856 233.91856,216.5 C 230.52984,237.0549 229.77887,240.9642 228.41102,245.1703 C 227.5587,247.79115 225.8482,250.52467 224.51313,251.39944 C 222.76701,252.54354 215.13235,253.52011 195.81702,255.07002 C 174.21844,256.80314 161.80451,257.1678 126.57857,257.10386 C 102.97179,257.06101 82.83429,256.76479 81.828574,256.44559 C 79.420686,255.68136 79.476869,252.37006 81.908512,251.73418 C 82.958193,251.45968 85.570968,251.55582 87.714679,251.94783 C 89.858389,252.33983 102.38706,252.31141 115.55617,251.88466 C 128.72528,251.45792 155.79765,250.92671 175.71701,250.70421 C 204.33018,250.38459 212.27826,250.01395 213.57366,248.93887 C 214.47546,248.19044 216.13592,247.11051 217.26357,246.53904 C 219.66144,245.32384 221.85308,239.74378 222.97398,232 C 223.41184,228.975 224.69824,220.65 225.83265,213.5 C 227.57794,202.49962 229.4878,180.5031 231.47629,148.5 C 233.12075,122.0338 234.2321,106.31535 235.50638,91.5 C 237.80582,64.765742 237.9777,61.78675 238.53161,39.066229 C 238.819,27.277654 239.29997,16.653006 239.60042,15.455899 C 240.0564,13.639157 239.61797,13.173594 236.94835,12.639671 C 235.18926,12.287852 198.59375,11.968372 155.625,11.929715 C 112.65625,11.891058 76.632902,11.519748 75.573115,11.104581 C 73.85148,10.430138 73.824525,10.281314 75.320065,9.7074211 C 76.240675,9.3541499 113.91884,9.0624525 159.04932,9.0592047 C 204.1798,9.0559568 241.56111,8.7712461 242.1189,8.4265142 C 243.92737,7.3088217 244.30892,8.8787478 242.79753,11.218792 C 241.74958,12.841305 241.56687,14.366245 242.16478,16.5 C 242.62712,18.15 242.80295,20.625 242.5555,22 C 242.30805,23.375 241.84708,49.925 241.53112,81 C 241.21517,112.075 240.74148,141.55 240.47848,146.5 C 239.77875,159.67016 239.11217,183.67284 237.99299,236 C 236.98047,283.34041 236.61718,289.45793 234.67598,291.85665 C 234.07214,292.60281 233.09895,294.17781 232.51333,295.35665 C 229.73731,300.94479 203.6852,304.01888 154.5,304.56206 C 135.20188,304.77518 122.95323,304.57446 125,304.07863 z M 84.5,261.11209 C 81.60727,260.41667 81.660906,260.36792 86,259.7487 C 88.475,259.3955 93.425,259.47098 97,259.91643 L 103.5,260.72635 L 98.375,260.86318 C 95.55625,260.93843 91.95625,261.18749 90.375,261.41665 C 88.79375,261.64581 86.15,261.50876 84.5,261.11209 z M 112.5,260.90429 C 110.73098,260.51059 113.3981,260.22048 119,260.19726 C 124.225,260.17561 128.05,260.31324 127.5,260.50311 C 125.29527,261.26422 115.31646,261.5311 112.5,260.90429 z M 83.8125,238.31689 C 84.534375,238.02802 85.396875,238.06354 85.729167,238.39583 C 86.061458,238.72813 85.470833,238.96447 84.416667,238.92105 C 83.251724,238.87307 83.014767,238.63611 83.8125,238.31689 z M 23,230.05902 C 23,227.64445 23.556111,227.40086 24.349337,229.46797 C 24.65916,230.27536 24.482305,231.20192 23.956326,231.52699 C 23.430347,231.85207 23,231.19148 23,230.05902 z M 5,8.0956844 C 5,7.6635443 5.8229333,6.5652307 6.8287407,5.6549876 C 8.3212571,4.3042787 10.757344,4.0183267 20.078741,4.09968 C 32.979808,4.2122752 31.651483,5.7324853 18.5,5.9064807 C 13.693624,5.9700695 9.4021919,6.5849925 7.75,7.4468576 C 6.2375,8.2358525 5,8.5278245 5,8.0956844 z M 240.5,6.286934 C 236.9314,5.4285733 236.4273,4 239.69301,4 C 241.51986,4 243.02165,4.6140417 243.36163,5.5 C 243.95776,7.0534901 243.83139,7.0882395 240.5,6.286934 z "
         id="path5867" />
      <path
         style="fill:#ababab"
         d="M 66,304.33368 C 50.743898,303.51162 30.960653,301.74896 26.648728,300.82752 C 23.895205,300.23911 20.453588,298.59009 18.689618,297.01398 L 15.58178,294.23713 L 15.170875,275.13323 C 14.81866,258.75797 14.975744,255.94654 16.270664,255.44963 C 17.101546,255.13079 21.993053,255.54756 27.140679,256.37579 C 32.288306,257.20402 39.2,258.14644 42.5,258.47007 C 45.8,258.79369 50.3,259.36034 52.5,259.72929 L 56.5,260.40011 L 51.5,261.11245 C 48.75,261.50424 43.467805,261.86421 39.76179,261.91239 C 33.965397,261.98776 33.050899,262.2446 33.219038,263.75 C 33.326541,264.7125 33.026283,267.29342 32.551799,269.48539 C 31.449571,274.57732 33.496939,287.37488 36.092604,291.61803 C 37.141672,293.33295 38,295.46188 38,296.34898 C 38,298.30279 39.117859,298.57058 55,300.42143 C 67.101891,301.83173 85.363968,302.93565 97.309017,302.97895 C 100.92227,302.99204 102.88442,303.37799 102.5,304 C 101.93118,304.92037 80.520714,305.1161 66,304.33368 z M 124.17308,304.54657 C 124.54328,304.14723 138.26828,303.42414 154.67308,302.93971 C 189.16783,301.92107 218.13305,298.64234 216.46602,295.94503 C 216.16476,295.45757 216.6549,293.63424 217.55523,291.89319 C 218.91723,289.25938 218.98057,288.33222 217.93232,286.37354 C 216.86774,284.38435 216.93779,283.72622 218.38422,282.12794 C 219.46613,280.93244 220.08298,278.62912 220.06064,275.86823 C 219.99144,267.31867 220.5249,264.18741 222.40499,262.10748 C 224.68789,259.58192 227.54392,259.3691 228.42267,261.65907 C 228.77282,262.57156 228.7684,270.22156 228.41284,278.65907 C 227.84397,292.15843 227.95337,294 229.32416,294 C 230.18096,294 231.20897,293.4709 231.60863,292.82423 C 232.0083,292.17755 232.89856,277.66505 233.58699,260.57423 C 234.27541,243.4834 235.14699,223.875 235.52383,217 C 235.90067,210.125 235.93643,204.76304 235.60329,205.08454 C 235.27015,205.40604 234.33608,210.35604 233.52757,216.08454 C 229.6892,243.28049 227.85728,249.83274 223.54233,251.79876 C 222.11773,252.44785 214.77541,253.44203 207.22607,254.00804 C 199.67673,254.57404 187.65,255.47769 180.5,256.01614 C 166.13246,257.09813 93.40839,257.21009 85.5,256.16239 C 82.01662,255.70092 80.5,255.04501 80.5,254 C 80.5,252.72767 83.38386,252.46377 99.5,252.26132 C 109.95,252.13004 139.425,251.65386 165,251.20313 C 208.29206,250.44017 211.74141,250.24967 214.99924,248.44182 C 216.92383,247.37382 218.84039,246.05 219.25828,245.5 C 220.45455,243.92551 223.42925,233.81251 223.67046,230.5 C 223.79061,228.85 224.57738,223.225 225.41882,218 C 226.26027,212.775 227.43039,203.55 228.01909,197.5 C 229.12239,186.1614 229.53979,182.09399 230.48196,173.5 C 230.78344,170.75 231.46864,160.4 232.00462,150.5 C 233.63175,120.44544 235.97694,85.619077 236.51637,83.5 C 236.79638,82.4 237.66496,66.717289 238.44655,48.649532 C 239.22813,30.581774 240.12239,15.544274 240.4338,15.232865 C 240.74521,14.921456 241.31031,14.976981 241.68959,15.356255 C 242.43764,16.104305 240.66237,135.03512 238.98567,196.5 C 236.24776,296.86707 236.7796,286.91696 233.85429,292.50238 C 231.49313,297.01066 230.7114,297.658 225.83591,299.14232 C 222.86472,300.04688 212.34866,301.50147 202.46687,302.37474 C 183.16664,304.08033 123.05963,305.74767 124.17308,304.54657 z M 11.239808,290.3851 C 10.692257,289.32663 10.001057,272.27529 9.6635451,251.5 C 9.3329421,231.15 8.5713778,197.85 7.97118,177.5 C 6.7637141,136.56028 5.3067236,27.065239 5.838821,17.25 C 6.0251725,13.8125 6.5384897,11 6.9795258,11 C 8.0161515,11 8.883096,25.404417 10.049013,62 C 11.275975,100.51167 12.712787,130.06669 13.962504,142.5 C 14.51533,148 15.432657,159.475 16.001009,168 C 16.569361,176.525 17.462143,186.875 17.984968,191 C 18.507793,195.125 19.185261,205.475 19.490451,214 C 20.337451,237.65955 22.139664,248 25.416232,248 C 27.862959,248 28.079477,246.37076 25.986375,243.70981 C 24.84153,242.25437 24.034559,239.76858 24.081574,237.84227 L 24.163148,234.5 L 25.510365,237.56846 C 26.251334,239.25611 27.564625,241.22371 28.428791,241.9409 C 29.292956,242.65809 30,243.83927 30,244.56574 C 30,245.29221 31.000128,246.58711 32.222506,247.4433 C 33.444885,248.29948 34.007385,249.00689 33.472506,249.01531 C 32.937628,249.02373 33.175,249.46684 34,250 C 34.825,250.53316 40.5074,250.97627 46.627555,250.98469 C 54.62495,250.99569 58.064159,251.37238 58.853762,252.32379 C 61.638622,255.67935 55.525823,256.88454 44.933659,255.06828 C 41.945147,254.55583 35.49612,253.8349 30.602489,253.46622 C 19.098376,252.59951 17.749353,251.40365 16.150742,240.65535 C 15.517834,236.39997 15,231.16324 15,229.01817 C 15,226.87309 14.498318,224.80798 13.88515,224.42902 C 13.070464,223.92552 12.893141,232.64587 13.226548,256.81761 C 13.477484,275.01029 13.352536,290.42959 12.948885,291.08271 C 12.433657,291.91636 11.924404,291.7085 11.239808,290.3851 z M 13.692991,216.26903 C 13.439447,215.29606 13.215328,215.85 13.194949,217.5 C 13.174569,219.15 13.382014,219.94606 13.655937,219.26903 C 13.92986,218.592 13.946534,217.242 13.692991,216.26903 z M 85.767909,260.27527 C 87.565259,260.05271 90.265259,260.0573 91.767909,260.28547 C 93.270559,260.51365 91.8,260.69574 88.5,260.69013 C 85.2,260.68452 83.970559,260.49783 85.767909,260.27527 z M 33.531009,244.05017 C 32.447588,242.29716 36.919422,240.94207 45.241525,240.50156 L 53.5,240.06442 L 46.553818,241.52839 C 42.733417,242.33358 39.155917,243.44408 38.603818,243.99618 C 37.333611,245.26639 34.302609,245.29865 33.531009,244.05017 z M 239.40241,13.00241 C 238.75695,12.356951 210.18308,11.976454 158.45241,11.924461 C 114.47858,11.880264 77.6,11.495764 76.5,11.070016 C 74.5,10.295929 74.5,10.295929 76.5,9.7156904 C 77.6,9.3965594 115.73918,9.1182432 161.25373,9.0972098 L 244.00747,9.0589675 L 242.38872,11.529484 C 240.5203,14.381065 240.69493,14.294931 239.40241,13.00241 z M 9.4154524,10.863199 C 8.0286582,8.619319 15.417746,7.8787277 36.161201,8.1825341 C 56.520136,8.4807089 60.409698,8.926121 58.581598,10.75 C 57.520755,11.808393 10.067138,11.917649 9.4154524,10.863199 z M 7.5075087,5.3708511 C 8.7143881,4.4883593 11.896949,4.0357852 16.44113,4.1004511 C 22.319048,4.1840967 22.914449,4.332977 20,4.9903491 C 18.075,5.4245449 14.054871,5.9962249 11.066379,6.2607491 C 6.28302,6.6841447 5.8571166,6.5776473 7.5075087,5.3708511 z M 238,5 C 238,3.699359 241.69616,3.699359 242.5,5 C 242.85052,5.5671581 242.01038,6 240.55902,6 C 239.15156,6 238,5.55 238,5 z "
         id="path5865" />
      <path
         style="fill:#a3a3a3"
         d="M 75.666657,304.36232 C 75.574996,304.2866 69.425,303.93304 62,303.57662 C 40.448286,302.5421 26.155647,301.09187 22.513439,299.57006 C 17.004707,297.26837 16.229253,294.50279 15.576315,274.8295 C 15.129627,261.37062 15.286683,257.01058 16.246447,256.22586 C 17.06524,255.55639 19.407524,255.50946 23,256.09052 C 26.025,256.57979 34.103539,257.67562 40.952308,258.52569 C 47.801077,259.37577 53.613577,260.28024 53.868974,260.53564 C 54.124372,260.79104 51.849344,261 48.813358,261 C 45.777371,261 40.566187,261.28505 37.232948,261.63344 C 31.219322,262.26199 31.16725,262.29481 30.490938,265.88344 C 29.408758,271.62567 28.98355,285.26406 29.850223,286.43411 C 30.284461,287.02035 31.244956,289.41894 31.984656,291.76431 C 32.724357,294.10969 33.8836,296.48843 34.560752,297.05042 C 36.701005,298.82667 53.741205,300.93172 76.5,302.23135 C 88.6,302.92231 97.375,303.58691 96,303.70824 C 92.714393,303.99815 75.881292,304.53963 75.666657,304.36232 z M 132.08333,304.61808 C 132.3125,304.40802 137.9,303.97661 144.5,303.65939 C 151.67348,303.3146 155.49447,303.42812 154,303.94163 C 151.59229,304.76893 131.23322,305.39731 132.08333,304.61808 z M 158.76166,303.29274 C 160.00557,303.05355 161.80557,303.06263 162.76166,303.31292 C 163.71775,303.56321 162.7,303.75892 160.5,303.74782 C 158.3,303.73672 157.51775,303.53193 158.76166,303.29274 z M 173,303.07912 C 174.375,302.59525 178.425,302.15297 182,302.09627 C 194.64652,301.8957 227.2542,295.80072 223.41994,294.35412 C 222.15511,293.87692 222.74284,283.0172 224.1129,281.55 C 224.6008,281.0275 225,279.59156 225,278.35902 C 225,277.12648 225.45,275.83992 226,275.5 C 226.6335,275.10848 227.04581,278.01888 227.125,283.44098 C 227.29103,294.80945 227.22214,294.53625 229.85031,294.24876 C 234.02087,293.79255 231.86115,297.1681 227,298.70369 C 218.8616,301.27452 165.94371,305.56228 173,303.07912 z M 233.59545,274.25 C 233.86336,264.4875 234.51398,245.92118 235.04128,232.99151 C 236.19849,204.61597 236.19304,200.72365 235,203.5 C 234.52731,204.6 234.10894,207.04791 234.07029,208.9398 C 234.03163,210.8317 233.5678,214.8817 233.03955,217.9398 C 232.5113,220.99791 231.38267,227.90273 230.53148,233.28384 C 228.73357,244.65004 226.53147,249.97868 222.91614,251.71146 C 217.52589,254.29494 168.38484,256.97442 128.5,256.85961 C 92.637045,256.75639 80.5,256.05367 80.5,254.08048 C 80.5,252.90677 84.049884,252.62818 101,252.47166 C 112.275,252.36755 141.3,251.94755 165.5,251.53833 C 208.00091,250.81963 209.67035,250.71838 214.5,248.56644 C 219.32803,246.41522 219.57617,246.10061 221.71458,239.4193 C 222.9326,235.61368 224.62341,227.16417 225.47195,220.64259 C 226.32048,214.12101 227.21136,208.46703 227.45168,208.07818 C 227.69201,207.68933 227.96902,205.15016 228.06727,202.43559 C 228.16553,199.72102 228.63463,194.35 229.10974,190.5 C 229.58484,186.65 230.65706,172.7 231.49245,159.5 C 232.32784,146.3 233.48868,128.975 234.07209,121 C 234.65551,113.025 235.53947,100.875 236.03647,94 C 236.53346,87.125 237.41509,70.7 237.99565,57.5 C 239.66247,19.602184 240.05436,14.654364 241.29132,15.891317 C 242.0777,16.677701 242.02159,35.706575 241.08977,84.240552 C 240.37954,121.23325 239.6701,155.325 239.51324,160 C 239.06717,173.29453 238.03557,219.57289 237.46245,252 C 236.98019,279.28652 235.84633,292 233.89504,292 C 233.46235,292 233.32754,284.0125 233.59545,274.25 z M 236.68933,187.25 C 236.4378,186.2875 236.232,187.075 236.232,189 C 236.232,190.925 236.4378,191.7125 236.68933,190.75 C 236.94085,189.7875 236.94085,188.2125 236.68933,187.25 z M 10.943575,288.89457 C 10.189483,287.48554 9.9181529,280.62221 10.123257,268.14457 C 10.291818,257.89006 9.879212,233.975 9.2063546,215 C 6.1799014,129.65213 4.905062,10.205257 7.0346568,11.521419 C 7.603718,11.873118 8.0131584,14.037176 7.9445245,16.330436 C 7.7179199,23.901951 9.9161961,80.261424 10.934987,93 C 11.484827,99.875 12.18455,112.35712 12.489926,120.73805 C 12.795302,129.11897 13.911463,146.44397 14.970284,159.23805 C 16.029105,172.03212 17.36722,190.15 17.943873,199.5 C 19.536989,225.33119 21.207881,241.13919 22.73869,244.86288 C 23.990675,247.90833 24.412983,248.1674 27.212644,247.60747 C 29.619135,247.12617 30.615347,247.43352 31.708763,248.99459 C 32.977331,250.80572 34.246212,251.00148 44.806704,251.01531 C 56.96983,251.03124 59.71269,251.70038 58.677102,254.39908 C 57.894252,256.43915 52.867859,256.46682 43.500374,254.48264 C 39.650579,253.66719 33.717374,253 30.315473,253 C 22.551554,253 19.240564,251.76293 17.955076,248.38184 C 17.400094,246.92213 16.108443,238.47656 15.08474,229.61391 C 14.061037,220.75126 13.140668,214.175 13.039474,215 C 12.938281,215.825 12.884166,233.2625 12.919219,253.75 C 12.954272,274.2375 12.777621,291 12.52666,291 C 12.275699,291 11.563311,290.05256 10.943575,288.89457 z M 226,270.5 C 226,269.675 226.45,269 227,269 C 227.55,269 228,269.675 228,270.5 C 228,271.325 227.55,272 227,272 C 226.45,272 226,271.325 226,270.5 z M 227.07895,265.41667 C 227.12693,264.25172 227.36389,264.01477 227.68311,264.8125 C 227.97198,265.53438 227.93646,266.39688 227.60417,266.72917 C 227.27187,267.06146 227.03553,266.47083 227.07895,265.41667 z M 25.035184,242.06574 C 24.465833,241.0019 24.001682,239.3144 24.003738,238.31574 C 24.006352,237.04583 24.607577,237.48426 26.003738,239.77417 C 28.266423,243.48531 28.392048,244 27.035184,244 C 26.504535,244 25.604535,243.12958 25.035184,242.06574 z M 35.44113,242.4682 C 36.508751,241.66069 39.208751,241.01975 41.44113,241.04389 L 45.5,241.08779 L 41.5,242.52884 C 39.3,243.32141 36.6,243.96235 35.5,243.95314 C 33.52666,243.93662 33.525875,243.91682 35.44113,242.4682 z M 238.85077,12.51744 C 238.58537,12.252032 213.87287,11.985572 183.93411,11.925306 C 126.9906,11.81068 109.77374,10.989382 136.08088,9.6425551 C 153.91195,8.7296717 243,8.9536476 243,9.91136 C 243,11.62929 239.90596,13.572623 238.85077,12.51744 z M 15,10.988988 C 10.546852,10.519107 9.8806736,10.227004 11.5,9.4543232 C 14.642147,7.9550115 56.623401,8.2210909 58.151039,9.75 C 59.150046,10.749838 58.509425,11.013277 54.95,11.06634 C 52.5025,11.102827 43.75,11.230926 35.5,11.351005 C 27.25,11.471083 18.025,11.308176 15,10.988988 z M 79.5,10.996778 C 76.49858,10.619182 75.957297,10.307126 77.331787,9.7467778 C 79.651549,8.8010642 114.64893,8.9529272 118,9.9232481 L 120.5,10.647136 L 118.23498,11.395724 C 115.87398,12.176032 86.466074,11.873149 79.5,10.996778 z M 8.8125,5.316886 C 9.534375,5.0280154 10.396875,5.0635417 10.729167,5.3958333 C 11.061458,5.728125 10.470833,5.9644737 9.4166667,5.9210526 C 8.2517237,5.8730687 8.0147673,5.6361123 8.8125,5.316886 z M 239,5 C 239,4.45 239.675,4 240.5,4 C 241.325,4 242,4.45 242,5 C 242,5.55 241.325,6 240.5,6 C 239.675,6 239,5.55 239,5 z "
         id="path5863" />
      <path
         style="fill:#9b9b9b"
         d="M 61,303.33389 C 22.713084,300.63936 21.645062,300.44031 18.330418,295.38153 C 16.77116,293.0018 16.452496,289.93036 16.142993,274.298 L 15.780714,256 L 18.140357,255.97912 C 22.054622,255.94449 45.353514,259.17458 47.5,260.04946 C 48.807252,260.58228 46.902196,260.89189 42,260.94333 C 37.875,260.9866 32.914345,261.28441 30.976321,261.60512 C 27.640834,262.15709 27.443364,262.41019 27.278923,266.34412 C 26.968478,273.77089 26.173015,282.10675 25.642927,283.48813 C 25.358027,284.23057 25.949397,285.78864 26.957083,286.95052 C 27.964769,288.11239 29.081025,290.61836 29.437653,292.51935 C 29.802585,294.46461 30.957836,296.44225 32.080087,297.04286 C 35.232801,298.73014 51.286361,300.82559 70.110674,302.00695 C 79.63465,302.60464 87.63092,303.29759 87.880164,303.54683 C 88.359831,304.0265 68.619334,303.87012 61,303.33389 z M 174.04361,303.62306 C 174.32957,303.3371 180.49009,302.60006 187.73365,301.9852 C 199.32299,301.00145 215.19798,298.26098 227.47193,295.12526 C 231.93531,293.98496 233.0721,294.40112 230.94048,296.39503 C 228.64613,298.54115 217.52451,300.82695 204,301.93205 C 183.43573,303.61238 173.49303,304.17364 174.04361,303.62306 z M 233.53589,279.25 C 234.55576,256.16035 235.99767,209.31261 235.86863,203.45907 L 235.73725,197.5 L 234.92961,202.5 C 234.48541,205.25 233.62491,211.325 233.01738,216 C 230.07571,238.63663 227.77657,248.3514 224.80778,250.68889 C 222.0989,252.82174 213.17341,253.72537 171.5,256.08587 C 149.36327,257.33975 82.234086,256.63409 80.731705,255.1317 C 78.835216,253.23522 82.714853,252.83147 105.78389,252.52456 C 118.82775,252.35103 147.8645,251.86612 170.30999,251.44699 C 209.80238,250.70954 211.25526,250.61319 215.30999,248.46276 C 218.99064,246.51072 219.76235,245.46619 221.65811,239.87029 C 222.84507,236.36663 224.96799,225.625 226.37571,216 C 228.69756,200.12479 229.53961,190.28033 233.0047,138.5 C 233.59359,129.7 234.94349,110.8 236.00447,96.5 C 237.06546,82.2 238.18705,62.4 238.4969,52.5 C 239.36139,24.878353 240.04346,15.908826 241.22392,16.638393 C 243.17348,17.843284 240.24827,153.72967 238.21761,156.29244 C 235.84918,159.2815 235.79113,168.86516 238.15029,167.40712 C 238.73179,167.04773 238.89274,173.63695 238.57178,184.66286 C 238.28621,194.47329 237.80677,219.6 237.50637,240.5 C 236.99279,276.23096 235.93669,291 233.89521,291 C 233.41116,291 233.24986,285.72546 233.53589,279.25 z M 237,185.83333 C 237,177.09651 236.49521,177.24771 235.60888,186.25 C 235.17702,190.63631 235.30423,193 235.97215,193 C 236.58034,193 237,190.0739 237,185.83333 z M 10.752679,284.77789 C 10.476701,281.90572 10.522795,273.69322 10.855111,266.52789 C 11.408638,254.5928 11.514134,254.04523 12.112776,260 C 13.10491,269.86889 13.114609,290 12.127229,290 C 11.647205,290 11.028658,287.65005 10.752679,284.77789 z M 46,254.82944 C 43.525,254.32332 37.225,253.58455 32,253.18773 C 21.574135,252.39593 18.527684,251.2386 17.648503,247.73566 C 16.646528,243.74347 14.862918,226.75494 14.830759,220.89721 C 14.813842,217.81568 14.401891,214.66568 13.915313,213.89721 C 12.629927,211.86717 12.679871,211.1295 12.221377,238.91667 C 12.09962,246.29583 11.82516,252.14583 11.611467,251.91667 C 10.70321,250.94264 8.8955222,215.32482 8.3929232,188.5 C 8.0940785,172.55 7.6665352,150.05 7.442827,138.5 C 6.0653616,67.38182 5.8269671,19.560851 6.854698,20.52369 C 7.5283065,21.154767 8.1671113,28.825319 8.520301,40.52369 C 9.7662668,81.792642 12.62421,133.94944 15.532791,168.5 C 16.319905,177.85 17.660119,195.625 18.511045,208 C 19.361971,220.375 20.453364,233.5528 20.936364,237.28401 C 21.903298,244.75364 24.286182,249.4879 26.626835,248.5897 C 27.439712,248.27777 29.300102,248.80498 30.761037,249.76128 C 32.914067,251.17061 35.732964,251.50293 45.640767,251.51546 C 52.363684,251.52396 58.175389,251.84206 58.555665,252.22233 C 58.935942,252.60261 58.980608,253.60815 58.654923,254.45687 C 57.987523,256.19609 53.350636,256.3326 46,254.82944 z M 36.44113,242.4682 C 37.508751,241.66069 39.308751,241.01595 40.44113,241.03544 C 42.323296,241.06783 42.285436,241.19353 40,242.5 C 36.54985,244.47228 33.823699,244.44792 36.44113,242.4682 z M 238.19495,161.5 C 238.21533,159.85 238.43945,159.29606 238.69299,160.26903 C 238.94653,161.242 238.92986,162.592 238.65594,163.26903 C 238.38201,163.94606 238.17457,163.15 238.19495,161.5 z M 6.0789474,16.416667 C 6.1269313,15.251724 6.3638877,15.014767 6.683114,15.8125 C 6.9719846,16.534375 6.9364583,17.396875 6.6041667,17.729167 C 6.271875,18.061458 6.0355263,17.470833 6.0789474,16.416667 z M 85.5,11.061029 C 72.626786,10.258557 77.895138,9.2704272 96,9.0916539 C 112.67794,8.9269705 120.21433,9.6168772 117.88099,11.094715 C 116.42279,12.018278 100.59193,12.001809 85.5,11.061029 z M 132,10.991232 L 123.5,10.482465 L 136.5,9.8926241 C 143.65,9.5682117 169.525,9.43341 194,9.5930647 C 248.01286,9.9453999 243.23948,9.8034905 242.4788,11.034307 C 241.83629,12.073909 149.48675,12.037902 132,10.991232 z M 11.852181,9.75 C 13.642762,7.962538 55.363805,7.962538 57.150521,9.75 C 58.15009,10.749985 53.619722,11 34.5,11 C 15.378837,11 10.850375,10.750061 11.852181,9.75 z "
         id="path5861" />
      <path
         style="fill:#939393"
         d="M 72.100895,302.94616 C 74.107636,302.47082 76.985253,302.47724 78.600895,302.96065 C 80.928201,303.65701 80.217987,303.82523 75,303.8136 C 69.249832,303.80077 68.915395,303.7007 72.100895,302.94616 z M 45.5,302.31707 C 36.64814,301.74623 23.689321,299.9041 21.940136,298.96796 C 18.379045,297.06212 17.205397,291.15913 16.870441,273.46939 L 16.549126,256.5 L 19.25375,256.18559 C 20.741294,256.01266 25.715309,256.57516 30.307117,257.43559 C 34.898926,258.29601 40.056734,259 41.768913,259 C 43.481092,259 45.160081,259.45 45.5,260 C 45.895417,260.6398 42.704313,261 36.640804,261 C 24.313606,261 24.00353,261.1435 23.984687,266.85699 C 23.976265,269.41064 23.552006,272.15991 23.04189,272.96646 C 22.44802,273.90544 22.517225,274.91829 23.234285,275.7823 C 24.064602,276.78277 24.028546,278.03215 23.094839,280.61427 C 22.148001,283.23271 22.118628,284.43801 22.976463,285.47164 C 23.603986,286.22776 24.653496,288.98855 25.308707,291.60672 C 26.315819,295.63107 26.963818,296.491 29.5,297.16877 C 35.027975,298.64606 49.956177,300.99926 54.250445,301.07029 C 56.5877,301.10894 59.4,301.52731 60.5,302 C 62.53959,302.87644 56.239289,303.00962 45.5,302.31707 z M 22,267.94098 C 22,266.80852 21.55,266.16008 21,266.5 C 20.45,266.83992 20,267.76648 20,268.55902 C 20,269.35156 20.45,270 21,270 C 21.55,270 22,269.07344 22,267.94098 z M 196.75,301.33772 C 197.4375,301.06031 198.5625,301.06031 199.25,301.33772 C 199.9375,301.61513 199.375,301.84211 198,301.84211 C 196.625,301.84211 196.0625,301.61513 196.75,301.33772 z M 217.5,298.02893 C 232.41998,294.63069 232.82257,294.57743 231.18093,296.21907 C 229.09193,298.30807 221.85013,300.01889 213,300.51418 L 204.5,300.98986 L 217.5,298.02893 z M 11,275.83333 C 11,268.59167 11.236673,262.90334 11.525939,263.19261 C 12.4737,264.14037 12.837119,289 11.903213,289 C 11.406446,289 11,283.075 11,275.83333 z M 233.84625,286.95371 C 233.54104,284.79084 235.43587,226.28273 236.06317,218.5 C 236.19616,216.85 236.57386,218.28604 236.90249,221.69121 C 237.858,231.59192 236.54255,285.22188 235.28944,287.45371 C 234.24876,289.3072 234.17473,289.28155 233.84625,286.95371 z M 95,256.04446 C 83.90865,255.59714 81.5,255.23237 81.5,254 C 81.5,252.87876 82.510038,252.55742 85.5,252.72741 C 92.942358,253.15054 105.38654,252.99293 142,252.01181 C 162.075,251.47387 185.925,251.00663 195,250.97349 C 210.29853,250.91764 211.79126,250.74669 215.5,248.62574 C 218.80219,246.73729 219.8727,245.30294 221.63637,240.40376 C 225.49305,229.69058 230.07215,191.75183 232.42715,151 C 233.20228,137.58681 234.71575,115.74205 236.44555,93 C 237.26132,82.275 238.18669,64.95 238.50194,54.5 C 239.22446,30.549085 239.87807,23 241.22925,23 C 241.98071,23 242.10112,32.304547 241.63368,54.25 C 241.26757,71.4375 240.70986,98.55 240.39431,114.5 C 239.93705,137.61233 239.43274,145.3177 237.91029,152.45318 C 235.59865,163.28742 235.4823,170.09821 237.54087,174.07903 C 239.0162,176.932 238.73589,179.57284 237.06721,178.54154 C 236.24571,178.03382 235.02397,185.94582 235.00869,191.87244 C 235.00126,194.75721 235.21691,195.06487 236.5,194 C 237.80879,192.9138 237.99805,193.63115 237.98469,199.62756 C 237.96809,207.07426 236.14623,206.96294 235.8971,199.5 L 235.76357,195.5 L 234.95767,200 C 234.51442,202.475 233.64757,209 233.03133,214.5 C 230.55786,236.57593 227.9059,248.24691 224.80778,250.69084 C 222.95974,252.14866 217.49817,252.96151 202,254.08535 C 163.51962,256.87574 130.57004,257.47902 95,256.04446 z M 46.829715,254.99939 C 44.261058,254.55346 41.336058,253.69983 40.329715,253.10244 C 38.945478,252.28073 40.934685,252.07517 48.5,252.25814 C 56.61473,252.4544 58.5,252.78279 58.5,254 C 58.5,255.79362 53.748437,256.20052 46.829715,254.99939 z M 21.894491,251.88588 C 18.03393,250.46906 17.040241,247.18621 15.914589,232.13011 C 15.354117,224.63355 14.626105,216.475 14.296785,214 C 13.208334,205.81977 12.21618,213.27119 11.966664,231.5 C 11.317681,278.91263 8.2131288,184.39254 6.5471694,66.5 C 6.1156547,35.963622 6.2318682,20.836166 6.8928725,21.5 C 7.4638721,22.073444 8.3383141,35.936508 8.9428786,54 C 10.414887,97.981424 14.178776,161.68406 16.505798,182 C 16.789288,184.475 17.707604,196.625 18.546499,209 C 19.385395,221.375 20.416259,234.25511 20.837309,237.62247 C 21.636933,244.01748 24.079048,249 26.413849,249 C 27.166108,249 29.743234,249.89012 32.140796,250.97804 L 36.5,252.95608 L 30.5,252.89909 C 27.2,252.86775 23.327521,252.41181 21.894491,251.88588 z M 12.707261,195.76166 C 12.468068,194.51775 12.263283,195.3 12.252183,197.5 C 12.241084,199.7 12.436788,200.71775 12.68708,199.76166 C 12.937373,198.80557 12.946454,197.00557 12.707261,195.76166 z M 237.07895,209.41667 C 237.12693,208.25172 237.36389,208.01477 237.68311,208.8125 C 237.97198,209.53438 237.93646,210.39687 237.60417,210.72917 C 237.27187,211.06146 237.03553,210.47083 237.07895,209.41667 z M 241.07895,19.416667 C 241.12693,18.251724 241.36389,18.014767 241.68311,18.8125 C 241.97198,19.534375 241.93646,20.396875 241.60417,20.729167 C 241.27187,21.061458 241.03553,20.470833 241.07895,19.416667 z M 90,11 C 78.369452,10.446756 78.925902,10.392364 98,10.218012 C 111.5335,10.094305 117.99026,10.360047 117,11 C 115.44454,12.005216 111.13211,12.005216 90,11 z M 163,10.97408 L 137.5,10.448159 L 158,10.098781 C 169.275,9.9066224 185.25,9.6139165 193.5,9.4483232 C 211.24622,9.0921223 238,9.9962965 238,10.952251 C 238,11.728365 200.10736,11.739394 163,10.97408 z M 13,10 C 13,9.45 14.4625,8.9233219 16.25,8.8296042 C 33.394558,7.930724 57,8.6833275 57,10.128821 C 57,10.60797 47.1,11 35,11 C 21,11 13,10.636364 13,10 z "
         id="path5859" />
      <path
         style="fill:#878787"
         d="M 74.75,303.33772 C 75.4375,303.06031 76.5625,303.06031 77.25,303.33772 C 77.9375,303.61513 77.375,303.84211 76,303.84211 C 74.625,303.84211 74.0625,303.61513 74.75,303.33772 z M 51,302 C 49.82068,301.23786 50.034466,301.04866 52,301.11499 C 53.375,301.16139 55.625,301.55965 57,302 C 59.29068,302.7336 59.206952,302.8077 56,302.88501 C 54.075,302.93141 51.825,302.53316 51,302 z M 31.547432,300.85579 C 25.122312,300.03218 18.136071,297.12131 20.607386,296.29754 C 21.193979,296.10201 25.589714,296.85507 30.375685,297.97101 C 35.161656,299.08696 40.608466,300 42.479708,300 C 44.35095,300 46.160081,300.45 46.5,301 C 47.234116,302.18783 41.508079,302.1326 31.547432,300.85579 z M 212,299.93713 C 212,299.42171 213.0125,298.99229 214.25,298.98286 C 215.4875,298.97344 219.7625,298.11831 223.75,297.08258 C 232.32527,294.8552 233.54274,295.75099 225.24145,298.17996 C 217.82129,300.35112 212,301.12362 212,299.93713 z M 234.64076,261.40767 C 234.94662,247.15845 235.58672,233.25 236.0632,230.5 C 236.5928,227.44335 236.72875,237.1601 236.41297,255.5 C 236.12887,272 235.48878,285.90845 234.99054,286.40767 C 234.44934,286.94994 234.30853,276.88561 234.64076,261.40767 z M 11.286014,278.5 C 11.293522,275.75 11.487727,274.74369 11.717581,276.26375 C 11.947436,277.78381 11.941293,280.03381 11.703931,281.26375 C 11.466569,282.49369 11.278507,281.25 11.286014,278.5 z M 17.335833,259.43278 C 16.178848,256.41773 18.429387,255.75004 25.644615,256.96773 C 29.415077,257.60406 34.403514,258.37915 36.730031,258.69015 C 44.411316,259.71695 40.067321,261 28.909598,261 C 19.869717,261 17.83131,260.72398 17.335833,259.43278 z M 97.081382,256.03971 C 86.659659,255.67491 81.537529,255.1224 81.276335,254.33486 C 80.719865,252.65702 84.054399,251.86912 87.522928,252.85889 C 89.160318,253.32613 100.85,253.35699 113.5,252.92747 C 126.15,252.49795 153.375,251.85014 174,251.48789 C 209.76914,250.85966 211.69751,250.72935 215.7792,248.66463 C 219.7989,246.63127 220.21237,246.01486 222.59742,238.5 C 223.99388,234.1 225.55927,226.675 226.07607,222 C 226.59287,217.325 227.23573,212.375 227.50465,211 C 228.44508,206.19145 231.96089,164.28405 233.50312,139.5 C 234.35874,125.75 235.47952,108.65 235.99374,101.5 C 238.15388,71.464639 238.98004,57.566864 239.56051,41.5 C 239.89831,32.15 240.36038,24.3125 240.58735,24.083333 C 240.81431,23.854167 241.01633,24.979167 241.03629,26.583333 C 241.05626,28.1875 241.16876,35.35 241.28629,42.5 C 241.74926,70.662839 239.85138,135.35267 238.35248,142.5 C 237.54507,146.35 236.63958,155.575 236.34026,163 C 234.34892,212.39851 230.31763,244.54275 225.44616,249.86637 C 223.66889,251.80859 217.53876,252.87312 201.5,254.02475 C 162.31153,256.83859 134.97446,257.36611 97.081382,256.03971 z M 47.613351,254.94573 C 38.945984,253.49303 39.716381,252 49.133333,252 C 58.130931,252 59.682905,252.47222 57.868879,254.65799 C 56.648243,256.12877 54.955208,256.17627 47.613351,254.94573 z M 24.5,252.26168 C 17.879027,251.29358 17.260239,249.43185 15.458629,225.05922 C 13.46829,198.13341 12.845045,192 12.099325,192 C 11.746085,192 11.62265,201.3375 11.825026,212.75 C 12.105411,228.56161 11.91484,233.23292 11.024288,232.3778 C 10.191968,231.57859 9.7541254,221.50486 9.503054,197.3778 C 9.3091572,178.74501 8.8852759,159 8.5610956,153.5 C 7.5206018,135.84712 5.939747,40.320592 6.6571666,38.451026 C 8.094139,34.706336 8.8588241,40.397427 8.9479569,55.5 C 9.0395079,71.012296 12.15751,132.39564 13.925923,153.5 C 15.161523,168.24574 17.104541,194.40739 17.565139,202.5 C 18.878867,225.58197 20.664453,241.40289 22.488292,246.12087 C 22.832913,247.01235 24.928401,248.45412 27.144932,249.3248 C 29.434997,250.22436 30.895854,251.35949 30.528477,251.95392 C 30.172896,252.52927 29.346024,252.93258 28.690983,252.85017 C 28.035942,252.76776 26.15,252.50294 24.5,252.26168 z M 237.07895,196.41667 C 237.12693,195.25172 237.36389,195.01477 237.68311,195.8125 C 237.97198,196.53438 237.93646,197.39687 237.60417,197.72917 C 237.27187,198.06146 237.03553,197.47083 237.07895,196.41667 z M 7.0789474,32.416667 C 7.1269313,31.251724 7.3638877,31.014767 7.683114,31.8125 C 7.9719846,32.534375 7.9364583,33.396875 7.6041667,33.729167 C 7.271875,34.061458 7.0355263,33.470833 7.0789474,32.416667 z M 6,24.440983 C 6,23.583524 6.4573404,23.164618 7.0163119,23.510081 C 7.5752834,23.855545 7.7737258,24.557102 7.4572949,25.069098 C 6.600055,26.456142 6,26.197509 6,24.440983 z M 192,10.966809 L 186.5,10.433618 L 192.04349,9.9668091 C 197.66856,9.4931306 223.75436,10.362021 221,10.931319 C 218.3071,11.487916 197.63629,11.513212 192,10.966809 z M 14.5,10 C 14.095451,9.3454253 21.156282,9 34.940983,9 C 48.313661,9 56,9.3649904 56,10 C 56,11.35898 15.339896,11.35898 14.5,10 z M 98.789188,10.258586 C 102.24824,10.062756 107.64824,10.064373 110.78919,10.262181 C 113.93013,10.459989 111.1,10.620213 104.5,10.618236 C 97.9,10.616259 95.330134,10.454416 98.789188,10.258586 z M 153.75,10.254119 C 159.3875,10.075872 168.6125,10.075872 174.25,10.254119 C 179.8875,10.432367 175.275,10.578205 164,10.578205 C 152.725,10.578205 148.1125,10.432367 153.75,10.254119 z M 227.75,10.276604 C 229.5375,10.054778 232.4625,10.054778 234.25,10.276604 C 236.0375,10.498431 234.575,10.679926 231,10.679926 C 227.425,10.679926 225.9625,10.498431 227.75,10.276604 z "
         id="path5857" />
      <path
         style="fill:#777"
         d="M 27.699153,300.03415 C 25.608688,299.62944 23.358688,298.72479 22.699153,298.02383 C 21.737447,297.00171 22.094038,296.87451 24.5,297.38143 C 26.15,297.72908 28.9625,298.29436 30.75,298.6376 C 32.5375,298.98085 34,299.65281 34,300.13084 C 34,301.1044 33.160742,301.09152 27.699153,300.03415 z M 38.75,300.33772 C 39.4375,300.06031 40.5625,300.06031 41.25,300.33772 C 41.9375,300.61513 41.375,300.84211 40,300.84211 C 38.625,300.84211 38.0625,300.61513 38.75,300.33772 z M 235.17471,265.75 C 235.07862,258.7375 235.3375,252.99895 235.75,252.99767 C 236.1625,252.99638 236.37954,256.93388 236.23231,261.74767 C 235.75719,277.28202 235.35365,278.80916 235.17471,265.75 z M 19.75,259.31067 C 18.7875,259.05915 18,258.3742 18,257.78858 C 18,256.61045 28.32877,257.36754 33.5,258.92472 C 35.892459,259.64515 34.981148,259.82201 29,259.79805 C 24.875,259.78152 20.7125,259.5622 19.75,259.31067 z M 109.01735,256.29545 C 97.200116,255.95394 91.730253,254.72434 97.105355,253.61769 C 100.18639,252.98336 157.54533,251.63838 188,251.48636 C 210.21042,251.37549 211.72498,251.24793 215.59982,249.16184 C 217.85473,247.94787 220.15036,245.95233 220.70123,244.72731 C 223.59389,238.29467 226.03324,226.86077 227.47004,213 C 228.35375,204.475 229.72149,191.65 230.50949,184.5 C 231.29748,177.35 232.41193,162.5 232.98604,151.5 C 233.56016,140.5 234.47247,127.225 235.0134,122 C 236.05345,111.954 237.43753,90.498154 239.00611,60.105605 C 239.52825,49.988687 240.23638,41.438687 240.57973,41.105605 C 241.48522,40.227186 239.94012,118.20026 238.88756,126.5 C 237.88536,134.40274 236.58002,153.83722 235.02551,184 C 232.98843,223.52644 229.02029,247.6327 224.03882,250.74368 C 219.29574,253.70579 144.43625,257.31905 109.01735,256.29545 z M 49.146638,254.97188 C 40.082941,253.65364 40.446489,252 49.8,252 C 56.142314,252 58,252.31558 58,253.39301 C 58,254.49532 55.409671,256.42515 54.668213,255.87524 C 54.575696,255.80663 52.090987,255.40012 49.146638,254.97188 z M 82.243769,255.37275 C 80.070273,254.43228 81.981065,252.99698 85.309017,253.07029 C 88.812232,253.14745 93.772141,254.80441 90.875,254.92971 C 89.98125,254.96837 87.95625,255.20617 86.375,255.45816 C 84.79375,255.71015 82.934696,255.67172 82.243769,255.37275 z M 20.130297,250.25 C 17.499885,248.04884 16.090215,239.12354 15.747439,222.5 C 15.381857,204.77045 17.195197,206.79845 19.076313,226.22293 C 19.943284,235.17532 21.268659,243.77183 22.021589,245.32629 C 22.774519,246.88075 24.990179,248.99837 26.945277,250.0321 L 30.5,251.91161 L 26.360784,251.9558 C 23.827087,251.98286 21.410406,251.32121 20.130297,250.25 z M 10,220.5 C 10,219.675 10.176855,219 10.393011,219 C 10.609167,219 11.045044,219.675 11.361626,220.5 C 11.678209,221.325 11.501354,222 10.968615,222 C 10.435877,222 10,221.325 10,220.5 z M 10.347932,208.19959 C 10.288094,203.41745 10.556202,201.25782 11.055509,202.5 C 12.093774,205.083 12.193794,213.14696 11.206825,214.69959 C 10.787423,215.35936 10.400921,212.43436 10.347932,208.19959 z M 14.630286,203.75 C 14.298649,202.5125 14.021165,200.41186 14.013655,199.08191 C 14.006145,197.75197 13.452594,193.70197 12.783541,190.08191 L 11.567082,183.5 L 10.935999,187.5 C 10.588904,189.7 10.524233,185.65 10.792288,178.5 C 11.159532,168.70423 10.883131,163.75965 9.6708861,158.43914 C 8.3251002,152.53252 7.9954313,142.15214 7.6542004,94.93914 C 7.4298485,63.897613 7.4080146,42.55 7.6056805,47.5 C 7.8033465,52.45 8.6280618,67.975 9.4383811,82 C 10.2487,96.025 11.185747,114.25 11.520708,122.5 C 11.855668,130.75 12.561082,141.775 13.088294,147 C 14.189009,157.90877 16.993003,197.90026 16.997192,202.75 C 17.000408,206.47192 15.526602,207.09459 14.630286,203.75 z M 240.30987,34.5 C 240.31548,31.2 240.50217,29.970559 240.72473,31.767909 C 240.94729,33.565259 240.9427,36.265259 240.71453,37.767909 C 240.48635,39.270559 240.30426,37.8 240.30987,34.5 z M 17.868235,9.8974028 C 17.066983,9.3898094 24.087074,9.0242801 34.809017,9.0153128 C 46.888187,9.0052103 52.905581,9.3437554 52.493653,10.010269 C 51.724845,11.254228 19.845994,11.150314 17.868235,9.8974028 z M 196.76166,10.292739 C 198.00557,10.053546 199.80557,10.062627 200.76166,10.31292 C 201.71775,10.563212 200.7,10.758916 198.5,10.747817 C 196.3,10.736717 195.51775,10.531932 196.76166,10.292739 z M 208.75,10.267795 C 211.0875,10.05726 214.9125,10.05726 217.25,10.267795 C 219.5875,10.47833 217.675,10.650586 213,10.650586 C 208.325,10.650586 206.4125,10.47833 208.75,10.267795 z "
         id="path5855" />
    </g>
  </g>
</svg>
