<?xml version="1.0" encoding="UTF-8" standalone="no"?>
<!-- Created with Inkscape (http://www.inkscape.org/) -->

<svg
   xmlns:dc="http://purl.org/dc/elements/1.1/"
   xmlns:cc="http://creativecommons.org/ns#"
   xmlns:rdf="http://www.w3.org/1999/02/22-rdf-syntax-ns#"
   xmlns:svg="http://www.w3.org/2000/svg"
   xmlns="http://www.w3.org/2000/svg"
   xmlns:sodipodi="http://sodipodi.sourceforge.net/DTD/sodipodi-0.dtd"
   xmlns:inkscape="http://www.inkscape.org/namespaces/inkscape"
   width="36.923378"
   height="34.242474"
   id="svg3262"
   version="1.1"
   inkscape:version="0.48.0 r9654"
   sodipodi:docname="questionsSettings.svg"
   inkscape:export-filename="/home/tom/DEVELOP/QT4/nootka/picts/levelsSettings.png"
   inkscape:export-xdpi="388.9906"
   inkscape:export-ydpi="388.9906">
  <defs
     id="defs3264">
    <filter
       id="filter4748"
       inkscape:label="Drop shadow"
       width="1.5"
       height="1.5"
       x="-0.25"
       y="-0.25"
       color-interpolation-filters="sRGB">
      <feGaussianBlur
         id="feGaussianBlur4750"
         in="SourceAlpha"
         stdDeviation="1"
         result="blur" />
      <feColorMatrix
         id="feColorMatrix4752"
         result="bluralpha"
         type="matrix"
         values="1 0 0 0 0 0 1 0 0 0 0 0 1 0 0 0 0 0 0.7 0 " />
      <feOffset
         id="feOffset4754"
         in="bluralpha"
         dx="1"
         dy="1"
         result="offsetBlur" />
      <feMerge
         id="feMerge4756">
        <feMergeNode
           id="feMergeNode4758"
           in="offsetBlur" />
        <feMergeNode
           id="feMergeNode4760"
           in="SourceGraphic" />
      </feMerge>
    </filter>
    <filter
       id="filter4748-4"
       inkscape:label="Drop shadow"
       width="1.5"
       height="1.5"
       x="-0.25"
       y="-0.25"
       color-interpolation-filters="sRGB">
      <feGaussianBlur
         id="feGaussianBlur4750-5"
         in="SourceAlpha"
         stdDeviation="1"
         result="blur" />
      <feColorMatrix
         id="feColorMatrix4752-2"
         result="bluralpha"
         type="matrix"
         values="1 0 0 0 0 0 1 0 0 0 0 0 1 0 0 0 0 0 0.7 0 " />
      <feOffset
         id="feOffset4754-5"
         in="bluralpha"
         dx="1"
         dy="1"
         result="offsetBlur" />
      <feMerge
         id="feMerge4756-4">
        <feMergeNode
           id="feMergeNode4758-7"
           in="offsetBlur" />
        <feMergeNode
           id="feMergeNode4760-4"
           in="SourceGraphic" />
      </feMerge>
    </filter>
    <filter
       id="filter4748-3"
       inkscape:label="Drop shadow"
       width="1.5"
       height="1.5"
       x="-0.25"
       y="-0.25"
       color-interpolation-filters="sRGB">
      <feGaussianBlur
         id="feGaussianBlur4750-0"
         in="SourceAlpha"
         stdDeviation="1"
         result="blur" />
      <feColorMatrix
         id="feColorMatrix4752-7"
         result="bluralpha"
         type="matrix"
         values="1 0 0 0 0 0 1 0 0 0 0 0 1 0 0 0 0 0 0.7 0 " />
      <feOffset
         id="feOffset4754-8"
         in="bluralpha"
         dx="1"
         dy="1"
         result="offsetBlur" />
      <feMerge
         id="feMerge4756-6">
        <feMergeNode
           id="feMergeNode4758-8"
           in="offsetBlur" />
        <feMergeNode
           id="feMergeNode4760-8"
           in="SourceGraphic" />
      </feMerge>
    </filter>
    <filter
       inkscape:collect="always"
       id="filter4413">
      <feGaussianBlur
         inkscape:collect="always"
         stdDeviation="0.2040107"
         id="feGaussianBlur4415" />
    </filter>
  </defs>
  <sodipodi:namedview
     id="base"
     pagecolor="#ffffff"
     bordercolor="#666666"
     borderopacity="1.0"
     inkscape:pageopacity="0.0"
     inkscape:pageshadow="2"
     inkscape:zoom="7.919596"
     inkscape:cx="31.098997"
     inkscape:cy="9.4748752"
     inkscape:document-units="px"
     inkscape:current-layer="layer1"
     showgrid="false"
     fit-margin-top="0"
     fit-margin-left="0"
     fit-margin-right="0"
     fit-margin-bottom="0"
     inkscape:window-width="856"
     inkscape:window-height="763"
     inkscape:window-x="159"
     inkscape:window-y="210"
     inkscape:window-maximized="0" />
  <metadata
     id="metadata3267">
    <rdf:RDF>
      <cc:Work
         rdf:about="">
        <dc:format>image/svg+xml</dc:format>
        <dc:type
           rdf:resource="http://purl.org/dc/dcmitype/StillImage" />
        <dc:title />
      </cc:Work>
    </rdf:RDF>
  </metadata>
  <g
     inkscape:label="Layer 1"
     inkscape:groupmode="layer"
     id="layer1"
     transform="translate(-520.68619,-413.02269)">
    <rect
       style="fill:#ffffff;fill-opacity:1;filter:url(#filter4748)"
       id="rect3894"
       width="24.615585"
       height="22.828316"
       x="144.83507"
       y="326.66232"
       ry="2.6451859" />
    <rect
       style="fill:#ffffff;fill-opacity:1;filter:url(#filter4748-4)"
       id="rect3894-4"
       width="24.615585"
       height="22.828316"
       x="833.40649"
       y="292.37659"
       ry="2.6451859" />
    <rect
       style="fill:#ffffff;fill-opacity:1;filter:url(#filter4748-3)"
       id="rect3894-43"
       width="24.615585"
       height="22.828316"
       x="526.84009"
       y="418.72977"
       ry="2.6451859" />
    <g
       transform="matrix(0.79574161,0,0,1,529.55918,422.21976)"
       id="g4345">
      <g
         transform="matrix(0.31002331,0,0,2.2844887,0.08375204,13.810804)"
         id="g867">
        <line
           x1="0.042417582"
           y1="0"
           x2="80.938499"
           y2="0"
           id="line869"
           style="stroke:currentColor;stroke-width:0.25815895;stroke-linecap:round;stroke-linejoin:round" />
      </g>
      <g
         transform="matrix(0.31002331,0,0,2.2844887,0.08375204,11.526315)"
         id="g871">
        <line
           x1="0.042417582"
           y1="0"
           x2="80.938499"
           y2="0"
           id="line873"
           style="stroke:currentColor;stroke-width:0.25815895;stroke-linecap:round;stroke-linejoin:round" />
      </g>
      <g
         transform="matrix(0.31002331,0,0,2.2844887,0.08375204,9.2418271)"
         id="g875">
        <line
           x1="0.042417582"
           y1="0"
           x2="80.938499"
           y2="0"
           id="line877"
           style="stroke:currentColor;stroke-width:0.25815895;stroke-linecap:round;stroke-linejoin:round" />
      </g>
      <g
         transform="matrix(0.31002331,0,0,2.2844887,0.08375204,6.9573391)"
         id="g879">
        <line
           x1="0.042417582"
           y1="0"
           x2="80.938499"
           y2="0"
           id="line881"
           style="stroke:currentColor;stroke-width:0.25815895;stroke-linecap:round;stroke-linejoin:round" />
      </g>
      <g
         transform="matrix(0.31002331,0,0,2.2844887,0.08375204,4.6728501)"
         id="g883">
        <line
           x1="0.042417582"
           y1="0"
           x2="80.938499"
           y2="0"
           id="line885"
           style="stroke:currentColor;stroke-width:0.25815895;stroke-linecap:round;stroke-linejoin:round" />
      </g>
    </g>
    <text
       xml:space="preserve"
       style="font-size:18.00580597px;font-style:normal;font-variant:normal;font-weight:500;font-stretch:normal;line-height:125%;letter-spacing:0px;word-spacing:0px;fill:#000000;fill-opacity:1;stroke:none;font-family:feta14;-inkscape-font-specification:feta14 Medium"
       x="654.87366"
       y="356.52905"
       id="text3606"
       sodipodi:linespacing="125%"
       transform="scale(0.81465575,1.2275124)"><tspan
         sodipodi:role="line"
         id="tspan3608"
         x="654.87366"
         y="356.52905"
         style="font-style:normal;font-variant:normal;font-weight:normal;font-stretch:normal;font-family:FL Jazzowy 1;-inkscape-font-specification:'FL Jazzowy 1,'">?</tspan></text>
    <g
       transform="matrix(0.81465573,0,0,1.2275124,-12.626907,0.37880722)"
       style="font-size:18.00580597px;font-style:normal;font-variant:normal;font-weight:500;font-stretch:normal;line-height:125%;letter-spacing:0px;word-spacing:0px;opacity:0.5;fill:#000000;fill-opacity:1;stroke:none;filter:url(#filter4413);font-family:feta14;-inkscape-font-specification:feta14 Medium"
       id="text3606-8">
      <path
         d="m 672.47077,348.98888 c 0,-1.39244 0.79825,-2.39476 2.39477,-3.00697 1.2484,-0.46814 2.97696,-0.70221 5.18567,-0.70222 1.09235,10e-6 2.12468,0.16206 3.097,0.48615 1.15236,0.38414 2.01664,0.94232 2.59284,1.67454 0.33609,0.44415 0.50415,0.92431 0.50416,1.44047 -1e-5,0.82827 -0.44416,1.62653 -1.33243,2.39477 -0.64822,0.56419 -1.36845,0.99632 -2.1607,1.29642 -1.26041,0.48016 -2.23873,1.02033 -2.93494,1.62052 -0.24009,0.21607 -0.36013,0.40813 -0.36012,0.57618 -1e-5,0.024 -0.012,0.066 -0.036,0.12605 -0.012,0.048 -0.018,0.084 -0.018,0.10803 0,0.22808 -0.43814,0.34211 -1.31442,0.34211 -0.37213,0 -0.58219,-0.03 -0.6302,-0.09 -0.036,-0.024 -0.048,-0.06 -0.036,-0.10803 0.012,-0.048 0.018,-0.10804 0.018,-0.18006 0,-0.70823 0.45614,-1.38044 1.36844,-2.01665 0.26408,-0.19206 0.67821,-0.45614 1.2424,-0.79226 0.57618,-0.3361 1.00232,-0.60019 1.27842,-0.79225 0.90028,-0.6362 1.35042,-1.28441 1.35043,-1.94463 -10e-6,-0.3361 -0.15606,-0.66621 -0.46815,-0.99032 -0.43215,-0.44413 -1.03234,-0.6662 -1.80058,-0.66621 -0.46816,10e-6 -0.9063,0.11404 -1.31442,0.34211 -0.48017,0.27609 -0.72024,0.63021 -0.72024,1.06234 0,0.13205 0.048,0.25809 0.14405,0.37812 0.10803,0.12005 0.16205,0.22208 0.16205,0.3061 0,0.16806 -0.22808,0.25209 -0.68422,0.25208 l -4.80755,0 c -0.48015,1e-5 -0.72023,-0.28808 -0.72023,-0.86428 l 0,-0.25208 m 3.79922,6.98625 3.34908,0 c 0.19206,0 0.56418,0.2821 1.11636,0.84628 0.57618,0.60019 0.86427,1.03233 0.86428,1.29641 -10e-6,0.12004 -0.048,0.17406 -0.14404,0.16206 -0.096,-0.012 -0.17407,-0.018 -0.23408,-0.018 l -2.75489,0 c -0.096,0 -0.44415,-0.27009 -1.04433,-0.81026 -0.67223,-0.60019 -1.05635,-1.09235 -1.15238,-1.47648"
         style="font-weight:normal;font-family:FL Jazzowy 1;-inkscape-font-specification:'FL Jazzowy 1,'"
         id="path4483" />
    </g>
  </g>
</svg>
