<?xml version="1.0" encoding="UTF-8" standalone="no"?>
<!-- Created with Inkscape (http://www.inkscape.org/) -->

<svg
   xmlns:dc="http://purl.org/dc/elements/1.1/"
   xmlns:cc="http://creativecommons.org/ns#"
   xmlns:rdf="http://www.w3.org/1999/02/22-rdf-syntax-ns#"
   xmlns:svg="http://www.w3.org/2000/svg"
   xmlns="http://www.w3.org/2000/svg"
   xmlns:xlink="http://www.w3.org/1999/xlink"
   xmlns:sodipodi="http://sodipodi.sourceforge.net/DTD/sodipodi-0.dtd"
   xmlns:inkscape="http://www.inkscape.org/namespaces/inkscape"
   version="1.0"
   width="25.967474"
   height="29.981539"
   id="svg7854"
   inkscape:version="0.48.0 r9654"
   sodipodi:docname="startExam.svg"
   inkscape:export-filename="/home/tom/DEVELOP/QT4/nootka/picts/startExam.png"
   inkscape:export-xdpi="221.81595"
   inkscape:export-ydpi="221.81595">
  <metadata
     id="metadata32">
    <rdf:RDF>
      <cc:Work
         rdf:about="">
        <dc:format>image/svg+xml</dc:format>
        <dc:type
           rdf:resource="http://purl.org/dc/dcmitype/StillImage" />
        <dc:title></dc:title>
      </cc:Work>
    </rdf:RDF>
  </metadata>
  <sodipodi:namedview
     pagecolor="#ffffff"
     bordercolor="#666666"
     borderopacity="1"
     objecttolerance="10"
     gridtolerance="10"
     guidetolerance="10"
     inkscape:pageopacity="0"
     inkscape:pageshadow="2"
     inkscape:window-width="1600"
     inkscape:window-height="1176"
     id="namedview30"
     showgrid="false"
     inkscape:zoom="3.4766084"
     inkscape:cx="64.381493"
     inkscape:cy="-16.733093"
     inkscape:window-x="-8"
     inkscape:window-y="-3"
     inkscape:window-maximized="1"
     inkscape:current-layer="svg7854" />
  <defs
     id="defs7856">
    <linearGradient
       id="linearGradient3629">
      <stop
         offset="0"
         style="stop-color:#ffffff;stop-opacity:1"
         id="stop3631" />
      <stop
         offset="0.20971029"
         style="stop-color:#ffffff;stop-opacity:0"
         id="stop3633" />
      <stop
         offset="0.34936365"
         style="stop-color:#ffffff;stop-opacity:0.81065089"
         id="stop3635" />
      <stop
         offset="0.46381667"
         style="stop-color:#ffffff;stop-opacity:0"
         id="stop3637" />
      <stop
         offset="0.52134049"
         style="stop-color:#ffffff;stop-opacity:1"
         id="stop3639" />
      <stop
         offset="0.55746967"
         style="stop-color:#ffffff;stop-opacity:0"
         id="stop3641" />
      <stop
         offset="0.71515989"
         style="stop-color:#ffffff;stop-opacity:0.56804734"
         id="stop3643" />
      <stop
         offset="0.74394959"
         style="stop-color:#ffffff;stop-opacity:0"
         id="stop3645" />
      <stop
         offset="1"
         style="stop-color:#ffffff;stop-opacity:0"
         id="stop3647" />
    </linearGradient>
    <inkscape:perspective
       sodipodi:type="inkscape:persp3d"
       inkscape:vp_x="0 : 24 : 1"
       inkscape:vp_y="0 : 1000 : 0"
       inkscape:vp_z="48 : 24 : 1"
       inkscape:persp3d-origin="24 : 16 : 1"
       id="perspective34" />
    <linearGradient
       id="linearGradient7577">
      <stop
         id="stop7579"
         style="stop-color:#000000;stop-opacity:0.3137255"
         offset="0" />
      <stop
         id="stop7581"
         style="stop-color:#ffffff;stop-opacity:1"
         offset="1" />
    </linearGradient>
    <linearGradient
       id="linearGradient7305">
      <stop
         id="stop7307"
         style="stop-color:#ffffff;stop-opacity:1"
         offset="0" />
      <stop
         id="stop7313"
         style="stop-color:#ffffff;stop-opacity:0"
         offset="0.20971029" />
      <stop
         id="stop7329"
         style="stop-color:#ffffff;stop-opacity:0.81065089"
         offset="0.34936365" />
      <stop
         id="stop7321"
         style="stop-color:#ffffff;stop-opacity:0"
         offset="0.42850056" />
      <stop
         id="stop7323"
         style="stop-color:#ffffff;stop-opacity:1"
         offset="0.52134049" />
      <stop
         id="stop7317"
         style="stop-color:#ffffff;stop-opacity:0"
         offset="0.55746967" />
      <stop
         id="stop7319"
         style="stop-color:#ffffff;stop-opacity:0.56804734"
         offset="0.71001518" />
      <stop
         id="stop7416"
         style="stop-color:#ffffff;stop-opacity:0"
         offset="0.74394959" />
      <stop
         id="stop7309"
         style="stop-color:#ffffff;stop-opacity:0"
         offset="1" />
    </linearGradient>
    <linearGradient
       id="linearGradient7344">
      <stop
         id="stop7346"
         style="stop-color:#7ea55a;stop-opacity:1;"
         offset="0" />
      <stop
         id="stop7348"
         style="stop-color:#56ad37;stop-opacity:1;"
         offset="1" />
    </linearGradient>
    <linearGradient
       x1="-177.27766"
       y1="9.2039175"
       x2="-172.82857"
       y2="25.808161"
       id="linearGradient7865"
       xlink:href="#linearGradient7577"
       gradientUnits="userSpaceOnUse" />
    <radialGradient
       cx="36.126339"
       cy="18.020473"
       r="13.55237"
       fx="36.126339"
       fy="18.020473"
       id="radialGradient7867"
       xlink:href="#linearGradient7344"
       gradientUnits="userSpaceOnUse"
       gradientTransform="matrix(2.7391664,0,0,2.2478596,-274.85735,-10.683483)" />
    <linearGradient
       x1="-0.11694507"
       y1="10.14653"
       x2="48.025963"
       y2="37.941853"
       id="linearGradient7869"
       xlink:href="#linearGradient7305"
       gradientUnits="userSpaceOnUse" />
    <linearGradient
       inkscape:collect="always"
       xlink:href="#linearGradient7577"
       id="linearGradient2851"
       gradientUnits="userSpaceOnUse"
       x1="-177.27766"
       y1="9.2039175"
       x2="-172.82857"
       y2="25.808161"
       gradientTransform="translate(188,-8.9987635)" />
    <radialGradient
       inkscape:collect="always"
       xlink:href="#linearGradient7344"
       id="radialGradient3625"
       gradientUnits="userSpaceOnUse"
       gradientTransform="matrix(2.3471344,1.0188979,-0.87753395,2.0214883,-247.11818,-42.165141)"
       cx="34.567036"
       cy="16.51544"
       fx="34.567036"
       fy="16.51544"
       r="13.55237" />
    <linearGradient
       inkscape:collect="always"
       xlink:href="#linearGradient3629"
       id="linearGradient3627"
       gradientUnits="userSpaceOnUse"
       x1="-0.11694509"
       y1="15.841445"
       x2="52.398842"
       y2="33.670666"
       gradientTransform="translate(-0.30508474,0)" />
    <linearGradient
       inkscape:collect="always"
       xlink:href="#linearGradient3629"
       id="linearGradient4180"
       gradientUnits="userSpaceOnUse"
       gradientTransform="matrix(1,0,0,-1,-12.000005,39.001236)"
       x1="-0.11694509"
       y1="15.841445"
       x2="52.398842"
       y2="33.670666" />
    <radialGradient
       inkscape:collect="always"
       xlink:href="#linearGradient7344"
       id="radialGradient4184"
       gradientUnits="userSpaceOnUse"
       gradientTransform="matrix(2.3471344,1.0188979,-0.87753395,2.0214883,-58.8131,-51.163904)"
       cx="34.567036"
       cy="16.51544"
       fx="34.567036"
       fy="16.51544"
       r="13.55237" />
    <linearGradient
       inkscape:collect="always"
       xlink:href="#linearGradient7344"
       id="linearGradient4196"
       gradientUnits="userSpaceOnUse"
       gradientTransform="matrix(1,0,0,-1,-12.000005,39.001236)"
       x1="-0.11694509"
       y1="15.841445"
       x2="52.398842"
       y2="33.670666" />
  </defs>
  <g
     transform="matrix(1.0014281,0,0,1.3303986,0.32895245,2.1427436)"
     id="g4345"
     style="stroke:#000000;stroke-opacity:1;stroke-width:0.99978135;stroke-miterlimit:4;stroke-dasharray:none">
    <g
       transform="matrix(0.31002331,0,0,2.2844887,0.08375204,13.810804)"
       id="g867"
       style="stroke:#000000;stroke-opacity:1;stroke-width:1.18799155;stroke-miterlimit:4;stroke-dasharray:none">
      <line
         x1="0.042417582"
         y1="0"
         x2="80.938499"
         y2="0"
         id="line869"
         style="stroke:#000000;stroke-width:1.18799155;stroke-linecap:round;stroke-linejoin:round;stroke-opacity:1;stroke-miterlimit:4;stroke-dasharray:none" />
    </g>
    <g
       transform="matrix(0.31002331,0,0,2.2844887,0.08375204,11.526315)"
       id="g871"
       style="stroke:#000000;stroke-opacity:1;stroke-width:1.18799155;stroke-miterlimit:4;stroke-dasharray:none">
      <line
         x1="0.042417582"
         y1="0"
         x2="80.938499"
         y2="0"
         id="line873"
         style="stroke:#000000;stroke-width:1.18799155;stroke-linecap:round;stroke-linejoin:round;stroke-opacity:1;stroke-miterlimit:4;stroke-dasharray:none" />
    </g>
    <g
       transform="matrix(0.31002331,0,0,2.2844887,0.08375204,9.2418271)"
       id="g875"
       style="stroke:#000000;stroke-opacity:1;stroke-width:1.18799155;stroke-miterlimit:4;stroke-dasharray:none">
      <line
         x1="0.042417582"
         y1="0"
         x2="80.938499"
         y2="0"
         id="line877"
         style="stroke:#000000;stroke-width:1.18799155;stroke-linecap:round;stroke-linejoin:round;stroke-opacity:1;stroke-miterlimit:4;stroke-dasharray:none" />
    </g>
    <g
       transform="matrix(0.31002331,0,0,2.2844887,0.08375204,6.9573391)"
       id="g879"
       style="stroke:#000000;stroke-opacity:1;stroke-width:1.18799155;stroke-miterlimit:4;stroke-dasharray:none">
      <line
         x1="0.042417582"
         y1="0"
         x2="80.938499"
         y2="0"
         id="line881"
         style="stroke:#000000;stroke-width:1.18799155;stroke-linecap:round;stroke-linejoin:round;stroke-opacity:1;stroke-miterlimit:4;stroke-dasharray:none" />
    </g>
    <g
       transform="matrix(0.31002331,0,0,2.2844887,0.08375204,4.6728501)"
       id="g883"
       style="stroke:#000000;stroke-opacity:1;stroke-width:1.18799155;stroke-miterlimit:4;stroke-dasharray:none">
      <line
         x1="0.042417582"
         y1="0"
         x2="80.938499"
         y2="0"
         id="line885"
         style="stroke:#000000;stroke-width:1.18799155;stroke-linecap:round;stroke-linejoin:round;stroke-opacity:1;stroke-miterlimit:4;stroke-dasharray:none" />
    </g>
  </g>
  <path
     inkscape:connector-curvature="0"
     style="fill:url(#radialGradient4184);fill-opacity:1;fill-rule:evenodd;stroke:#555753;stroke-width:0.99999982;stroke-linecap:square;stroke-linejoin:miter;stroke-miterlimit:4;stroke-opacity:1;stroke-dashoffset:0.69999992"
     id="path7812"
     d="m 1.80508,28.501237 0,-26.9995445 23,13.5120015 -23,13.487543 z" />
  <path
     inkscape:connector-curvature="0"
     style="fill:none;stroke:#ffffff;stroke-width:0.99999982;stroke-linecap:square;stroke-linejoin:miter;stroke-miterlimit:4;stroke-opacity:1;stroke-dashoffset:0.69999992"
     id="path7828"
     d="m 2.80508,26.751264 0,-23.4995995 20,11.7604435 -20,11.739156 z" />
  <path
     inkscape:connector-curvature="0"
     style="opacity:0.14999999999999999;fill:url(#linearGradient4196);fill-opacity:1;fill-rule:evenodd;stroke:none"
     id="path7354"
     d="m 2.30508,27.626236 0,-25.25 c 7.167154,4.203659 14.332238,8.420985 21.5,12.625 -7.167165,4.209848 -14.33225,8.414809 -21.5,12.625 z" />
  <g
     transform="matrix(0.473076,0,0,1.1546868,-314.41561,-391.34446)"
     style="font-size:18.00580597000000083px;font-style:normal;font-variant:normal;font-weight:500;font-stretch:normal;line-height:125%;letter-spacing:0px;word-spacing:0px;opacity:1;fill:#aa0000;fill-opacity:1;stroke:none;font-family:feta14;-inkscape-font-specification:feta14 Medium"
     id="text3606-8">
    <path
       inkscape:connector-curvature="0"
       d="m 672.47077,348.98888 c 0,-1.39244 0.79825,-2.39476 2.39477,-3.00697 1.2484,-0.46814 2.97696,-0.70221 5.18567,-0.70222 1.09235,10e-6 2.12468,0.16206 3.097,0.48615 1.15236,0.38414 2.01664,0.94232 2.59284,1.67454 0.33609,0.44415 0.50415,0.92431 0.50416,1.44047 -1e-5,0.82827 -0.44416,1.62653 -1.33243,2.39477 -0.64822,0.56419 -1.36845,0.99632 -2.1607,1.29642 -1.26041,0.48016 -2.23873,1.02033 -2.93494,1.62052 -0.24009,0.21607 -0.36013,0.40813 -0.36012,0.57618 -1e-5,0.024 -0.012,0.066 -0.036,0.12605 -0.012,0.048 -0.018,0.084 -0.018,0.10803 0,0.22808 -0.43814,0.34211 -1.31442,0.34211 -0.37213,0 -0.58219,-0.03 -0.6302,-0.09 -0.036,-0.024 -0.048,-0.06 -0.036,-0.10803 0.012,-0.048 0.018,-0.10804 0.018,-0.18006 0,-0.70823 0.45614,-1.38044 1.36844,-2.01665 0.26408,-0.19206 0.67821,-0.45614 1.2424,-0.79226 0.57618,-0.3361 1.00232,-0.60019 1.27842,-0.79225 0.90028,-0.6362 1.35042,-1.28441 1.35043,-1.94463 -10e-6,-0.3361 -0.15606,-0.66621 -0.46815,-0.99032 -0.43215,-0.44413 -1.03234,-0.6662 -1.80058,-0.66621 -0.46816,10e-6 -0.9063,0.11404 -1.31442,0.34211 -0.48017,0.27609 -0.72024,0.63021 -0.72024,1.06234 0,0.13205 0.048,0.25809 0.14405,0.37812 0.10803,0.12005 0.16205,0.22208 0.16205,0.3061 0,0.16806 -0.22808,0.25209 -0.68422,0.25208 l -4.80755,0 c -0.48015,10e-6 -0.72023,-0.28808 -0.72023,-0.86428 l 0,-0.25208 m 3.79922,6.98625 3.34908,0 c 0.19206,0 0.56418,0.2821 1.11636,0.84628 0.57618,0.60019 0.86427,1.03233 0.86428,1.29641 -10e-6,0.12004 -0.048,0.17406 -0.14404,0.16206 -0.096,-0.012 -0.17407,-0.018 -0.23408,-0.018 l -2.75489,0 c -0.096,0 -0.44415,-0.27009 -1.04433,-0.81026 -0.67223,-0.60019 -1.05635,-1.09235 -1.15238,-1.47648"
       style="font-weight:normal;fill:#aa0000;font-family:FL Jazzowy 1;-inkscape-font-specification:'FL Jazzowy 1,'"
       id="path4483" />
  </g>
</svg>
