<?xml version="1.0" encoding="UTF-8" standalone="no"?>
<!-- Created with Inkscape (http://www.inkscape.org/) -->

<svg
   xmlns:dc="http://purl.org/dc/elements/1.1/"
   xmlns:cc="http://creativecommons.org/ns#"
   xmlns:rdf="http://www.w3.org/1999/02/22-rdf-syntax-ns#"
   xmlns:svg="http://www.w3.org/2000/svg"
   xmlns="http://www.w3.org/2000/svg"
   xmlns:xlink="http://www.w3.org/1999/xlink"
   xmlns:sodipodi="http://sodipodi.sourceforge.net/DTD/sodipodi-0.dtd"
   xmlns:inkscape="http://www.inkscape.org/namespaces/inkscape"
   version="1.0"
   width="27.34"
   height="28"
   id="svg7854"
   inkscape:version="0.48.1 r9760"
   sodipodi:docname="stopExam.svg"
   inkscape:export-filename="/home/tom/DEVELOP/QT4/nootka/picts/stopExam.png"
   inkscape:export-xdpi="225"
   inkscape:export-ydpi="225">
  <metadata
     id="metadata3073">
    <rdf:RDF>
      <cc:Work
         rdf:about="">
        <dc:format>image/svg+xml</dc:format>
        <dc:type
           rdf:resource="http://purl.org/dc/dcmitype/StillImage" />
        <dc:title></dc:title>
      </cc:Work>
    </rdf:RDF>
  </metadata>
  <sodipodi:namedview
     pagecolor="#ffffff"
     bordercolor="#666666"
     borderopacity="1"
     objecttolerance="10"
     gridtolerance="10"
     guidetolerance="10"
     inkscape:pageopacity="0"
     inkscape:pageshadow="2"
     inkscape:window-width="1000"
     inkscape:window-height="892"
     id="namedview3071"
     showgrid="false"
     inkscape:zoom="4.9166667"
     inkscape:cx="52.247167"
     inkscape:cy="-16.745853"
     inkscape:window-x="352"
     inkscape:window-y="169"
     inkscape:window-maximized="0"
     inkscape:current-layer="svg7854"
     fit-margin-top="0"
     fit-margin-left="0"
     fit-margin-right="0"
     fit-margin-bottom="0" />
  <defs
     id="defs7856">
    <inkscape:perspective
       sodipodi:type="inkscape:persp3d"
       inkscape:vp_x="0 : 24 : 1"
       inkscape:vp_y="0 : 1000 : 0"
       inkscape:vp_z="48 : 24 : 1"
       inkscape:persp3d-origin="24 : 16 : 1"
       id="perspective3075" />
    <linearGradient
       id="linearGradient7577">
      <stop
         id="stop7579"
         style="stop-color:#000000;stop-opacity:0.3137255"
         offset="0" />
      <stop
         id="stop7581"
         style="stop-color:#ffffff;stop-opacity:1"
         offset="1" />
    </linearGradient>
    <linearGradient
       id="linearGradient7305">
      <stop
         id="stop7307"
         style="stop-color:#ffffff;stop-opacity:1"
         offset="0" />
      <stop
         id="stop7313"
         style="stop-color:#ffffff;stop-opacity:0"
         offset="0.20971029" />
      <stop
         id="stop7329"
         style="stop-color:#ffffff;stop-opacity:0.81065089"
         offset="0.34936365" />
      <stop
         id="stop7321"
         style="stop-color:#ffffff;stop-opacity:0"
         offset="0.42850056" />
      <stop
         id="stop7323"
         style="stop-color:#ffffff;stop-opacity:1"
         offset="0.52134049" />
      <stop
         id="stop7317"
         style="stop-color:#ffffff;stop-opacity:0"
         offset="0.55746967" />
      <stop
         id="stop7319"
         style="stop-color:#ffffff;stop-opacity:0.56804734"
         offset="0.71001518" />
      <stop
         id="stop7416"
         style="stop-color:#ffffff;stop-opacity:0"
         offset="0.74394959" />
      <stop
         id="stop7309"
         style="stop-color:#ffffff;stop-opacity:0"
         offset="1" />
    </linearGradient>
    <linearGradient
       id="linearGradient7344">
      <stop
         id="stop7346"
         style="stop-color:#eeeeec;stop-opacity:1"
         offset="0" />
      <stop
         id="stop7348"
         style="stop-color:#92948f;stop-opacity:1"
         offset="1" />
    </linearGradient>
    <linearGradient
       x1="22.28924"
       y1="12.965953"
       x2="25.71076"
       y2="25.735243"
       id="linearGradient7469"
       xlink:href="#linearGradient7577"
       gradientUnits="userSpaceOnUse" />
    <radialGradient
       cx="28.541149"
       cy="31.678772"
       r="12.000001"
       fx="28.541149"
       fy="31.678772"
       id="radialGradient7471"
       xlink:href="#linearGradient7344"
       gradientUnits="userSpaceOnUse"
       gradientTransform="matrix(3.8208255,0,0,2.3034327,-81.08966,-41.851943)" />
    <linearGradient
       x1="-0.24809971"
       y1="9.9014263"
       x2="48.156212"
       y2="37.847668"
       id="linearGradient7473"
       xlink:href="#linearGradient7305"
       gradientUnits="userSpaceOnUse" />
    <linearGradient
       inkscape:collect="always"
       xlink:href="#linearGradient7577"
       id="linearGradient3185"
       gradientUnits="userSpaceOnUse"
       x1="22.28924"
       y1="12.965953"
       x2="25.71076"
       y2="25.735243" />
    <radialGradient
       inkscape:collect="always"
       xlink:href="#linearGradient7344"
       id="radialGradient3187"
       gradientUnits="userSpaceOnUse"
       gradientTransform="matrix(3.8208255,0,0,2.3034327,-81.08966,-41.851943)"
       cx="28.541149"
       cy="31.678772"
       fx="28.541149"
       fy="31.678772"
       r="12.000001" />
    <linearGradient
       inkscape:collect="always"
       xlink:href="#linearGradient7305"
       id="linearGradient3189"
       gradientUnits="userSpaceOnUse"
       x1="-0.24809971"
       y1="9.9014263"
       x2="48.156212"
       y2="37.847668" />
    <radialGradient
       inkscape:collect="always"
       xlink:href="#linearGradient7344"
       id="radialGradient3202"
       gradientUnits="userSpaceOnUse"
       gradientTransform="matrix(3.8208255,0,0,2.3034327,-81.08966,-41.851943)"
       cx="28.541149"
       cy="31.678772"
       fx="28.541149"
       fy="31.678772"
       r="12.000001" />
    <linearGradient
       inkscape:collect="always"
       xlink:href="#linearGradient7305"
       id="linearGradient3204"
       gradientUnits="userSpaceOnUse"
       x1="-0.24809971"
       y1="9.9014263"
       x2="48.156212"
       y2="37.847668" />
    <filter
       id="filter4084"
       inkscape:label="Inner Shadow"
       inkscape:menu="Shadows and Glows"
       inkscape:menu-tooltip="Adds a colorizable drop shadow inside"
       color-interpolation-filters="sRGB">
      <feGaussianBlur
         id="feGaussianBlur4086"
         stdDeviation="4"
         result="result8" />
      <feOffset
         id="feOffset4088"
         dx="4"
         dy="4"
         result="result11" />
      <feComposite
         id="feComposite4090"
         in2="result11"
         result="result6"
         in="SourceGraphic"
         operator="in" />
      <feFlood
         id="feFlood4092"
         result="result10"
         in="result6"
         flood-opacity="1"
         flood-color="rgb(0,0,0)" />
      <feBlend
         id="feBlend4094"
         in2="result10"
         mode="normal"
         in="result6"
         result="result12" />
      <feComposite
         id="feComposite4096"
         in2="SourceGraphic"
         result="result2"
         operator="in" />
    </filter>
    <filter
       id="filter4084-4"
       inkscape:label="Inner Shadow"
       inkscape:menu="Shadows and Glows"
       inkscape:menu-tooltip="Adds a colorizable drop shadow inside"
       color-interpolation-filters="sRGB">
      <feGaussianBlur
         id="feGaussianBlur4086-5"
         stdDeviation="4"
         result="result8" />
      <feOffset
         id="feOffset4088-2"
         dx="4"
         dy="4"
         result="result11" />
      <feComposite
         id="feComposite4090-5"
         in2="result11"
         result="result6"
         in="SourceGraphic"
         operator="in" />
      <feFlood
         id="feFlood4092-4"
         result="result10"
         in="result6"
         flood-opacity="1"
         flood-color="rgb(0,0,0)" />
      <feBlend
         id="feBlend4094-7"
         in2="result10"
         mode="normal"
         in="result6"
         result="result12" />
      <feComposite
         id="feComposite4096-4"
         in2="SourceGraphic"
         result="result2"
         operator="in" />
    </filter>
    <filter
       inkscape:collect="always"
       id="filter4148"
       color-interpolation-filters="sRGB">
      <feGaussianBlur
         inkscape:collect="always"
         stdDeviation="0.20437772"
         id="feGaussianBlur4150" />
    </filter>
  </defs>
  <g
     id="g3868"
     transform="translate(-36.458501,0.07343682)">
    <path
       d="m 37.18644,24.406779 0,-21.9999996 24.033898,0 0,21.9999996 -24.033898,0 z"
       id="path7410"
       style="opacity:0.15;fill:#ff0000;fill-opacity:1;fill-rule:evenodd;stroke:none"
       inkscape:connector-curvature="0" />
    <g
       transform="matrix(1.4555893,0,0,1.4555893,-23.408595,-5.3602188)"
       id="g3860">
      <g
         transform="matrix(0.88651678,0,0,1.3737183,-551.6182,-469.45086)"
         style="font-size:18.00580597px;font-style:normal;font-variant:normal;font-weight:500;font-stretch:normal;line-height:125%;letter-spacing:0px;word-spacing:0px;opacity:0.4;fill:#000000;fill-opacity:1;stroke:none;filter:url(#filter4148);font-family:feta14;-inkscape-font-specification:feta14 Medium"
         id="text3606-8-4">
        <path
           inkscape:connector-curvature="0"
           d="m 672.47077,348.98888 c 0,-1.39244 0.79825,-2.39476 2.39477,-3.00697 1.2484,-0.46814 2.97696,-0.70221 5.18567,-0.70222 1.09235,10e-6 2.12468,0.16206 3.097,0.48615 1.15236,0.38414 2.01664,0.94232 2.59284,1.67454 0.33609,0.44415 0.50415,0.92431 0.50416,1.44047 -1e-5,0.82827 -0.44416,1.62653 -1.33243,2.39477 -0.64822,0.56419 -1.36845,0.99632 -2.1607,1.29642 -1.26041,0.48016 -2.23873,1.02033 -2.93494,1.62052 -0.24009,0.21607 -0.36013,0.40813 -0.36012,0.57618 -1e-5,0.024 -0.012,0.066 -0.036,0.12605 -0.012,0.048 -0.018,0.084 -0.018,0.10803 0,0.22808 -0.43814,0.34211 -1.31442,0.34211 -0.37213,0 -0.58219,-0.03 -0.6302,-0.09 -0.036,-0.024 -0.048,-0.06 -0.036,-0.10803 0.012,-0.048 0.018,-0.10804 0.018,-0.18006 0,-0.70823 0.45614,-1.38044 1.36844,-2.01665 0.26408,-0.19206 0.67821,-0.45614 1.2424,-0.79226 0.57618,-0.3361 1.00232,-0.60019 1.27842,-0.79225 0.90028,-0.6362 1.35042,-1.28441 1.35043,-1.94463 -10e-6,-0.3361 -0.15606,-0.66621 -0.46815,-0.99032 -0.43215,-0.44413 -1.03234,-0.6662 -1.80058,-0.66621 -0.46816,10e-6 -0.9063,0.11404 -1.31442,0.34211 -0.48017,0.27609 -0.72024,0.63021 -0.72024,1.06234 0,0.13205 0.048,0.25809 0.14405,0.37812 0.10803,0.12005 0.16205,0.22208 0.16205,0.3061 0,0.16806 -0.22808,0.25209 -0.68422,0.25208 l -4.80755,0 c -0.48015,10e-6 -0.72023,-0.28808 -0.72023,-0.86428 l 0,-0.25208 m 3.79922,6.98625 3.34908,0 c 0.19206,0 0.56418,0.2821 1.11636,0.84628 0.57618,0.60019 0.86427,1.03233 0.86428,1.29641 -10e-6,0.12004 -0.048,0.17406 -0.14404,0.16206 -0.096,-0.012 -0.17407,-0.018 -0.23408,-0.018 l -2.75489,0 c -0.096,0 -0.44415,-0.27009 -1.04433,-0.81026 -0.67223,-0.60019 -1.05635,-1.09235 -1.15238,-1.47648"
           style="font-weight:normal;fill:#000000;font-family:FL Jazzowy 1;-inkscape-font-specification:'FL Jazzowy 1,'"
           id="path4483-3" />
      </g>
      <g
         transform="matrix(0.88651678,0,0,1.3737183,-553.14361,-470.36593)"
         style="font-size:18.00580597px;font-style:normal;font-variant:normal;font-weight:500;font-stretch:normal;line-height:125%;letter-spacing:0px;word-spacing:0px;fill:#000000;fill-opacity:1;stroke:none;filter:url(#filter4084);font-family:feta14;-inkscape-font-specification:feta14 Medium"
         id="text3606-8">
        <path
           inkscape:connector-curvature="0"
           d="m 672.47077,348.98888 c 0,-1.39244 0.79825,-2.39476 2.39477,-3.00697 1.2484,-0.46814 2.97696,-0.70221 5.18567,-0.70222 1.09235,10e-6 2.12468,0.16206 3.097,0.48615 1.15236,0.38414 2.01664,0.94232 2.59284,1.67454 0.33609,0.44415 0.50415,0.92431 0.50416,1.44047 -1e-5,0.82827 -0.44416,1.62653 -1.33243,2.39477 -0.64822,0.56419 -1.36845,0.99632 -2.1607,1.29642 -1.26041,0.48016 -2.23873,1.02033 -2.93494,1.62052 -0.24009,0.21607 -0.36013,0.40813 -0.36012,0.57618 -1e-5,0.024 -0.012,0.066 -0.036,0.12605 -0.012,0.048 -0.018,0.084 -0.018,0.10803 0,0.22808 -0.43814,0.34211 -1.31442,0.34211 -0.37213,0 -0.58219,-0.03 -0.6302,-0.09 -0.036,-0.024 -0.048,-0.06 -0.036,-0.10803 0.012,-0.048 0.018,-0.10804 0.018,-0.18006 0,-0.70823 0.45614,-1.38044 1.36844,-2.01665 0.26408,-0.19206 0.67821,-0.45614 1.2424,-0.79226 0.57618,-0.3361 1.00232,-0.60019 1.27842,-0.79225 0.90028,-0.6362 1.35042,-1.28441 1.35043,-1.94463 -10e-6,-0.3361 -0.15606,-0.66621 -0.46815,-0.99032 -0.43215,-0.44413 -1.03234,-0.6662 -1.80058,-0.66621 -0.46816,10e-6 -0.9063,0.11404 -1.31442,0.34211 -0.48017,0.27609 -0.72024,0.63021 -0.72024,1.06234 0,0.13205 0.048,0.25809 0.14405,0.37812 0.10803,0.12005 0.16205,0.22208 0.16205,0.3061 0,0.16806 -0.22808,0.25209 -0.68422,0.25208 l -4.80755,0 c -0.48015,10e-6 -0.72023,-0.28808 -0.72023,-0.86428 l 0,-0.25208 m 3.79922,6.98625 3.34908,0 c 0.19206,0 0.56418,0.2821 1.11636,0.84628 0.57618,0.60019 0.86427,1.03233 0.86428,1.29641 -10e-6,0.12004 -0.048,0.17406 -0.14404,0.16206 -0.096,-0.012 -0.17407,-0.018 -0.23408,-0.018 l -2.75489,0 c -0.096,0 -0.44415,-0.27009 -1.04433,-0.81026 -0.67223,-0.60019 -1.05635,-1.09235 -1.15238,-1.47648"
           style="font-weight:normal;fill:#000000;font-family:FL Jazzowy 1;-inkscape-font-specification:'FL Jazzowy 1,'"
           id="path4483" />
      </g>
    </g>
    <g
       transform="matrix(0.4532426,0,0,0.69692226,9.2610767,-29.343113)"
       style="stroke:#000000;stroke-width:1;stroke-miterlimit:4;stroke-opacity:1;stroke-dasharray:none"
       id="g3077">
      <g
         style="stroke:#000000;stroke-width:3.31339049;stroke-miterlimit:4;stroke-opacity:1;stroke-dasharray:none"
         id="g3052"
         transform="matrix(0.09108665,0,0,1,88.70491,69.559321)">
        <path
           inkscape:connector-curvature="0"
           id="line554"
           d="m -308.3956,8.2231894 654.8251,0"
           style="stroke:#000000;stroke-width:3.31339049;stroke-linecap:round;stroke-linejoin:round;stroke-miterlimit:4;stroke-opacity:1;stroke-dasharray:none" />
        <path
           inkscape:connector-curvature="0"
           id="line556"
           d="m -308.3956,0.12853697 654.8251,0"
           style="stroke:#000000;stroke-width:3.31339049;stroke-linecap:round;stroke-linejoin:round;stroke-miterlimit:4;stroke-opacity:1;stroke-dasharray:none" />
        <path
           inkscape:connector-curvature="0"
           id="line558"
           d="m -308.3956,-7.9661016 654.8251,0"
           style="stroke:#000000;stroke-width:3.31339049;stroke-linecap:round;stroke-linejoin:round;stroke-miterlimit:4;stroke-opacity:1;stroke-dasharray:none" />
        <path
           inkscape:connector-curvature="0"
           id="line560"
           d="m -308.3956,-16.060753 654.8251,0"
           style="stroke:#000000;stroke-width:3.31339049;stroke-linecap:round;stroke-linejoin:round;stroke-miterlimit:4;stroke-opacity:1;stroke-dasharray:none" />
        <path
           inkscape:connector-curvature="0"
           id="line562"
           d="m -308.3956,-24.155392 654.8251,0"
           style="stroke:#000000;stroke-width:3.31339049;stroke-linecap:round;stroke-linejoin:round;stroke-miterlimit:4;stroke-opacity:1;stroke-dasharray:none" />
      </g>
    </g>
    <path
       inkscape:connector-curvature="0"
       id="rect564"
       d="m 58.907597,2.0607055 0.88802,0 0,23.0437335 -0.88802,0 z"
       style="fill:currentColor" />
    <path
       inkscape:connector-curvature="0"
       id="rect566"
       d="m 61.197607,2.0607055 2.80399,0 0,23.0437335 -2.80399,0 z"
       style="fill:currentColor" />
  </g>
</svg>
