<?xml version="1.0" encoding="UTF-8" standalone="no"?>
<svg
   xmlns:dc="http://purl.org/dc/elements/1.1/"
   xmlns:cc="http://creativecommons.org/ns#"
   xmlns:rdf="http://www.w3.org/1999/02/22-rdf-syntax-ns#"
   xmlns:svg="http://www.w3.org/2000/svg"
   xmlns="http://www.w3.org/2000/svg"
   xmlns:sodipodi="http://sodipodi.sourceforge.net/DTD/sodipodi-0.dtd"
   xmlns:inkscape="http://www.inkscape.org/namespaces/inkscape"
   version="1.0"
   width="156.46001mm"
   height="149.91mm"
   id="0"
   inkscape:version="0.47 r22583"
   sodipodi:docname="Stop_02_Sign.svg">
  <metadata
     id="metadata16">
    <rdf:RDF>
      <cc:Work
         rdf:about="">
        <dc:format>image/svg+xml</dc:format>
        <dc:type
           rdf:resource="http://purl.org/dc/dcmitype/StillImage" />
        <dc:title></dc:title>
      </cc:Work>
    </rdf:RDF>
  </metadata>
  <defs
     id="defs14">
    <inkscape:perspective
       sodipodi:type="inkscape:persp3d"
       inkscape:vp_x="0 : 265.58859 : 1"
       inkscape:vp_y="0 : 1000 : 0"
       inkscape:vp_z="554.38586 : 265.58859 : 1"
       inkscape:persp3d-origin="277.19293 : 177.05906 : 1"
       id="perspective18" />
  </defs>
  <sodipodi:namedview
     pagecolor="#ffffff"
     bordercolor="#666666"
     borderopacity="1"
     objecttolerance="10"
     gridtolerance="10"
     guidetolerance="10"
     inkscape:pageopacity="0"
     inkscape:pageshadow="2"
     inkscape:window-width="1882"
     inkscape:window-height="1115"
     id="namedview12"
     showgrid="false"
     inkscape:zoom="1.2566594"
     inkscape:cx="179.00708"
     inkscape:cy="264.31061"
     inkscape:window-x="0"
     inkscape:window-y="0"
     inkscape:window-maximized="0"
     inkscape:current-layer="0" />
  <path
     d="m 544.39183,376.4341 -77.36557,77.37155 -77.44746,77.37154 -109.37609,0 -109.45796,0 -77.365578,-77.37154 -77.365577,-77.37155 0,-109.46638 0,-109.38451 77.365577,-77.453409 77.365578,-77.37152 109.45796,0 109.37609,0 77.44746,77.37152 77.36557,77.453409 0,109.38451 0,109.46638 z"
     style="fill:#da251d;fill-opacity:1;fill-rule:evenodd;stroke:none"
     id="5" />
  <path
     d="m 518.11211,368.00102 -68.44195,68.4472 -8.35057,-8.35121 68.44195,-68.44719 8.35057,8.3512 z m -68.44195,68.4472 -68.5238,68.44719 -8.35057,-8.3512 68.5238,-68.4472 8.35057,8.35121 z m -68.5238,68.44719 -1.71923,1.71938 -2.45604,0 0,-5.89498 4.17527,4.1756 z m -4.17527,1.71938 -96.76838,0 0,-11.78996 96.76838,0 0,11.78996 z m -96.76838,0 -96.85024,0 0,-11.78996 96.85024,0 0,11.78996 z m -96.85024,0 -2.45605,0 -1.71923,-1.71938 4.17528,-4.1756 0,5.89498 z m -4.17528,-1.71938 -68.44193,-68.44719 8.35057,-8.35121 68.44193,68.4472 -8.35057,8.3512 z m -68.44193,-68.44719 -68.44193,-68.4472 8.35057,-8.3512 68.44193,68.44719 -8.35057,8.35121 z m -68.44193,-68.4472 -1.719234,-1.71937 0,-2.45623 5.894519,0 -4.175285,4.1756 z m -1.719234,-4.1756 0,-96.8577 11.789038,0 0,96.8577 -11.789038,0 z m 0,-96.8577 0,-96.77582 11.789038,0 0,96.77582 -11.789038,0 z m 0,-96.77582 0,-2.45623 1.719234,-1.71938 4.175285,4.17561 -5.894519,0 z m 1.719234,-4.17561 68.44193,-68.529062 8.35057,8.351212 -68.44193,68.52906 -8.35057,-8.35121 z m 68.44193,-68.529062 68.44193,-68.447194 8.35057,8.351208 -68.44193,68.447198 -8.35057,-8.351212 z m 68.44193,-68.447194 1.71923,-1.719374 2.45605,0 0,5.894978 -4.17528,-4.175604 z m 4.17528,-1.719374 96.85024,0 0,11.789956 -96.85024,0 0,-11.789956 z m 96.85024,0 96.76838,0 0,11.789956 -96.76838,0 0,-11.789956 z m 96.76838,0 2.45604,0 1.71923,1.719374 -4.17527,4.175604 0,-5.894978 z m 4.17527,1.719374 68.5238,68.447194 -8.35057,8.351212 -68.5238,-68.447198 8.35057,-8.351208 z m 68.5238,68.447194 68.44195,68.529062 -8.35057,8.35121 -68.44195,-68.52906 8.35057,-8.351212 z m 68.44195,68.529062 1.71923,1.71938 0,2.45623 -5.89453,0 4.1753,-4.17561 z m 1.71923,4.17561 0,96.77582 -11.78906,0 0,-96.77582 11.78906,0 z m 0,96.77582 0,96.8577 -11.78906,0 0,-96.8577 11.78906,0 z m 0,96.8577 0,2.45623 -1.71923,1.71937 -4.1753,-4.1756 5.89453,0 z"
     style="fill:#ffffff;fill-opacity:1;fill-rule:nonzero;stroke:none"
     id="6" />
  <g
     style="font-size:150.82200623000000000px;font-style:normal;font-weight:normal;fill:#ffffff;fill-opacity:1;stroke:none;font-family:Bitstream Vera Sans"
     id="text2837">
    <path
       d="m 81.739036,287.24607 13.476771,-1.17829 c 0.638224,5.40056 2.123367,9.83144 4.455436,13.29266 2.332017,3.46127 5.952827,6.25972 10.862427,8.39537 4.90953,2.13567 10.43279,3.2035 16.5698,3.20349 5.44956,1e-5 10.26094,-0.81007 14.43414,-2.43024 4.17306,-1.62014 7.27836,-3.84172 9.31591,-6.66474 2.03739,-2.82298 3.05612,-5.90373 3.0562,-9.24227 -8e-5,-3.38757 -0.98199,-6.34558 -2.94574,-8.87404 -1.9639,-2.52839 -5.20421,-4.65178 -9.72095,-6.37017 -2.89671,-1.12916 -9.30369,-2.88433 -19.22097,-5.26552 -9.91737,-2.38109 -16.8644,-4.62721 -20.84112,-6.73838 -5.155075,-2.70021 -8.99681,-6.05099 -11.525221,-10.05235 -2.528441,-4.00123 -3.792654,-8.48121 -3.792643,-13.43995 -1.1e-5,-5.44954 1.546502,-10.54321 4.639544,-15.28104 3.093011,-4.73763 7.609811,-8.33389 13.55041,-10.78878 5.94055,-2.45467 12.54392,-3.68206 19.81012,-3.68217 8.00254,1.1e-4 15.06004,1.28887 21.17252,3.86628 6.11234,2.57763 10.81325,6.37027 14.10275,11.37793 3.28932,5.00785 5.05676,10.6784 5.30233,17.01166 l -13.6977,1.03101 c -0.73651,-6.82422 -3.22812,-11.97926 -7.47482,-15.46514 -4.24684,-3.4857 -10.51881,-5.2286 -18.81593,-5.2287 -8.64089,1e-4 -14.9374,1.58344 -18.88957,4.75001 -3.95223,3.16677 -5.928334,6.98395 -5.928309,11.45158 -2.5e-5,3.87863 1.399199,7.06985 4.197679,9.57366 2.74933,2.50395 9.92957,5.0692 21.54074,7.69575 11.61108,2.62668 19.57685,4.9219 23.89734,6.88567 6.28417,2.8967 10.92371,6.5666 13.91863,11.00972 2.99475,4.4432 4.49217,9.56142 4.49226,15.35468 -9e-5,5.74422 -1.6448,11.15702 -4.93412,16.2384 -3.2895,5.08142 -8.01495,9.03362 -14.17639,11.85661 -6.16157,2.82301 -13.09633,4.23451 -20.8043,4.23451 -9.77009,0 -17.95679,-1.42378 -24.56013,-4.27133 -6.603391,-2.84754 -11.782982,-7.13114 -15.538787,-12.8508 -3.755831,-5.71963 -5.731931,-12.18798 -5.928307,-19.40508 z"
       style="fill:#ffffff;fill-opacity:1"
       id="path3617" />
    <path
       d="m 214.81294,321.93219 0,-95.22112 -35.56984,0 0,-12.74034 85.57382,0 0,12.74034 -35.71713,0 0,95.22112 z"
       style="fill:#ffffff;fill-opacity:1"
       id="path3619" />
    <path
       d="m 275.20066,269.35069 c 0,-17.91986 4.81137,-31.94895 14.43414,-42.08729 9.62273,-10.13816 22.04393,-15.20729 37.26364,-15.2074 9.96636,1.1e-4 18.95086,2.38125 26.95354,7.14343 8.00251,4.76238 14.10264,11.40257 18.30043,19.92058 4.19757,8.51818 6.29641,18.17775 6.29652,28.97874 -1.1e-4,10.94838 -2.20941,20.74297 -6.62792,29.38378 -4.41871,8.64086 -10.67841,15.18285 -18.77911,19.62601 -8.10087,4.44316 -16.83989,6.66474 -26.2171,6.66474 -10.16286,0 -19.24556,-2.45479 -27.24812,-7.36436 -8.00262,-4.90956 -14.06594,-11.61111 -18.18996,-20.10469 -4.12405,-8.49352 -6.18606,-17.47803 -6.18606,-26.95354 z m 14.72871,0.22093 c -2e-5,13.0104 3.49805,23.25912 10.49421,30.74619 6.9961,7.4871 15.77195,11.23065 26.32757,11.23064 10.75189,10e-6 19.60138,-3.78036 26.54851,-11.34111 6.94695,-7.56071 10.42046,-18.28811 10.42056,-32.18223 -10e-5,-8.78807 -1.48524,-16.45927 -4.45544,-23.01362 -2.97037,-6.55419 -7.31534,-11.63559 -13.03491,-15.24421 -5.71972,-3.60844 -12.13898,-5.41271 -19.25779,-5.4128 -10.11376,9e-5 -18.81597,3.47361 -26.10664,10.42056 -7.29074,6.94712 -10.93609,18.54597 -10.93607,34.79658 z"
       style="fill:#ffffff;fill-opacity:1"
       id="path3621" />
    <path
       d="m 396.78619,321.93219 0,-107.96146 40.72488,0 c 7.16792,1.1e-4 12.64208,0.34378 16.42252,1.03101 5.30226,0.88383 9.74542,2.56536 13.32948,5.04459 3.5839,2.47943 6.46827,5.95295 8.65312,10.42056 2.18467,4.4678 3.27704,9.37736 3.27714,14.72871 -10e-5,9.18097 -2.92129,16.95035 -8.76359,23.30819 -5.84246,6.35794 -16.39803,9.53688 -31.66672,9.53684 l -27.68998,0 0,43.89156 z m 14.28685,-56.6319 27.91091,0 c 9.22993,6e-5 15.7842,-1.71829 19.66283,-5.15504 3.87848,-3.43664 5.81776,-8.27256 5.81784,-14.50779 -8e-5,-4.51672 -1.14156,-8.383 -3.42443,-11.59886 -2.28302,-3.21567 -5.29013,-5.33906 -9.02133,-6.37016 -2.40576,-0.63815 -6.84892,-0.95727 -13.32949,-0.95737 l -27.61633,0 z"
       style="fill:#ffffff;fill-opacity:1"
       id="path3623" />
  </g>
</svg>
