<?xml version="1.0" encoding="UTF-8" standalone="no"?>
<!-- Created with Inkscape (http://www.inkscape.org/) -->

<svg
   xmlns:dc="http://purl.org/dc/elements/1.1/"
   xmlns:cc="http://creativecommons.org/ns#"
   xmlns:rdf="http://www.w3.org/1999/02/22-rdf-syntax-ns#"
   xmlns:svg="http://www.w3.org/2000/svg"
   xmlns="http://www.w3.org/2000/svg"
   xmlns:xlink="http://www.w3.org/1999/xlink"
   xmlns:sodipodi="http://sodipodi.sourceforge.net/DTD/sodipodi-0.dtd"
   xmlns:inkscape="http://www.inkscape.org/namespaces/inkscape"
   version="1.0"
   width="27.34"
   height="28"
   id="svg7854"
   inkscape:version="0.48.4 r9939"
   sodipodi:docname="stopExam.svg"
   inkscape:export-filename="/home/tom/DEVELOP/QT4/nootka/picts/stopExam.png"
   inkscape:export-xdpi="225"
   inkscape:export-ydpi="225">
  <metadata
     id="metadata3073">
    <rdf:RDF>
      <cc:Work
         rdf:about="">
        <dc:format>image/svg+xml</dc:format>
        <dc:type
           rdf:resource="http://purl.org/dc/dcmitype/StillImage" />
        <dc:title />
      </cc:Work>
    </rdf:RDF>
  </metadata>
  <sodipodi:namedview
     pagecolor="#ffffff"
     bordercolor="#666666"
     borderopacity="1"
     objecttolerance="10"
     gridtolerance="10"
     guidetolerance="10"
     inkscape:pageopacity="0"
     inkscape:pageshadow="2"
     inkscape:window-width="1600"
     inkscape:window-height="1176"
     id="namedview3071"
     showgrid="false"
     inkscape:zoom="9.8333334"
     inkscape:cx="10.404018"
     inkscape:cy="8.3107882"
     inkscape:window-x="-2"
     inkscape:window-y="-3"
     inkscape:window-maximized="1"
     inkscape:current-layer="svg7854"
     fit-margin-top="0"
     fit-margin-left="0"
     fit-margin-right="0"
     fit-margin-bottom="0" />
  <defs
     id="defs7856">
    <inkscape:perspective
       sodipodi:type="inkscape:persp3d"
       inkscape:vp_x="0 : 24 : 1"
       inkscape:vp_y="0 : 1000 : 0"
       inkscape:vp_z="48 : 24 : 1"
       inkscape:persp3d-origin="24 : 16 : 1"
       id="perspective3075" />
    <linearGradient
       id="linearGradient7577">
      <stop
         id="stop7579"
         style="stop-color:#000000;stop-opacity:0.3137255"
         offset="0" />
      <stop
         id="stop7581"
         style="stop-color:#ffffff;stop-opacity:1"
         offset="1" />
    </linearGradient>
    <linearGradient
       id="linearGradient7305">
      <stop
         id="stop7307"
         style="stop-color:#ffffff;stop-opacity:1"
         offset="0" />
      <stop
         id="stop7313"
         style="stop-color:#ffffff;stop-opacity:0"
         offset="0.20971029" />
      <stop
         id="stop7329"
         style="stop-color:#ffffff;stop-opacity:0.81065089"
         offset="0.34936365" />
      <stop
         id="stop7321"
         style="stop-color:#ffffff;stop-opacity:0"
         offset="0.42850056" />
      <stop
         id="stop7323"
         style="stop-color:#ffffff;stop-opacity:1"
         offset="0.52134049" />
      <stop
         id="stop7317"
         style="stop-color:#ffffff;stop-opacity:0"
         offset="0.55746967" />
      <stop
         id="stop7319"
         style="stop-color:#ffffff;stop-opacity:0.56804734"
         offset="0.71001518" />
      <stop
         id="stop7416"
         style="stop-color:#ffffff;stop-opacity:0"
         offset="0.74394959" />
      <stop
         id="stop7309"
         style="stop-color:#ffffff;stop-opacity:0"
         offset="1" />
    </linearGradient>
    <linearGradient
       id="linearGradient7344">
      <stop
         id="stop7346"
         style="stop-color:#eeeeec;stop-opacity:1"
         offset="0" />
      <stop
         id="stop7348"
         style="stop-color:#92948f;stop-opacity:1"
         offset="1" />
    </linearGradient>
    <linearGradient
       x1="22.28924"
       y1="12.965953"
       x2="25.71076"
       y2="25.735243"
       id="linearGradient7469"
       xlink:href="#linearGradient7577"
       gradientUnits="userSpaceOnUse" />
    <radialGradient
       cx="28.541149"
       cy="31.678772"
       r="12.000001"
       fx="28.541149"
       fy="31.678772"
       id="radialGradient7471"
       xlink:href="#linearGradient7344"
       gradientUnits="userSpaceOnUse"
       gradientTransform="matrix(3.8208255,0,0,2.3034327,-81.08966,-41.851943)" />
    <linearGradient
       x1="-0.24809971"
       y1="9.9014263"
       x2="48.156212"
       y2="37.847668"
       id="linearGradient7473"
       xlink:href="#linearGradient7305"
       gradientUnits="userSpaceOnUse" />
    <linearGradient
       inkscape:collect="always"
       xlink:href="#linearGradient7577"
       id="linearGradient3185"
       gradientUnits="userSpaceOnUse"
       x1="22.28924"
       y1="12.965953"
       x2="25.71076"
       y2="25.735243" />
    <radialGradient
       inkscape:collect="always"
       xlink:href="#linearGradient7344"
       id="radialGradient3187"
       gradientUnits="userSpaceOnUse"
       gradientTransform="matrix(3.8208255,0,0,2.3034327,-81.08966,-41.851943)"
       cx="28.541149"
       cy="31.678772"
       fx="28.541149"
       fy="31.678772"
       r="12.000001" />
    <linearGradient
       inkscape:collect="always"
       xlink:href="#linearGradient7305"
       id="linearGradient3189"
       gradientUnits="userSpaceOnUse"
       x1="-0.24809971"
       y1="9.9014263"
       x2="48.156212"
       y2="37.847668" />
    <radialGradient
       inkscape:collect="always"
       xlink:href="#linearGradient7344"
       id="radialGradient3202"
       gradientUnits="userSpaceOnUse"
       gradientTransform="matrix(3.8208255,0,0,2.3034327,-81.08966,-41.851943)"
       cx="28.541149"
       cy="31.678772"
       fx="28.541149"
       fy="31.678772"
       r="12.000001" />
    <linearGradient
       inkscape:collect="always"
       xlink:href="#linearGradient7305"
       id="linearGradient3204"
       gradientUnits="userSpaceOnUse"
       x1="-0.24809971"
       y1="9.9014263"
       x2="48.156212"
       y2="37.847668" />
    <filter
       id="filter4084"
       inkscape:label="Inner Shadow"
       inkscape:menu="Shadows and Glows"
       inkscape:menu-tooltip="Adds a colorizable drop shadow inside"
       color-interpolation-filters="sRGB">
      <feGaussianBlur
         id="feGaussianBlur4086"
         stdDeviation="4"
         result="result8" />
      <feOffset
         id="feOffset4088"
         dx="4"
         dy="4"
         result="result11" />
      <feComposite
         id="feComposite4090"
         in2="result11"
         result="result6"
         in="SourceGraphic"
         operator="in" />
      <feFlood
         id="feFlood4092"
         result="result10"
         in="result6"
         flood-opacity="1"
         flood-color="rgb(0,0,0)" />
      <feBlend
         id="feBlend4094"
         in2="result10"
         mode="normal"
         in="result6"
         result="result12" />
      <feComposite
         id="feComposite4096"
         in2="SourceGraphic"
         result="result2"
         operator="in" />
    </filter>
    <filter
       id="filter4084-4"
       inkscape:label="Inner Shadow"
       inkscape:menu="Shadows and Glows"
       inkscape:menu-tooltip="Adds a colorizable drop shadow inside"
       color-interpolation-filters="sRGB">
      <feGaussianBlur
         id="feGaussianBlur4086-5"
         stdDeviation="4"
         result="result8" />
      <feOffset
         id="feOffset4088-2"
         dx="4"
         dy="4"
         result="result11" />
      <feComposite
         id="feComposite4090-5"
         in2="result11"
         result="result6"
         in="SourceGraphic"
         operator="in" />
      <feFlood
         id="feFlood4092-4"
         result="result10"
         in="result6"
         flood-opacity="1"
         flood-color="rgb(0,0,0)" />
      <feBlend
         id="feBlend4094-7"
         in2="result10"
         mode="normal"
         in="result6"
         result="result12" />
      <feComposite
         id="feComposite4096-4"
         in2="SourceGraphic"
         result="result2"
         operator="in" />
    </filter>
    <filter
       inkscape:collect="always"
       id="filter4148"
       color-interpolation-filters="sRGB">
      <feGaussianBlur
         inkscape:collect="always"
         stdDeviation="0.20437772"
         id="feGaussianBlur4150" />
    </filter>
  </defs>
  <rect
     style="opacity:0.32075472;fill:#ffffff;fill-opacity:1;fill-rule:nonzero;stroke:none"
     id="rect3850"
     width="27.355932"
     height="27.966103"
     x="0.1016949"
     y="0.03389845"
     ry="0.20450805"
     rx="0.20450805" />
  <g
     id="g3077"
     style="stroke:#000000;stroke-width:1;stroke-miterlimit:4;stroke-opacity:1;stroke-dasharray:none"
     transform="matrix(0.4532426,0,0,0.69692226,-27.197424,-29.269676)">
    <g
       transform="matrix(0.09108665,0,0,1,88.70491,69.559321)"
       id="g3052"
       style="stroke:#000000;stroke-width:3.31339049;stroke-miterlimit:4;stroke-opacity:1;stroke-dasharray:none">
      <path
         style="stroke:#000000;stroke-width:3.31339049;stroke-linecap:round;stroke-linejoin:round;stroke-miterlimit:4;stroke-opacity:1;stroke-dasharray:none"
         d="m -308.3956,8.2231894 654.8251,0"
         id="line554"
         inkscape:connector-curvature="0" />
      <path
         style="stroke:#000000;stroke-width:3.31339049;stroke-linecap:round;stroke-linejoin:round;stroke-miterlimit:4;stroke-opacity:1;stroke-dasharray:none"
         d="m -308.3956,0.12853697 654.8251,0"
         id="line556"
         inkscape:connector-curvature="0" />
      <path
         style="stroke:#000000;stroke-width:3.31339049;stroke-linecap:round;stroke-linejoin:round;stroke-miterlimit:4;stroke-opacity:1;stroke-dasharray:none"
         d="m -308.3956,-7.9661016 654.8251,0"
         id="line558"
         inkscape:connector-curvature="0" />
      <path
         style="stroke:#000000;stroke-width:3.31339049;stroke-linecap:round;stroke-linejoin:round;stroke-miterlimit:4;stroke-opacity:1;stroke-dasharray:none"
         d="m -308.3956,-16.060753 654.8251,0"
         id="line560"
         inkscape:connector-curvature="0" />
      <path
         style="stroke:#000000;stroke-width:3.31339049;stroke-linecap:round;stroke-linejoin:round;stroke-miterlimit:4;stroke-opacity:1;stroke-dasharray:none"
         d="m -308.3956,-24.155392 654.8251,0"
         id="line562"
         inkscape:connector-curvature="0" />
    </g>
  </g>
  <path
     style="fill:currentColor"
     d="m 22.449096,2.1341423 0.88802,0 0,23.0437337 -0.88802,0 z"
     id="rect564"
     inkscape:connector-curvature="0" />
  <path
     style="fill:currentColor"
     d="m 24.739106,2.1341423 2.80399,0 0,23.0437337 -2.80399,0 z"
     id="rect566"
     inkscape:connector-curvature="0" />
  <path
     inkscape:connector-curvature="0"
     d="m 22.514424,18.470209 -3.256779,3.257032 -3.260232,3.257031 -4.604291,0 -4.6077408,0 -3.2567831,-3.257031 -3.25677964,-3.257032 0,-4.608098 0,-4.6046484 3.25677964,-3.260479 3.2567831,-3.2570316 4.6077408,0 4.604291,0 3.260232,3.2570316 3.256779,3.260479 0,4.6046484 0,4.608098 z"
     style="fill:#d40000;fill-opacity:1;fill-rule:evenodd;stroke:none"
     id="5" />
  <path
     inkscape:connector-curvature="0"
     d="m 21.408151,18.115209 -2.881129,2.881353 -0.351529,-0.351551 2.881136,-2.881353 0.351522,0.351551 z m -2.881129,2.881353 -2.88458,2.881351 -0.35152,-0.351552 2.884571,-2.88135 0.351529,0.351551 z m -2.88458,2.881351 -0.07234,0.07237 -0.103387,0 0,-0.248155 0.175757,0.175774 z m -0.175756,0.07237 -4.073564,0 0,-0.49631 4.073564,0 0,0.49631 z m -4.073564,0 -4.077005,0 0,-0.49631 4.077005,0 0,0.49631 z m -4.077005,0 -0.1033915,0 -0.072366,-0.07237 0.1757608,-0.175775 0,0.248155 z M 7.1403528,23.877913 4.2592221,20.996562 4.610747,20.645011 7.4918777,23.526361 7.1403528,23.877913 z M 4.2592221,20.996562 1.3780915,18.115209 1.7296165,17.763658 4.610747,20.645011 4.2592221,20.996562 z m -2.8811306,-2.881353 -0.072366,-0.07237 0,-0.103398 0.2481326,0 -0.1757617,0.175777 z m -0.072366,-0.175776 0,-4.077322 0.4962687,0 0,4.077322 -0.4962687,0 z m 0,-4.077322 0,-4.0738726 0.4962687,0 0,4.0738726 -0.4962687,0 z m 0,-4.0738726 0,-0.1033975 0.072366,-0.072374 0.1757607,0.175776 -0.2481325,0 z M 1.3780915,9.6124624 4.2592221,6.727663 4.610747,7.0792142 1.7296165,9.9640134 1.3780915,9.6124624 z M 4.2592221,6.727663 7.1403528,3.8463084 7.4918777,4.1978619 4.610747,7.0792142 4.2592221,6.727663 z m 2.8811307,-2.8813546 0.072366,-0.072378 0.1033915,0 0,0.2481537 -0.1757631,-0.1757765 z m 0.1757642,-0.072378 4.077005,0 0,0.4963089 -4.077005,0 0,-0.4963089 z m 4.077005,0 4.073564,0 0,0.4963089 -4.073564,0 0,-0.4963089 z m 4.073564,0 0.103386,0 0.07235,0.072378 -0.175756,0.1757767 0,-0.2481535 z m 0.175756,0.072378 2.88458,2.8813546 -0.351529,0.3515512 -2.884571,-2.8813523 0.35152,-0.3515535 z m 2.88458,2.8813546 2.881129,2.8847994 -0.351522,0.351551 -2.881136,-2.8847992 0.351529,-0.3515512 z m 2.881129,2.8847994 0.07235,0.072374 0,0.1033975 -0.248134,0 0.175756,-0.175776 z m 0.07235,0.175776 0,4.0738726 -0.496276,0 0,-4.0738726 0.496276,0 z m 0,4.0738726 0,4.077322 -0.496276,0 0,-4.077322 0.496276,0 z m 0,4.077322 0,0.103397 -0.07235,0.07237 -0.175757,-0.175777 0.248134,0 z"
     style="fill:#ffffff;fill-opacity:1;fill-rule:nonzero;stroke:none"
     id="6" />
  <g
     transform="matrix(0.8268905,0,0,1.2813233,-549.64833,-436.17366)"
     style="font-size:18.00580597px;font-style:normal;font-variant:normal;font-weight:500;font-stretch:normal;line-height:125%;letter-spacing:0px;word-spacing:0px;opacity:0.4;fill:#000000;fill-opacity:1;stroke:none;filter:url(#filter4148);font-family:feta14;-inkscape-font-specification:feta14 Medium"
     id="text3606-8-4">
    <path
       inkscape:connector-curvature="0"
       d="m 672.47077,348.98888 c 0,-1.39244 0.79825,-2.39476 2.39477,-3.00697 1.2484,-0.46814 2.97696,-0.70221 5.18567,-0.70222 1.09235,10e-6 2.12468,0.16206 3.097,0.48615 1.15236,0.38414 2.01664,0.94232 2.59284,1.67454 0.33609,0.44415 0.50415,0.92431 0.50416,1.44047 -1e-5,0.82827 -0.44416,1.62653 -1.33243,2.39477 -0.64822,0.56419 -1.36845,0.99632 -2.1607,1.29642 -1.26041,0.48016 -2.23873,1.02033 -2.93494,1.62052 -0.24009,0.21607 -0.36013,0.40813 -0.36012,0.57618 -1e-5,0.024 -0.012,0.066 -0.036,0.12605 -0.012,0.048 -0.018,0.084 -0.018,0.10803 0,0.22808 -0.43814,0.34211 -1.31442,0.34211 -0.37213,0 -0.58219,-0.03 -0.6302,-0.09 -0.036,-0.024 -0.048,-0.06 -0.036,-0.10803 0.012,-0.048 0.018,-0.10804 0.018,-0.18006 0,-0.70823 0.45614,-1.38044 1.36844,-2.01665 0.26408,-0.19206 0.67821,-0.45614 1.2424,-0.79226 0.57618,-0.3361 1.00232,-0.60019 1.27842,-0.79225 0.90028,-0.6362 1.35042,-1.28441 1.35043,-1.94463 -10e-6,-0.3361 -0.15606,-0.66621 -0.46815,-0.99032 -0.43215,-0.44413 -1.03234,-0.6662 -1.80058,-0.66621 -0.46816,10e-6 -0.9063,0.11404 -1.31442,0.34211 -0.48017,0.27609 -0.72024,0.63021 -0.72024,1.06234 0,0.13205 0.048,0.25809 0.14405,0.37812 0.10803,0.12005 0.16205,0.22208 0.16205,0.3061 0,0.16806 -0.22808,0.25209 -0.68422,0.25208 l -4.80755,0 c -0.48015,10e-6 -0.72023,-0.28808 -0.72023,-0.86428 l 0,-0.25208 m 3.79922,6.98625 3.34908,0 c 0.19206,0 0.56418,0.2821 1.11636,0.84628 0.57618,0.60019 0.86427,1.03233 0.86428,1.29641 -10e-6,0.12004 -0.048,0.17406 -0.14404,0.16206 -0.096,-0.012 -0.17407,-0.018 -0.23408,-0.018 l -2.75489,0 c -0.096,0 -0.44415,-0.27009 -1.04433,-0.81026 -0.67223,-0.60019 -1.05635,-1.09235 -1.15238,-1.47648"
       style="font-weight:normal;fill:#000000;font-family:FL Jazzowy 1;-inkscape-font-specification:'FL Jazzowy 1,'"
       id="path4483-3" />
  </g>
  <path
     id="path4483"
     style="font-size:18.00580597000000083px;font-style:normal;font-variant:normal;font-weight:normal;font-stretch:normal;line-height:125%;letter-spacing:0px;word-spacing:0px;fill:#ffffff;fill-opacity:1;stroke:none;font-family:FL Jazzowy 1;-inkscape-font-specification:'FL Jazzowy 1,'"
     d="m 672.47077,348.98888 c 0,-1.39244 0.79825,-2.39476 2.39477,-3.00697 1.2484,-0.46814 2.97696,-0.70221 5.18567,-0.70222 1.09235,10e-6 2.12468,0.16206 3.097,0.48615 1.15236,0.38414 2.01664,0.94232 2.59284,1.67454 0.33609,0.44415 0.50415,0.92431 0.50416,1.44047 -1e-5,0.82827 -0.44416,1.62653 -1.33243,2.39477 -0.64822,0.56419 -1.36845,0.99632 -2.1607,1.29642 -1.26041,0.48016 -2.23873,1.02033 -2.93494,1.62052 -0.24009,0.21607 -0.36013,0.40813 -0.36012,0.57618 -1e-5,0.024 -0.012,0.066 -0.036,0.12605 -0.012,0.048 -0.018,0.084 -0.018,0.10803 0,0.22808 -0.43814,0.34211 -1.31442,0.34211 -0.37213,0 -0.58219,-0.03 -0.6302,-0.09 -0.036,-0.024 -0.048,-0.06 -0.036,-0.10803 0.012,-0.048 0.018,-0.10804 0.018,-0.18006 0,-0.70823 0.45614,-1.38044 1.36844,-2.01665 0.26408,-0.19206 0.67821,-0.45614 1.2424,-0.79226 0.57618,-0.3361 1.00232,-0.60019 1.27842,-0.79225 0.90028,-0.6362 1.35042,-1.28441 1.35043,-1.94463 -10e-6,-0.3361 -0.15606,-0.66621 -0.46815,-0.99032 -0.43215,-0.44413 -1.03234,-0.6662 -1.80058,-0.66621 -0.46816,10e-6 -0.9063,0.11404 -1.31442,0.34211 -0.48017,0.27609 -0.72024,0.63021 -0.72024,1.06234 0,0.13205 0.048,0.25809 0.14405,0.37812 0.10803,0.12005 0.16205,0.22208 0.16205,0.3061 0,0.16806 -0.22808,0.25209 -0.68422,0.25208 l -4.80755,0 c -0.48015,10e-6 -0.72023,-0.28808 -0.72023,-0.86428 l 0,-0.25208 m 3.79922,6.98625 3.34908,0 c 0.19206,0 0.56418,0.2821 1.11636,0.84628 0.57618,0.60019 0.86427,1.03233 0.86428,1.29641 -10e-6,0.12004 -0.048,0.17406 -0.14404,0.16206 -0.096,-0.012 -0.17407,-0.018 -0.23408,-0.018 l -2.75489,0 c -0.096,0 -0.44415,-0.27009 -1.04433,-0.81026 -0.67223,-0.60019 -1.05635,-1.09235 -1.15238,-1.47648"
     inkscape:connector-curvature="0"
     transform="matrix(0.8268905,0,0,1.2813233,-551.07114,-437.02718)" />
</svg>
