<?xml version="1.0" encoding="UTF-8" standalone="no"?>
<!-- Created with Inkscape (http://www.inkscape.org/) -->

<svg
   xmlns:dc="http://purl.org/dc/elements/1.1/"
   xmlns:cc="http://creativecommons.org/ns#"
   xmlns:rdf="http://www.w3.org/1999/02/22-rdf-syntax-ns#"
   xmlns:svg="http://www.w3.org/2000/svg"
   xmlns="http://www.w3.org/2000/svg"
   xmlns:sodipodi="http://sodipodi.sourceforge.net/DTD/sodipodi-0.dtd"
   xmlns:inkscape="http://www.inkscape.org/namespaces/inkscape"
   width="4.5338316"
   height="15.906672"
   id="svg5341"
   version="1.1"
   inkscape:version="0.48.0 r9654"
   sodipodi:docname="clef.svg">
  <defs
     id="defs5343" />
  <sodipodi:namedview
     id="base"
     pagecolor="#ffffff"
     bordercolor="#666666"
     borderopacity="1.0"
     inkscape:pageopacity="0.0"
     inkscape:pageshadow="2"
     inkscape:zoom="15.839192"
     inkscape:cx="-0.93193406"
     inkscape:cy="9.0521193"
     inkscape:document-units="px"
     inkscape:current-layer="layer1"
     showgrid="false"
     fit-margin-top="0"
     fit-margin-left="0"
     fit-margin-right="0"
     fit-margin-bottom="0"
     inkscape:window-width="580"
     inkscape:window-height="459"
     inkscape:window-x="682"
     inkscape:window-y="593"
     inkscape:window-maximized="0" />
  <metadata
     id="metadata5346">
    <rdf:RDF>
      <cc:Work
         rdf:about="">
        <dc:format>image/svg+xml</dc:format>
        <dc:type
           rdf:resource="http://purl.org/dc/dcmitype/StillImage" />
        <dc:title />
      </cc:Work>
    </rdf:RDF>
  </metadata>
  <g
     inkscape:label="Layer 1"
     inkscape:groupmode="layer"
     id="layer1"
     transform="translate(-363.44737,-547.26599)">
    <g
       transform="matrix(0.85503554,0,0,1.1608382,364.99903,562.03382)"
       id="g1718">
      <g
         id="text1720"
         style="font-size:1.38540471px;fill:currentColor;font-family:L">
        <path
           inkscape:connector-curvature="0"
           id="path5369"
           d="m 0.44038011,-0.4796152 c -0.0649412,4.8e-7 -0.11612718,0.0173631 -0.15355804,0.052088 -0.0369805,0.0347257 -0.0554705,0.0825293 -0.0554703,0.14341103 -2.3e-7,0.0608823 0.0184899,0.1086859 0.0554703,0.14341103 0.0374309,0.0347254 0.0886168,0.05208806 0.15355804,0.05208797 0.0649403,9e-8 0.1161263,-0.01736255 0.15355804,-0.05208797 0.0374305,-0.0351761 0.0561461,-0.0829797 0.0561468,-0.14341103 -6.5e-7,-0.0608817 -0.0187162,-0.10868533 -0.0561468,-0.14341103 -0.0369808,-0.0347249 -0.0881667,-0.0520875 -0.15355804,-0.052088 M 0.30373375,-0.5377914 c -0.0586274,-0.0144307 -0.10440163,-0.0417149 -0.13732283,-0.0818525 -0.0324706,-0.0401364 -0.0487058,-0.0890675 -0.0487056,-0.14679337 -1.2e-7,-0.0807242 0.028637,-0.14453757 0.0859113,-0.1914402 0.0577249,-0.0469007 0.13664602,-0.0703515 0.2367635,-0.0703526 0.10056757,1.1e-6 0.17948866,0.023452 0.2367635,0.0703526 0.0572735,0.0469026 0.0859106,0.11071597 0.0859113,0.1914402 -7.7e-7,0.0577259 -0.0164614,0.10665698 -0.0493821,0.14679337 -0.0324711,0.0401376 -0.0777944,0.0674218 -0.13596989,0.0818525 0.0658422,0.0153338 0.11702812,0.0453238 0.15355804,0.0899701 0.0369794,0.0446472 0.0554695,0.0992155 0.0554703,0.16370505 -7.9e-7,0.0978624 -0.0299908,0.17295021 -0.0899701,0.22526356 -0.0595297,0.05231346 -0.14499001,0.07847017 -0.25638105,0.07847019 -0.11139192,-2e-8 -0.19707767,-0.02615673 -0.25705751,-0.07847019 -0.0595292,-0.05231335 -0.08929376,-0.12740113 -0.08929367,-0.22526356 -9e-8,-0.0644895 0.01848999,-0.11905781 0.05547031,-0.16370505 0.03698,-0.0446463 0.0883915,-0.0746363 0.15423451,-0.0899701 m -0.0500586,-0.215793 c -2.6e-7,0.0523142 0.0162349,0.0931276 0.0487056,0.12244056 0.0329211,0.0293142 0.0789208,0.043971 0.1379993,0.0439704 0.0586267,5.9e-7 0.10440088,-0.0146562 0.13732283,-0.0439704 0.0333718,-0.0293129 0.0500579,-0.0701264 0.0500586,-0.12244056 -6.3e-7,-0.0523126 -0.0166868,-0.0931261 -0.0500586,-0.12244055 -0.0329219,-0.0293127 -0.0786962,-0.0439694 -0.13732283,-0.0439704 -0.0590785,9.2e-7 -0.10507823,0.0146577 -0.1379993,0.0439704 -0.0324707,0.0293144 -0.0487059,0.0701279 -0.0487056,0.12244055" />
      </g>
    </g>
    <g
       transform="matrix(1.757299,0,0,1.757299,363.44737,556.03843)"
       id="g1724">
      <g
         id="text1726"
         style="font-size:4px;fill:currentColor;font-family:Emmentaler">
        <path
           inkscape:connector-curvature="0"
           id="path5372"
           d="M 2.58,0.012 C 2.58,-0.52799946 2.1759994,-1.052 1.544,-1.076 1.46,-1.3639997 1.3639999,-1.6520003 1.26,-1.936 1.6119996,-2.4159995 1.924,-2.9040006 1.924,-3.5 c 0,-0.6599993 -0.5480002,-1.492 -0.712,-1.492 -0.1119999,0 -0.624,0.5160007 -0.624,1.248 0,0.5919994 0.10000022,0.9240006 0.32,1.48 C 0.47600043,-1.6760006 0,-1.1039993 0,-0.368 c 0,0.78799921 0.62000078,1.444 1.4,1.444 0.096,0 0.1880001,-0.008 0.28,-0.024 l 0,0.108 C 1.68,1.3279998 1.676,1.4960002 1.66,1.664 1.624,2.0639996 1.3879996,2.432 1.02,2.432 0.82800019,2.432 0.65999989,2.344 0.552,2.208 c 0.016,0.004 0.036,0.008 0.056,0.008 0.21199979,0 0.38,-0.1720002 0.38,-0.38 C 0.988,1.6120002 0.82399978,1.42 0.608,1.42 0.37200024,1.42 0.16,1.6040002 0.16,1.836 0.16,2.2879995 0.55200047,2.64 1.02,2.64 1.4959995,2.64 1.824,2.1919995 1.868,1.692 1.884,1.5120002 1.888,1.3359998 1.888,1.156 L 1.888,1 C 2.2479996,0.87200013 2.58,0.5079995 2.58,0.012 m -0.7,0.776 c -0.032,-0.54399946 -0.1240001,-1.02400034 -0.2,-1.36 0.3639996,0.0839999 0.596,0.40800033 0.596,0.74 0,0.3039997 -0.1880002,0.52800009 -0.396,0.62 M 1.208,0.536 C 1.264,0.536 1.312,0.4839999 1.312,0.428 1.312,0.404 1.3,0.376 1.276,0.352 1.0440002,0.23600012 0.94,0.05199982 0.94,-0.124 c 0,-0.23199977 0.1880003,-0.44800002 0.52,-0.464 0.084,0.35199965 0.184,0.86000058 0.212,1.436 -0.088,0.016 -0.1800001,0.02 -0.272,0.02 -0.52399948,0 -1.076,-0.38800049 -1.076,-0.876 0,-0.66399934 0.3920004,-1.2000005 0.788,-1.732 0.084,0.2239998 0.1560001,0.4480002 0.224,0.676 -0.45199955,0.0719999 -0.708,0.44000038 -0.708,0.816 0,0.54399946 0.5000001,0.784 0.58,0.784 m 0.244,-4.872 c 0.1199999,0.1759998 0.148,0.2640002 0.148,0.476 0,0.5199995 -0.2440003,0.9640004 -0.54,1.388 -0.12799987,-0.3439997 -0.232,-0.6280002 -0.232,-0.784 0,-0.4479996 0.2400004,-0.8600002 0.624,-1.08" />
      </g>
    </g>
  </g>
</svg>
