<?xml version="1.0" encoding="UTF-8" standalone="no"?>
<!-- Created with Inkscape (http://www.inkscape.org/) -->

<svg
   xmlns:dc="http://purl.org/dc/elements/1.1/"
   xmlns:cc="http://creativecommons.org/ns#"
   xmlns:rdf="http://www.w3.org/1999/02/22-rdf-syntax-ns#"
   xmlns:svg="http://www.w3.org/2000/svg"
   xmlns="http://www.w3.org/2000/svg"
   xmlns:sodipodi="http://sodipodi.sourceforge.net/DTD/sodipodi-0.dtd"
   xmlns:inkscape="http://www.inkscape.org/namespaces/inkscape"
   width="2.7905908"
   height="4.4073057"
   id="svg5275"
   version="1.1"
   inkscape:version="0.48.0 r9654"
   sodipodi:docname="Nowy dokument 11">
  <defs
     id="defs5277" />
  <sodipodi:namedview
     id="base"
     pagecolor="#ffffff"
     bordercolor="#666666"
     borderopacity="1.0"
     inkscape:pageopacity="0.0"
     inkscape:pageshadow="2"
     inkscape:zoom="5.6"
     inkscape:cx="12.333122"
     inkscape:cy="1.9011408"
     inkscape:document-units="px"
     inkscape:current-layer="layer1"
     showgrid="false"
     fit-margin-top="0"
     fit-margin-left="0"
     fit-margin-right="0"
     fit-margin-bottom="0"
     inkscape:window-width="580"
     inkscape:window-height="456"
     inkscape:window-x="1012"
     inkscape:window-y="713"
     inkscape:window-maximized="0" />
  <metadata
     id="metadata5280">
    <rdf:RDF>
      <cc:Work
         rdf:about="">
        <dc:format>image/svg+xml</dc:format>
        <dc:type
           rdf:resource="http://purl.org/dc/dcmitype/StillImage" />
        <dc:title></dc:title>
      </cc:Work>
    </rdf:RDF>
  </metadata>
  <g
     inkscape:label="Layer 1"
     inkscape:groupmode="layer"
     id="layer1"
     transform="translate(-92.890419,-604.44425)">
    <g
       transform="matrix(1.757299,0,0,1.757299,93.136441,607.57224)"
       id="g1760">
      <g
         style="font-size:4px;fill:currentColor;font-family:Emmentaler"
         id="text1762">
        <path
           d="m 0.8,-0.12 c 0,-0.13599986 0.0560001,-0.272 0.172,-0.272 0.1039999,0 0.144,0.12400012 0.144,0.244 0,0.21199979 -0.14800016,0.38400015 -0.304,0.536 -0.012,-0.0799999 -0.02,-0.16400008 -0.02,-0.248 L 0.792,0.1 0.8,-0.12 M 0.576,0.576 c 0,0.0799999 0.0480001,0.152 0.124,0.152 0.11999988,0 0.15200008,-0.14800008 0.236,-0.228 0.2119998,-0.20799979 0.512,-0.3760003 0.512,-0.68 0,-0.21599978 -0.1120002,-0.428 -0.312,-0.428 -0.14799985,0 -0.2880001,0.0680001 -0.384,0.184 l 0.04,-1.32 c -0.044,-0.024 -0.0920001,-0.036 -0.144,-0.036 -0.048,0 -0.096,0.012 -0.14,0.036 l 0.036,1.176 c -0.04,-0.024 -0.0840001,-0.04 -0.136,-0.04 -0.12799987,0 -0.24400006,0.0720001 -0.304,0.184 L 0.14,-1.744 C 0.09600004,-1.768 0.04799995,-1.78 0,-1.78 c -0.04799995,0 -0.09600004,0.012 -0.14,0.036 l 0.064,2.32 c 0,0.0799999 0.05200008,0.152 0.128,0.152 0.11199989,0 0.12800007,-0.14800008 0.2,-0.228 C 0.3519999,0.38800011 0.47200009,0.28399988 0.564,0.168 L 0.576,0.576 M 0.096,-0.12 c 0.004,-0.13199987 0.03600011,-0.272 0.148,-0.272 0.0999999,0 0.124,0.12400012 0.124,0.244 0,0.21199979 -0.11600014,0.40000016 -0.256,0.56 C 0.09600002,0.32400009 0.088,0.23199991 0.088,0.144 l 0,-0.044 0.008,-0.22"
           style=""
           id="path5295" />
      </g>
    </g>
  </g>
</svg>
