<?xml version="1.0" encoding="UTF-8" standalone="no"?>
<!-- Created with Inkscape (http://www.inkscape.org/) -->

<svg
   xmlns:dc="http://purl.org/dc/elements/1.1/"
   xmlns:cc="http://creativecommons.org/ns#"
   xmlns:rdf="http://www.w3.org/1999/02/22-rdf-syntax-ns#"
   xmlns:svg="http://www.w3.org/2000/svg"
   xmlns="http://www.w3.org/2000/svg"
   version="1.1"
   width="3"
   height="5.5"
   id="svg5275">
  <defs
     id="defs5277" />
  <metadata
     id="metadata5280">
    <rdf:RDF>
      <cc:Work
         rdf:about="">
        <dc:format>image/svg+xml</dc:format>
        <dc:type
           rdf:resource="http://purl.org/dc/dcmitype/StillImage" />
        <dc:title></dc:title>
      </cc:Work>
    </rdf:RDF>
  </metadata>
  <g
     transform="translate(-92.890419,-603.35156)"
     id="layer1">
    <g
       transform="matrix(1.757299,0,0,1.757299,93.241145,607.0259)"
       id="g1760">
      <g
         id="text1762"
         style="font-size:4px;fill:currentColor;font-family:Emmentaler">
        <path
           d="m 0.8,-0.12 c 0,-0.13599986 0.0560001,-0.272 0.172,-0.272 0.1039999,0 0.144,0.12400012 0.144,0.244 0,0.21199979 -0.14800016,0.38400015 -0.304,0.536 C 0.8,0.3080001 0.792,0.22399992 0.792,0.14 L 0.792,0.1 0.8,-0.12 M 0.576,0.576 c 0,0.0799999 0.0480001,0.152 0.124,0.152 0.11999988,0 0.15200008,-0.14800008 0.236,-0.228 0.2119998,-0.20799979 0.512,-0.3760003 0.512,-0.68 0,-0.21599978 -0.1120002,-0.428 -0.312,-0.428 -0.14799985,0 -0.2880001,0.0680001 -0.384,0.184 l 0.04,-1.32 C 0.748,-1.768 0.6999999,-1.78 0.648,-1.78 c -0.048,0 -0.096,0.012 -0.14,0.036 l 0.036,1.176 c -0.04,-0.024 -0.0840001,-0.04 -0.136,-0.04 -0.12799987,0 -0.24400006,0.0720001 -0.304,0.184 L 0.14,-1.744 C 0.09600004,-1.768 0.04799995,-1.78 0,-1.78 c -0.04799995,0 -0.09600004,0.012 -0.14,0.036 l 0.064,2.32 c 0,0.0799999 0.05200008,0.152 0.128,0.152 0.11199989,0 0.12800007,-0.14800008 0.2,-0.228 C 0.3519999,0.38800011 0.47200009,0.28399988 0.564,0.168 L 0.576,0.576 M 0.096,-0.12 c 0.004,-0.13199987 0.03600011,-0.272 0.148,-0.272 0.0999999,0 0.124,0.12400012 0.124,0.244 0,0.21199979 -0.11600014,0.40000016 -0.256,0.56 C 0.09600002,0.32400009 0.088,0.23199991 0.088,0.144 l 0,-0.044 0.008,-0.22"
           id="path5295" />
      </g>
    </g>
  </g>
</svg>
