<?xml version="1.0" encoding="UTF-8" standalone="no"?>
<!-- Created with Inkscape (http://www.inkscape.org/) -->

<svg
   xmlns:dc="http://purl.org/dc/elements/1.1/"
   xmlns:cc="http://creativecommons.org/ns#"
   xmlns:rdf="http://www.w3.org/1999/02/22-rdf-syntax-ns#"
   xmlns:svg="http://www.w3.org/2000/svg"
   xmlns="http://www.w3.org/2000/svg"
   xmlns:sodipodi="http://sodipodi.sourceforge.net/DTD/sodipodi-0.dtd"
   xmlns:inkscape="http://www.inkscape.org/namespaces/inkscape"
   width="2.01035"
   height="2.01035"
   id="svg5167"
   version="1.1"
   inkscape:version="0.48.0 r9654"
   sodipodi:docname="Nowy dokument 5">
  <defs
     id="defs5169" />
  <sodipodi:namedview
     id="base"
     pagecolor="#ffffff"
     bordercolor="#666666"
     borderopacity="1.0"
     inkscape:pageopacity="0.0"
     inkscape:pageshadow="2"
     inkscape:zoom="11.2"
     inkscape:cx="-1.6923373"
     inkscape:cy="0.45906831"
     inkscape:document-units="px"
     inkscape:current-layer="layer1"
     showgrid="false"
     fit-margin-top="0"
     fit-margin-left="0"
     fit-margin-right="0"
     fit-margin-bottom="0"
     inkscape:window-width="580"
     inkscape:window-height="456"
     inkscape:window-x="593"
     inkscape:window-y="445"
     inkscape:window-maximized="0" />
  <metadata
     id="metadata5172">
    <rdf:RDF>
      <cc:Work
         rdf:about="">
        <dc:format>image/svg+xml</dc:format>
        <dc:type
           rdf:resource="http://purl.org/dc/dcmitype/StillImage" />
        <dc:title></dc:title>
      </cc:Work>
    </rdf:RDF>
  </metadata>
  <g
     inkscape:label="Layer 1"
     inkscape:groupmode="layer"
     id="layer1"
     transform="translate(-381.85196,-622.78557)">
    <g
       transform="matrix(1.757299,0,0,1.757299,381.97849,623.79075)"
       id="g1846">
      <g
         style="font-size:4px;fill:currentColor;font-family:Emmentaler"
         id="text1848">
        <path
           d="m 0.636,0 c 0.0879999,-0.08399992 0.21200012,-0.104 0.332,-0.104 0.04,0 0.072,-0.032 0.072,-0.072 L 1.072,-0.5 c 0.004,-0.04 -0.028,-0.072 -0.064,-0.072 L 1,-0.572 0.676,-0.54 c -0.04,0.004 -0.072,0.036 -0.072,0.072 0,0.11999988 -0.0200001,0.24400009 -0.104,0.332 -0.0839999,-0.0879999 -0.104,-0.21200012 -0.104,-0.332 0,-0.036 -0.032,-0.068 -0.072,-0.072 L 0,-0.572 l -0.008,0 c -0.03599996,0 -0.068,0.032 -0.064,0.072 l 0.032,0.324 c 0,0.04 0.03200004,0.072 0.072,0.072 0.11999988,0 0.24400009,0.02000008 0.332,0.104 -0.0879999,0.08399992 -0.21200012,0.104 -0.332,0.104 -0.03999996,0 -0.072,0.032 -0.072,0.072 L -0.072,0.5 c -0.004,0.04 0.02800004,0.072 0.064,0.072 L 0,0.572 0.324,0.54 c 0.04,-0.004 0.072,-0.036 0.072,-0.072 0,-0.11999988 0.0200001,-0.24400009 0.104,-0.332 0.0839999,0.0879999 0.104,0.21200012 0.104,0.332 0,0.036 0.032,0.068 0.072,0.072 L 1,0.572 l 0.008,0 c 0.036,0 0.068,-0.032 0.064,-0.072 L 1.04,0.176 c 0,-0.04 -0.032,-0.072 -0.072,-0.072 C 0.84800012,0.104 0.72399991,0.08399992 0.636,0"
           style=""
           id="path5187" />
      </g>
    </g>
  </g>
</svg>
