<?xml version="1.0" encoding="UTF-8" standalone="no"?>
<!-- Created with Inkscape (http://www.inkscape.org/) -->

<svg
   xmlns:dc="http://purl.org/dc/elements/1.1/"
   xmlns:cc="http://creativecommons.org/ns#"
   xmlns:rdf="http://www.w3.org/1999/02/22-rdf-syntax-ns#"
   xmlns:svg="http://www.w3.org/2000/svg"
   xmlns="http://www.w3.org/2000/svg"
   version="1.1"
   width="3"
   height="5.5"
   id="svg5167">
  <defs
     id="defs5169" />
  <metadata
     id="metadata5172">
    <rdf:RDF>
      <cc:Work
         rdf:about="">
        <dc:format>image/svg+xml</dc:format>
        <dc:type
           rdf:resource="http://purl.org/dc/dcmitype/StillImage" />
        <dc:title></dc:title>
      </cc:Work>
    </rdf:RDF>
  </metadata>
  <g
     transform="translate(-381.85196,-619.29592)"
     id="layer1">
    <g
       transform="matrix(1.757299,0,0,1.757299,382.47331,622.04592)"
       id="g1846">
      <g
         id="text1848"
         style="font-size:4px;fill:currentColor;font-family:Emmentaler">
        <path
           d="m 0.636,0 c 0.0879999,-0.08399992 0.21200012,-0.104 0.332,-0.104 0.04,0 0.072,-0.032 0.072,-0.072 L 1.072,-0.5 C 1.076,-0.54 1.044,-0.572 1.008,-0.572 L 1,-0.572 0.676,-0.54 c -0.04,0.004 -0.072,0.036 -0.072,0.072 0,0.11999988 -0.0200001,0.24400009 -0.104,0.332 C 0.4160001,-0.2239999 0.396,-0.34800012 0.396,-0.468 0.396,-0.504 0.364,-0.536 0.324,-0.54 L 0,-0.572 l -0.008,0 c -0.03599996,0 -0.068,0.032 -0.064,0.072 l 0.032,0.324 c 0,0.04 0.03200004,0.072 0.072,0.072 0.11999988,0 0.24400009,0.02000008 0.332,0.104 -0.0879999,0.08399992 -0.21200012,0.104 -0.332,0.104 -0.03999996,0 -0.072,0.032 -0.072,0.072 L -0.072,0.5 c -0.004,0.04 0.02800004,0.072 0.064,0.072 L 0,0.572 0.324,0.54 C 0.364,0.536 0.396,0.504 0.396,0.468 0.396,0.34800012 0.4160001,0.22399991 0.5,0.136 c 0.0839999,0.0879999 0.104,0.21200012 0.104,0.332 0,0.036 0.032,0.068 0.072,0.072 L 1,0.572 l 0.008,0 C 1.044,0.572 1.076,0.54 1.072,0.5 L 1.04,0.176 C 1.04,0.136 1.008,0.104 0.968,0.104 0.84800012,0.104 0.72399991,0.08399992 0.636,0"
           id="path5187" />
      </g>
    </g>
  </g>
</svg>
