<?xml version="1.0" encoding="UTF-8" standalone="no"?>
<!-- Created with Inkscape (http://www.inkscape.org/) -->

<svg
   xmlns:dc="http://purl.org/dc/elements/1.1/"
   xmlns:cc="http://creativecommons.org/ns#"
   xmlns:rdf="http://www.w3.org/1999/02/22-rdf-syntax-ns#"
   xmlns:svg="http://www.w3.org/2000/svg"
   xmlns="http://www.w3.org/2000/svg"
   version="1.1"
   width="3"
   height="5.5"
   id="svg5221">
  <defs
     id="defs5223" />
  <metadata
     id="metadata5226">
    <rdf:RDF>
      <cc:Work
         rdf:about="">
        <dc:format>image/svg+xml</dc:format>
        <dc:type
           rdf:resource="http://purl.org/dc/dcmitype/StillImage" />
        <dc:title></dc:title>
      </cc:Work>
    </rdf:RDF>
  </metadata>
  <g
     transform="translate(-102.03121,-500.49441)"
     id="layer1">
    <g
       transform="matrix(1.757299,0,0,1.757299,102.9513,504.16875)"
       id="g1830">
      <g
         id="text1832"
         style="font-size:4px;fill:currentColor;font-family:Emmentaler">
        <path
           d="m 0.148,-0.12 c 0.004,-0.13599986 0.0680001,-0.272 0.188,-0.272 0.10799989,0 0.156,0.12000012 0.156,0.244 0,0.21599978 -0.17200016,0.38400015 -0.332,0.536 C 0.148,0.3080001 0.14,0.22399992 0.14,0.14 l 0,-0.04 0.008,-0.22 m -0.224,0.696 c 0,0.0799999 0.05200008,0.152 0.128,0.152 C 0.17199988,0.728 0.20400008,0.57999992 0.284,0.5 0.49999978,0.29200021 0.8,0.1239997 0.8,-0.176 c 0,-0.21999978 -0.1040002,-0.432 -0.3,-0.432 -0.15199985,0 -0.2960001,0.0680001 -0.396,0.184 L 0.14,-1.744 C 0.09600004,-1.768 0.04799995,-1.78 0,-1.78 c -0.04799995,0 -0.09600004,0.012 -0.14,0.036 l 0.064,2.32"
           id="path5241" />
      </g>
    </g>
  </g>
</svg>
