<?xml version="1.0" encoding="UTF-8" standalone="no"?>
<!-- Created with Inkscape (http://www.inkscape.org/) -->

<svg
   xmlns:dc="http://purl.org/dc/elements/1.1/"
   xmlns:cc="http://creativecommons.org/ns#"
   xmlns:rdf="http://www.w3.org/1999/02/22-rdf-syntax-ns#"
   xmlns:svg="http://www.w3.org/2000/svg"
   xmlns="http://www.w3.org/2000/svg"
   xmlns:sodipodi="http://sodipodi.sourceforge.net/DTD/sodipodi-0.dtd"
   xmlns:inkscape="http://www.inkscape.org/namespaces/inkscape"
   version="1.1"
   width="69.214279"
   height="32.785713"
   id="svg2"
   inkscape:version="0.48.0 r9654"
   sodipodi:docname="nameSettings.svg">
  <sodipodi:namedview
     pagecolor="#ffffff"
     bordercolor="#666666"
     borderopacity="1"
     objecttolerance="10"
     gridtolerance="10"
     guidetolerance="10"
     inkscape:pageopacity="0"
     inkscape:pageshadow="2"
     inkscape:window-width="1016"
     inkscape:window-height="679"
     id="namedview13"
     showgrid="false"
     inkscape:zoom="7.4262133"
     inkscape:cx="34.60714"
     inkscape:cy="16.392857"
     inkscape:window-x="266"
     inkscape:window-y="224"
     inkscape:window-maximized="0"
     inkscape:current-layer="svg2" />
  <defs
     id="defs4">
    <linearGradient
       id="linearGradient3763">
      <stop
         id="stop3765"
         style="stop-color:#000000;stop-opacity:1"
         offset="0" />
    </linearGradient>
  </defs>
  <metadata
     id="metadata7">
    <rdf:RDF>
      <cc:Work
         rdf:about="">
        <dc:format>image/svg+xml</dc:format>
        <dc:type
           rdf:resource="http://purl.org/dc/dcmitype/StillImage" />
        <dc:title />
      </cc:Work>
    </rdf:RDF>
  </metadata>
  <g
     transform="translate(-225.21428,-314.36218)"
     id="layer1">
    <rect
       width="68.214279"
       height="31.785711"
       ry="6.1698527"
       x="225.71428"
       y="314.86218"
       id="rect2985"
       style="fill:#ffffff;fill-opacity:1;stroke:#000000;stroke-width:1;stroke-miterlimit:4;stroke-opacity:1;stroke-dasharray:none;stroke-dashoffset:0" />
    <g
       style="font-size:48px;font-style:normal;font-variant:normal;font-weight:500;font-stretch:normal;line-height:125%;letter-spacing:0px;word-spacing:0px;fill:#000000;fill-opacity:1;stroke:none;font-family:feta14;-inkscape-font-specification:feta14 Medium"
       id="text3769">
      <path
         d="m 234.33414,330.81141 5.568,0 0,-1.312 -5.568,0 0,-3.728 6.336,0 0,-1.312 -7.824,0 0,11.664 1.488,0 0,-5.312"
         style="font-size:16px;font-family:Nimbus Sans L;-inkscape-font-specification:Nimbus Sans L"
         id="path2991" />
      <path
         d="m 243.58739,327.73941 -1.328,0 0,8.384 1.328,0 0,-8.384 m 0,-3.28 -1.344,0 0,1.68 1.344,0 0,-1.68"
         style="font-size:16px;font-family:Nimbus Sans L;-inkscape-font-specification:Nimbus Sans L"
         id="path2993" />
      <path
         d="m 251.75789,330.07541 c -0.016,-1.648 -1.104,-2.576 -3.04,-2.576 -1.95199,0 -3.216,1.008 -3.216,2.56 0,1.312 0.67201,1.936 2.656,2.416 l 1.248,0.304 c 0.928,0.224 1.296,0.56 1.296,1.168 0,0.784 -0.784,1.312 -1.952,1.312 -0.72,0 -1.328,-0.208 -1.664,-0.56 -0.208,-0.24 -0.304,-0.48 -0.384,-1.072 l -1.408,0 c 0.064,1.936 1.15201,2.864 3.344,2.864 2.112,0 3.456,-1.04 3.456,-2.656 0,-1.248 -0.704,-1.936 -2.368,-2.336 l -1.28,-0.304 c -1.088,-0.256 -1.552,-0.608 -1.552,-1.2 0,-0.768 0.688,-1.264 1.776,-1.264 1.072,0 1.648,0.464 1.68,1.344 l 1.408,0"
         style="font-size:16px;font-family:Nimbus Sans L;-inkscape-font-specification:Nimbus Sans L"
         id="path2995" />
      <path
         d="m 260.01939,327.37541 c -1.2,1.572 -1.956,3.756 -1.956,5.64 0,1.896 0.756,4.08 1.956,5.652 l 0.66,0 c -1.056,-1.716 -1.644,-3.732 -1.644,-5.652 0,-1.908 0.588,-3.936 1.644,-5.64 l -0.66,0"
         style="font-size:12px;font-family:Nimbus Sans L;-inkscape-font-specification:Nimbus Sans L"
         id="path2997" />
      <path
         d="m 266.13921,329.83541 0,0.912 c -0.504,-0.744 -1.11601,-1.092 -1.92,-1.092 -1.596,0 -2.676,1.39201 -2.676,3.432 0,1.032 0.276,1.872 0.792,2.472 0.468,0.528 1.14,0.84 1.8,0.84 0.79199,0 1.344,-0.336 1.908,-1.128 l 0,0.324 c 0,0.852 -0.108,1.368 -0.36,1.716 -0.264,0.372 -0.78,0.588 -1.392,0.588 -0.456,0 -0.864,-0.12 -1.14,-0.336 -0.228,-0.18 -0.324,-0.348 -0.384,-0.72 l -1.02,0 c 0.108,1.188 1.032,1.896 2.508,1.896 0.93599,0 1.74,-0.3 2.148,-0.804 0.48,-0.576 0.66,-1.368 0.66,-2.844 l 0,-5.256 -0.924,0 m -1.812,0.744 c 1.07999,0 1.716,0.912 1.716,2.484 0,1.5 -0.64801,2.412 -1.704,2.412 -1.092,0 -1.752,-0.924 -1.752,-2.448 0,-1.512 0.672,-2.448 1.74,-2.448"
         style="font-size:12px;font-family:Nimbus Sans L;-inkscape-font-specification:Nimbus Sans L"
         id="path2999" />
      <path
         d="m 274.03089,333.31541 c 0,-0.96 -0.072,-1.536 -0.252,-2.004 -0.408,-1.032 -1.368,-1.656 -2.544,-1.656 -1.752,0 -2.88,1.34401 -2.88,3.408 0,2.064 1.092,3.336 2.856,3.336 1.44,0 2.436,-0.816 2.688,-2.184 l -1.008,0 c -0.276,0.828 -0.84,1.26 -1.644,1.26 -0.636,0 -1.176,-0.288 -1.512,-0.816 -0.24,-0.36 -0.324,-0.72 -0.336,-1.344 l 4.632,0 m -4.608,-0.816 c 0.084,-1.164 0.792,-1.92 1.8,-1.92 0.984,0 1.74,0.816 1.74,1.848 0,0.024 0,0.048 -0.012,0.072 l -3.528,0"
         style="font-size:12px;font-family:Nimbus Sans L;-inkscape-font-specification:Nimbus Sans L"
         id="path3001" />
      <path
         d="m 279.81058,331.58741 c -0.012,-1.236 -0.828,-1.932 -2.28,-1.932 -1.464,0 -2.412,0.756 -2.412,1.92 0,0.984 0.504,1.452 1.992,1.812 l 0.936,0.228 c 0.696,0.168 0.972,0.42 0.972,0.876 0,0.588 -0.588,0.984 -1.464,0.984 -0.54,0 -0.996,-0.156 -1.248,-0.42 -0.156,-0.18 -0.228,-0.36 -0.288,-0.804 l -1.056,0 c 0.048,1.452 0.864,2.148 2.508,2.148 1.584,0 2.592,-0.78 2.592,-1.992 0,-0.936 -0.528,-1.452 -1.776,-1.752 l -0.96,-0.228 c -0.816,-0.192 -1.164,-0.456 -1.164,-0.9 0,-0.576 0.516,-0.948 1.332,-0.948 0.804,0 1.236,0.348 1.26,1.008 l 1.056,0"
         style="font-size:12px;font-family:Nimbus Sans L;-inkscape-font-specification:Nimbus Sans L"
         id="path3003" />
      <path
         d="m 281.67058,338.66741 c 1.2,-1.572 1.956,-3.756 1.956,-5.64 0,-1.896 -0.756,-4.08 -1.956,-5.652 l -0.66,0 c 1.056,1.716 1.644,3.73201 1.644,5.652 0,1.908 -0.588,3.936 -1.644,5.64 l 0.66,0"
         style="font-size:12px;font-family:Nimbus Sans L;-inkscape-font-specification:Nimbus Sans L"
         id="path3005" />
    </g>
  </g>
</svg>
