<?xml version="1.0" encoding="UTF-8" standalone="no"?>
<!-- Created with Inkscape (http://www.inkscape.org/) -->

<svg
   xmlns:dc="http://purl.org/dc/elements/1.1/"
   xmlns:cc="http://creativecommons.org/ns#"
   xmlns:rdf="http://www.w3.org/1999/02/22-rdf-syntax-ns#"
   xmlns:svg="http://www.w3.org/2000/svg"
   xmlns="http://www.w3.org/2000/svg"
   version="1.1"
   width="69.340752"
   height="41.460468"
   id="svg2">
  <defs
     id="defs4">
    <linearGradient
       id="linearGradient3763">
      <stop
         id="stop3765"
         style="stop-color:#000000;stop-opacity:1"
         offset="0" />
    </linearGradient>
  </defs>
  <metadata
     id="metadata7">
    <rdf:RDF>
      <cc:Work
         rdf:about="">
        <dc:format>image/svg+xml</dc:format>
        <dc:type
           rdf:resource="http://purl.org/dc/dcmitype/StillImage" />
        <dc:title></dc:title>
      </cc:Work>
    </rdf:RDF>
  </metadata>
  <rect
     width="68.214279"
     height="40.334"
     ry="7.8291416"
     x="0.56323504"
     y="0.56323504"
     id="rect2985"
     style="fill:#ffffff;fill-opacity:1;stroke:#000000;stroke-width:1.12647009;stroke-miterlimit:4;stroke-opacity:1;stroke-dasharray:none;stroke-dashoffset:0" />
  <g
     transform="matrix(0.72919372,0,0,1.7115399,0.06323588,0.80171268)"
     id="text3004"
     style="font-size:12.42212963px;font-style:normal;font-variant:normal;font-weight:500;font-stretch:normal;line-height:125%;letter-spacing:0px;word-spacing:0px;fill:#000000;fill-opacity:1;stroke:none;font-family:feta14;-inkscape-font-specification:feta14 Medium">
    <path
       d="M 17.62545,5.3949554 16.656524,7.0346765 C 15.811811,6.5709251 15.083047,6.3390456 14.470229,6.3390372 c -0.745333,8.4e-6 -1.117997,0.3643905 -1.117992,1.0931475 l 0,1.3167457 2.534115,0 0,1.0186146 -2.534115,0 0,4.944008 -2.385048,0 0,-4.944008 -2.0123854,0 0,-1.0186146 2.0123854,0 0,-1.9254301 c -3e-6,-0.1904646 0.01242,-0.3353893 0.03727,-0.4347745 -3e-6,-0.4471879 0.335394,-0.7494594 1.006192,-0.9068155 0.414067,-0.099368 1.130409,-0.1490562 2.149029,-0.1490656 l 0.93166,0 c 1.109702,9.4e-6 1.838466,0.012431 2.186294,0.037266 l 0.34782,0.024844"
       id="path3011"
       style="font-style:normal;font-variant:normal;font-weight:normal;font-stretch:normal;font-family:FL Prosty 2;-inkscape-font-specification:'FL Prosty 2,'" />
    <path
       d="m 19.901611,6.7738118 c -4e-6,0.1656362 -0.140788,0.322983 -0.422352,0.4720409 -0.248446,0.1407915 -0.463763,0.2111835 -0.645951,0.2111762 -0.182194,7.3e-6 -0.401651,-0.070385 -0.658373,-0.2111762 -0.28157,-0.1490579 -0.422354,-0.3064047 -0.422352,-0.4720409 -2e-6,-0.1656203 0.140782,-0.3229671 0.422352,-0.4720409 0.256722,-0.1324942 0.476179,-0.1987455 0.658373,-0.1987541 0.198751,8.6e-6 0.418209,0.062119 0.658373,0.1863319 0.273283,0.1490739 0.409926,0.3105614 0.40993,0.4844631 m 0.236021,7.9377412 -2.385049,0 0,-6.4595078 2.385049,0 0,6.4595078"
       id="path3013"
       style="font-style:normal;font-variant:normal;font-weight:normal;font-stretch:normal;font-family:FL Prosty 2;-inkscape-font-specification:'FL Prosty 2,'" />
    <path
       d="m 30.985063,13.258163 c -9e-6,0.422354 -0.443065,0.803299 -1.329168,1.142836 -0.828149,0.314694 -1.664571,0.472041 -2.50927,0.472041 -1.31675,0 -2.509273,-0.08281 -3.577573,-0.248442 -0.372666,-0.05797 -0.666656,-0.124221 -0.881972,-0.198754 l 0.658373,-1.093148 c 0.77017,0.314695 1.53206,0.476183 2.285672,0.484463 0.513444,0.0083 0.857123,0.01242 1.031037,0.01242 1.093141,10e-7 1.639715,-0.265004 1.639721,-0.795016 -6e-6,-0.380943 -0.463765,-0.699777 -1.391278,-0.956504 -0.488609,-0.115937 -1.358157,-0.356098 -2.608648,-0.720483 -0.935802,-0.306409 -1.403701,-0.728761 -1.4037,-1.267058 -1e-6,-0.281563 0.111798,-0.5589903 0.335397,-0.8322823 0.198753,-0.2401555 0.434773,-0.4347686 0.708062,-0.5838401 0.546571,-0.2898433 1.24635,-0.4596123 2.099339,-0.5093073 0.414067,-0.024838 0.807434,-0.03726 1.180103,-0.037266 1.681121,6.6e-6 2.927473,0.2525896 3.739061,0.7577499 L 29.904338,9.6930106 C 29.034782,9.336915 28.243907,9.1588646 27.531711,9.1588591 c -0.852991,5.5e-6 -1.474097,0.1490709 -1.863319,0.4471966 -0.124225,0.091101 -0.186336,0.1904776 -0.186332,0.2981312 -4e-6,0.2318841 0.455474,0.4720451 1.366434,0.7204831 0.463754,0.124225 1.296036,0.368527 2.496848,0.732906 0.596254,0.207038 1.018606,0.447199 1.267057,0.720483 0.248434,0.265008 0.372655,0.658375 0.372664,1.180102"
       id="path3015"
       style="font-style:normal;font-variant:normal;font-weight:normal;font-stretch:normal;font-family:FL Prosty 2;-inkscape-font-specification:'FL Prosty 2,'" />
    <path
       d="m 43.230566,16.053143 -1.105569,0.298131 c -0.944085,-0.828143 -1.627302,-1.639721 -2.049652,-2.434738 -0.472042,-0.894391 -0.708062,-1.921286 -0.708061,-3.080688 -10e-7,-1.167675 0.236019,-2.19457 0.708061,-3.080688 0.414069,-0.7867271 1.097285,-1.5983054 2.049652,-2.4347374 l 1.105569,0.2981311 c -0.670799,0.8861202 -1.14284,1.6976985 -1.416123,2.4347374 -0.298134,0.8033036 -0.4472,1.7308217 -0.447196,2.7825569 -4e-6,1.09315 0.14078,2.020668 0.422352,2.782557 0.265002,0.69564 0.745323,1.507218 1.440967,2.434738"
       id="path3017"
       style="font-style:normal;font-variant:normal;font-weight:normal;font-stretch:normal;font-family:FL Prosty 2;-inkscape-font-specification:'FL Prosty 2,'" />
    <path
       d="m 55.495477,14.425844 c -1e-5,0.53001 -0.128372,0.927518 -0.385086,1.192524 -0.463769,0.480321 -1.333317,0.877829 -2.608647,1.192525 -1.076591,0.265003 -2.045516,0.393364 -2.906778,0.385086 -0.61283,-0.0083 -1.329172,-0.07868 -2.149029,-0.211177 -0.952365,-0.157349 -1.635581,-0.347821 -2.049651,-0.571418 l 1.229791,-1.242213 c 1.225647,0.654231 2.215275,1.010332 2.968889,1.068304 0.587975,0.04969 1.287754,-0.08696 2.09934,-0.409931 0.944074,-0.380946 1.416114,-0.836423 1.416123,-1.366434 l 0,-1.602455 c -0.215326,0.596264 -0.612833,1.076586 -1.192525,1.440967 -0.571425,0.364383 -1.184249,0.546574 -1.838475,0.546574 -1.349876,0 -2.389193,-0.190473 -3.117955,-0.571418 -0.968927,-0.513447 -1.45339,-1.387136 -1.453389,-2.621069 -1e-6,-1.084862 0.625246,-1.9709731 1.875742,-2.658336 1.051736,-0.5796931 2.165586,-0.8695425 3.341553,-0.8695491 0.985482,6.6e-6 2.115894,0.1200871 3.391241,0.3602418 0.28984,0.057976 0.749458,0.1490716 1.378856,0.2732868 l 0,5.6644915 m -2.385048,-4.086881 0,-0.9192376 C 52.100088,9.2541025 51.354761,9.1712883 50.874445,9.1712828 c -0.819866,5.5e-6 -1.498941,0.2857142 -2.037229,0.8571272 -0.463763,0.488608 -0.695643,1.006196 -0.695639,1.552766 -4e-6,0.993772 0.335393,1.668707 1.006192,2.024807 0.281564,0.149067 0.641805,0.223599 1.080726,0.223598 0.695632,1e-6 1.362286,-0.434773 1.999962,-1.304323 0.587973,-0.795014 0.881963,-1.523778 0.881972,-2.186295"
       id="path3019"
       style="font-style:normal;font-variant:normal;font-weight:normal;font-stretch:normal;font-family:FL Prosty 2;-inkscape-font-specification:'FL Prosty 2,'" />
    <path
       d="m 66.842122,11.121557 c -1.2e-5,0.03313 -0.02072,0.124225 -0.06211,0.273287 l -8.086806,0.708061 c -4e-6,0.728767 0.360237,1.225652 1.080725,1.490656 0.430629,0.157348 1.101423,0.236021 2.012385,0.23602 1.010325,1e-6 1.879874,-0.219456 2.608647,-0.658372 0.215308,-0.132501 0.376795,-0.277426 0.484463,-0.434775 l 1.86332,0.670795 c -0.86956,0.960645 -2.327089,1.440967 -4.37259,1.440967 -0.852993,0 -1.755666,-0.04555 -2.708024,-0.136643 -1.184247,-0.11594 -2.045513,-0.426493 -2.583803,-0.93166 -0.422354,-0.397507 -0.716344,-0.840562 -0.881972,-1.329168 -0.0911,-0.273284 -0.140785,-0.496882 -0.149065,-0.670795 -0.01656,-0.480319 0.140783,-0.981344 0.472041,-1.503078 0.306411,-0.4885985 0.679074,-0.8654027 1.117991,-1.1304135 1.109707,-0.6790701 2.426452,-1.018608 3.950238,-1.0186146 2.070346,6.6e-6 3.573422,0.4016551 4.509233,1.2049466 0.496874,0.4306388 0.745316,0.9358045 0.745328,1.5154995 l 0,0.273287 m -2.55896,-0.447197 c -9e-6,-1.0186091 -0.88198,-1.5279159 -2.645914,-1.5279215 -0.703926,5.6e-6 -1.333313,0.1366489 -1.888163,0.4099303 -0.703925,0.339543 -1.055885,0.8281462 -1.055881,1.4658112 l 0,0.298131 5.589958,-0.645951"
       id="path3021"
       style="font-style:normal;font-variant:normal;font-weight:normal;font-stretch:normal;font-family:FL Prosty 2;-inkscape-font-specification:'FL Prosty 2,'" />
    <path
       d="m 76.791666,13.258163 c -1e-5,0.422354 -0.443065,0.803299 -1.329168,1.142836 -0.828149,0.314694 -1.664572,0.472041 -2.509271,0.472041 -1.316749,0 -2.509272,-0.08281 -3.577573,-0.248442 -0.372665,-0.05797 -0.666655,-0.124221 -0.881971,-0.198754 l 0.658373,-1.093148 c 0.77017,0.314695 1.532059,0.476183 2.285672,0.484463 0.513443,0.0083 0.857122,0.01242 1.031036,0.01242 1.093142,10e-7 1.639715,-0.265004 1.639722,-0.795016 -7e-6,-0.380943 -0.463766,-0.699777 -1.391279,-0.956504 -0.488608,-0.115937 -1.358156,-0.356098 -2.608647,-0.720483 -0.935802,-0.306409 -1.403702,-0.728761 -1.403701,-1.267058 -10e-7,-0.281563 0.111798,-0.5589903 0.335398,-0.8322823 0.198752,-0.2401555 0.434772,-0.4347686 0.708061,-0.5838401 0.546571,-0.2898433 1.24635,-0.4596123 2.09934,-0.5093073 0.414066,-0.024838 0.807433,-0.03726 1.180102,-0.037266 1.681121,6.6e-6 2.927474,0.2525896 3.739061,0.7577499 l -1.055881,0.80744 c -0.869556,-0.3560956 -1.660431,-0.534146 -2.372626,-0.5341515 -0.852992,5.5e-6 -1.474097,0.1490709 -1.86332,0.4471966 -0.124225,0.091101 -0.186335,0.1904776 -0.186332,0.2981312 -3e-6,0.2318845 0.455474,0.4720455 1.366434,0.7204835 0.463754,0.124225 1.296036,0.368527 2.496848,0.732906 0.596255,0.207038 1.018607,0.447199 1.267058,0.720483 0.248433,0.265008 0.372654,0.658375 0.372664,1.180102"
       id="path3023"
       style="font-style:normal;font-variant:normal;font-weight:normal;font-stretch:normal;font-family:FL Prosty 2;-inkscape-font-specification:'FL Prosty 2,'" />
    <path
       d="m 83.546589,10.835848 c -6e-6,1.200809 -0.231886,2.227704 -0.695639,3.080688 -0.380951,0.69564 -1.068308,1.507218 -2.062074,2.434738 l -1.093147,-0.298131 c 0.687355,-0.935801 1.159395,-1.74738 1.416122,-2.434738 0.289846,-0.778451 0.438912,-1.705969 0.447197,-2.782557 C 81.567326,9.7923942 81.422401,8.8648761 81.124274,8.0532911 80.850983,7.332815 80.374802,6.5212367 79.695729,5.6185537 l 1.093147,-0.2981311 c 0.968922,0.8529948 1.656279,1.6645731 2.062074,2.4347374 0.463753,0.8695552 0.695633,1.8964502 0.695639,3.080688"
       id="path3025"
       style="font-style:normal;font-variant:normal;font-weight:normal;font-stretch:normal;font-family:FL Prosty 2;-inkscape-font-specification:'FL Prosty 2,'" />
  </g>
</svg>
