<?xml version="1.0" encoding="UTF-8" standalone="no"?>
<!-- Created with Inkscape (http://www.inkscape.org/) -->

<svg
   xmlns:dc="http://purl.org/dc/elements/1.1/"
   xmlns:cc="http://creativecommons.org/ns#"
   xmlns:rdf="http://www.w3.org/1999/02/22-rdf-syntax-ns#"
   xmlns:svg="http://www.w3.org/2000/svg"
   xmlns="http://www.w3.org/2000/svg"
   version="1.1"
   width="3"
   height="5.5"
   id="svg5113">
  <defs
     id="defs5115" />
  <metadata
     id="metadata5118">
    <rdf:RDF>
      <cc:Work
         rdf:about="">
        <dc:format>image/svg+xml</dc:format>
        <dc:type
           rdf:resource="http://purl.org/dc/dcmitype/StillImage" />
        <dc:title></dc:title>
      </cc:Work>
    </rdf:RDF>
  </metadata>
  <g
     transform="translate(-432.78571,-703.8979)"
     id="layer1">
    <g
       transform="matrix(1.757299,0,0,1.757299,433.3192,706.6479)"
       id="g1784">
      <g
         id="text1786"
         style="font-size:4px;fill:currentColor;font-family:Emmentaler">
        <path
           d="m 0.892,0.148 0,-0.576 0.12,-0.048 C 1.064,-0.5 1.1,-0.5520001 1.1,-0.608 l 0,-0.168 c 0,-0.0799999 -0.068,-0.144 -0.144,-0.144 -0.028,0 -0.044,0.008 -0.064,0.016 l 0,-0.496 c 0,-0.056 -0.0440001,-0.1 -0.1,-0.1 -0.0559999,0 -0.104,0.044 -0.104,0.1 l 0,0.58 -0.276,0.116 0,-0.496 c 0,-0.056 -0.0480001,-0.104 -0.104,-0.104 -0.0559999,0 -0.1,0.048 -0.1,0.104 l 0,0.576 -0.12,0.052 C 0.03600005,-0.55200002 0,-0.49999994 0,-0.44 l 0,0.164 c 0,0.0839999 0.06800008,0.144 0.144,0.144 0.028,0 0.044,-0.008 0.064,-0.016 l 0,0.576 -0.12,0.048 C 0.03600005,0.49999998 0,0.55200006 0,0.608 L 0,0.776 C 0,0.8559999 0.06800008,0.92 0.144,0.92 0.172,0.92 0.188,0.912 0.208,0.904 l 0,0.496 c 0,0.056 0.0440001,0.1 0.1,0.1 0.0559999,0 0.104,-0.044 0.104,-0.1 l 0,-0.58 0.276,-0.116 0,0.496 c 0,0.056 0.0480001,0.104 0.104,0.104 0.0559999,0 0.1,-0.048 0.1,-0.104 l 0,-0.576 0.12,-0.052 C 1.064,0.552 1.1,0.4999999 1.1,0.44 l 0,-0.164 C 1.1,0.1920001 1.032,0.132 0.956,0.132 0.928,0.132 0.912,0.14 0.892,0.148 m -0.204,-0.492 0,0.576 -0.276,0.112 0,-0.576 0.276,-0.112"
           id="path5133" />
      </g>
    </g>
  </g>
</svg>
