<?xml version="1.0" encoding="UTF-8" standalone="no"?>
<!-- Created with Inkscape (http://www.inkscape.org/) -->

<svg
   xmlns:dc="http://purl.org/dc/elements/1.1/"
   xmlns:cc="http://creativecommons.org/ns#"
   xmlns:rdf="http://www.w3.org/1999/02/22-rdf-syntax-ns#"
   xmlns:svg="http://www.w3.org/2000/svg"
   xmlns="http://www.w3.org/2000/svg"
   xmlns:sodipodi="http://sodipodi.sourceforge.net/DTD/sodipodi-0.dtd"
   xmlns:inkscape="http://www.inkscape.org/namespaces/inkscape"
   version="1.1"
   width="1000"
   height="1000"
   id="svg2"
   inkscape:version="0.91 r13725"
   sodipodi:docname="eight.svg"
   inkscape:export-filename="/home/tom/DEVELOP/QT4/nootka/unused-picts/proto/note.png"
   inkscape:export-xdpi="300.09186"
   inkscape:export-ydpi="300.09186">
  <sodipodi:namedview
     pagecolor="#ffffff"
     bordercolor="#666666"
     borderopacity="1"
     objecttolerance="10"
     gridtolerance="10"
     guidetolerance="10"
     inkscape:pageopacity="0"
     inkscape:pageshadow="2"
     inkscape:window-width="1920"
     inkscape:window-height="1046"
     id="namedview8"
     showgrid="false"
     inkscape:zoom="0.35355339"
     inkscape:cx="356.72214"
     inkscape:cy="525.7047"
     inkscape:window-x="0"
     inkscape:window-y="0"
     inkscape:window-maximized="1"
     inkscape:current-layer="g4163"
     showguides="true"
     inkscape:guide-bbox="true">
    <sodipodi:guide
       orientation="1,0"
       position="348.68479,854.64867"
       id="guide5187" />
    <sodipodi:guide
       position="-298.15625,199.99609"
       orientation="0,1"
       id="guide4152" />
    <sodipodi:guide
       position="-294.64844,75"
       orientation="0,1"
       id="guide4154" />
    <sodipodi:guide
       position="-283.97656,325"
       orientation="0,1"
       id="guide4156" />
  </sodipodi:namedview>
  <defs
     id="defs4" />
  <metadata
     id="metadata7">
    <rdf:RDF>
      <cc:Work
         rdf:about="">
        <dc:format>image/svg+xml</dc:format>
        <dc:type
           rdf:resource="http://purl.org/dc/dcmitype/StillImage" />
        <dc:title />
      </cc:Work>
    </rdf:RDF>
  </metadata>
  <g
     id="g4163"
     transform="matrix(0.91800511,0,0,0.91800511,-1.2160381,65.749885)">
    <rect
       id="rect32"
       ry="9.836833"
       height="814.539"
       width="31.969706"
       y="-60.764149"
       x="293.5192"
       style="fill:currentColor" />
    <path
       id="path34"
       d="m 325.48845,-50.927642 c 0,194.769042 205.58998,329.533932 205.58998,524.303372 0,69.84119 -15.73917,138.69935 -41.31482,203.62224 -4.91855,7.86937 -11.80446,11.80424 -18.68974,11.80424 -12.78829,0 -25.57596,-10.82043 -22.62477,-26.55954 25.57565,-60.00459 41.31451,-123.94405 41.31451,-188.86694 0,-102.30324 -93.44976,-204.60645 -164.27516,-278.38251 l -15.7391,0 0,-245.920862 15.7391,0 z"
       style="fill:currentColor"
       inkscape:connector-curvature="0" />
    <path
       id="path40"
       d="m 218.24243,664.20993 c 55.08629,0 107.22154,28.52675 107.22154,89.51517 0,70.8254 -55.08628,119.02575 -101.3194,146.56909 -35.41272,20.65701 -74.7599,35.41232 -115.09088,35.41232 -55.08632,0 -107.2215408,-28.52678 -107.2215408,-89.51517 0,-70.82503 55.0862888,-119.02578 101.3194108,-146.56872 35.41271,-20.65741 74.75989,-35.41269 115.09087,-35.41269 z"
       style="fill:currentColor"
       inkscape:connector-curvature="0" />
  </g>
</svg>
