<?xml version="1.0" encoding="UTF-8" standalone="no"?>
<!-- Created with Inkscape (http://www.inkscape.org/) -->

<svg
   xmlns:dc="http://purl.org/dc/elements/1.1/"
   xmlns:cc="http://creativecommons.org/ns#"
   xmlns:rdf="http://www.w3.org/1999/02/22-rdf-syntax-ns#"
   xmlns:svg="http://www.w3.org/2000/svg"
   xmlns="http://www.w3.org/2000/svg"
   xmlns:xlink="http://www.w3.org/1999/xlink"
   xmlns:sodipodi="http://sodipodi.sourceforge.net/DTD/sodipodi-0.dtd"
   xmlns:inkscape="http://www.inkscape.org/namespaces/inkscape"
   version="1.1"
   width="1000"
   height="1000"
   id="svg2"
   inkscape:version="0.91 r13725"
   sodipodi:docname="eight1.svg"
   inkscape:export-filename="/home/tom/DEVELOP/QT4/nootka/unused-picts/proto/note.png"
   inkscape:export-xdpi="300.09186"
   inkscape:export-ydpi="300.09186">
  <sodipodi:namedview
     pagecolor="#ffffff"
     bordercolor="#666666"
     borderopacity="1"
     objecttolerance="10"
     gridtolerance="10"
     guidetolerance="10"
     inkscape:pageopacity="0"
     inkscape:pageshadow="2"
     inkscape:window-width="1920"
     inkscape:window-height="1046"
     id="namedview8"
     showgrid="false"
     inkscape:zoom="0.67396115"
     inkscape:cx="504.76679"
     inkscape:cy="460.92393"
     inkscape:window-x="0"
     inkscape:window-y="0"
     inkscape:window-maximized="1"
     inkscape:current-layer="svg2"
     showguides="true"
     inkscape:guide-bbox="true">
    <sodipodi:guide
       orientation="1,0"
       position="348.68479,854.64867"
       id="guide5187" />
    <sodipodi:guide
       orientation="0,1"
       position="-83.090843,500.02882"
       id="guide2996" />
  </sodipodi:namedview>
  <defs
     id="defs4" />
  <metadata
     id="metadata7">
    <rdf:RDF>
      <cc:Work
         rdf:about="">
        <dc:format>image/svg+xml</dc:format>
        <dc:type
           rdf:resource="http://purl.org/dc/dcmitype/StillImage" />
        <dc:title></dc:title>
      </cc:Work>
    </rdf:RDF>
  </metadata>
  <g
     id="g4225"
     transform="matrix(31.830791,0,0,31.830791,-27878.336,-13902.484)"
     style="fill:#000000;fill-opacity:1">
    <a
       id="a44"
       xlink:href="textedit:///home/tom/Nuty/LilyPond/rhythms/rhythms.ly:19:2:3"
       style="color:inherit;fill:#000000;fill-opacity:1"
       transform="matrix(6.2266488,0,0,6.2266488,520.96667,408.92719)">
      <path
         style="fill:#000000;fill-opacity:1"
         d="M 583.51172 123.87695 C 579.11939 123.87695 575.58398 127.41267 575.58398 131.80469 L 575.58398 676.89258 C 559.44919 664.57976 537.49527 658.61719 514.91406 658.61719 C 482.4094 658.61719 450.69888 670.50947 422.1582 687.1582 C 384.89676 709.35651 340.5 748.2038 340.5 805.28516 C 340.5 854.43855 382.51745 877.42969 426.91406 877.42969 C 459.41872 877.42969 491.1312 865.5374 519.67188 848.88867 C 556.93332 826.69037 601.33008 787.84308 601.33008 730.76172 C 601.33008 728.72454 601.2509 726.73659 601.10938 724.78906 C 601.26099 724.17491 601.34961 723.53532 601.34961 722.87305 L 601.34961 330.00391 C 658.43113 389.46383 733.74609 471.91425 733.74609 554.36523 C 733.74609 606.68996 721.06188 658.22151 700.44922 706.58203 C 698.07082 719.2666 708.3771 727.98828 718.68359 727.98828 C 724.23329 727.98828 729.78221 724.81689 733.74609 718.47461 C 754.35908 666.14988 767.04492 610.65385 767.04492 554.36523 C 767.04492 397.39137 601.34961 288.77855 601.34961 131.80469 C 601.34961 127.41267 597.81389 123.87695 593.42188 123.87695 L 583.51172 123.87695 z "
         transform="matrix(0.00504543,0,0,0.00504543,56.990933,4.4702919)"
         id="path46" />
    </a>
  </g>
</svg>
