<?xml version="1.0" encoding="UTF-8" standalone="no"?>
<!-- Created with Inkscape (http://www.inkscape.org/) -->

<svg
   xmlns:dc="http://purl.org/dc/elements/1.1/"
   xmlns:cc="http://creativecommons.org/ns#"
   xmlns:rdf="http://www.w3.org/1999/02/22-rdf-syntax-ns#"
   xmlns:svg="http://www.w3.org/2000/svg"
   xmlns="http://www.w3.org/2000/svg"
   xmlns:sodipodi="http://sodipodi.sourceforge.net/DTD/sodipodi-0.dtd"
   xmlns:inkscape="http://www.inkscape.org/namespaces/inkscape"
   version="1.1"
   width="1000"
   height="1000"
   id="svg2"
   inkscape:version="0.91 r13725"
   sodipodi:docname="eight_D.svg"
   inkscape:export-filename="/home/tom/DEVELOP/QT4/nootka/unused-picts/proto/note.png"
   inkscape:export-xdpi="300.09186"
   inkscape:export-ydpi="300.09186">
  <sodipodi:namedview
     pagecolor="#ffffff"
     bordercolor="#666666"
     borderopacity="1"
     objecttolerance="10"
     gridtolerance="10"
     guidetolerance="10"
     inkscape:pageopacity="0"
     inkscape:pageshadow="2"
     inkscape:window-width="1920"
     inkscape:window-height="1046"
     id="namedview8"
     showgrid="false"
     inkscape:zoom="0.84"
     inkscape:cx="500"
     inkscape:cy="738.09524"
     inkscape:window-x="0"
     inkscape:window-y="0"
     inkscape:window-maximized="1"
     inkscape:current-layer="g4163"
     showguides="true"
     inkscape:guide-bbox="true">
    <sodipodi:guide
       orientation="1,0"
       position="348.68479,854.64867"
       id="guide5187" />
    <sodipodi:guide
       position="-298.15625,199.99609"
       orientation="0,1"
       id="guide4152" />
    <sodipodi:guide
       position="-294.64844,75"
       orientation="0,1"
       id="guide4154" />
    <sodipodi:guide
       position="-283.97656,325"
       orientation="0,1"
       id="guide4156" />
  </sodipodi:namedview>
  <defs
     id="defs4" />
  <metadata
     id="metadata7">
    <rdf:RDF>
      <cc:Work
         rdf:about="">
        <dc:format>image/svg+xml</dc:format>
        <dc:type
           rdf:resource="http://purl.org/dc/dcmitype/StillImage" />
        <dc:title />
      </cc:Work>
    </rdf:RDF>
  </metadata>
  <g
     id="g4163"
     transform="matrix(0.91800511,0,0,0.91800511,-1.2160381,65.749885)">
    <g
       id="g4186"
       transform="matrix(36.25646,0,0,36.25646,-31274.908,-19592.345)">
      <path
         id="path96"
         d="m 863.52067,565.92685 -0.4341,0 0,-6.78281 0.4341,0 c 2.65886,-1.57361 6.15879,-4.01542 6.15879,-7.02698 0,-1.54648 -0.4341,-3.0387 -1.11238,-4.42239 -0.0814,-0.4341 0.27131,-0.73255 0.62402,-0.73255 0.18991,0 0.40696,0.0814 0.54262,0.29845 0.67828,1.51935 1.08525,3.17435 1.08525,4.85649 0,5.53477 -7.2983,8.27502 -7.2983,13.80979 z"
         style="fill:currentColor"
         inkscape:connector-curvature="0" />
      <rect
         id="rect98"
         ry="0.27131215"
         height="22.466005"
         width="0.88176453"
         y="543.73218"
         x="862.63892"
         style="fill:currentColor" />
      <path
         id="path100"
         d="m 868.60778,538.71424 c 1.51935,0 2.9573,0.78681 2.9573,2.46894 0,1.95345 -1.51935,3.28288 -2.79451,4.04256 -0.97673,0.56975 -2.06198,0.97672 -3.17436,0.97672 -1.51935,0 -2.9573,-0.78681 -2.9573,-2.46894 0,-1.95345 1.51935,-3.28288 2.79452,-4.04255 0.97672,-0.56976 2.06197,-0.97673 3.17435,-0.97673 z"
         style="fill:currentColor"
         inkscape:connector-curvature="0" />
    </g>
  </g>
</svg>
