<?xml version="1.0" encoding="UTF-8" standalone="no"?>
<!-- Created with Inkscape (http://www.inkscape.org/) -->

<svg
   xmlns:dc="http://purl.org/dc/elements/1.1/"
   xmlns:cc="http://creativecommons.org/ns#"
   xmlns:rdf="http://www.w3.org/1999/02/22-rdf-syntax-ns#"
   xmlns:svg="http://www.w3.org/2000/svg"
   xmlns="http://www.w3.org/2000/svg"
   xmlns:sodipodi="http://sodipodi.sourceforge.net/DTD/sodipodi-0.dtd"
   xmlns:inkscape="http://www.inkscape.org/namespaces/inkscape"
   version="1.1"
   width="1000"
   height="1000"
   id="svg2"
   inkscape:version="0.91 r13725"
   sodipodi:docname="half1.svg"
   inkscape:export-filename="/home/tom/DEVELOP/QT4/nootka/unused-picts/proto/note.png"
   inkscape:export-xdpi="300.09186"
   inkscape:export-ydpi="300.09186">
  <sodipodi:namedview
     pagecolor="#ffffff"
     bordercolor="#666666"
     borderopacity="1"
     objecttolerance="10"
     gridtolerance="10"
     guidetolerance="10"
     inkscape:pageopacity="0"
     inkscape:pageshadow="2"
     inkscape:window-width="1920"
     inkscape:window-height="1046"
     id="namedview8"
     showgrid="false"
     inkscape:zoom="0.70710678"
     inkscape:cx="8.256851"
     inkscape:cy="421.73412"
     inkscape:window-x="0"
     inkscape:window-y="0"
     inkscape:window-maximized="1"
     inkscape:current-layer="g4163"
     showguides="true"
     inkscape:guide-bbox="true">
    <sodipodi:guide
       orientation="1,0"
       position="348.68479,854.64867"
       id="guide5187" />
    <sodipodi:guide
       position="-298.15625,199.99609"
       orientation="0,1"
       id="guide4152" />
    <sodipodi:guide
       position="-294.64844,75"
       orientation="0,1"
       id="guide4154" />
    <sodipodi:guide
       position="-283.97656,325"
       orientation="0,1"
       id="guide4156" />
  </sodipodi:namedview>
  <defs
     id="defs4" />
  <metadata
     id="metadata7">
    <rdf:RDF>
      <cc:Work
         rdf:about="">
        <dc:format>image/svg+xml</dc:format>
        <dc:type
           rdf:resource="http://purl.org/dc/dcmitype/StillImage" />
        <dc:title />
      </cc:Work>
    </rdf:RDF>
  </metadata>
  <g
     id="g4163"
     transform="matrix(0.91800511,0,0,0.91800511,-1.2160381,65.749885)">
    <path
       inkscape:connector-curvature="0"
       style="fill:currentColor"
       d="m 293.86454,735.63673 c 0,-23.60842 -20.65749,-40.33099 -41.31497,-40.33099 -3.93457,0 -7.86948,0 -11.80404,0.98256 -30.49426,8.8531 -75.7438,39.34734 -112.13988,62.95576 -36.39643,23.60843 -82.62927,52.1354 -102.30313,76.72746 -6.88584,7.86945 -10.82037,17.70621 -10.82037,27.54296 0,23.60841 20.65749,40.331 41.31462,40.331 3.93492,0 7.86948,0 11.8044,-0.98257 30.49387,-8.8531 76.72707,-39.34735 113.12352,-62.95576 36.39607,-23.60841 82.62924,-52.13502 102.30276,-76.72709 6.88585,-7.86946 9.83709,-17.70658 9.83709,-27.54333 z m -50.16809,-70.82524 c 46.2332,0 81.64563,20.65749 81.64563,70.82524 0,18.69023 -3.93455,36.39644 -9.83673,55.0863 -11.80404,37.38008 -31.4779,72.79253 -63.93943,94.43367 -53.11866,35.41245 -111.15624,50.16774 -184.93239,50.16774 -46.23285,0 -82.62927,-21.64112 -82.62927,-71.80888 0,-18.68984 4.91853,-36.39607 10.82037,-55.0863 11.8044,-37.37972 30.49425,-72.79253 62.95578,-94.43331 53.11902,-35.41278 112.13989,-49.18446 185.91604,-49.18446 z"
       id="path70-0" />
    <rect
       style="fill:currentColor"
       x="293.86322"
       y="-61.146057"
       width="31.969688"
       height="796.43872"
       ry="9.8368282"
       id="rect72" />
  </g>
</svg>
