<?xml version="1.0" encoding="UTF-8" standalone="no"?>
<svg
   xmlns:dc="http://purl.org/dc/elements/1.1/"
   xmlns:cc="http://creativecommons.org/ns#"
   xmlns:rdf="http://www.w3.org/1999/02/22-rdf-syntax-ns#"
   xmlns:svg="http://www.w3.org/2000/svg"
   xmlns="http://www.w3.org/2000/svg"
   xmlns:xlink="http://www.w3.org/1999/xlink"
   xmlns:sodipodi="http://sodipodi.sourceforge.net/DTD/sodipodi-0.dtd"
   xmlns:inkscape="http://www.inkscape.org/namespaces/inkscape"
   version="1.2"
   width="210.00mm"
   height="297.00mm"
   viewBox="0 0 119.5016 169.0094"
   id="svg2"
   inkscape:version="0.91 r13725"
   sodipodi:docname="rhythms.svg">
  <metadata
     id="metadata114">
    <rdf:RDF>
      <cc:Work
         rdf:about="">
        <dc:format>image/svg+xml</dc:format>
        <dc:type
           rdf:resource="http://purl.org/dc/dcmitype/StillImage" />
      </cc:Work>
    </rdf:RDF>
  </metadata>
  <defs
     id="defs112" />
  <sodipodi:namedview
     pagecolor="#ffffff"
     bordercolor="#666666"
     borderopacity="1"
     objecttolerance="10"
     gridtolerance="10"
     guidetolerance="10"
     inkscape:pageopacity="0"
     inkscape:pageshadow="2"
     inkscape:window-width="1600"
     inkscape:window-height="1163"
     id="namedview110"
     showgrid="false"
     inkscape:zoom="14.352473"
     inkscape:cx="241.80917"
     inkscape:cy="972.68947"
     inkscape:window-x="0"
     inkscape:window-y="0"
     inkscape:window-maximized="1"
     inkscape:current-layer="svg2" />
  <!-- Page: 1/1 -->
  <g
     transform="translate(5.6906, 2.8453)"
     style="font-size:2.20009995px;font-family:'Century Schoolbook L';text-anchor:start;fill:currentColor"
     id="text4" />
  <g
     transform="translate(59.7508, 3.8453)"
     style="font-weight:bold;font-size:3.4927001px;font-family:'Century Schoolbook L';text-anchor:start;fill:currentColor"
     id="text8" />
  <path
     transform="translate(14.2264, 10.8453)"
     style="stroke:currentColor;stroke-width:0.1;stroke-linecap:round;stroke-linejoin:round"
     d="M 0.05,0 59.624901,0"
     id="line12" />
  <path
     transform="translate(14.2264, 9.8453)"
     style="stroke:currentColor;stroke-width:0.1;stroke-linecap:round;stroke-linejoin:round"
     d="M 0.05,0 59.624901,0"
     id="line14" />
  <path
     transform="translate(14.2264, 8.8453)"
     style="stroke:currentColor;stroke-width:0.1;stroke-linecap:round;stroke-linejoin:round"
     d="M 0.05,0 59.624901,0"
     id="line16" />
  <path
     transform="translate(14.2264, 7.8453)"
     style="stroke:currentColor;stroke-width:0.1;stroke-linecap:round;stroke-linejoin:round"
     d="M 0.05,0 59.624901,0"
     id="line18" />
  <path
     transform="translate(14.2264, 6.8453)"
     style="stroke:currentColor;stroke-width:0.1;stroke-linecap:round;stroke-linejoin:round"
     d="M 0.05,0 59.624901,0"
     id="line20" />
  <path
     transform="translate(46.4685, 8.8453)"
     style="fill:currentColor"
     d="m 0,-2 0.19,0 0,4 L 0,2 Z"
     id="rect22" />
  <path
     transform="translate(29.0044, 8.8453)"
     style="fill:currentColor"
     d="m 0,-2 0.19,0 0,4 L 0,2 Z"
     id="rect24" />
  <path
     transform="translate(73.7113, 8.8453)"
     style="fill:currentColor"
     d="m 0,-2 0.19,0 0,4 L 0,2 Z"
     id="rect26" />
  <path
     transform="translate(36.6925, 8.8453)"
     style="fill:currentColor"
     d="m 0,-2 0.19,0 0,4 L 0,2 Z"
     id="rect28" />
  <path
     transform="translate(57.6189, 8.8453)"
     style="fill:currentColor"
     d="m 0,-2 0.19,0 0,4 L 0,2 Z"
     id="rect30" />
  <path
     transform="translate(59.9600, 8.8453)"
     style="fill:currentColor"
     d="m -0.025,-3.75 0.05,0 c 0.02216,0 0.04,0.01784 0.04,0.04 l 0,2.98220007 c 0,0.02216 -0.01784,0.04 -0.04,0.04 l -0.05,0 c -0.02216,0 -0.04,-0.01784 -0.04,-0.04 L -0.065,-3.71 c 0,-0.02216 0.01784,-0.04 0.04,-0.04 z"
     id="rect32" />
  <path
     transform="translate(60.0250, 5.1353) scale(0.0040, -0.0040)"
     d="M0 0c0 -198 209 -335 209 -533c0 -71 -16 -141 -42 -207c-5 -8 -12 -12 -19 -12c-13 0 -26 11 -23 27c26 61 42 126 42 192c0 104 -95 208 -167 283h-16v250h16z"
     fill="currentColor"
     id="path34" />
  <a
     style="color:inherit;"
     xlink:href="textedit:///home/tom/Nuty/LilyPond/rhythms/rhythms.ly:18:5:6"
     id="a36">
    <path
       transform="translate(50.5728, 8.8453) scale(0.0040, -0.0040)"
       d="M-23 -116c0 28 11 42 40 42c33 0 78 -13 119 -31l-132 158c-7 9 -10 17 -10 25c0 34 50 66 87 99c25 22 37 52 37 83c0 24 -8 49 -25 69l-35 42c-3 3 -4 7 -4 10c0 9 9 15 17 15c4 0 8 -1 11 -5l151 -180c7 -9 10 -17 10 -25c0 -34 -50 -66 -87 -99 c-25 -22 -37 -52 -37 -83c0 -24 7 -49 24 -69l84 -99c3 -3 4 -7 4 -10c0 -9 -8 -16 -16 -16c-4 0 -9 2 -12 6c-18 21 -63 38 -97 38c-41 0 -53 -26 -53 -67c0 -35 11 -74 28 -94c5 -6 0 -13 -6 -13c-2 0 -4 0 -6 2c-45 54 -92 148 -92 202z"
       fill="currentColor"
       id="path38" />
  </a>
  <a
     style="color:inherit;"
     xlink:href="textedit:///home/tom/Nuty/LilyPond/rhythms/rhythms.ly:18:7:8"
     id="a40">
    <path
       transform="translate(53.2208, 8.8453) scale(0.0040, -0.0040)"
       d="M365 0h-355c-6 0 -10 4 -10 10v136c0 6 4 10 10 10h355c6 0 10 -4 10 -10v-136c0 -6 -4 -10 -10 -10z"
       fill="currentColor"
       id="path42" />
  </a>
  <a
     style="color:inherit;"
     xlink:href="textedit:///home/tom/Nuty/LilyPond/rhythms/rhythms.ly:19:2:3"
     id="a44">
    <path
       transform="translate(58.7089, 8.3453) scale(0.0040, -0.0040)"
       d="M220 138c56 0 109 -29 109 -91c0 -72 -56 -121 -103 -149c-36 -21 -76 -36 -117 -36c-56 0 -109 29 -109 91c0 72 56 121 103 149c36 21 76 36 117 36z"
       fill="currentColor"
       id="path46" />
  </a>
  <a
     style="color:inherit;"
     xlink:href="textedit:///home/tom/Nuty/LilyPond/rhythms/rhythms.ly:19:17:18"
     id="a48">
    <path
       transform="translate(69.3132, 8.8453) scale(0.0040, -0.0040)"
       d="M365 0h-355c-6 0 -10 4 -10 10v136c0 6 4 10 10 10h355c6 0 10 -4 10 -10v-136c0 -6 -4 -10 -10 -10z"
       fill="currentColor"
       id="path50" />
  </a>
  <a
     style="color:inherit;"
     xlink:href="textedit:///home/tom/Nuty/LilyPond/rhythms/rhythms.ly:19:5:6"
     id="a52">
    <path
       transform="translate(61.3610, 8.8453) scale(0.0040, -0.0040)"
       d="M72 -250l117 326c-34 -12 -69 -22 -105 -22c-46 0 -87 33 -87 79c0 40 33 72 73 72c25 0 48 -15 56 -39c10 -28 6 -59 35 -59c16 0 54 48 61 63c6 12 23 12 28 0l-123 -420c-8 -7 -17 -10 -27 -10s-20 3 -28 10z"
       fill="currentColor"
       id="path54" />
  </a>
  <a
     style="color:inherit;"
     xlink:href="textedit:///home/tom/Nuty/LilyPond/rhythms/rhythms.ly:19:8:9"
     id="a56">
    <path
       transform="translate(63.1610, 8.3453) scale(0.0040, -0.0040)"
       d="M220 138c56 0 109 -29 109 -91c0 -72 -56 -121 -103 -149c-36 -21 -76 -36 -117 -36c-56 0 -109 29 -109 91c0 72 56 121 103 149c36 21 76 36 117 36z"
       fill="currentColor"
       id="path58" />
  </a>
  <path
     transform="translate(64.4122, 8.8453)"
     style="fill:currentColor"
     d="m -0.025,-3.75 0.05,0 c 0.02216,0 0.04,0.01784 0.04,0.04 l 0,2.98220007 c 0,0.02216 -0.01784,0.04 -0.04,0.04 l -0.05,0 c -0.02216,0 -0.04,-0.01784 -0.04,-0.04 L -0.065,-3.71 c 0,-0.02216 0.01784,-0.04 0.04,-0.04 z"
     id="rect60" />
  <path
     transform="translate(64.4772, 5.1353) scale(0.0040, -0.0040)"
     d="M0 0c0 -178 203 -292 203 -470c0 -33 -9 -65 -23 -95c18 -37 29 -75 29 -117c0 -63 -16 -125 -42 -183c-5 -8 -12 -12 -19 -12c-13 0 -26 11 -23 27c26 52 42 110 42 168c0 97 -95 191 -167 257v-75h-16v500h16zM153 -517c5 15 7 31 7 47c0 96 -91 190 -160 257 c0 -118 91 -206 153 -304z"
     fill="currentColor"
     id="path62" />
  <a
     style="color:inherit;"
     xlink:href="textedit:///home/tom/Nuty/LilyPond/rhythms/rhythms.ly:19:12:13"
     id="a64">
    <path
       transform="translate(65.8132, 8.8453) scale(0.0040, -0.0040)"
       d="M66 -500l101 327c-34 -12 -70 -23 -106 -23c-46 0 -87 33 -87 79c0 40 32 72 72 72c25 0 49 -15 57 -39c10 -28 5 -59 34 -59c16 0 55 51 60 68l46 151c-34 -12 -68 -22 -104 -22c-46 0 -87 33 -87 79c0 40 33 72 73 72c25 0 48 -15 56 -39c10 -28 5 -59 34 -59 c15 0 50 49 57 63c6 12 23 12 28 0l-179 -670c-8 -7 -17 -10 -27 -10s-20 3 -28 10z"
       fill="currentColor"
       id="path66" />
  </a>
  <a
     style="color:inherit;"
     xlink:href="textedit:///home/tom/Nuty/LilyPond/rhythms/rhythms.ly:19:14:15"
     id="a68">
    <path
       transform="translate(67.5132, 8.8453) scale(0.0040, -0.0040)"
       d="M72 -250l117 326c-34 -12 -69 -22 -105 -22c-46 0 -87 33 -87 79c0 40 33 72 73 72c25 0 48 -15 56 -39c10 -28 6 -59 35 -59c16 0 54 48 61 63c6 12 23 12 28 0l-123 -420c-8 -7 -17 -10 -27 -10s-20 3 -28 10z"
       fill="currentColor"
       id="path70" />
  </a>
  <a
     style="color:inherit;"
     xlink:href="textedit:///home/tom/Nuty/LilyPond/rhythms/rhythms.ly:16:2:3"
     id="a72">
    <path
       transform="translate(31.0944, 7.8453) scale(0.0040, -0.0040)"
       d="M365 -156h-355c-6 0 -10 4 -10 10v136c0 6 4 10 10 10h355c6 0 10 -4 10 -10v-136c0 -6 -4 -10 -10 -10z"
       fill="currentColor"
       id="path74" />
  </a>
  <path
     transform="translate(19.2264, 8.8453) scale(0.0040, -0.0040)"
     d="M359 27c-49 0 -75 42 -75 75c0 38 27 77 72 77c4 0 9 0 14 -1c-28 37 -72 59 -120 59c-106 0 -113 -73 -113 -186v-51v-51c0 -113 7 -187 113 -187c80 0 139 70 158 151c2 7 7 10 12 10c6 0 13 -4 13 -12c0 -94 -105 -174 -183 -174c-68 0 -137 21 -184 70 c-49 51 -66 122 -66 193s17 142 66 193c47 49 116 69 184 69c87 0 160 -64 175 -150c1 -5 1 -9 1 -13c0 -40 -30 -72 -67 -72z"
     fill="currentColor"
     id="path76" />
  <a
     style="color:inherit;"
     xlink:href="textedit:///home/tom/Nuty/LilyPond/rhythms/rhythms.ly:9:2:3"
     id="a78" />
  <path
     transform="translate(15.0264, 9.8453) scale(0.0040, -0.0040)"
     d="M376 262c4 0 9 1 13 1c155 0 256 -128 256 -261c0 -76 -33 -154 -107 -210c-22 -17 -47 -28 -73 -36c3 -35 5 -70 5 -105c0 -19 -1 -39 -2 -58c-7 -120 -90 -228 -208 -228c-108 0 -195 88 -195 197c0 58 53 103 112 103c54 0 95 -47 95 -103c0 -52 -43 -95 -95 -95 c-11 0 -21 2 -31 6c26 -39 68 -65 117 -65c96 0 157 92 163 191c1 18 2 37 2 55c0 31 -1 61 -4 92c-29 -5 -58 -8 -89 -8c-188 0 -333 172 -333 374c0 177 131 306 248 441c-19 62 -37 125 -45 190c-6 52 -7 104 -7 156c0 115 55 224 149 292c3 2 7 3 10 3c4 0 7 0 10 -3 c71 -84 133 -245 133 -358c0 -143 -86 -255 -180 -364c21 -68 39 -138 56 -207zM461 -203c68 24 113 95 113 164c0 90 -66 179 -173 190c24 -116 46 -231 60 -354zM74 28c0 -135 129 -247 264 -247c28 0 55 2 82 6c-14 127 -37 245 -63 364c-79 -8 -124 -61 -124 -119 c0 -44 25 -91 81 -123c5 -5 7 -10 7 -15c0 -11 -10 -22 -22 -22c-3 0 -6 1 -9 2c-80 43 -117 115 -117 185c0 88 58 174 160 197c-14 58 -29 117 -46 175c-107 -121 -213 -243 -213 -403zM408 1045c-99 -48 -162 -149 -162 -259c0 -74 18 -133 36 -194 c80 97 146 198 146 324c0 55 -4 79 -20 129z"
     fill="currentColor"
     id="path80" />
  <a
     style="color:inherit;"
     xlink:href="textedit:///home/tom/Nuty/LilyPond/rhythms/rhythms.ly:15:2:3"
     id="a82">
    <path
       transform="translate(22.9264, 8.3453) scale(0.0040, -0.0040)"
       d="M215 112c-50 0 -69 -43 -69 -88c0 -77 57 -136 134 -136c50 0 69 43 69 88c0 77 -57 136 -134 136zM495 0c0 -43 -35 -76 -73 -97c-53 -30 -113 -41 -174 -41s-122 11 -175 41c-38 21 -73 54 -73 97s35 76 73 97c53 30 114 41 175 41s121 -11 174 -41 c38 -21 73 -54 73 -97z"
       fill="currentColor"
       id="path84" />
  </a>
  <a
     style="color:inherit;"
     xlink:href="textedit:///home/tom/Nuty/LilyPond/rhythms/rhythms.ly:17:5:6"
     id="a86">
    <path
       transform="translate(42.0705, 8.8453) scale(0.0040, -0.0040)"
       d="M365 0h-355c-6 0 -10 4 -10 10v136c0 6 4 10 10 10h355c6 0 10 -4 10 -10v-136c0 -6 -4 -10 -10 -10z"
       fill="currentColor"
       id="path88" />
  </a>
  <a
     style="color:inherit;"
     xlink:href="textedit:///home/tom/Nuty/LilyPond/rhythms/rhythms.ly:18:2:3"
     id="a90">
    <path
       transform="translate(47.5585, 8.3453) scale(0.0040, -0.0040)"
       d="M220 138c56 0 109 -29 109 -91c0 -72 -56 -121 -103 -149c-36 -21 -76 -36 -117 -36c-56 0 -109 29 -109 91c0 72 56 121 103 149c36 21 76 36 117 36z"
       fill="currentColor"
       id="path92" />
  </a>
  <path
     transform="translate(48.8097, 8.8453)"
     style="fill:currentColor"
     d="m -0.025,-3.6666999 0.05,0 c 0.02216,0 0.04,0.01784 0.04,0.04 l 0,2.89889997 c 0,0.02216 -0.01784,0.04 -0.04,0.04 l -0.05,0 c -0.02216,0 -0.04,-0.01784 -0.04,-0.04 l 0,-2.89889997 c 0,-0.02216 0.01784,-0.04 0.04,-0.04 z"
     id="rect94" />
  <a
     style="color:inherit;"
     xlink:href="textedit:///home/tom/Nuty/LilyPond/rhythms/rhythms.ly:17:2:3"
     id="a96">
    <path
       transform="translate(37.7825, 8.3453) scale(0.0040, -0.0040)"
       d="M315 65c0 24 -21 41 -42 41c-4 0 -8 0 -12 -1c-31 -9 -77 -40 -114 -64s-84 -53 -104 -78c-7 -8 -11 -18 -11 -28c0 -24 21 -41 42 -41c4 0 8 0 12 1c31 9 78 40 115 64s84 53 104 78c7 8 10 18 10 28zM264 137c47 0 83 -21 83 -72c0 -19 -4 -37 -10 -56 c-12 -38 -32 -74 -65 -96c-54 -36 -113 -51 -188 -51c-47 0 -84 22 -84 73c0 19 5 37 11 56c12 38 31 74 64 96c54 36 114 50 189 50z"
       fill="currentColor"
       id="path98" />
  </a>
  <path
     transform="translate(39.1075, 8.8453)"
     style="fill:currentColor"
     d="m -0.025,-3.6666999 0.05,0 c 0.02216,0 0.04,0.01784 0.04,0.04 l 0,2.82529992 c 0,0.02216 -0.01784,0.04 -0.04,0.04 l -0.05,0 c -0.02216,0 -0.04,-0.01784 -0.04,-0.04 l 0,-2.82529992 c 0,-0.02216 0.01784,-0.04 0.04,-0.04 z"
     id="rect100" />
  <a
     transform="translate(31.4631, 165.1512)"
     xlink:href="http://lilypond.org/"
     id="a102">
    <path
       style="fill:none;stroke:none;stroke-width:0"
       d="m 0,-0.44389999 56.5755,0 0,2.08269999 -56.5755,0 z"
       id="rect104" />
  </a>
  <g
     transform="translate(31.4631, 165.1512)"
     style="font-size:2.20009995px;font-family:'Century Schoolbook L';text-anchor:start;fill:currentColor"
     id="text106">
    <path
       d="m 0.63142868,-1.5884722 -0.56762578,0 0,0.1034047 0.0418019,0 c 0.17820809,0 0.19800899,0.011 0.19800899,0.1034047 l 0,0.063803 0,0.84263831 c 0,0.29921359 -0.044002,0.36301649 -0.25521159,0.37181689 l 0,0.1034047 0.62702848,0 0,-0.1034047 C 0.46642119,-0.1122051 0.42241919,-0.176008 0.42241919,-0.47522159 l 0,-0.97244421 L 0.94604298,0 l 0.088004,0 0.4906223,-1.4476658 0,1.17705351 0,0.0638029 c 0,0.0946043 -0.019801,0.10340469 -0.198009,0.10340469 l -0.039602,0 0,0.1034047 0.7216327,0 0,-0.1034047 -0.039602,0 c -0.1782081,0 -0.198009,-0.0088 -0.198009,-0.10340469 l 0,-0.0638029 0,-1.04724761 0,-0.063803 c 0,-0.092404 0.019801,-0.1034047 0.198009,-0.1034047 l 0.039602,0 0,-0.1034047 -0.552225,0 -0.4026183,1.17265331 -0.42241922,-1.17265331 z"
       style=""
       id="path4260" />
    <path
       d="M 2.9819262,0.0154007 3.3823444,0 l 0,-0.0946043 -0.055003,0 c -0.1210055,0 -0.1386063,-0.0198009 -0.1386063,-0.16060729 l 0,-0.77003501 -0.4136188,0.024201 0,0.0946043 0.1122051,0 c 0.081404,0 0.094604,0.0154007 0.094604,0.110005 l 0,0.27061229 c 0,0.1254057 -0.013201,0.198009 -0.046202,0.2706123 -0.046202,0.0968044 -0.1342061,0.15400699 -0.242011,0.15400699 -0.068203,0 -0.1254057,-0.0242011 -0.154007,-0.0682031 -0.028601,-0.0418019 -0.033002,-0.0638029 -0.033002,-0.18480839 l 0,-0.67103051 -0.3850175,0.024201 0,0.0946043 0.083604,0 c 0.081404,0 0.094604,0.0154007 0.094604,0.110005 l 0,0.47522159 c 0,0.1122051 0.0088,0.16280739 0.041802,0.21340969 0.059403,0.0902041 0.1650075,0.1408064 0.2970135,0.1408064 0.1452066,0 0.2464112,-0.0594027 0.3432156,-0.2002091 l 0,0.1826083 z"
       style=""
       id="path4262" />
    <path
       d="m 4.2785068,-1.0494477 -0.077004,0 -0.063803,0.0792036 c -0.079204,-0.0616028 -0.1584072,-0.088004 -0.2684122,-0.088004 -0.1936088,0 -0.3212145,0.12760582 -0.3212145,0.31901452 0,0.0858039 0.028601,0.15840719 0.077003,0.20240919 0.050602,0.0462021 0.1012046,0.0682031 0.2332106,0.0990045 l 0.1166053,0.0264012 c 0.1738079,0.0418019 0.2354107,0.0858039 0.2354107,0.1738079 0,0.10340469 -0.090204,0.17600799 -0.22001,0.17600799 -0.1848084,0 -0.3168144,-0.1188054 -0.3696168,-0.33881539 l -0.088004,0 0,0.41581889 0.077003,0 0.077004,-0.0902041 c 0.090204,0.0726033 0.1914087,0.1078049 0.3014137,0.1078049 0.2156098,0 0.3586163,-0.1342061 0.3586163,-0.33881539 0,-0.0968044 -0.030801,-0.1716078 -0.092404,-0.2222101 -0.052802,-0.0462021 -0.096804,-0.0638029 -0.2310105,-0.0924042 l -0.110005,-0.0242011 c -0.1210055,-0.0264012 -0.1210055,-0.0264012 -0.1606073,-0.0484022 -0.048402,-0.022001 -0.077004,-0.0682031 -0.077004,-0.1166053 0,-0.088004 0.083604,-0.1518069 0.2046093,-0.1518069 0.083604,0 0.1518069,0.0286013 0.2134097,0.088004 0.048402,0.0484022 0.072603,0.0924042 0.1078049,0.1936088 l 0.077004,0 0,-0.36961682 z"
       style=""
       id="path4264" />
    <path
       d="m 4.8920944,-1.0252466 -0.4136188,0.024201 0,0.0946043 0.1122051,0 c 0.081404,0 0.094604,0.0154007 0.094604,0.110005 l 0,0.52582389 0,0.088004 c 0,0.088004 -0.024201,0.1034047 -0.1650075,0.1034047 l -0.015401,0 0,0.0792036 0.5698259,0 0,-0.0792036 -0.015401,0 c -0.1430065,0 -0.1672076,-0.0154007 -0.1672076,-0.1034047 l 0,-0.088004 0,-0.75463431 z M 4.7886897,-1.5730715 c -0.070403,0 -0.1276058,0.057203 -0.1276058,0.1276058 0,0.068203 0.057203,0.1276058 0.1254057,0.1276058 0.072603,0 0.1298059,-0.057203 0.1298059,-0.1276058 0,-0.070403 -0.057203,-0.1276058 -0.1276058,-0.1276058 z"
       style=""
       id="path4266" />
    <path
       d="m 5.9821407,-0.32341469 c -0.070403,0.15840719 -0.1452066,0.22221009 -0.2596118,0.22221009 -0.176008,0 -0.286013,-0.16060729 -0.286013,-0.41801899 0,-0.26621209 0.1078049,-0.44442019 0.2706123,-0.44442019 0.066003,0 0.1232056,0.0308014 0.1232056,0.066003 0,0.0066 -0.0044,0.0132006 -0.013201,0.0264012 -0.035202,0.0418019 -0.044002,0.0638029 -0.044002,0.1012046 0,0.0726033 0.055003,0.1232056 0.132006,0.1232056 0.077004,0 0.1342061,-0.0616028 0.1342061,-0.1496068 0,-0.1474067 -0.1474067,-0.26181192 -0.3432156,-0.26181192 -0.286013,0 -0.4906223,0.23541072 -0.4906223,0.56322561 0,0.31241419 0.1870085,0.52802399 0.4598209,0.52802399 0.1958089,0 0.308014,-0.0902041 0.4026183,-0.32341469 l -0.085804,-0.0330015 z"
       style=""
       id="path4268" />
    <path
       d="m 7.7393675,-0.49502249 c 0.0022,-0.33001499 -0.1848084,-0.56322561 -0.4532206,-0.56322561 -0.2816128,0 -0.4928224,0.24421112 -0.4928224,0.57422611 0,0.30801399 0.2002091,0.51702349 0.4972226,0.51702349 0.2090095,0 0.3586163,-0.1034047 0.4488204,-0.31241419 l -0.077004,-0.0418019 c -0.090204,0.16940769 -0.1826083,0.23541069 -0.330015,0.23541069 -0.1122051,0 -0.1936088,-0.0484022 -0.2508114,-0.14520659 -0.039602,-0.066003 -0.057203,-0.1430065 -0.055002,-0.264012 l 0.7128324,0 z m -0.7106323,-0.0946043 c 0,-0.0682031 0.0088,-0.11660529 0.030801,-0.17820809 0.046202,-0.132006 0.1166053,-0.1958089 0.2222101,-0.1958089 0.1342061,0 0.2222101,0.1166053 0.2222101,0.2926133 0,0.0638029 -0.019801,0.0814037 -0.090204,0.0814037 l -0.3850175,0 z"
       style=""
       id="path4270" />
    <path
       d="m 8.256391,-1.0252466 -0.3806173,0.024201 0,0.0946043 0.079204,0 c 0.081404,0 0.094604,0.0154007 0.094604,0.110005 l 0,0.52582389 0,0.088004 c 0,0.088004 -0.024201,0.1034047 -0.1650075,0.1034047 l -0.0088,0 0,0.0792036 0.5566252,0 0,-0.0792036 -0.0088,0 c -0.1430064,0 -0.1672075,-0.0154007 -0.1672075,-0.1034047 l 0,-0.088004 0,-0.2288104 c 0,-0.10780489 0.015401,-0.20680939 0.039602,-0.25741169 0.046202,-0.0990045 0.1452065,-0.1672076 0.2398108,-0.1672076 0.057203,0 0.1232056,0.0330015 0.1562071,0.0770035 0.033001,0.0462021 0.048402,0.1144052 0.048402,0.22001 l 0,0.35641619 0,0.088004 c 0,0.088004 -0.024201,0.1034047 -0.1672076,0.1034047 l -0.0088,0 0,0.0792036 0.5566253,0 0,-0.0792036 -0.0088,0 c -0.1408064,0 -0.1650075,-0.0154007 -0.1650075,-0.1034047 l 0,-0.088004 0,-0.34541569 c 0,-0.1584072 -0.0066,-0.198009 -0.046202,-0.2728124 -0.055002,-0.1056048 -0.1672076,-0.16940772 -0.2970135,-0.16940772 -0.1408064,0 -0.2508113,0.066003 -0.3476157,0.21120962 l 0,-0.17820812 z"
       style=""
       id="path4272" />
    <path
       d="m 9.5925737,-0.1628074 c -0.1210055,-0.0022 -0.1276058,-0.0044 -0.154007,-0.0198009 -0.015401,-0.0088 -0.026401,-0.0330015 -0.026401,-0.0572026 0,-0.066003 0.059403,-0.0946043 0.2068094,-0.0990045 0.2090094,-0.0044 0.2420109,-0.0088 0.3146142,-0.0418019 0.1320059,-0.0594027 0.2068099,-0.1738079 0.2068099,-0.31901449 0,-0.088004 -0.0198,-0.1430065 -0.0814,-0.2156098 0.0374,-0.0396018 0.0572,-0.0528024 0.0748,-0.0528024 0.011,0 0.0176,0.0066 0.022,0.0308014 0.0088,0.0528024 0.044,0.0814037 0.09901,0.0814037 0.055,0 0.099,-0.0462021 0.099,-0.1056048 0,-0.0748034 -0.0594,-0.12760582 -0.145206,-0.12760582 -0.0704,0 -0.110005,0.022001 -0.21121,0.11440522 -0.092404,-0.0616028 -0.1628074,-0.0836038 -0.2728123,-0.0836038 -0.2618119,0 -0.4334197,0.14520662 -0.4334197,0.36521662 0,0.12980589 0.070403,0.24201099 0.1848084,0.29481339 -0.1474067,0.0330015 -0.2090095,0.0990045 -0.2090095,0.22000999 0,0.0968044 0.044002,0.154007 0.1474067,0.1892086 -0.1364062,0.0484022 -0.2024092,0.1188054 -0.2024092,0.20900949 0,0.1452066 0.1694077,0.2266103 0.4642211,0.2266103 0.3674165,0 0.5522255,-0.1166053 0.5522255,-0.34761579 0,-0.110005 -0.0506,-0.198009 -0.132006,-0.2310105 -0.0572,-0.022001 -0.1276063,-0.0308014 -0.2794132,-0.0308014 l -0.2244101,0 z m 0.1298059,-0.80083638 c 0.1386062,0 0.2156097,0.0968044 0.2156097,0.2662121 0,0.17160779 -0.083604,0.27501249 -0.2244101,0.27501249 -0.1364062,0 -0.2222101,-0.1034047 -0.2222101,-0.26841219 0,-0.1738079 0.083604,-0.2728124 0.2310105,-0.2728124 z M 9.7025787,0.0264012 c 0.1826082,0 0.1958088,0 0.2288103,0.0044002 0.088004,0.0088004 0.143007,0.0572026 0.143007,0.1276058 0,0.12540569 -0.143007,0.19800899 -0.3894181,0.19800899 -0.1848084,0 -0.2904132,-0.0550025 -0.2904132,-0.154007 0,-0.0726033 0.039602,-0.12100549 0.1452066,-0.17600799 l 0.1628074,0 z"
       style=""
       id="path4274" />
    <path
       d="m 10.83453,-1.0252466 -0.389417,0.024201 0,0.0946043 0.0902,0 c 0.0814,0 0.0946,0.0154007 0.0946,0.110005 l 0,0.52582389 0,0.088004 c 0,0.088004 -0.0242,0.1034047 -0.167208,0.1034047 l -0.0088,0 0,0.0792036 0.587427,0 0,-0.0792036 -0.0418,0 c -0.140807,0 -0.165008,-0.0154007 -0.165008,-0.1034047 l 0,-0.088004 0,-0.022001 c 0,-0.1650075 0.0308,-0.33221509 0.0858,-0.45762079 0.0528,-0.1232056 0.127606,-0.1914087 0.22001,-0.2024092 -0.0308,0.0352016 -0.0396,0.0572026 -0.0396,0.0990045 0,0.0704032 0.0506,0.1210055 0.121006,0.1210055 0.0792,0 0.134206,-0.0594027 0.134206,-0.1496068 0,-0.1056048 -0.0748,-0.17600802 -0.191409,-0.17600802 -0.138606,0 -0.259611,0.11220512 -0.330015,0.30581392 l 0,-0.27281242 z"
       style=""
       id="path4276" />
    <path
       d="m 12.351602,-0.70843218 c 0,-0.1386063 -0.0242,-0.2090095 -0.088,-0.2618119 -0.0726,-0.0572026 -0.180408,-0.088004 -0.321215,-0.088004 -0.246411,0 -0.429019,0.11660532 -0.429019,0.27501252 0,0.0836038 0.0506,0.1364062 0.127606,0.1364062 0.0682,0 0.118805,-0.0462021 0.118805,-0.1122051 0,-0.0286013 -0.011,-0.0594027 -0.033,-0.0902041 -0.0132,-0.0154007 -0.0154,-0.022001 -0.0154,-0.0286013 0,-0.0462021 0.0902,-0.0858039 0.195809,-0.0858039 0.0682,0 0.145206,0.022001 0.180408,0.0550025 0.0418,0.0352016 0.0572,0.088004 0.0572,0.1870085 l 0,0.0858039 c -0.231011,0.0396018 -0.301414,0.0572026 -0.409219,0.0990045 -0.189209,0.0704032 -0.281613,0.1738079 -0.281613,0.3124142 0,0.15620709 0.125406,0.25741169 0.319015,0.25741169 0.151807,0 0.288213,-0.0616028 0.382817,-0.1738079 0.0352,0.1122051 0.0902,0.1562071 0.193609,0.1562071 0.099,0 0.202409,-0.0638029 0.202409,-0.1276058 0,-0.0154007 -0.011,-0.0264012 -0.022,-0.0264012 -0.0088,0 -0.0176,0.0022 -0.033,0.0088 -0.0352,0.0132006 -0.044,0.0154007 -0.0616,0.0154007 -0.0616,0 -0.0836,-0.0418019 -0.0836,-0.15180689 l 0,-0.44222009 z m -0.206809,0.26841219 c 0,0.132006 -0.0066,0.1628074 -0.044,0.22001 -0.055,0.0814037 -0.156208,0.13640619 -0.250812,0.13640619 -0.099,0 -0.173808,-0.0726033 -0.173808,-0.17160779 0,-0.0924042 0.0462,-0.1584072 0.143007,-0.2046093 0.0682,-0.0308014 0.154007,-0.0528024 0.325615,-0.0814037 l 0,0.1012046 z"
       style=""
       id="path4278" />
    <path
       d="M 13.157801,-0.26621209 12.90699,-0.84923858 c -0.0066,-0.0132006 -0.011,-0.0330015 -0.011,-0.0462021 0,-0.0374017 0.0286,-0.0506023 0.118806,-0.0506023 l 0.0308,0 0,-0.0792036 -0.519223,0 0,0.0792036 0.0176,0 c 0.0836,0 0.114406,0.0198009 0.145207,0.0946043 l 0.378417,0.88444018 0.077,0 0.312414,-0.77223508 c 0.0594,-0.1452066 0.121005,-0.2068094 0.204609,-0.2068094 l 0.0088,0 0,-0.0792036 -0.44002,0 0,0.0792036 0.0308,0 c 0.077,0 0.118805,0.0264012 0.118805,0.0770035 0,0.0242011 -0.0088,0.0594027 -0.0198,0.0924042 l -0.20241,0.51042319 z"
       style=""
       id="path4280" />
    <path
       d="m 14.143687,-1.0252466 -0.413619,0.024201 0,0.0946043 0.112205,0 c 0.0814,0 0.0946,0.0154007 0.0946,0.110005 l 0,0.52582389 0,0.088004 c 0,0.088004 -0.0242,0.1034047 -0.165007,0.1034047 l -0.0154,0 0,0.0792036 0.569826,0 0,-0.0792036 -0.0154,0 c -0.143006,0 -0.167207,-0.0154007 -0.167207,-0.1034047 l 0,-0.088004 0,-0.75463431 z m -0.103405,-0.5478249 c -0.0704,0 -0.127606,0.057203 -0.127606,0.1276058 0,0.068203 0.0572,0.1276058 0.125406,0.1276058 0.0726,0 0.129806,-0.057203 0.129806,-0.1276058 0,-0.070403 -0.0572,-0.1276058 -0.127606,-0.1276058 z"
       style=""
       id="path4282" />
    <path
       d="m 14.822314,-1.0252466 -0.380618,0.024201 0,0.0946043 0.0792,0 c 0.0814,0 0.0946,0.0154007 0.0946,0.110005 l 0,0.52582389 0,0.088004 c 0,0.088004 -0.0242,0.1034047 -0.165007,0.1034047 l -0.0088,0 0,0.0792036 0.556626,0 0,-0.0792036 -0.0088,0 c -0.143006,0 -0.167207,-0.0154007 -0.167207,-0.1034047 l 0,-0.088004 0,-0.2288104 c 0,-0.10780489 0.0154,-0.20680939 0.0396,-0.25741169 0.0462,-0.0990045 0.145207,-0.1672076 0.239811,-0.1672076 0.0572,0 0.123206,0.0330015 0.156207,0.0770035 0.033,0.0462021 0.0484,0.1144052 0.0484,0.22001 l 0,0.35641619 0,0.088004 c 0,0.088004 -0.0242,0.1034047 -0.167208,0.1034047 l -0.0088,0 0,0.0792036 0.556625,0 0,-0.0792036 -0.0088,0 c -0.140807,0 -0.165008,-0.0154007 -0.165008,-0.1034047 l 0,-0.088004 0,-0.34541569 c 0,-0.1584072 -0.0066,-0.198009 -0.0462,-0.2728124 -0.055,-0.1056048 -0.167208,-0.16940772 -0.297014,-0.16940772 -0.140806,0 -0.250811,0.066003 -0.347615,0.21120962 l 0,-0.17820812 z"
       style=""
       id="path4284" />
    <path
       d="m 16.158496,-0.1628074 c -0.121005,-0.0022 -0.127605,-0.0044 -0.154007,-0.0198009 -0.0154,-0.0088 -0.0264,-0.0330015 -0.0264,-0.0572026 0,-0.066003 0.0594,-0.0946043 0.20681,-0.0990045 0.209009,-0.0044 0.242011,-0.0088 0.314614,-0.0418019 0.132006,-0.0594027 0.206809,-0.1738079 0.206809,-0.31901449 0,-0.088004 -0.0198,-0.1430065 -0.0814,-0.2156098 0.0374,-0.0396018 0.0572,-0.0528024 0.0748,-0.0528024 0.011,0 0.0176,0.0066 0.022,0.0308014 0.0088,0.0528024 0.044,0.0814037 0.099,0.0814037 0.055,0 0.099,-0.0462021 0.099,-0.1056048 0,-0.0748034 -0.0594,-0.12760582 -0.145207,-0.12760582 -0.0704,0 -0.110005,0.022001 -0.211209,0.11440522 -0.0924,-0.0616028 -0.162808,-0.0836038 -0.272813,-0.0836038 -0.261812,0 -0.433419,0.14520662 -0.433419,0.36521662 0,0.12980589 0.0704,0.24201099 0.184808,0.29481339 -0.147407,0.0330015 -0.209009,0.0990045 -0.209009,0.22000999 0,0.0968044 0.044,0.154007 0.147406,0.1892086 -0.136406,0.0484022 -0.202409,0.1188054 -0.202409,0.20900949 0,0.1452066 0.169408,0.2266103 0.464221,0.2266103 0.367417,0 0.552225,-0.1166053 0.552225,-0.34761579 0,-0.110005 -0.0506,-0.198009 -0.132006,-0.2310105 -0.0572,-0.022001 -0.127606,-0.0308014 -0.279412,-0.0308014 l -0.224411,0 z m 0.129806,-0.80083638 c 0.138607,0 0.21561,0.0968044 0.21561,0.2662121 0,0.17160779 -0.0836,0.27501249 -0.22441,0.27501249 -0.136406,0 -0.22221,-0.1034047 -0.22221,-0.26841219 0,-0.1738079 0.0836,-0.2728124 0.23101,-0.2728124 z m -0.0198,0.99004498 c 0.182609,0 0.195809,0 0.228811,0.0044002 0.088,0.0088004 0.143006,0.0572026 0.143006,0.1276058 0,0.12540569 -0.143006,0.19800899 -0.389417,0.19800899 -0.184809,0 -0.290414,-0.0550025 -0.290414,-0.154007 0,-0.0726033 0.0396,-0.12100549 0.145207,-0.17600799 l 0.162807,0 z"
       style=""
       id="path4286" />
    <path
       d="m 17.915173,-1.6214737 -0.378417,0.024201 0,0.094604 0.077,0 c 0.0814,0 0.0946,0.015401 0.0946,0.110005 l 0,0.85583891 c 0,0.2948134 -0.011,0.43781989 -0.0396,0.56762579 l 0.0836,0 0.107805,-0.1716078 c 0.0902,0.1188054 0.193609,0.1738079 0.330015,0.1738079 0.270612,0 0.473021,-0.23541069 0.473021,-0.55222509 0,-0.31681439 -0.184808,-0.53902451 -0.44882,-0.53902451 -0.134206,0 -0.21561,0.046202 -0.299214,0.17160782 l 0,-0.73483342 z m 0.259612,0.67543072 c 0.165008,0 0.257412,0.1606073 0.257412,0.44882039 0,0.2772126 -0.0902,0.43561979 -0.250811,0.43561979 -0.173808,0 -0.277213,-0.16060729 -0.277213,-0.43121959 0,-0.29261329 0.0946,-0.45322059 0.270612,-0.45322059 z"
       style=""
       id="path4288" />
    <path
       d="m 19.347988,-0.27941269 -0.242011,-0.56542569 c -0.0088,-0.0198009 -0.0132,-0.0352016 -0.0132,-0.0462021 0,-0.0396018 0.0264,-0.0550025 0.101205,-0.0550025 l 0.0462,0 0,-0.0792036 -0.523624,0 0,0.0792036 0.0242,0 c 0.0704,0 0.110005,0.0308014 0.149607,0.1188054 l 0.358616,0.81183688 -0.0374,0.0770035 c -0.0792,0.16720759 -0.182609,0.28381289 -0.253012,0.28381289 -0.0198,0 -0.0352,-0.0088 -0.0352,-0.022001 0,-0.0044 0.0022,-0.0110005 0.0044,-0.0198009 0.0066,-0.0198009 0.011,-0.0396018 0.011,-0.0572026 0,-0.0572026 -0.0484,-0.0990045 -0.112205,-0.0990045 -0.077,0 -0.132006,0.0572026 -0.132006,0.13640619 0,0.0968044 0.0858,0.1694077 0.200209,0.1694077 0.116605,0 0.21561,-0.0572026 0.303614,-0.176008 0.0682,-0.0924042 0.112205,-0.18040819 0.209009,-0.42461929 l 0.250812,-0.62042818 c 0.055,-0.1342061 0.101204,-0.1782081 0.184808,-0.1782081 l 0.0132,0 0,-0.0792036 -0.44002,0 0,0.0792036 0.0352,0 c 0.0836,0 0.118806,0.0242011 0.118806,0.0814037 0,0.022001 -0.0066,0.0506023 -0.022,0.088004 l -0.200209,0.49722259 z"
       style=""
       id="path4290" />
    <path
       d="m 21.901102,-0.60282738 -0.0968,0 c -0.022,0.14960679 -0.0748,0.29921359 -0.132006,0.37181689 -0.0682,0.0858039 -0.195809,0.12760579 -0.380618,0.12760579 l -0.0924,0 c -0.066,0 -0.121005,-0.0132006 -0.140806,-0.0330015 -0.0154,-0.0132006 -0.0176,-0.0264012 -0.0176,-0.0726033 l 0,-1.10885041 0,-0.063803 c 0,-0.092404 0.0198,-0.1034047 0.198009,-0.1034047 l 0.0396,0 0,-0.1034047 -0.721633,0 0,0.1034047 0.0396,0 c 0.178208,0 0.198009,0.011 0.198009,0.1034047 l 0,0.063803 0,1.04724761 0,0.0638029 c 0,0.0924042 -0.0198,0.10340469 -0.198009,0.10340469 l -0.0396,0 0,0.1034047 1.298059,0 0.0462,-0.60282738 z"
       style=""
       id="path4292" />
    <path
       d="m 22.402655,-1.0252466 -0.413619,0.024201 0,0.0946043 0.112205,0 c 0.0814,0 0.0946,0.0154007 0.0946,0.110005 l 0,0.52582389 0,0.088004 c 0,0.088004 -0.0242,0.1034047 -0.165007,0.1034047 l -0.0154,0 0,0.0792036 0.569826,0 0,-0.0792036 -0.0154,0 c -0.143006,0 -0.167207,-0.0154007 -0.167207,-0.1034047 l 0,-0.088004 0,-0.75463431 z M 22.29925,-1.5730715 c -0.0704,0 -0.127606,0.057203 -0.127606,0.1276058 0,0.068203 0.0572,0.1276058 0.125406,0.1276058 0.0726,0 0.129806,-0.057203 0.129806,-0.1276058 0,-0.070403 -0.0572,-0.1276058 -0.127606,-0.1276058 z"
       style=""
       id="path4294" />
    <path
       d="m 23.090082,-1.6214737 -0.407018,0.024201 0,0.094604 0.107805,0 c 0.0792,0 0.0924,0.015401 0.0924,0.110005 l 0,1.12205101 0,0.088004 c 0,0.088004 -0.0242,0.1034047 -0.165007,0.1034047 l -0.0154,0 0,0.0792036 0.569826,0 0,-0.0792036 -0.0154,0 c -0.143006,0 -0.167208,-0.0154007 -0.167208,-0.1034047 l 0,-0.088004 0,-1.35086141 z"
       style=""
       id="path4296" />
    <path
       d="m 23.932962,-0.27941269 -0.242011,-0.56542569 c -0.0088,-0.0198009 -0.0132,-0.0352016 -0.0132,-0.0462021 0,-0.0396018 0.0264,-0.0550025 0.101205,-0.0550025 l 0.0462,0 0,-0.0792036 -0.523624,0 0,0.0792036 0.0242,0 c 0.0704,0 0.110005,0.0308014 0.149607,0.1188054 l 0.358617,0.81183688 -0.0374,0.0770035 c -0.0792,0.16720759 -0.182608,0.28381289 -0.253012,0.28381289 -0.0198,0 -0.0352,-0.0088 -0.0352,-0.022001 0,-0.0044 0.0022,-0.0110005 0.0044,-0.0198009 0.0066,-0.0198009 0.011,-0.0396018 0.011,-0.0572026 0,-0.0572026 -0.0484,-0.0990045 -0.112205,-0.0990045 -0.077,0 -0.132006,0.0572026 -0.132006,0.13640619 0,0.0968044 0.0858,0.1694077 0.200209,0.1694077 0.116606,0 0.21561,-0.0572026 0.303614,-0.176008 0.0682,-0.0924042 0.112205,-0.18040819 0.20901,-0.42461929 l 0.250811,-0.62042818 c 0.055,-0.1342061 0.101205,-0.1782081 0.184809,-0.1782081 l 0.0132,0 0,-0.0792036 -0.44002,0 0,0.0792036 0.0352,0 c 0.0836,0 0.118805,0.0242011 0.118805,0.0814037 0,0.022001 -0.0066,0.0506023 -0.022,0.088004 l -0.200209,0.49722259 z"
       style=""
       id="path4298" />
    <path
       d="m 25.000251,-0.70623208 0.248611,0 c 0.198009,0 0.301414,-0.0154007 0.389418,-0.0572026 0.156207,-0.0748034 0.244211,-0.2156098 0.244211,-0.38941772 0,-0.1672076 -0.077,-0.2948134 -0.22221,-0.3674167 -0.0858,-0.044002 -0.22221,-0.068203 -0.374017,-0.068203 l -0.770035,0 0,0.1034047 0.0396,0 c 0.178208,0 0.198009,0.011 0.198009,0.1034047 l 0,0.063803 0,1.04724761 0,0.0638029 c 0,0.0924042 -0.0198,0.10340469 -0.198009,0.10340469 l -0.0396,0 0,0.1034047 0.739233,0 0,-0.1034047 -0.0572,0 c -0.178208,0 -0.198009,-0.0110005 -0.198009,-0.10340469 l 0,-0.0638029 0,-0.43561979 z m 0,-0.1034047 0,-0.56322562 c 0,-0.1012046 0.0132,-0.1122051 0.134206,-0.1122051 l 0.140806,0 c 0.228811,0 0.336616,0.1078049 0.336616,0.3410155 0,0.22661032 -0.112205,0.33441522 -0.345416,0.33441522 l -0.266212,0 z"
       style=""
       id="path4300" />
    <path
       d="m 26.422788,-1.0582481 c -0.268413,0 -0.479622,0.23981092 -0.479622,0.54782491 0,0.3014137 0.211209,0.54342469 0.475221,0.54342469 0.264012,0 0.475222,-0.24201099 0.475222,-0.54562479 0,-0.30141369 -0.21121,-0.54562481 -0.470821,-0.54562481 z m 0,0.0946043 c 0.154007,0 0.239811,0.1606073 0.239811,0.45102049 0,0.2926133 -0.0858,0.45102049 -0.244212,0.45102049 -0.158407,0 -0.244211,-0.15840719 -0.244211,-0.44882039 0,-0.29921359 0.0836,-0.45322059 0.248612,-0.45322059 z"
       style=""
       id="path4302" />
    <path
       d="m 27.408432,-1.0252466 -0.380617,0.024201 0,0.0946043 0.0792,0 c 0.0814,0 0.0946,0.0154007 0.0946,0.110005 l 0,0.52582389 0,0.088004 c 0,0.088004 -0.0242,0.1034047 -0.165008,0.1034047 l -0.0088,0 0,0.0792036 0.556625,0 0,-0.0792036 -0.0088,0 c -0.143007,0 -0.167208,-0.0154007 -0.167208,-0.1034047 l 0,-0.088004 0,-0.2288104 c 0,-0.10780489 0.0154,-0.20680939 0.0396,-0.25741169 0.0462,-0.0990045 0.145207,-0.1672076 0.239811,-0.1672076 0.0572,0 0.123206,0.0330015 0.156207,0.0770035 0.033,0.0462021 0.0484,0.1144052 0.0484,0.22001 l 0,0.35641619 0,0.088004 c 0,0.088004 -0.0242,0.1034047 -0.167207,0.1034047 l -0.0088,0 0,0.0792036 0.556626,0 0,-0.0792036 -0.0088,0 c -0.140806,0 -0.165007,-0.0154007 -0.165007,-0.1034047 l 0,-0.088004 0,-0.34541569 c 0,-0.1584072 -0.0066,-0.198009 -0.0462,-0.2728124 -0.055,-0.1056048 -0.167208,-0.16940772 -0.297014,-0.16940772 -0.140806,0 -0.250811,0.066003 -0.347616,0.21120962 l 0,-0.17820812 z"
       style=""
       id="path4304" />
    <path
       d="M 29.149434,0.0154007 29.532252,0 l 0,-0.0946043 -0.0396,0 c -0.118805,0 -0.136406,-0.022001 -0.136406,-0.16060729 l 0,-1.36626211 -0.43122,0.024201 0,0.094604 0.129806,0 c 0.0792,0 0.0946,0.015401 0.0946,0.110005 l 0,0.49722262 c -0.0814,-0.11220512 -0.176008,-0.16280742 -0.303613,-0.16280742 -0.248612,0 -0.43782,0.23981092 -0.43782,0.55662531 0,0.31241419 0.182608,0.53462429 0.43782,0.53462429 0.138606,0 0.23321,-0.0594027 0.303613,-0.1914087 l 0,0.1738079 z m -0.259611,-0.95484338 c 0.0902,0 0.176008,0.066003 0.215609,0.1672076 0.0264,0.066003 0.0418,0.1584072 0.0418,0.26401199 0,0.2552116 -0.101204,0.42241919 -0.259611,0.42241919 -0.154007,0 -0.248612,-0.14520659 -0.248612,-0.38941769 0,-0.12980589 0.0132,-0.22881039 0.0418,-0.30361379 0.0374,-0.0968044 0.118806,-0.1606073 0.20901,-0.1606073 z"
       style=""
       id="path4306" />
    <path
       d="m 31.297969,-0.47522159 -0.0968,0 -0.022,0.1122051 c -0.0286,0.1408064 -0.0462,0.1562071 -0.182608,0.1562071 l -0.492822,0 c 0.151807,-0.1584072 0.202409,-0.2046093 0.343215,-0.3146143 0.200209,-0.15400699 0.286013,-0.23101049 0.336616,-0.29701349 0.0704,-0.0968044 0.105604,-0.19580892 0.105604,-0.30141372 0,-0.2486113 -0.209009,-0.4290195 -0.495022,-0.4290195 -0.279413,0 -0.495023,0.1804082 -0.495023,0.4136188 0,0.13860632 0.0704,0.23321062 0.176008,0.23321062 0.0814,0 0.136407,-0.0550025 0.136407,-0.13420612 0,-0.055003 -0.0308,-0.1056048 -0.0792,-0.1254057 -0.0814,-0.035202 -0.0858,-0.037402 -0.0858,-0.066003 0,-0.033002 0.022,-0.083604 0.0528,-0.1210055 0.055,-0.066003 0.147407,-0.1056048 0.250812,-0.1056048 0.180408,0 0.290413,0.1122051 0.290413,0.2970135 0,0.16280742 -0.077,0.31021412 -0.259612,0.50382292 l -0.129806,0.13640619 -0.171607,0.1848084 c -0.0792,0.0924042 -0.118806,0.14300649 -0.21561,0.27061229 l 0,0.0616028 0.992245,0 0.0418,-0.47522159 z"
       style=""
       id="path4308" />
    <path
       d="m 31.712997,-0.24421109 c -0.077,0 -0.138607,0.0616028 -0.138607,0.13640619 0,0.0770035 0.0616,0.1386063 0.136407,0.1386063 0.077,0 0.138606,-0.0616028 0.138606,-0.1386063 0,-0.0748034 -0.0616,-0.13640619 -0.136406,-0.13640619 z"
       style=""
       id="path4310" />
    <path
       d="m 32.730199,-1.5488704 c -0.0748,0.090204 -0.277213,0.1584072 -0.479622,0.1628074 l 0,0.094604 0.193609,0 c 0.127606,0 0.136406,0.0088 0.136406,0.1386063 l 0,0.88224011 0,0.0638029 c 0,0.0924042 -0.0198,0.10340469 -0.195809,0.10340469 l -0.143006,0 0,0.1034047 0.871239,0 0,-0.1034047 -0.121005,0 c -0.116606,0 -0.165008,-0.0088 -0.182609,-0.0308014 -0.0154,-0.0154007 -0.0154,-0.0154007 -0.0154,-0.13640619 l 0,-0.90864131 c 0,-0.1078049 0.0044,-0.2134097 0.0154,-0.3696168 l -0.0792,0 z"
       style=""
       id="path4312" />
    <path
       d="m 34.069271,-0.85803898 c 0.165007,-0.0902041 0.242011,-0.19800902 0.242011,-0.34101552 0,-0.2024092 -0.184809,-0.3498159 -0.43782,-0.3498159 -0.268412,0 -0.464221,0.1782081 -0.464221,0.4202191 0,0.094604 0.0352,0.19360882 0.0968,0.26181192 0.0374,0.044002 0.0726,0.0682031 0.151807,0.110005 -0.0968,0.0374017 -0.138606,0.0594027 -0.187009,0.0990045 -0.0858,0.0704032 -0.134206,0.17600799 -0.134206,0.28821309 0,0.1188054 0.0594,0.23761079 0.151807,0.30801399 0.0858,0.0616028 0.20461,0.0946043 0.345416,0.0946043 0.162807,0 0.299214,-0.044002 0.389418,-0.1254057 0.0946,-0.0814037 0.151807,-0.21560979 0.151807,-0.34981589 0,-0.1254057 -0.0484,-0.23761079 -0.138607,-0.31681439 -0.044,-0.0374017 -0.0836,-0.0616028 -0.167207,-0.0990045 z m -0.235411,-0.0858039 c -0.178208,-0.066003 -0.255212,-0.14960682 -0.255212,-0.27721262 0,-0.1386063 0.114406,-0.2332106 0.288213,-0.2332106 0.169408,0 0.281613,0.1078049 0.281613,0.2684122 0,0.1144052 -0.044,0.18920862 -0.169407,0.29481342 l -0.145207,-0.0528024 z m 0.127606,0.3036138 c 0.167207,0.0594027 0.237611,0.14520659 0.237611,0.29041319 0,0.17600799 -0.138607,0.28821309 -0.354217,0.28821309 -0.204609,0 -0.325614,-0.1144052 -0.325614,-0.30801399 0,-0.1650075 0.0682,-0.26401199 0.239811,-0.34321559 l 0.202409,0.0726033 z"
       style=""
       id="path4314" />
    <path
       d="m 34.77251,-0.24421109 c -0.077,0 -0.138607,0.0616028 -0.138607,0.13640619 0,0.0770035 0.0616,0.1386063 0.136407,0.1386063 0.077,0 0.138606,-0.0616028 0.138606,-0.1386063 0,-0.0748034 -0.0616,-0.13640619 -0.136406,-0.13640619 z"
       style=""
       id="path4316" />
    <path
       d="m 35.706108,-1.5488704 c -0.308014,0 -0.532424,0.3366153 -0.532424,0.79643622 0,0.45322059 0.21781,0.78543568 0.514823,0.78543568 0.308014,0 0.523624,-0.32121459 0.523624,-0.77883538 0,-0.2332106 -0.0484,-0.42681942 -0.140806,-0.57862632 -0.0858,-0.1386063 -0.226611,-0.2244102 -0.365217,-0.2244102 z m -0.0154,0.094604 c 0.0726,0 0.143007,0.048402 0.195809,0.1364062 0.0594,0.1012046 0.0792,0.2310105 0.0792,0.53242422 0,0.30801399 -0.0154,0.45322059 -0.0594,0.55002499 -0.0506,0.10780489 -0.129806,0.17380789 -0.213409,0.17380789 -0.0726,0 -0.143007,-0.0484022 -0.195809,-0.1364062 -0.0616,-0.10340469 -0.0792,-0.24201099 -0.0792,-0.60062728 0,-0.25521162 0.0154,-0.38501752 0.0594,-0.47962182 0.0506,-0.1122051 0.129806,-0.176008 0.213409,-0.176008 z"
       style=""
       id="path4318" />
    <path
       d="m 36.305946,-0.58742669 0,0.1342061 2.2001,0 0,-0.1342061 -2.2001,0 z"
       style=""
       id="path4320" />
    <path
       d="m 39.709501,-0.28381289 -0.21561,-0.56542569 c -0.0066,-0.0154007 -0.0088,-0.0264012 -0.0088,-0.0462021 0,-0.0396018 0.0198,-0.0506023 0.0924,-0.0506023 l 0.0528,0 0,-0.0792036 -0.492822,0 0,0.0792036 0.0374,0 c 0.0682,0 0.0946,0.0176008 0.114405,0.0814037 l 0.0198,0.0572026 -0.193609,0.51262329 -0.21341,-0.55222509 c -0.0044,-0.0154007 -0.0088,-0.0352016 -0.0088,-0.0484022 0,-0.0374017 0.0242,-0.0506023 0.0902,-0.0506023 l 0.0396,0 0,-0.0792036 -0.484022,0 0,0.0792036 0.0396,0 c 0.0616,0 0.0836,0.0198009 0.114405,0.1078049 l 0.330015,0.87123958 0.077,0 0.261812,-0.69523158 0.268412,0.69523158 0.0682,0 0.308014,-0.81183688 c 0.0484,-0.1298059 0.0858,-0.1672076 0.162808,-0.1672076 l 0.0154,0 0,-0.0792036 -0.415819,0 0,0.0792036 0.0374,0 c 0.077,0 0.107805,0.0242011 0.107805,0.0792036 0,0.022001 -0.0066,0.0550025 -0.0176,0.0814037 l -0.187008,0.50162279 z"
       style=""
       id="path4322" />
    <path
       d="m 41.419737,-0.28381289 -0.21561,-0.56542569 c -0.0066,-0.0154007 -0.0088,-0.0264012 -0.0088,-0.0462021 0,-0.0396018 0.0198,-0.0506023 0.0924,-0.0506023 l 0.0528,0 0,-0.0792036 -0.492822,0 0,0.0792036 0.0374,0 c 0.0682,0 0.09461,0.0176008 0.114405,0.0814037 l 0.0198,0.0572026 -0.193608,0.51262329 -0.21341,-0.55222509 c -0.0044,-0.0154007 -0.0088,-0.0352016 -0.0088,-0.0484022 0,-0.0374017 0.0242,-0.0506023 0.0902,-0.0506023 l 0.0396,0 0,-0.0792036 -0.484022,0 0,0.0792036 0.0396,0 c 0.0616,0 0.0836,0.0198009 0.114405,0.1078049 l 0.330015,0.87123958 0.077,0 0.261812,-0.69523158 0.268412,0.69523158 0.0682,0 0.308014,-0.81183688 c 0.0484,-0.1298059 0.0858,-0.1672076 0.162807,-0.1672076 l 0.0154,0 0,-0.0792036 -0.415819,0 0,0.0792036 0.0374,0 c 0.077,0 0.107805,0.0242011 0.107805,0.0792036 0,0.022001 -0.0066,0.0550025 -0.0176,0.0814037 l -0.187008,0.50162279 z"
       style=""
       id="path4324" />
    <path
       d="m 43.129968,-0.28381289 -0.215609,-0.56542569 c -0.0066,-0.0154007 -0.0088,-0.0264012 -0.0088,-0.0462021 0,-0.0396018 0.0198,-0.0506023 0.0924,-0.0506023 l 0.0528,0 0,-0.0792036 -0.492823,0 0,0.0792036 0.0374,0 c 0.0682,0 0.0946,0.0176008 0.114405,0.0814037 l 0.0198,0.0572026 -0.193609,0.51262329 -0.213409,-0.55222509 c -0.0044,-0.0154007 -0.0088,-0.0352016 -0.0088,-0.0484022 0,-0.0374017 0.0242,-0.0506023 0.0902,-0.0506023 l 0.0396,0 0,-0.0792036 -0.484022,0 0,0.0792036 0.0396,0 c 0.0616,0 0.0836,0.0198009 0.114405,0.1078049 l 0.330015,0.87123958 0.077,0 0.261812,-0.69523158 0.268412,0.69523158 0.0682,0 0.308014,-0.81183688 c 0.0484,-0.1298059 0.0858,-0.1672076 0.162807,-0.1672076 l 0.0154,0 0,-0.0792036 -0.415819,0 0,0.0792036 0.0374,0 c 0.077,0 0.107805,0.0242011 0.107805,0.0792036 0,0.022001 -0.0066,0.0550025 -0.0176,0.0814037 l -0.187009,0.50162279 z"
       style=""
       id="path4326" />
    <path
       d="m 43.774875,-0.24421109 c -0.077,0 -0.138606,0.0616028 -0.138606,0.13640619 0,0.0770035 0.0616,0.1386063 0.136406,0.1386063 0.077,0 0.138606,-0.0616028 0.138606,-0.1386063 0,-0.0748034 -0.0616,-0.13640619 -0.136406,-0.13640619 z"
       style=""
       id="path4328" />
    <path
       d="m 44.532465,-1.6214737 -0.407018,0.024201 0,0.094604 0.107805,0 c 0.0792,0 0.0924,0.015401 0.0924,0.110005 l 0,1.12205101 0,0.088004 c 0,0.088004 -0.0242,0.1034047 -0.165008,0.1034047 l -0.0154,0 0,0.0792036 0.569826,0 0,-0.0792036 -0.0154,0 c -0.143007,0 -0.167208,-0.0154007 -0.167208,-0.1034047 l 0,-0.088004 0,-1.35086141 z"
       style=""
       id="path4330" />
    <path
       d="m 45.228691,-1.0252466 -0.413618,0.024201 0,0.0946043 0.112205,0 c 0.0814,0 0.0946,0.0154007 0.0946,0.110005 l 0,0.52582389 0,0.088004 c 0,0.088004 -0.0242,0.1034047 -0.165008,0.1034047 l -0.0154,0 0,0.0792036 0.569826,0 0,-0.0792036 -0.0154,0 c -0.143007,0 -0.167208,-0.0154007 -0.167208,-0.1034047 l 0,-0.088004 0,-0.75463431 z m -0.103404,-0.5478249 c -0.0704,0 -0.127606,0.057203 -0.127606,0.1276058 0,0.068203 0.0572,0.1276058 0.125406,0.1276058 0.0726,0 0.129805,-0.057203 0.129805,-0.1276058 0,-0.070403 -0.0572,-0.1276058 -0.127605,-0.1276058 z"
       style=""
       id="path4332" />
    <path
       d="m 45.916121,-1.6214737 -0.407019,0.024201 0,0.094604 0.107805,0 c 0.0792,0 0.0924,0.015401 0.0924,0.110005 l 0,1.12205101 0,0.088004 c 0,0.088004 -0.0242,0.1034047 -0.165007,0.1034047 l -0.0154,0 0,0.0792036 0.569826,0 0,-0.0792036 -0.0154,0 c -0.143006,0 -0.167207,-0.0154007 -0.167207,-0.1034047 l 0,-0.088004 0,-1.35086141 z"
       style=""
       id="path4334" />
    <path
       d="m 46.758998,-0.27941269 -0.242011,-0.56542569 c -0.0088,-0.0198009 -0.0132,-0.0352016 -0.0132,-0.0462021 0,-0.0396018 0.0264,-0.0550025 0.101204,-0.0550025 l 0.0462,0 0,-0.0792036 -0.523624,0 0,0.0792036 0.0242,0 c 0.0704,0 0.110005,0.0308014 0.149607,0.1188054 l 0.358616,0.81183688 -0.0374,0.0770035 c -0.0792,0.16720759 -0.182608,0.28381289 -0.253011,0.28381289 -0.0198,0 -0.0352,-0.0088 -0.0352,-0.022001 0,-0.0044 0.0022,-0.0110005 0.0044,-0.0198009 0.0066,-0.0198009 0.011,-0.0396018 0.011,-0.0572026 0,-0.0572026 -0.0484,-0.0990045 -0.112205,-0.0990045 -0.077,0 -0.132006,0.0572026 -0.132006,0.13640619 0,0.0968044 0.0858,0.1694077 0.200209,0.1694077 0.116605,0 0.21561,-0.0572026 0.303614,-0.176008 0.0682,-0.0924042 0.112205,-0.18040819 0.209009,-0.42461929 l 0.250812,-0.62042818 c 0.055,-0.1342061 0.101204,-0.1782081 0.184808,-0.1782081 l 0.0132,0 0,-0.0792036 -0.44002,0 0,0.0792036 0.0352,0 c 0.0836,0 0.118806,0.0242011 0.118806,0.0814037 0,0.022001 -0.0066,0.0506023 -0.022,0.088004 l -0.20021,0.49722259 z"
       style=""
       id="path4336" />
    <path
       d="m 47.722883,-1.0252466 -0.380618,0.024201 0,0.0946043 0.0792,0 c 0.0814,0 0.0946,0.0154007 0.0946,0.110005 l 0,0.97024408 0,0.088004 c 0,0.088004 -0.0242,0.1034047 -0.165007,0.1034047 l -0.0088,0 0,0.0792036 0.572026,0 0,-0.0792036 -0.0242,0 c -0.143006,0 -0.167207,-0.0154007 -0.167207,-0.1034047 l 0,-0.088004 0,-0.3190145 c 0.0726,0.1276058 0.156207,0.1782081 0.290413,0.1782081 0.255211,0 0.44442,-0.23541069 0.44442,-0.55002499 0,-0.30361379 -0.189209,-0.54122461 -0.43122,-0.54122461 -0.136406,0 -0.22661,0.057203 -0.303613,0.18920862 l 0,-0.15620712 z m 0.264012,0.0858039 c 0.151807,0 0.239811,0.1518069 0.239811,0.40921859 0,0.2838129 -0.0902,0.44442019 -0.246412,0.44442019 -0.156207,0 -0.259611,-0.16280739 -0.259611,-0.41581889 0,-0.27281239 0.099,-0.43781989 0.266212,-0.43781989 z"
       style=""
       id="path4338" />
    <path
       d="m 49.098428,-1.0582481 c -0.268412,0 -0.479622,0.23981092 -0.479622,0.54782491 0,0.3014137 0.21121,0.54342469 0.475222,0.54342469 0.264012,0 0.475221,-0.24201099 0.475221,-0.54562479 0,-0.30141369 -0.211209,-0.54562481 -0.470821,-0.54562481 z m 0,0.0946043 c 0.154007,0 0.239811,0.1606073 0.239811,0.45102049 0,0.2926133 -0.0858,0.45102049 -0.244211,0.45102049 -0.158408,0 -0.244212,-0.15840719 -0.244212,-0.44882039 0,-0.29921359 0.0836,-0.45322059 0.248612,-0.45322059 z"
       style=""
       id="path4340" />
    <path
       d="m 50.084071,-1.0252466 -0.380618,0.024201 0,0.0946043 0.0792,0 c 0.0814,0 0.0946,0.0154007 0.0946,0.110005 l 0,0.52582389 0,0.088004 c 0,0.088004 -0.0242,0.1034047 -0.165007,0.1034047 l -0.0088,0 0,0.0792036 0.556626,0 0,-0.0792036 -0.0088,0 c -0.143006,0 -0.167207,-0.0154007 -0.167207,-0.1034047 l 0,-0.088004 0,-0.2288104 c 0,-0.10780489 0.0154,-0.20680939 0.0396,-0.25741169 0.0462,-0.0990045 0.145207,-0.1672076 0.239811,-0.1672076 0.0572,0 0.123206,0.0330015 0.156207,0.0770035 0.033,0.0462021 0.0484,0.1144052 0.0484,0.22001 l 0,0.35641619 0,0.088004 c 0,0.088004 -0.0242,0.1034047 -0.167208,0.1034047 l -0.0088,0 0,0.0792036 0.556625,0 0,-0.0792036 -0.0088,0 c -0.140806,0 -0.165007,-0.0154007 -0.165007,-0.1034047 l 0,-0.088004 0,-0.34541569 c 0,-0.1584072 -0.0066,-0.198009 -0.0462,-0.2728124 -0.055,-0.1056048 -0.167208,-0.16940772 -0.297014,-0.16940772 -0.140806,0 -0.250811,0.066003 -0.347615,0.21120962 l 0,-0.17820812 z"
       style=""
       id="path4342" />
    <path
       d="M 51.825075,0.0154007 52.207892,0 l 0,-0.0946043 -0.0396,0 c -0.118805,0 -0.136406,-0.022001 -0.136406,-0.16060729 l 0,-1.36626211 -0.43122,0.024201 0,0.094604 0.129806,0 c 0.0792,0 0.09461,0.015401 0.09461,0.110005 l 0,0.49722262 c -0.0814,-0.11220512 -0.176008,-0.16280742 -0.303614,-0.16280742 -0.248612,0 -0.43782,0.23981092 -0.43782,0.55662531 0,0.31241419 0.182608,0.53462429 0.43782,0.53462429 0.138606,0 0.23321,-0.0594027 0.303614,-0.1914087 l 0,0.1738079 z m -0.259612,-0.95484338 c 0.0902,0 0.176008,0.066003 0.21561,0.1672076 0.0264,0.066003 0.0418,0.1584072 0.0418,0.26401199 0,0.2552116 -0.101204,0.42241919 -0.259611,0.42241919 -0.154007,0 -0.248612,-0.14520659 -0.248612,-0.38941769 0,-0.12980589 0.0132,-0.22881039 0.0418,-0.30361379 0.0374,-0.0968044 0.118806,-0.1606073 0.20901,-0.1606073 z"
       style=""
       id="path4344" />
    <path
       d="m 52.553786,-0.24421109 c -0.077,0 -0.138606,0.0616028 -0.138606,0.13640619 0,0.0770035 0.0616,0.1386063 0.136406,0.1386063 0.077,0 0.138607,-0.0616028 0.138607,-0.1386063 0,-0.0748034 -0.0616,-0.13640619 -0.136407,-0.13640619 z"
       style=""
       id="path4346" />
    <path
       d="m 53.416982,-1.0582481 c -0.268413,0 -0.479622,0.23981092 -0.479622,0.54782491 0,0.3014137 0.211209,0.54342469 0.475221,0.54342469 0.264012,0 0.475222,-0.24201099 0.475222,-0.54562479 0,-0.30141369 -0.21121,-0.54562481 -0.470821,-0.54562481 z m 0,0.0946043 c 0.154007,0 0.239811,0.1606073 0.239811,0.45102049 0,0.2926133 -0.0858,0.45102049 -0.244212,0.45102049 -0.158407,0 -0.244211,-0.15840719 -0.244211,-0.44882039 0,-0.29921359 0.0836,-0.45322059 0.248612,-0.45322059 z"
       style=""
       id="path4348" />
    <path
       d="m 54.398228,-1.0252466 -0.389418,0.024201 0,0.0946043 0.09021,0 c 0.0814,0 0.0946,0.0154007 0.0946,0.110005 l 0,0.52582389 0,0.088004 c 0,0.088004 -0.0242,0.1034047 -0.167208,0.1034047 l -0.0088,0 0,0.0792036 0.587427,0 0,-0.0792036 -0.0418,0 c -0.140807,0 -0.165008,-0.0154007 -0.165008,-0.1034047 l 0,-0.088004 0,-0.022001 c 0,-0.1650075 0.0308,-0.33221509 0.0858,-0.45762079 0.0528,-0.1232056 0.127606,-0.1914087 0.22001,-0.2024092 -0.0308,0.0352016 -0.0396,0.0572026 -0.0396,0.0990045 0,0.0704032 0.0506,0.1210055 0.121006,0.1210055 0.0792,0 0.134206,-0.0594027 0.134206,-0.1496068 0,-0.1056048 -0.0748,-0.17600802 -0.191409,-0.17600802 -0.138606,0 -0.259612,0.11220512 -0.330015,0.30581392 l 0,-0.27281242 z"
       style=""
       id="path4350" />
    <path
       d="m 55.356371,-0.1628074 c -0.121005,-0.0022 -0.127605,-0.0044 -0.154007,-0.0198009 -0.0154,-0.0088 -0.0264,-0.0330015 -0.0264,-0.0572026 0,-0.066003 0.0594,-0.0946043 0.20681,-0.0990045 0.209009,-0.0044 0.242011,-0.0088 0.314614,-0.0418019 0.132006,-0.0594027 0.206809,-0.1738079 0.206809,-0.31901449 0,-0.088004 -0.0198,-0.1430065 -0.0814,-0.2156098 0.0374,-0.0396018 0.0572,-0.0528024 0.0748,-0.0528024 0.011,0 0.0176,0.0066 0.022,0.0308014 0.0088,0.0528024 0.044,0.0814037 0.099,0.0814037 0.055,0 0.09901,-0.0462021 0.09901,-0.1056048 0,-0.0748034 -0.0594,-0.12760582 -0.145207,-0.12760582 -0.0704,0 -0.110005,0.022001 -0.211209,0.11440522 -0.0924,-0.0616028 -0.162808,-0.0836038 -0.272813,-0.0836038 -0.261811,0 -0.433419,0.14520662 -0.433419,0.36521662 0,0.12980589 0.0704,0.24201099 0.184808,0.29481339 -0.147407,0.0330015 -0.209009,0.0990045 -0.209009,0.22000999 0,0.0968044 0.044,0.154007 0.147406,0.1892086 -0.136406,0.0484022 -0.202409,0.1188054 -0.202409,0.20900949 0,0.1452066 0.169408,0.2266103 0.464221,0.2266103 0.367417,0 0.552225,-0.1166053 0.552225,-0.34761579 0,-0.110005 -0.0506,-0.198009 -0.132006,-0.2310105 -0.0572,-0.022001 -0.127605,-0.0308014 -0.279412,-0.0308014 l -0.224411,0 z m 0.129806,-0.80083638 c 0.138607,0 0.21561,0.0968044 0.21561,0.2662121 0,0.17160779 -0.0836,0.27501249 -0.22441,0.27501249 -0.136406,0 -0.22221,-0.1034047 -0.22221,-0.26841219 0,-0.1738079 0.0836,-0.2728124 0.23101,-0.2728124 z m -0.0198,0.99004498 c 0.182609,0 0.195809,0 0.228811,0.0044002 0.088,0.0088004 0.143006,0.0572026 0.143006,0.1276058 0,0.12540569 -0.143006,0.19800899 -0.389417,0.19800899 -0.184809,0 -0.290414,-0.0550025 -0.290414,-0.154007 0,-0.0726033 0.0396,-0.12100549 0.145207,-0.17600799 l 0.162807,0 z"
       style=""
       id="path4352" />
  </g>
</svg>
