<?xml version="1.0" encoding="UTF-8" standalone="no"?>
<svg
   xmlns:dc="http://purl.org/dc/elements/1.1/"
   xmlns:cc="http://creativecommons.org/ns#"
   xmlns:rdf="http://www.w3.org/1999/02/22-rdf-syntax-ns#"
   xmlns:svg="http://www.w3.org/2000/svg"
   xmlns="http://www.w3.org/2000/svg"
   xmlns:xlink="http://www.w3.org/1999/xlink"
   xmlns:sodipodi="http://sodipodi.sourceforge.net/DTD/sodipodi-0.dtd"
   xmlns:inkscape="http://www.inkscape.org/namespaces/inkscape"
   version="1.2"
   width="210.00mm"
   height="297.00mm"
   viewBox="0 0 119.5016 169.0094"
   id="svg2"
   inkscape:version="0.91 r13725"
   sodipodi:docname="rhythms.svg">
  <metadata
     id="metadata142">
    <rdf:RDF>
      <cc:Work
         rdf:about="">
        <dc:format>image/svg+xml</dc:format>
        <dc:type
           rdf:resource="http://purl.org/dc/dcmitype/StillImage" />
      </cc:Work>
    </rdf:RDF>
  </metadata>
  <defs
     id="defs140" />
  <sodipodi:namedview
     pagecolor="#ffffff"
     bordercolor="#666666"
     borderopacity="1"
     objecttolerance="10"
     gridtolerance="10"
     guidetolerance="10"
     inkscape:pageopacity="0"
     inkscape:pageshadow="2"
     inkscape:window-width="1920"
     inkscape:window-height="1046"
     id="namedview138"
     showgrid="false"
     inkscape:zoom="5.0743654"
     inkscape:cx="493.75986"
     inkscape:cy="947.36906"
     inkscape:window-x="0"
     inkscape:window-y="0"
     inkscape:window-maximized="1"
     inkscape:current-layer="svg2" />
  <!-- Page: 1/1 -->
  <text
     transform="translate(5.6906, 2.8453)"
     font-family="Century Schoolbook L"
     font-size="2.2001"
     text-anchor="start"
     fill="currentColor"
     id="text4">
    <tspan
       id="tspan6" />
  </text>
  <text
     transform="translate(59.7508, 3.8453)"
     font-family="Century Schoolbook L"
     font-weight="bold"
     font-size="3.4927"
     text-anchor="start"
     fill="currentColor"
     id="text8">
    <tspan
       id="tspan10" />
  </text>
  <line
     transform="translate(14.2264, 10.8453)"
     stroke-linejoin="round"
     stroke-linecap="round"
     stroke-width="0.1000"
     stroke="currentColor"
     x1="0.0500"
     y1="-0.0000"
     x2="99.5346"
     y2="-0.0000"
     id="line12" />
  <line
     transform="translate(14.2264, 9.8453)"
     stroke-linejoin="round"
     stroke-linecap="round"
     stroke-width="0.1000"
     stroke="currentColor"
     x1="0.0500"
     y1="-0.0000"
     x2="99.5346"
     y2="-0.0000"
     id="line14" />
  <line
     transform="translate(14.2264, 8.8453)"
     stroke-linejoin="round"
     stroke-linecap="round"
     stroke-width="0.1000"
     stroke="currentColor"
     x1="0.0500"
     y1="-0.0000"
     x2="99.5346"
     y2="-0.0000"
     id="line16" />
  <line
     transform="translate(14.2264, 7.8453)"
     stroke-linejoin="round"
     stroke-linecap="round"
     stroke-width="0.1000"
     stroke="currentColor"
     x1="0.0500"
     y1="-0.0000"
     x2="99.5346"
     y2="-0.0000"
     id="line18" />
  <line
     transform="translate(14.2264, 6.8453)"
     stroke-linejoin="round"
     stroke-linecap="round"
     stroke-width="0.1000"
     stroke="currentColor"
     x1="0.0500"
     y1="-0.0000"
     x2="99.5346"
     y2="-0.0000"
     id="line20" />
  <rect
     transform="translate(62.9906, 8.8453)"
     x="0.0000"
     y="-2.0000"
     width="0.1900"
     height="4.0000"
     ry="0.0000"
     fill="currentColor"
     id="rect22" />
  <rect
     transform="translate(33.2835, 8.8453)"
     x="0.0000"
     y="-2.0000"
     width="0.1900"
     height="4.0000"
     ry="0.0000"
     fill="currentColor"
     id="rect24" />
  <rect
     transform="translate(113.6210, 8.8453)"
     x="0.0000"
     y="-2.0000"
     width="0.1900"
     height="4.0000"
     ry="0.0000"
     fill="currentColor"
     id="rect26" />
  <rect
     transform="translate(45.4289, 8.8453)"
     x="0.0000"
     y="-2.0000"
     width="0.1900"
     height="4.0000"
     ry="0.0000"
     fill="currentColor"
     id="rect28" />
  <rect
     transform="translate(84.7793, 8.8453)"
     x="0.0000"
     y="-2.0000"
     width="0.1900"
     height="4.0000"
     ry="0.0000"
     fill="currentColor"
     id="rect30" />
  <rect
     transform="translate(87.2987, 8.8453)"
     x="-0.0650"
     y="-2.0000"
     width="0.1300"
     height="3.3122"
     ry="0.0400"
     fill="currentColor"
     id="rect32" />
  <path
     transform="translate(87.3637, 6.8853) scale(0.0040, -0.0040)"
     d="M0 0c0 -198 209 -335 209 -533c0 -71 -16 -141 -42 -207c-5 -8 -12 -12 -19 -12c-13 0 -26 11 -23 27c26 61 42 126 42 192c0 104 -95 208 -167 283h-16v250h16z"
     fill="currentColor"
     id="path34" />
  <path
     transform="translate(70.6013, 8.8453) scale(0.0040, -0.0040)"
     d="M-23 -116c0 28 11 42 40 42c33 0 78 -13 119 -31l-132 158c-7 9 -10 17 -10 25c0 34 50 66 87 99c25 22 37 52 37 83c0 24 -8 49 -25 69l-35 42c-3 3 -4 7 -4 10c0 9 9 15 17 15c4 0 8 -1 11 -5l151 -180c7 -9 10 -17 10 -25c0 -34 -50 -66 -87 -99 c-25 -22 -37 -52 -37 -83c0 -24 7 -49 24 -69l84 -99c3 -3 4 -7 4 -10c0 -9 -8 -16 -16 -16c-4 0 -9 2 -12 6c-18 21 -63 38 -97 38c-41 0 -53 -26 -53 -67c0 -35 11 -74 28 -94c5 -6 0 -13 -6 -13c-2 0 -4 0 -6 2c-45 54 -92 148 -92 202z"
     fill="currentColor"
     id="path36" />
  <path
     transform="translate(76.5776, 8.8453) scale(0.0040, -0.0040)"
     d="M365 0h-355c-6 0 -10 4 -10 10v136c0 6 4 10 10 10h355c6 0 10 -4 10 -10v-136c0 -6 -4 -10 -10 -10z"
     fill="currentColor"
     id="path38" />
  <path
     transform="translate(86.0476, 10.3453) scale(0.0040, -0.0040)"
     d="M220 138c56 0 109 -29 109 -91c0 -72 -56 -121 -103 -149c-36 -21 -76 -36 -117 -36c-56 0 -109 29 -109 91c0 72 56 121 103 149c36 21 76 36 117 36z"
     fill="currentColor"
     id="path40" />
  <path
     transform="translate(105.4193, 8.8453) scale(0.0040, -0.0040)"
     d="M365 0h-355c-6 0 -10 4 -10 10v136c0 6 4 10 10 10h355c6 0 10 -4 10 -10v-136c0 -6 -4 -10 -10 -10z"
     fill="currentColor"
     id="path42" />
  <path
     transform="translate(90.7146, 8.8453) scale(0.0040, -0.0040)"
     d="M72 -250l117 326c-34 -12 -69 -22 -105 -22c-46 0 -87 33 -87 79c0 40 33 72 73 72c25 0 48 -15 56 -39c10 -28 6 -59 35 -59c16 0 54 48 61 63c6 12 23 12 28 0l-123 -420c-8 -7 -17 -10 -27 -10s-20 3 -28 10z"
     fill="currentColor"
     id="path44" />
  <path
     transform="translate(95.0654, 10.3453) scale(0.0040, -0.0040)"
     d="M220 138c56 0 109 -29 109 -91c0 -72 -56 -121 -103 -149c-36 -21 -76 -36 -117 -36c-56 0 -109 29 -109 91c0 72 56 121 103 149c36 21 76 36 117 36z"
     fill="currentColor"
     id="path46" />
  <rect
     transform="translate(96.3166, 8.8453)"
     x="-0.0650"
     y="-2.0000"
     width="0.1300"
     height="3.3122"
     ry="0.0400"
     fill="currentColor"
     id="rect48" />
  <path
     transform="translate(96.3816, 6.8853) scale(0.0040, -0.0040)"
     d="M0 0c0 -178 203 -292 203 -470c0 -33 -9 -65 -23 -95c18 -37 29 -75 29 -117c0 -63 -16 -125 -42 -183c-5 -8 -12 -12 -19 -12c-13 0 -26 11 -23 27c26 52 42 110 42 168c0 97 -95 191 -167 257v-75h-16v500h16zM153 -517c5 15 7 31 7 47c0 96 -91 190 -160 257 c0 -118 91 -206 153 -304z"
     fill="currentColor"
     id="path50" />
  <path
     transform="translate(98.1931, 8.8453) scale(0.0040, -0.0040)"
     d="M66 -500l101 327c-34 -12 -70 -23 -106 -23c-46 0 -87 33 -87 79c0 40 32 72 72 72c25 0 49 -15 57 -39c10 -28 5 -59 34 -59c16 0 55 51 60 68l46 151c-34 -12 -68 -22 -104 -22c-46 0 -87 33 -87 79c0 40 33 72 73 72c25 0 48 -15 56 -39c10 -28 5 -59 34 -59 c15 0 50 49 57 63c6 12 23 12 28 0l-179 -670c-8 -7 -17 -10 -27 -10s-20 3 -28 10z"
     fill="currentColor"
     id="path52" />
  <path
     transform="translate(101.0685, 8.8453) scale(0.0040, -0.0040)"
     d="M72 -250l117 326c-34 -12 -69 -22 -105 -22c-46 0 -87 33 -87 79c0 40 33 72 73 72c25 0 48 -15 56 -39c10 -28 6 -59 35 -59c16 0 54 48 61 63c6 12 23 12 28 0l-123 -420c-8 -7 -17 -10 -27 -10s-20 3 -28 10z"
     fill="currentColor"
     id="path54" />
  <path
     transform="translate(35.5518, 7.8453) scale(0.0040, -0.0040)"
     d="M365 -156h-355c-6 0 -10 4 -10 10v136c0 6 4 10 10 10h355c6 0 10 -4 10 -10v-136c0 -6 -4 -10 -10 -10z"
     fill="currentColor"
     id="path56" />
  <path
     transform="translate(19.2264, 8.8453) scale(0.0040, -0.0040)"
     d="M359 27c-49 0 -75 42 -75 75c0 38 27 77 72 77c4 0 9 0 14 -1c-28 37 -72 59 -120 59c-106 0 -113 -73 -113 -186v-51v-51c0 -113 7 -187 113 -187c80 0 139 70 158 151c2 7 7 10 12 10c6 0 13 -4 13 -12c0 -94 -105 -174 -183 -174c-68 0 -137 21 -184 70 c-49 51 -66 122 -66 193s17 142 66 193c47 49 116 69 184 69c87 0 160 -64 175 -150c1 -5 1 -9 1 -13c0 -40 -30 -72 -67 -72z"
     fill="currentColor"
     id="path58" />
  <path
     transform="translate(15.0264, 9.8453) scale(0.0040, -0.0040)"
     d="M376 262c4 0 9 1 13 1c155 0 256 -128 256 -261c0 -76 -33 -154 -107 -210c-22 -17 -47 -28 -73 -36c3 -35 5 -70 5 -105c0 -19 -1 -39 -2 -58c-7 -120 -90 -228 -208 -228c-108 0 -195 88 -195 197c0 58 53 103 112 103c54 0 95 -47 95 -103c0 -52 -43 -95 -95 -95 c-11 0 -21 2 -31 6c26 -39 68 -65 117 -65c96 0 157 92 163 191c1 18 2 37 2 55c0 31 -1 61 -4 92c-29 -5 -58 -8 -89 -8c-188 0 -333 172 -333 374c0 177 131 306 248 441c-19 62 -37 125 -45 190c-6 52 -7 104 -7 156c0 115 55 224 149 292c3 2 7 3 10 3c4 0 7 0 10 -3 c71 -84 133 -245 133 -358c0 -143 -86 -255 -180 -364c21 -68 39 -138 56 -207zM461 -203c68 24 113 95 113 164c0 90 -66 179 -173 190c24 -116 46 -231 60 -354zM74 28c0 -135 129 -247 264 -247c28 0 55 2 82 6c-14 127 -37 245 -63 364c-79 -8 -124 -61 -124 -119 c0 -44 25 -91 81 -123c5 -5 7 -10 7 -15c0 -11 -10 -22 -22 -22c-3 0 -6 1 -9 2c-80 43 -117 115 -117 185c0 88 58 174 160 197c-14 58 -29 117 -46 175c-107 -121 -213 -243 -213 -403zM408 1045c-99 -48 -162 -149 -162 -259c0 -74 18 -133 36 -194 c80 97 146 198 146 324c0 55 -4 79 -20 129z"
     fill="currentColor"
     id="path60" />
  <path
     transform="translate(22.9264, 11.3453) scale(0.0040, -0.0040)"
     d="M215 112c-50 0 -69 -43 -69 -88c0 -77 57 -136 134 -136c50 0 69 43 69 88c0 77 -57 136 -134 136zM495 0c0 -43 -35 -76 -73 -97c-53 -30 -113 -41 -174 -41s-122 11 -175 41c-38 21 -73 54 -73 97s35 76 73 97c53 30 114 41 175 41s121 -11 174 -41 c38 -21 73 -54 73 -97z"
     fill="currentColor"
     id="path62" />
  <path
     transform="translate(54.7889, 8.8453) scale(0.0040, -0.0040)"
     d="M365 0h-355c-6 0 -10 4 -10 10v136c0 6 4 10 10 10h355c6 0 10 -4 10 -10v-136c0 -6 -4 -10 -10 -10z"
     fill="currentColor"
     id="path64" />
  <path
     transform="translate(64.2589, 10.3453) scale(0.0040, -0.0040)"
     d="M220 138c56 0 109 -29 109 -91c0 -72 -56 -121 -103 -149c-36 -21 -76 -36 -117 -36c-56 0 -109 29 -109 91c0 72 56 121 103 149c36 21 76 36 117 36z"
     fill="currentColor"
     id="path66" />
  <rect
     transform="translate(65.5100, 8.8453)"
     x="-0.0650"
     y="-2.0000"
     width="0.1300"
     height="3.3122"
     ry="0.0400"
     fill="currentColor"
     id="rect68" />
  <g
     id="g4290">
    <path
       id="path70"
       fill="currentColor"
       d="M315 65c0 24 -21 41 -42 41c-4 0 -8 0 -12 -1c-31 -9 -77 -40 -114 -64s-84 -53 -104 -78c-7 -8 -11 -18 -11 -28c0 -24 21 -41 42 -41c4 0 8 0 12 1c31 9 78 40 115 64s84 53 104 78c7 8 10 18 10 28zM264 137c47 0 83 -21 83 -72c0 -19 -4 -37 -10 -56 c-12 -38 -32 -74 -65 -96c-54 -36 -113 -51 -188 -51c-47 0 -84 22 -84 73c0 19 5 37 11 56c12 38 31 74 64 96c54 36 114 50 189 50z"
       transform="translate(46.6972, 11.3453) scale(0.0040, -0.0040)" />
    <rect
       id="rect72"
       fill="currentColor"
       ry="0.0400"
       height="3.2386"
       width="0.1300"
       y="-1.0000"
       x="-0.0650"
       transform="translate(48.0222, 8.8453)" />
  </g>
  <line
     transform="translate(5.6906, 22.8453)"
     stroke-linejoin="round"
     stroke-linecap="round"
     stroke-width="0.1000"
     stroke="currentColor"
     x1="0.0500"
     y1="-0.0000"
     x2="108.0705"
     y2="-0.0000"
     id="line74" />
  <line
     transform="translate(5.6906, 21.8453)"
     stroke-linejoin="round"
     stroke-linecap="round"
     stroke-width="0.1000"
     stroke="currentColor"
     x1="0.0500"
     y1="-0.0000"
     x2="108.0705"
     y2="-0.0000"
     id="line76" />
  <line
     transform="translate(5.6906, 20.8453)"
     stroke-linejoin="round"
     stroke-linecap="round"
     stroke-width="0.1000"
     stroke="currentColor"
     x1="0.0500"
     y1="-0.0000"
     x2="108.0705"
     y2="-0.0000"
     id="line78" />
  <line
     transform="translate(5.6906, 19.8453)"
     stroke-linejoin="round"
     stroke-linecap="round"
     stroke-width="0.1000"
     stroke="currentColor"
     x1="0.0500"
     y1="-0.0000"
     x2="108.0705"
     y2="-0.0000"
     id="line80" />
  <line
     transform="translate(5.6906, 18.8453)"
     stroke-linejoin="round"
     stroke-linecap="round"
     stroke-width="0.1000"
     stroke="currentColor"
     x1="0.0500"
     y1="-0.0000"
     x2="108.0705"
     y2="-0.0000"
     id="line82" />
  <rect
     transform="translate(113.6210, 20.8453)"
     x="0.0000"
     y="-2.0000"
     width="0.1900"
     height="4.0000"
     ry="0.0000"
     fill="currentColor"
     id="rect84" />
  <rect
     transform="translate(36.8803, 20.8453)"
     x="0.0000"
     y="-2.0000"
     width="0.1900"
     height="4.0000"
     ry="0.0000"
     fill="currentColor"
     id="rect86" />
  <rect
     transform="translate(70.6551, 20.8453)"
     x="0.0000"
     y="-2.0000"
     width="0.1900"
     height="4.0000"
     ry="0.0000"
     fill="currentColor"
     id="rect88" />
  <rect
     transform="translate(86.1701, 20.8453)"
     x="-0.0650"
     y="-1.3122"
     width="0.1300"
     height="3.3122"
     ry="0.0400"
     fill="currentColor"
     id="rect90" />
  <path
     transform="translate(86.1051, 19.3453) scale(0.0040, -0.0040)"
     d="M220 138c56 0 109 -29 109 -91c0 -72 -56 -121 -103 -149c-36 -21 -76 -36 -117 -36c-56 0 -109 29 -109 91c0 72 56 121 103 149c36 21 76 36 117 36z"
     fill="currentColor"
     id="path92" />
  <path
     transform="translate(79.4802, 20.8453) scale(0.0040, -0.0040)"
     d="M72 -250l117 326c-34 -12 -69 -22 -105 -22c-46 0 -87 33 -87 79c0 40 33 72 73 72c25 0 48 -15 56 -39c10 -28 6 -59 35 -59c16 0 54 48 61 63c6 12 23 12 28 0l-123 -420c-8 -7 -17 -10 -27 -10s-20 3 -28 10z"
     fill="currentColor"
     id="path94" />
  <path
     transform="translate(72.6690, 22.8053) scale(0.0040, -0.0040)"
     d="M0 0h-16v250h16c98 58 227 148 227 259c0 57 -16 112 -41 163c-3 16 10 27 23 27c7 0 15 -3 20 -11c25 -56 40 -117 40 -179c0 -204 -269 -305 -269 -509z"
     fill="currentColor"
     id="path96" />
  <rect
     transform="translate(72.6040, 20.8453)"
     x="-0.0650"
     y="-1.3122"
     width="0.1300"
     height="3.3122"
     ry="0.0400"
     fill="currentColor"
     id="rect98" />
  <path
     transform="translate(72.5390, 19.3453) scale(0.0040, -0.0040)"
     d="M220 138c56 0 109 -29 109 -91c0 -72 -56 -121 -103 -149c-36 -21 -76 -36 -117 -36c-56 0 -109 29 -109 91c0 72 56 121 103 149c36 21 76 36 117 36z"
     fill="currentColor"
     id="path100" />
  <path
     transform="translate(100.8711, 20.8453) scale(0.0040, -0.0040)"
     d="M365 0h-355c-6 0 -10 4 -10 10v136c0 6 4 10 10 10h355c6 0 10 -4 10 -10v-136c0 -6 -4 -10 -10 -10z"
     fill="currentColor"
     id="path102" />
  <path
     transform="translate(94.2462, 20.8453) scale(0.0040, -0.0040)"
     d="M72 -250l117 326c-34 -12 -69 -22 -105 -22c-46 0 -87 33 -87 79c0 40 33 72 73 72c25 0 48 -15 56 -39c10 -28 6 -59 35 -59c16 0 54 48 61 63c6 12 23 12 28 0l-123 -420c-8 -7 -17 -10 -27 -10s-20 3 -28 10z"
     fill="currentColor"
     id="path104" />
  <path
     transform="translate(90.2337, 20.8453) scale(0.0040, -0.0040)"
     d="M66 -500l101 327c-34 -12 -70 -23 -106 -23c-46 0 -87 33 -87 79c0 40 32 72 72 72c25 0 49 -15 57 -39c10 -28 5 -59 34 -59c16 0 55 51 60 68l46 151c-34 -12 -68 -22 -104 -22c-46 0 -87 33 -87 79c0 40 33 72 73 72c25 0 48 -15 56 -39c10 -28 5 -59 34 -59 c15 0 50 49 57 63c6 12 23 12 28 0l-179 -670c-8 -7 -17 -10 -27 -10s-20 3 -28 10z"
     fill="currentColor"
     id="path106" />
  <path
     transform="translate(86.2351, 22.8053) scale(0.0040, -0.0040)"
     d="M0 205c92 51 214 131 214 233c0 24 -5 48 -14 70c-80 -89 -200 -160 -200 -283v-20zM269 663c0 -44 -15 -82 -38 -116c16 -34 25 -71 25 -109c0 -181 -256 -257 -256 -438h-16v500h16v-70c98 49 227 127 227 233c0 21 -6 42 -14 62c-3 16 10 27 23 27c30 0 33 -63 33 -89 z"
     fill="currentColor"
     id="path108" />
  <path
     transform="translate(38.7642, 19.3453) scale(0.0040, -0.0040)"
     d="M220 138c56 0 109 -29 109 -91c0 -72 -56 -121 -103 -149c-36 -21 -76 -36 -117 -36c-56 0 -109 29 -109 91c0 72 56 121 103 149c36 21 76 36 117 36z"
     fill="currentColor"
     id="path110" />
  <path
     transform="translate(24.1304, 20.8453) scale(0.0040, -0.0040)"
     d="M365 0h-355c-6 0 -10 4 -10 10v136c0 6 4 10 10 10h355c6 0 10 -4 10 -10v-136c0 -6 -4 -10 -10 -10z"
     fill="currentColor"
     id="path112" />
  <rect
     transform="translate(11.5556, 20.8453)"
     x="-0.0650"
     y="-1.2386"
     width="0.1300"
     height="3.2386"
     ry="0.0400"
     fill="currentColor"
     id="rect114" />
  <path
     transform="translate(11.4906, 19.3453) scale(0.0040, -0.0040)"
     d="M315 65c0 24 -21 41 -42 41c-4 0 -8 0 -12 -1c-31 -9 -77 -40 -114 -64s-84 -53 -104 -78c-7 -8 -11 -18 -11 -28c0 -24 21 -41 42 -41c4 0 8 0 12 1c31 9 78 40 115 64s84 53 104 78c7 8 10 18 10 28zM264 137c47 0 83 -21 83 -72c0 -19 -4 -37 -10 -56 c-12 -38 -32 -74 -65 -96c-54 -36 -113 -51 -188 -51c-47 0 -84 22 -84 73c0 19 5 37 11 56c12 38 31 74 64 96c54 36 114 50 189 50z"
     fill="currentColor"
     id="path116" />
  <path
     transform="translate(6.4906, 21.8453) scale(0.0040, -0.0040)"
     d="M376 262c4 0 9 1 13 1c155 0 256 -128 256 -261c0 -76 -33 -154 -107 -210c-22 -17 -47 -28 -73 -36c3 -35 5 -70 5 -105c0 -19 -1 -39 -2 -58c-7 -120 -90 -228 -208 -228c-108 0 -195 88 -195 197c0 58 53 103 112 103c54 0 95 -47 95 -103c0 -52 -43 -95 -95 -95 c-11 0 -21 2 -31 6c26 -39 68 -65 117 -65c96 0 157 92 163 191c1 18 2 37 2 55c0 31 -1 61 -4 92c-29 -5 -58 -8 -89 -8c-188 0 -333 172 -333 374c0 177 131 306 248 441c-19 62 -37 125 -45 190c-6 52 -7 104 -7 156c0 115 55 224 149 292c3 2 7 3 10 3c4 0 7 0 10 -3 c71 -84 133 -245 133 -358c0 -143 -86 -255 -180 -364c21 -68 39 -138 56 -207zM461 -203c68 24 113 95 113 164c0 90 -66 179 -173 190c24 -116 46 -231 60 -354zM74 28c0 -135 129 -247 264 -247c28 0 55 2 82 6c-14 127 -37 245 -63 364c-79 -8 -124 -61 -124 -119 c0 -44 25 -91 81 -123c5 -5 7 -10 7 -15c0 -11 -10 -22 -22 -22c-3 0 -6 1 -9 2c-80 43 -117 115 -117 185c0 88 58 174 160 197c-14 58 -29 117 -46 175c-107 -121 -213 -243 -213 -403zM408 1045c-99 -48 -162 -149 -162 -259c0 -74 18 -133 36 -194 c80 97 146 198 146 324c0 55 -4 79 -20 129z"
     fill="currentColor"
     id="path118" />
  <text
     transform="translate(4.7345, 17.7611)"
     font-family="Century Schoolbook L"
     font-size="1.7461"
     text-anchor="start"
     fill="currentColor"
     id="text120">
    <tspan
       id="tspan122">
6</tspan>
  </text>
  <path
     transform="translate(57.9052, 20.8453) scale(0.0040, -0.0040)"
     d="M365 0h-355c-6 0 -10 4 -10 10v136c0 6 4 10 10 10h355c6 0 10 -4 10 -10v-136c0 -6 -4 -10 -10 -10z"
     fill="currentColor"
     id="path124" />
  <path
     transform="translate(48.5178, 20.8453) scale(0.0040, -0.0040)"
     d="M-23 -116c0 28 11 42 40 42c33 0 78 -13 119 -31l-132 158c-7 9 -10 17 -10 25c0 34 50 66 87 99c25 22 37 52 37 83c0 24 -8 49 -25 69l-35 42c-3 3 -4 7 -4 10c0 9 9 15 17 15c4 0 8 -1 11 -5l151 -180c7 -9 10 -17 10 -25c0 -34 -50 -66 -87 -99 c-25 -22 -37 -52 -37 -83c0 -24 7 -49 24 -69l84 -99c3 -3 4 -7 4 -10c0 -9 -8 -16 -16 -16c-4 0 -9 2 -12 6c-18 21 -63 38 -97 38c-41 0 -53 -26 -53 -67c0 -35 11 -74 28 -94c5 -6 0 -13 -6 -13c-2 0 -4 0 -6 2c-45 54 -92 148 -92 202z"
     fill="currentColor"
     id="path126" />
  <rect
     transform="translate(38.8292, 20.8453)"
     x="-0.0650"
     y="-1.3122"
     width="0.1300"
     height="3.3122"
     ry="0.0400"
     fill="currentColor"
     id="rect128" />
  <a
     transform="translate(31.4631, 165.1512)"
     xlink:href="http://lilypond.org/"
     id="a130">
    <rect
       x="0.0000"
       y="-0.4439"
       width="56.5755"
       height="2.0827"
       fill="none"
       stroke="none"
       stroke-width="0.0"
       id="rect132" />
  </a>
  <text
     transform="translate(31.4631, 165.1512)"
     font-family="Century Schoolbook L"
     font-size="2.2001"
     text-anchor="start"
     fill="currentColor"
     id="text134">
    <tspan
       id="tspan136">
Music engraving by LilyPond 2.18.0—www.lilypond.org</tspan>
  </text>
</svg>
