<?xml version="1.0" encoding="UTF-8" standalone="no"?>
<!-- Created with Inkscape (http://www.inkscape.org/) -->

<svg
   xmlns:dc="http://purl.org/dc/elements/1.1/"
   xmlns:cc="http://creativecommons.org/ns#"
   xmlns:rdf="http://www.w3.org/1999/02/22-rdf-syntax-ns#"
   xmlns:svg="http://www.w3.org/2000/svg"
   xmlns="http://www.w3.org/2000/svg"
   xmlns:sodipodi="http://sodipodi.sourceforge.net/DTD/sodipodi-0.dtd"
   xmlns:inkscape="http://www.inkscape.org/namespaces/inkscape"
   version="1.1"
   width="1000"
   height="1000"
   id="svg2"
   inkscape:version="0.91 r13725"
   sodipodi:docname="sixteen_D.svg"
   inkscape:export-filename="/home/tom/DEVELOP/QT4/nootka/unused-picts/proto/note.png"
   inkscape:export-xdpi="300.09186"
   inkscape:export-ydpi="300.09186">
  <sodipodi:namedview
     pagecolor="#ffffff"
     bordercolor="#666666"
     borderopacity="1"
     objecttolerance="10"
     gridtolerance="10"
     guidetolerance="10"
     inkscape:pageopacity="0"
     inkscape:pageshadow="2"
     inkscape:window-width="1920"
     inkscape:window-height="1046"
     id="namedview8"
     showgrid="false"
     inkscape:zoom="0.5"
     inkscape:cx="914.37032"
     inkscape:cy="744.2214"
     inkscape:window-x="0"
     inkscape:window-y="0"
     inkscape:window-maximized="1"
     inkscape:current-layer="g4163"
     showguides="true"
     inkscape:guide-bbox="true">
    <sodipodi:guide
       orientation="1,0"
       position="348.68479,854.64867"
       id="guide5187" />
    <sodipodi:guide
       position="-298.15625,199.99609"
       orientation="0,1"
       id="guide4152" />
    <sodipodi:guide
       position="-294.64844,75"
       orientation="0,1"
       id="guide4154" />
    <sodipodi:guide
       position="-283.97656,325"
       orientation="0,1"
       id="guide4156" />
  </sodipodi:namedview>
  <defs
     id="defs4" />
  <metadata
     id="metadata7">
    <rdf:RDF>
      <cc:Work
         rdf:about="">
        <dc:format>image/svg+xml</dc:format>
        <dc:type
           rdf:resource="http://purl.org/dc/dcmitype/StillImage" />
        <dc:title></dc:title>
      </cc:Work>
    </rdf:RDF>
  </metadata>
  <g
     id="g4163"
     transform="matrix(0.91800511,0,0,0.91800511,-1.2160381,65.749885)">
    <g
       id="g4232"
       transform="matrix(36.256469,0,0,36.256469,-45238.45,-13783.519)">
      <rect
         id="rect90"
         ry="0.27131215"
         height="22.466005"
         width="0.88176453"
         y="383.51715"
         x="1247.7711"
         style="fill:currentColor" />
      <path
         id="path92"
         d="m 1253.74,378.49922 c 1.5194,0 2.9574,0.7868 2.9574,2.46894 0,1.95345 -1.5194,3.28288 -2.7946,4.04255 -0.9767,0.56976 -2.0619,0.97673 -3.1743,0.97673 -1.5194,0 -2.9573,-0.78681 -2.9573,-2.46895 0,-1.95344 1.5193,-3.28287 2.7945,-4.04255 0.9767,-0.56975 2.062,-0.97672 3.1743,-0.97672 z"
         style="fill:currentColor"
         inkscape:connector-curvature="0" />
      <path
         id="path108"
         d="m 1248.6529,400.14992 c 2.4961,-1.38369 5.8061,-3.55419 5.8061,-6.32157 0,-0.65115 -0.1356,-1.3023 -0.3798,-1.89919 -2.1705,2.41468 -5.4263,4.341 -5.4263,7.67814 l 0,0.54262 z m 7.2983,-12.4261 c 0,1.19378 -0.4069,2.22476 -1.0309,3.14723 0.4341,0.92246 0.6782,1.92631 0.6782,2.9573 0,4.91075 -6.9456,6.97272 -6.9456,11.88347 l -0.4341,0 0,-13.56561 0.4341,0 0,1.89919 c 2.6589,-1.32943 6.1588,-3.44567 6.1588,-6.32158 0,-0.56975 -0.1628,-1.13951 -0.3798,-1.68213 -0.081,-0.4341 0.2713,-0.73254 0.624,-0.73254 0.8139,0 0.8953,1.70926 0.8953,2.41467 z"
         style="fill:currentColor"
         inkscape:connector-curvature="0" />
    </g>
  </g>
</svg>
