<?xml version="1.0" encoding="UTF-8" standalone="no"?>
<!-- Created with Inkscape (http://www.inkscape.org/) -->

<svg
   xmlns:dc="http://purl.org/dc/elements/1.1/"
   xmlns:cc="http://creativecommons.org/ns#"
   xmlns:rdf="http://www.w3.org/1999/02/22-rdf-syntax-ns#"
   xmlns:svg="http://www.w3.org/2000/svg"
   xmlns="http://www.w3.org/2000/svg"
   xmlns:sodipodi="http://sodipodi.sourceforge.net/DTD/sodipodi-0.dtd"
   xmlns:inkscape="http://www.inkscape.org/namespaces/inkscape"
   width="72.217239mm"
   height="58.915062mm"
   viewBox="0 0 72.21724 58.915062"
   version="1.1"
   id="svg1953"
   inkscape:version="0.92.1 r"
   sodipodi:docname="bandoneon-right-bg.svg"
   inkscape:export-filename="../../bandoneon-right.png"
   inkscape:export-xdpi="360.15778"
   inkscape:export-ydpi="360.15778">
  <defs
     id="defs1947" />
  <sodipodi:namedview
     id="base"
     pagecolor="#ffffff"
     bordercolor="#666666"
     borderopacity="1.0"
     inkscape:pageopacity="0.0"
     inkscape:pageshadow="2"
     inkscape:zoom="3.959798"
     inkscape:cx="80.933428"
     inkscape:cy="100.20012"
     inkscape:document-units="mm"
     inkscape:current-layer="layer1"
     showgrid="false"
     inkscape:window-width="1920"
     inkscape:window-height="1039"
     inkscape:window-x="0"
     inkscape:window-y="0"
     inkscape:window-maximized="1"
     fit-margin-top="0"
     fit-margin-left="0"
     fit-margin-right="0"
     fit-margin-bottom="0" />
  <metadata
     id="metadata1950">
    <rdf:RDF>
      <cc:Work
         rdf:about="">
        <dc:format>image/svg+xml</dc:format>
        <dc:type
           rdf:resource="http://purl.org/dc/dcmitype/StillImage" />
        <dc:title></dc:title>
      </cc:Work>
    </rdf:RDF>
  </metadata>
  <g
     inkscape:label="Layer 1"
     inkscape:groupmode="layer"
     id="layer1"
     transform="translate(-233.33284,-30.438749)">
    <g
       id="g2546"
       transform="matrix(-0.4661788,0.98568236,-1,-0.03071277,457.48141,-215.75081)">
      <path
         d="m 298.23716,13.1008 5.40116,1.488157 5.58067,9.462911 v 1.941124 l 0.97056,0.970562 -1.45584,40.036041 -5.58067,11.404036 -0.063,1.455844 c 0,0 -0.90757,0.727934 -1.39285,1.941123 0,0 -2.58063,0.723779 -3.39696,1.4e-4 -0.0473,-3.560513 -3.25317,-0.664913 -3.25317,-0.664913 l -3.29805,4.547163 -4.36767,-0.242644 -8.97777,4.852813 2.4264,0.727906 -0.7279,2.183778 -1.21322,0.727937 -1.45584,0.242639 h -1.45585 l -1.45584,-1.455843 -4.6101,3.88225 -13.10273,1.213217 -3.89904,-2.799246 -1.0922,-58.614731 c 0,0 33.15047,-17.011046 46.41991,-23.300264 z"
         inkscape:connector-curvature="0"
         style="fill:#000000;fill-rule:evenodd;stroke:#000000;stroke-width:0.36406666px"
         sodipodi:nodetypes="ccccccccccccccccccccccccc"
         id="path2494"
         inkscape:export-filename="../../bandoneon-right.png"
         inkscape:export-xdpi="346"
         inkscape:export-ydpi="346" />
      <path
         d="m 300.05608,13.6469 -46.60053,23.482297 1.0922,58.978798 -1.6383,-1.0922 -1.0922,-58.614731 46.41991,-23.300264"
         inkscape:connector-curvature="0"
         style="fill:#cccccc;fill-rule:evenodd;stroke:#000000;stroke-width:0.36406666px"
         id="path2504" />
      <path
         d="m 268.74635,96.654095 -6.0071,-3.640667 -0.36407,-43.871441 6.37117,-12.5603 34.76977,-18.021299 0.18204,-3.8227 5.27896,9.2837 -4.73286,-4.186767 -34.58634,17.839266 -6.0071,11.832167 0.5461,42.415174 6.0071,4.3688"
         inkscape:connector-curvature="0"
         style="fill:#cccccc;fill-rule:evenodd;stroke:#000000;stroke-width:0.36406666px"
         id="path2506" />
      <path
         d="m 307.15679,24.568899 -16.383,10.739966 -1.0922,50.060573 h 2.1844 l 0.5461,-49.148994 15.2908,-10.375901 2.36643,2.912533 0.5461,-1.820333 -3.45863,-2.366433 z"
         inkscape:connector-curvature="0"
         style="fill:#cccccc;fill-rule:evenodd;stroke:#000000;stroke-width:0.36406666px"
         id="path2508" />
      <path
         inkscape:original-d="m 510.64622,427.94948 c -0.23768,-1.17609 -0.37137,-1.31418 -1.35528,-1.39997 -0.89084,-0.0777 -1.16912,0.0984 -1.5132,0.95749 -0.38719,0.96677 -0.49955,1.00175 -1.37693,0.429 -0.52542,-0.34301 -1.08917,-1.04 -1.25276,-1.54885 -0.1636,-0.50887 -0.18302,-0.73023 -0.0431,-0.49192 1.27349,0.003 -0.38501,-1.4708 0.0993,-2.04202 0.37206,-0.1647 -1.90788,-1.7363 -1.4099,-3.53113 0.41239,-0.6317 0.32837,-0.83723 -0.53648,-1.31229 -0.56399,-0.30979 -1.10075,-0.44791 -1.1928,-0.30692 -0.092,0.14099 -0.58898,-0.0189 -1.10433,-0.35533 -0.51535,-0.33643 -1.24996,-0.51497 -1.6325,-0.39675 -0.77241,0.23869 -1.64249,-0.62548 -0.95478,-0.94829 0.26404,-0.12395 0.21264,-0.20941 -0.13103,-0.21794 -1.05402,-0.0261 -3.69882,2.05808 -4.85071,3.82255 l -1.13515,1.73887 -0.34378,-1.63661 c -0.33522,-1.59598 -0.36971,-1.63253 -1.38787,-1.47112 -0.68551,0.10867 -1.14202,0.44913 -1.32925,0.99139 -0.16902,0.48957 -0.58985,0.86091 -1.03336,0.91185 -0.97129,0.11157 -1.66349,1.18565 -1.18795,1.84333 0.26714,0.36947 0.13435,0.76894 -0.47175,1.41892 -1.11873,1.19979 -1.06372,2.03078 0.17554,2.65204 0.87802,0.44015 1.10018,0.37123 1.68146,-0.52169 1.30421,-2.00352 0.88251,-0.48889 -0.64259,2.30798 -2.07668,3.80844 -2.2565,4.45331 -1.38639,4.9724 0.60983,0.36382 1.62888,1.64531 3.53843,4.44971 0.30363,0.44591 0.62616,0.44832 1.22954,0.009 0.7308,-0.53187 2.20047,-0.40181 5.2039,0.46048 0.26888,0.0772 0.68318,-0.1573 0.92068,-0.5211 0.34678,-0.53121 0.64335,-0.52335 1.50609,0.0399 1.0354,0.67595 1.04264,0.73929 0.19977,1.75107 -0.98502,1.18241 -0.61866,2.25419 0.74928,2.19201 0.42486,-0.0193 1.19524,0.0376 1.71192,0.1264 1.76258,0.30301 2.0745,-2.0378 0.56581,-4.24602 l -3.27644,-2.03406 1.00515,-0.41513 2.56246,2.26311 c 1.13889,0.87878 2.35354,0.43289 2.37981,-0.8736 0.0153,-0.76065 0.16847,-0.90327 0.99912,-0.9304 0.83186,-0.0272 0.99382,-0.17843 1.06498,-0.99455 0.0702,-0.80485 -0.12046,-1.0472 -1.16387,-1.47965 -0.77352,-0.32059 -1.16331,-0.64651 -1.02556,-0.85752 0.12221,-0.18721 0.66637,-0.0504 1.20927,0.30401 0.61347,0.40048 1.19608,0.49327 1.53923,0.24514 0.81385,-0.58846 0.6731,-1.83487 -0.26242,-2.32394 -0.63707,-0.33302 -0.39176,-0.41297 1.11576,-0.36362 2.24355,0.0734 2.94727,-0.66452 2.5427,-2.6664 z m -4.05742,1.57862 c -0.92495,-0.22922 -1.31324,-0.11734 -1.58056,0.45543 -0.34225,0.73326 0.14462,1.27744 1.5248,1.70425 0.29221,0.0904 0.47886,0.39128 0.4148,0.66873 -0.0813,0.35224 -0.52419,0.23828 -1.4677,-0.37767 -1.28197,-0.83689 -1.37591,-0.83276 -1.83276,0.0806 -0.44455,0.88877 -0.37306,1.03038 0.93074,1.8436 0.88269,0.55055 1.28104,0.98474 1.06224,1.15783 -0.19253,0.15234 -0.92372,-0.0975 -1.62486,-0.55525 -1.14272,-0.746 -1.32986,-0.74788 -1.80622,-0.0182 -0.46307,0.70934 -0.38846,0.90738 0.58017,1.53972 1.7168,1.12076 1.14309,1.7812 -0.68283,0.7861 -0.85689,-0.467 -1.48554,-0.96003 -1.397,-1.09564 0.0885,-0.13562 -1.73327,-1.48316 -4.04844,-2.99454 -4.18792,-2.73398 -4.21588,-2.74581 -5.47804,-2.31922 -2.1991,0.74324 -2.45691,3.64054 -0.44105,4.95653 0.7562,0.49368 3.23425,0.56656 4.54087,0.13358 0.49876,-0.16528 2.80783,0.83153 4.62123,1.99495 1.36544,0.87603 1.78496,1.37033 2.03428,2.39688 0.35924,1.47921 0.18303,1.97455 -0.53559,1.50541 -0.27427,-0.17904 -0.72648,-0.16078 -1.00493,0.0405 -0.27847,0.20133 -0.7104,0.23282 -0.95987,0.07 -0.5183,-0.33837 0.13841,-1.56594 0.82859,-1.54883 1.1276,0.028 1.04018,-0.94614 -0.15436,-1.71978 -1.7782,-1.15165 -2.89718,-1.43075 -3.2947,-0.82182 -0.23713,0.36325 -1.18691,0.33505 -2.96115,-0.0879 -2.05071,-0.48885 -2.70489,-0.48044 -3.04407,0.0391 -0.31638,0.48464 -0.48451,0.50417 -0.62815,0.073 -0.10786,-0.32382 -0.66155,-1.15625 -1.2304,-1.84986 -0.56885,-0.6936 -1.12416,-1.44353 -1.234,-1.66651 -0.10986,-0.22298 -0.41412,-0.55091 -0.67614,-0.72872 -0.56873,-0.38591 0.20004,-2.3546 2.04752,-5.24344 1.30435,-2.03955 1.31024,-2.56113 0.0384,-3.39139 -0.36827,-0.24042 -0.59702,-0.0205 -1.00675,0.96812 -0.47705,1.151 -0.60292,1.23177 -1.25563,0.80567 -0.73826,-0.48196 -0.42377,-1.07731 1.11609,-2.1128 0.39543,-0.26591 0.39901,-0.56679 0.0118,-0.99368 -0.70934,-0.78207 -0.28097,-1.46246 0.71183,-1.13061 0.8592,0.2872 1.33206,-0.19895 1.12986,-1.16163 -0.10277,-0.48918 0.0154,-0.67757 0.48735,-0.7767 0.8681,-0.18235 1.23257,1.09545 0.50156,1.75846 -0.79639,0.72232 -0.27067,1.47794 0.89925,1.29249 0.76875,-0.12186 1.28642,-0.59269 2.2141,-2.01369 1.66777,-2.55472 3.12907,-3.64719 3.79249,-2.83531 0.28733,0.35163 0.87628,0.57045 1.36071,0.50555 0.46975,-0.0629 1.57602,0.1402 2.45835,0.45141 1.45573,0.51346 1.56739,0.62232 1.20604,1.17585 -0.40443,0.6195 0.82969,3.28802 1.81941,3.93414 0.31839,0.20785 0.30212,0.56318 -0.0452,0.98676 -0.6811,0.83067 0.0647,2.26039 1.76213,3.37796 1.35778,0.89396 2.30868,0.58699 2.16112,-0.69767 -0.0627,-0.54567 0.0785,-0.80296 0.4879,-0.88897 0.77049,-0.16183 1.09786,0.62647 0.58585,1.41075 -0.22692,0.34762 -0.23346,0.74896 -0.0145,0.89189 0.56567,0.36928 -1.46474,0.38628 -2.92466,0.0245 z m -1.62788,-0.89028 c -0.0333,-0.15849 -0.4376,-0.53752 -0.89846,-0.8423 -0.46085,-0.30476 -0.95908,-0.81966 -1.10717,-1.1442 -0.34798,-0.76263 -1.77613,-2.63398 -1.68482,-1.91631 0.15211,1.19548 -0.1004,2.04168 0.1357,2.04754 0.62583,0.0155 2.8327,2.1062 2.5998,2.46293 -0.11143,0.1707 -1.56593,-0.62989 -3.32947,-1.83257 -3.64346,-2.48475 -4.30467,-3.48061 -3.28562,-4.94868 1.2458,-1.79473 3.44784,-0.81266 3.66652,1.63518 0.14177,1.58701 0.64183,1.53003 0.78299,-0.0892 0.12299,-1.41084 -0.59114,-2.31552 -2.25671,-2.85884 -1.52295,-0.4968 -2.18777,-0.27572 -3.02433,1.00573 -1.03075,1.57891 -0.58217,2.41989 2.53839,4.75882 l 4.32303,3.08821 -0.14076,0.0703 -0.0258,0.18732 -4.54973,-3.2457 c -2.06598,-1.30179 -3.54917,-2.03276 -3.95267,-1.94801 -0.84312,0.17709 -1.45657,1.13707 -1.07644,1.68447 0.23712,0.34145 0.17249,0.43547 -0.31144,0.453 -0.84254,0.0305 -0.99379,1.09168 -0.30949,2.17133 0.31938,0.5039 2.21011,1.97009 4.29937,3.33401 l 3.72928,2.43454 0.63771,-0.97685 c 0.46316,-0.70948 0.75608,-1.04996 0.34691,-1.32735 -0.51864,-0.35158 -0.68723,0.0143 0.003,0.0489 0.5602,0.0281 0.95049,-0.83954 1.80562,-2.17553 0.62966,-0.98371 1.1176,-1.91825 1.08431,-2.07675 z m -6.57161,0.43878 c -3.10942,-1.94788 -3.78875,-2.49632 -3.54832,-2.86462 0.38608,-0.59139 1.12464,-0.0137 5.02552,2.4819 3.11707,1.99349 3.01797,2.2756 2.74774,2.49037 -0.2574,0.20458 -1.61491,-0.47262 -4.22494,-2.10765 z m -1.09484,2.66672 c -3.15247,-2.058 -4.60349,-3.64629 -3.17442,-3.13288 0.29146,0.10472 0.38682,0.0673 0.86532,0.38529 3.08883,2.05297 6.54315,4.04474 6.19053,4.5849 -0.264,0.40439 -0.93177,0.0883 -3.88143,-1.83731 z m 1.62815,-0.93544 c -0.79964,-0.4379 -4.29892,-2.77679 -4.30203,-2.94283 -0.008,-0.43639 -0.52556,-0.77398 0.0927,-0.44385 1.2762,0.6815 4.30411,2.79816 5.03381,3.19079 0.82167,0.4421 1.6224,0.75993 1.95085,1.03941 0.48496,0.4127 0.84766,1.09382 -0.0437,0.70189 -0.48418,-0.21289 -1.82629,-0.9444 -2.73157,-1.54541 z m 4.03172,4.63033 c -0.2792,-0.18226 -0.32142,-0.41881 -0.0938,-0.52564 0.2276,-0.10683 0.5517,-0.10423 0.72021,0.006 0.16853,0.11001 0.21075,0.34654 0.0938,0.52563 -0.11692,0.17909 -0.44102,0.17649 -0.72022,-0.006 z m -6.12799,-0.56948 c -0.74126,-0.69415 -1.0276,-0.73142 -1.80989,-0.23558 -0.83698,0.53048 -1.38125,0.51104 -2.02671,-0.0724 -0.12047,-0.10889 -0.30198,0.009 -0.40336,0.26218 -0.11904,0.29723 -0.5834,0.19963 -1.31148,-0.27567 -0.89934,-0.58712 -1.10775,-0.98679 -1.03111,-1.97732 0.0925,-1.19563 0.15136,-1.24912 1.59328,-1.44865 1.43413,-0.19846 1.61641,-0.11812 4.32739,1.9075 1.5566,1.16307 3.04334,2.26836 3.30383,2.4562 0.29096,0.2098 -0.15645,0.84527 -1.06842,0.3641 -0.5746,-0.30316 -1.06249,-0.50181 -1.57353,-0.98036 z"
         inkscape:connector-curvature="0"
         sodipodi:nodetypes="csssscccsssssscccsssssssssssssssssccccsssssssssccsssssssssssssssssssssssssssssssssssssssssssssssssssssccssssssssssscccccsssscccsssccsssccsssccsssssccsssccsssssssssc"
         d="m 264.4989,40.957541 c -0.0191,-0.107082 -0.0355,-0.237143 -0.12493,-0.335111 -0.0871,-0.08158 -0.20398,-0.09041 -0.29868,-0.09489 -0.20833,-0.01278 -0.39088,0.107866 -0.47043,0.298366 -0.0423,0.08782 -0.0552,0.191955 -0.11533,0.199347 -0.0542,0.02862 -0.12583,-0.04921 -0.21126,-0.09686 -0.15258,-0.100184 -0.28369,-0.244731 -0.33839,-0.414811 v -2e-6 c -0.0158,-0.04992 -0.0334,-0.09577 -0.0369,-0.139804 -0.0387,0.0105 -0.0392,0.03358 -0.0298,0.04242 0.0671,0.01024 0.15547,-0.01021 0.19129,-0.08836 0.0115,-0.07295 -0.0177,-0.135364 -0.0421,-0.183791 -0.0288,-0.06479 -0.061,-0.124796 -0.08,-0.18638 v -3e-6 c -0.0139,-0.04726 -0.0266,-0.09713 -0.003,-0.118216 0.0315,-0.02641 0.0356,-0.058 0.0198,-0.0784 l -10e-6,-2e-6 c -0.0139,-0.03174 -0.0332,-0.05616 -0.05,-0.07704 -0.0587,-0.07538 -0.12054,-0.145907 -0.17455,-0.220263 -0.13716,-0.189527 -0.2459,-0.421979 -0.18417,-0.635932 0.0428,-0.05722 0.09,-0.139554 0.0598,-0.228187 -0.0457,-0.0995 -0.14675,-0.144542 -0.22605,-0.184547 -0.0707,-0.03874 -0.14575,-0.07282 -0.22599,-0.09339 -0.0352,-0.01818 -0.10246,-0.03346 -0.1528,0.01807 0.007,0.01601 -0.0333,-0.0084 -0.075,-0.01212 -0.0677,-0.02138 -0.1317,-0.05669 -0.19345,-0.09657 -0.13792,-0.09252 -0.31728,-0.164459 -0.48616,-0.114318 v -3e-6 c -0.0878,0.02805 -0.19395,-7.93e-4 -0.26053,-0.06657 -0.0454,-0.04148 -0.0443,-0.129628 0.0115,-0.147849 0.054,-0.05094 0.0184,-0.105241 -0.0481,-0.11406 -0.27105,-0.0028 -0.49186,0.197088 -0.69046,0.357437 -0.2656,0.210248 -0.51263,0.451019 -0.69805,0.736457 -0.0995,0.165155 -0.19954,0.330229 -0.30006,0.495189 -0.026,-0.152612 -0.0525,-0.305308 -0.0793,-0.458047 -0.0269,-0.132988 -0.0289,-0.293116 -0.12932,-0.402225 -0.0772,-0.07394 -0.19454,-0.04381 -0.28431,-0.02641 -0.16767,0.02647 -0.33076,0.129272 -0.38783,0.29193 -0.0429,0.123635 -0.14976,0.2334 -0.27792,0.247558 -0.25331,0.02876 -0.49118,0.332176 -0.34426,0.543107 0.0881,0.112239 -0.0294,0.271251 -0.13117,0.384556 -0.11507,0.122563 -0.23721,0.271513 -0.22659,0.444304 0.012,0.151091 0.14893,0.256114 0.28067,0.320689 0.0839,0.04274 0.18034,0.09577 0.27543,0.0673 0.10032,-0.03256 0.1558,-0.133969 0.20984,-0.218678 v 0 c 0.0568,-0.08749 0.10579,-0.182922 0.18528,-0.246605 v 0 c 0.009,-0.005 0.0228,-0.01307 0.0195,-0.0062 0.006,0.01892 -0.003,0.04145 -0.009,0.06439 -0.0812,0.295034 -0.24099,0.563317 -0.38732,0.833543 -0.18535,0.342054 -0.40118,0.676093 -0.50478,1.051505 -0.0366,0.132815 -8.5e-4,0.283575 0.11722,0.353594 0.46191,0.273884 0.69946,0.810797 1.00234,1.253379 0.0737,0.110355 0.23143,0.07947 0.3398,5.29e-4 v 0 c 0.41077,-0.298733 0.99232,-0.01376 1.47478,0.125103 0.0939,0.02878 0.19081,-0.05809 0.2481,-0.143441 0.0368,-0.05833 0.0934,-0.115694 0.16723,-0.115625 0.10357,0.0034 0.1914,0.06857 0.27345,0.122615 0.0882,0.05488 0.21628,0.105588 0.23326,0.220229 0.011,0.121118 -0.10129,0.209801 -0.17281,0.293002 -0.10043,0.123447 -0.19132,0.284001 -0.13956,0.427202 0.0403,0.125851 0.20181,0.171095 0.3396,0.166137 0.16306,-0.0078 0.32658,0.0074 0.48689,0.03458 0.19203,0.03485 0.37964,-0.12446 0.40377,-0.318487 0.0408,-0.297096 -0.0912,-0.596167 -0.26196,-0.846836 -0.30729,-0.196096 -0.61435,-0.392938 -0.92118,-0.590521 0.0994,-0.04571 0.19892,-0.09165 0.29862,-0.137806 0.24545,0.212733 0.49135,0.425535 0.73767,0.638387 0.22651,0.1779 0.62973,0.05742 0.62259,-0.225269 -0.002,-0.07318 2.9e-4,-0.165298 0.0641,-0.231407 0.0731,-0.06268 0.16996,-0.06282 0.24774,-0.06276 v 0 c 0.0817,-0.0056 0.16569,-0.0019 0.20939,-0.04868 0.0485,-0.03984 0.0492,-0.122497 0.0588,-0.202708 0.005,-0.08396 0.007,-0.170384 -0.0399,-0.22411 -0.059,-0.07803 -0.16567,-0.114046 -0.26863,-0.158075 -0.0859,-0.03489 -0.17457,-0.0748 -0.25074,-0.137531 -0.0429,-0.02492 -0.0841,-0.08557 -0.0556,-0.156802 v -3e-6 c 0.0511,-0.05583 0.12271,-0.04909 0.16544,-0.03013 0.0827,0.02085 0.15808,0.0597 0.22662,0.104531 0.12857,0.07656 0.29354,0.151546 0.39142,0.06916 0.19133,-0.128966 0.13719,-0.485479 -0.0703,-0.588489 -0.0295,-0.01376 -0.0677,-0.03154 -0.0996,-0.06805 l -1e-5,-6e-6 c -0.0164,-0.04939 0.002,-0.08743 0.0362,-0.09897 0.13582,-0.04265 0.27466,-0.01897 0.39856,-0.01392 0.22431,0.0026 0.47182,0.0054 0.60579,-0.144843 0.13765,-0.128829 0.1166,-0.358027 0.088,-0.560943 l 0.0225,-0.0045 m -1.13414,0.401007 c -0.17763,-0.04781 -0.40016,-0.02543 -0.49759,0.154152 -0.048,0.10419 -0.0363,0.231442 0.0406,0.321167 0.11308,0.12242 0.27188,0.176922 0.41755,0.219779 0.0558,0.01685 0.10419,0.08551 0.0884,0.138112 0.008,0.01937 -0.0324,0.02323 -0.064,0.01791 -0.0996,-0.02432 -0.19071,-0.08845 -0.28626,-0.149598 -0.10166,-0.07046 -0.21639,-0.180703 -0.37033,-0.179658 -0.12259,0.01921 -0.17362,0.138115 -0.20515,0.219202 -0.0462,0.08141 -0.0999,0.192593 -0.0531,0.303644 0.0737,0.136387 0.21796,0.199681 0.3311,0.266965 0.0947,0.05921 0.18786,0.118295 0.25909,0.196215 0.02,0.03835 0.0601,0.07867 0.0379,0.06892 v 0 c -0.0189,0.02805 -0.0783,-0.0055 -0.1405,-0.01942 -0.0965,-0.03261 -0.18807,-0.0818 -0.2753,-0.138308 -0.0975,-0.06628 -0.20556,-0.158872 -0.34476,-0.163778 -0.10752,0.0073 -0.17224,0.09721 -0.21373,0.169884 -0.048,0.0658 -0.10271,0.157099 -0.0725,0.256389 0.0476,0.114036 0.15947,0.171315 0.24706,0.225047 0.0896,0.05872 0.17705,0.119547 0.23926,0.199729 0.0209,0.03925 0.0552,0.07998 0.0332,0.08598 -0.0135,0.02846 -0.0704,0.0109 -0.12458,0.0052 v 0 c -0.10657,-0.02215 -0.20804,-0.07088 -0.30739,-0.12442 -0.10264,-0.05571 -0.20267,-0.115322 -0.29337,-0.186206 v -3e-6 c -0.0282,-0.0222 -0.055,-0.04383 -0.0755,-0.06888 -0.005,-0.01855 -0.0203,-0.02479 -0.0152,-0.01035 0.009,-0.04447 -0.006,-0.06765 -0.0177,-0.06585 -0.0204,-0.02318 -0.0426,-0.04278 -0.0641,-0.06122 -0.0783,-0.06766 -0.16078,-0.12913 -0.24303,-0.189651 -0.26977,-0.198591 -0.54787,-0.385064 -0.82829,-0.567238 v -2e-6 c -0.35358,-0.22984 -0.694,-0.495157 -1.08798,-0.661244 v 0 c -0.1552,-0.06372 -0.32574,-0.04516 -0.48001,0.0076 -0.28186,0.09634 -0.49549,0.362316 -0.52177,0.658564 -0.0259,0.30593 0.13838,0.611352 0.39432,0.777637 0.17436,0.111895 0.39274,0.114099 0.5923,0.118613 0.23639,0.0066 0.47831,-0.0063 0.70451,-0.08162 0.0541,-0.0196 0.11839,0.0053 0.18204,0.02191 0.10919,0.03034 0.21524,0.07239 0.32016,0.117364 v 0 c 0.27424,0.117647 0.53857,0.258643 0.79022,0.419298 0.25604,0.163994 0.49985,0.375693 0.57071,0.66833 0.0332,0.13839 0.0862,0.284001 0.0397,0.412948 -0.0171,0.06455 -0.11395,0.0398 -0.17569,0.0019 v 0 c -0.0874,-0.05652 -0.20986,-0.04857 -0.29345,0.01222 -0.0749,0.05399 -0.18539,0.07026 -0.26177,0.02006 v 0 c -0.0745,-0.04537 -0.0509,-0.164846 -0.009,-0.246367 0.0498,-0.09223 0.13573,-0.181033 0.23841,-0.177917 0.10736,0.0033 0.23764,-0.05518 0.22976,-0.164705 -0.0144,-0.147654 -0.14808,-0.252535 -0.27063,-0.330933 -0.1918,-0.123682 -0.39071,-0.246476 -0.61282,-0.301414 -0.11367,-0.02847 -0.25671,-0.02667 -0.32148,0.07211 0,0 0,0 0,0 -0.0486,0.07582 -0.16152,0.07262 -0.25318,0.07037 -0.19612,-0.0054 -0.38933,-0.04915 -0.5805,-0.09426 -0.20124,-0.04749 -0.4042,-0.102946 -0.61076,-0.09981 -0.095,0.0013 -0.19571,0.03285 -0.24701,0.112119 -0.0278,0.04331 -0.0554,0.101614 -0.10811,0.108331 -0.0416,0.0039 -0.0607,-0.04994 -0.0728,-0.08792 -0.0663,-0.197678 -0.21494,-0.358818 -0.34795,-0.52042 -0.12376,-0.150095 -0.26295,-0.295063 -0.3499,-0.470463 v 0 c -0.0413,-0.08341 -0.11198,-0.150699 -0.18948,-0.203177 -0.0516,-0.03601 -0.0586,-0.107725 -0.0536,-0.16769 0.008,-0.109027 0.0444,-0.213521 0.0837,-0.314537 0.1383,-0.356446 0.33813,-0.685432 0.54305,-1.00739 0.12058,-0.190548 0.27407,-0.381791 0.27506,-0.601586 0.003,-0.147087 -0.13531,-0.255997 -0.26283,-0.340389 -0.0383,-0.02511 -0.0919,-0.0263 -0.12254,0.0054 -0.0708,0.06765 -0.10348,0.168036 -0.14296,0.262771 -0.0397,0.09915 -0.0666,0.222771 -0.1632,0.287218 v 0 c -0.0718,0.04073 -0.15298,-0.01183 -0.21103,-0.05287 -0.0851,-0.05512 -0.13532,-0.164354 -0.089,-0.25849 v 0 c 0.087,-0.163627 0.25403,-0.263502 0.40279,-0.363165 0.0866,-0.05279 0.0707,-0.17849 -1.9e-4,-0.255667 -0.0735,-0.07645 -0.13978,-0.197281 -0.0821,-0.298196 0.0652,-0.09485 0.20252,-0.08567 0.3013,-0.04963 0.0884,0.02752 0.19537,0.03558 0.25237,-0.02749 v -2e-6 c 0.0667,-0.06535 0.0607,-0.179478 0.0414,-0.278929 -0.021,-0.110371 0.0422,-0.21634 0.1526,-0.243179 0.11702,-0.02241 0.23179,0.06018 0.26449,0.172815 0,3e-6 0,3e-6 0,3e-6 0.0361,0.127098 -0.006,0.270552 -0.10401,0.359635 -0.0716,0.06926 -0.13332,0.180062 -0.0774,0.249277 0.0577,0.08959 0.19641,0.09183 0.31273,0.07606 0.27401,-0.04032 0.44693,-0.316765 0.60723,-0.559025 v 0 c 0.18082,-0.279109 0.37618,-0.561226 0.64618,-0.76468 v 0 c 0.0749,-0.05731 0.16187,-0.110517 0.26233,-0.122799 0.0772,-0.0082 0.15546,0.02297 0.20543,0.08297 0.0821,0.10096 0.22711,0.148712 0.35778,0.1314 0.24344,-0.03211 0.48536,0.04799 0.70818,0.127312 v 3e-6 c 0.12242,0.04135 0.26813,0.068 0.37459,0.168161 v 3e-6 c 0.0552,0.07055 0.0242,0.157638 -0.0173,0.21115 -0.035,0.04615 -0.015,0.122209 -0.002,0.196776 0.0239,0.111001 0.0661,0.218469 0.11478,0.323398 0.0988,0.208865 0.2079,0.424405 0.39288,0.54243 0.10727,0.08595 0.0759,0.240678 -0.004,0.33133 -0.0905,0.103455 -0.0646,0.273695 0.002,0.405977 h 10e-6 c 0.1062,0.20429 0.29136,0.361497 0.48869,0.491714 0.13877,0.08619 0.29591,0.176118 0.43048,0.126508 0.0999,-0.02238 0.1263,-0.166991 0.1172,-0.286117 v -3e-6 c -0.016,-0.121764 0.0386,-0.258077 0.16988,-0.296474 0.23375,-0.02458 0.33198,0.273505 0.21001,0.46259 -0.0355,0.07116 -0.0701,0.175556 -0.0163,0.191548 h 1e-5 c 0.0175,0.0016 0.0404,0.02647 0.0469,0.07625 v 6e-6 c -0.0169,0.04441 -0.0427,0.06302 -0.0596,0.06109 -0.072,0.02484 -0.14439,0.02463 -0.20909,0.02445 -0.2129,-0.0049 -0.42624,-0.03719 -0.63294,-0.09607 l 0.006,-0.02225 m -0.41469,-0.260674 c -0.0187,-0.06471 -0.0634,-0.102158 -0.0954,-0.127032 -0.0556,-0.05169 -0.11589,-0.09737 -0.1785,-0.13838 -0.12263,-0.0824 -0.24152,-0.17786 -0.29811,-0.303556 -0.0746,-0.161123 -0.18131,-0.302572 -0.29165,-0.435216 -0.0424,-0.05204 -0.0881,-0.108894 -0.15058,-0.15209 -0.007,-0.01394 -0.0364,-0.02572 -0.0815,-0.01487 -0.0372,0.03584 -0.0412,0.07021 -0.0301,0.08413 0.0177,0.133684 0.0165,0.270605 0.0116,0.408292 -0.002,0.03884 -0.005,0.08096 5.6e-4,0.125516 -0.005,0.02492 0.0141,0.06021 0.0645,0.07641 0.0575,-0.0024 0.11432,0.04732 0.17839,0.08886 0.0904,0.06268 0.17497,0.13462 0.25606,0.210783 0.0762,0.07175 0.14925,0.145926 0.21087,0.227963 0.0211,0.02836 0.0407,0.05584 0.0531,0.0848 0.003,0.01916 0.013,0.03145 0.008,0.02709 0.0207,0.0089 -0.009,-0.02297 -0.0502,-0.02527 -0.0686,-0.02625 -0.13467,-0.06159 -0.20135,-0.09787 -0.22133,-0.120676 -0.43392,-0.258056 -0.64372,-0.39991 v -2e-6 c -0.3479,-0.236326 -0.72506,-0.452686 -0.95327,-0.795274 -0.11374,-0.165899 -0.0888,-0.395986 0.0275,-0.564785 0.13209,-0.191021 0.39085,-0.308298 0.60035,-0.213305 0.24511,0.106215 0.37434,0.392118 0.40064,0.663729 0.008,0.0846 0.0181,0.171077 0.0476,0.252902 0.008,0.03504 0.0309,0.08604 0.0804,0.08683 0.0503,-0.01088 0.0675,-0.0647 0.0764,-0.102201 0.0279,-0.08556 0.0381,-0.174945 0.0453,-0.262988 0.0299,-0.38323 -0.28567,-0.700079 -0.64719,-0.816215 h -10e-6 c -0.16201,-0.0526 -0.34044,-0.09907 -0.50421,-0.0444 -0.15829,0.05381 -0.26671,0.195424 -0.35606,0.333868 -0.11534,0.17772 -0.17946,0.407982 -0.0792,0.594841 0.17483,0.324469 0.50563,0.529815 0.80075,0.749327 0.40779,0.289504 0.8154,0.580617 1.22287,0.873365 -0.0127,0.0078 -0.0254,0.01566 -0.038,0.02358 -0.004,0.01754 -0.007,0.0351 -0.0113,0.05265 -0.42962,-0.303417 -0.8608,-0.606129 -1.29351,-0.908135 -0.23911,-0.149357 -0.48096,-0.294555 -0.73352,-0.417772 v 0 c -0.12489,-0.05893 -0.24927,-0.154035 -0.37028,-0.125198 -0.10968,0.02331 -0.20792,0.09597 -0.26817,0.190915 -0.0483,0.07917 -0.0735,0.185209 -0.0219,0.253773 0.0243,0.02511 0.0567,0.07167 0.0328,0.122769 -0.0382,0.04527 -0.098,0.04191 -0.13743,0.03958 -0.0915,0.0016 -0.17065,0.08447 -0.1828,0.176388 -0.0201,0.137464 0.0391,0.278582 0.11594,0.400616 0.0968,0.153127 0.26403,0.254209 0.41487,0.37129 0.25625,0.197143 0.52256,0.381198 0.79423,0.557051 0.34454,0.229184 0.68794,0.45861 1.03022,0.688255 0.0516,-0.09045 0.10298,-0.180832 0.15403,-0.271153 0.0506,-0.07889 0.1081,-0.14872 0.1367,-0.226391 0.0152,-0.03364 0.002,-0.07823 -0.0295,-0.09565 -0.0529,-0.0093 -0.10453,-0.06631 -0.069,-0.05155 v -3e-6 c -0.0111,-0.03276 5.6e-4,-0.04037 0.005,-0.0231 v 3e-6 c 0.0238,0.01159 0.0547,0.01402 0.0883,0.01622 0.0697,0.01125 0.12899,-0.07301 0.18822,-0.14672 0.10178,-0.142012 0.18643,-0.298505 0.28299,-0.450566 0.0783,-0.123484 0.15304,-0.248849 0.21975,-0.377868 0.0226,-0.0437 0.0441,-0.08686 0.0617,-0.130648 0.0153,-0.03105 0.0365,-0.04802 0.0386,-0.04966 l 0.0225,-0.0048 m -1.83032,0.0851 c -0.29447,-0.177826 -0.59346,-0.345495 -0.86166,-0.554736 -0.0532,-0.04224 -0.10648,-0.08196 -0.138,-0.134702 -0.0128,-0.02254 -0.0195,-0.05076 -0.006,-0.06731 0.0195,-0.03159 0.0555,-0.05387 0.092,-0.05167 0.0738,0.0016 0.14537,0.04134 0.21752,0.0775 0.37767,0.192304 0.72955,0.435075 1.0915,0.658143 v 2e-6 c 0.26167,0.161142 0.53907,0.308187 0.75824,0.52959 0.0517,0.04891 0.0881,0.132787 0.0293,0.195001 -0.0464,0.03069 -0.0999,0.01617 -0.13489,0.0024 -0.0843,-0.02352 -0.16324,-0.06006 -0.23984,-0.09682 -0.29594,-0.141555 -0.57715,-0.31101 -0.85641,-0.479552 m -0.25957,0.675328 c -0.33172,-0.208841 -0.66297,-0.420651 -0.93968,-0.693674 -0.0509,-0.05706 -0.12781,-0.100338 -0.11501,-0.153646 -0.007,-0.0013 0.007,-0.0016 0.0196,-0.005 0.0346,-5.29e-4 0.0707,0.01199 0.10781,0.02429 0.0852,0.02896 0.16936,0.05555 0.24273,0.10282 0.41523,0.265747 0.83995,0.515197 1.25205,0.785876 0.13996,0.09188 0.28106,0.184409 0.40804,0.296447 0.0371,0.03249 0.075,0.06773 0.10347,0.112509 0.0183,0.0241 0.0304,0.0621 0.0115,0.100457 -0.0732,0.09327 -0.21071,0.04753 -0.29599,2.64e-4 -0.29893,-0.135464 -0.57074,-0.321365 -0.84461,-0.493662 m 0.50659,-0.342619 c -0.23942,-0.125693 -0.46567,-0.280316 -0.69551,-0.430218 -0.12397,-0.08089 -0.24729,-0.162415 -0.36793,-0.24756 -0.0394,-0.02786 -0.0785,-0.05562 -0.11561,-0.0853 -0.01,-0.0064 -0.0195,-0.01241 -0.0277,-0.01916 -0.005,-0.0046 -0.0123,-0.009 -0.0129,-0.01532 -0.005,-0.05033 -0.0361,-0.09268 -0.0635,-0.131961 -0.006,-0.0071 -0.0109,-0.01908 -0.004,-0.01662 0.0232,0.0081 0.0449,0.02839 0.0695,0.04487 0.26788,0.137176 0.52016,0.305338 0.77538,0.467191 0.21837,0.138502 0.43005,0.290042 0.65882,0.408093 0.18342,0.09449 0.39327,0.150834 0.55961,0.28674 0.0616,0.04886 0.12788,0.109604 0.15089,0.195673 0.008,0.03186 -0.008,0.06598 -0.0458,0.07964 -0.0561,0.0085 -0.10567,-0.01357 -0.14449,-0.03195 -0.27203,-0.119583 -0.527,-0.276537 -0.77126,-0.444979 0,0 0.0125,-0.01889 0.0125,-0.01889 m 1.16292,1.268362 c -0.0334,-0.01818 -0.0814,-0.07665 -0.0412,-0.08788 0.0549,-0.03288 0.12978,-0.05132 0.19243,-0.01963 0.0497,0.0249 0.0723,0.09859 0.0419,0.15734 -0.0457,0.07387 -0.16251,0.06419 -0.22985,0.0065 0,0 0.0117,-0.01786 0.0117,-0.01786 m -1.6981,-0.194189 c -0.0717,-0.06911 -0.15925,-0.149413 -0.27701,-0.167087 -0.11295,-0.0092 -0.20807,0.04855 -0.28541,0.102084 -0.16386,0.108062 -0.38769,0.121492 -0.5321,-0.01013 -0.075,-0.04075 -0.14365,0.02426 -0.15856,0.08561 -0.004,0.02842 -0.051,0.03326 -0.0903,0.02832 -0.0854,-0.01606 -0.16458,-0.06471 -0.24304,-0.113914 -0.18534,-0.116453 -0.30553,-0.31877 -0.29063,-0.539268 0.008,-0.110112 -0.002,-0.234688 0.0751,-0.305168 0.0903,-0.08573 0.23562,-0.08277 0.36288,-0.10233 0.15954,-0.02424 0.32696,-0.03593 0.47696,0.02755 0.27754,0.117924 0.51158,0.31891 0.75401,0.495157 0.31349,0.227613 0.62476,0.458245 0.9415,0.680127 0.0577,0.05604 0.0365,0.142743 -0.0235,0.179904 -0.10035,0.06169 -0.2244,0.03428 -0.31522,-0.01648 -0.15504,-0.07862 -0.32018,-0.153604 -0.4574,-0.277405"
         style="fill:#ffffff;stroke-width:0.28222221"
         id="path2694" />
      <path
         inkscape:original-d="m 515.42765,623.86851 c -0.18482,0.39571 -0.2888,0.44218 -1.05393,0.47104 -0.69276,0.0261 -0.90914,-0.0331 -1.17671,-0.32216 -0.3011,-0.32528 -0.38847,-0.33705 -1.07077,-0.14433 -0.40859,0.1154 -0.84699,0.34991 -0.97419,0.52113 -0.12724,0.1712 -0.14234,0.24568 -0.0336,0.16549 0.99032,-10e-4 -0.29938,0.49489 0.0772,0.68707 0.28936,0.0554 -1.48364,0.58419 -1.09638,1.18811 0.32069,0.21254 0.25537,0.28169 -0.41719,0.44152 -0.43859,0.10425 -0.85599,0.15073 -0.92759,0.10328 -0.0715,-0.0474 -0.45799,0.006 -0.85876,0.11956 -0.40077,0.11318 -0.97203,0.17327 -1.26949,0.13348 -0.60068,-0.0803 -1.27728,0.21045 -0.7425,0.31908 0.20534,0.0417 0.16538,0.0704 -0.10189,0.0733 -0.81965,0.009 -2.87635,-0.69248 -3.7721,-1.28614 l -0.88276,-0.58507 -0.26734,0.55065 c -0.26068,0.53699 -0.28749,0.54929 -1.07927,0.49499 -0.53308,-0.0366 -0.88809,-0.15111 -1.03366,-0.33357 -0.13145,-0.16472 -0.45871,-0.28967 -0.8036,-0.3068 -0.7553,-0.0376 -1.2936,-0.39895 -0.92379,-0.62022 0.20771,-0.12432 0.10446,-0.25871 -0.36685,-0.47742 -0.86998,-0.40368 -0.8272,-0.68327 0.13651,-0.89231 0.68277,-0.1481 0.85554,-0.12491 1.30755,0.17552 1.01422,0.67412 0.68628,0.16452 -0.4997,-0.77654 -1.6149,-1.2814 -1.75475,-1.49836 -1.07812,-1.67302 0.47424,-0.12243 1.26669,-0.5536 2.75163,-1.49718 0.23614,-0.15002 0.48694,-0.15084 0.95615,-0.003 0.56831,0.17894 1.71119,0.1352 4.04679,-0.15493 0.20909,-0.026 0.53125,0.0529 0.71595,0.17533 0.26967,0.17873 0.50031,0.17608 1.1712,-0.0134 0.80518,-0.22744 0.81082,-0.24875 0.15535,-0.58918 -0.76599,-0.39785 -0.4811,-0.75844 0.58269,-0.73753 0.33037,0.006 0.92946,-0.0126 1.33125,-0.0425 1.37064,-0.10196 1.61322,0.68564 0.43998,1.42863 l -2.54789,0.68437 0.78165,0.13969 1.99269,-0.76146 c 0.88565,-0.29566 1.83022,-0.14565 1.85064,0.29394 0.0119,0.25592 0.13101,0.30392 0.77695,0.31304 0.6469,0.009 0.77284,0.06 0.82818,0.33463 0.0546,0.27081 -0.0937,0.35235 -0.90508,0.49785 -0.60152,0.10787 -0.90463,0.21752 -0.79751,0.28852 0.095,0.063 0.5182,0.0169 0.94037,-0.10229 0.47707,-0.13475 0.93012,-0.16596 1.19698,-0.0825 0.63289,0.19798 0.52343,0.61736 -0.20407,0.7819 -0.49541,0.11208 -0.30466,0.13895 0.86766,0.12236 1.74469,-0.0247 2.29192,0.22358 1.97731,0.89714 z m -3.15522,-0.53114 c -0.71927,0.0771 -1.02122,0.0395 -1.22912,-0.15324 -0.26615,-0.24671 0.11246,-0.4298 1.18577,-0.57342 0.22721,-0.0304 0.37237,-0.13164 0.32254,-0.225 -0.0632,-0.11853 -0.40761,-0.0802 -1.14133,0.12707 -0.99691,0.28159 -1.06998,0.2802 -1.42523,-0.0271 -0.34571,-0.29905 -0.29011,-0.34668 0.72379,-0.6203 0.6864,-0.18524 0.99618,-0.33132 0.82604,-0.38957 -0.14974,-0.0512 -0.71832,0.0328 -1.26357,0.18682 -0.88864,0.25101 -1.03414,0.25164 -1.40459,0.006 -0.36011,-0.23867 -0.30209,-0.30529 0.45117,-0.51807 1.33505,-0.37708 0.88892,-0.59929 -0.53099,-0.26449 -0.66638,0.15715 -1.15522,0.32303 -1.08638,0.36865 0.0688,0.0456 -1.34787,0.49902 -3.14824,1.00755 -3.25672,0.91989 -3.27846,0.92386 -4.25995,0.78034 -1.71013,-0.25008 -1.91062,-1.22491 -0.34298,-1.6677 0.58804,-0.16609 2.51508,-0.19061 3.53115,-0.0449 0.38787,0.0556 2.1835,-0.27978 3.59368,-0.67123 1.06182,-0.29475 1.38806,-0.46107 1.58195,-0.80647 0.27934,-0.49768 0.14233,-0.66435 -0.41652,-0.50652 -0.21326,0.0602 -0.56493,0.0541 -0.78147,-0.0136 -0.21655,-0.0677 -0.55243,-0.0783 -0.74643,-0.0235 -0.40306,0.11385 0.10763,0.52686 0.64434,0.52112 0.87689,-0.009 0.8089,0.31833 -0.12001,0.57863 -1.38282,0.38749 -2.25299,0.4814 -2.56213,0.27651 -0.18441,-0.12223 -0.92298,-0.11273 -2.30269,0.0296 -1.59474,0.16448 -2.10345,0.16166 -2.36722,-0.0131 -0.24604,-0.16307 -0.37677,-0.16965 -0.48847,-0.0246 -0.0839,0.10895 -0.51445,0.38904 -0.95682,0.6224 -0.44235,0.23338 -0.87418,0.48568 -0.95962,0.56072 -0.0854,0.075 -0.32202,0.18536 -0.52579,0.24519 -0.44225,0.12985 0.15558,0.79224 1.59224,1.76422 1.01432,0.68624 1.01892,0.86172 0.0299,1.14108 -0.28638,0.0809 -0.46427,0.007 -0.78288,-0.32573 -0.371,-0.38728 -0.46886,-0.41446 -0.97644,-0.27109 -0.5741,0.16217 -0.32953,0.36248 0.86794,0.71089 0.30747,0.0895 0.31027,0.1907 0.009,0.33432 -0.55162,0.26315 -0.2185,0.49208 0.55353,0.38043 0.66817,-0.0966 1.03589,0.0669 0.87862,0.39084 -0.0799,0.16459 0.012,0.22797 0.37899,0.26133 0.67509,0.0614 0.95851,-0.36858 0.39006,-0.59166 -0.61931,-0.24304 -0.2105,-0.49726 0.69929,-0.43489 0.59779,0.041 1.00038,0.19943 1.72177,0.67755 1.29693,0.85956 2.43329,1.22715 2.9492,0.95398 0.22346,-0.11832 0.68145,-0.19195 1.05815,-0.17011 0.36529,0.0212 1.22558,-0.0472 1.91173,-0.15187 1.13203,-0.17276 1.21887,-0.20939 0.93787,-0.39564 -0.3145,-0.20844 0.64521,-1.1063 1.41484,-1.32369 0.24759,-0.0699 0.23494,-0.18949 -0.0351,-0.332 -0.52967,-0.2795 0.0503,-0.76055 1.37033,-1.13656 1.05585,-0.30079 1.79532,-0.19751 1.68054,0.23473 -0.0487,0.1836 0.0611,0.27018 0.37943,0.2991 0.59918,0.0545 0.85372,-0.21077 0.45559,-0.47466 -0.17647,-0.11696 -0.18155,-0.25199 -0.0113,-0.30009 0.43991,-0.12424 -1.13905,-0.12996 -2.27434,-0.008 z m -1.2659,0.29954 c -0.0259,0.0533 -0.3403,0.18086 -0.69869,0.28341 -0.35838,0.10254 -0.74582,0.27578 -0.86098,0.38498 -0.27062,0.25659 -1.38119,0.88623 -1.31019,0.64476 0.11829,-0.40223 -0.0781,-0.68693 0.10552,-0.68892 0.48668,-0.005 2.20283,-0.70865 2.02172,-0.82868 -0.0867,-0.0574 -1.21773,0.21194 -2.58914,0.61659 -2.83331,0.83604 -3.34749,1.17109 -2.55504,1.66504 0.96879,0.60387 2.68118,0.27343 2.85125,-0.55017 0.11024,-0.53398 0.49913,-0.5148 0.60888,0.03 0.0956,0.47468 -0.45969,0.77907 -1.7549,0.96189 -1.18433,0.16715 -1.70131,0.0928 -2.35187,-0.33839 -0.80154,-0.53126 -0.45271,-0.81421 1.97395,-1.60118 l 3.36179,-1.03905 -0.10947,-0.0237 -0.02,-0.063 -3.53806,1.09207 c -1.6066,0.438 -2.75998,0.68395 -3.07377,0.65544 -0.65563,-0.0596 -1.13269,-0.3826 -0.83708,-0.56677 0.18439,-0.11487 0.13413,-0.14652 -0.24219,-0.15241 -0.65519,-0.0103 -0.77281,-0.36732 -0.24067,-0.73058 0.24837,-0.16955 1.71868,-0.66286 3.34337,-1.12177 l 2.90005,-0.81913 0.4959,0.32867 c 0.3602,0.23871 0.58798,0.35326 0.26977,0.44661 -0.40328,0.11829 -0.5344,-0.005 0.003,-0.0165 0.43562,-0.009 0.73912,0.28248 1.40413,0.732 0.48964,0.33097 0.86908,0.64542 0.8432,0.69874 z m -5.11039,-0.14763 c -2.418,0.65538 -2.94628,0.83991 -2.75932,0.96384 0.30025,0.19897 0.87457,0.005 3.90808,-0.83507 2.42397,-0.67074 2.34689,-0.76566 2.13675,-0.83792 -0.20017,-0.0688 -1.25582,0.15903 -3.28551,0.70915 z m -0.8514,-0.89726 c -2.45146,0.69246 -3.57985,1.22684 -2.46856,1.0541 0.22667,-0.0352 0.30082,-0.0226 0.67291,-0.12963 2.40203,-0.69075 5.08825,-1.3609 4.81404,-1.54264 -0.20529,-0.13607 -0.72458,-0.0297 -3.01839,0.61817 z m 1.26613,0.31475 c -0.62184,0.14734 -3.34303,0.93429 -3.34543,0.99015 -0.006,0.14683 -0.40872,0.26041 0.0721,0.14934 0.99243,-0.22929 3.34706,-0.94146 3.91452,-1.07359 0.63897,-0.14876 1.26164,-0.25569 1.51706,-0.34972 0.37713,-0.13885 0.65919,-0.36803 -0.034,-0.23616 -0.37653,0.0716 -1.4202,0.31777 -2.12419,0.51998 z m 3.13525,-1.55794 c -0.21713,0.0613 -0.24996,0.14092 -0.073,0.17686 0.177,0.0359 0.42903,0.0351 0.56006,-0.002 0.13106,-0.037 0.16389,-0.1166 0.073,-0.17685 -0.0909,-0.0603 -0.34292,-0.0594 -0.56006,0.002 z m -4.76539,0.19161 c -0.57644,0.23356 -0.79912,0.2461 -1.40745,0.0793 -0.65087,-0.17849 -1.07411,-0.17193 -1.57606,0.0243 -0.0937,0.0367 -0.23484,-0.003 -0.31367,-0.0882 -0.0926,-0.10001 -0.45368,-0.0672 -1.01985,0.0928 -0.69938,0.19753 -0.86143,0.332 -0.80185,0.66528 0.072,0.40228 0.1177,0.42028 1.23901,0.48741 1.11523,0.0668 1.25699,0.0398 3.36516,-0.64179 1.21049,-0.39135 2.36664,-0.76323 2.56919,-0.82644 0.22627,-0.0706 -0.12165,-0.28439 -0.83084,-0.12248 -0.44684,0.10198 -0.82623,0.16883 -1.22364,0.32984 z"
         inkscape:connector-curvature="0"
         sodipodi:nodetypes="csssscccsssssscccsssssssssssssssssccccsssssssssccsssssssssssssssssssssssssssssssssssssssssssssssssssssccssssssssssscccccsssscccsssccsssccsssccsssssccsssccsssssssssc"
         d="m 265.81688,96.264628 c -0.0577,0.113969 -0.19138,0.137991 -0.31095,0.141319 -0.12055,0.0053 -0.25568,-0.0042 -0.34321,-0.09609 -0.0676,-0.07819 -0.18215,-0.06632 -0.28787,-0.03717 -0.10056,0.02928 -0.20949,0.06167 -0.26798,0.141703 -0.0138,0.02196 -0.0426,0.03485 -0.0344,0.03666 0.007,0.0032 0.0125,-0.0047 0.0182,-0.0097 0.0356,-0.0019 0.0907,-0.01098 0.1141,0.02856 0.009,0.03321 -0.016,0.05729 -0.0332,0.06897 -0.0222,0.02167 -0.0457,0.03983 -0.0616,0.06235 -0.009,0.01508 -0.007,0.03801 0.006,0.04451 0.006,0.0029 0.009,0.01056 0.004,0.01656 -0.0103,0.01326 -0.0234,0.02196 -0.035,0.03072 -0.0455,0.02535 -0.0918,0.04807 -0.13561,0.07419 -0.0476,0.02861 -0.0946,0.05871 -0.1275,0.100513 -0.0252,0.03083 -0.0358,0.07588 -0.0149,0.106431 0.028,0.0122 0.0698,0.0464 0.0465,0.0841 -0.0457,0.04596 -0.11479,0.04781 -0.16987,0.05981 -0.0563,0.01328 -0.11337,0.02424 -0.17114,0.03059 -0.0286,0.0046 -0.0667,0.01606 -0.0994,-0.0034 -0.0171,-0.01378 -0.048,-0.0013 -0.0787,0.0013 -0.0521,0.0071 -0.10369,0.01902 -0.15463,0.03336 -0.11687,0.03299 -0.2409,0.05376 -0.36252,0.03741 -0.0742,-0.0099 -0.15183,-0.0052 -0.21977,0.02397 -0.0163,0.0096 -0.0378,0.01553 -0.0336,0.02535 v 2e-6 c -0.004,0.01296 0.0254,0.014 0.0471,0.02143 0.0102,0.0016 0.0301,0.0029 0.0425,0.0218 v 3e-6 c -0.0218,0.02585 -0.0534,0.01728 -0.0731,0.01741 -0.18192,0.0016 -0.35718,-0.06051 -0.52708,-0.118875 -0.18776,-0.06429 -0.37572,-0.136668 -0.54176,-0.247015 -0.0811,-0.05567 -0.16237,-0.11131 -0.24373,-0.166918 -0.0234,0.05127 -0.047,0.102569 -0.0705,0.153882 -0.0236,0.04973 -0.0461,0.110008 -0.0995,0.135398 v 0 c -0.0667,0.02982 -0.14244,0.01273 -0.21166,0.0075 -0.10426,-0.0066 -0.22787,-0.01283 -0.29577,-0.09677 -0.0495,-0.06304 -0.14036,-0.08019 -0.22259,-0.08484 h -1e-5 c -0.0874,-0.0043 -0.1784,-0.01998 -0.25189,-0.06932 v -3e-6 c -0.0406,-0.02769 -0.053,-0.08781 -0.0109,-0.115046 v 0 c 0.0607,-0.02999 -0.039,-0.0949 -0.10296,-0.126783 -0.0723,-0.03215 -0.18759,-0.06805 -0.17689,-0.151051 0.015,-0.08511 0.13602,-0.09194 0.21649,-0.108201 0.12743,-0.02743 0.26246,-0.02183 0.3714,0.05056 0.0468,0.03114 0.0926,0.06508 0.14504,0.08329 0.0145,0.0064 0.023,-0.0053 0.0135,-0.01807 -0.074,-0.115549 -0.1944,-0.194366 -0.3024,-0.280403 -0.13836,-0.110072 -0.29851,-0.204946 -0.39438,-0.354132 -0.015,-0.02307 -0.0248,-0.05532 -0.007,-0.07648 0.0241,-0.02729 0.0628,-0.03498 0.0976,-0.04385 0.286,-0.07333 0.52747,-0.263186 0.7771,-0.421243 0.0784,-0.04975 0.18041,-0.02841 0.26921,-2.64e-4 0.36537,0.115601 0.76313,0.0048 1.14277,-0.04188 0.0692,-0.0085 0.14186,0.01072 0.19994,0.04931 v 0 c 0.0969,0.0638 0.22349,0.02835 0.33331,-0.0029 0.0432,-0.01212 0.0869,-0.02349 0.12912,-0.03945 0.0182,-0.0061 0.0434,-0.01265 0.0503,-0.03429 0.004,-0.02013 -0.0168,-0.0336 -0.0311,-0.04206 -0.0329,-0.02231 -0.0686,-0.03974 -0.10347,-0.0579 -0.0602,-0.03335 -0.15249,-0.09343 -0.10978,-0.141689 0.057,-0.07366 0.17529,-0.05876 0.27214,-0.05753 0.12551,0.0026 0.2511,-0.0024 0.37623,-0.0114 0.12381,-0.0076 0.29236,-0.0062 0.3249,0.108344 0.038,0.115067 -0.0985,0.21445 -0.20387,0.282927 -0.23944,0.06612 -0.47879,0.132612 -0.71809,0.199456 0.0743,0.01569 0.14871,0.0315 0.22312,0.04742 0.18818,-0.07138 0.37643,-0.142764 0.56478,-0.214154 0.11205,-0.03711 0.23232,-0.05403 0.34801,-0.03534 0.0716,0.01349 0.16131,0.04374 0.16085,0.10995 0.011,0.09806 0.14097,0.100243 0.22941,0.09859 0.0929,0.0037 0.21185,0.0031 0.22294,0.08593 0.006,0.02811 -0.006,0.05896 -0.0306,0.0714 -0.0635,0.03523 -0.1407,0.04177 -0.21597,0.05541 -0.0633,0.01119 -0.12773,0.02265 -0.18956,0.04484 -0.0239,0.0011 -0.0601,0.02627 -0.0401,0.05815 h 10e-6 c 0.0344,0.02077 0.0747,0.01164 0.10607,0.0069 0.0575,-0.0062 0.11406,-0.01828 0.16939,-0.03384 0.10958,-0.03019 0.22622,-0.05635 0.33051,-0.02286 0.0534,0.02029 0.124,0.05403 0.10618,0.09805 -0.0122,0.05962 -0.095,0.07914 -0.16289,0.09683 -0.0213,0.0089 -0.0455,0.01683 -0.0685,0.03349 v 3e-6 c -0.008,0.0048 0.004,0.01095 0.0139,0.01262 0.10109,0.01805 0.20293,0.01328 0.30269,0.01606 0.16827,-0.0016 0.34301,-0.01593 0.49053,0.05215 0.0684,0.02814 0.0896,0.116274 0.0603,0.183481 l 0.007,0.0033 m -0.88882,-0.134365 c -0.1181,0.01439 -0.26201,0.03832 -0.35879,-0.04764 -0.0345,-0.03992 -0.0145,-0.09403 0.0293,-0.1163 0.0989,-0.04726 0.20899,-0.05737 0.31366,-0.07096 0.0376,-0.01199 0.10343,-0.02601 0.0803,-0.04236 -0.004,-0.01982 -0.0427,-0.0093 -0.0759,-0.0092 -0.0773,0.0084 -0.15334,0.03024 -0.2298,0.05167 -0.1374,0.03995 -0.29777,0.08591 -0.41478,-0.01093 l -1e-5,-3e-6 c -0.0324,-0.02172 -0.0742,-0.06932 -0.0416,-0.110402 0.0714,-0.05961 0.16885,-0.06581 0.25128,-0.08725 0.0704,-0.01897 0.14076,-0.037 0.20519,-0.06738 0.0154,-0.01199 0.0427,-0.0285 0.0272,-0.01823 -0.0382,-0.014 -0.0842,-0.0011 -0.13057,0.005 -0.0737,0.01082 -0.14673,0.02726 -0.21869,0.04747 v 0 c -0.13292,0.03829 -0.28442,0.07808 -0.40609,-2.64e-4 v -3e-6 c -0.0313,-0.01474 -0.0801,-0.0514 -0.0564,-0.093 0.0484,-0.05306 0.1258,-0.05738 0.18708,-0.07362 0.0657,-0.01857 0.13155,-0.03638 0.18964,-0.06864 0.0135,-0.01251 0.0389,-0.02948 0.0252,-0.02355 -0.0315,-0.01683 -0.0737,-0.0073 -0.11522,-0.0042 -0.082,0.0075 -0.16333,0.02371 -0.24406,0.04262 -0.0777,0.01823 -0.15501,0.03783 -0.23025,0.06326 -0.0212,0.0072 -0.042,0.01421 -0.0609,0.02413 -0.007,0.0037 -0.02,0.01132 -0.0137,0.01564 0.005,0.003 -0.007,0.0077 -0.012,0.01011 -0.0156,0.0077 -0.0317,0.01373 -0.0478,0.01974 v 3e-6 c -0.062,0.02323 -0.12498,0.04341 -0.18779,0.06343 -0.21294,0.06785 -0.4276,0.130005 -0.64262,0.190449 -0.27928,0.07852 -0.55654,0.169651 -0.84291,0.221763 -0.12014,0.02175 -0.24275,0.0149 -0.36277,-0.0029 -0.15652,-0.02146 -0.36587,-0.06127 -0.40076,-0.220747 -0.0266,-0.146164 0.16529,-0.225954 0.30334,-0.262922 v 0 c 0.14736,-0.04132 0.30288,-0.03733 0.45457,-0.03899 0.18167,-0.0019 0.36424,0.0013 0.54435,0.0274 0.13117,0.01913 0.26531,-0.02249 0.39743,-0.04687 0.20691,-0.03838 0.4123,-0.08515 0.61516,-0.141179 0.16515,-0.04602 0.36223,-0.07776 0.44489,-0.225621 0.0242,-0.04435 0.0616,-0.101272 0.0304,-0.137742 -0.0304,-0.03858 -0.095,-0.01479 -0.14474,-0.0013 -0.072,0.02024 -0.15059,0.01828 -0.22188,-0.0041 -0.0674,-0.02114 -0.14157,-0.02596 -0.20947,-0.0069 -0.0375,0.0097 -0.0385,0.05855 -0.008,0.08295 0.0523,0.04241 0.12173,0.06135 0.18924,0.06074 0.0458,-5.29e-4 0.0927,2.1e-5 0.13642,0.01437 v 0 c 0.0193,0.006 0.0428,0.01987 0.039,0.04058 -0.0172,0.08011 -0.13132,0.08941 -0.20903,0.110826 -0.23746,0.06639 -0.51785,0.213712 -0.72337,0.07713 -0.056,-0.03721 -0.13121,-0.02487 -0.19842,-0.02408 -0.1509,0.0016 -0.30138,0.0163 -0.45152,0.03161 -0.22429,0.02275 -0.48054,0.120047 -0.66709,-0.0043 -0.0436,-0.02928 -0.10692,-0.04871 -0.14023,-0.0067 -0.0648,0.08407 -0.17492,0.124828 -0.26963,0.174792 -0.092,0.04835 -0.19273,0.08926 -0.27152,0.15825 -0.0406,0.03568 -0.0949,0.053 -0.14745,0.06845 -0.0253,0.0074 -0.0456,0.03127 -0.0416,0.05792 l 1e-5,3e-6 c 0.007,0.04223 0.0379,0.07584 0.0659,0.106727 0.12146,0.134874 0.27391,0.237556 0.42373,0.339148 0.0843,0.05813 0.21318,0.103032 0.21418,0.201049 0.005,0.07928 -0.12388,0.08912 -0.20484,0.11352 -0.0793,0.02312 -0.15773,-0.03016 -0.21625,-0.09094 -0.0738,-0.07667 -0.17767,-0.106595 -0.28047,-0.07819 -0.0277,0.0075 -0.0598,0.01466 -0.0803,0.03844 -0.0123,0.01767 -0.002,0.03973 0.0133,0.05135 0.0876,0.07159 0.20544,0.09059 0.31177,0.121435 0.0534,0.01257 0.0522,0.06193 0.002,0.08333 -0.0436,0.01802 -0.10237,0.06938 -0.0629,0.103907 0.0643,0.04329 0.14974,0.02643 0.22264,0.01532 0.0705,-0.0098 0.14487,-0.01802 0.20767,0.01037 0.0339,0.01439 0.0499,0.05777 0.0331,0.09047 -0.0211,0.05687 0.0577,0.08101 0.11253,0.08385 0.0678,0.0072 0.1524,0.0031 0.19345,-0.05641 0.0297,-0.052 -0.0279,-0.10605 -0.0799,-0.124698 -0.0423,-0.01937 -0.10094,-0.06486 -0.0618,-0.08006 0.0717,-0.04526 0.16739,-0.03316 0.25586,-0.02755 0.17391,0.01188 0.3352,0.09329 0.48164,0.19045 0.24975,0.168185 0.56662,0.412552 0.84181,0.270685 0.0873,-0.04637 0.19267,-0.05213 0.2934,-0.04649 0.18164,0.01072 0.36319,-0.01519 0.54178,-0.04228 h 10e-6 c 0.0938,-0.01402 0.19359,-0.01685 0.28465,-0.05481 0.0315,-0.02328 0.0125,-0.06025 -0.0153,-0.07724 -0.0174,-0.0074 -0.0109,-0.03727 -0.002,-0.0599 0.0201,-0.04099 0.0535,-0.07521 0.0882,-0.107831 v -3e-6 c 0.0891,-0.08294 0.19363,-0.152072 0.30968,-0.18456 0,3e-6 0,0 0,0 0.0565,-0.02408 0.0434,-0.08701 -0.007,-0.116398 -0.0509,-0.02228 -0.045,-0.09412 -10e-5,-0.129476 0.10678,-0.08886 0.24772,-0.128461 0.38466,-0.167651 0.117,-0.03288 0.23805,-0.0605 0.35555,-0.04362 0.0553,0.0097 0.11987,0.04737 0.10173,0.09363 -0.01,0.06597 0.0616,0.09942 0.11921,0.101992 0.0592,0.0071 0.1328,0.0099 0.18144,-0.0374 v -3e-6 c 0.0329,-0.04485 -0.003,-0.09952 -0.0436,-0.122631 -0.0261,-0.02069 -0.036,-0.06868 -0.008,-0.07283 v 0 c 0.008,-0.0029 0.023,-0.0046 0.0205,-0.01344 -0.002,-0.0091 -0.0158,-0.0083 -0.0247,-0.01032 -0.051,-0.0114 -0.1025,-0.01431 -0.15314,-0.01812 -0.16308,0.0016 -0.32627,0.0122 -0.48849,0.03211 l 8.4e-4,0.0076 m -0.34335,0.0913 c -0.0183,0.03022 -0.0513,0.03656 -0.0716,0.04223 -0.0444,0.01786 -0.0898,0.0325 -0.13541,0.04544 -0.0858,0.02511 -0.17661,0.04662 -0.23718,0.104671 v 0 c -0.066,0.06212 -0.14642,0.104794 -0.22452,0.145487 v 0 c -0.0356,0.01873 -0.0725,0.03765 -0.11275,0.04955 -0.0182,0.0108 -0.0511,0.0059 -0.0554,-0.02737 0.0128,-0.04228 0.0118,-0.08845 0.008,-0.134535 -0.006,-0.02397 -8e-5,-0.06067 0.0348,-0.06913 0.12011,-5.29e-4 0.236,-0.05642 0.35145,-0.103031 0.0567,-0.02313 0.11272,-0.04718 0.16504,-0.07739 0.0158,-0.0061 0.0312,-0.01154 0.0426,-0.01992 0.008,-0.0042 0.0149,-0.01273 0.01,-0.01593 -0.015,-0.0096 -0.0412,0.006 -0.0665,0.01109 -0.0531,0.0088 -0.10585,0.02085 -0.15865,0.03331 -0.16824,0.03967 -0.33497,0.08605 -0.50106,0.13466 -0.25455,0.07471 -0.5225,0.125473 -0.74258,0.268483 -0.0349,0.02418 -0.0757,0.055 -0.0676,0.09147 0.005,0.0417 0.0511,0.06826 0.0903,0.09386 0.13998,0.08791 0.31804,0.104532 0.48159,0.0735 0.1341,-0.02643 0.28718,-0.09192 0.31352,-0.223411 0.0253,-0.105831 0.15892,-0.09693 0.18223,0.0086 0.0135,0.07192 -0.0403,0.137599 -0.10314,0.171545 -0.12112,0.06592 -0.26097,0.08571 -0.3965,0.104463 -0.22804,0.0318 -0.47328,0.03042 -0.66539,-0.09733 -0.0413,-0.02735 -0.0876,-0.05655 -0.10519,-0.103751 -0.0131,-0.03649 0.0127,-0.0743 0.0423,-0.09803 0.17474,-0.141015 0.40789,-0.183224 0.62114,-0.251862 0.31649,-0.09705 0.63291,-0.194794 0.94934,-0.29323 -0.0102,-0.0026 -0.0204,-0.0053 -0.0305,-0.008 0,0 -0.006,-0.01778 -0.006,-0.01778 -0.33305,0.102002 -0.66644,0.20371 -1.00019,0.305138 -0.18917,0.05113 -0.37894,0.100111 -0.57052,0.140521 -0.0984,0.02064 -0.19709,0.05166 -0.29509,0.04235 -0.0761,-0.0072 -0.15341,-0.02373 -0.21543,-0.06612 -0.0299,-0.02077 -0.0481,-0.0664 -0.0175,-0.08112 0.0415,-0.03641 -0.0206,-0.05706 -0.0721,-0.05685 h -10e-6 c -0.0603,-0.0026 -0.13767,-0.0081 -0.1521,-0.06062 0,0 0,0 0,0 -0.019,-0.04932 0.0412,-0.09641 0.0888,-0.130969 0.0946,-0.06452 0.21289,-0.08858 0.3243,-0.12591 0.20404,-0.06796 0.41024,-0.129397 0.61742,-0.18742 0.27153,-0.07669 0.5428,-0.153416 0.81381,-0.230185 0.0449,0.03076 0.0898,0.06152 0.13461,0.09226 0.0385,0.0259 0.08,0.04506 0.10712,0.07642 0.016,0.0043 -0.008,0.01841 -0.0276,0.02614 -0.0221,0.0064 -0.0444,0.01146 -0.0666,0.01315 -0.0144,0.0019 -0.0249,0.01135 -0.0225,0.0131 v 2e-6 c -0.006,-0.0048 0.0111,-0.006 0.0182,-0.0066 0.0245,-0.0024 0.05,-1.4e-4 0.0758,0.0024 0.14351,-0.0047 0.25992,0.119671 0.38772,0.205055 v 0 c 0.0593,0.04026 0.1174,0.08194 0.17209,0.127484 0,0 0,0 0,0 0.0171,0.01429 0.0338,0.02844 0.0483,0.04399 0.008,0.0141 0.0215,0.01765 0.0189,0.01008 l 0.007,0.0034 m -1.43821,-0.02661 c -0.22348,0.05856 -0.44797,0.112295 -0.66593,0.186368 -0.0384,0.01323 -0.0775,0.02379 -0.1083,0.04635 -0.008,0.0049 -0.0118,0.01603 -0.004,0.01744 0.0688,0.04844 0.1682,0.01185 0.25631,-0.0068 0.28326,-0.06249 0.56199,-0.14549 0.84246,-0.220599 0.19586,-0.0524 0.39632,-0.09451 0.58265,-0.176941 0.0188,-0.0063 0.0498,-0.0141 0.0541,-0.04171 -0.003,-0.01852 -0.0209,-0.02466 -0.0317,-0.02622 -0.0899,-0.03079 -0.18721,0.01318 -0.27448,0.03206 -0.22159,0.04587 -0.44066,0.102862 -0.65924,0.160129 m -0.232,-0.223309 c -0.24594,0.06719 -0.49282,0.132811 -0.72608,0.233403 -0.0244,0.01053 -0.0484,0.02109 -0.0703,0.03478 -0.009,0.0088 -0.0229,0.01214 -0.0179,0.01349 -0.003,0.0049 0.0119,2.35e-4 0.0248,0.0026 0.029,5.5e-5 0.0582,-0.0041 0.0875,-0.0084 0.064,-0.0094 0.12781,-0.01754 0.18956,-0.03476 0.32129,-0.08933 0.64437,-0.171545 0.96501,-0.263077 0.10512,-0.03 0.21073,-0.05953 0.31315,-0.09898 0.0263,-0.01005 0.0536,-0.02013 0.0778,-0.03699 0.012,-0.0065 0.0207,-0.0235 0.008,-0.03801 -0.0627,-0.04052 -0.14413,-0.01302 -0.21112,0.0013 -0.21946,0.04295 -0.43428,0.10599 -0.64925,0.164682 m 0.36514,0.118872 c -0.18074,0.04117 -0.35916,0.09382 -0.5382,0.14459 -0.0949,0.02692 -0.1897,0.05414 -0.28394,0.08308 -0.0292,0.008 -0.0583,0.01617 -0.0871,0.02545 h -10e-6 c -0.009,0.0031 -0.0176,0.0061 -0.0261,0.0093 -0.003,0.0013 -0.009,0.0013 -0.009,0.0048 -0.001,0.01336 -0.0133,0.02307 -0.0246,0.03046 -0.007,0.0051 -0.0219,0.0096 -0.0241,0.0177 l 2.9e-4,7.94e-4 c 0.005,0.0033 0.0102,-7.94e-4 0.0161,-0.0024 0.0161,-0.0039 0.0321,-0.0087 0.0482,-0.01323 0.20118,-0.04465 0.39963,-0.101772 0.59854,-0.156585 0.16925,-0.04664 0.33734,-0.09852 0.50845,-0.136808 0.14259,-0.03188 0.2908,-0.04551 0.42994,-0.0953 0.039,-0.01294 0.0898,-0.02408 0.1136,-0.0651 0.003,-0.01969 -0.0131,-0.03004 -0.0262,-0.02872 -0.0349,-0.0029 -0.069,0.0041 -0.10157,0.01008 -0.20243,0.03838 -0.40217,0.09071 -0.59975,0.149201 l 0.002,0.0073 m 0.88906,-0.424744 c -0.0282,0.0039 -0.0531,0.02643 -0.023,0.0259 0.0505,0.0132 0.10435,0.02 0.15623,0.0085 0.0246,-0.0054 0.045,-0.03404 0.0231,-0.05367 -0.0453,-0.03251 -0.11113,-0.01945 -0.16241,-0.0024 l 0.002,0.0067 m -1.33909,0.06846 c -0.13008,0.0513 -0.27244,0.05766 -0.4064,0.02021 -0.14389,-0.04038 -0.29932,-0.04993 -0.438,0.0035 -0.035,0.01283 -0.0747,-0.0011 -0.0984,-0.02774 0,-2e-6 -1e-5,-2e-6 -1e-5,-2e-6 -0.0583,-0.06986 -0.18188,0.0016 -0.27955,0.02667 -0.10517,0.03051 -0.24394,0.07645 -0.22381,0.180538 v 3e-6 c 0.008,0.04198 0.0223,0.087 0.0607,0.101785 0.0883,0.03559 0.18858,0.02863 0.28471,0.0351 0.3243,0.02175 0.64098,-0.07655 0.95128,-0.174543 0.24215,-0.07641 0.48385,-0.154223 0.72661,-0.228121 0.0298,-0.01932 0.012,-0.05404 -0.0183,-0.063 -0.0731,-0.02101 -0.15052,-0.01053 -0.22218,0.0057 -0.11542,0.02757 -0.23355,0.05101 -0.34536,0.09848 l 0.003,0.0071"
         style="fill:#ffffff;stroke-width:0.28222221"
         id="path2698" />
    </g>
  </g>
</svg>
