<?xml version="1.0" encoding="UTF-8" standalone="no"?>
<!-- Created with Inkscape (http://www.inkscape.org/) -->

<svg
   xmlns:dc="http://purl.org/dc/elements/1.1/"
   xmlns:cc="http://creativecommons.org/ns#"
   xmlns:rdf="http://www.w3.org/1999/02/22-rdf-syntax-ns#"
   xmlns:svg="http://www.w3.org/2000/svg"
   xmlns="http://www.w3.org/2000/svg"
   xmlns:sodipodi="http://sodipodi.sourceforge.net/DTD/sodipodi-0.dtd"
   xmlns:inkscape="http://www.inkscape.org/namespaces/inkscape"
   width="1000mm"
   height="1000mm"
   viewBox="0 0 1000 1000"
   version="1.1"
   id="svg8"
   inkscape:version="0.92.1 r"
   sodipodi:docname="bandoneon-glyph.svg">
  <defs
     id="defs2" />
  <sodipodi:namedview
     id="base"
     pagecolor="#ffffff"
     bordercolor="#666666"
     borderopacity="1.0"
     inkscape:pageopacity="0.0"
     inkscape:pageshadow="2"
     inkscape:zoom="0.12374369"
     inkscape:cx="2261.4309"
     inkscape:cy="1302.9893"
     inkscape:document-units="mm"
     inkscape:current-layer="layer1"
     showgrid="false"
     inkscape:window-width="1600"
     inkscape:window-height="1163"
     inkscape:window-x="0"
     inkscape:window-y="0"
     inkscape:window-maximized="1" />
  <metadata
     id="metadata5">
    <rdf:RDF>
      <cc:Work
         rdf:about="">
        <dc:format>image/svg+xml</dc:format>
        <dc:type
           rdf:resource="http://purl.org/dc/dcmitype/StillImage" />
        <dc:title />
      </cc:Work>
    </rdf:RDF>
  </metadata>
  <g
     inkscape:label="Layer 1"
     inkscape:groupmode="layer"
     id="layer1"
     transform="translate(0,703)">
    <path
       style="fill:#000000;stroke:none;stroke-width:1.59785509"
       d="m 504.8607,-446.32316 c -32.51299,14.22957 -59.18634,56.50147 -96.61407,27.17602 -29.54036,-22.39069 -53.88196,-5.53096 -72.45474,20.13142 -8.2022,10.58346 -17.04624,19.22002 -30.9373,12.54743 -27.50648,-8.71403 -63.65508,-7.90271 -73.6075,24.59498 21.84428,27.38822 49.17085,-18.83305 69.23302,15.3155 17.52475,13.32909 34.79913,27.11072 56.61651,32.4721 14.75335,5.4113 72.76627,31.36228 44.85788,-1.35945 -16.18133,-17.03988 -32.99044,-33.46843 -49.50174,-50.18631 9.84446,-10.41783 19.69063,-20.83406 29.53848,-31.24869 23.76811,34.51824 47.5362,69.03649 71.30428,103.55475 21.30914,6.17694 42.12301,1.30344 26.22988,-24.43853 -5.78865,-20.29618 -12.18726,-40.41066 -18.32173,-60.60357 12.93264,-8.64256 25.86527,-17.28513 38.79791,-25.92769 0.80818,35.38353 1.68212,70.76566 2.39691,106.15125 35.02068,19.71471 34.77531,-33.46132 46.10235,-54.14775 2.50079,-19.14004 11.93656,-30.90282 31.24189,-31.68093 21.0787,-8.31268 32.44877,-6.26176 13.75301,14.72434 -12.95848,25.9377 -38.86484,51.32505 -42.67897,78.30771 28.80017,24.27837 50.88899,-18.91033 73.50361,-32.75266 12.81635,-9.98307 24.22158,-23.36313 37.87798,-31.32396 18.24993,-2.20444 42.04723,-3.83506 13.88499,12.91046 -14.66427,27.1103 45.24277,-3.21296 60.92337,-4.14623 24.45542,-1.01519 44.66546,-15.23277 18.89281,-35.21699 -22.82299,-22.809 -66.59727,15.44157 -85.35409,-14.34039 -13.78494,-27.10271 -35.63768,-47.1968 -65.92394,-27.12429 -14.41947,4.45892 -28.80476,9.02744 -43.20847,13.53691 -18.72511,-12.41341 -36.04865,-27.65907 -56.55233,-36.92543 z m -306.84438,87.85082 c -26.01274,2.57814 -51.69733,7.65571 -77.50534,11.71865 14.86215,24.15514 59.68069,21.45201 85.83731,34.83506 30.66434,8.14874 60.69453,20.4947 91.63238,26.81681 34.1224,0.054 68.24479,0.10794 102.36719,0.16191 -15.39981,-23.31442 -57.14303,-21.78157 -81.72871,-35.43789 -40.1005,-12.94377 -79.80778,-27.5181 -120.60283,-38.09454 z m 603.0218,0.006 c -66.82359,20.00893 -133.58515,41.24011 -198.68344,66.23856 -9.29743,13.72796 18.31793,4.74387 26.01747,7.29514 26.63506,-0.77639 53.74168,1.61767 80.07913,-1.15965 56.45707,-17.93153 113.99725,-32.94435 169.52283,-53.43307 6.42311,-13.26926 -19.02949,-7.43782 -26.81875,-11.67591 -16.6645,-2.65619 -33.31002,-5.67343 -50.11724,-7.26507 z m -698.3969,30.32478 c -20.998732,13.85175 -36.033692,35.54917 -54.036837,53.21294 l 0.04992,187.32355 c 13.255736,23.997785 26.510859,47.995909 39.765369,71.994371 C 145.944,2.365119 202.73299,23.091873 261.12223,37.989224 c 41.03356,4.432047 82.73038,-1.301743 124.10074,-0.950403 24.72725,-12.911188 48.31768,-33.9071778 77.81507,-38.0925141 41.85871,-3.8408117 87.17799,-5.025265 123.34735,20.2713341 13.93325,9.0021 25.93823,21.945553 43.9184,18.275657 47.91932,-0.106469 97.54373,9.610418 143.27302,-9.175093 46.11345,-14.100487 91.90038,-29.23645991 137.82874,-43.922676 12.97497,-24.991227 28.66165,-49.285697 39.99007,-74.700561 V -274.59743 c -18.21378,-17.69152 -33.01222,-40.32388 -54.56428,-53.48444 -68.80877,17.84743 -136.54384,39.63129 -204.90306,59.12064 -8.08504,20.34675 -20.16963,40.28096 -24.95088,61.50659 V 7.4676982 C 649.17709,12.953375 652.14745,-2.331625 652.59671,-15.095517 V -213.18923 c -11.88475,-17.82859 -21.34873,-38.67248 -34.69825,-54.67783 -11.71612,-2.86734 -40.90962,-18.15706 -37.20525,2.77042 -0.48538,80.75864 1.20401,161.58264 -1.24167,242.290027 -27.59285,-1.080517 -63.17325,-17.640732 -94.72396,-11.596237 -23.68055,-4.547644 -75.49545,36.1529955 -65.13615,-10.643006 -0.51346,-76.767364 -0.19186,-153.537944 -0.28156,-230.306794 -14.65518,1.00434 -35.64763,0.81182 -43.41632,15.08348 -9.1017,16.38047 -21.17274,31.92765 -28.48716,48.80969 V 7.4676982 c -17.80171,5.4856678 -14.8274,-9.7993347 -14.37486,-22.5632142 0.0161,-65.181335 0.0346,-130.362674 0.0535,-195.544004 -8.08648,-19.28582 -16.17354,-38.57139 -24.26118,-57.85672 -68.68863,-19.99757 -137.00851,-41.41026 -206.18262,-59.64532 z m 754.76187,63.58963 c 47.16037,13.04209 81.19604,65.16009 70.33159,114.05799 -8.3486,36.33817 -24.09863,80.20441 -50.72988,103.95654 -34.48874,-21.393887 31.83573,-50.122427 29.13698,-81.69338 14.55137,-50.08827 -21.84349,-98.09143 -62.46404,-123.39748 1.80074,-6.11765 6.5008,-13.23082 13.72535,-12.92367 z m -370.98327,0.38387 v 222.101859 c 9.06013,-3.110824 31.12792,6.786013 30.35925,-6.153604 V -264.16767 c -10.11975,8e-5 -20.2395,-5e-5 -30.35925,-3.9e-4 z m 302.27236,0.006 c 34.5298,-9.84414 23.19978,45.359 0.39636,17.57954 -2.3103,-5.03035 -9.0971,-15.17329 -0.39636,-17.57954 z m -664.62659,1.76934 c 32.74391,16.41594 -2.28229,54.72425 0.73339,81.59123 -7.26409,42.16418 -1.42314,84.860674 7.73347,126.077988 C 105.03831,-34.38249 99.294867,-99.39716 94.327891,-119.1037 86.395616,-167.2825 88.425888,-223.82504 122.25097,-261.97756 l 1.81462,-0.41528 z m 102.20032,5.15559 c 23.3408,9.7823 -5.8011,34.39158 -18.5345,23.49656 -24.27146,7.95612 -12.41695,-30.03527 9.83366,-21.8519 2.57155,3.09034 5.59478,-2.21342 8.70084,-1.64466 z m 239.81556,1.05796 c -18.72696,0.93767 -31.31663,9.53233 -25.99947,28.77902 v 190.127904 c 13.39462,-2.331671 36.96682,-3.423537 30.35926,-22.778213 V -256.17823 c -1.45326,-3.1e-4 -2.90653,-6.3e-4 -4.35979,-9.4e-4 z m 69.87183,0 v 210.552507 c 12.4511,4.750716 37.28617,17.789122 30.35926,-6.00408 V -247.82096 c -9.91221,-3.29825 -19.68735,-8.62604 -30.35926,-8.35821 z m 241.34479,12.62679 c 17.47198,0.22986 21.42533,18.8498 17.89166,22.9723 25.4781,8.67739 -6.44276,33.10837 -13.98436,14.86129 -3.40678,15.19696 33.57057,21.71303 13.11065,38.67933 -14.25289,13.30567 -37.91376,-32.65362 -24.91107,-8.2982 2.39303,24.58849 35.88673,13.05042 30.59331,39.77163 -19.27249,18.94114 -35.30919,-18.51566 -48.29455,-27.5349 4.21015,9.21647 15.86067,33.39992 31.6856,36.92855 2.33673,7.87114 26.14675,23.59265 3.49531,29.064107 -15.49086,-14.324437 -36.03146,-23.662527 -43.92236,-41.082357 -2.99292,-11.79131 -26.40616,-26.64578 -9.39688,-38.24162 24.30581,7.10774 4.47166,-4.0927 8.52325,-19.45192 -15.07374,-9.27315 -4.1158,-32.697 8.75221,-22.99079 -14.64591,-20.5952 12.74576,-25.66397 19.43819,-17.87311 0.33018,-3.64559 2.68116,-7.69318 7.01904,-6.80431 z m -26.97316,79.39966 c -1.92805,-10.84825 -9.01076,-11.46686 0,0 z m -504.12329,-63.04973 c 22.46737,8.50846 4.74169,33.38607 -11.94812,29.21837 -11.78921,7.4488 -15.6394,-4.11305 -27.8235,2.68884 -19.95501,-26.05929 23.44176,-20.02163 33.2178,-31.03332 l 6.5537,-0.87383 z m 18.13192,24.27367 c 21.75338,7.1867 -6.10167,20.53786 -7.6491,31.90404 -14.32316,7.16007 -18.01686,0.39824 -29.71948,10.48907 -10.31961,6.49218 -35.00367,-22.11224 -5.16099,-26.22418 17.61667,11.99598 22.97252,-18.77145 42.52957,-16.16893 z m 13.97187,19.43952 c 15.48425,15.06813 -7.78463,30.93278 -16.39049,38.54597 -8.72579,13.10384 -23.51835,6.26819 -32.55941,8.65628 -17.75929,19.73046 -25.75631,-31.07904 1.79831,-16.33382 16.27344,-9.24766 21.48517,-8.21103 35.13336,-24.31462 5.02253,-0.34433 3.74283,-8.82285 12.01823,-6.55381 z m 11.60004,20.29152 c 15.45326,15.30149 -4.58573,36.74214 -16.17829,46.57179 -12.40706,13.72893 -26.30094,10.95899 -41.13961,16.2831 -1.55465,-9.98128 -19.57115,11.16125 -19.39163,-12.35088 2.26275,-24.39439 31.16177,-0.89211 43.48535,-15.95046 13.33539,-13.22764 16.07499,-24.10073 33.22418,-34.55355 z m 438.08382,27.36637 c 19.3156,6.37013 31.63294,26.79617 44.91784,38.716784 13.61025,6.983859 48.00727,24.623019 14.85818,31.907184 -20.41283,-10.380545 -37.3143,-29.599613 -55.30702,-38.947248 2.41602,-11.10539 -22.84258,-21.93018 -4.469,-31.67672 z m -437.06018,15.20149 c 18.95173,9.12977 -0.03,26.964584 -12.37402,31.476482 -8.27027,10.470836 -24.15171,17.327181 -35.76659,10.970611 -8.89378,7.116439 -41.73056,8.412869 -24.79899,-15.096324 15.24901,-7.112229 28.62091,2.919367 40.95988,-9.049589 10.6556,-5.90704 19.24779,-16.607 31.97972,-18.30118 z m 436.96968,25.475176 c 26.99556,11.7202 52.67166,31.727319 79.76168,39.556261 1.53838,31.799334 -43.14466,5.207128 -57.68819,-0.876975 -9.802,-10.990185 -35.91583,-21.962938 -23.98572,-38.558676 l 1.91223,-0.120559 z m -433.9269,4.487722 c 24.8307,21.275161 -22.34067,45.988342 -40.28445,39.166827 -16.11374,0.483446 -45.56572,12.174703 -42.98196,-11.91952 12.58516,-13.99759 30.85944,4.206117 48.10111,-9.449328 15.69506,0.626828 21.04748,-13.901699 35.1653,-17.797979 z m 441.82255,29.223267 c 20.97921,14.222018 44.67326,28.533375 72.50891,24.205016 21.93344,12.46519 -10.15311,22.23948 -17.48276,18.35662 -15.84625,-0.846833 -27.26532,-11.625873 -21.84568,13.7721402 -11.90907,27.1917178 -45.00295,-23.2501162 -12.45506,-17.0450912 4.1141,-7.76007 -38.33099,-15.556852 -28.41491,-35.187135 2.29529,-1.641131 4.76126,-3.744611 7.6895,-4.10155 z m 24.41096,39.287887 c 9.48055,3.338 6.50822,-0.912814 0,0 z M 286.57869,-54.199539 c 31.25563,7.778249 -7.75987,29.44207 -17.36419,28.221494 -15.3834,4.583665 -25.60586,2.452569 -38.64991,9.264373 -9.03164,-6.133042 -32.57935,-3.502973 -21.7875,-24.417089 19.68903,1.806106 34.35111,-7.923522 57.61225,-3.792888 5.04625,-8.924653 13.88352,-3.432015 20.18935,-9.27589 z"
       id="path3691"
       inkscape:connector-curvature="0"
       sodipodi:nodetypes="cccccccccccccccccccccccccccccccccccccccccccccccccccccccccccccccccccccccccccccccccccccccccccccccccccccccccccccccccccccccccccccccccccccccccccccccccccccccccccccccccccccccccccccccccccccccccccc" />
  </g>
</svg>
