<?xml version="1.0" encoding="UTF-8" standalone="no"?>
<!-- Created with Inkscape (http://www.inkscape.org/) -->

<svg
   xmlns:dc="http://purl.org/dc/elements/1.1/"
   xmlns:cc="http://creativecommons.org/ns#"
   xmlns:rdf="http://www.w3.org/1999/02/22-rdf-syntax-ns#"
   xmlns:svg="http://www.w3.org/2000/svg"
   xmlns="http://www.w3.org/2000/svg"
   xmlns:sodipodi="http://sodipodi.sourceforge.net/DTD/sodipodi-0.dtd"
   xmlns:inkscape="http://www.inkscape.org/namespaces/inkscape"
   width="75.08931mm"
   height="79.278412mm"
   viewBox="0 0 75.08931 79.278412"
   version="1.1"
   id="svg915"
   inkscape:version="0.92.1 r"
   sodipodi:docname="bandoneon-left-bg.svg"
   inkscape:export-filename="../../picts/bandoneon-left.png"
   inkscape:export-xdpi="346.34143"
   inkscape:export-ydpi="346.34143">
  <defs
     id="defs909" />
  <sodipodi:namedview
     id="base"
     pagecolor="#ffffff"
     bordercolor="#666666"
     borderopacity="1.0"
     inkscape:pageopacity="0.0"
     inkscape:pageshadow="2"
     inkscape:zoom="1.4"
     inkscape:cx="5.9591865"
     inkscape:cy="239.44499"
     inkscape:document-units="mm"
     inkscape:current-layer="layer1"
     showgrid="false"
     inkscape:window-width="1920"
     inkscape:window-height="1039"
     inkscape:window-x="0"
     inkscape:window-y="0"
     inkscape:window-maximized="1"
     fit-margin-top="0"
     fit-margin-left="0"
     fit-margin-right="0"
     fit-margin-bottom="0" />
  <metadata
     id="metadata912">
    <rdf:RDF>
      <cc:Work
         rdf:about="">
        <dc:format>image/svg+xml</dc:format>
        <dc:type
           rdf:resource="http://purl.org/dc/dcmitype/StillImage" />
        <dc:title></dc:title>
      </cc:Work>
    </rdf:RDF>
  </metadata>
  <g
     inkscape:label="Layer 1"
     inkscape:groupmode="layer"
     id="layer1"
     transform="translate(18.827545,-177.8963)">
    <g
       id="g1479"
       transform="matrix(-0.4751272,-1.3200199,1.1261719,0.0611598,-223.39355,217.83108)">
      <path
         d="m -7.8504438,176.66563 -6.0796302,1.85251 -5.338233,9.70562 4.12496,41.00689 5.5806616,9.94833 2.1837786,0.97056 0.242641,3.1544 0.970562,2.18377 1.698498,2.42641 3.88224897,1.6985 5.82337303,1.21322 3.154398,-1.45585 5.3382308,3.39711 -0.48528,1.45584 0.151836,0.69752 1.304007,1.24361 h 2.426407 l 1.455843,-0.97056 4.85281,3.63953 12.132167,0.48528 4.455486,-2.92068 -2.366434,-58.79818 C 22.290416,191.04055 7.516609,183.22871 -7.8504438,176.66563 Z"
         inkscape:connector-curvature="0"
         style="fill:#000000;fill-rule:evenodd;stroke:#000000;stroke-width:0.36406666px"
         sodipodi:nodetypes="ccccccccccccccccccccccc"
         id="path2492" />
      <path
         d="m 22.550534,257.67187 5.460997,-4.00473 -1.6383,-42.41518 -6.917264,-11.4681 -33.677577,-16.01893 -5.096933,4.55083 5.461,-10.01183 v 4.00473 l 34.769777,16.74707 7.099297,11.65013 1.456267,45.14427 -5.552157,3.18544 -1.36525,-1.36525 z"
         inkscape:connector-curvature="0"
         style="fill:#cccccc;fill-rule:evenodd;stroke:#000000;stroke-width:0.36406666px"
         id="path2500" />
      <path
         d="m 38.569464,257.48843 -2.002366,-58.9788 -46.4199078,-21.2979 2.002366,-0.5461 45.5083308,20.93383 2.366434,58.79818"
         inkscape:connector-curvature="0"
         style="fill:#cccccc;fill-rule:evenodd;stroke:#000000;stroke-width:0.36406666px"
         id="path2502" />
      <path
         inkscape:connector-curvature="0"
         sodipodi:nodetypes="csssscccsssssscccsssssssssssssssssccccsssssssssccsssssssssssssssssssssssssssssssssssssssssssssssssssssccssssssssssscccccsssscccsssccsssccsssccsssssccsssccsssssssssc"
         d="m 25.245754,201.98378 0.02249,0.005 c -0.02855,0.20292 -0.04959,0.43211 0.08807,0.56095 0.133983,0.1502 0.381479,0.14749 0.60579,0.14484 0.123894,-0.005 0.262734,-0.0288 0.398553,0.0139 0.03455,0.0115 0.05259,0.0496 0.03619,0.099 h -3e-6 c -0.03191,0.0365 -0.07006,0.0543 -0.09959,0.068 -0.207521,0.10302 -0.26166,0.45952 -0.07033,0.58849 0.09786,0.0824 0.262837,0.007 0.391414,-0.0692 0.06854,-0.0448 0.143962,-0.0837 0.226624,-0.10453 0.04273,-0.019 0.114286,-0.0257 0.165438,0.0301 0.02847,0.0712 -0.01273,0.13189 -0.05561,0.15681 -0.07617,0.0627 -0.164828,0.10264 -0.250741,0.13753 -0.102954,0.044 -0.209634,0.08 -0.268631,0.15807 -0.04657,0.0537 -0.045,0.14015 -0.03988,0.22411 v 1e-5 c 0.0096,0.0802 0.01032,0.16286 0.0588,0.2027 0.04369,0.0467 0.127651,0.0431 0.209386,0.0487 h 3e-6 c 0.07779,-5e-5 0.174678,9e-5 0.247745,0.0628 0.06372,0.0661 0.06592,0.15823 0.06414,0.23141 -0.0071,0.28268 0.39607,0.40318 0.62258,0.22527 0.246324,-0.21285 0.492226,-0.42565 0.737674,-0.63838 0.09971,0.0462 0.199247,0.0921 0.29862,0.1378 -0.306832,0.19758 -0.613892,0.39441 -0.921174,0.59052 -0.170746,0.25068 -0.302768,0.54977 -0.261964,0.84684 0.02413,0.19401 0.211754,0.35331 0.403776,0.31849 0.1603,-0.0272 0.32382,-0.0424 0.486888,-0.0346 0.137774,0.005 0.299297,-0.0403 0.339598,-0.16614 0.05175,-0.14321 -0.03914,-0.30376 -0.139562,-0.4272 -0.07152,-0.0832 -0.183777,-0.1719 -0.17281,-0.29301 0.01696,-0.11464 0.145047,-0.16535 0.233254,-0.22022 h 3e-6 c 0.08205,-0.054 0.169886,-0.11924 0.273457,-0.1226 0.07379,-6e-5 0.13044,0.0573 0.167222,0.11563 0.0573,0.0853 0.154162,0.17222 0.2481,0.14344 0.48246,-0.13886 1.06398,-0.42384 1.474782,-0.1251 0.108363,0.079 0.266129,0.10986 0.339794,-5.3e-4 0.302882,-0.44258 0.540427,-0.97951 1.002342,-1.25338 0.118142,-0.07 0.153855,-0.22077 0.117224,-0.35359 -0.103585,-0.37541 -0.319421,-0.70945 -0.504783,-1.0515 -0.146336,-0.27022 -0.306155,-0.53851 -0.387323,-0.83355 -0.0059,-0.0229 -0.0154,-0.0455 -0.0089,-0.0644 h -3e-6 c -0.0033,-0.007 0.01019,10e-4 0.01953,0.006 h 3e-6 c 0.07949,0.0637 0.128447,0.15912 0.18528,0.24661 h 2e-6 c 0.05404,0.0847 0.109517,0.18611 0.209833,0.21867 0.09509,0.0285 0.191564,-0.0246 0.275432,-0.0673 0.131746,-0.0646 0.268629,-0.16961 0.280675,-0.32069 0.01061,-0.1728 -0.111525,-0.32176 -0.226592,-0.4443 -0.101751,-0.1133 -0.219234,-0.27231 -0.131175,-0.38456 v 0 c 0.146942,-0.21091 -0.09094,-0.51432 -0.344255,-0.54311 -0.128161,-0.0142 -0.235061,-0.12392 -0.277923,-0.24755 -0.05706,-0.16266 -0.220144,-0.26547 -0.387829,-0.29193 -0.08978,-0.0174 -0.207119,-0.0475 -0.284311,0.0264 v 0 c -0.100441,0.1091 -0.102423,0.26923 -0.129318,0.40222 -0.02684,0.15276 -0.05327,0.30545 -0.07932,0.45805 -0.100502,-0.16497 -0.200517,-0.33003 -0.300059,-0.49519 -0.185414,-0.28544 -0.432448,-0.5262 -0.698047,-0.73646 v 0 c -0.198586,-0.16033 -0.41941,-0.3602 -0.690457,-0.35741 -0.0665,0.009 -0.102169,0.0631 -0.04812,0.11406 0.05581,0.0182 0.05695,0.10637 0.01154,0.14785 -0.06658,0.0657 -0.172704,0.0946 -0.260533,0.0666 -0.16887,-0.0501 -0.348234,0.0218 -0.486156,0.11432 -0.06175,0.0399 -0.125775,0.0752 -0.193452,0.0966 h -3e-6 c -0.04171,0.004 -0.08235,0.0281 -0.07499,0.0121 -0.05034,-0.0515 -0.117615,-0.0362 -0.152794,-0.0181 -0.08024,0.0206 -0.155324,0.0547 -0.225994,0.0934 -0.07929,0.04 -0.18035,0.085 -0.226049,0.18454 -0.03025,0.0886 0.01701,0.17097 0.05977,0.22819 0.06173,0.21396 -0.04701,0.44642 -0.184169,0.63596 -0.05401,0.0744 -0.115895,0.14488 -0.174553,0.22026 -0.01683,0.0209 -0.03616,0.0453 -0.05001,0.077 h -3e-6 c -0.0158,0.0204 -0.01169,0.052 0.01979,0.0784 0.02397,0.0211 0.01124,0.071 -0.0028,0.11822 -0.01894,0.0616 -0.05117,0.12159 -0.07998,0.18638 -0.02445,0.0484 -0.05364,0.11084 -0.04213,0.18379 0.03582,0.0781 0.124196,0.0986 0.191291,0.0884 0.0094,-0.009 0.0089,-0.0319 -0.02977,-0.0424 -0.0035,0.044 -0.02111,0.0899 -0.03688,0.1398 h -3e-6 c -0.05469,0.17008 -0.185809,0.31463 -0.338383,0.41482 h -3e-6 c -0.08543,0.0477 -0.15702,0.12547 -0.211262,0.0968 -0.06015,-0.007 -0.07301,-0.11153 -0.115326,-0.19935 -0.07955,-0.19051 -0.262099,-0.31115 -0.470438,-0.29837 -0.09469,0.005 -0.211563,0.0133 -0.298674,0.0949 -0.08941,0.098 -0.105844,0.22803 -0.124937,0.33511 m 1.190017,0.45461 0.0055,0.0222 c -0.206711,0.0589 -0.420031,0.0912 -0.632939,0.096 -0.0647,1.9e-4 -0.137054,2.6e-4 -0.209089,-0.0245 -0.01696,0.002 -0.04275,-0.0167 -0.05964,-0.0611 l 3e-6,-1e-5 c 0.0065,-0.0498 0.02931,-0.0745 0.04687,-0.0763 v 0 c 0.05384,-0.016 0.01918,-0.12039 -0.01627,-0.19154 -0.121976,-0.1891 -0.02373,-0.48717 0.210015,-0.4626 0.131305,0.0384 0.185928,0.1747 0.169887,0.29648 -0.0091,0.11913 0.01725,0.26375 0.117197,0.28612 0.134561,0.0496 0.291705,-0.0403 0.430474,-0.12651 0.197321,-0.13022 0.382495,-0.28744 0.488696,-0.49171 0.06656,-0.13228 0.09254,-0.30252 0.0019,-0.40598 v 0 c -0.08,-0.0906 -0.111389,-0.24538 -0.0041,-0.33133 0.184973,-0.11804 0.294018,-0.33359 0.392882,-0.54243 0.04868,-0.10493 0.0909,-0.21241 0.114782,-0.3234 0.01283,-0.0746 0.03292,-0.15063 -0.0019,-0.19678 -0.04143,-0.0535 -0.07251,-0.1406 -0.01728,-0.21115 v 0 c 0.106455,-0.10017 0.252172,-0.12681 0.374592,-0.16816 0.222822,-0.0793 0.464735,-0.15943 0.708181,-0.12732 0.130659,0.0173 0.275646,-0.0304 0.357772,-0.1314 0.04998,-0.06 0.128215,-0.0912 0.205436,-0.083 0.100462,0.0123 0.187394,0.0655 0.262329,0.1228 h 3e-6 c 0.269994,0.20344 0.465354,0.48556 0.646176,0.76468 0.160295,0.24226 0.333219,0.51873 0.607229,0.55903 0.116314,0.0158 0.255022,0.0136 0.31273,-0.0761 0.05597,-0.0692 -0.0058,-0.18001 -0.07735,-0.24928 -0.09751,-0.0891 -0.14011,-0.23253 -0.104013,-0.35963 h 3e-6 c 0.0327,-0.11264 0.147465,-0.19524 0.264485,-0.17282 0.110387,0.0268 0.173588,0.1328 0.152601,0.24318 -0.01929,0.0994 -0.02529,0.21358 0.04145,0.27893 0.057,0.0631 0.164007,0.055 0.252367,0.0275 0.09879,-0.036 0.236064,-0.0452 0.3013,0.0496 0.05771,0.10091 -0.0086,0.22173 -0.08207,0.2982 -0.07085,0.0772 -0.08677,0.20288 -1.88e-4,0.25567 0.148749,0.0996 0.315778,0.19952 0.402789,0.36316 0,0 3e-6,0 3e-6,0 0.04632,0.0941 -0.0039,0.20337 -0.08901,0.25849 -0.05805,0.041 -0.139256,0.0936 -0.211029,0.0529 h -3e-6 c -0.09661,-0.0644 -0.123545,-0.18806 -0.163203,-0.28722 -0.03948,-0.0947 -0.07213,-0.19512 -0.14296,-0.26277 -0.03065,-0.0317 -0.0842,-0.0305 -0.122533,-0.005 -0.127522,0.0844 -0.266161,0.19331 -0.262806,0.34039 0.0011,0.2198 0.154483,0.41103 0.275056,0.60158 0.204928,0.32196 0.404762,0.65098 0.543052,1.00739 v 1e-5 c 0.03926,0.10101 0.0758,0.20551 0.08367,0.31453 0.005,0.06 -0.0019,0.13168 -0.05364,0.16769 -0.0775,0.0525 -0.148217,0.11978 -0.189481,0.20318 -0.08696,0.17541 -0.226156,0.32038 -0.349901,0.47046 -0.132996,0.16161 -0.28167,0.32275 -0.347951,0.52042 -0.01206,0.038 -0.03124,0.0919 -0.07279,0.0879 -0.05269,-0.007 -0.08028,-0.065 -0.108103,-0.10833 -0.0513,-0.0793 -0.152022,-0.11064 -0.247008,-0.11212 -0.206549,-0.003 -0.409532,0.0523 -0.610756,0.0998 -0.191167,0.0451 -0.384386,0.0889 -0.580504,0.0943 -0.09166,0.002 -0.204586,0.005 -0.253182,-0.0704 h -3e-6 c -0.06477,-0.0988 -0.207819,-0.10058 -0.321479,-0.0721 -0.22211,0.0549 -0.421018,0.17772 -0.612817,0.30141 l -3e-6,1e-5 c -0.12255,0.0784 -0.256278,0.18328 -0.270632,0.33093 -0.0079,0.10952 0.122407,0.16802 0.229765,0.16471 0.102674,-0.003 0.188618,0.0857 0.238413,0.17791 0.04191,0.0815 0.06556,0.20101 -0.0089,0.24637 h -3e-6 c -0.07638,0.0502 -0.186864,0.0339 -0.261765,-0.02 -0.0836,-0.0608 -0.206018,-0.0687 -0.293455,-0.0122 h -2e-6 c -0.06174,0.0379 -0.158613,0.0627 -0.175689,-0.002 -0.04648,-0.12893 0.0065,-0.27455 0.03971,-0.41295 0.07086,-0.29261 0.314648,-0.50433 0.570709,-0.66833 0.251674,-0.16065 0.515988,-0.30164 0.790223,-0.4193 h 3e-6 c 0.104902,-0.045 0.210954,-0.087 0.320151,-0.11736 0.06366,-0.0166 0.127944,-0.0415 0.182044,-0.0219 0.226202,0.0753 0.468122,0.0882 0.704511,0.0816 h 3e-6 c 0.199556,-0.004 0.417914,-0.007 0.592269,-0.11861 0,-1e-5 3e-6,-1e-5 3e-6,-1e-5 0.255942,-0.16628 0.42023,-0.4717 0.394322,-0.77763 -0.02627,-0.29625 -0.239922,-0.56222 -0.521772,-0.65857 -0.154247,-0.0528 -0.324781,-0.0713 -0.480004,-0.008 h -3e-6 c -0.393983,0.1661 -0.734399,0.43141 -1.087967,0.66136 h -2e-6 c -0.280427,0.18215 -0.558546,0.36864 -0.828294,0.56724 -0.08225,0.0605 -0.164759,0.12199 -0.243023,0.18965 v 0 c -0.02146,0.0184 -0.04371,0.0381 -0.06407,0.0612 -0.01183,-0.002 -0.0265,0.0214 -0.01767,0.0658 0.0051,-0.0144 -0.0098,-0.008 -0.01516,0.0104 -0.02048,0.0251 -0.04735,0.0467 -0.07552,0.0689 -0.0907,0.0709 -0.19073,0.13049 -0.29337,0.1862 -0.09934,0.0535 -0.200811,0.10227 -0.307399,0.12442 v 1e-5 c -0.05423,0.006 -0.111087,0.0232 -0.124576,-0.005 v -1e-5 c -0.02201,-0.006 0.01225,-0.0467 0.03316,-0.086 0.06222,-0.0802 0.149693,-0.141 0.239268,-0.19972 0.08759,-0.0537 0.199424,-0.11101 0.247052,-0.22505 0.03017,-0.0993 -0.02458,-0.19059 -0.07254,-0.25639 -0.04148,-0.0727 -0.106206,-0.16256 -0.213728,-0.16988 -0.139184,0.005 -0.247276,0.0975 -0.344762,0.16377 h -3e-6 c -0.08723,0.0565 -0.17875,0.1057 -0.275296,0.13831 -0.06223,0.0139 -0.121547,0.0475 -0.140497,0.0194 h -2e-6 c -0.0222,0.01 0.01789,-0.0306 0.03789,-0.0689 0.07122,-0.0779 0.164407,-0.13699 0.25908,-0.19621 0.113149,-0.0673 0.257405,-0.13057 0.331105,-0.26697 0.04687,-0.11104 -0.0069,-0.22222 -0.05306,-0.30364 h -3e-6 c -0.03153,-0.0811 -0.08256,-0.19997 -0.205147,-0.2192 -0.153934,-0.001 -0.268668,0.1092 -0.370332,0.17966 -0.09555,0.0611 -0.186648,0.12528 -0.286258,0.1496 v 0 c -0.0316,0.005 -0.07254,0.001 -0.06401,-0.0179 -0.01577,-0.0526 0.03262,-0.12128 0.08842,-0.13811 0.145675,-0.0429 0.304491,-0.0974 0.417547,-0.21978 0.07691,-0.0897 0.0886,-0.21698 0.04056,-0.32117 -0.09743,-0.17957 -0.319955,-0.20196 -0.497586,-0.15415 m 0.470493,-0.20683 0.02244,0.005 c 0.0019,0.002 0.02328,0.0186 0.03858,0.0496 0.01752,0.0438 0.03911,0.0869 0.06166,0.13065 0.06671,0.12903 0.141415,0.2544 0.219758,0.37789 0.09656,0.15208 0.18121,0.30856 0.282985,0.45057 0.05923,0.0737 0.118528,0.15794 0.188214,0.14672 0.03358,-0.002 0.06456,-0.005 0.08833,-0.0162 v -1e-5 c 0.0049,-0.0173 0.01646,-0.01 0.0054,0.0231 0.03551,-0.0148 -0.01609,0.0422 -0.06902,0.0516 -0.03141,0.0174 -0.04465,0.062 -0.02946,0.0956 0.0286,0.0777 0.0861,0.14751 0.136708,0.22639 0.05105,0.0903 0.102385,0.18071 0.154021,0.27116 0.342308,-0.22966 0.685716,-0.45906 1.030224,-0.68826 0.271656,-0.17586 0.537972,-0.35992 0.794232,-0.55705 0.150844,-0.11708 0.318064,-0.21817 0.414867,-0.37129 0.07684,-0.12204 0.136072,-0.26315 0.115937,-0.40061 -0.01214,-0.0919 -0.09127,-0.17465 -0.1828,-0.17639 -0.03943,0.002 -0.09921,0.006 -0.13743,-0.0396 v 0 c -0.02394,-0.0511 0.0085,-0.0977 0.03277,-0.12277 0.05152,-0.0686 0.02635,-0.1746 -0.02193,-0.25377 h -3e-6 c -0.06025,-0.0949 -0.158485,-0.16761 -0.268168,-0.19092 -0.120999,-0.0288 -0.245383,0.0663 -0.370277,0.1252 -0.252573,0.12322 -0.494424,0.2684 -0.733522,0.41777 -0.432703,0.30198 -0.863884,0.60469 -1.293509,0.90814 -0.0038,-0.0175 -0.0075,-0.0351 -0.01124,-0.0526 -0.01267,-0.008 -0.02535,-0.0157 -0.03804,-0.0236 0.407472,-0.29275 0.815113,-0.58389 1.222868,-0.87337 0.295121,-0.21951 0.625914,-0.42486 0.80075,-0.74933 0.100248,-0.18685 0.03613,-0.41712 -0.07922,-0.59484 -0.08933,-0.13843 -0.19775,-0.28004 -0.35605,-0.33387 -0.163769,-0.0547 -0.342196,-0.008 -0.504219,0.0444 h -3e-6 c -0.361526,0.11613 -0.67705,0.43299 -0.647192,0.81622 0.0072,0.088 0.01749,0.17743 0.04535,0.26299 0.0089,0.0375 0.02614,0.0914 0.07641,0.10219 0.04955,-7.9e-4 0.07214,-0.0518 0.08042,-0.0868 0.02953,-0.0818 0.03984,-0.1683 0.04759,-0.2529 0.0263,-0.27162 0.155514,-0.5575 0.400643,-0.66373 0.209489,-0.095 0.468265,0.0223 0.600345,0.21331 0.116332,0.16879 0.141253,0.39889 0.02752,0.56478 -0.228192,0.34256 -0.605366,0.55894 -0.953262,0.79528 v 0 c -0.209806,0.14187 -0.422375,0.27925 -0.64372,0.39991 h -3e-6 c -0.06668,0.0363 -0.132797,0.0716 -0.201356,0.0979 -0.04102,0.002 -0.07097,0.0342 -0.05022,0.0253 -0.0047,0.004 0.0048,-0.008 0.0084,-0.0271 0.01233,-0.029 0.03199,-0.0564 0.05306,-0.0848 0.06162,-0.082 0.134676,-0.15621 0.210876,-0.22796 0.08108,-0.0762 0.165629,-0.14811 0.256056,-0.21079 0.06407,-0.0415 0.120928,-0.091 0.178392,-0.0888 0.05033,-0.0162 0.06948,-0.0515 0.06445,-0.0764 0.0052,-0.0446 0.0024,-0.0867 5.29e-4,-0.12551 -0.0049,-0.13769 -0.0061,-0.27461 0.01156,-0.40829 0.01117,-0.0139 0.0072,-0.0483 -0.03005,-0.0841 -0.04504,-0.0108 -0.07407,7.9e-4 -0.08147,0.0149 -0.06245,0.0432 -0.108219,0.10005 -0.150582,0.15209 -0.11032,0.13265 -0.217075,0.2741 -0.291618,0.43521 -0.05659,0.12569 -0.175475,0.22115 -0.298112,0.30356 -0.06261,0.041 -0.122896,0.0867 -0.178501,0.13838 -0.03204,0.0249 -0.0767,0.0623 -0.0954,0.12703 m 1.92388,0.17213 c -0.279249,0.16853 -0.560466,0.33799 -0.856403,0.47955 -0.07661,0.0368 -0.155548,0.0733 -0.239845,0.0968 -0.03504,0.0139 -0.08848,0.0284 -0.13489,-0.002 -0.05875,-0.0622 -0.02238,-0.14609 0.02932,-0.195 0.219157,-0.22142 0.49657,-0.36847 0.758248,-0.52962 0.36195,-0.22307 0.713825,-0.46583 1.091494,-0.65814 0.07215,-0.0362 0.143751,-0.0757 0.217517,-0.0775 0.03641,-0.002 0.07249,0.0201 0.09196,0.0517 v 1e-5 c 0.01304,0.0166 0.0063,0.0448 -0.0065,0.0673 -0.03152,0.0527 -0.08481,0.0925 -0.138002,0.1347 -0.268197,0.20926 -0.567182,0.37693 -0.861652,0.55473 m 0.358394,0.82988 c -0.273871,0.1723 -0.545677,0.3582 -0.844606,0.49366 -0.08529,0.0471 -0.222829,0.0929 -0.295995,-2.6e-4 -0.01886,-0.0384 -0.0068,-0.0764 0.01151,-0.10046 0.02846,-0.0448 0.06635,-0.08 0.103473,-0.11251 v 0 c 0.126992,-0.11204 0.268094,-0.20456 0.408038,-0.29645 0.412072,-0.27066 0.836787,-0.52011 1.25205,-0.78587 0.07337,-0.0473 0.15757,-0.0739 0.242732,-0.10282 0.03716,-0.0123 0.07317,-0.0247 0.10781,-0.0243 0.01244,0.003 0.02684,0.004 0.01955,0.005 0.01278,0.0533 -0.06413,0.0966 -0.115009,0.15364 -0.276712,0.27302 -0.607933,0.48483 -0.939686,0.69368 m -0.434577,-0.22566 c 0,0 0.01254,0.0189 0.01254,0.0189 -0.244269,0.16843 -0.499251,0.32537 -0.771258,0.44498 -0.03882,0.0184 -0.08839,0.0405 -0.144497,0.0319 -0.03763,-0.0136 -0.05364,-0.0478 -0.04585,-0.0796 0.02299,-0.0861 0.08925,-0.14682 0.150889,-0.19568 0.166349,-0.13589 0.376203,-0.19223 0.55962,-0.28673 0.228759,-0.11805 0.440436,-0.2696 0.658818,-0.4081 0.255209,-0.16185 0.507492,-0.33 0.775377,-0.46719 0.02458,-0.0165 0.04624,-0.0367 0.06946,-0.0449 0.0071,-0.003 0.0024,0.01 -0.0039,0.0166 -0.02738,0.0393 -0.05833,0.0816 -0.0635,0.13197 -5.29e-4,0.006 -0.0078,0.0107 -0.01297,0.0153 -0.0082,0.007 -0.01775,0.0128 -0.02772,0.0191 -0.03714,0.0297 -0.07617,0.0575 -0.115609,0.0853 -0.12065,0.0851 -0.243965,0.16666 -0.367933,0.24755 -0.229838,0.1499 -0.456099,0.30452 -0.69551,0.43022 m -1.115819,1.347 0.01169,0.0179 c -0.06734,0.0577 -0.184094,0.0674 -0.229846,-0.006 -0.03049,-0.0588 -0.0078,-0.13246 0.04185,-0.15735 0.06264,-0.0317 0.137515,-0.0132 0.192421,0.0196 0.04017,0.0112 -0.0078,0.0697 -0.04118,0.0879 m 1.785874,-0.0888 c -0.1372,0.1238 -0.302345,0.19879 -0.457396,0.27741 -0.09082,0.0508 -0.214863,0.0782 -0.315214,0.0165 -0.05993,-0.0372 -0.08112,-0.12387 -0.02344,-0.17991 0.316738,-0.22186 0.627999,-0.45251 0.941493,-0.68012 0.242422,-0.17624 0.476475,-0.37722 0.754012,-0.49516 0.149995,-0.0635 0.317416,-0.0518 0.476954,-0.0275 0.127262,0.0195 0.272606,0.0166 0.362882,0.10234 0.07728,0.0705 0.06679,0.19506 0.07509,0.30516 0.0149,0.2205 -0.105304,0.4228 -0.290632,0.53927 -0.07845,0.0492 -0.157636,0.0978 -0.243038,0.11391 -0.03936,0.005 -0.08677,1e-4 -0.09032,-0.0283 -0.0149,-0.0613 -0.0836,-0.12636 -0.158552,-0.0856 -0.144422,0.13162 -0.368244,0.11819 -0.5321,0.0101 -0.07734,-0.0535 -0.172459,-0.1113 -0.285412,-0.10208 -0.117761,0.0177 -0.205272,0.098 -0.277013,0.16708"
         style="fill:#ffffff;stroke-width:0.28222221"
         id="path2690"
         inkscape:original-d="m 238.06817,430.52949 c 0.23769,-1.1761 0.37138,-1.31419 1.35529,-1.39998 0.89084,-0.0777 1.16912,0.0984 1.5132,0.95749 0.38719,0.96677 0.49955,1.00175 1.37693,0.42901 0.52542,-0.34302 1.08916,-1.04 1.25276,-1.54886 0.1636,-0.50886 0.18301,-0.73023 0.0431,-0.49191 -1.27349,0.003 0.38501,-1.47081 -0.0993,-2.04202 -0.37206,-0.16471 1.90788,-1.73631 1.4099,-3.53114 -0.41239,-0.6317 -0.32837,-0.83723 0.53648,-1.31229 0.56399,-0.30979 1.10075,-0.44791 1.1928,-0.30692 0.092,0.14099 0.58898,-0.0189 1.10433,-0.35533 0.51534,-0.33643 1.24996,-0.51496 1.6325,-0.39675 0.77241,0.23869 1.64249,-0.62548 0.95478,-0.94829 -0.26404,-0.12394 -0.21264,-0.20941 0.13103,-0.21793 1.05402,-0.0261 3.69882,2.05808 4.85071,3.82254 l 1.13515,1.73887 0.34378,-1.63661 c 0.33522,-1.59598 0.3697,-1.63252 1.38786,-1.47112 0.68552,0.10867 1.14203,0.44913 1.32926,0.99139 0.16902,0.48957 0.58985,0.86091 1.03335,0.91185 0.9713,0.11157 1.6635,1.18566 1.18795,1.84334 -0.26713,0.36947 -0.13434,0.76893 0.47176,1.41891 1.11872,1.19979 1.06372,2.03078 -0.17555,2.65205 -0.87801,0.44014 -1.10017,0.37122 -1.68145,-0.52169 -1.30421,-2.00353 -0.88251,-0.4889 0.64259,2.30798 2.07668,3.80843 2.2565,4.4533 1.38639,4.9724 -0.60983,0.36381 -1.62888,1.6453 -3.53843,4.4497 -0.30363,0.44591 -0.62616,0.44833 -1.22954,0.009 -0.7308,-0.53187 -2.20047,-0.40181 -5.20391,0.46048 -0.26887,0.0772 -0.68317,-0.1573 -0.92067,-0.52109 -0.34678,-0.53121 -0.64335,-0.52336 -1.50609,0.0398 -1.0354,0.67595 -1.04264,0.73929 -0.19977,1.75108 0.98502,1.1824 0.61866,2.25418 -0.74928,2.192 -0.42486,-0.0193 -1.19524,0.0376 -1.71192,0.1264 -1.76258,0.30301 -2.07451,-2.0378 -0.56581,-4.24601 l 3.27643,-2.03406 -1.00514,-0.41514 -2.56246,2.26311 c -1.13889,0.87878 -2.35354,0.43289 -2.37982,-0.8736 -0.0153,-0.76065 -0.16846,-0.90327 -0.99912,-0.9304 -0.83185,-0.0272 -0.99381,-0.17843 -1.06497,-0.99455 -0.0702,-0.80484 0.12046,-1.0472 1.16387,-1.47964 0.77352,-0.3206 1.16331,-0.64651 1.02556,-0.85753 -0.12221,-0.18721 -0.66638,-0.0504 -1.20927,0.30401 -0.61348,0.40048 -1.19608,0.49327 -1.53923,0.24514 -0.81385,-0.58846 -0.6731,-1.83487 0.26242,-2.32394 0.63707,-0.33302 0.39176,-0.41296 -1.11576,-0.36362 -2.24355,0.0734 -2.94728,-0.66452 -2.54271,-2.66639 z m 4.05743,1.57861 c 0.92495,-0.22922 1.31324,-0.11734 1.58056,0.45543 0.34225,0.73327 -0.14462,1.27744 -1.5248,1.70425 -0.29222,0.0904 -0.47887,0.39128 -0.4148,0.66874 0.0813,0.35223 0.52419,0.23827 1.46769,-0.37768 1.28198,-0.83689 1.37592,-0.83276 1.83277,0.0806 0.44455,0.88877 0.37306,1.03038 -0.93075,1.84361 -0.88268,0.55054 -1.28103,0.98473 -1.06223,1.15782 0.19253,0.15234 0.92371,-0.0975 1.62486,-0.55525 1.14272,-0.746 1.32986,-0.74788 1.80622,-0.0182 0.46307,0.70935 0.38845,0.90739 -0.58017,1.53972 -1.7168,1.12077 -1.14309,1.78121 0.68282,0.7861 0.8569,-0.46699 1.48554,-0.96003 1.39701,-1.09564 -0.0885,-0.13561 1.73327,-1.48316 4.04844,-2.99454 4.18792,-2.73398 4.21588,-2.74581 5.47804,-2.31922 2.1991,0.74324 2.45691,3.64054 0.44105,4.95654 -0.7562,0.49367 -3.23425,0.56655 -4.54087,0.13358 -0.49876,-0.16529 -2.80783,0.83152 -4.62123,1.99494 -1.36544,0.87603 -1.78497,1.37033 -2.03428,2.39688 -0.35924,1.47922 -0.18303,1.97455 0.53559,1.50542 0.27427,-0.17904 0.72648,-0.16079 1.00493,0.0405 0.27847,0.20133 0.7104,0.23282 0.95987,0.07 0.5183,-0.33837 -0.13841,-1.56593 -0.82859,-1.54883 -1.1276,0.028 -1.04018,-0.94614 0.15436,-1.71978 1.7782,-1.15165 2.89717,-1.43075 3.2947,-0.82182 0.23713,0.36325 1.18691,0.33505 2.96115,-0.0879 2.05071,-0.48885 2.70488,-0.48044 3.04406,0.0391 0.31639,0.48464 0.48452,0.50417 0.62816,0.073 0.10785,-0.32383 0.66155,-1.15626 1.2304,-1.84986 0.56885,-0.69361 1.12416,-1.44354 1.234,-1.66652 0.10986,-0.22298 0.41412,-0.55091 0.67614,-0.72872 0.56873,-0.3859 -0.20004,-2.3546 -2.04752,-5.24344 -1.30435,-2.03954 -1.31025,-2.56113 -0.0385,-3.39139 0.36827,-0.24042 0.59702,-0.0205 1.00675,0.96812 0.47705,1.15101 0.60292,1.23177 1.25563,0.80567 0.73826,-0.48196 0.42377,-1.0773 -1.11609,-2.1128 -0.39543,-0.26591 -0.39902,-0.56679 -0.0118,-0.99368 0.70934,-0.78207 0.28097,-1.46246 -0.71183,-1.1306 -0.8592,0.28719 -1.33206,-0.19896 -1.12986,-1.16164 0.10276,-0.48918 -0.0154,-0.67757 -0.48735,-0.77669 -0.8681,-0.18236 -1.23257,1.09544 -0.50156,1.75845 0.79639,0.72232 0.27067,1.47794 -0.89925,1.29249 -0.76875,-0.12185 -1.28643,-0.59269 -2.2141,-2.01369 -1.66777,-2.55472 -3.12907,-3.64718 -3.79249,-2.83531 -0.28734,0.35163 -0.87629,0.57045 -1.36071,0.50555 -0.46975,-0.0629 -1.57602,0.1402 -2.45835,0.45141 -1.45573,0.51346 -1.56739,0.62233 -1.20604,1.17585 0.40443,0.6195 -0.82969,3.28802 -1.81941,3.93414 -0.31839,0.20785 -0.30212,0.56318 0.0452,0.98676 0.68111,0.83067 -0.0647,2.2604 -1.76212,3.37796 -1.35778,0.89396 -2.30868,0.58699 -2.16112,-0.69767 0.0627,-0.54567 -0.0785,-0.80296 -0.4879,-0.88896 -0.77049,-0.16184 -1.09786,0.62646 -0.58586,1.41074 0.22693,0.34762 0.23347,0.74896 0.0145,0.89189 -0.56567,0.36928 1.46474,0.38628 2.92466,0.0245 z m 1.62788,-0.89028 c 0.0333,-0.15849 0.43759,-0.53752 0.89846,-0.8423 0.46085,-0.30476 0.95908,-0.81966 1.10717,-1.1442 0.34798,-0.76262 1.77612,-2.63398 1.68482,-1.91631 -0.15211,1.19548 0.1004,2.04168 -0.1357,2.04754 -0.62583,0.0155 -2.8327,2.1062 -2.5998,2.46294 0.11143,0.17069 1.56593,-0.6299 3.32947,-1.83258 3.64346,-2.48475 4.30466,-3.4806 3.28562,-4.94868 -1.2458,-1.79472 -3.44784,-0.81266 -3.66652,1.63518 -0.14177,1.58701 -0.64183,1.53003 -0.78299,-0.0892 -0.12299,-1.41085 0.59114,-2.31553 2.25671,-2.85885 1.52295,-0.49679 2.18776,-0.27571 3.02433,1.00573 1.03075,1.57891 0.58216,2.41989 -2.53839,4.75882 l -4.32304,3.08821 0.14077,0.0704 0.0257,0.18732 4.54973,-3.24571 c 2.06597,-1.30179 3.54917,-2.03276 3.95266,-1.94801 0.84312,0.1771 1.45658,1.13708 1.07645,1.68448 -0.23712,0.34145 -0.17249,0.43546 0.31144,0.45299 0.84254,0.0305 0.99379,1.09168 0.30949,2.17133 -0.31938,0.5039 -2.21011,1.97009 -4.29937,3.33401 l -3.72928,2.43454 -0.63771,-0.97685 c -0.46316,-0.70948 -0.75608,-1.04996 -0.34691,-1.32735 0.51863,-0.35158 0.68722,0.0143 -0.003,0.0489 -0.56019,0.0281 -0.95048,-0.83953 -1.80561,-2.17552 -0.62966,-0.98372 -1.11761,-1.91826 -1.08431,-2.07676 z m 6.57161,0.43878 c 3.10942,-1.94788 3.78875,-2.49632 3.54832,-2.86462 -0.38609,-0.59138 -1.12464,-0.0137 -5.02552,2.4819 -3.11707,1.99349 -3.01797,2.2756 -2.74774,2.49037 0.2574,0.20458 1.61491,-0.47261 4.22494,-2.10765 z m 1.09484,2.66673 c 3.15247,-2.05801 4.60348,-3.64629 3.17442,-3.13289 -0.29146,0.10473 -0.38682,0.0673 -0.86532,0.38529 -3.08883,2.05297 -6.54315,4.04474 -6.19053,4.58491 0.264,0.40439 0.93177,0.0883 3.88143,-1.83731 z m -1.62815,-0.93545 c 0.79963,-0.4379 4.29892,-2.77679 4.30203,-2.94282 0.008,-0.4364 0.52555,-0.77399 -0.0927,-0.44386 -1.2762,0.6815 -4.30411,2.79816 -5.03381,3.1908 -0.82167,0.44209 -1.6224,0.75992 -1.95085,1.0394 -0.48496,0.4127 -0.84766,1.09382 0.0437,0.70189 0.48419,-0.21289 1.8263,-0.9444 2.73158,-1.54541 z m -4.03172,4.63033 c 0.2792,-0.18226 0.32142,-0.41881 0.0938,-0.52563 -0.2276,-0.10684 -0.5517,-0.10424 -0.72021,0.006 -0.16853,0.11001 -0.21075,0.34654 -0.0938,0.52563 0.11692,0.1791 0.44102,0.17649 0.72022,-0.006 z m 6.12799,-0.56948 c 0.74126,-0.69415 1.0276,-0.73142 1.80989,-0.23558 0.83698,0.53049 1.38125,0.51105 2.02671,-0.0724 0.12047,-0.10889 0.30198,0.009 0.40336,0.26218 0.11904,0.29723 0.5834,0.19963 1.31148,-0.27567 0.89933,-0.58712 1.10775,-0.98679 1.03111,-1.97731 -0.0925,-1.19564 -0.15136,-1.24912 -1.59328,-1.44866 -1.43414,-0.19846 -1.61641,-0.11811 -4.32739,1.9075 -1.5566,1.16307 -3.04334,2.26836 -3.30383,2.4562 -0.29096,0.2098 0.15645,0.84527 1.06842,0.3641 0.5746,-0.30316 1.06249,-0.50181 1.57353,-0.98036 z" />
      <path
         inkscape:connector-curvature="0"
         sodipodi:nodetypes="csssscccsssssscccsssssssssssssssssccccsssssssssccsssssssssssssssssssssssssssssssssssssssssssssssssssssccssssssssssscccccsssscccsssccsssccsssccsssssccsssccsssssssssc"
         d="m 27.427331,258.00489 0.007,-0.003 c -0.02932,-0.0672 -0.008,-0.15536 0.06031,-0.18348 0.147521,-0.068 0.322241,-0.0537 0.49053,-0.0521 0.09976,-0.003 0.201596,0.002 0.302683,-0.0161 0.0094,-0.002 0.02175,-0.008 0.01389,-0.0126 -0.02294,-0.0167 -0.0472,-0.0245 -0.06846,-0.0335 -0.06788,-0.0177 -0.150667,-0.0372 -0.162886,-0.0968 -0.01781,-0.044 0.05277,-0.0778 0.106175,-0.0981 0.104302,-0.0335 0.220946,-0.007 0.330512,0.0229 0.05534,0.0156 0.111919,0.0277 0.169397,0.0339 0.03137,0.005 0.07165,0.0138 0.106072,-0.007 h 2e-6 c 0.01995,-0.0319 -0.01622,-0.057 -0.04014,-0.0582 -0.06182,-0.0222 -0.126222,-0.0336 -0.189552,-0.0448 -0.07527,-0.0137 -0.152435,-0.0202 -0.215975,-0.0554 -0.0249,-0.0124 -0.03659,-0.0433 -0.03058,-0.0714 0.01109,-0.0828 0.130056,-0.0822 0.22294,-0.0859 0.08844,0.002 0.218459,-5.3e-4 0.229407,-0.0986 -5.29e-4,-0.0662 0.08921,-0.0965 0.160851,-0.10995 0.115687,-0.0187 0.235956,-0.002 0.348009,0.0353 h 3e-6 c 0.188336,0.0714 0.376597,0.14277 0.564782,0.21415 0.07441,-0.0159 0.148783,-0.0317 0.223118,-0.0474 -0.239294,-0.0668 -0.47865,-0.13333 -0.718087,-0.19945 -0.105397,-0.0685 -0.241819,-0.16787 -0.203869,-0.28293 0.03253,-0.11452 0.20108,-0.11596 0.324895,-0.10834 0.125118,0.009 0.250719,0.0143 0.376229,0.0114 0.09685,-10e-4 0.215101,-0.0161 0.272129,0.0575 0,0 3e-6,0 3e-6,0 0.04271,0.0483 -0.04956,0.10835 -0.109773,0.1417 -0.03485,0.0181 -0.07054,0.0356 -0.10347,0.0579 -0.01434,0.008 -0.03474,0.0219 -0.03112,0.0421 0.0069,0.0216 0.03208,0.0282 0.05028,0.0343 0.04227,0.016 0.08593,0.0274 0.129117,0.0395 0.109831,0.0312 0.236394,0.0666 0.333303,0.003 0.05808,-0.0386 0.130755,-0.0578 0.199941,-0.0493 0.379645,0.0467 0.777409,0.15747 1.142746,0.0419 h 2e-6 c 0.0888,-0.028 0.190773,-0.0494 0.269216,2.6e-4 0.249603,0.15807 0.491067,0.34793 0.777097,0.42125 0.0348,0.009 0.07358,0.0166 0.09765,0.0439 0.01826,0.0212 0.0084,0.0534 -0.0065,0.0765 -0.09586,0.14919 -0.256022,0.24406 -0.394377,0.35413 -0.107993,0.086 -0.228391,0.16486 -0.302401,0.2804 -0.0095,0.0127 -7.93e-4,0.0245 0.01349,0.0181 0.05247,-0.0182 0.09827,-0.0522 0.145034,-0.0833 0.108945,-0.0724 0.24398,-0.078 0.371406,-0.0506 0.08047,0.0162 0.201443,0.0231 0.21649,0.1082 0.01069,0.083 -0.104587,0.11891 -0.176895,0.15105 -0.06399,0.0319 -0.163676,0.0968 -0.102955,0.12679 0.04203,0.0272 0.02967,0.0874 -0.01095,0.11505 -0.0735,0.0493 -0.164468,0.065 -0.251899,0.0693 h -3e-6 c -0.08224,0.005 -0.173136,0.0218 -0.222591,0.0848 -0.06789,0.0839 -0.191501,0.0901 -0.29577,0.0968 -0.06922,0.005 -0.144987,0.0223 -0.211659,-0.007 v -1e-5 c -0.0534,-0.0254 -0.07588,-0.0857 -0.09949,-0.1354 -0.0236,-0.0513 -0.0471,-0.1026 -0.07055,-0.15388 -0.08136,0.0556 -0.162605,0.11125 -0.243734,0.16692 -0.16604,0.11035 -0.354021,0.18273 -0.541782,0.24701 -0.169889,0.0584 -0.345157,0.12043 -0.527077,0.11887 -0.01894,5.3e-4 -0.05183,0.009 -0.07295,-0.0156 l -1.38e-4,-0.002 c 0.01286,-0.0187 0.03203,-0.0193 0.04254,-0.0218 0.02167,-0.007 0.05109,-0.008 0.04705,-0.0214 0.0042,-0.01 -0.01736,-0.0158 -0.0336,-0.0254 -0.06794,-0.0292 -0.145584,-0.0338 -0.219776,-0.024 -0.121613,0.0164 -0.24565,-0.004 -0.362514,-0.0374 -0.05094,-0.0143 -0.102507,-0.0262 -0.15463,-0.0334 h -3e-6 c -0.03076,-0.003 -0.06164,-0.0152 -0.07873,-10e-4 -0.0327,0.0194 -0.07079,0.008 -0.0994,0.003 -0.05777,-0.006 -0.114845,-0.0173 -0.171143,-0.0306 -0.05508,-0.012 -0.124203,-0.0139 -0.16987,-0.0598 -0.02328,-0.0377 0.01852,-0.0719 0.0465,-0.0841 0.02085,-0.0305 0.01027,-0.0756 -0.01492,-0.10643 -0.03293,-0.0418 -0.07988,-0.0719 -0.127495,-0.10051 -0.04378,-0.0261 -0.09011,-0.0488 -0.135612,-0.0742 v 0 c -0.01156,-0.009 -0.02461,-0.0175 -0.03495,-0.0307 -0.0047,-0.006 -0.0013,-0.0137 0.0043,-0.0166 0.01347,-0.006 0.01471,-0.0295 0.006,-0.0445 -0.01588,-0.0225 -0.03947,-0.0407 -0.06162,-0.0623 -0.0172,-0.0117 -0.04261,-0.0358 -0.0332,-0.069 0.02344,-0.0396 0.07854,-0.0307 0.114043,-0.0285 0.0053,0.005 0.01127,0.0126 0.01707,0.0107 0.0094,-0.003 -0.01942,-0.0158 -0.03324,-0.0378 -0.05849,-0.08 -0.167418,-0.11243 -0.267981,-0.1417 -0.105719,-0.0292 -0.220231,-0.041 -0.287866,0.0372 -0.08754,0.0919 -0.222663,0.1014 -0.34321,0.0961 -0.119568,-0.003 -0.253241,-0.0274 -0.310952,-0.14132 m 0.904494,-0.15645 7.94e-4,-0.008 c -0.162216,-0.0199 -0.325403,-0.0304 -0.4885,-0.0321 -0.05063,0.004 -0.102097,0.007 -0.153133,0.0181 -0.0089,0.002 -0.02209,10e-4 -0.02466,0.0103 -0.0026,0.009 0.01259,0.0105 0.02053,0.0134 h 2e-6 c 0.02788,0.004 0.01807,0.0521 -0.0081,0.0728 -0.04046,0.0231 -0.07652,0.0778 -0.04359,0.12264 0.04864,0.0473 0.122211,0.0445 0.181433,0.0374 0.05757,-0.003 0.128868,-0.036 0.119216,-0.10199 v -10e-6 c -0.01815,-0.0463 0.04644,-0.0839 0.101732,-0.0936 0.117488,-0.0169 0.23854,0.0107 0.355542,0.0436 0.136948,0.0392 0.277886,0.0788 0.384669,0.16766 0.04489,0.0353 0.05078,0.1072 -1.05e-4,0.12947 -0.05086,0.0294 -0.0639,0.0923 -0.0074,0.1164 0.116059,0.0325 0.220586,0.10162 0.309684,0.18456 0.03471,0.0326 0.06806,0.0668 0.08817,0.10783 0.0094,0.0226 0.01588,0.0525 -0.0016,0.0599 -0.02771,0.017 -0.04677,0.054 -0.01529,0.0772 0.09105,0.038 0.190805,0.0408 0.28465,0.0548 h 2e-6 c 0.178584,0.0271 0.360143,0.053 0.541782,0.0423 0.100735,-0.006 0.206119,1.2e-4 0.293399,0.0465 0.275194,0.14186 0.592045,-0.1025 0.841812,-0.27068 0.146442,-0.0972 0.307734,-0.17856 0.48164,-0.19045 0.08848,-0.006 0.184179,-0.0177 0.255857,0.0275 0.03912,0.0152 -0.0195,0.0607 -0.06182,0.0801 -0.05208,0.0186 -0.10964,0.0727 -0.07995,0.1247 0.04105,0.0596 0.125651,0.0637 0.193447,0.0564 0.05484,-0.003 0.133657,-0.027 0.112533,-0.0838 -0.01672,-0.0327 -7.94e-4,-0.0761 0.03315,-0.0905 0.0628,-0.0284 0.137179,-0.0202 0.207669,-0.0104 0.0729,0.0111 0.158356,0.028 0.222639,-0.0153 0.03947,-0.0345 -0.01931,-0.0859 -0.06289,-0.10391 -0.05063,-0.0214 -0.05184,-0.0708 0.0016,-0.0833 0.106323,-0.0308 0.224121,-0.0498 0.311772,-0.12143 0.01516,-0.0116 0.02564,-0.0337 0.01326,-0.0514 -0.02045,-0.0238 -0.05254,-0.031 -0.08028,-0.0384 -0.102793,-0.0284 -0.206658,10e-4 -0.280469,0.0782 -0.05852,0.0608 -0.136969,0.11405 -0.216246,0.0909 -0.08096,-0.0244 -0.209331,-0.0342 -0.204843,-0.11352 0.0011,-0.098 0.129892,-0.14292 0.214185,-0.20105 0.149799,-0.10158 0.30226,-0.20426 0.423728,-0.33912 0.02802,-0.0309 0.05854,-0.0645 0.06589,-0.10673 v 0 c 0.004,-0.0266 -0.01625,-0.0505 -0.04156,-0.0579 -0.05253,-0.0154 -0.106817,-0.0328 -0.147447,-0.0684 -0.07879,-0.069 -0.179482,-0.10991 -0.271523,-0.15825 -0.0947,-0.05 -0.204817,-0.0907 -0.269624,-0.1748 -0.03331,-0.042 -0.09659,-0.0226 -0.140229,0.007 -0.186552,0.12433 -0.442807,0.027 -0.667089,0.004 -0.150132,-0.0153 -0.300624,-0.0299 -0.451527,-0.0316 -0.0672,-7.9e-4 -0.142441,-0.0131 -0.198419,0.0241 -0.205518,0.13658 -0.485902,-0.0107 -0.723365,-0.0771 -0.07772,-0.0214 -0.191784,-0.0307 -0.209034,-0.11082 -0.0038,-0.0207 0.01976,-0.0345 0.03903,-0.0406 0.04373,-0.0143 0.09065,-0.0148 0.136414,-0.0144 h 3e-6 c 0.06751,5.3e-4 0.13699,-0.0183 0.189246,-0.0607 0.03055,-0.0244 0.02957,-0.0733 -0.0079,-0.0829 -0.0679,-0.0191 -0.142094,-0.0143 -0.209476,0.007 -0.07129,0.0224 -0.14986,0.0244 -0.221882,0.004 -0.04976,-0.0134 -0.114361,-0.0372 -0.14474,0.001 v 0 c -0.03124,0.0365 0.0062,0.0934 0.03037,0.13775 0.08266,0.14786 0.279746,0.17959 0.444894,0.22561 0.20285,0.056 0.408233,0.10281 0.615159,0.14118 0.13213,0.0244 0.266266,0.066 0.397425,0.0469 0.180097,-0.026 0.362683,-0.0295 0.544351,-0.0274 h 3e-6 c 0.151675,0.002 0.307199,-0.002 0.454575,0.039 0.138052,0.037 0.32989,0.11676 0.303332,0.26292 -3e-6,0 0,0 0,0 -0.03486,0.15948 -0.244229,0.1993 -0.400754,0.22075 -0.120013,0.0177 -0.242626,0.0246 -0.36277,0.003 -0.28637,-0.0521 -0.563653,-0.14324 -0.842913,-0.22176 -0.215034,-0.0604 -0.429683,-0.1226 -0.64262,-0.19045 -0.06281,-0.02 -0.125764,-0.0402 -0.187788,-0.0634 -0.01603,-0.006 -0.03224,-0.012 -0.04779,-0.0197 -0.0049,-0.003 -0.01646,-0.007 -0.01201,-0.0101 0.0063,-0.004 -0.0067,-0.012 -0.01371,-0.0156 -0.01889,-0.01 -0.03972,-0.0169 -0.06092,-0.0241 -0.07524,-0.0254 -0.152543,-0.045 -0.230253,-0.0633 -0.08073,-0.0189 -0.162018,-0.0352 -0.244057,-0.0426 h -3e-6 c -0.0415,-0.003 -0.08368,-0.0126 -0.115216,0.004 v -10e-6 c -0.01365,-0.006 0.0117,0.011 0.02522,0.0236 0.05809,0.0322 0.123952,0.0501 0.18963,0.0686 0.06128,0.0162 0.138716,0.0206 0.187079,0.0736 0.02373,0.0416 -0.02506,0.0783 -0.0564,0.093 h -3e-6 c -0.12165,0.0784 -0.273161,0.0386 -0.40609,2.7e-4 h -3e-6 c -0.07196,-0.0202 -0.144933,-0.0367 -0.218683,-0.0475 -0.04635,-0.006 -0.09235,-0.019 -0.130575,-0.005 v -1e-5 c -0.0155,-0.0103 0.01185,0.006 0.02723,0.0182 0.06443,0.0304 0.134795,0.0484 0.205187,0.0674 0.08244,0.0215 0.179866,0.0276 0.25128,0.0872 0.03256,0.0411 -0.0092,0.0887 -0.04162,0.1104 v 10e-6 c -0.117015,0.0968 -0.277376,0.0509 -0.414782,0.0109 -0.07646,-0.0214 -0.152506,-0.0432 -0.229807,-0.0517 -0.03316,-10e-5 -0.07171,-0.0106 -0.07585,0.009 -0.02315,0.0163 0.04264,0.0304 0.08029,0.0424 0.10467,0.0136 0.214784,0.0237 0.313664,0.071 0.04382,0.0223 0.06384,0.0764 0.02932,0.1163 -0.09676,0.086 -0.240678,0.062 -0.358788,0.0476 m 0.358928,0.069 0.0068,-0.003 c -0.0026,0.008 0.01106,0.004 0.01894,-0.0101 0.01447,-0.0156 0.03114,-0.0297 0.04827,-0.044 0.05469,-0.0456 0.112821,-0.0872 0.17209,-0.12749 0.127786,-0.0854 0.244203,-0.20977 0.387715,-0.20506 0.02574,-0.003 0.05127,-0.004 0.07576,-0.002 0.0071,5.3e-4 0.024,0.002 0.0182,0.007 0.0024,-0.002 -0.0081,-0.0111 -0.02252,-0.0131 h -3e-6 c -0.02222,-0.002 -0.04443,-0.007 -0.06654,-0.0131 -0.01947,-0.008 -0.04368,-0.0219 -0.02763,-0.0261 0.02712,-0.0314 0.06864,-0.0505 0.107124,-0.0764 0.04482,-0.0307 0.08968,-0.0615 0.134602,-0.0923 0.271015,0.0768 0.54229,0.1535 0.813816,0.23019 0.207166,0.058 0.413371,0.11946 0.617418,0.18742 0.111411,0.0373 0.229717,0.0614 0.324302,0.12591 0.04758,0.0346 0.107837,0.0816 0.08881,0.13097 -0.01442,0.0525 -0.09179,0.0579 -0.152104,0.0606 h -2e-6 c -0.05153,-2.1e-4 -0.113559,0.0204 -0.07209,0.0568 0.03054,0.0147 0.01236,0.0604 -0.01752,0.0811 -0.06202,0.0424 -0.13935,0.0589 -0.215434,0.0661 h -3e-6 c -0.098,0.009 -0.196662,-0.0217 -0.295092,-0.0424 -0.191582,-0.0404 -0.381339,-0.0894 -0.570513,-0.14052 -0.333727,-0.10142 -0.667115,-0.20312 -1.000194,-0.30511 0,0 -0.0062,0.0178 -0.0062,0.0178 -0.01016,0.003 -0.02032,0.005 -0.03051,0.008 0.316399,0.0984 0.632857,0.19619 0.949341,0.29323 0.213251,0.0686 0.446389,0.11084 0.621141,0.25186 0.02963,0.0237 0.05535,0.0615 0.04229,0.098 -0.01754,0.0472 -0.06389,0.0764 -0.105191,0.10375 -0.192098,0.12774 -0.437359,0.12913 -0.665395,0.0973 -0.135525,-0.0188 -0.275368,-0.0385 -0.396494,-0.10446 -0.06287,-0.034 -0.116618,-0.0996 -0.10314,-0.17155 0.02331,-0.10556 0.156975,-0.11446 0.182234,-0.009 0.02633,0.13149 0.179417,0.19698 0.313521,0.22342 0.163534,0.031 0.341601,0.0144 0.481584,-0.0735 0.03925,-0.0256 0.08478,-0.0522 0.09032,-0.0939 0.0081,-0.0365 -0.03274,-0.0673 -0.06759,-0.0915 -0.220094,-0.14301 -0.488048,-0.19378 -0.742585,-0.26849 -0.1661,-0.0486 -0.332825,-0.095 -0.501057,-0.13466 -0.0528,-0.0124 -0.105537,-0.0245 -0.15865,-0.0333 -0.02527,-0.005 -0.05142,-0.0207 -0.06647,-0.0111 -0.005,0.003 0.0019,0.0118 0.0099,0.0159 0.01143,0.008 0.02678,0.0139 0.04261,0.0199 0.05233,0.0302 0.108387,0.0543 0.165047,0.0774 0.115451,0.0466 0.231342,0.1025 0.351452,0.10304 0.03488,0.009 0.04043,0.0452 0.03481,0.0691 -0.0041,0.0461 -0.005,0.0923 0.0078,0.13453 -0.0043,0.0333 -0.03721,0.0382 -0.0554,0.0274 -0.04022,-0.0119 -0.07711,-0.0308 -0.112752,-0.0496 h -3e-6 c -0.0781,-0.0407 -0.158485,-0.0834 -0.22452,-0.14548 h -3e-6 c -0.06057,-0.0581 -0.151362,-0.0796 -0.237172,-0.10467 -0.04564,-0.013 -0.09105,-0.0276 -0.135417,-0.0454 -0.02027,-0.006 -0.05333,-0.012 -0.07159,-0.0422 m 1.460275,-0.0634 c -0.218599,-0.0573 -0.437671,-0.11427 -0.659244,-0.16013 -0.08727,-0.0189 -0.184613,-0.0629 -0.274476,-0.0321 -0.01088,0.002 -0.02893,0.008 -0.03171,0.0262 0.0043,0.0276 0.03539,0.0354 0.05415,0.0417 0.186309,0.0824 0.386787,0.12453 0.58265,0.17693 0.280469,0.0751 0.559194,0.15811 0.84246,0.2206 0.08811,0.0187 0.187505,0.0553 0.256304,0.007 0.0078,-0.001 0.0037,-0.0125 -0.004,-0.0174 -0.03082,-0.0225 -0.06988,-0.0331 -0.108297,-0.0464 -0.217969,-0.0741 -0.442468,-0.12781 -0.665932,-0.18637 m 0.248565,-0.28315 c -0.214971,-0.0587 -0.429797,-0.12173 -0.649253,-0.16468 -0.06699,-0.0143 -0.148408,-0.0418 -0.211122,-10e-4 -0.01236,0.0145 -0.0037,0.0315 0.0083,0.038 0.02421,0.0169 0.05157,0.0269 0.07782,0.037 0.102426,0.0394 0.208042,0.069 0.313156,0.099 0.320659,0.0915 0.643747,0.17375 0.965001,0.26308 0.06175,0.0172 0.12559,0.0254 0.189561,0.0348 v 0 c 0.02935,0.004 0.05854,0.008 0.08752,0.008 0.01286,-0.003 0.02763,0.002 0.02482,-0.003 0.0051,-0.001 -0.0092,-0.005 -0.01789,-0.0135 -0.02188,-0.0137 -0.04593,-0.0242 -0.0703,-0.0348 -0.233259,-0.10059 -0.480145,-0.16622 -0.726075,-0.2334 m -0.353115,0.0739 0.0019,-0.007 c -0.197567,-0.0585 -0.397314,-0.11082 -0.599752,-0.1492 -0.03254,-0.006 -0.06664,-0.013 -0.101574,-0.0101 -0.01307,-0.001 -0.02915,0.009 -0.02617,0.0287 0.02379,0.041 0.07462,0.0522 0.113607,0.0651 0.139131,0.0498 0.287329,0.0634 0.429937,0.0953 0.171124,0.0383 0.339201,0.0902 0.50845,0.13681 0.198905,0.0548 0.39734,0.11193 0.598537,0.15658 0.01609,0.005 0.03208,0.009 0.04819,0.0132 0.0058,0.001 0.0114,0.006 0.01606,0.002 -0.0019,-0.009 -0.01667,-0.0135 -0.02376,-0.0186 -0.01127,-0.007 -0.02339,-0.0171 -0.02458,-0.0305 -2.65e-4,-0.003 -0.0059,-0.003 -0.0093,-0.005 -0.0085,-0.003 -0.0173,-0.006 -0.02611,-0.009 h -3e-6 c -0.02881,-0.009 -0.05796,-0.0174 -0.08711,-0.0254 -0.09424,-0.0289 -0.189021,-0.0562 -0.283943,-0.0831 -0.179028,-0.0508 -0.357463,-0.10342 -0.538197,-0.14459 m -0.877033,-0.46973 c -0.05236,-0.0134 -0.119329,-0.0239 -0.16537,0.01 -0.02236,0.0208 -0.0016,0.0499 0.02342,0.0555 0.05213,0.0113 0.106019,0.004 0.156541,-0.009 0.03027,6e-5 0.0052,-0.0225 -0.02305,-0.0263 m 1.349105,0.0391 0.0029,-0.007 c -0.111813,-0.0475 -0.229937,-0.0709 -0.345356,-0.0985 -0.07167,-0.0162 -0.149129,-0.0267 -0.222186,-0.006 -0.03035,0.009 -0.04816,0.0437 -0.01834,0.063 0.242777,0.0739 0.484489,0.15171 0.726607,0.22812 0.310303,0.098 0.626986,0.1963 0.951288,0.17454 0.09613,-0.006 0.196464,5.3e-4 0.284705,-0.0351 0.03845,-0.0148 0.0532,-0.0598 0.06073,-0.10179 0.02016,-0.10409 -0.118636,-0.15002 -0.223805,-0.18054 -0.09767,-0.025 -0.221229,-0.0965 -0.279556,-0.0267 h -3e-6 c -0.02371,0.0265 -0.06343,0.0406 -0.09842,0.0277 -0.138686,-0.0534 -0.294103,-0.0439 -0.438007,-0.003 -0.133937,0.0375 -0.276304,0.0311 -0.4064,-0.0202"
         style="fill:#ffffff;stroke-width:0.28222221"
         id="path2702"
         inkscape:original-d="m 245.80226,629.02852 c 0.18482,0.39571 0.2888,0.44217 1.05393,0.47103 0.69276,0.0262 0.90914,-0.0331 1.17671,-0.32215 0.3011,-0.32529 0.38847,-0.33705 1.07077,-0.14434 0.40859,0.1154 0.84699,0.34991 0.97419,0.52113 0.12724,0.1712 0.14234,0.24568 0.0336,0.1655 -0.99032,-10e-4 0.29938,0.49488 -0.0772,0.68707 -0.28936,0.0554 1.48364,0.58419 1.09638,1.1881 -0.32069,0.21254 -0.25537,0.2817 0.41719,0.44153 0.43859,0.10424 0.85599,0.15072 0.92759,0.10328 0.0715,-0.0475 0.45799,0.006 0.85876,0.11955 0.40077,0.11319 0.97203,0.17328 1.26949,0.13348 0.60068,-0.0803 1.27729,0.21045 0.7425,0.31908 -0.20534,0.0417 -0.16538,0.0705 0.10189,0.0733 0.81965,0.009 2.87635,-0.69248 3.7721,-1.28614 l 0.88276,-0.58507 0.26734,0.55065 c 0.26069,0.53699 0.28749,0.5493 1.07927,0.49499 0.53308,-0.0366 0.88809,-0.15111 1.03366,-0.33357 0.13145,-0.16472 0.45871,-0.28967 0.8036,-0.3068 0.7553,-0.0376 1.2936,-0.39895 0.92379,-0.62022 -0.20771,-0.12432 -0.10446,-0.25871 0.36685,-0.47742 0.86998,-0.40368 0.8272,-0.68327 -0.13651,-0.8923 -0.68277,-0.14811 -0.85554,-0.12491 -1.30755,0.17552 -1.01422,0.67411 -0.68628,0.16451 0.4997,-0.77655 1.6149,-1.28139 1.75475,-1.49836 1.07812,-1.67301 -0.47424,-0.12244 -1.26669,-0.55361 -2.75163,-1.49719 -0.23614,-0.15001 -0.48694,-0.15084 -0.95615,-0.003 -0.56831,0.17893 -1.71119,0.13519 -4.04679,-0.15493 -0.20909,-0.026 -0.53125,0.0529 -0.71595,0.17532 -0.26967,0.17873 -0.50031,0.17609 -1.1712,-0.0134 -0.80518,-0.22744 -0.81082,-0.24875 -0.15534,-0.58918 0.76598,-0.39785 0.48109,-0.75845 -0.5827,-0.73754 -0.33037,0.007 -0.92946,-0.0126 -1.33125,-0.0425 -1.37064,-0.10197 -1.61321,0.68563 -0.43998,1.42862 l 2.54789,0.68437 -0.78165,0.1397 -1.99269,-0.76147 c -0.88565,-0.29565 -1.83022,-0.14565 -1.85064,0.29394 -0.0119,0.25593 -0.13101,0.30393 -0.77695,0.31305 -0.6469,0.009 -0.77284,0.06 -0.82818,0.33462 -0.0546,0.27081 0.0937,0.35236 0.90508,0.49785 0.60152,0.10787 0.90463,0.21752 0.79751,0.28853 -0.095,0.063 -0.5182,0.0169 -0.94037,-0.1023 -0.47707,-0.13474 -0.93012,-0.16596 -1.19698,-0.0825 -0.63289,0.19799 -0.52343,0.61737 0.20407,0.78191 0.49541,0.11207 0.30466,0.13894 -0.86766,0.12235 -1.74468,-0.0247 -2.29192,0.22359 -1.97731,0.89715 z m 3.15523,-0.53115 c 0.71926,0.0771 1.02121,0.0395 1.22911,-0.15324 0.26615,-0.24671 -0.11246,-0.4298 -1.18577,-0.57341 -0.22721,-0.0304 -0.37237,-0.13165 -0.32254,-0.22501 0.0632,-0.11852 0.40762,-0.0802 1.14133,0.12707 0.99691,0.28159 1.06998,0.2802 1.42523,-0.0271 0.34571,-0.29904 0.29011,-0.34667 -0.72379,-0.62029 -0.6864,-0.18525 -0.99618,-0.33133 -0.82604,-0.38957 0.14974,-0.0512 0.71832,0.0328 1.26357,0.18682 0.88864,0.25101 1.03414,0.25164 1.40459,0.006 0.36012,-0.23866 0.30209,-0.30529 -0.45117,-0.51806 -1.33504,-0.37708 -0.88892,-0.5993 0.53099,-0.26449 0.66638,0.15715 1.15523,0.32303 1.08638,0.36864 -0.0688,0.0456 1.34787,0.49903 3.14825,1.00756 3.25671,0.91988 3.27846,0.92386 4.25994,0.78033 1.71013,-0.25008 1.91062,-1.22491 0.34299,-1.6677 -0.58805,-0.16609 -2.51509,-0.19061 -3.53116,-0.0449 -0.38787,0.0556 -2.1835,-0.27978 -3.59367,-0.67123 -1.06183,-0.29475 -1.38807,-0.46107 -1.58196,-0.80647 -0.27934,-0.49768 -0.14232,-0.66435 0.41652,-0.50651 0.21326,0.0602 0.56493,0.0541 0.78147,-0.0136 0.21655,-0.0677 0.55243,-0.0783 0.74643,-0.0235 0.40306,0.11386 -0.10763,0.52686 -0.64434,0.52112 -0.87689,-0.009 -0.8089,0.31834 0.12001,0.57863 1.38283,0.38749 2.253,0.4814 2.56213,0.27651 0.18441,-0.12222 0.92298,-0.11273 2.30269,0.0296 1.59474,0.16449 2.10345,0.16166 2.36722,-0.0131 0.24604,-0.16307 0.37677,-0.16965 0.48847,-0.0246 0.0839,0.10895 0.51445,0.38904 0.95682,0.6224 0.44235,0.23339 0.87418,0.48569 0.95962,0.56073 0.0854,0.075 0.32202,0.18536 0.52579,0.24519 0.44225,0.12985 -0.15557,0.79224 -1.59224,1.76421 -1.01432,0.68625 -1.01892,0.86172 -0.0299,1.14109 0.28638,0.0809 0.46427,0.007 0.78288,-0.32574 0.371,-0.38727 0.46886,-0.41445 0.97644,-0.27108 0.5741,0.16216 0.32953,0.36248 -0.86794,0.71088 -0.30747,0.0895 -0.31027,0.1907 -0.009,0.33433 0.55161,0.26315 0.2185,0.49207 -0.55354,0.38042 -0.66817,-0.0966 -1.03589,0.0669 -0.87862,0.39084 0.0799,0.1646 -0.012,0.22797 -0.37899,0.26133 -0.67509,0.0614 -0.95851,-0.36858 -0.39006,-0.59166 0.61932,-0.24303 0.2105,-0.49725 -0.69928,-0.43488 -0.5978,0.041 -1.00039,0.19942 -1.72178,0.67755 -1.29693,0.85955 -2.43329,1.22715 -2.9492,0.95398 -0.22346,-0.11832 -0.68145,-0.19195 -1.05815,-0.17011 -0.36529,0.0212 -1.22558,-0.0472 -1.91173,-0.15188 -1.13203,-0.17275 -1.21887,-0.20939 -0.93787,-0.39564 0.3145,-0.20844 -0.64521,-1.10629 -1.41483,-1.32368 -0.24759,-0.07 -0.23495,-0.18949 0.0351,-0.33201 0.52967,-0.27949 -0.0503,-0.76055 -1.37032,-1.13656 -1.05586,-0.30079 -1.79532,-0.19751 -1.68055,0.23473 0.0487,0.18361 -0.0611,0.27018 -0.37943,0.2991 -0.59918,0.0545 -0.85372,-0.21077 -0.45559,-0.47465 0.17647,-0.11697 0.18155,-0.25199 0.0113,-0.3001 -0.43991,-0.12424 1.13905,-0.12995 2.27435,-0.008 z m 1.26589,0.29954 c 0.0259,0.0533 0.3403,0.18086 0.69869,0.28341 0.35838,0.10255 0.74582,0.27578 0.86098,0.38498 0.27062,0.25659 1.38119,0.88623 1.31019,0.64477 -0.11829,-0.40224 0.0781,-0.68694 -0.10552,-0.68893 -0.48668,-0.005 -2.20283,-0.70865 -2.02172,-0.82868 0.0867,-0.0574 1.21773,0.21195 2.58914,0.61659 2.83331,0.83604 3.34749,1.17109 2.55504,1.66505 -0.96879,0.60386 -2.68118,0.27343 -2.85125,-0.55018 -0.11024,-0.53398 -0.49913,-0.5148 -0.60888,0.03 -0.0956,0.47468 0.45969,0.77907 1.7549,0.96189 1.18433,0.16714 1.70131,0.0928 2.35187,-0.3384 0.80154,-0.53126 0.45271,-0.81421 -1.97395,-1.60117 l -3.36179,-1.03906 0.10947,-0.0237 0.02,-0.063 3.53806,1.09206 c 1.6066,0.43801 2.75998,0.68396 3.07377,0.65545 0.65563,-0.0596 1.13269,-0.3826 0.83709,-0.56678 -0.1844,-0.11487 -0.13414,-0.14651 0.24218,-0.15241 0.65519,-0.0103 0.77281,-0.36731 0.24068,-0.73058 -0.24838,-0.16954 -1.71869,-0.66285 -3.34338,-1.12177 l -2.90005,-0.81913 -0.4959,0.32867 c -0.36019,0.23872 -0.58798,0.35327 -0.26977,0.44661 0.40328,0.1183 0.5344,-0.005 -0.003,-0.0165 -0.43562,-0.009 -0.73912,0.28249 -1.40412,0.732 -0.48965,0.33098 -0.86909,0.64543 -0.84321,0.69874 z m 5.11039,-0.14763 c 2.418,0.65539 2.94628,0.83991 2.75932,0.96384 -0.30025,0.19897 -0.87457,0.005 -3.90808,-0.83507 -2.42397,-0.67073 -2.34689,-0.76565 -2.13675,-0.83792 0.20017,-0.0688 1.25582,0.15903 3.28551,0.70915 z m 0.8514,-0.89726 c 2.45146,0.69246 3.57985,1.22685 2.46856,1.0541 -0.22667,-0.0352 -0.30082,-0.0226 -0.67291,-0.12963 -2.40203,-0.69074 -5.08825,-1.3609 -4.81404,-1.54263 0.2053,-0.13607 0.72459,-0.0297 3.01839,0.61816 z m -1.26613,0.31475 c 0.62184,0.14735 3.34303,0.9343 3.34543,0.99015 0.006,0.14683 0.40872,0.26042 -0.0721,0.14935 -0.99242,-0.2293 -3.34706,-0.94147 -3.91452,-1.07359 -0.63896,-0.14877 -1.26164,-0.25569 -1.51706,-0.34972 -0.37713,-0.13886 -0.65919,-0.36804 0.034,-0.23616 0.37653,0.0716 1.4202,0.31776 2.12419,0.51997 z m -3.13525,-1.55793 c 0.21713,0.0613 0.24996,0.14092 0.073,0.17686 -0.177,0.0359 -0.42903,0.0351 -0.56006,-0.002 -0.13106,-0.037 -0.16389,-0.11661 -0.073,-0.17686 0.0909,-0.0603 0.34292,-0.0594 0.56006,0.002 z m 4.76539,0.1916 c 0.57644,0.23357 0.79912,0.24611 1.40746,0.0793 0.65087,-0.17848 1.0741,-0.17193 1.57605,0.0244 0.0937,0.0367 0.23484,-0.003 0.31367,-0.0882 0.0926,-0.10002 0.45368,-0.0672 1.01985,0.0928 0.69938,0.19754 0.86143,0.33201 0.80185,0.66528 -0.0719,0.40229 -0.1177,0.42028 -1.23901,0.48741 -1.11523,0.0668 -1.25699,0.0398 -3.36516,-0.64178 -1.21048,-0.39135 -2.36664,-0.76323 -2.56919,-0.82644 -0.22627,-0.0706 0.12165,-0.2844 0.83084,-0.12249 0.44684,0.10199 0.82623,0.16884 1.22364,0.32984 z" />
    </g>
  </g>
</svg>
