<?xml version="1.0" encoding="UTF-8" standalone="no"?>
<!-- Created with Inkscape (http://www.inkscape.org/) -->

<svg
   xmlns:dc="http://purl.org/dc/elements/1.1/"
   xmlns:cc="http://creativecommons.org/ns#"
   xmlns:rdf="http://www.w3.org/1999/02/22-rdf-syntax-ns#"
   xmlns:svg="http://www.w3.org/2000/svg"
   xmlns="http://www.w3.org/2000/svg"
   xmlns:sodipodi="http://sodipodi.sourceforge.net/DTD/sodipodi-0.dtd"
   xmlns:inkscape="http://www.inkscape.org/namespaces/inkscape"
   width="132.49609"
   height="201.07812"
   viewBox="0 0 132.4961 201.07813"
   version="1.1"
   id="svg5130"
   inkscape:version="0.92.1 r"
   sodipodi:docname="bandoneon-left-butts.svg">
  <defs
     id="defs5124" />
  <sodipodi:namedview
     id="base"
     pagecolor="#ffffff"
     bordercolor="#666666"
     borderopacity="1.0"
     inkscape:pageopacity="0.0"
     inkscape:pageshadow="2"
     inkscape:zoom="3.959798"
     inkscape:cx="97.430814"
     inkscape:cy="104.63443"
     inkscape:document-units="px"
     inkscape:current-layer="layer1"
     showgrid="false"
     fit-margin-top="0"
     fit-margin-left="0"
     fit-margin-right="0"
     fit-margin-bottom="0"
     inkscape:window-width="1920"
     inkscape:window-height="1039"
     inkscape:window-x="0"
     inkscape:window-y="0"
     inkscape:window-maximized="1"
     units="px" />
  <metadata
     id="metadata5127">
    <rdf:RDF>
      <cc:Work
         rdf:about="">
        <dc:format>image/svg+xml</dc:format>
        <dc:type
           rdf:resource="http://purl.org/dc/dcmitype/StillImage" />
        <dc:title></dc:title>
      </cc:Work>
    </rdf:RDF>
  </metadata>
  <g
     inkscape:label="Layer 1"
     inkscape:groupmode="layer"
     id="layer1"
     transform="translate(6.195228,-5.612801)">
    <path
       style="opacity:1;fill:#000000;fill-opacity:1;stroke:none;stroke-width:1.30197096;stroke-miterlimit:4;stroke-dasharray:none;stroke-opacity:1;paint-order:markers stroke fill"
       d="m -6.40625,-9.4375 c -8.529061,0 -15.394531,6.8674238 -15.394531,15.3964844 V 176.24414 c 0,8.52906 6.86547,15.39648 15.394531,15.39648 H 95.298828 c 8.529062,0 15.396482,-6.86742 15.396482,-15.39648 V 5.9589844 C 110.69531,-2.5700762 103.82789,-9.4375 95.298828,-9.4375 Z M 68.001953,0.171875 A 6.1087608,6.1087608 0 0 1 74.109375,6.2792969 6.1087608,6.1087608 0 0 1 68.001953,12.388672 6.1087608,6.1087608 0 0 1 61.892578,6.2792969 6.1087608,6.1087608 0 0 1 68.001953,0.171875 Z M 31.794922,0.45703125 A 6.1087608,6.1087608 0 0 1 37.904297,6.5644531 6.1087608,6.1087608 0 0 1 31.794922,12.673828 6.1087608,6.1087608 0 0 1 25.685547,6.5644531 6.1087608,6.1087608 0 0 1 31.794922,0.45703125 Z M 53.033203,8.7246094 a 6.1087608,6.1087608 0 0 1 6.109375,6.1074216 6.1087608,6.1087608 0 0 1 -6.109375,6.109375 6.1087608,6.1087608 0 0 1 -6.107422,-6.109375 6.1087608,6.1087608 0 0 1 6.107422,-6.1074216 z M 18.253906,10.005859 a 6.1087608,6.1087608 0 0 1 6.107422,6.109375 6.1087608,6.1087608 0 0 1 -6.107422,6.109375 6.1087608,6.1087608 0 0 1 -6.109375,-6.109375 6.1087608,6.1087608 0 0 1 6.109375,-6.109375 z m 19.242188,7.41211 a 6.1087608,6.1087608 0 0 1 6.109375,6.109375 6.1087608,6.1087608 0 0 1 -6.109375,6.109375 6.1087608,6.1087608 0 0 1 -6.107422,-6.109375 6.1087608,6.1087608 0 0 1 6.107422,-6.109375 z m 23.804687,8.410156 A 6.1087608,6.1087608 0 0 1 67.410156,31.9375 6.1087608,6.1087608 0 0 1 61.300781,38.046875 6.1087608,6.1087608 0 0 1 55.193359,31.9375 6.1087608,6.1087608 0 0 1 61.300781,25.828125 Z M 23.8125,26.541016 a 6.1087608,6.1087608 0 0 1 6.109375,6.109375 6.1087608,6.1087608 0 0 1 -6.109375,6.109375 6.1087608,6.1087608 0 0 1 -6.109375,-6.109375 6.1087608,6.1087608 0 0 1 6.109375,-6.109375 z m 21.380859,8.410156 a 6.1087608,6.1087608 0 0 1 6.109375,6.109375 6.1087608,6.1087608 0 0 1 -6.109375,6.109375 6.1087608,6.1087608 0 0 1 -6.107421,-6.109375 6.1087608,6.1087608 0 0 1 6.107421,-6.109375 z m -33.78125,1.853516 a 6.1087608,6.1087608 0 0 1 6.107422,6.109374 6.1087608,6.1087608 0 0 1 -6.107422,6.107422 6.1087608,6.1087608 0 0 1 -6.1093746,-6.107422 6.1087608,6.1087608 0 0 1 6.1093746,-6.109374 z m 18.957032,5.558593 a 6.1087608,6.1087608 0 0 1 6.109375,6.109375 6.1087608,6.1087608 0 0 1 -6.109375,6.109375 6.1087608,6.1087608 0 0 1 -6.107422,-6.109375 6.1087608,6.1087608 0 0 1 6.107422,-6.109375 z m 26.941406,8.267578 a 6.1087608,6.1087608 0 0 1 6.109375,6.109375 6.1087608,6.1087608 0 0 1 -6.109375,6.109375 6.1087608,6.1087608 0 0 1 -6.109375,-6.109375 6.1087608,6.1087608 0 0 1 6.109375,-6.109375 z M 17.96875,53.197266 a 6.1087608,6.1087608 0 0 1 6.109375,6.109375 6.1087608,6.1087608 0 0 1 -6.109375,6.107421 6.1087608,6.1087608 0 0 1 -6.109375,-6.107421 6.1087608,6.1087608 0 0 1 6.109375,-6.109375 z m 24.802734,6.414062 a 6.1087608,6.1087608 0 0 1 6.107422,6.109375 6.1087608,6.1087608 0 0 1 -6.107422,6.109375 6.1087608,6.1087608 0 0 1 -6.109375,-6.109375 6.1087608,6.1087608 0 0 1 6.109375,-6.109375 z M 7.4199219,65.314453 a 6.1087608,6.1087608 0 0 1 6.1093751,6.107422 6.1087608,6.1087608 0 0 1 -6.1093751,6.109375 6.1087608,6.1087608 0 0 1 -6.109375,-6.109375 6.1087608,6.1087608 0 0 1 6.109375,-6.107422 z m 19.5292971,2.136719 a 6.1087608,6.1087608 0 0 1 6.107422,6.109375 6.1087608,6.1087608 0 0 1 -6.107422,6.109375 6.1087608,6.1087608 0 0 1 -6.109375,-6.109375 6.1087608,6.1087608 0 0 1 6.109375,-6.109375 z m 28.507812,7.839844 a 6.1087608,6.1087608 0 0 1 6.109375,6.109375 6.1087608,6.1087608 0 0 1 -6.109375,6.109375 6.1087608,6.1087608 0 0 1 -6.107422,-6.109375 6.1087608,6.1087608 0 0 1 6.107422,-6.109375 z m -39.912109,4.419922 a 6.1087608,6.1087608 0 0 1 6.109375,6.107421 6.1087608,6.1087608 0 0 1 -6.109375,6.109375 6.1087608,6.1087608 0 0 1 -6.1093751,-6.109375 6.1087608,6.1087608 0 0 1 6.1093751,-6.107421 z M 40.0625,83.558594 A 6.1087608,6.1087608 0 0 1 46.171875,89.667969 6.1087608,6.1087608 0 0 1 40.0625,95.777344 6.1087608,6.1087608 0 0 1 33.953125,89.667969 6.1087608,6.1087608 0 0 1 40.0625,83.558594 Z M 6.2792969,92.824219 A 6.1087608,6.1087608 0 0 1 12.388672,98.933594 6.1087608,6.1087608 0 0 1 6.2792969,105.04297 6.1087608,6.1087608 0 0 1 0.171875,98.933594 6.1087608,6.1087608 0 0 1 6.2792969,92.824219 Z m 19.5292971,0 a 6.1087608,6.1087608 0 0 1 6.109375,6.109375 6.1087608,6.1087608 0 0 1 -6.109375,6.109376 6.1087608,6.1087608 0 0 1 -6.109375,-6.109376 6.1087608,6.1087608 0 0 1 6.109375,-6.109375 z m 29.648437,8.552731 a 6.1087608,6.1087608 0 0 1 6.109375,6.10938 6.1087608,6.1087608 0 0 1 -6.109375,6.10742 6.1087608,6.1087608 0 0 1 -6.107422,-6.10742 6.1087608,6.1087608 0 0 1 6.107422,-6.10938 z m -40.482422,4.84571 a 6.1087608,6.1087608 0 0 1 6.109375,6.10937 6.1087608,6.1087608 0 0 1 -6.109375,6.10938 6.1087608,6.1087608 0 0 1 -6.1074215,-6.10938 6.1087608,6.1087608 0 0 1 6.1074215,-6.10937 z m 26.65625,3.56445 a 6.1087608,6.1087608 0 0 1 6.109375,6.10937 6.1087608,6.1087608 0 0 1 -6.109375,6.10743 6.1087608,6.1087608 0 0 1 -6.109375,-6.10743 6.1087608,6.1087608 0 0 1 6.109375,-6.10937 z m -14.824218,8.69531 a 6.1087608,6.1087608 0 0 1 6.107421,6.10938 6.1087608,6.1087608 0 0 1 -6.107421,6.10742 6.1087608,6.1087608 0 0 1 -6.109375,-6.10742 6.1087608,6.1087608 0 0 1 6.109375,-6.10938 z m -17.9609379,3.56446 a 6.1087608,6.1087608 0 0 1 6.1093749,6.10742 6.1087608,6.1087608 0 0 1 -6.1093749,6.10937 6.1087608,6.1087608 0 0 1 -6.109375,-6.10937 6.1087608,6.1087608 0 0 1 6.109375,-6.10742 z m 49.3203129,4.56054 a 6.1087608,6.1087608 0 0 1 6.109375,6.10938 6.1087608,6.1087608 0 0 1 -6.109375,6.10742 6.1087608,6.1087608 0 0 1 -6.109375,-6.10742 6.1087608,6.1087608 0 0 1 6.109375,-6.10938 z m -38.628907,7.12696 a 6.1087608,6.1087608 0 0 1 6.107422,6.10937 6.1087608,6.1087608 0 0 1 -6.107422,6.10742 6.1087608,6.1087608 0 0 1 -6.109375,-6.10742 6.1087608,6.1087608 0 0 1 6.109375,-6.10937 z m 25.65625,1.56835 a 6.1087608,6.1087608 0 0 1 6.109375,6.10938 6.1087608,6.1087608 0 0 1 -6.109375,6.10742 6.1087608,6.1087608 0 0 1 -6.107421,-6.10742 6.1087608,6.1087608 0 0 1 6.107421,-6.10938 z m -13.541015,8.41016 a 6.1087608,6.1087608 0 0 1 6.109375,6.10938 6.1087608,6.1087608 0 0 1 -6.109375,6.10742 6.1087608,6.1087608 0 0 1 -6.109375,-6.10742 6.1087608,6.1087608 0 0 1 6.109375,-6.10938 z m 33.070312,7.55469 a 6.1087608,6.1087608 0 0 1 6.109375,6.10937 6.1087608,6.1087608 0 0 1 -6.109375,6.10743 6.1087608,6.1087608 0 0 1 -6.109375,-6.10743 6.1087608,6.1087608 0 0 1 6.109375,-6.10937 z m -40.589844,6.78906 a 6.1087608,6.1087608 0 0 1 6.107422,6.10938 6.1087608,6.1087608 0 0 1 -6.107422,6.10937 6.1087608,6.1087608 0 0 1 -6.109374,-6.10937 6.1087608,6.1087608 0 0 1 6.109374,-6.10938 z m 27.476563,1.47852 a 6.1087608,6.1087608 0 0 1 6.107422,6.10937 6.1087608,6.1087608 0 0 1 -6.107422,6.10742 6.1087608,6.1087608 0 0 1 -6.109375,-6.10742 6.1087608,6.1087608 0 0 1 6.109375,-6.10937 z m 18.244141,10.97656 a 6.1087608,6.1087608 0 0 1 6.109375,6.10742 6.1087608,6.1087608 0 0 1 -6.109375,6.10938 6.1087608,6.1087608 0 0 1 -6.107422,-6.10938 6.1087608,6.1087608 0 0 1 6.107422,-6.10742 z"
       transform="translate(15.605553,15.050301)"
       id="rect852"
       inkscape:connector-curvature="0" />
  </g>
</svg>
