<?xml version="1.0" encoding="UTF-8" standalone="no"?>
<!-- Created with Inkscape (http://www.inkscape.org/) -->

<svg
   xmlns:dc="http://purl.org/dc/elements/1.1/"
   xmlns:cc="http://creativecommons.org/ns#"
   xmlns:rdf="http://www.w3.org/1999/02/22-rdf-syntax-ns#"
   xmlns:svg="http://www.w3.org/2000/svg"
   xmlns="http://www.w3.org/2000/svg"
   xmlns:sodipodi="http://sodipodi.sourceforge.net/DTD/sodipodi-0.dtd"
   xmlns:inkscape="http://www.inkscape.org/namespaces/inkscape"
   width="132.49609"
   height="201.07812"
   viewBox="0 0 132.49609 201.07813"
   version="1.1"
   id="svg3044"
   inkscape:version="0.92.1 r"
   sodipodi:docname="bandoneon-right-butts.svg">
  <defs
     id="defs3038" />
  <sodipodi:namedview
     id="base"
     pagecolor="#ffffff"
     bordercolor="#666666"
     borderopacity="1.0"
     inkscape:pageopacity="0.0"
     inkscape:pageshadow="2"
     inkscape:zoom="3.959798"
     inkscape:cx="10.043351"
     inkscape:cy="93.833381"
     inkscape:document-units="px"
     inkscape:current-layer="layer1"
     showgrid="false"
     fit-margin-top="0"
     fit-margin-left="0"
     fit-margin-right="0"
     fit-margin-bottom="0"
     units="px"
     inkscape:window-width="1920"
     inkscape:window-height="1039"
     inkscape:window-x="0"
     inkscape:window-y="0"
     inkscape:window-maximized="1" />
  <metadata
     id="metadata3041">
    <rdf:RDF>
      <cc:Work
         rdf:about="">
        <dc:format>image/svg+xml</dc:format>
        <dc:type
           rdf:resource="http://purl.org/dc/dcmitype/StillImage" />
        <dc:title></dc:title>
      </cc:Work>
    </rdf:RDF>
  </metadata>
  <g
     inkscape:label="Layer 1"
     inkscape:groupmode="layer"
     id="layer1"
     transform="translate(-199.12764,-123.06589)">
    <path
       style="opacity:1;fill:#000000;fill-opacity:1;stroke:none;stroke-width:1.30197096;stroke-miterlimit:4;stroke-dasharray:none;stroke-opacity:1;paint-order:markers stroke fill"
       d="m -11.457031,-16.134766 c -8.529061,0 -15.394531,6.8674241 -15.394531,15.39648475 V 169.54688 c 0,8.52906 6.86547,15.39648 15.394531,15.39648 H 90.248047 c 8.52906,0 15.396483,-6.86742 15.396483,-15.39648 V -0.73828125 c 0,-8.52906065 -6.867423,-15.39648475 -15.396483,-15.39648475 z M 23.371094,0.171875 A 6.1087608,6.1087608 0 0 1 29.478516,6.2792969 6.1087608,6.1087608 0 0 1 23.371094,12.388672 6.1087608,6.1087608 0 0 1 17.261719,6.2792969 6.1087608,6.1087608 0 0 1 23.371094,0.171875 Z M 6.6171875,6.5683594 A 6.1087608,6.1087608 0 0 1 12.726562,12.677734 6.1087608,6.1087608 0 0 1 6.6171875,18.787109 6.1087608,6.1087608 0 0 1 0.5078125,12.677734 6.1087608,6.1087608 0 0 1 6.6171875,6.5683594 Z M 43.396484,13.652344 a 6.1087608,6.1087608 0 0 1 6.109375,6.109375 6.1087608,6.1087608 0 0 1 -6.109375,6.109375 6.1087608,6.1087608 0 0 1 -6.107422,-6.109375 6.1087608,6.1087608 0 0 1 6.107422,-6.109375 z M 28.630859,19.5 a 6.1087608,6.1087608 0 0 1 6.107422,6.109375 6.1087608,6.1087608 0 0 1 -6.107422,6.107422 A 6.1087608,6.1087608 0 0 1 22.521484,25.609375 6.1087608,6.1087608 0 0 1 28.630859,19.5 Z m 28.330079,2.873047 a 6.1087608,6.1087608 0 0 1 6.109374,6.109375 6.1087608,6.1087608 0 0 1 -6.109374,6.107422 6.1087608,6.1087608 0 0 1 -6.109376,-6.107422 6.1087608,6.1087608 0 0 1 6.109376,-6.109375 z m -43.197266,5.111328 a 6.1087608,6.1087608 0 0 1 6.109375,6.109375 6.1087608,6.1087608 0 0 1 -6.109375,6.107422 6.1087608,6.1087608 0 0 1 -6.1093751,-6.107422 6.1087608,6.1087608 0 0 1 6.1093751,-6.109375 z m 54.824219,4.410156 a 6.1087608,6.1087608 0 0 1 6.107421,6.109375 6.1087608,6.1087608 0 0 1 -6.107421,6.107422 6.1087608,6.1087608 0 0 1 -6.109375,-6.107422 6.1087608,6.1087608 0 0 1 6.109375,-6.109375 z m -21.548829,2.271485 a 6.1087608,6.1087608 0 0 1 6.107422,6.109375 6.1087608,6.1087608 0 0 1 -6.107422,6.107421 6.1087608,6.1087608 0 0 1 -6.109374,-6.107421 6.1087608,6.1087608 0 0 1 6.109374,-6.109375 z m -15.36914,7.416015 a 6.1087608,6.1087608 0 0 1 6.109375,6.109375 6.1087608,6.1087608 0 0 1 -6.109375,6.109375 6.1087608,6.1087608 0 0 1 -6.107422,-6.109375 6.1087608,6.1087608 0 0 1 6.107422,-6.109375 z m 48.410156,1.169922 a 6.1087608,6.1087608 0 0 1 6.107422,6.109375 6.1087608,6.1087608 0 0 1 -6.107422,6.107422 6.1087608,6.1087608 0 0 1 -6.109375,-6.107422 6.1087608,6.1087608 0 0 1 6.109375,-6.109375 z m -20.113281,0.835938 a 6.1087608,6.1087608 0 0 1 6.109375,6.107421 6.1087608,6.1087608 0 0 1 -6.109375,6.109376 6.1087608,6.1087608 0 0 1 -6.107422,-6.109376 6.1087608,6.1087608 0 0 1 6.107422,-6.107421 z M 17.205078,47.330078 A 6.1087608,6.1087608 0 0 1 23.3125,53.4375 6.1087608,6.1087608 0 0 1 17.205078,59.546875 6.1087608,6.1087608 0 0 1 11.095703,53.4375 6.1087608,6.1087608 0 0 1 17.205078,47.330078 Z m 32.205078,7.082031 a 6.1087608,6.1087608 0 0 1 6.109375,6.107422 6.1087608,6.1087608 0 0 1 -6.109375,6.109375 6.1087608,6.1087608 0 0 1 -6.109375,-6.109375 6.1087608,6.1087608 0 0 1 6.109375,-6.107422 z m 21.482422,0.833985 a 6.1087608,6.1087608 0 0 1 6.109375,6.109375 6.1087608,6.1087608 0 0 1 -6.109375,6.109375 6.1087608,6.1087608 0 0 1 -6.109375,-6.109375 6.1087608,6.1087608 0 0 1 6.109375,-6.109375 z m -37.318359,5.880859 a 6.1087608,6.1087608 0 0 1 6.109375,6.109375 6.1087608,6.1087608 0 0 1 -6.109375,6.107422 6.1087608,6.1087608 0 0 1 -6.107422,-6.107422 6.1087608,6.1087608 0 0 1 6.107422,-6.109375 z m 27.529297,4.978516 a 6.1087608,6.1087608 0 0 1 6.109375,6.107422 6.1087608,6.1087608 0 0 1 -6.109375,6.109375 6.1087608,6.1087608 0 0 1 -6.109375,-6.109375 6.1087608,6.1087608 0 0 1 6.109375,-6.107422 z m 20.412109,1.101562 a 6.1087608,6.1087608 0 0 1 6.109375,6.109375 6.1087608,6.1087608 0 0 1 -6.109375,6.107422 6.1087608,6.1087608 0 0 1 -6.107422,-6.107422 6.1087608,6.1087608 0 0 1 6.107422,-6.109375 z m -62.138672,1.070313 a 6.1087608,6.1087608 0 0 1 6.107422,6.107422 6.1087608,6.1087608 0 0 1 -6.107422,6.109375 6.1087608,6.1087608 0 0 1 -6.109375,-6.109375 6.1087608,6.1087608 0 0 1 6.109375,-6.107422 z m 29.732422,7.683594 a 6.1087608,6.1087608 0 0 1 6.109375,6.107421 6.1087608,6.1087608 0 0 1 -6.109375,6.109375 6.1087608,6.1087608 0 0 1 -6.107422,-6.109375 6.1087608,6.1087608 0 0 1 6.107422,-6.107421 z m 22.851563,1.871093 a 6.1087608,6.1087608 0 0 1 6.109374,6.107422 6.1087608,6.1087608 0 0 1 -6.109374,6.109375 6.1087608,6.1087608 0 0 1 -6.107422,-6.109375 6.1087608,6.1087608 0 0 1 6.107422,-6.107422 z m -38.21875,4.242188 a 6.1087608,6.1087608 0 0 1 6.107421,6.109375 6.1087608,6.1087608 0 0 1 -6.107421,6.107422 6.1087608,6.1087608 0 0 1 -6.109376,-6.107422 6.1087608,6.1087608 0 0 1 6.109376,-6.109375 z m 26.224609,6.146484 a 6.1087608,6.1087608 0 0 1 6.109375,6.109375 6.1087608,6.1087608 0 0 1 -6.109375,6.109372 6.1087608,6.1087608 0 0 1 -6.107422,-6.109372 6.1087608,6.1087608 0 0 1 6.107422,-6.109375 z m -41.158203,0.703125 a 6.1087608,6.1087608 0 0 1 6.107422,6.107422 6.1087608,6.1087608 0 0 1 -6.107422,6.10937 6.1087608,6.1087608 0 0 1 -6.109375,-6.10937 6.1087608,6.1087608 0 0 1 6.109375,-6.107422 z m 61.972656,2.4375 a 6.1087608,6.1087608 0 0 1 6.109375,6.109375 6.1087608,6.1087608 0 0 1 -6.109375,6.109377 6.1087608,6.1087608 0 0 1 -6.109375,-6.109377 6.1087608,6.1087608 0 0 1 6.109375,-6.109375 z m -33.041016,5.279297 a 6.1087608,6.1087608 0 0 1 6.109375,6.109375 6.1087608,6.1087608 0 0 1 -6.109375,6.10742 6.1087608,6.1087608 0 0 1 -6.109375,-6.10742 6.1087608,6.1087608 0 0 1 6.109375,-6.109375 z m 22.517578,4.242185 a 6.1087608,6.1087608 0 0 1 6.109376,6.10938 6.1087608,6.1087608 0 0 1 -6.109376,6.10937 6.1087608,6.1087608 0 0 1 -6.109374,-6.10937 6.1087608,6.1087608 0 0 1 6.109374,-6.10938 z m -37.652343,2.13867 a 6.1087608,6.1087608 0 0 1 6.109375,6.10938 6.1087608,6.1087608 0 0 1 -6.109375,6.10742 6.1087608,6.1087608 0 0 1 -6.107422,-6.10742 6.1087608,6.1087608 0 0 1 6.107422,-6.10938 z m 24.08789,6.14649 a 6.1087608,6.1087608 0 0 1 6.109375,6.10937 6.1087608,6.1087608 0 0 1 -6.109375,6.10938 6.1087608,6.1087608 0 0 1 -6.109375,-6.10938 6.1087608,6.1087608 0 0 1 6.109375,-6.10937 z m -39.822265,0.40234 a 6.1087608,6.1087608 0 0 1 6.107422,6.10742 6.1087608,6.1087608 0 0 1 -6.107422,6.10938 6.1087608,6.1087608 0 0 1 -6.109375,-6.10938 6.1087608,6.1087608 0 0 1 6.109375,-6.10742 z m 60.501953,4.74414 a 6.1087608,6.1087608 0 0 1 6.109375,6.10743 6.1087608,6.1087608 0 0 1 -6.109375,6.10937 6.1087608,6.1087608 0 0 1 -6.107422,-6.10937 6.1087608,6.1087608 0 0 1 6.107422,-6.10743 z m -34.34375,2.13672 a 6.1087608,6.1087608 0 0 1 6.109375,6.10938 6.1087608,6.1087608 0 0 1 -6.109375,6.10937 6.1087608,6.1087608 0 0 1 -6.109375,-6.10937 6.1087608,6.1087608 0 0 1 6.109375,-6.10938 z m 22.050781,5.98047 a 6.1087608,6.1087608 0 0 1 6.107422,6.10938 6.1087608,6.1087608 0 0 1 -6.107422,6.10742 6.1087608,6.1087608 0 0 1 -6.109375,-6.10742 6.1087608,6.1087608 0 0 1 6.109375,-6.10938 z m -36.349609,1.57031 a 6.1087608,6.1087608 0 0 1 6.109375,6.10938 6.1087608,6.1087608 0 0 1 -6.109375,6.10742 6.1087608,6.1087608 0 0 1 -6.109375,-6.10742 6.1087608,6.1087608 0 0 1 6.109375,-6.10938 z m 23.853515,5.84571 a 6.1087608,6.1087608 0 0 1 6.109375,6.10937 6.1087608,6.1087608 0 0 1 -6.109375,6.10938 6.1087608,6.1087608 0 0 1 -6.109375,-6.10938 6.1087608,6.1087608 0 0 1 6.109375,-6.10937 z m -38.320312,0.9707 a 6.1087608,6.1087608 0 0 1 6.109375,6.10742 6.1087608,6.1087608 0 0 1 -6.109375,6.10938 6.1087608,6.1087608 0 0 1 -6.107422,-6.10938 6.1087608,6.1087608 0 0 1 6.107422,-6.10742 z m 23.621094,6.2793 a 6.1087608,6.1087608 0 0 1 6.109375,6.10937 6.1087608,6.1087608 0 0 1 -6.109375,6.10938 6.1087608,6.1087608 0 0 1 -6.109375,-6.10938 6.1087608,6.1087608 0 0 1 6.109375,-6.10937 z m -14.566407,6.68164 a 6.1087608,6.1087608 0 0 1 6.109375,6.10937 6.1087608,6.1087608 0 0 1 -6.109375,6.10938 6.1087608,6.1087608 0 0 1 -6.109375,-6.10938 6.1087608,6.1087608 0 0 1 6.109375,-6.10937 z m -17.0390621,5.51367 a 6.1087608,6.1087608 0 0 1 6.1093751,6.10742 6.1087608,6.1087608 0 0 1 -6.1093751,6.10938 6.1087608,6.1087608 0 0 1 -6.1074219,-6.10938 6.1087608,6.1087608 0 0 1 6.1074219,-6.10742 z"
       transform="translate(225.9792,139.20066)"
       id="rect852"
       inkscape:connector-curvature="0" />
  </g>
</svg>
