<?xml version="1.0" encoding="UTF-8" standalone="no"?>
<!-- Created with Inkscape (http://www.inkscape.org/) -->

<svg
   xmlns:dc="http://purl.org/dc/elements/1.1/"
   xmlns:cc="http://creativecommons.org/ns#"
   xmlns:rdf="http://www.w3.org/1999/02/22-rdf-syntax-ns#"
   xmlns:svg="http://www.w3.org/2000/svg"
   xmlns="http://www.w3.org/2000/svg"
   xmlns:sodipodi="http://sodipodi.sourceforge.net/DTD/sodipodi-0.dtd"
   xmlns:inkscape="http://www.inkscape.org/namespaces/inkscape"
   width="101.42178"
   height="83.903282"
   id="svg3240"
   version="1.1"
   inkscape:version="0.92.4 5da689c313, 2019-01-14"
   sodipodi:docname="barChart.svg"
   inkscape:export-filename="../../picts/barChart.png"
   inkscape:export-xdpi="242.565"
   inkscape:export-ydpi="242.565">
  <defs
     id="defs3242">
    <marker
       inkscape:stockid="DotM"
       orient="auto"
       refY="0"
       refX="0"
       id="DotM"
       style="overflow:visible">
      <path
         id="path3860"
         d="m -2.5,-1 c 0,2.76 -2.24,5 -5,5 -2.76,0 -5,-2.24 -5,-5 0,-2.76 2.24,-5 5,-5 2.76,0 5,2.24 5,5 z"
         style="fill-rule:evenodd;stroke:#000000;stroke-width:1.00000003pt"
         transform="matrix(0.4,0,0,0.4,2.96,0.4)"
         inkscape:connector-curvature="0" />
    </marker>
    <marker
       inkscape:stockid="EmptyDiamondMstart"
       orient="auto"
       refY="0"
       refX="0"
       id="EmptyDiamondMstart"
       style="overflow:visible">
      <path
         id="path3914"
         d="M 0,-7.0710768 -7.0710894,0 0,7.0710589 7.0710462,0 Z"
         style="fill:#ffffff;fill-rule:evenodd;stroke:#000000;stroke-width:1.00000003pt"
         transform="matrix(0.4,0,0,0.4,2.6,0)"
         inkscape:connector-curvature="0" />
    </marker>
    <marker
       inkscape:stockid="EmptyDiamondMend"
       orient="auto"
       refY="0"
       refX="0"
       id="EmptyDiamondMend"
       style="overflow:visible">
      <path
         id="path3923"
         d="M 0,-7.0710768 -7.0710894,0 0,7.0710589 7.0710462,0 Z"
         style="fill:#ffffff;fill-rule:evenodd;stroke:#000000;stroke-width:1.00000003pt"
         transform="matrix(0.4,0,0,0.4,-2.6,0)"
         inkscape:connector-curvature="0" />
    </marker>
    <marker
       inkscape:stockid="Arrow1Lend"
       orient="auto"
       refY="0"
       refX="0"
       id="Arrow1Lend"
       style="overflow:visible">
      <path
         id="path3799"
         d="M 0,0 5,-5 -12.5,0 5,5 Z"
         style="fill-rule:evenodd;stroke:#000000;stroke-width:1.00000003pt"
         transform="matrix(-0.8,0,0,-0.8,-10,0)"
         inkscape:connector-curvature="0" />
    </marker>
    <marker
       inkscape:stockid="Arrow1Lstart"
       orient="auto"
       refY="0"
       refX="0"
       id="Arrow1Lstart"
       style="overflow:visible">
      <path
         id="path3796"
         d="M 0,0 5,-5 -12.5,0 5,5 Z"
         style="fill-rule:evenodd;stroke:#000000;stroke-width:1.00000003pt"
         transform="matrix(0.8,0,0,0.8,10,0)"
         inkscape:connector-curvature="0" />
    </marker>
    <filter
       style="color-interpolation-filters:sRGB"
       inkscape:label="Drop Shadow"
       id="filter4942">
      <feFlood
         flood-opacity="0.784314"
         flood-color="rgb(0,0,0)"
         result="flood"
         id="feFlood4932" />
      <feComposite
         in="flood"
         in2="SourceGraphic"
         operator="out"
         result="composite1"
         id="feComposite4934" />
      <feGaussianBlur
         in="composite1"
         stdDeviation="0.5"
         result="blur"
         id="feGaussianBlur4936" />
      <feOffset
         dx="0.8"
         dy="0.9"
         result="offset"
         id="feOffset4938" />
      <feComposite
         in="offset"
         in2="SourceGraphic"
         operator="atop"
         result="composite2"
         id="feComposite4940" />
    </filter>
    <filter
       style="color-interpolation-filters:sRGB;"
       inkscape:label="Drop Shadow"
       id="filter5080">
      <feFlood
         flood-opacity="0.784314"
         flood-color="rgb(0,0,0)"
         result="flood"
         id="feFlood5070" />
      <feComposite
         in="flood"
         in2="SourceGraphic"
         operator="in"
         result="composite1"
         id="feComposite5072" />
      <feGaussianBlur
         in="composite1"
         stdDeviation="1"
         result="blur"
         id="feGaussianBlur5074" />
      <feOffset
         dx="3"
         dy="3"
         result="offset"
         id="feOffset5076" />
      <feComposite
         in="SourceGraphic"
         in2="offset"
         operator="over"
         result="composite2"
         id="feComposite5078" />
    </filter>
  </defs>
  <sodipodi:namedview
     id="base"
     pagecolor="#ffffff"
     bordercolor="#666666"
     borderopacity="1.0"
     inkscape:pageopacity="0.0"
     inkscape:pageshadow="2"
     inkscape:zoom="5.6"
     inkscape:cx="29.488906"
     inkscape:cy="45.174962"
     inkscape:document-units="px"
     inkscape:current-layer="layer1"
     showgrid="false"
     fit-margin-top="0"
     fit-margin-left="0"
     fit-margin-right="0"
     fit-margin-bottom="0"
     inkscape:window-width="1920"
     inkscape:window-height="1043"
     inkscape:window-x="0"
     inkscape:window-y="0"
     inkscape:window-maximized="1" />
  <metadata
     id="metadata3245">
    <rdf:RDF>
      <cc:Work
         rdf:about="">
        <dc:format>image/svg+xml</dc:format>
        <dc:type
           rdf:resource="http://purl.org/dc/dcmitype/StillImage" />
        <dc:title />
      </cc:Work>
    </rdf:RDF>
  </metadata>
  <g
     inkscape:label="Layer 1"
     inkscape:groupmode="layer"
     id="layer1"
     transform="translate(-412.05607,-370.80414)">
    <path
       style="fill:#00f300;fill-opacity:1;fill-rule:nonzero;stroke:none;stroke-width:1"
       d="m 429.09939,406.88301 h 8.89921 c 0.4521,0 0.81608,0.72721 0.81608,1.6305 v 29.85993 c 0,0.90331 -0.36398,1.63051 -0.81608,1.63051 h -8.89921 c -0.45214,0 -0.81611,-0.7272 -0.81611,-1.63051 v -29.85993 c 0,-0.90329 0.36397,-1.6305 0.81611,-1.6305 z"
       id="rect3846-3"
       inkscape:connector-curvature="0" />
    <path
       style="fill:#ffee00;fill-opacity:1;fill-rule:nonzero;stroke:none;stroke-width:1"
       d="m 444.19193,419.33417 h 9.3989 c 0.4775,0 0.86192,0.45384 0.86192,1.01756 v 18.63468 c 0,0.56372 -0.38442,1.01754 -0.86192,1.01754 h -9.3989 c -0.47752,0 -0.86192,-0.45382 -0.86192,-1.01754 v -18.63468 c 0,-0.56372 0.3844,-1.01756 0.86192,-1.01756 z"
       id="rect3846-5-5"
       inkscape:connector-curvature="0" />
    <path
       style="fill:#ff0c00;fill-opacity:1;fill-rule:nonzero;stroke:none;stroke-width:0.99999994"
       d="m 460.74944,390.87483 h 9.39891 c 0.4775,0 0.86192,1.08196 0.86192,2.4259 v 44.42602 c 0,1.34394 -0.38442,2.4259 -0.86192,2.4259 h -9.39891 c -0.47749,0 -0.86192,-1.08196 -0.86192,-2.4259 v -44.42602 c 0,-1.34394 0.38443,-2.4259 0.86192,-2.4259 z"
       id="rect3846-4-6"
       inkscape:connector-curvature="0" />
    <path
       style="fill:#00e400;fill-opacity:1;fill-rule:nonzero;stroke:none;stroke-width:1"
       d="m 475.9002,412.81028 h 10.14844 c 0.51556,0 0.93064,0.59702 0.93064,1.33863 v 24.51456 c 0,0.74159 -0.41508,1.33864 -0.93064,1.33864 H 475.9002 c -0.5156,0 -0.93067,-0.59705 -0.93067,-1.33864 v -24.51456 c 0,-0.74161 0.41507,-1.33863 0.93067,-1.33863 z"
       id="rect3846-56-2"
       inkscape:connector-curvature="0" />
    <path
       style="opacity:1;fill:#00a0a0;fill-opacity:1;stroke:none;stroke-width:1;filter:url(#filter5080)"
       d="m 420.42931,371.76974 c -4.13237,0 -7.46058,3.20944 -7.46058,7.19509 v 63.28368 c 0,3.98565 3.32821,7.19185 7.46058,7.19185 h 80.28448 c 4.13236,0 7.46058,-3.2062 7.46058,-7.19185 v -63.28368 c 0,-3.98565 -3.32822,-7.19509 -7.46058,-7.19509 z m 40.32011,18.27468 h 9.4009 c 0.47751,0 0.86022,1.08143 0.86022,2.42538 v 44.42536 c 0,1.34395 -0.38271,2.42538 -0.86022,2.42538 h -9.4009 c -0.47749,0 -0.86022,-1.08143 -0.86022,-2.42538 V 392.4698 c 0,-1.34395 0.38273,-2.42538 0.86022,-2.42538 z m -31.65006,16.00817 h 8.89966 c 0.4521,0 0.81494,0.72768 0.81494,1.63097 v 29.85686 c 0,0.9033 -0.36284,1.63097 -0.81494,1.63097 h -8.89966 c -0.45214,0 -0.81494,-0.72767 -0.81494,-1.63097 v -29.85686 c 0,-0.90329 0.3628,-1.63097 0.81494,-1.63097 z m 46.80082,5.92727 h 10.14794 c 0.51556,0 0.92812,0.59754 0.92812,1.33915 v 24.51323 c 0,0.74159 -0.41256,1.33915 -0.92812,1.33915 h -10.14794 c -0.5156,0 -0.93136,-0.59756 -0.93136,-1.33915 v -24.51323 c 0,-0.74161 0.41576,-1.33915 0.93136,-1.33915 z m -31.70827,6.5239 h 9.40091 c 0.4775,0 0.86022,0.45117 0.86022,1.01489 v 18.63784 c 0,0.56372 -0.38272,1.0149 -0.86022,1.0149 h -9.40091 c -0.47752,0 -0.86021,-0.45118 -0.86021,-1.0149 v -18.63784 c 0,-0.56372 0.38269,-1.01489 0.86021,-1.01489 z"
       id="rect3841"
       inkscape:connector-curvature="0" />
    <path
       style="color:#000000;font-style:normal;font-variant:normal;font-weight:normal;font-stretch:normal;font-size:medium;line-height:normal;font-family:Sans;-inkscape-font-specification:Sans;text-indent:0;text-align:start;text-decoration:none;text-decoration-line:none;letter-spacing:normal;word-spacing:normal;text-transform:none;writing-mode:lr-tb;direction:ltr;baseline-shift:baseline;text-anchor:start;display:inline;overflow:visible;visibility:visible;opacity:0.98999999;fill:#000000;fill-opacity:1;fill-rule:nonzero;stroke:none;stroke-width:1.01304471;marker:none;enable-background:accumulate"
       d="m 9.671875,6.5605469 -6.6835938,14.0722651 5.84375,-0.04492 v 49.291015 a 0.696765,0.69571807 0 0 0 0.1367188,0.41211 c 0.1030667,0.388937 0.5425894,0.690604 0.9394531,0.666015 l 70.4785159,0.06445 -0.04102,6.029297 13.439453,-6.867187 -13.439453,-6.720703 0.04297,5.845703 -70.16211,-0.06445 v -48.65625 l 6.277344,0.04492 z"
       transform="translate(412.05607,370.80414)"
       id="line8"
       inkscape:connector-curvature="0" />
  </g>
</svg>
