<?xml version="1.0" encoding="UTF-8" standalone="no"?>
<svg
   width="13.600526cm"
   height="8.53829cm"
   viewBox="0 0 1874.0869 1176.5372"
   version="1.1"
   id="svg3"
   sodipodi:docname="body-ukulele.svg"
   inkscape:version="1.1 (c4e8f9ed74, 2021-05-24)"
   inkscape:export-filename="../../picts/body-ukulele.png"
   inkscape:export-xdpi="174.92027"
   inkscape:export-ydpi="174.92027"
   xmlns:inkscape="http://www.inkscape.org/namespaces/inkscape"
   xmlns:sodipodi="http://sodipodi.sourceforge.net/DTD/sodipodi-0.dtd"
   xmlns:xlink="http://www.w3.org/1999/xlink"
   xmlns="http://www.w3.org/2000/svg"
   xmlns:svg="http://www.w3.org/2000/svg"
   xmlns:rdf="http://www.w3.org/1999/02/22-rdf-syntax-ns#"
   xmlns:cc="http://creativecommons.org/ns#"
   xmlns:dc="http://purl.org/dc/elements/1.1/">
  <metadata
     id="metadata9">
    <rdf:RDF>
      <cc:Work
         rdf:about="">
        <dc:format>image/svg+xml</dc:format>
        <dc:type
           rdf:resource="http://purl.org/dc/dcmitype/StillImage" />
      </cc:Work>
    </rdf:RDF>
  </metadata>
  <defs
     id="defs7">
    <linearGradient
       inkscape:collect="always"
       id="linearGradient4530">
      <stop
         id="stop4528"
         offset="0"
         style="stop-color:#ff6103;stop-opacity:1" />
      <stop
         style="stop-color:#4b4443;stop-opacity:1"
         offset="0.5"
         id="stop4538" />
      <stop
         id="stop4526"
         offset="1"
         style="stop-color:#ff8000;stop-opacity:1" />
    </linearGradient>
    <radialGradient
       inkscape:collect="always"
       xlink:href="#linearGradient4530"
       id="radialGradient4534"
       gradientUnits="userSpaceOnUse"
       gradientTransform="matrix(-0.31491506,0.01522374,-0.0085449,-0.17675806,317.42706,840.28629)"
       cx="-233.74741"
       cy="3531.864"
       fx="-233.74741"
       fy="3531.864"
       r="2132.4011" />
  </defs>
  <sodipodi:namedview
     pagecolor="#ffffff"
     bordercolor="#666666"
     borderopacity="1"
     objecttolerance="1"
     gridtolerance="10000"
     guidetolerance="10000"
     inkscape:pageopacity="0"
     inkscape:pageshadow="2"
     inkscape:window-width="2560"
     inkscape:window-height="1403"
     id="namedview5"
     showgrid="true"
     showguides="false"
     inkscape:guide-bbox="true"
     inkscape:zoom="1.4512736"
     inkscape:cx="196.03471"
     inkscape:cy="201.20259"
     inkscape:current-layer="layer2"
     units="cm"
     inkscape:document-units="cm"
     fit-margin-top="0"
     fit-margin-left="0"
     fit-margin-right="0"
     fit-margin-bottom="0"
     inkscape:window-x="0"
     inkscape:window-y="0"
     inkscape:window-maximized="1"
     inkscape:pagecheckerboard="false"
     inkscape:showpageshadow="true"
     showborder="true"
     inkscape:snap-path-clip="true"
     inkscape:snap-path-mask="true">
    <sodipodi:guide
       position="2109.3454,-149.45792"
       orientation="0,1"
       id="guide4486"
       inkscape:locked="false" />
    <sodipodi:guide
       position="1989.6975,-359.20781"
       orientation="1,0"
       id="guide4488"
       inkscape:locked="false" />
    <sodipodi:guide
       position="2100.5512,-635.05337"
       orientation="0,1"
       id="guide4490"
       inkscape:locked="false" />
    <sodipodi:guide
       position="2351.7931,2739.8677"
       orientation="0,1"
       id="guide4663"
       inkscape:locked="false" />
    <sodipodi:guide
       position="2617.9387,275.28208"
       orientation="0,1"
       id="guide4665"
       inkscape:locked="false" />
    <sodipodi:guide
       position="2147.6266,-1895.8136"
       orientation="0,1"
       id="guide4669"
       inkscape:locked="false" />
    <sodipodi:guide
       position="1860.0048,-1280.2248"
       orientation="0,1"
       id="guide5252"
       inkscape:locked="false" />
    <sodipodi:guide
       position="1860.0048,-1511.7355"
       orientation="0,1"
       id="guide5254"
       inkscape:locked="false" />
    <sodipodi:guide
       position="1860.0048,-1280.2248"
       orientation="1,0"
       id="guide5256"
       inkscape:locked="false" />
    <sodipodi:guide
       position="2616.0731,-1280.2248"
       orientation="1,0"
       id="guide5258"
       inkscape:locked="false" />
    <inkscape:grid
       type="xygrid"
       id="grid4516"
       originx="229.41423"
       originy="-1146.2906"
       units="cm"
       spacingx="27.559035"
       spacingy="27.559083"
       visible="false"
       snapvisiblegridlinesonly="false"
       enabled="false" />
  </sodipodi:namedview>
  <g
     inkscape:groupmode="layer"
     id="layer1"
     inkscape:label="Foto"
     style="display:none"
     transform="translate(1234.3482,-1734.4197)"
     sodipodi:insensitive="true" />
  <g
     inkscape:groupmode="layer"
     id="layer2"
     inkscape:label="Vektorzeichnung"
     transform="translate(1234.3482,-1734.4197)"
     style="display:inline">
    <path
       id="Auswahl #1"
       style="fill:url(#radialGradient4534);fill-opacity:1;stroke:none;stroke-width:0.274285"
       d="m 430.65039,0.30078125 c -3.80553,0.002787 -6.51026,0.32308064 -10.01953,0.47070313 -19.78674,1.58645172 -39.47772,5.33101052 -57.26563,11.06445362 -19.60233,6.380619 -44.76715,18.925326 -62.14257,30.013671 -12.20462,8.306652 -24.30428,16.764607 -36.42188,25.197266 -5.55069,3.809907 -11.14979,7.613871 -17.14062,10.710937 -12.53481,6.47865 -26.62498,10.277786 -40.75977,10.306641 -16.12347,0.03346 -34.21099,-6.257597 -49.5,-11.128906 -12.3445,-3.749908 -26.05957,-6.923687 -37.69336,-7.953125 -0.67355,-0.05525 -1.17026,-0.105162 -1.85156,-0.152344 -13.96699,-1.08358 -28.154587,0.847779 -41.318361,4.931641 -1.75224,0.544761 -3.532356,0.981275 -5.255859,1.609375 -3.125323,1.155139 -6.220406,2.418835 -9.259766,3.833984 -3.414057,1.59655 -6.714568,3.398058 -9.953125,5.324219 -5.383385,3.151712 -10.604258,6.574018 -15.380859,10.556641 -0.158355,0.134489 -0.303334,0.284523 -0.460938,0.419921 -2.764934,2.332861 -5.318011,4.885331 -7.814453,7.486331 -1.899246,2.00542 -3.658382,4.18112 -5.404297,6.375 -1.408972,1.75943 -2.814802,3.51581 -4.107421,5.38476 -1.657228,2.39226 -3.169707,4.90687 -4.642579,7.45508 -1.187573,2.07236 -2.361204,4.14772 -3.416015,6.30078 -1.168282,2.36325 -2.2121173,4.7911 -3.216797,7.24414 -1.003933,2.46658 -1.9484186,4.94887 -2.78125,7.46875 -0.8698277,2.6436 -1.6379151,5.31731 -2.3085938,8.02149 -0.418994,1.65071 -0.770963,3.29875 -1.1152343,4.95312 -0.96360377,4.78456 -1.03454461,8.30952 -0.89062502,70.96875 l 0.15039062,65.01367 c 0.4922326,3.28251 1.1142799,6.54863 1.8457031,9.79297 0.644556,2.72213 1.6468667,5.9874 2.5859375,9.20703 1.1003011,3.99179 2.3548785,7.93994 3.9082031,11.83008 H 261.64258 514.50781 V 173.33008 24.027344 c -1.73913,-1.159192 -3.4797,-2.479906 -5.19922,-3.486328 -0.22901,-0.138431 -0.47869,-0.255529 -0.70898,-0.392578 -4.78575,-2.748012 -8.96996,-4.884716 -13.19141,-6.78125 -1.34743,-0.594953 -2.75933,-1.131826 -4.14648,-1.689454 -2.73376,-1.121578 -5.67202,-2.220349 -8.7793,-3.2988278 -2.56525,-0.8391376 -5.26865,-1.5635604 -7.96484,-2.2929687 -5.41267,-1.3396029 -10.86326,-2.5192243 -16.33203,-3.6132813 -0.2719,-0.04804 -0.53158,-0.1051898 -0.80469,-0.1523437 -8.40082,-1.3247344 -17.94502,-1.91698842 -26.73047,-2.01953125 z"
       transform="matrix(3.645837,0,0,3.645837,-1236.0715,1733.3231)"
       inkscape:export-filename="../../picts/Auswahl #1.png"
       inkscape:export-xdpi="174.8"
       inkscape:export-ydpi="174.8" />
  </g>
</svg>
