<?xml version="1.0" encoding="UTF-8" standalone="no"?>
<!-- Created with Inkscape (http://www.inkscape.org/) -->

<svg
   xmlns:dc="http://purl.org/dc/elements/1.1/"
   xmlns:cc="http://creativecommons.org/ns#"
   xmlns:rdf="http://www.w3.org/1999/02/22-rdf-syntax-ns#"
   xmlns:svg="http://www.w3.org/2000/svg"
   xmlns="http://www.w3.org/2000/svg"
   xmlns:sodipodi="http://sodipodi.sourceforge.net/DTD/sodipodi-0.dtd"
   xmlns:inkscape="http://www.inkscape.org/namespaces/inkscape"
   width="58"
   height="83.903282"
   id="svg3240"
   version="1.1"
   inkscape:version="0.92.4 5da689c313, 2019-01-14"
   sodipodi:docname="chartSett.svg"
   inkscape:export-filename="../../picts/chartSett.png"
   inkscape:export-xdpi="293.05264"
   inkscape:export-ydpi="293.05264">
  <defs
     id="defs3242">
    <marker
       inkscape:stockid="DotM"
       orient="auto"
       refY="0"
       refX="0"
       id="DotM"
       style="overflow:visible">
      <path
         id="path3860"
         d="m -2.5,-1 c 0,2.76 -2.24,5 -5,5 -2.76,0 -5,-2.24 -5,-5 0,-2.76 2.24,-5 5,-5 2.76,0 5,2.24 5,5 z"
         style="fill-rule:evenodd;stroke:#000000;stroke-width:1.00000003pt"
         transform="matrix(0.4,0,0,0.4,2.96,0.4)"
         inkscape:connector-curvature="0" />
    </marker>
    <marker
       inkscape:stockid="EmptyDiamondMstart"
       orient="auto"
       refY="0"
       refX="0"
       id="EmptyDiamondMstart"
       style="overflow:visible">
      <path
         id="path3914"
         d="M 0,-7.0710768 -7.0710894,0 0,7.0710589 7.0710462,0 Z"
         style="fill:#ffffff;fill-rule:evenodd;stroke:#000000;stroke-width:1.00000003pt"
         transform="matrix(0.4,0,0,0.4,2.6,0)"
         inkscape:connector-curvature="0" />
    </marker>
    <marker
       inkscape:stockid="EmptyDiamondMend"
       orient="auto"
       refY="0"
       refX="0"
       id="EmptyDiamondMend"
       style="overflow:visible">
      <path
         id="path3923"
         d="M 0,-7.0710768 -7.0710894,0 0,7.0710589 7.0710462,0 Z"
         style="fill:#ffffff;fill-rule:evenodd;stroke:#000000;stroke-width:1.00000003pt"
         transform="matrix(0.4,0,0,0.4,-2.6,0)"
         inkscape:connector-curvature="0" />
    </marker>
    <marker
       inkscape:stockid="Arrow1Lend"
       orient="auto"
       refY="0"
       refX="0"
       id="Arrow1Lend"
       style="overflow:visible">
      <path
         id="path3799"
         d="M 0,0 5,-5 -12.5,0 5,5 Z"
         style="fill-rule:evenodd;stroke:#000000;stroke-width:1.00000003pt"
         transform="matrix(-0.8,0,0,-0.8,-10,0)"
         inkscape:connector-curvature="0" />
    </marker>
    <marker
       inkscape:stockid="Arrow1Lstart"
       orient="auto"
       refY="0"
       refX="0"
       id="Arrow1Lstart"
       style="overflow:visible">
      <path
         id="path3796"
         d="M 0,0 5,-5 -12.5,0 5,5 Z"
         style="fill-rule:evenodd;stroke:#000000;stroke-width:1.00000003pt"
         transform="matrix(0.8,0,0,0.8,10,0)"
         inkscape:connector-curvature="0" />
    </marker>
    <filter
       style="color-interpolation-filters:sRGB"
       inkscape:label="Drop Shadow"
       id="filter4942">
      <feFlood
         flood-opacity="0.784314"
         flood-color="rgb(0,0,0)"
         result="flood"
         id="feFlood4932" />
      <feComposite
         in="flood"
         in2="SourceGraphic"
         operator="out"
         result="composite1"
         id="feComposite4934" />
      <feGaussianBlur
         in="composite1"
         stdDeviation="0.5"
         result="blur"
         id="feGaussianBlur4936" />
      <feOffset
         dx="0.8"
         dy="0.9"
         result="offset"
         id="feOffset4938" />
      <feComposite
         in="offset"
         in2="SourceGraphic"
         operator="atop"
         result="composite2"
         id="feComposite4940" />
    </filter>
    <filter
       style="color-interpolation-filters:sRGB"
       inkscape:label="Drop Shadow"
       id="filter5080">
      <feFlood
         flood-opacity="0.784314"
         flood-color="rgb(0,0,0)"
         result="flood"
         id="feFlood5070" />
      <feComposite
         in="flood"
         in2="SourceGraphic"
         operator="in"
         result="composite1"
         id="feComposite5072" />
      <feGaussianBlur
         in="composite1"
         stdDeviation="1"
         result="blur"
         id="feGaussianBlur5074" />
      <feOffset
         dx="3"
         dy="3"
         result="offset"
         id="feOffset5076" />
      <feComposite
         in="SourceGraphic"
         in2="offset"
         operator="over"
         result="composite2"
         id="feComposite5078" />
    </filter>
    <filter
       style="color-interpolation-filters:sRGB"
       inkscape:label="Drop Shadow"
       id="filter1124">
      <feFlood
         flood-opacity="0.784314"
         flood-color="rgb(0,0,0)"
         result="flood"
         id="feFlood1114" />
      <feComposite
         in="flood"
         in2="SourceGraphic"
         operator="in"
         result="composite1"
         id="feComposite1116" />
      <feGaussianBlur
         in="composite1"
         stdDeviation="1"
         result="blur"
         id="feGaussianBlur1118" />
      <feOffset
         dx="3.4"
         dy="2"
         result="offset"
         id="feOffset1120" />
      <feComposite
         in="SourceGraphic"
         in2="offset"
         operator="over"
         result="composite2"
         id="feComposite1122" />
    </filter>
  </defs>
  <sodipodi:namedview
     id="base"
     pagecolor="#ffffff"
     bordercolor="#666666"
     borderopacity="1.0"
     inkscape:pageopacity="0.0"
     inkscape:pageshadow="2"
     inkscape:zoom="7.919596"
     inkscape:cx="31.13703"
     inkscape:cy="35.089448"
     inkscape:document-units="px"
     inkscape:current-layer="layer1"
     showgrid="false"
     fit-margin-top="0"
     fit-margin-left="0"
     fit-margin-right="0"
     fit-margin-bottom="0"
     inkscape:window-width="1920"
     inkscape:window-height="1043"
     inkscape:window-x="0"
     inkscape:window-y="0"
     inkscape:window-maximized="1"
     showguides="true"
     inkscape:guide-bbox="true" />
  <metadata
     id="metadata3245">
    <rdf:RDF>
      <cc:Work
         rdf:about="">
        <dc:format>image/svg+xml</dc:format>
        <dc:type
           rdf:resource="http://purl.org/dc/dcmitype/StillImage" />
        <dc:title></dc:title>
      </cc:Work>
    </rdf:RDF>
  </metadata>
  <g
     inkscape:label="Layer 1"
     inkscape:groupmode="layer"
     id="layer1"
     transform="translate(-412.05607,-370.80415)">
    <path
       inkscape:connector-curvature="0"
       id="path5416-1-9-0"
       d="m 436.4802,399.43877 c 5.75454,0.0775 12.04999,-4.76263 12.12668,-10.45784 0.0519,-3.85613 -3.05717,-6.50879 -7.32858,-6.5663 -5.75453,-0.0775 -12.04999,4.76263 -12.12668,10.45784 -0.0519,3.85613 3.05717,6.50879 7.32858,6.5663"
       style="font-size:4px;font-family:Emmentaler;fill:#ffffff;fill-opacity:1;stroke-width:14.83264446"
       sodipodi:nodetypes="ccccc" />
    <path
       inkscape:connector-curvature="0"
       id="path5416-1-9-7"
       d="m 437.03948,418.89567 c 5.75454,0.0775 12.04999,-4.76263 12.12668,-10.45784 0.0519,-3.85613 -3.05717,-6.50879 -7.32858,-6.5663 -5.75453,-0.0775 -12.04999,4.76263 -12.12668,10.45784 -0.0519,3.85613 3.05717,6.50879 7.32858,6.5663"
       style="font-size:4px;font-family:Emmentaler;fill:#ffffff;fill-opacity:1;stroke-width:14.83264446"
       sodipodi:nodetypes="ccccc" />
    <path
       inkscape:connector-curvature="0"
       id="path5416-1-2"
       d="m 436.72144,438.59249 c 5.75454,0.0775 12.04999,-4.76263 12.12668,-10.45784 0.0519,-3.85613 -3.05717,-6.50879 -7.32858,-6.5663 -5.75453,-0.0775 -12.04999,4.76263 -12.12668,10.45784 -0.0519,3.85613 3.05717,6.50879 7.32858,6.5663"
       style="font-size:4px;font-family:Emmentaler;fill:#ffffff;fill-opacity:1;stroke-width:14.83264446"
       sodipodi:nodetypes="ccccc" />
    <path
       style="opacity:1;fill:#00a0a0;fill-opacity:1;stroke:none;stroke-width:1;filter:url(#filter1124)"
       d="m 8.3730469,0.96484375 c -4.13237,0 -7.46093752,3.20966255 -7.46093752,7.19531245 V 71.445312 c 0,3.985653 3.32856752,7.191407 7.46093752,7.191407 H 44.658203 c 4.13236,0 7.460938,-3.205757 7.460938,-7.191407 V 8.1601562 c 0,-3.9856499 -3.328578,-7.19531245 -7.460938,-7.19531245 z M 29.236328,11.580078 c 4.27141,0.05751 7.380025,2.710276 7.328125,6.566406 -0.07669,5.69521 -6.372413,10.534532 -12.126953,10.457032 -4.27141,-0.05751 -7.380025,-2.708323 -7.328125,-6.564454 0.07669,-5.695209 6.372423,-10.536484 12.126953,-10.458984 z m 0.523438,19.496391 c 4.27141,0.05751 7.380025,2.710276 7.328125,6.566406 -0.07669,5.69521 -6.37046,10.536484 -12.125,10.458984 -4.27141,-0.05751 -7.381978,-2.710276 -7.330079,-6.566406 0.07669,-5.69521 6.372424,-10.536484 12.126954,-10.458984 z m -0.358493,19.769234 c 4.27141,0.05751 7.380025,2.710276 7.328125,6.566406 -0.07669,5.69521 -6.372413,10.536485 -12.126953,10.458985 -4.27141,-0.05751 -7.380025,-2.710276 -7.328125,-6.566406 0.07669,-5.69521 6.372423,-10.536485 12.126953,-10.458985 z"
       transform="translate(412.05607,370.80414)"
       id="rect3841"
       inkscape:connector-curvature="0"
       sodipodi:nodetypes="sssssssssccccccccccccccc" />
    <path
       style="color:#000000;font-style:normal;font-variant:normal;font-weight:normal;font-stretch:normal;font-size:medium;line-height:normal;font-family:Sans;-inkscape-font-specification:Sans;text-indent:0;text-align:start;text-decoration:none;text-decoration-line:none;letter-spacing:normal;word-spacing:normal;text-transform:none;writing-mode:lr-tb;direction:ltr;baseline-shift:baseline;text-anchor:start;display:inline;overflow:visible;visibility:visible;opacity:0.98999999;fill:#000000;fill-opacity:1;fill-rule:nonzero;stroke:none;stroke-width:1.01304471;marker:none;enable-background:accumulate"
       d="m 9.671875,1.8029325 -6.6835938,14.0722655 5.84375,-0.04492 v 54.048629 c 3.832e-4,0.148415 0.048289,0.292817 0.1367188,0.41211 0.1030667,0.388937 0.5425894,0.690604 0.9394531,0.666015 l 26.4785159,0.06445 -0.04102,6.029297 13.439453,-6.867187 -13.439453,-6.720703 0.04297,5.845703 -26.16211,-0.06445 V 15.830278 l 6.277344,0.04492 z"
       transform="translate(412.05607,370.80414)"
       id="line8"
       inkscape:connector-curvature="0"
       sodipodi:nodetypes="ccccccccccccccc" />
    <path
       style="color:#000000;font-style:normal;font-variant:normal;font-weight:normal;font-stretch:normal;font-size:medium;line-height:normal;font-family:Sans;-inkscape-font-specification:Sans;text-indent:0;text-align:start;text-decoration:none;text-decoration-line:none;letter-spacing:normal;word-spacing:normal;text-transform:none;writing-mode:lr-tb;direction:ltr;baseline-shift:baseline;text-anchor:start;display:inline;overflow:visible;visibility:visible;opacity:0.98999999;fill:#000000;fill-opacity:1;fill-rule:nonzero;stroke:none;stroke-width:0.80965328;marker:none;enable-background:accumulate"
       d="m 460.68229,431.00263 -12.42937,-0.001 c 0.42846,-1.23254 0.43541,-1.72638 0.43541,-1.72638 l 11.98213,-0.0173 z"
       id="line8-6-7-5-0"
       inkscape:connector-curvature="0"
       sodipodi:nodetypes="ccccc" />
    <path
       style="color:#000000;font-style:normal;font-variant:normal;font-weight:normal;font-stretch:normal;font-size:medium;line-height:normal;font-family:Sans;-inkscape-font-specification:Sans;text-indent:0;text-align:start;text-decoration:none;text-decoration-line:none;letter-spacing:normal;word-spacing:normal;text-transform:none;writing-mode:lr-tb;direction:ltr;baseline-shift:baseline;text-anchor:start;display:inline;overflow:visible;visibility:visible;opacity:0.98999999;fill:#000000;fill-opacity:1;fill-rule:nonzero;stroke:none;stroke-width:0.8517276;marker:none;enable-background:accumulate"
       d="m 421.2752,391.73686 8.00102,-10e-4 c 0.0497,-0.50539 0.20433,-1.10467 0.45033,-1.7487 l -8.43826,0.005 z"
       id="line8-6-7-5"
       inkscape:connector-curvature="0"
       sodipodi:nodetypes="ccccc" />
    <path
       style="color:#000000;font-style:normal;font-variant:normal;font-weight:normal;font-stretch:normal;font-size:medium;line-height:normal;font-family:Sans;-inkscape-font-specification:Sans;text-indent:0;text-align:start;text-decoration:none;text-decoration-line:none;letter-spacing:normal;word-spacing:normal;text-transform:none;writing-mode:lr-tb;direction:ltr;baseline-shift:baseline;text-anchor:start;display:inline;overflow:visible;visibility:visible;opacity:0.98999999;fill:#000000;fill-opacity:1;fill-rule:nonzero;stroke:none;stroke-width:0.63602561;marker:none;enable-background:accumulate"
       d="m 422.02014,411.25682 7.77168,-10e-4 c 0.19966,-1.16197 0.346,-1.25964 0.44053,-1.74081 l -8.20491,-0.003 z"
       id="line8-6-7-5-6"
       inkscape:connector-curvature="0"
       sodipodi:nodetypes="ccccc" />
    <path
       style="color:#000000;font-style:normal;font-variant:normal;font-weight:normal;font-stretch:normal;font-size:medium;line-height:normal;font-family:Sans;-inkscape-font-specification:Sans;text-indent:0;text-align:start;text-decoration:none;text-decoration-line:none;letter-spacing:normal;word-spacing:normal;text-transform:none;writing-mode:lr-tb;direction:ltr;baseline-shift:baseline;text-anchor:start;display:inline;overflow:visible;visibility:visible;opacity:0.98999999;fill:#000000;fill-opacity:1;fill-rule:nonzero;stroke:none;stroke-width:0.58507127;marker:none;enable-background:accumulate"
       d="m 460.48947,411.25675 -11.88549,-0.009 c 0.3421,-0.81427 0.43254,-1.71849 0.43254,-1.71849 l 11.44677,-0.0173 z"
       id="line8-6-7-5-0-6"
       inkscape:connector-curvature="0"
       sodipodi:nodetypes="ccccc" />
    <path
       style="color:#000000;font-style:normal;font-variant:normal;font-weight:normal;font-stretch:normal;font-size:medium;line-height:normal;font-family:Sans;-inkscape-font-specification:Sans;text-indent:0;text-align:start;text-decoration:none;text-decoration-line:none;letter-spacing:normal;word-spacing:normal;text-transform:none;writing-mode:lr-tb;direction:ltr;baseline-shift:baseline;text-anchor:start;display:inline;overflow:visible;visibility:visible;opacity:0.98999999;fill:#000000;fill-opacity:1;fill-rule:nonzero;stroke:none;stroke-width:0.2325633;marker:none;enable-background:accumulate"
       d="m 460.49043,391.7344 -12.4012,0.002 c 0.29963,-0.72498 0.42544,-1.71849 0.42544,-1.71849 l 11.97476,-0.0285 z"
       id="line8-6-7-5-0-6-2"
       inkscape:connector-curvature="0"
       sodipodi:nodetypes="ccccc" />
    <path
       style="color:#000000;font-style:normal;font-variant:normal;font-weight:normal;font-stretch:normal;font-size:medium;line-height:normal;font-family:Sans;-inkscape-font-specification:Sans;text-indent:0;text-align:start;text-decoration:none;text-decoration-line:none;letter-spacing:normal;word-spacing:normal;text-transform:none;writing-mode:lr-tb;direction:ltr;baseline-shift:baseline;text-anchor:start;display:inline;overflow:visible;visibility:visible;opacity:0.98999999;fill:#000000;fill-opacity:1;fill-rule:nonzero;stroke:none;stroke-width:0.3429054;marker:none;enable-background:accumulate"
       d="m 421.36512,431.00263 8.0863,0.0463 c 0.0913,-1.16197 0.37336,-1.29121 0.39637,-1.77238 l -8.48055,-0.0188 z"
       id="line8-6-7-5-6-6"
       inkscape:connector-curvature="0"
       sodipodi:nodetypes="ccccc" />
  </g>
</svg>
