<?xml version="1.0" encoding="UTF-8" standalone="no"?>
<!-- Created with Inkscape (http://www.inkscape.org/) -->

<svg
   xmlns:dc="http://purl.org/dc/elements/1.1/"
   xmlns:cc="http://creativecommons.org/ns#"
   xmlns:rdf="http://www.w3.org/1999/02/22-rdf-syntax-ns#"
   xmlns:svg="http://www.w3.org/2000/svg"
   xmlns="http://www.w3.org/2000/svg"
   xmlns:sodipodi="http://sodipodi.sourceforge.net/DTD/sodipodi-0.dtd"
   xmlns:inkscape="http://www.inkscape.org/namespaces/inkscape"
   width="101"
   height="85"
   id="svg3240"
   version="1.1"
   inkscape:version="0.92.4 5da689c313, 2019-01-14"
   sodipodi:docname="charts.svg"
   inkscape:export-filename="../../picts/charts.png"
   inkscape:export-xdpi="243.32674"
   inkscape:export-ydpi="243.32674">
  <defs
     id="defs3242">
    <marker
       inkscape:stockid="DotM"
       orient="auto"
       refY="0"
       refX="0"
       id="DotM"
       style="overflow:visible">
      <path
         id="path3860"
         d="m -2.5,-1 c 0,2.76 -2.24,5 -5,5 -2.76,0 -5,-2.24 -5,-5 0,-2.76 2.24,-5 5,-5 2.76,0 5,2.24 5,5 z"
         style="fill-rule:evenodd;stroke:#000000;stroke-width:1.00000003pt"
         transform="matrix(0.4,0,0,0.4,2.96,0.4)"
         inkscape:connector-curvature="0" />
    </marker>
    <marker
       inkscape:stockid="EmptyDiamondMstart"
       orient="auto"
       refY="0"
       refX="0"
       id="EmptyDiamondMstart"
       style="overflow:visible">
      <path
         id="path3914"
         d="M 0,-7.0710768 -7.0710894,0 0,7.0710589 7.0710462,0 Z"
         style="fill:#ffffff;fill-rule:evenodd;stroke:#000000;stroke-width:1.00000003pt"
         transform="matrix(0.4,0,0,0.4,2.6,0)"
         inkscape:connector-curvature="0" />
    </marker>
    <marker
       inkscape:stockid="EmptyDiamondMend"
       orient="auto"
       refY="0"
       refX="0"
       id="EmptyDiamondMend"
       style="overflow:visible">
      <path
         id="path3923"
         d="M 0,-7.0710768 -7.0710894,0 0,7.0710589 7.0710462,0 Z"
         style="fill:#ffffff;fill-rule:evenodd;stroke:#000000;stroke-width:1.00000003pt"
         transform="matrix(0.4,0,0,0.4,-2.6,0)"
         inkscape:connector-curvature="0" />
    </marker>
    <marker
       inkscape:stockid="Arrow1Lend"
       orient="auto"
       refY="0"
       refX="0"
       id="Arrow1Lend"
       style="overflow:visible">
      <path
         id="path3799"
         d="M 0,0 5,-5 -12.5,0 5,5 Z"
         style="fill-rule:evenodd;stroke:#000000;stroke-width:1.00000003pt"
         transform="matrix(-0.8,0,0,-0.8,-10,0)"
         inkscape:connector-curvature="0" />
    </marker>
    <marker
       inkscape:stockid="Arrow1Lstart"
       orient="auto"
       refY="0"
       refX="0"
       id="Arrow1Lstart"
       style="overflow:visible">
      <path
         id="path3796"
         d="M 0,0 5,-5 -12.5,0 5,5 Z"
         style="fill-rule:evenodd;stroke:#000000;stroke-width:1.00000003pt"
         transform="matrix(0.8,0,0,0.8,10,0)"
         inkscape:connector-curvature="0" />
    </marker>
    <filter
       inkscape:collect="always"
       style="color-interpolation-filters:sRGB"
       id="filter1001"
       x="-0.032684404"
       width="1.0653688"
       y="-0.040064223"
       height="1.0801284">
      <feGaussianBlur
         inkscape:collect="always"
         stdDeviation="1.2965771"
         id="feGaussianBlur1003" />
    </filter>
  </defs>
  <sodipodi:namedview
     id="base"
     pagecolor="#ffffff"
     bordercolor="#666666"
     borderopacity="1.0"
     inkscape:pageopacity="0.0"
     inkscape:pageshadow="2"
     inkscape:zoom="5.6"
     inkscape:cx="58.406189"
     inkscape:cy="42.282147"
     inkscape:document-units="px"
     inkscape:current-layer="layer1"
     showgrid="false"
     fit-margin-top="0"
     fit-margin-left="0"
     fit-margin-right="0"
     fit-margin-bottom="0"
     inkscape:window-width="1600"
     inkscape:window-height="1163"
     inkscape:window-x="0"
     inkscape:window-y="0"
     inkscape:window-maximized="1"
     objecttolerance="10"
     guidetolerance="10"
     showguides="true"
     inkscape:guide-bbox="true" />
  <metadata
     id="metadata3245">
    <rdf:RDF>
      <cc:Work
         rdf:about="">
        <dc:format>image/svg+xml</dc:format>
        <dc:type
           rdf:resource="http://purl.org/dc/dcmitype/StillImage" />
        <dc:title />
      </cc:Work>
    </rdf:RDF>
  </metadata>
  <g
     inkscape:label="Layer 1"
     inkscape:groupmode="layer"
     id="layer1"
     transform="translate(-412.43488,-370.46503)">
    <g
       transform="matrix(2.4769027,0,0,3.7327409,-1230.7556,-906.94823)"
       style="font-style:normal;font-variant:normal;font-weight:500;font-stretch:normal;font-size:18.00580597px;line-height:125%;font-family:feta14;-inkscape-font-specification:'feta14 Medium';letter-spacing:0px;word-spacing:0px;opacity:1;fill:#ff0000;fill-opacity:1;stroke:none;stroke-width:0.41460866"
       id="text3606-8-1-3">
      <path
         inkscape:connector-curvature="0"
         d="m 672.47077,348.98888 c 0,-1.39244 0.79825,-2.39476 2.39477,-3.00697 1.2484,-0.46814 2.97696,-0.70221 5.18567,-0.70222 1.09235,10e-6 2.12468,0.16206 3.097,0.48615 1.15236,0.38414 2.01664,0.94232 2.59284,1.67454 0.33609,0.44415 0.50415,0.92431 0.50416,1.44047 -1e-5,0.82827 -0.44416,1.62653 -1.33243,2.39477 -0.64822,0.56419 -1.36845,0.99632 -2.1607,1.29642 -1.26041,0.48016 -2.23873,1.02033 -2.93494,1.62052 -0.24009,0.21607 -0.36013,0.40813 -0.36012,0.57618 -1e-5,0.024 -0.012,0.066 -0.036,0.12605 -0.012,0.048 -0.018,0.084 -0.018,0.10803 0,0.22808 -0.43814,0.34211 -1.31442,0.34211 -0.37213,0 -0.58219,-0.03 -0.6302,-0.09 -0.036,-0.024 -0.048,-0.06 -0.036,-0.10803 0.012,-0.048 0.018,-0.10804 0.018,-0.18006 0,-0.70823 0.45614,-1.38044 1.36844,-2.01665 0.26408,-0.19206 0.67821,-0.45614 1.2424,-0.79226 0.57618,-0.3361 1.00232,-0.60019 1.27842,-0.79225 0.90028,-0.6362 1.35042,-1.28441 1.35043,-1.94463 -10e-6,-0.3361 -0.15606,-0.66621 -0.46815,-0.99032 -0.43215,-0.44413 -1.03234,-0.6662 -1.80058,-0.66621 -0.46816,10e-6 -0.9063,0.11404 -1.31442,0.34211 -0.48017,0.27609 -0.72024,0.63021 -0.72024,1.06234 0,0.13205 0.048,0.25809 0.14405,0.37812 0.10803,0.12005 0.16205,0.22208 0.16205,0.3061 0,0.16806 -0.22808,0.25209 -0.68422,0.25208 h -4.80755 c -0.48015,10e-6 -0.72023,-0.28808 -0.72023,-0.86428 v -0.25208 m 3.79922,6.98625 h 3.34908 c 0.19206,0 0.56418,0.2821 1.11636,0.84628 0.57618,0.60019 0.86427,1.03233 0.86428,1.29641 -10e-6,0.12004 -0.048,0.17406 -0.14404,0.16206 -0.096,-0.012 -0.17407,-0.018 -0.23408,-0.018 h -2.75489 c -0.096,0 -0.44415,-0.27009 -1.04433,-0.81026 -0.67223,-0.60019 -1.05635,-1.09235 -1.15238,-1.47648"
         style="font-weight:normal;font-family:'FL Jazzowy 1';-inkscape-font-specification:'FL Jazzowy 1,';fill:#ff0000;stroke-width:0.41460866"
         id="path4483-8-1" />
    </g>
    <g
       aria-label="!"
       style="font-style:normal;font-variant:normal;font-weight:normal;font-stretch:normal;font-size:16px;line-height:1.25;font-family:Arial;-inkscape-font-specification:Arial;letter-spacing:0px;word-spacing:0px;fill:#000000;fill-opacity:1;stroke:none;stroke-width:0.28135204"
       id="text904-8"
       transform="matrix(3.5542662,0,0,3.5542662,-1302.006,-1017.8997)">
      <path
         d="m 499.97492,395.89218 q 0,-0.112 1.536,-0.768 1.712,-0.736 2.464,-0.768 v 8.24 q 0,0.704 -0.352,0.832 -0.176,0.08 -0.432,0.08 h -1.04 q -0.64,0 -0.976,-0.112 -0.192,-0.048 -0.192,-0.16 0,0.032 0.16,-0.448 0.176,-0.48 0.176,-1.088 v -0.336 q 0,-2.896 -0.672,-4.144 -0.208,-0.304 -0.432,-0.624 -0.24,-0.384 -0.24,-0.704 z m 0.432,8.752 q 0,-0.208 0.688,-0.208 0.704,0 1.216,-0.016 0.496,0 1.168,0.016 l 0.32,0.272 q 0.832,0.72 1.392,1.408 0.304,0.368 0.304,0.56 0,0.272 -0.336,0.272 -0.608,0 -1.056,0.016 -1.424,0.016 -1.824,-0.128 -0.496,-0.192 -0.672,-0.576 -0.064,-0.144 -0.192,-0.32 -0.272,-0.336 -0.544,-0.656 -0.464,-0.576 -0.464,-0.64 z"
         style="font-style:normal;font-variant:normal;font-weight:normal;font-stretch:normal;font-family:'FL Jazzowy 1';-inkscape-font-specification:'FL Jazzowy 1, ';fill:#00ff00;stroke-width:0.28135204"
         id="path906-9"
         inkscape:connector-curvature="0" />
    </g>
    <path
       style="opacity:0.80800003;fill:#1a1a1a;fill-opacity:1;stroke:none;stroke-width:1;filter:url(#filter1001)"
       d="m 423.45158,374.37054 c -4.13237,0 -7.46094,3.20966 -7.46094,7.19532 v 63.2832 c 0,3.98565 3.32857,7.1914 7.46094,7.1914 h 80.28516 c 4.13236,0 7.46093,-3.20575 7.46093,-7.1914 v -63.2832 c 0,-3.98566 -3.32857,-7.19532 -7.46093,-7.19532 z m 33.10938,10.30078 c 2.70564,4e-5 5.26353,0.60471 7.67187,1.81446 2.85428,1.43389 4.99468,3.51681 6.42188,6.25 0.83246,1.65789 1.24802,3.45026 1.24804,5.37695 -2e-5,3.09172 -1.10062,6.07181 -3.30078,8.93945 -1.60558,2.10598 -3.38924,3.7177 -5.35156,4.83789 -3.12191,1.79232 -5.54509,3.81043 -7.26953,6.05079 -0.59468,0.80653 -0.89065,1.5231 -0.89063,2.15039 -2e-5,0.0896 -0.0304,0.24655 -0.0898,0.4707 -0.0297,0.17917 -0.0449,0.31265 -0.0449,0.40234 0,0.85137 -1.0854,1.27735 -3.25586,1.27735 -0.92173,0 -1.44163,-0.11198 -1.56054,-0.33594 -0.0892,-0.0896 -0.11957,-0.22502 -0.0898,-0.4043 0.0297,-0.17917 0.0449,-0.40304 0.0449,-0.67187 0,-2.64364 1.13094,-5.15254 3.39062,-7.52735 0.6541,-0.71691 1.67873,-1.70238 3.07617,-2.95703 1.42714,-1.25457 2.48215,-2.24012 3.16602,-2.95703 2.2299,-2.37477 3.34568,-4.79534 3.3457,-7.25976 -2e-5,-1.25458 -0.38714,-2.4855 -1.16015,-3.69532 -1.0704,-1.65782 -2.55613,-2.48629 -4.45899,-2.48633 -1.15959,4e-5 -2.24498,0.42407 -3.25586,1.2754 -1.18933,1.03057 -1.78515,2.35376 -1.78515,3.96679 0,0.49291 0.11951,0.96212 0.35742,1.41016 0.26758,0.44811 0.40234,0.82895 0.40234,1.14258 0,0.62732 -0.5655,0.94144 -1.69531,0.9414 h -11.90821 c -1.18929,4e-5 -1.7832,-1.07576 -1.7832,-3.22656 v -0.93945 -0.002 c 0,-5.19762 1.97721,-8.93744 5.93164,-11.22266 3.09216,-1.74745 7.37299,-2.62106 12.84375,-2.62109 z m 35.58984,1.85743 v 29.28711 c 0,1.66813 -0.41593,2.65373 -1.25,2.95703 -0.41704,0.18956 -0.93052,0.2832 -1.53711,0.2832 h -3.69531 c -1.51649,0 -2.6726,-0.13305 -3.46875,-0.39844 -0.45495,-0.11374 -0.6836,-0.30297 -0.6836,-0.56836 0,0.0758 0.19119,-0.45443 0.57032,-1.59179 0.41703,-1.13737 0.625,-2.42653 0.625,-3.86719 v -1.19336 c 0,-6.86211 -0.79636,-11.77332 -2.38868,-14.73047 -0.49285,-0.72033 -1.00438,-1.45855 -1.53515,-2.2168 -0.56868,-0.90989 -0.85352,-1.74371 -0.85352,-2.50195 0,-0.26538 1.81942,-1.17607 5.45899,-2.73047 4.0566,-1.74396 6.97594,-2.65269 8.75781,-2.72851 z m -5.91406,35.76953 c 1.17527,0 2.56003,0.0187 4.15234,0.0566 l 1.13672,0.96679 c 1.97143,1.70605 3.62034,3.37369 4.94727,5.00391 0.72033,0.87198 1.08007,1.53529 1.08007,1.99023 0,0.64451 -0.3972,0.9668 -1.19336,0.9668 -1.44066,0 -2.69236,0.0187 -3.7539,0.0566 -3.37419,0.0379 -5.53462,-0.11387 -6.48242,-0.45508 -1.17528,-0.45494 -1.97164,-1.13698 -2.38868,-2.04687 -0.15164,-0.34121 -0.37834,-0.71969 -0.68164,-1.13672 -0.6445,-0.79616 -1.28908,-1.57379 -1.93359,-2.33203 -1.09945,-1.36484 -1.65039,-2.12179 -1.65039,-2.27344 0,-0.49286 0.81509,-0.74023 2.44531,-0.74023 1.66814,0 3.10908,-0.0187 4.32227,-0.0566 z m -39.04102,2.29492 h 8.29492 c 0.47572,0 1.39793,1.05422 2.76563,3.16016 1.42714,2.24035 2.1406,3.85214 2.14062,4.83789 -2e-5,0.44807 -0.11954,0.65026 -0.35742,0.60546 -0.23778,-0.0448 -0.43144,-0.0664 -0.58008,-0.0664 h -6.82226 c -0.23779,0 -1.10131,-1.00907 -2.58789,-3.02539 -1.66505,-2.24035 -2.61566,-4.07786 -2.85352,-5.51172 z"
       id="rect3841-3"
       inkscape:connector-curvature="0"
       sodipodi:nodetypes="ssssssssscccccccccssccscccccccscsccscsccccscsscccssccsccccccsscccccsscccscccsscc" />
    <path
       style="opacity:1;fill:#00a0a0;fill-opacity:1;stroke:none;stroke-width:1"
       d="m 420.55529,371.59066 c -4.13237,0 -7.46094,3.20966 -7.46094,7.19532 v 63.2832 c 0,3.98565 3.32857,7.1914 7.46094,7.1914 h 80.28516 c 4.13236,0 7.46093,-3.20575 7.46093,-7.1914 v -63.2832 c 0,-3.98566 -3.32857,-7.19532 -7.46093,-7.19532 z m 33.10938,10.30078 c 2.70564,4e-5 5.26353,0.60471 7.67187,1.81446 2.85428,1.43389 4.99468,3.51681 6.42188,6.25 0.83246,1.65789 1.24802,3.45026 1.24804,5.37695 -2e-5,3.09172 -1.10062,6.07181 -3.30078,8.93945 -1.60558,2.10598 -3.38924,3.7177 -5.35156,4.83789 -3.12191,1.79232 -5.54509,3.81043 -7.26953,6.05079 -0.59468,0.80653 -0.89065,1.5231 -0.89063,2.15039 -2e-5,0.0896 -0.0304,0.24655 -0.0898,0.4707 -0.0297,0.17917 -0.0449,0.31265 -0.0449,0.40234 0,0.85137 -1.0854,1.27735 -3.25586,1.27735 -0.92173,0 -1.44163,-0.11198 -1.56054,-0.33594 -0.0892,-0.0896 -0.11957,-0.22502 -0.0898,-0.4043 0.0297,-0.17917 0.0449,-0.40304 0.0449,-0.67187 0,-2.64364 1.13094,-5.15254 3.39062,-7.52735 0.6541,-0.71691 1.67873,-1.70238 3.07617,-2.95703 1.42714,-1.25457 2.48215,-2.24012 3.16602,-2.95703 2.2299,-2.37477 3.34568,-4.79534 3.3457,-7.25976 -2e-5,-1.25458 -0.38714,-2.4855 -1.16015,-3.69532 -1.0704,-1.65782 -2.55613,-2.48629 -4.45899,-2.48633 -1.15959,4e-5 -2.24498,0.42407 -3.25586,1.2754 -1.18933,1.03057 -1.78515,2.35376 -1.78515,3.96679 0,0.49291 0.11951,0.96212 0.35742,1.41016 0.26758,0.44811 0.40234,0.82895 0.40234,1.14258 0,0.62732 -0.5655,0.94144 -1.69531,0.9414 h -11.90821 c -1.18929,4e-5 -1.7832,-1.07576 -1.7832,-3.22656 v -0.93945 -0.002 c 0,-5.19762 1.97721,-8.93744 5.93164,-11.22266 3.09216,-1.74745 7.37299,-2.62106 12.84375,-2.62109 z m 35.58984,1.85743 v 29.28711 c 0,1.66813 -0.41593,2.65373 -1.25,2.95703 -0.41704,0.18956 -0.93052,0.2832 -1.53711,0.2832 h -3.69531 c -1.51649,0 -2.6726,-0.13305 -3.46875,-0.39844 -0.45495,-0.11374 -0.6836,-0.30297 -0.6836,-0.56836 0,0.0758 0.19119,-0.45443 0.57032,-1.59179 0.41703,-1.13737 0.625,-2.42653 0.625,-3.86719 v -1.19336 c 0,-6.86211 -0.79636,-11.77332 -2.38868,-14.73047 -0.49285,-0.72033 -1.00438,-1.45855 -1.53515,-2.2168 -0.56868,-0.90989 -0.85352,-1.74371 -0.85352,-2.50195 0,-0.26538 1.81942,-1.17607 5.45899,-2.73047 4.0566,-1.74396 6.97594,-2.65269 8.75781,-2.72851 z m -5.91406,35.76953 c 1.17527,0 2.56003,0.0187 4.15234,0.0566 l 1.13672,0.96679 c 1.97143,1.70605 3.62034,3.37369 4.94727,5.00391 0.72033,0.87198 1.08007,1.53529 1.08007,1.99023 0,0.64451 -0.3972,0.9668 -1.19336,0.9668 -1.44066,0 -2.69236,0.0187 -3.7539,0.0566 -3.37419,0.0379 -5.53462,-0.11387 -6.48242,-0.45508 -1.17528,-0.45494 -1.97164,-1.13698 -2.38868,-2.04687 -0.15164,-0.34121 -0.37834,-0.71969 -0.68164,-1.13672 -0.6445,-0.79616 -1.28908,-1.57379 -1.93359,-2.33203 -1.09945,-1.36484 -1.65039,-2.12179 -1.65039,-2.27344 0,-0.49286 0.81509,-0.74023 2.44531,-0.74023 1.66814,0 3.10908,-0.0187 4.32227,-0.0566 z m -39.04102,2.29492 h 8.29492 c 0.47572,0 1.39793,1.05422 2.76563,3.16016 1.42714,2.24035 2.1406,3.85214 2.14062,4.83789 -2e-5,0.44807 -0.11954,0.65026 -0.35742,0.60546 -0.23778,-0.0448 -0.43144,-0.0664 -0.58008,-0.0664 h -6.82226 c -0.23779,0 -1.10131,-1.00907 -2.58789,-3.02539 -1.66505,-2.24035 -2.61566,-4.07786 -2.85352,-5.51172 z"
       id="rect3841"
       inkscape:connector-curvature="0"
       sodipodi:nodetypes="ssssssssscccccccccssccscccccccscsccscsccccscsscccssccsccccccsscccccsscccscccsscc" />
    <path
       style="fill:none;stroke:#ffffff;stroke-width:0.99999994;stroke-linecap:round;stroke-linejoin:miter;stroke-miterlimit:4;stroke-dasharray:none;stroke-opacity:1"
       d="m 442.79205,438.92803 c 0,-38.44382 0,-38.44382 0,-38.44382"
       id="path1005-64"
       inkscape:connector-curvature="0" />
    <path
       style="fill:none;stroke:#ffffff;stroke-width:0.99999994;stroke-linecap:round;stroke-linejoin:miter;stroke-miterlimit:4;stroke-dasharray:none;stroke-opacity:1"
       d="m 466.98845,439.30206 c 0,-35.85611 0,-35.85611 0,-35.85611"
       id="path1005-64-3"
       inkscape:connector-curvature="0" />
    <path
       style="fill:none;stroke:#ffffff;stroke-width:1;stroke-linecap:round;stroke-linejoin:miter;stroke-miterlimit:4;stroke-dasharray:none;stroke-opacity:1"
       d="m 489.79369,439.67502 c 0,-10.6038 0,-10.6038 0,-10.6038"
       id="path1005-64-3-9"
       inkscape:connector-curvature="0" />
    <path
       sodipodi:nodetypes="cscssscc"
       inkscape:connector-curvature="0"
       id="line8"
       d="m 421.58177,439.03889 c -0.44702,0.0272 -0.49648,0.47821 -0.46937,0.92642 0.0272,0.44822 0.55087,0.81277 0.99789,0.78561 l 82.89469,0.074 c 0.44702,4e-4 0.85374,-0.4078 0.85374,-0.85601 0,-0.44821 -0.40672,-0.85563 -0.85374,-0.85603 l -83.31973,-0.074 c -0.0344,-0.002 -0.069,-0.002 -0.10348,0 z"
       style="color:#000000;font-style:normal;font-variant:normal;font-weight:normal;font-stretch:normal;font-size:medium;line-height:normal;font-family:Sans;-inkscape-font-specification:Sans;text-indent:0;text-align:start;text-decoration:none;text-decoration-line:none;letter-spacing:normal;word-spacing:normal;text-transform:none;writing-mode:lr-tb;direction:ltr;baseline-shift:baseline;text-anchor:start;display:inline;overflow:visible;visibility:visible;fill:currentColor;fill-opacity:1;fill-rule:nonzero;stroke:none;stroke-width:1.023;marker:none;enable-background:accumulate" />
    <path
       sodipodi:nodetypes="ccccc"
       id="path3022"
       d="m 492.57672,439.82867 -0.0489,7.01572 13.43915,-6.86748 -13.43915,-6.71923 z"
       style="fill-rule:evenodd;stroke:#000000;stroke-width:0.80000004pt"
       inkscape:connector-curvature="0" />
    <path
       style="fill:none;stroke:#ffffff;stroke-width:0.99999994;stroke-linecap:round;stroke-linejoin:miter;stroke-miterlimit:4;stroke-dasharray:none;stroke-opacity:1"
       d="m 422.03238,427.34004 c 24.46343,0 24.46343,0 24.46343,0"
       id="path1005"
       inkscape:connector-curvature="0" />
    <path
       style="fill:none;stroke:#ffffff;stroke-width:0.99999994;stroke-linecap:round;stroke-linejoin:miter;stroke-miterlimit:4;stroke-dasharray:none;stroke-opacity:1"
       d="m 422.16043,414.49295 c 25.16057,0 25.16057,0 25.16057,0"
       id="path1005-6"
       inkscape:connector-curvature="0" />
    <path
       style="fill:none;stroke:#ffffff;stroke-width:0.99999994;stroke-linecap:round;stroke-linejoin:miter;stroke-miterlimit:4;stroke-dasharray:none;stroke-opacity:1"
       d="m 422.6875,402.07219 c 35.42012,0 35.42012,0 35.42012,0"
       id="path1005-6-8"
       inkscape:connector-curvature="0" />
    <path
       inkscape:connector-curvature="0"
       id="line8-7"
       d="m 421.47941,375.65676 a 0.69290839,0.72732271 0 0 0 -0.4645,0.70427 v 63.27684 a 0.696765,0.73137088 0 0 0 1.39353,0 v -63.27684 a 0.69290839,0.72732271 0 0 0 -0.92903,-0.70427 z"
       style="color:#000000;font-style:normal;font-variant:normal;font-weight:normal;font-stretch:normal;font-size:medium;line-height:normal;font-family:Sans;-inkscape-font-specification:Sans;text-indent:0;text-align:start;text-decoration:none;text-decoration-line:none;letter-spacing:normal;word-spacing:normal;text-transform:none;writing-mode:lr-tb;direction:ltr;baseline-shift:baseline;text-anchor:start;display:inline;overflow:visible;visibility:visible;fill:currentColor;fill-opacity:1;fill-rule:nonzero;stroke:none;stroke-width:0.83899999;marker:none;enable-background:accumulate" />
    <path
       style="fill:none;stroke:#ffffff;stroke-width:1;stroke-linecap:round;stroke-linejoin:miter;stroke-miterlimit:4;stroke-dasharray:none;stroke-opacity:1"
       d="m 427.50036,387.74889 c 8.97755,0 8.97755,0 8.97755,0"
       id="path1005-6-8-9"
       inkscape:connector-curvature="0" />
    <g
       transform="matrix(2.4769027,0,0,3.7327409,-1232.7559,-906.94894)"
       style="font-style:normal;font-variant:normal;font-weight:500;font-stretch:normal;font-size:18.00580597px;line-height:125%;font-family:feta14;-inkscape-font-specification:'feta14 Medium';letter-spacing:0px;word-spacing:0px;opacity:1;fill:#ff0000;fill-opacity:1;stroke:none;stroke-width:0.41460866"
       id="text3606-8-1" />
    <g
       aria-label="!"
       style="font-style:normal;font-variant:normal;font-weight:normal;font-stretch:normal;font-size:16px;line-height:1.25;font-family:Arial;-inkscape-font-specification:Arial;letter-spacing:0px;word-spacing:0px;fill:#000000;fill-opacity:1;stroke:none;stroke-width:0.28135204"
       id="text904"
       transform="matrix(3.5542662,0,0,3.5542662,-1256.211,-1021.4344)" />
    <path
       style="fill:none;stroke:#ffffff;stroke-width:0.99999988;stroke-linecap:round;stroke-linejoin:miter;stroke-miterlimit:4;stroke-dasharray:none;stroke-opacity:1"
       d="m 466.98843,387.73967 c 0,-14.20495 0,-14.20495 0,-14.20495"
       id="path1005-64-0-0"
       inkscape:connector-curvature="0" />
    <path
       style="fill:none;stroke:#ffffff;stroke-width:1;stroke-linecap:round;stroke-linejoin:miter;stroke-miterlimit:4;stroke-dasharray:none;stroke-opacity:1"
       d="m 457.424,427.34004 c 23.52449,0 23.52449,0 23.52449,0"
       id="path1005-3"
       inkscape:connector-curvature="0" />
    <path
       style="fill:none;stroke:#ffffff;stroke-width:1;stroke-linecap:round;stroke-linejoin:miter;stroke-miterlimit:4;stroke-dasharray:none;stroke-opacity:1"
       d="m 495.14849,427.34002 c 11.18037,0 11.18037,0 11.18037,0"
       id="path1005-8"
       inkscape:connector-curvature="0" />
    <path
       style="fill:none;stroke:#ffffff;stroke-width:1;stroke-linecap:round;stroke-linejoin:miter;stroke-miterlimit:4;stroke-dasharray:none;stroke-opacity:1"
       d="m 454.33097,414.49295 c 24.00408,0 24.00408,0 24.00408,0"
       id="path1005-3-0"
       inkscape:connector-curvature="0" />
    <path
       style="fill:none;stroke:#ffffff;stroke-width:0.99999994;stroke-linecap:round;stroke-linejoin:miter;stroke-miterlimit:4;stroke-dasharray:none;stroke-opacity:1"
       d="m 489.5965,414.49294 c 16.76947,0 16.76947,0 16.76947,0"
       id="path1005-8-4"
       inkscape:connector-curvature="0" />
    <path
       style="fill:none;stroke:#ffffff;stroke-width:0.99999994;stroke-linecap:round;stroke-linejoin:miter;stroke-miterlimit:4;stroke-dasharray:none;stroke-opacity:1"
       d="m 467.9175,402.07219 c 10.95315,0 10.95315,0 10.95315,0"
       id="path1005-3-0-8"
       inkscape:connector-curvature="0" />
    <path
       style="fill:none;stroke:#ffffff;stroke-width:0.99999994;stroke-linecap:round;stroke-linejoin:miter;stroke-miterlimit:4;stroke-dasharray:none;stroke-opacity:1"
       d="m 489.7816,402.07217 c 16.67611,0 16.67611,0 16.67611,0"
       id="path1005-8-4-8"
       inkscape:connector-curvature="0" />
    <path
       style="fill:none;stroke:#ffffff;stroke-width:1;stroke-linecap:round;stroke-linejoin:miter;stroke-miterlimit:4;stroke-dasharray:none;stroke-opacity:1"
       d="m 467.03057,387.74889 c 9.40468,0 9.40468,0 9.40468,0"
       id="path1005-3-0-8-7"
       inkscape:connector-curvature="0" />
    <path
       style="fill:none;stroke:#ffffff;stroke-width:1;stroke-linecap:round;stroke-linejoin:miter;stroke-miterlimit:4;stroke-dasharray:none;stroke-opacity:1"
       d="m 489.7533,387.74886 c 16.58609,0 16.58609,0 16.58609,0"
       id="path1005-8-4-8-7"
       inkscape:connector-curvature="0" />
    <path
       sodipodi:nodetypes="ccccc"
       id="path3022-5"
       d="m 421.48648,388.37521 6.9795,0.0511 -6.83204,-14.07111 -6.68455,14.07111 z"
       style="fill-rule:evenodd;stroke:#000000;stroke-width:0.81647784pt"
       inkscape:connector-curvature="0" />
    <path
       style="fill:none;stroke:#ffffff;stroke-width:0.99999982;stroke-linecap:round;stroke-linejoin:miter;stroke-miterlimit:4;stroke-dasharray:none;stroke-opacity:1"
       d="m 442.79204,382.9983 c 0,-9.48017 0,-9.48017 0,-9.48017"
       id="path1005-64-0"
       inkscape:connector-curvature="0" />
    <path
       style="fill:none;stroke:#ffffff;stroke-width:1;stroke-linecap:round;stroke-linejoin:miter;stroke-miterlimit:4;stroke-dasharray:none;stroke-opacity:1"
       d="m 489.79388,420.89924 c 0,-47.40063 0,-47.40063 0,-47.40063"
       id="path1005-64-3-9-5"
       inkscape:connector-curvature="0" />
  </g>
</svg>
