<?xml version="1.0" encoding="UTF-8" standalone="no"?>
<!-- Created with Inkscape (http://www.inkscape.org/) -->

<svg
   xmlns:dc="http://purl.org/dc/elements/1.1/"
   xmlns:cc="http://creativecommons.org/ns#"
   xmlns:rdf="http://www.w3.org/1999/02/22-rdf-syntax-ns#"
   xmlns:svg="http://www.w3.org/2000/svg"
   xmlns="http://www.w3.org/2000/svg"
   xmlns:xlink="http://www.w3.org/1999/xlink"
   xmlns:sodipodi="http://sodipodi.sourceforge.net/DTD/sodipodi-0.dtd"
   xmlns:inkscape="http://www.inkscape.org/namespaces/inkscape"
   width="173.39734mm"
   height="173.39734mm"
   viewBox="0 0 173.39734 173.39734"
   version="1.1"
   id="svg11491"
   inkscape:export-filename="../../picts/flags-en.png"
   inkscape:export-xdpi="37.499996"
   inkscape:export-ydpi="37.499996"
   inkscape:version="0.92.0 r"
   sodipodi:docname="flags-en.svg">
  <defs
     id="defs11485">
    <filter
       id="filter5912"
       inkscape:collect="always">
      <feGaussianBlur
         id="feGaussianBlur5914"
         stdDeviation="17.92"
         inkscape:collect="always" />
    </filter>
    <clipPath
       id="clipPathFlag"
       clipPathUnits="userSpaceOnUse">
      <rect
         id="rect3918"
         style="fill:#000000;fill-opacity:0.67000002"
         ry="57"
         height="511"
         width="511"
         y="0.5"
         x="0.5" />
    </clipPath>
    <linearGradient
       inkscape:collect="always"
       xlink:href="#linearGradient3852-0"
       id="linearGradient5521"
       gradientUnits="userSpaceOnUse"
       gradientTransform="matrix(0.95303,0,0,0.86647,11.575,-4.5016)"
       x1="405.26001"
       y1="118.06"
       x2="405.75"
       y2="360.92001" />
    <linearGradient
       id="linearGradient3852-0"
       inkscape:collect="always">
      <stop
         id="stop3854-6"
         style="stop-color:#dbe3db"
         offset="0" />
      <stop
         id="stop3856-1"
         style="stop-color:#dbe3db;stop-opacity:0"
         offset="1" />
    </linearGradient>
    <linearGradient
       inkscape:collect="always"
       xlink:href="#linearGradient3852-0"
       id="linearGradient5523"
       gradientUnits="userSpaceOnUse"
       gradientTransform="matrix(1.1571,0,0,1.3167,-91.204,-253.99)"
       x1="342.19"
       y1="705.76001"
       x2="358.07999"
       y2="523.40997" />
    <clipPath
       id="clipPath5796"
       clipPathUnits="userSpaceOnUse">
      <rect
         id="rect5798"
         style="fill:none;stroke:#00fa00;stroke-width:20"
         ry="57"
         height="512"
         width="512"
         y="0"
         x="0"
         inkscape:label="#rect4203" />
    </clipPath>
    <filter
       id="filter5740"
       inkscape:collect="always">
      <feGaussianBlur
         id="feGaussianBlur5742"
         stdDeviation="5.12"
         inkscape:collect="always" />
    </filter>
  </defs>
  <sodipodi:namedview
     id="base"
     pagecolor="#ffffff"
     bordercolor="#666666"
     borderopacity="1.0"
     inkscape:pageopacity="0.0"
     inkscape:pageshadow="2"
     inkscape:zoom="0.35"
     inkscape:cx="649.1086"
     inkscape:cy="539.10859"
     inkscape:document-units="mm"
     inkscape:current-layer="layer1"
     showgrid="false"
     fit-margin-top="0"
     fit-margin-left="0"
     fit-margin-right="0"
     fit-margin-bottom="0"
     inkscape:window-width="1920"
     inkscape:window-height="1046"
     inkscape:window-x="0"
     inkscape:window-y="0"
     inkscape:window-maximized="1" />
  <metadata
     id="metadata11488">
    <rdf:RDF>
      <cc:Work
         rdf:about="">
        <dc:format>image/svg+xml</dc:format>
        <dc:type
           rdf:resource="http://purl.org/dc/dcmitype/StillImage" />
        <dc:title></dc:title>
      </cc:Work>
    </rdf:RDF>
  </metadata>
  <g
     inkscape:label="Layer 1"
     inkscape:groupmode="layer"
     id="layer1"
     transform="translate(543.29391,-118.07514)">
    <g
       transform="matrix(0.28222223,0,0,0.28222223,-564.96858,91.32047)"
       inkscape:label="template-button"
       id="gb.svg">&gt;
   <g
   transform="translate(90,90)"
   inkscape:label="00"
   id="g944">
  <rect
     inkscape:label="#rect4203"
     x="38"
     y="56"
     width="512"
     height="512"
     ry="57"
     style="fill:#000000;stroke:#a8a8a8;stroke-width:5;filter:url(#filter5912)"
     id="rect946" />
</g>
<g
   transform="translate(128,128)"
   inkscape:label="01"
   clip-path="url(#clipPathFlag)"
   id="g948">
  <rect
     inkscape:label="#rect4203"
     x="0"
     y="0"
     width="512"
     height="512"
     ry="57"
     style="fill:#0000ff"
     id="rect950" />
  <g
     clip-path="url(#clipPath3135)"
     inkscape:label="#g3124"
     transform="matrix(1.25,0,0,1.25,0,7.6294e-6)"
     id="g952">
    <rect
       x="-81.393997"
       y="-1.6286"
       width="568.53003"
       height="418.56"
       style="fill:#000066"
       id="rect3049" />
    <path
       inkscape:connector-curvature="0"
       style="fill:#ffffff"
       d="m -75.694,42.344 v 35.961 l 499.18,285.69 h 62.836 v -35.961 l -499.19,-285.7 z m 562.02,0 v 35.961 l -499.18,285.69 H -75.69 v -35.961 l 499.18,-285.7 z"
       id="path3051" />
    <path
       inkscape:connector-curvature="0"
       style="fill:#ffffff"
       d="m 158.48,0 v 409.6 h 93.674 V 0 Z M -75.69,149.56 V 256.78 H 486.33 V 149.56 Z"
       sodipodi:nodetypes="cccccccccc"
       id="path3053" />
    <path
       inkscape:connector-curvature="0"
       style="fill:#cc0000"
       d="m -75.694,171.01 v 64.331 h 562.02 V 171.01 Z M 177.206,0 v 409.6 h 56.202 V 0 Z"
       sodipodi:nodetypes="cccccccccc"
       id="path3055" />
    <path
       inkscape:connector-curvature="0"
       style="fill:#cc0000"
       d="m -75.694,364 187.34,-107.22 h 41.891 L -33.803,364 Z m 0,-321.65 187.34,107.22 H 69.755 L -75.695,66.317 Z m 332.78,107.21 187.34,-107.22 h 41.891 L 298.977,149.56 Z M 486.316,364 298.976,256.78 h 41.891 l 145.45,83.241 z"
       id="path3057" />
  </g>
</g>
<g
   transform="translate(0,38)"
   inkscape:label="02"
   id="g959">
  <path
     inkscape:connector-curvature="0"
     style="color:#000000;fill:url(#linearGradient5521)"
     sodipodi:nodetypes="sscssscss"
     d="m 214.21,111.21 c -45.245,0.18809 -68.716,7.7308 -64.094,83.553 l 2.8252,46.345 c 47.474,5.5124 56.664,18.445 104.36,21.914 68.073,4.9513 67.937,5.4209 130.56,-14.384 62.628,-19.805 5.8248,-65.247 207.32,-57.82 4.6033,0.16968 17.314,-3.0527 27.462,-12.15 5.5817,-46.524 -2.7842,-69.143 -66.934,-68.876 z"
     id="path961" />
  <path
     inkscape:connector-curvature="0"
     style="color:#000000;fill:url(#linearGradient5523)"
     d="m 531.03,495.17 c -31.605,19.022 -27.601,31.26 -37.913,32.573 -94.704,12.053 -145.98,-0.72701 -165.8,-12.061 -59.588,-34.078 -68.468,-13.014 -100.22,-16.574 -20.115,-2.2551 -59.245,12.984 -73.388,44.344 3.4722,27.608 18.111,32.098 44.281,31.986 l 356.06,-1.5268 c 69.692,-0.29885 56.335,-8.4926 65.543,-56.039 -14.772,-21.671 -13.157,9.109 -44.224,-30.717 z"
     sodipodi:nodetypes="cssscssccc"
     id="path963" />
  <rect
     inkscape:label="#rect4203"
     x="0"
     y="0"
     width="512"
     height="512"
     ry="57"
     clip-path="url(#clipPath5796)"
     transform="translate(128,90)"
     style="fill:none;stroke:#000000;stroke-width:20;filter:url(#filter5740)"
     id="rect965" />
</g>
</g>
  </g>
</svg>
