<?xml version="1.0" encoding="UTF-8" standalone="no"?>
<!-- Created with Inkscape (http://www.inkscape.org/) -->

<svg
   xmlns:dc="http://purl.org/dc/elements/1.1/"
   xmlns:cc="http://creativecommons.org/ns#"
   xmlns:rdf="http://www.w3.org/1999/02/22-rdf-syntax-ns#"
   xmlns:svg="http://www.w3.org/2000/svg"
   xmlns="http://www.w3.org/2000/svg"
   xmlns:sodipodi="http://sodipodi.sourceforge.net/DTD/sodipodi-0.dtd"
   xmlns:inkscape="http://www.inkscape.org/namespaces/inkscape"
   width="76.380836"
   height="216.1096"
   id="svg2"
   version="1.1"
   inkscape:version="0.92.4 5da689c313, 2019-01-14"
   sodipodi:docname="fork.svg"
   inkscape:export-filename="../../picts/fork.png"
   inkscape:export-xdpi="227.49162"
   inkscape:export-ydpi="227.49162">
  <defs
     id="defs4">
    <filter
       inkscape:collect="always"
       style="color-interpolation-filters:sRGB"
       id="filter4823"
       x="-0.078463443"
       width="1.1569269"
       y="-0.02335861"
       height="1.0467172">
      <feGaussianBlur
         inkscape:collect="always"
         stdDeviation="0.89634175"
         id="feGaussianBlur4825" />
    </filter>
  </defs>
  <sodipodi:namedview
     id="base"
     pagecolor="#ffffff"
     bordercolor="#666666"
     borderopacity="1.0"
     inkscape:pageopacity="0.0"
     inkscape:pageshadow="2"
     inkscape:zoom="2.8"
     inkscape:cx="19.019426"
     inkscape:cy="99.067484"
     inkscape:document-units="px"
     inkscape:current-layer="layer1"
     showgrid="false"
     inkscape:window-width="1600"
     inkscape:window-height="1163"
     inkscape:window-x="0"
     inkscape:window-y="0"
     inkscape:window-maximized="1"
     fit-margin-top="0"
     fit-margin-left="0"
     fit-margin-right="0"
     fit-margin-bottom="0"
     inkscape:snap-grids="false"
     inkscape:snap-to-guides="false" />
  <metadata
     id="metadata7">
    <rdf:RDF>
      <cc:Work
         rdf:about="">
        <dc:format>image/svg+xml</dc:format>
        <dc:type
           rdf:resource="http://purl.org/dc/dcmitype/StillImage" />
        <dc:title></dc:title>
      </cc:Work>
    </rdf:RDF>
  </metadata>
  <g
     inkscape:label="Layer 1"
     inkscape:groupmode="layer"
     id="layer1"
     transform="translate(-604.5483,-526.02356)">
    <path
       style="opacity:0.75400002;fill:#1a1a1a;stroke:none;stroke-width:0.44786614;filter:url(#filter4823)"
       d="m 616.47144,731.80846 c -0.0628,-2.2296 0.58761,-4.58967 3.46699,-5.90491 2.23237,-2.99313 1.63851,-5.76134 1.18171,-18.12815 -2.94826,-0.2421 -1.48452,-0.14907 -7.94474,-1.2904 -3.06322,-1.8604 -2.82945,-2.99314 -3.07402,-9.56679 -0.18358,-13.15241 0.11632,-37.11283 0.0411,-50.26742 3.01591,-0.0106 3.5318,0.0681 6.72627,-0.0318 0.22416,20.29677 0.25885,21.2701 0.54354,48.88532 1.61961,4.17975 6.12672,3.7801 6.12672,3.7801 0,0 5.98211,0.36315 6.94583,-3.12518 0.05,-10.40525 0.3666,-22.59118 0.16828,-49.50162 2.10679,-0.0229 4.48144,-0.0456 6.58823,-0.0684 -3.2e-4,16.71721 0.43057,33.83008 0.0771,50.40637 0.15587,7.19785 -0.89342,8.23672 -4.29075,9.89958 -2.08148,0.67504 -4.22109,0.46514 -6.33345,0.63324 -0.0353,11.4171 -0.80849,15.80826 1.31464,18.46918 2.8495,1.01546 4.61215,6.23354 2.56952,8.85432 -2.22302,3.4966 -7.73582,5.21241 -11.35012,2.49188 -1.824,-1.29303 -2.76858,-3.43642 -2.75681,-5.53536 z"
       id="path2996-6"
       inkscape:connector-curvature="0"
       sodipodi:nodetypes="cccccccccccccccccccc"
       transform="matrix(2.2660997,0,0,2.2000094,-766.4885,-883.71259)" />
    <path
       style="fill:#008066;stroke:none;stroke-width:0.99999994"
       d="m 621.14558,715.95666 c -0.14232,-4.90513 1.33159,-10.09731 7.85655,-12.99085 5.05877,-6.58492 3.71301,-12.67501 2.67786,-39.8821 -6.68105,-0.53263 -3.36405,-0.32795 -18.00356,-2.83889 -6.94157,-4.09289 -6.41182,-6.58493 -6.96604,-21.04703 -0.41602,-28.93543 0.12053,-80.25959 -0.0499,-109.19983 -0.10446,-2.3151 14.79919,-1.93363 15.52851,-0.55611 0.79412,44.37529 0.44353,45.89161 1.08867,106.64535 3.67018,9.19548 13.88375,8.31625 13.88375,8.31625 0,0 13.55606,0.79893 15.73994,-6.87542 0.11336,-22.89165 0.68769,-48.58963 0.23829,-107.79285 0.92991,-2.30933 14.64855,-2.29186 14.87029,0.11334 -7.1e-4,36.77803 1.17806,73.0515 0.37706,109.51949 0.35323,15.83533 -2.02458,18.12086 -9.72327,21.77915 -4.71684,1.48511 -9.5654,1.02333 -14.35222,1.39315 -0.08,25.11772 -1.83212,34.77832 2.9791,40.63237 6.45726,2.23402 10.4516,13.71385 5.8228,19.4796 -5.0376,7.69254 -17.53014,11.46734 -25.72051,5.48216 -4.13337,-2.8447 -6.27388,-7.56017 -6.24721,-12.17785 z"
       id="path2996"
       inkscape:connector-curvature="0"
       sodipodi:nodetypes="cccccccccccccccccccc" />
  </g>
</svg>
