<?xml version="1.0" encoding="UTF-8" standalone="no"?>
<!-- Created with Inkscape (http://www.inkscape.org/) -->

<svg
   xmlns:dc="http://purl.org/dc/elements/1.1/"
   xmlns:cc="http://creativecommons.org/ns#"
   xmlns:rdf="http://www.w3.org/1999/02/22-rdf-syntax-ns#"
   xmlns:svg="http://www.w3.org/2000/svg"
   xmlns="http://www.w3.org/2000/svg"
   xmlns:sodipodi="http://sodipodi.sourceforge.net/DTD/sodipodi-0.dtd"
   xmlns:inkscape="http://www.inkscape.org/namespaces/inkscape"
   width="80"
   height="98.389442"
   id="svg2"
   version="1.1"
   inkscape:version="0.92.2 2405546, 2018-03-11"
   sodipodi:docname="fork.svg"
   inkscape:export-filename="../../picts/fork.png"
   inkscape:export-xdpi="249.60001"
   inkscape:export-ydpi="249.60001">
  <defs
     id="defs4">
    <filter
       inkscape:collect="always"
       id="filter4030"
       x="-0.10478656"
       width="1.2095731"
       y="-0.028766757"
       height="1.0575335"
       style="color-interpolation-filters:sRGB">
      <feGaussianBlur
         inkscape:collect="always"
         stdDeviation="1.0597199"
         id="feGaussianBlur4032" />
    </filter>
    <filter
       inkscape:collect="always"
       id="filter4092"
       x="-0.11478456"
       width="1.2295691"
       y="-0.034171425"
       height="1.0683428"
       style="color-interpolation-filters:sRGB">
      <feGaussianBlur
         inkscape:collect="always"
         stdDeviation="1.3112627"
         id="feGaussianBlur4094" />
    </filter>
  </defs>
  <sodipodi:namedview
     id="base"
     pagecolor="#ffffff"
     bordercolor="#666666"
     borderopacity="1.0"
     inkscape:pageopacity="0.0"
     inkscape:pageshadow="2"
     inkscape:zoom="15.839192"
     inkscape:cx="42.216685"
     inkscape:cy="38.595434"
     inkscape:document-units="px"
     inkscape:current-layer="layer1"
     showgrid="false"
     inkscape:window-width="1920"
     inkscape:window-height="1039"
     inkscape:window-x="0"
     inkscape:window-y="0"
     inkscape:window-maximized="1"
     fit-margin-top="0"
     fit-margin-left="0"
     fit-margin-right="0"
     fit-margin-bottom="0" />
  <metadata
     id="metadata7">
    <rdf:RDF>
      <cc:Work
         rdf:about="">
        <dc:format>image/svg+xml</dc:format>
        <dc:type
           rdf:resource="http://purl.org/dc/dcmitype/StillImage" />
        <dc:title></dc:title>
      </cc:Work>
    </rdf:RDF>
  </metadata>
  <g
     inkscape:label="Layer 1"
     inkscape:groupmode="layer"
     id="layer1"
     transform="translate(-581.03218,-639.66206)">
    <path
       style="opacity:0.86400003;fill:#4d4d4d;stroke:none;filter:url(#filter4092)"
       d="m 616.34472,730.02834 c -0.0628,-2.2296 0.58761,-4.58967 3.46699,-5.90491 2.23237,-2.99313 1.63851,-5.76134 1.18171,-18.12815 -2.94826,-0.2421 -1.48452,-0.14907 -7.94474,-1.2904 -3.06322,-1.8604 -2.82945,-2.99314 -3.07402,-9.56679 -0.18358,-13.15241 0.11632,-37.11283 0.0411,-50.26742 3.01591,-0.0106 3.5318,0.0681 6.72627,-0.0318 0.22416,20.29677 0.25885,21.2701 0.54354,48.88532 1.61961,4.17975 6.12672,3.7801 6.12672,3.7801 0,0 5.98211,0.36315 6.94583,-3.12518 0.05,-10.40525 0.3666,-22.59118 0.16828,-49.50162 2.10679,-0.0229 4.48144,-0.0456 6.58823,-0.0684 -3.2e-4,16.71721 0.43057,33.83008 0.0771,50.40637 0.15587,7.19785 -0.89342,8.23672 -4.29075,9.89958 -2.08148,0.67504 -4.22109,0.46514 -6.33345,0.63324 -0.0353,11.4171 -0.80849,15.80826 1.31464,18.46918 2.8495,1.01546 4.61215,6.23354 2.56952,8.85432 -2.22302,3.4966 -7.73582,5.21241 -11.35012,2.49188 -1.824,-1.29303 -2.76858,-3.43642 -2.75681,-5.53536 z"
       id="path2996-6"
       inkscape:connector-curvature="0"
       sodipodi:nodetypes="cccccccccccccccccccc" />
    <path
       style="fill:#008066;stroke:none"
       d="m 612.34469,728.02836 c -0.0628,-2.2296 0.58761,-4.58967 3.46699,-5.90491 2.23237,-2.99313 1.63851,-5.76134 1.18171,-18.12815 -2.94826,-0.2421 -1.48452,-0.14907 -7.94474,-1.2904 -3.06322,-1.8604 -2.82945,-2.99314 -3.07402,-9.56679 -0.18358,-13.15241 0.0532,-36.48148 -0.022,-49.63607 -0.0461,-1.05232 6.53069,-0.87892 6.85253,-0.25278 0.35043,20.1705 0.19572,20.85973 0.48041,48.47495 1.61961,4.17975 6.12672,3.7801 6.12672,3.7801 0,0 5.98211,0.36315 6.94583,-3.12518 0.05,-10.40525 0.30347,-22.0861 0.10515,-48.99654 0.41036,-1.04969 6.46421,-1.04175 6.56207,0.0515 -3.2e-4,16.71721 0.51986,33.20508 0.16639,49.78137 0.15587,7.19785 -0.89342,8.23672 -4.29075,9.89958 -2.08148,0.67504 -4.22109,0.46514 -6.33345,0.63324 -0.0353,11.4171 -0.80849,15.80826 1.31464,18.46918 2.8495,1.01546 4.61215,6.23354 2.56952,8.85432 -2.22302,3.4966 -7.73582,5.21241 -11.35012,2.49188 -1.824,-1.29303 -2.76858,-3.43642 -2.75681,-5.53536 z"
       id="path2996"
       inkscape:connector-curvature="0"
       sodipodi:nodetypes="cccccccccccccccccccc" />
    <path
       style="opacity:0.74285715;fill:#e2e2e2;fill-opacity:1;stroke:none;filter:url(#filter4030)"
       d="m 614.03457,727.28139 c -0.0556,-2.1593 0.51995,-3.43478 3.06782,-4.70855 1.97533,-2.89874 1.51299,-8.98892 1.10878,-20.96575 -2.6088,-0.23447 -2.07122,-0.0812 -7.78762,-1.18657 -2.71052,-1.80173 -2.5668,-0.75219 -2.78321,-7.11854 -0.16244,-12.73765 0.0398,-35.24801 -0.0267,-47.98778 0.017,-0.70478 3.75649,-1.32296 3.9315,0.1586 0.19836,19.65672 0.10279,21.29384 0.3547,48.03822 1.43312,4.04794 7.50473,4.16597 7.50473,4.16597 0,0 7.7556,-0.46905 8.60835,-3.84737 0.0443,-10.07713 -0.43323,-22.88893 -0.60871,-48.95076 0.91721,-0.46414 4.15487,-0.67545 4.25131,0.24937 -2.8e-4,16.19004 0.381,32.19505 0.0683,48.24862 0.13793,6.97087 -0.53801,5.641 -3.54418,7.25142 -1.84182,0.65375 -4.80837,0.70301 -6.67751,0.86581 -0.0312,11.05706 -1.15734,18.59275 0.72133,21.16976 1.89008,1.74105 3.13409,2.50142 3.15755,5.41836 0.30579,1.55545 -1.35243,3.91163 -5.24507,4.81243 -4.91917,-0.81234 -5.80364,-3.38372 -6.10137,-5.61324 z"
       id="path2996-3"
       inkscape:connector-curvature="0"
       sodipodi:nodetypes="ccccccccccccccccccc" />
  </g>
</svg>
