<?xml version="1.0" encoding="UTF-8" standalone="no"?>
<!-- Created with Inkscape (http://www.inkscape.org/) -->

<svg
   xmlns:dc="http://purl.org/dc/elements/1.1/"
   xmlns:cc="http://creativecommons.org/ns#"
   xmlns:rdf="http://www.w3.org/1999/02/22-rdf-syntax-ns#"
   xmlns:svg="http://www.w3.org/2000/svg"
   xmlns="http://www.w3.org/2000/svg"
   xmlns:sodipodi="http://sodipodi.sourceforge.net/DTD/sodipodi-0.dtd"
   xmlns:inkscape="http://www.inkscape.org/namespaces/inkscape"
   width="101.42178"
   height="83.903282"
   id="svg3240"
   version="1.1"
   inkscape:version="0.92.4 5da689c313, 2019-01-14"
   sodipodi:docname="linearChart.svg"
   inkscape:export-filename="../../picts/linearChart.png"
   inkscape:export-xdpi="242.565"
   inkscape:export-ydpi="242.565">
  <defs
     id="defs3242">
    <marker
       inkscape:stockid="DotM"
       orient="auto"
       refY="0"
       refX="0"
       id="DotM"
       style="overflow:visible">
      <path
         id="path3860"
         d="m -2.5,-1 c 0,2.76 -2.24,5 -5,5 -2.76,0 -5,-2.24 -5,-5 0,-2.76 2.24,-5 5,-5 2.76,0 5,2.24 5,5 z"
         style="fill-rule:evenodd;stroke:#000000;stroke-width:1.00000003pt"
         transform="matrix(0.4,0,0,0.4,2.96,0.4)"
         inkscape:connector-curvature="0" />
    </marker>
    <marker
       inkscape:stockid="EmptyDiamondMstart"
       orient="auto"
       refY="0"
       refX="0"
       id="EmptyDiamondMstart"
       style="overflow:visible">
      <path
         id="path3914"
         d="M 0,-7.0710768 -7.0710894,0 0,7.0710589 7.0710462,0 Z"
         style="fill:#ffffff;fill-rule:evenodd;stroke:#000000;stroke-width:1.00000003pt"
         transform="matrix(0.4,0,0,0.4,2.6,0)"
         inkscape:connector-curvature="0" />
    </marker>
    <marker
       inkscape:stockid="EmptyDiamondMend"
       orient="auto"
       refY="0"
       refX="0"
       id="EmptyDiamondMend"
       style="overflow:visible">
      <path
         id="path3923"
         d="M 0,-7.0710768 -7.0710894,0 0,7.0710589 7.0710462,0 Z"
         style="fill:#ffffff;fill-rule:evenodd;stroke:#000000;stroke-width:1.00000003pt"
         transform="matrix(0.4,0,0,0.4,-2.6,0)"
         inkscape:connector-curvature="0" />
    </marker>
    <marker
       inkscape:stockid="Arrow1Lend"
       orient="auto"
       refY="0"
       refX="0"
       id="Arrow1Lend"
       style="overflow:visible">
      <path
         id="path3799"
         d="M 0,0 5,-5 -12.5,0 5,5 Z"
         style="fill-rule:evenodd;stroke:#000000;stroke-width:1.00000003pt"
         transform="matrix(-0.8,0,0,-0.8,-10,0)"
         inkscape:connector-curvature="0" />
    </marker>
    <marker
       inkscape:stockid="Arrow1Lstart"
       orient="auto"
       refY="0"
       refX="0"
       id="Arrow1Lstart"
       style="overflow:visible">
      <path
         id="path3796"
         d="M 0,0 5,-5 -12.5,0 5,5 Z"
         style="fill-rule:evenodd;stroke:#000000;stroke-width:1.00000003pt"
         transform="matrix(0.8,0,0,0.8,10,0)"
         inkscape:connector-curvature="0" />
    </marker>
    <filter
       style="color-interpolation-filters:sRGB"
       inkscape:label="Drop Shadow"
       id="filter4942">
      <feFlood
         flood-opacity="0.784314"
         flood-color="rgb(0,0,0)"
         result="flood"
         id="feFlood4932" />
      <feComposite
         in="flood"
         in2="SourceGraphic"
         operator="out"
         result="composite1"
         id="feComposite4934" />
      <feGaussianBlur
         in="composite1"
         stdDeviation="0.5"
         result="blur"
         id="feGaussianBlur4936" />
      <feOffset
         dx="0.8"
         dy="0.9"
         result="offset"
         id="feOffset4938" />
      <feComposite
         in="offset"
         in2="SourceGraphic"
         operator="atop"
         result="composite2"
         id="feComposite4940" />
    </filter>
    <filter
       style="color-interpolation-filters:sRGB;"
       inkscape:label="Drop Shadow"
       id="filter1377">
      <feFlood
         flood-opacity="0.784314"
         flood-color="rgb(0,0,0)"
         result="flood"
         id="feFlood1367" />
      <feComposite
         in="flood"
         in2="SourceGraphic"
         operator="out"
         result="composite1"
         id="feComposite1369" />
      <feGaussianBlur
         in="composite1"
         stdDeviation="1"
         result="blur"
         id="feGaussianBlur1371" />
      <feOffset
         dx="3"
         dy="2"
         result="offset"
         id="feOffset1373" />
      <feComposite
         in="offset"
         in2="SourceGraphic"
         operator="atop"
         result="composite2"
         id="feComposite1375" />
    </filter>
    <filter
       style="color-interpolation-filters:sRGB;"
       inkscape:label="Drop Shadow"
       id="filter1389">
      <feFlood
         flood-opacity="0.784314"
         flood-color="rgb(0,0,0)"
         result="flood"
         id="feFlood1379" />
      <feComposite
         in="flood"
         in2="SourceGraphic"
         operator="in"
         result="composite1"
         id="feComposite1381" />
      <feGaussianBlur
         in="composite1"
         stdDeviation="1"
         result="blur"
         id="feGaussianBlur1383" />
      <feOffset
         dx="3"
         dy="2"
         result="offset"
         id="feOffset1385" />
      <feComposite
         in="SourceGraphic"
         in2="offset"
         operator="over"
         result="composite2"
         id="feComposite1387" />
    </filter>
    <filter
       style="color-interpolation-filters:sRGB;"
       inkscape:label="Drop Shadow"
       id="filter1449">
      <feFlood
         flood-opacity="0.784314"
         flood-color="rgb(0,0,0)"
         result="flood"
         id="feFlood1439" />
      <feComposite
         in="flood"
         in2="SourceGraphic"
         operator="in"
         result="composite1"
         id="feComposite1441" />
      <feGaussianBlur
         in="composite1"
         stdDeviation="1"
         result="blur"
         id="feGaussianBlur1443" />
      <feOffset
         dx="3"
         dy="3"
         result="offset"
         id="feOffset1445" />
      <feComposite
         in="SourceGraphic"
         in2="offset"
         operator="over"
         result="composite2"
         id="feComposite1447" />
    </filter>
  </defs>
  <sodipodi:namedview
     id="base"
     pagecolor="#ffffff"
     bordercolor="#666666"
     borderopacity="1.0"
     inkscape:pageopacity="0.0"
     inkscape:pageshadow="2"
     inkscape:zoom="7.919596"
     inkscape:cx="44.163828"
     inkscape:cy="51.540027"
     inkscape:document-units="px"
     inkscape:current-layer="layer1"
     showgrid="false"
     fit-margin-top="0"
     fit-margin-left="0"
     fit-margin-right="0"
     fit-margin-bottom="0"
     inkscape:window-width="1920"
     inkscape:window-height="1043"
     inkscape:window-x="0"
     inkscape:window-y="0"
     inkscape:window-maximized="1" />
  <metadata
     id="metadata3245">
    <rdf:RDF>
      <cc:Work
         rdf:about="">
        <dc:format>image/svg+xml</dc:format>
        <dc:type
           rdf:resource="http://purl.org/dc/dcmitype/StillImage" />
        <dc:title />
      </cc:Work>
    </rdf:RDF>
  </metadata>
  <g
     inkscape:label="Layer 1"
     inkscape:groupmode="layer"
     id="layer1"
     transform="translate(-413.07224,-370.84922)">
    <path
       style="color:#000000;font-style:normal;font-variant:normal;font-weight:normal;font-stretch:normal;font-size:medium;line-height:normal;font-family:sans-serif;font-variant-ligatures:normal;font-variant-position:normal;font-variant-caps:normal;font-variant-numeric:normal;font-variant-alternates:normal;font-feature-settings:normal;text-indent:0;text-align:start;text-decoration:none;text-decoration-line:none;text-decoration-style:solid;text-decoration-color:#000000;letter-spacing:normal;word-spacing:normal;text-transform:none;writing-mode:lr-tb;direction:ltr;text-orientation:mixed;dominant-baseline:auto;baseline-shift:baseline;text-anchor:start;white-space:normal;shape-padding:0;clip-rule:nonzero;display:inline;overflow:visible;visibility:visible;opacity:1;isolation:auto;mix-blend-mode:normal;color-interpolation:sRGB;color-interpolation-filters:linearRGB;solid-color:#000000;solid-opacity:1;vector-effect:none;fill:#00ff20;fill-opacity:1;fill-rule:nonzero;stroke:none;stroke-width:8.24795532;stroke-linecap:round;stroke-linejoin:round;stroke-miterlimit:4;stroke-dasharray:none;stroke-dashoffset:0;stroke-opacity:1;color-rendering:auto;image-rendering:auto;shape-rendering:auto;text-rendering:auto;enable-background:accumulate"
       d="m 462.74412,396.25183 a 4.1243978,4.1243893 0 0 0 -3.892,2.39384 l -10.58705,22.95573 -7.50694,-11.95631 a 4.1243978,4.1243893 0 0 0 -6.7466,-0.33829 l -9.31118,11.96275 a 4.1243978,4.1243893 0 1 0 6.50818,5.06475 l 5.69624,-7.31682 8.42518,13.41902 a 4.1243978,4.1243893 0 0 0 7.23952,-0.46716 l 10.48396,-22.73988 8.70868,14.69167 a 4.1243978,4.1243893 0 0 0 7.05588,0.0676 l 7.13966,-11.55681 9.89757,12.79078 a 4.1243978,4.1243893 0 1 0 6.52428,-5.04544 l -13.53827,-17.50112 a 4.1243978,4.1243893 0 0 0 -6.76914,0.35762 l -6.6886,10.82222 -9.23709,-15.58411 a 4.1243978,4.1243893 0 0 0 -3.40228,-2.02011 z"
       id="path5006-3"
       inkscape:connector-curvature="0" />
    <path
       style="opacity:1;fill:#00a0a0;fill-opacity:1;stroke:none;stroke-width:1.64959109;filter:url(#filter1449)"
       d="m 421.34959,370.85849 c -4.117,0 -7.43282,3.18901 -7.43282,7.1493 v 62.88099 c 0,3.96029 3.31582,7.14608 7.43282,7.14608 h 79.98584 c 4.11698,0 7.43282,-3.18579 7.43282,-7.14608 v -62.88099 c 0,-3.96029 -3.31584,-7.1493 -7.43282,-7.1493 z m 41.39443,23.89329 a 4.12439,4.12439 0 0 1 3.40228,2.02011 l 9.23706,15.58412 6.68858,-10.82222 a 4.12439,4.12439 0 0 1 6.76912,-0.35762 l 13.53825,17.50113 a 4.12439,4.12439 0 1 1 -6.52426,5.04543 l -9.89755,-12.79078 -7.13964,11.5568 a 4.12439,4.12439 0 0 1 -7.05586,-0.0677 l -8.70869,-14.69167 -10.48392,22.73987 a 4.12439,4.12439 0 0 1 -7.23951,0.46717 l -8.42516,-13.41904 -5.69624,7.31684 a 4.12439,4.12439 0 1 1 -6.50816,-5.06475 l 9.31117,-11.96276 a 4.12439,4.12439 0 0 1 6.74657,0.3383 l 7.50693,11.95631 10.58702,-22.95574 a 4.12439,4.12439 0 0 1 3.89201,-2.39384 z"
       id="rect3841"
       inkscape:connector-curvature="0"
       transform="matrix(1.0000019,0,0,0.99999982,-7.7153394e-4,1.5000818)" />
    <path
       style="color:#000000;font-style:normal;font-variant:normal;font-weight:normal;font-stretch:normal;font-size:medium;line-height:normal;font-family:Sans;-inkscape-font-specification:Sans;text-indent:0;text-align:start;text-decoration:none;text-decoration-line:none;letter-spacing:normal;word-spacing:normal;text-transform:none;writing-mode:lr-tb;direction:ltr;baseline-shift:baseline;text-anchor:start;display:inline;overflow:visible;visibility:visible;opacity:0.98999999;fill:#000000;fill-opacity:1;fill-rule:nonzero;stroke:none;stroke-width:1.01304471;marker:none;enable-background:accumulate"
       d="m 422.71846,376.81398 -6.68361,14.07226 5.84377,-0.0449 v 49.291 a 0.69676631,0.69571795 0 0 0 0.13672,0.41211 c 0.10306,0.38894 0.54258,0.69061 0.93945,0.66602 l 70.47865,0.0644 -0.041,6.02929 13.43947,-6.86718 -13.43947,-6.7207 0.043,5.84571 -70.16224,-0.0645 v -48.65625 l 6.27734,0.0449 z"
       id="line8"
       inkscape:connector-curvature="0" />
  </g>
</svg>
