<?xml version="1.0" encoding="UTF-8" standalone="no"?>
<!-- Created with Inkscape (http://www.inkscape.org/) -->

<svg
   xmlns:dc="http://purl.org/dc/elements/1.1/"
   xmlns:cc="http://creativecommons.org/ns#"
   xmlns:rdf="http://www.w3.org/1999/02/22-rdf-syntax-ns#"
   xmlns:svg="http://www.w3.org/2000/svg"
   xmlns="http://www.w3.org/2000/svg"
   xmlns:sodipodi="http://sodipodi.sourceforge.net/DTD/sodipodi-0.dtd"
   xmlns:inkscape="http://www.inkscape.org/namespaces/inkscape"
   width="61.254269"
   height="50.539425"
   id="svg3240"
   version="1.1"
   inkscape:version="0.92.2 2405546, 2018-03-11"
   sodipodi:docname="linearChart.svg"
   inkscape:export-filename="../../picts/linearChart.png"
   inkscape:export-xdpi="400.79602"
   inkscape:export-ydpi="400.79602">
  <defs
     id="defs3242">
    <marker
       inkscape:stockid="DotM"
       orient="auto"
       refY="0"
       refX="0"
       id="DotM"
       style="overflow:visible">
      <path
         id="path3860"
         d="m -2.5,-1 c 0,2.76 -2.24,5 -5,5 -2.76,0 -5,-2.24 -5,-5 0,-2.76 2.24,-5 5,-5 2.76,0 5,2.24 5,5 z"
         style="fill-rule:evenodd;stroke:#000000;stroke-width:1.00000003pt"
         transform="matrix(0.4,0,0,0.4,2.96,0.4)"
         inkscape:connector-curvature="0" />
    </marker>
    <marker
       inkscape:stockid="EmptyDiamondMstart"
       orient="auto"
       refY="0"
       refX="0"
       id="EmptyDiamondMstart"
       style="overflow:visible">
      <path
         id="path3914"
         d="M 0,-7.0710768 -7.0710894,0 0,7.0710589 7.0710462,0 Z"
         style="fill:#ffffff;fill-rule:evenodd;stroke:#000000;stroke-width:1.00000003pt"
         transform="matrix(0.4,0,0,0.4,2.6,0)"
         inkscape:connector-curvature="0" />
    </marker>
    <marker
       inkscape:stockid="EmptyDiamondMend"
       orient="auto"
       refY="0"
       refX="0"
       id="EmptyDiamondMend"
       style="overflow:visible">
      <path
         id="path3923"
         d="M 0,-7.0710768 -7.0710894,0 0,7.0710589 7.0710462,0 Z"
         style="fill:#ffffff;fill-rule:evenodd;stroke:#000000;stroke-width:1.00000003pt"
         transform="matrix(0.4,0,0,0.4,-2.6,0)"
         inkscape:connector-curvature="0" />
    </marker>
    <marker
       inkscape:stockid="Arrow1Lend"
       orient="auto"
       refY="0"
       refX="0"
       id="Arrow1Lend"
       style="overflow:visible">
      <path
         id="path3799"
         d="M 0,0 5,-5 -12.5,0 5,5 Z"
         style="fill-rule:evenodd;stroke:#000000;stroke-width:1.00000003pt"
         transform="matrix(-0.8,0,0,-0.8,-10,0)"
         inkscape:connector-curvature="0" />
    </marker>
    <marker
       inkscape:stockid="Arrow1Lstart"
       orient="auto"
       refY="0"
       refX="0"
       id="Arrow1Lstart"
       style="overflow:visible">
      <path
         id="path3796"
         d="M 0,0 5,-5 -12.5,0 5,5 Z"
         style="fill-rule:evenodd;stroke:#000000;stroke-width:1.00000003pt"
         transform="matrix(0.8,0,0,0.8,10,0)"
         inkscape:connector-curvature="0" />
    </marker>
    <filter
       inkscape:collect="always"
       style="color-interpolation-filters:sRGB"
       id="filter4651"
       x="-0.032645788"
       width="1.0652916"
       y="-0.040122397"
       height="1.0802448">
      <feGaussianBlur
         inkscape:collect="always"
         stdDeviation="0.7821387"
         id="feGaussianBlur4653" />
    </filter>
  </defs>
  <sodipodi:namedview
     id="base"
     pagecolor="#ffffff"
     bordercolor="#666666"
     borderopacity="1.0"
     inkscape:pageopacity="0.0"
     inkscape:pageshadow="2"
     inkscape:zoom="11.2"
     inkscape:cx="46.415728"
     inkscape:cy="26.473941"
     inkscape:document-units="px"
     inkscape:current-layer="layer1"
     showgrid="false"
     fit-margin-top="0"
     fit-margin-left="0"
     fit-margin-right="0"
     fit-margin-bottom="0"
     inkscape:window-width="1920"
     inkscape:window-height="1039"
     inkscape:window-x="0"
     inkscape:window-y="0"
     inkscape:window-maximized="1" />
  <metadata
     id="metadata3245">
    <rdf:RDF>
      <cc:Work
         rdf:about="">
        <dc:format>image/svg+xml</dc:format>
        <dc:type
           rdf:resource="http://purl.org/dc/dcmitype/StillImage" />
        <dc:title />
      </cc:Work>
    </rdf:RDF>
  </metadata>
  <g
     inkscape:label="Layer 1"
     inkscape:groupmode="layer"
     id="layer1"
     transform="translate(-413.07224,-404.21308)">
    <path
       style="color:#000000;font-style:normal;font-variant:normal;font-weight:normal;font-stretch:normal;font-size:medium;line-height:normal;font-family:sans-serif;font-variant-ligatures:normal;font-variant-position:normal;font-variant-caps:normal;font-variant-numeric:normal;font-variant-alternates:normal;font-feature-settings:normal;text-indent:0;text-align:start;text-decoration:none;text-decoration-line:none;text-decoration-style:solid;text-decoration-color:#000000;letter-spacing:normal;word-spacing:normal;text-transform:none;writing-mode:lr-tb;direction:ltr;text-orientation:mixed;dominant-baseline:auto;baseline-shift:baseline;text-anchor:start;white-space:normal;shape-padding:0;clip-rule:nonzero;display:inline;overflow:visible;visibility:visible;opacity:1;isolation:auto;mix-blend-mode:normal;color-interpolation:sRGB;color-interpolation-filters:linearRGB;solid-color:#000000;solid-opacity:1;vector-effect:none;fill:#00ffff;fill-opacity:1;fill-rule:nonzero;stroke:none;stroke-width:5;stroke-linecap:round;stroke-linejoin:round;stroke-miterlimit:4;stroke-dasharray:none;stroke-dashoffset:0;stroke-opacity:1;color-rendering:auto;image-rendering:auto;shape-rendering:auto;text-rendering:auto;enable-background:accumulate"
       d="m 443.18381,419.90991 a 2.50025,2.50025 0 0 0 -2.35937,1.45117 l -6.41797,13.91601 -4.55078,-7.24804 a 2.50025,2.50025 0 0 0 -4.08985,-0.20508 l -5.64453,7.25195 a 2.50025,2.50025 0 1 0 3.94532,3.07031 l 3.45312,-4.43554 5.10742,8.13476 a 2.50025,2.50025 0 0 0 4.38867,-0.2832 l 6.35547,-13.78516 5.2793,8.90625 a 2.50025,2.50025 0 0 0 4.27734,0.041 l 4.32813,-7.00586 6,7.75391 a 2.50025,2.50025 0 1 0 3.95508,-3.0586 l -8.20703,-10.60937 a 2.50025,2.50025 0 0 0 -4.10352,0.21679 l -4.05469,6.56055 -5.59961,-9.44726 a 2.50025,2.50025 0 0 0 -2.0625,-1.22461 z"
       id="path5006-3"
       inkscape:connector-curvature="0" />
    <path
       inkscape:connector-curvature="0"
       style="opacity:0.66799999;fill:#000000;fill-opacity:1;stroke:none;filter:url(#filter4651)"
       d="m 419.45523,406.09021 c -2.49577,0 -4.50586,1.93321 -4.50586,4.33398 v 38.11914 c 0,2.40077 2.01009,4.33204 4.50586,4.33204 h 48.48828 c 2.49576,0 4.50586,-1.93127 4.50586,-4.33204 v -38.11914 c 0,-2.40077 -2.0101,-4.33398 -4.50586,-4.33398 z m 25.09375,14.48437 a 2.50025,2.50025 0 0 1 2.0625,1.22461 l 5.59961,9.44727 4.05469,-6.56055 a 2.50025,2.50025 0 0 1 4.10351,-0.21679 l 8.20703,10.60937 a 2.50025,2.50025 0 1 1 -3.95508,3.05859 l -6,-7.7539 -4.32812,7.00586 a 2.50025,2.50025 0 0 1 -4.27734,-0.041 l -5.2793,-8.90625 -6.35547,13.78515 a 2.50025,2.50025 0 0 1 -4.38867,0.28321 l -5.10742,-8.13477 -3.45313,4.43555 a 2.50025,2.50025 0 1 1 -3.94531,-3.07031 l 5.64453,-7.25195 a 2.50025,2.50025 0 0 1 4.08984,0.20508 l 4.55079,7.24804 6.41796,-13.91601 a 2.50025,2.50025 0 0 1 2.35938,-1.45118 z"
       id="rect3841-6" />
    <path
       style="opacity:1;fill:#d5ffd5;fill-opacity:1;stroke:none"
       d="M 4.5058594,0 C 2.0100894,0 0,1.9332144 0,4.3339844 V 42.453125 c 0,2.40077 2.0100894,4.332031 4.5058594,4.332031 H 52.994141 c 2.49576,0 4.505859,-1.931261 4.505859,-4.332031 V 4.3339844 C 57.5,1.9332144 55.489901,0 52.994141,0 Z M 29.599609,14.484375 a 2.50025,2.50025 0 0 1 2.0625,1.224609 l 5.59961,9.447266 4.054687,-6.560547 a 2.50025,2.50025 0 0 1 4.103516,-0.216797 l 8.207031,10.609375 a 2.50025,2.50025 0 1 1 -3.955078,3.058594 l -6,-7.753906 -4.328125,7.005859 a 2.50025,2.50025 0 0 1 -4.277344,-0.04102 l -5.279297,-8.90625 -6.355468,13.785157 a 2.50025,2.50025 0 0 1 -4.388672,0.283203 l -5.107422,-8.134766 -3.453125,4.435547 A 2.50025,2.50025 0 1 1 6.5371094,29.650391 l 5.6445316,-7.251953 a 2.50025,2.50025 0 0 1 4.089843,0.205078 l 4.550782,7.248046 6.417968,-13.916015 a 2.50025,2.50025 0 0 1 2.359375,-1.451172 z"
       transform="translate(413.5842,405.42551)"
       id="rect3841"
       inkscape:connector-curvature="0" />
    <path
       sodipodi:nodetypes="cscssscc"
       inkscape:connector-curvature="0"
       id="line8"
       d="m 418.70982,446.05357 c -0.26998,0.0164 -0.29985,0.28805 -0.28348,0.55803 0.0164,0.26999 0.3327,0.48958 0.60268,0.47322 l 50.06473,0.0446 c 0.26998,2.4e-4 0.51562,-0.24564 0.51562,-0.51562 0,-0.26998 -0.24564,-0.51539 -0.51562,-0.51563 l -50.32143,-0.0446 c -0.0208,-10e-4 -0.0417,-10e-4 -0.0625,0 z"
       style="color:#000000;font-style:normal;font-variant:normal;font-weight:normal;font-stretch:normal;font-size:medium;line-height:normal;font-family:Sans;-inkscape-font-specification:Sans;text-indent:0;text-align:start;text-decoration:none;text-decoration-line:none;letter-spacing:normal;word-spacing:normal;text-transform:none;writing-mode:lr-tb;direction:ltr;baseline-shift:baseline;text-anchor:start;display:inline;overflow:visible;visibility:visible;fill:currentColor;fill-opacity:1;fill-rule:nonzero;stroke:none;stroke-width:1.023;marker:none;enable-background:accumulate" />
    <path
       sodipodi:nodetypes="ccccc"
       id="path3022"
       d="m 461.58763,446.5293 -0.0295,4.22594 8.11665,-4.13665 -8.11665,-4.04735 z"
       style="fill-rule:evenodd;stroke:#000000;stroke-width:0.80000004pt"
       inkscape:connector-curvature="0" />
    <path
       inkscape:connector-curvature="0"
       id="line8-7"
       d="m 418.648,407.87513 a 0.41848604,0.43810528 0 0 0 -0.28054,0.42422 v 38.11502 a 0.420815,0.44054343 0 0 0 0.84163,0 v -38.11502 a 0.41848604,0.43810528 0 0 0 -0.56109,-0.42422 z"
       style="color:#000000;font-style:normal;font-variant:normal;font-weight:normal;font-stretch:normal;font-size:medium;line-height:normal;font-family:Sans;-inkscape-font-specification:Sans;text-indent:0;text-align:start;text-decoration:none;text-decoration-line:none;letter-spacing:normal;word-spacing:normal;text-transform:none;writing-mode:lr-tb;direction:ltr;baseline-shift:baseline;text-anchor:start;display:inline;overflow:visible;visibility:visible;fill:currentColor;fill-opacity:1;fill-rule:nonzero;stroke:none;stroke-width:0.83899999;marker:none;enable-background:accumulate" />
    <path
       sodipodi:nodetypes="ccccc"
       id="path3022-5"
       d="m 418.78541,416.74084 4.21531,0.0308 -4.12625,-8.47578 -4.03717,8.47578 z"
       style="fill-rule:evenodd;stroke:#000000;stroke-width:0.81647775pt"
       inkscape:connector-curvature="0" />
  </g>
</svg>
