<?xml version="1.0" encoding="UTF-8" standalone="no"?>
<!-- Created with Inkscape (http://www.inkscape.org/) -->

<svg
   xmlns:dc="http://purl.org/dc/elements/1.1/"
   xmlns:cc="http://creativecommons.org/ns#"
   xmlns:rdf="http://www.w3.org/1999/02/22-rdf-syntax-ns#"
   xmlns:svg="http://www.w3.org/2000/svg"
   xmlns="http://www.w3.org/2000/svg"
   xmlns:sodipodi="http://sodipodi.sourceforge.net/DTD/sodipodi-0.dtd"
   xmlns:inkscape="http://www.inkscape.org/namespaces/inkscape"
   sodipodi:docname="logo.svg"
   width="2072.3809"
   height="819.80859"
   id="svg3221"
   version="1.1"
   inkscape:version="0.92.0 r"
   inkscape:export-filename="../../picts/logo.png"
   inkscape:export-xdpi="23.771374"
   inkscape:export-ydpi="23.771374">
  <defs
     id="defs3223" />
  <sodipodi:namedview
     id="base"
     pagecolor="#ffffff"
     bordercolor="#666666"
     borderopacity="1.0"
     inkscape:pageopacity="0.0"
     inkscape:pageshadow="2"
     inkscape:zoom="0.49497475"
     inkscape:cx="1278.1161"
     inkscape:cy="468.27682"
     inkscape:document-units="px"
     inkscape:current-layer="layer1"
     showgrid="false"
     inkscape:window-width="1600"
     inkscape:window-height="1163"
     inkscape:window-x="0"
     inkscape:window-y="0"
     inkscape:window-maximized="1"
     fit-margin-top="0"
     fit-margin-left="0"
     fit-margin-right="0"
     fit-margin-bottom="0"
     borderlayer="false"
     inkscape:showpageshadow="true" />
  <metadata
     id="metadata3226">
    <rdf:RDF>
      <cc:Work
         rdf:about="">
        <dc:format>image/svg+xml</dc:format>
        <dc:type
           rdf:resource="http://purl.org/dc/dcmitype/StillImage" />
        <dc:title></dc:title>
      </cc:Work>
    </rdf:RDF>
  </metadata>
  <g
     inkscape:label="Layer 1"
     inkscape:groupmode="layer"
     id="layer1"
     transform="translate(1152.4762,-125.73599)">
    <path
       style="opacity:1;fill:#000000;fill-opacity:1;stroke:none;stroke-width:7.4666667;stroke-linecap:round;stroke-linejoin:round;stroke-miterlimit:4;stroke-dasharray:none;stroke-dashoffset:0;stroke-opacity:1"
       d="M 0,0 V 819.80859 H 2072.3809 V 0 Z m 179.1582,32.373047 c 1.41252,0 2.47356,0.352719 3.53321,1.412109 27.19812,31.43664 51.21679,92.896864 51.21679,135.636724 0,11.67222 -1.57005,22.76942 -4.38281,33.41406 H 1524.4883 a 6.1474948,6.1474948 0 1 1 0,12.29297 h -369.9727 v 76.01171 h 369.9727 a 6.1474948,6.1474948 0 1 1 0,12.29493 h -369.9727 v 76.01172 h 21.3008 l 54.3457,-72.14454 h 41.375 l -56.7891,72.14454 h 309.7403 a 6.1474948,6.1474948 0 1 1 0,12.29296 h -319.416 l -5.6309,7.15235 35.1992,68.85937 h 289.8477 a 6.1474948,6.1474948 0 1 1 0,12.29297 h -283.5645 l 37.8926,74.13086 h -39.4199 l -36.6055,-74.13086 h -48.2754 v 74.13086 h -31.9629 v -74.13086 h -63.3945 v 4.16016 c 0,11.93299 0.5322,19.60424 1.5977,23.01367 1.1838,3.40943 3.0198,6.12205 5.5058,8.13672 2.6044,2.01466 6.2745,3.02148 11.0098,3.02148 3.5515,0 8.2266,-0.54213 14.0273,-1.62695 l 4.6172,36.96094 c -3.546,0.97728 -6.9396,1.7536 -10.1914,2.3457 h 230.6582 c 0.2768,-0.94283 0.5841,-1.89182 0.9551,-2.85352 9.154,-23.72748 33.8382,-32.75606 52.8867,-36.00781 14.5337,-2.34352 29.6233,-2.20095 43.1348,3.01172 8.6869,3.35143 16.3278,8.73994 21.1679,15.63281 0.4608,-6.9753 0.6982,-12.97169 0.3184,-15.71484 a 6.0955964,6.0955964 0 0 1 6.3145,-7.00977 6.0955964,6.0955964 0 0 1 5.7617,5.33789 c 0.7503,5.41954 0.2074,11.94897 -0.3164,19.54688 -0.3951,5.7303 -0.8383,11.94623 -0.9746,18.05664 h 78.8574 a 6.1474948,6.1474948 0 1 1 0,12.29492 h -78.5703 c 0.442,5.44125 1.3542,10.36573 2.8711,14.12305 2.0921,5.18237 4.6426,7.97235 9.4179,9.20117 a 6.0955964,6.0955964 0 1 1 -3.039,11.80469 c -8.7433,-2.24986 -14.6386,-8.90077 -17.6836,-16.44336 -1.9261,-4.77102 -2.9808,-9.97498 -3.5352,-15.35352 -11.0184,18.09595 -32.2755,25.50024 -49.1269,28.37696 -14.5337,2.34352 -29.6214,2.20291 -43.1328,-3.00977 -13.6074,-5.24968 -24.6609,-15.49258 -26.375,-28.69922 H 819.06641 c -10.88717,18.62227 -32.48068,26.18689 -49.55469,29.10156 -14.53366,2.34353 -29.62333,2.20097 -43.13477,-3.01171 -12.69852,-4.89907 -23.18136,-14.14351 -25.91797,-26.08985 H 214.12695 v 4.09571 c 0,16.95471 -0.3527,34.26419 -1.41211,51.21875 -2.4726,43.09313 -33.557,80.5332 -76.29687,80.5332 -39.560748,0 -71.349611,-32.49616 -71.349611,-72.41016 0,-20.48696 18.720313,-36.73437 39.560551,-36.73437 19.07402,0 33.55664,16.95393 33.55664,36.73437 0,18.3675 -15.18914,33.55664 -33.55664,33.55664 -4.23869,0 -8.124361,-1.05981 -12.009769,-2.82617 9.183769,15.89503 25.785519,26.49219 44.859379,26.49219 34.61581,0 58.28106,-32.14473 60.40039,-67.4668 1.05939,-16.24827 1.41211,-32.84948 1.41211,-49.09765 v -4.09571 H 33.035156 a 6.1474948,6.1474948 0 1 1 0,-12.29492 H 125.82227 C 95.822301,541.78325 72.586859,513.96406 61.417969,480.04492 H 33.035156 a 6.1474948,6.1474948 0 1 1 0,-12.29297 h 24.921875 c -2.503438,-10.72516 -3.839844,-21.93046 -3.839843,-33.41406 0,-15.05839 2.589669,-29.17579 7.09375,-42.59766 H 33.035156 a 6.1474948,6.1474948 0 1 1 0,-12.29296 H 65.943359 C 77.758792,352.13234 97.109886,327.54996 117.79883,303.43555 H 33.035156 a 6.1474948,6.1474948 0 1 1 0,-12.29493 h 95.425784 c 4.78458,-5.48085 9.57473,-10.96023 14.3164,-16.45898 -6.11921,-19.47041 -11.35454,-39.37898 -14.85937,-59.55273 H 33.035156 a 6.1474948,6.1474948 0 1 1 0,-12.29297 h 92.970704 c -0.18608,-1.36453 -0.36863,-2.72914 -0.53711,-4.09571 -2.11935,-19.42729 -2.82617,-38.50278 -2.82617,-58.2832 0,-42.033437 19.42827,-81.239964 52.98437,-106.671874 1.0594,-0.70625 2.47158,-1.412109 3.53125,-1.412109 z m 17.66211,51.921875 c -35.32217,18.720758 -57.57617,55.456998 -57.57617,95.371098 0,8.08009 0.54771,15.76218 1.47461,23.16992 h 53.10742 c 9.45152,-19.2557 15.35547,-39.77823 15.35547,-62.37891 0,-24.72552 -2.47102,-34.6156 -12.36133,-56.162108 z m 1348.99419,127.900388 148.0312,62.05664 v -6.10547 h 7 v 9.04102 l 100.6757,42.20508 v -5.19141 l 6.2754,0.002 v 7.82032 l 58.5859,24.56054 v -4.09765 l 5.8555,0.002 v 6.54883 l 42.2774,17.72266 v -4.06836 l 5.5586,0.002 v 6.39648 l 26.9141,11.28321 v -2.52735 h 5.2656 v 4.73438 l 19.5489,8.19531 v -2.29492 h 3.6054 v 3.80664 l 20.2813,8.50195 v -2.70117 l 4.8418,0.002 v 4.72852 l 8.8418,3.70508 v -3.38477 l 4.7539,0.002 -0.029,104.43946 1.4766,0.0605 -0.373,8.99219 -1.1055,-0.0469 v 13.27148 l 0.9902,-0.0684 0.6133,8.97852 -1.6055,0.10937 v 8.17383 l -4.752,-0.002 v -7.84571 l -8.8399,0.60352 v 7.5957 l -4.8418,-0.002 v -7.26172 l -20.2636,1.38477 v 9.07422 h -3.6055 v -8.82813 l -19.5645,1.33789 v 11.48438 l -5.2656,-0.002 v -11.12109 l -26.9141,1.83984 v 14.52149 h -5.5586 v -14.14063 l -42.2735,2.89063 v 12.84765 l -5.8555,-0.002 v -12.44531 l -58.586,4.00781 v 12.60742 H 1801.5 v -12.17773 l -100.6739,6.88476 v 21.04688 h -7 V 560.7812 l -153.164,10.47656 -0.6153,-8.97851 153.7813,-10.51758 0.01,-48.48633 -151.5235,-6.29687 0.3731,-8.99219 151.1504,6.28125 0.01,-49.73438 -151.9629,-21.16601 1.2403,-8.91211 150.7246,20.99219 v -40.43165 l -151.6543,-35.29296 2.039,-8.76563 149.6172,34.81836 0.01,-44.29687 -154.1484,-48.99219 2.7265,-8.57813 151.4219,48.12696 0.01,-48.02344 -151.5079,-63.51563 z m -1403.17778,2.9336 c 2.95436,15.94995 7.43054,30.80708 11.79687,45.77734 12.18621,-14.79755 23.5932,-29.89444 32.81055,-45.77734 z m 83.03711,0 c -9.97172,27.47536 -27.93068,52.05859 -47.88672,76.01171 h 274.03711 v -76.01171 z m 244.25195,0 32.3457,76.01171 h 100.55079 v -28.0371 c -0.56531,-4.64369 0.0141,-9.64751 2.05273,-14.93164 7.20816,-18.68376 24.04285,-28.2311 40.17578,-33.04297 z m 230.83789,0 c 0.0439,0.0168 0.0889,0.03 0.13281,0.0469 18.45464,7.11976 32.23417,23.4157 24.35157,43.84766 -6.76882,17.54498 -22.0297,27.03935 -37.22461,32.11718 H 1027.373 v -44.97656 l 31.7852,-25.10547 v 70.08203 h 63.3945 v -76.01171 z m -237.46094,23.03906 v 52.97265 h 22.54102 z m 151,45.0625 v 7.91015 h 12.7793 c -4.72806,-2.05104 -9.08716,-4.7194 -12.7793,-7.91015 z m 1086.54107,3.71484 -0.01,47.31446 100.6738,31.99804 0.01,-37.10742 z M 167.54688,303.43555 c 7.90887,25.11143 15.1439,50.55781 21.71289,76.01172 h 262.56445 v -76.01172 z m 295.75585,0 v 76.01172 h 60.11915 l -32.34571,-76.01172 z m 44.20118,0 32.3457,76.01172 h 62.97266 v -76.01172 z m 106.79882,0 v 76.01172 H 1027.373 v -39.59961 h -23.4394 v -32.54493 h 23.4394 v -3.86718 z m 444.85547,0 v 3.86718 h 32.1406 v 32.54493 h -32.1406 v 39.59961 h 63.3945 V 303.43555 Z M 155.8457,316.7168 c -17.82532,20.44185 -35.64214,40.88665 -49.64648,62.73047 h 67.50976 c -5.43601,-21.1112 -11.48656,-41.92205 -17.86328,-62.73047 z m 1651.9473,15.0625 -0.01,36.47265 58.584,18.61914 0.01,-30.53125 z m -106.9571,11.92382 v 43.70118 l 100.6739,23.42968 v -35.13281 z m 171.3965,15.08985 -0.01,29.93945 42.2754,13.4375 0.01,-25.6543 z m -64.4472,18.90234 -0.01,34.59766 58.5859,13.63476 v -29.61328 z m 112.2793,1.15039 v 25.08985 l 26.9122,8.55468 0.01,-22.36132 z M 98.84375,391.74023 c -12.142835,21.84442 -20,45.2618 -20,71.5625 0,1.49134 0.04366,2.9745 0.130859,4.44922 h 37.109371 c -1.04249,-4.86923 -1.56445,-9.79451 -1.56445,-14.69336 0,-24.40297 12.63246,-48.18363 35.4043,-61.31836 z m 135.0957,0 c 27.96829,15.2684 45.31198,44.87437 47.13282,76.01172 h 170.75195 v -76.01172 z m 229.36328,0 v 76.01172 H 561 l -32.3457,-76.01172 z m 81.77735,0 32.3457,76.01172 h 25.39649 v -76.01172 z m 69.22265,0 v 76.01172 h 231.58985 c 9.80778,-22.05134 33.51786,-30.60913 51.95117,-33.75586 5.45012,-0.87882 10.97883,-1.40778 16.47266,-1.45117 9.15637,-0.0723 18.21746,1.20497 26.66211,4.46289 14.30287,5.51803 25.78852,16.54933 26.5664,30.74414 h 59.82808 v -76.01172 z m 444.85547,0 v 76.01172 h 63.3945 v -76.01172 z m 95.3574,0 v 15.98438 l 12.041,-15.98438 z m 797.7266,0.59571 v 21.82617 l 19.5508,6.21484 v -19.8457 z m -251.4121,4.30859 v 39.77735 l 100.6738,14.02148 v -30.36914 z m 171.3945,1.53125 v 29.11524 l 42.2734,9.83789 0.01,-25.51758 z m 103.1719,3.86719 v 19.47851 l 20.2774,6.44532 v -17.42188 z m 33.9629,6.66406 -2.7012,6.44141 -6.1406,-2.57422 v 16.93164 l 8.8398,2.81055 z m -89.3008,4.67188 -0.01,25.04297 26.9141,6.26367 v -22.75391 z m -1737.01563,5.77148 c -30.37712,1.76608 -47.6836,21.5453 -47.68359,43.0918 0,1.82084 0.13236,3.66146 0.38671,5.50976 h 55.90235 C 189.2302,450.85 186.32521,434.46749 183.04297,419.15039 Z m 15.54297,0.70508 c 3.19549,15.14392 6.00146,31.27967 8.32422,47.89648 h 46.66406 c -7.13466,-23.55996 -26.89558,-43.72426 -54.98828,-47.89648 z m 1609.19136,1.67773 v 29.78516 l 58.586,8.16016 v -24.31055 z m 144.459,2.07227 v 22.30469 l 19.5528,4.55078 v -20.64063 z m -775.1699,4.34375 -22.5508,28.36133 v 11.4414 h 42.2051 z m 798.3262,3.01562 v 20.33594 l 20.2754,4.71875 v -18.60937 z m -103.1738,5.56641 v 23.76172 l 42.2754,5.88867 v -19.8125 z m 137.1328,1.57813 -1.0528,3.31445 -7.7871,-2.47461 -0.01,18.19726 8.748,2.03516 -2.041,8.76563 -6.709,-1.56055 v 11.77539 l 8.8398,1.23047 z m -308.5274,7.39843 -0.01,49.05078 100.6738,4.1836 0.01,-39.21289 z m 219.2266,2.1543 v 19.29297 l 26.914,3.74804 v -16.77734 z m 32.1797,7.48828 v 16.28711 l 19.5566,2.72461 v -14.46094 z m -144.459,5.25391 -0.01,38.59961 58.586,2.43554 0.01,-32.875 z m 167.6191,0.13672 v 14.12304 l 20.2715,2.82227 v -12.22656 z m -103.1777,8.83984 -0.01,32.30078 42.2754,1.75781 0.01,-28.16992 z m 47.834,6.66211 -0.01,27.62695 26.9121,1.11914 0.01,-24.99804 z M 80.724609,480.04492 c 9.078359,40.22543 49.751861,71.21094 92.076171,71.21094 v -0.002 c 8.83049,0 17.66145,-0.35271 26.13867,-1.41211 -0.73396,-23.12554 -2.71797,-46.81548 -5.63476,-69.79688 h -53.95117 c 4.43878,9.72085 12.64578,18.95638 24.96875,25.99805 1.76607,1.76608 2.47265,3.53275 2.47265,5.29883 0,3.8854 -3.53084,7.76953 -7.76953,7.76953 -1.05939,0 -2.12001,-0.35196 -3.17969,-0.70508 -17.87884,-9.60983 -29.66889,-23.32316 -35.92382,-38.36133 z m 127.806641,0 c 2.69331,21.82929 4.52121,44.2747 5.24219,66.26367 25.43204,-8.12404 42.74023,-33.55428 42.74023,-58.98632 0,-2.43038 -0.15206,-4.85928 -0.41992,-7.27735 z m 72.44531,0 c -1.83052,24.61822 -13.6133,49.22406 -37.53125,67.32422 -4.65201,3.53553 -9.60424,6.36955 -14.79297,8.6875 h 134.24024 c -16.56658,-7.76771 -28.07631,-23.22903 -20.7207,-42.29492 7.55747,-19.58919 25.69597,-29.14497 42.51367,-33.7168 z m 155.17578,0 c 0.68189,0.23521 1.36673,0.46252 2.04102,0.72266 5.00163,1.92961 9.65421,4.53773 13.63086,7.71484 v -8.4375 z m 27.15039,0 v 24 c 2.10178,6.13424 2.13468,13.07094 -0.75781,20.56836 -6.48338,16.80515 -20.75833,26.2151 -35.30273,31.44336 h 171.33593 l -32.3457,-76.01172 z m 119.35352,0 20.16602,47.39063 v -47.39063 z m 31.64648,0 v 74.36914 l 0.0352,0.082 c 0.21807,0.51245 0.31231,1.03888 0.33399,1.56055 h 85.73437 c 0.37133,-1.78483 0.90469,-3.60595 1.62109,-5.46289 9.15401,-23.72749 33.83813,-32.75606 52.88672,-36.00781 5.45012,-0.87882 10.97688,-1.40779 16.47071,-1.45117 9.15637,-0.0723 18.21746,1.20497 26.66211,4.46289 16.80052,6.48162 29.72026,20.57019 25.95507,38.45898 h 234.06251 c -5.2566,-1.18166 -9.6867,-3.12472 -13.2891,-5.83203 -6.3927,-4.80419 -10.8917,-11.08138 -13.4961,-18.83008 -2.6044,-7.90367 -3.9063,-24.40788 -3.9063,-49.51367 v -1.83594 h -61.75773 c -0.0971,0.26991 -0.18241,0.53721 -0.28711,0.8086 -9.15395,23.72733 -33.83813,32.75604 -52.88671,36.00781 -14.53365,2.34352 -29.62135,2.20096 -43.13282,-3.01172 -15.3149,-5.90847 -27.39718,-18.13828 -26.56445,-33.80469 z m 1337.92187,0.48047 -0.01,24.48242 19.5605,0.8125 v -22.57226 z m 23.1621,3.22656 v 22.21875 l 20.2675,0.8418 0.01,-20.23828 z m 25.1133,3.4961 -0.01,19.76562 8.8399,0.36719 0.01,-18.90234 z m -299.6816,16.31836 -0.01,47.71679 100.6738,-6.88476 V 507.75 Z m 106.9472,4.44531 -0.01,35.95703 58.5859,-4.00781 v -29.51367 z m 64.4395,2.67773 v 28.8711 l 42.2734,-2.89063 0.01,-24.22265 z m 47.834,1.98828 -0.01,23.61133 26.9141,-1.83984 v -20.65234 z m 32.1777,1.33789 v 20.07227 l 19.5625,-1.33789 v -17.92188 z m 23.166,0.9629 v 17.52539 l 20.2656,-1.38672 v -15.29688 z m 25.1094,1.04296 v 14.76563 l 8.8398,-0.60547 V 516.38867 Z M 173.94727,704.79883 c 13.09019,0 22.50976,7.9512 22.50976,19.08398 0,6.23936 -2.81364,11.86681 -8.07422,15.9043 -2.20209,1.71285 -4.77098,3.17971 -10.39843,5.87109 4.52652,2.93644 6.72941,4.77159 8.56445,7.21875 2.69147,3.67009 4.16015,7.95176 4.16015,12.47852 0,15.904 -13.58108,27.4043 -32.29882,27.4043 -15.6593,0 -25.44532,-7.46255 -25.44532,-19.20704 0,-11.13277 7.70668,-20.06309 22.14258,-25.56835 -6.60627,-4.77123 -9.17578,-9.5435 -9.17578,-17.00586 0,-14.68051 12.234,-26.17969 28.01563,-26.17969 z m -0.97852,5.25976 c -9.54238,0 -17.25,6.72955 -17.25,15.04883 0,6.97326 4.64975,11.74372 17.00586,17.73828 0.61171,-0.3684 1.46776,-0.73129 1.95703,-0.85547 7.46264,-3.42545 12.60156,-11.13243 12.60156,-18.83984 0,-7.58489 -5.99546,-13.0918 -14.31445,-13.0918 z m -13.21289,41.22852 c -1.34578,0.606 -2.08,0.85434 -2.32422,0.97851 -9.05305,3.9149 -14.55859,11.50103 -14.55859,19.82032 0,9.42026 6.48406,15.29101 16.88281,15.29101 11.49979,0 20.30859,-7.21789 20.30859,-16.51562 0,-5.38318 -3.303,-10.39844 -9.41992,-14.06836 -3.05842,-1.83537 -5.13874,-2.81448 -10.88867,-5.50586 z"
       id="rect4160"
       transform="translate(-1152.4762,125.73599)"
       inkscape:connector-curvature="0" />
    <g
       style="font-size:2.19950008px;font-family:'Century Schoolbook L';text-anchor:start;fill:currentColor"
       id="text4"
       transform="matrix(51.186412,0,0,51.186412,-98.450355,-651.79324)" />
    <g
       style="font-style:italic;font-size:1.38540006px;font-family:'Century Schoolbook L';text-anchor:start;fill:#ffffff;fill-opacity:1"
       id="text36"
       inkscape:export-filename="/home/tom/DEVELOP/QT4/nootka/picts/c1-trecle_8.png"
       inkscape:export-xdpi="327.32205"
       inkscape:export-ydpi="327.32205"
       transform="matrix(82.786354,0,0,82.786354,-1169.7091,-1078.1682)" />
  </g>
</svg>
