<?xml version="1.0" encoding="UTF-8" standalone="no"?>
<!-- Created with Inkscape (http://www.inkscape.org/) -->

<svg
   xmlns:dc="http://purl.org/dc/elements/1.1/"
   xmlns:cc="http://creativecommons.org/ns#"
   xmlns:rdf="http://www.w3.org/1999/02/22-rdf-syntax-ns#"
   xmlns:svg="http://www.w3.org/2000/svg"
   xmlns="http://www.w3.org/2000/svg"
   xmlns:sodipodi="http://sodipodi.sourceforge.net/DTD/sodipodi-0.dtd"
   xmlns:inkscape="http://www.inkscape.org/namespaces/inkscape"
   sodipodi:docname="logo.svg"
   width="2072.3809"
   height="819.80957"
   id="svg3221"
   version="1.1"
   inkscape:version="0.92.0 r"
   inkscape:export-filename="/home/tom/DEVELOP/QT5/nootka/picts/logo.png"
   inkscape:export-xdpi="11.827137"
   inkscape:export-ydpi="11.827137">
  <defs
     id="defs3223" />
  <sodipodi:namedview
     id="base"
     pagecolor="#ffffff"
     bordercolor="#666666"
     borderopacity="1.0"
     inkscape:pageopacity="0.0"
     inkscape:pageshadow="2"
     inkscape:zoom="0.49497475"
     inkscape:cx="1299.3293"
     inkscape:cy="553.13061"
     inkscape:document-units="px"
     inkscape:current-layer="layer1"
     showgrid="false"
     inkscape:window-width="1920"
     inkscape:window-height="1046"
     inkscape:window-x="0"
     inkscape:window-y="0"
     inkscape:window-maximized="1"
     fit-margin-top="0"
     fit-margin-left="0"
     fit-margin-right="0"
     fit-margin-bottom="0"
     borderlayer="false"
     inkscape:showpageshadow="true" />
  <metadata
     id="metadata3226">
    <rdf:RDF>
      <cc:Work
         rdf:about="">
        <dc:format>image/svg+xml</dc:format>
        <dc:type
           rdf:resource="http://purl.org/dc/dcmitype/StillImage" />
        <dc:title />
      </cc:Work>
    </rdf:RDF>
  </metadata>
  <g
     inkscape:label="Layer 1"
     inkscape:groupmode="layer"
     id="layer1"
     transform="translate(1152.4762,-125.73599)">
    <path
       style="opacity:1;fill:#000000;fill-opacity:1;stroke:none;stroke-width:7.4666667;stroke-linecap:round;stroke-linejoin:round;stroke-miterlimit:4;stroke-dasharray:none;stroke-dashoffset:0;stroke-opacity:1"
       d="M 0 0 L 0 819.80859 L 2072.3809 819.80859 L 2072.3809 0 L 0 0 z M 179.1582 32.373047 C 180.57072 32.373047 181.63176 32.725766 182.69141 33.785156 C 209.88953 65.221796 233.9082 126.68202 233.9082 169.42188 C 233.9082 181.0941 232.33815 192.1913 229.52539 202.83594 L 1524.4883 202.83594 A 6.1474948 6.1474948 0 1 1 1524.4883 215.12891 L 1154.5156 215.12891 L 1154.5156 291.14062 L 1524.4883 291.14062 A 6.1474948 6.1474948 0 1 1 1524.4883 303.43555 L 1154.5156 303.43555 L 1154.5156 379.44727 L 1175.8164 379.44727 L 1230.1621 307.30273 L 1271.5371 307.30273 L 1214.748 379.44727 L 1524.4883 379.44727 A 6.1474948 6.1474948 0 1 1 1524.4883 391.74023 L 1205.0723 391.74023 L 1199.4414 398.89258 L 1234.6406 467.75195 L 1524.4883 467.75195 A 6.1474948 6.1474948 0 1 1 1524.4883 480.04492 L 1240.9238 480.04492 L 1278.8164 554.17578 L 1239.3965 554.17578 L 1202.791 480.04492 L 1154.5156 480.04492 L 1154.5156 554.17578 L 1122.5527 554.17578 L 1122.5527 480.04492 L 1059.1582 480.04492 L 1059.1582 484.20508 C 1059.1582 496.13807 1059.6904 503.80932 1060.7559 507.21875 C 1061.9397 510.62818 1063.7757 513.3408 1066.2617 515.35547 C 1068.8661 517.37013 1072.5362 518.37695 1077.2715 518.37695 C 1080.823 518.37695 1085.4981 517.83482 1091.2988 516.75 L 1095.916 553.71094 C 1092.37 554.68822 1088.9764 555.46454 1085.7246 556.05664 L 1316.3828 556.05664 C 1316.6596 555.11381 1316.9669 554.16482 1317.3379 553.20312 C 1326.4919 529.47564 1351.1761 520.44706 1370.2246 517.19531 C 1384.7583 514.85179 1399.8479 514.99436 1413.3594 520.20703 C 1422.0463 523.55846 1429.6872 528.94697 1434.5273 535.83984 C 1434.9881 528.86454 1435.2255 522.86815 1434.8457 520.125 A 6.0955964 6.0955964 0 0 1 1441.1602 513.11523 A 6.0955964 6.0955964 0 0 1 1446.9219 518.45312 C 1447.6722 523.87266 1447.1293 530.40209 1446.6055 538 C 1446.2104 543.7303 1445.7672 549.94623 1445.6309 556.05664 L 1524.4883 556.05664 A 6.1474948 6.1474948 0 1 1 1524.4883 568.35156 L 1445.918 568.35156 C 1446.36 573.79281 1447.2722 578.71729 1448.7891 582.47461 C 1450.8812 587.65698 1453.4317 590.44696 1458.207 591.67578 A 6.0955964 6.0955964 0 1 1 1455.168 603.48047 C 1446.4247 601.23061 1440.5294 594.5797 1437.4844 587.03711 C 1435.5583 582.26609 1434.5036 577.06213 1433.9492 571.68359 C 1422.9308 589.77954 1401.6737 597.18383 1384.8223 600.06055 C 1370.2886 602.40407 1355.2009 602.26346 1341.6895 597.05078 C 1328.0821 591.8011 1317.0286 581.5582 1315.3145 568.35156 L 819.06641 568.35156 C 808.17924 586.97383 786.58573 594.53845 769.51172 597.45312 C 754.97806 599.79665 739.88839 599.65409 726.37695 594.44141 C 713.67843 589.54234 703.19559 580.2979 700.45898 568.35156 L 214.12695 568.35156 L 214.12695 572.44727 C 214.12695 589.40198 213.77425 606.71146 212.71484 623.66602 C 210.24224 666.75915 179.15784 704.19922 136.41797 704.19922 C 96.857222 704.19922 65.068359 671.70306 65.068359 631.78906 C 65.068359 611.3021 83.788672 595.05469 104.62891 595.05469 C 123.70293 595.05469 138.18555 612.00862 138.18555 631.78906 C 138.18555 650.15656 122.99641 665.3457 104.62891 665.3457 C 100.39022 665.3457 96.504549 664.28589 92.619141 662.51953 C 101.80291 678.41456 118.40466 689.01172 137.47852 689.01172 C 172.09433 689.01172 195.75958 656.86699 197.87891 621.54492 C 198.9383 605.29665 199.29102 588.69544 199.29102 572.44727 L 199.29102 568.35156 L 33.035156 568.35156 A 6.1474948 6.1474948 0 1 1 33.035156 556.05664 L 125.82227 556.05664 C 95.822301 541.78325 72.586859 513.96406 61.417969 480.04492 L 33.035156 480.04492 A 6.1474948 6.1474948 0 1 1 33.035156 467.75195 L 57.957031 467.75195 C 55.453593 457.02679 54.117187 445.82149 54.117188 434.33789 C 54.117188 419.2795 56.706857 405.1621 61.210938 391.74023 L 33.035156 391.74023 A 6.1474948 6.1474948 0 1 1 33.035156 379.44727 L 65.943359 379.44727 C 77.758792 352.13234 97.109886 327.54996 117.79883 303.43555 L 33.035156 303.43555 A 6.1474948 6.1474948 0 1 1 33.035156 291.14062 L 128.46094 291.14062 C 133.24552 285.65977 138.03567 280.18039 142.77734 274.68164 C 136.65813 255.21123 131.4228 235.30266 127.91797 215.12891 L 33.035156 215.12891 A 6.1474948 6.1474948 0 1 1 33.035156 202.83594 L 126.00586 202.83594 C 125.81978 201.47141 125.63723 200.1068 125.46875 198.74023 C 123.3494 179.31294 122.64258 160.23745 122.64258 140.45703 C 122.64258 98.423593 142.07085 59.217066 175.62695 33.785156 C 176.68635 33.078906 178.09853 32.373047 179.1582 32.373047 z M 196.82031 84.294922 C 161.49814 103.01568 139.24414 139.75192 139.24414 179.66602 C 139.24414 187.74611 139.79185 195.4282 140.71875 202.83594 L 193.82617 202.83594 C 203.27769 183.58024 209.18164 163.05771 209.18164 140.45703 C 209.18164 115.73151 206.71062 105.84143 196.82031 84.294922 z M 1545.8145 212.19531 L 1693.8457 274.25195 L 1693.8457 268.14648 L 1700.8457 268.14648 L 1700.8438 277.1875 L 1801.5195 319.39258 L 1801.5195 314.20117 L 1807.7949 314.20312 L 1807.793 322.02344 L 1866.3789 346.58398 L 1866.3789 342.48633 L 1872.2344 342.48828 L 1872.2324 349.03711 L 1914.5098 366.75977 L 1914.5098 362.69141 L 1920.0684 362.69336 L 1920.0664 369.08984 L 1946.9805 380.37305 L 1946.9805 377.8457 L 1952.2461 377.8457 L 1952.2441 382.58008 L 1971.793 390.77539 L 1971.793 388.48047 L 1975.3984 388.48047 L 1975.3984 392.28711 L 1995.6797 400.78906 L 1995.6797 398.08789 L 2000.5215 398.08984 L 2000.5195 402.81836 L 2009.3613 406.52344 L 2009.3613 403.13867 L 2014.1152 403.14062 L 2014.0859 507.58008 L 2015.5625 507.64062 L 2015.1895 516.63281 L 2014.084 516.58594 L 2014.0801 529.85742 L 2015.0703 529.78906 L 2015.6836 538.76758 L 2014.0781 538.87695 L 2014.0762 547.05078 L 2009.3242 547.04883 L 2009.3262 539.20312 L 2000.4863 539.80664 L 2000.4844 547.40234 L 1995.6426 547.40039 L 1995.6445 540.13867 L 1975.3809 541.52344 L 1975.3789 550.59766 L 1971.7734 550.59766 L 1971.7754 541.76953 L 1952.2109 543.10742 L 1952.209 554.5918 L 1946.9434 554.58984 L 1946.9453 543.46875 L 1920.0312 545.30859 L 1920.0293 559.83008 L 1914.4707 559.83008 L 1914.4727 545.68945 L 1872.1992 548.58008 L 1872.1973 561.42773 L 1866.3418 561.42578 L 1866.3438 548.98047 L 1807.7578 552.98828 L 1807.7559 565.5957 L 1801.4824 565.5957 L 1801.4844 553.41797 L 1700.8105 560.30273 L 1700.8086 581.34961 L 1693.8086 581.34961 L 1693.8105 560.78125 L 1540.6465 571.25781 L 1540.0312 562.2793 L 1693.8125 551.76172 L 1693.8184 503.27539 L 1542.2949 496.97852 L 1542.668 487.98633 L 1693.8184 494.26758 L 1693.8242 444.5332 L 1541.8613 423.36719 L 1543.1016 414.45508 L 1693.8262 435.44727 L 1693.8301 395.01562 L 1542.1758 359.72266 L 1544.2148 350.95703 L 1693.832 385.77539 L 1693.8379 341.47852 L 1539.6895 292.48633 L 1542.416 283.9082 L 1693.8379 332.03516 L 1693.8438 284.01172 L 1542.3359 220.49609 L 1545.8145 212.19531 z M 142.63672 215.12891 C 145.59108 231.07886 150.06726 245.93599 154.43359 260.90625 C 166.6198 246.1087 178.02679 231.01181 187.24414 215.12891 L 142.63672 215.12891 z M 225.67383 215.12891 C 215.70211 242.60427 197.74315 267.1875 177.78711 291.14062 L 451.82422 291.14062 L 451.82422 215.12891 L 225.67383 215.12891 z M 469.92578 215.12891 L 502.27148 291.14062 L 602.82227 291.14062 L 602.82227 263.10352 C 602.25696 258.45983 602.8364 253.45601 604.875 248.17188 C 612.08316 229.48812 628.91785 219.94078 645.05078 215.12891 L 469.92578 215.12891 z M 700.76367 215.12891 C 700.80757 215.14572 700.85262 215.15886 700.89648 215.17578 C 719.35112 222.29554 733.13065 238.59148 725.24805 259.02344 C 718.47923 276.56842 703.21835 286.06279 688.02344 291.14062 L 1027.373 291.14062 L 1027.373 246.16406 L 1059.1582 221.05859 L 1059.1582 291.14062 L 1122.5527 291.14062 L 1122.5527 215.12891 L 700.76367 215.12891 z M 463.30273 238.16797 L 463.30273 291.14062 L 485.84375 291.14062 L 463.30273 238.16797 z M 614.30273 283.23047 L 614.30273 291.14062 L 627.08203 291.14062 C 622.35397 289.08958 617.99487 286.42122 614.30273 283.23047 z M 1700.8438 286.94531 L 1700.8379 334.25977 L 1801.5117 366.25781 L 1801.5176 329.15039 L 1700.8438 286.94531 z M 167.54688 303.43555 C 175.45575 328.54698 182.69078 353.99336 189.25977 379.44727 L 451.82422 379.44727 L 451.82422 303.43555 L 167.54688 303.43555 z M 463.30273 303.43555 L 463.30273 379.44727 L 523.42188 379.44727 L 491.07617 303.43555 L 463.30273 303.43555 z M 507.50391 303.43555 L 539.84961 379.44727 L 602.82227 379.44727 L 602.82227 303.43555 L 507.50391 303.43555 z M 614.30273 303.43555 L 614.30273 379.44727 L 1027.373 379.44727 L 1027.373 339.84766 L 1003.9336 339.84766 L 1003.9336 307.30273 L 1027.373 307.30273 L 1027.373 303.43555 L 614.30273 303.43555 z M 1059.1582 303.43555 L 1059.1582 307.30273 L 1091.2988 307.30273 L 1091.2988 339.84766 L 1059.1582 339.84766 L 1059.1582 379.44727 L 1122.5527 379.44727 L 1122.5527 303.43555 L 1059.1582 303.43555 z M 155.8457 316.7168 C 138.02038 337.15865 120.20356 357.60345 106.19922 379.44727 L 173.70898 379.44727 C 168.27297 358.33607 162.22242 337.52522 155.8457 316.7168 z M 1807.793 331.7793 L 1807.7871 368.25195 L 1866.3711 386.87109 L 1866.377 356.33984 L 1807.793 331.7793 z M 1700.8359 343.70312 L 1700.832 387.4043 L 1801.5059 410.83398 L 1801.5098 375.70117 L 1700.8359 343.70312 z M 1872.2324 358.79297 L 1872.2266 388.73242 L 1914.502 402.16992 L 1914.5078 376.51562 L 1872.2324 358.79297 z M 1807.7852 377.69531 L 1807.7793 412.29297 L 1866.3652 425.92773 L 1866.3691 396.31445 L 1807.7852 377.69531 z M 1920.0645 378.8457 L 1920.0605 403.93555 L 1946.9727 412.49023 L 1946.9785 390.12891 L 1920.0645 378.8457 z M 98.84375 391.74023 C 86.700915 413.58465 78.84375 437.00203 78.84375 463.30273 C 78.84375 464.79407 78.887409 466.27723 78.974609 467.75195 L 116.08398 467.75195 C 115.04149 462.88272 114.51953 457.95744 114.51953 453.05859 C 114.51953 428.65562 127.15199 404.87496 149.92383 391.74023 L 98.84375 391.74023 z M 233.93945 391.74023 C 261.90774 407.00863 279.25143 436.6146 281.07227 467.75195 L 451.82422 467.75195 L 451.82422 391.74023 L 233.93945 391.74023 z M 463.30273 391.74023 L 463.30273 467.75195 L 561 467.75195 L 528.6543 391.74023 L 463.30273 391.74023 z M 545.08008 391.74023 L 577.42578 467.75195 L 602.82227 467.75195 L 602.82227 391.74023 L 545.08008 391.74023 z M 614.30273 391.74023 L 614.30273 467.75195 L 845.89258 467.75195 C 855.70036 445.70061 879.41044 437.14282 897.84375 433.99609 C 903.29387 433.11727 908.82258 432.58831 914.31641 432.54492 C 923.47278 432.47261 932.53387 433.74989 940.97852 437.00781 C 955.28139 442.52584 966.76704 453.55714 967.54492 467.75195 L 1027.373 467.75195 L 1027.373 391.74023 L 614.30273 391.74023 z M 1059.1582 391.74023 L 1059.1582 467.75195 L 1122.5527 467.75195 L 1122.5527 391.74023 L 1059.1582 391.74023 z M 1154.5156 391.74023 L 1154.5156 407.72461 L 1166.5566 391.74023 L 1154.5156 391.74023 z M 1952.2422 392.33594 L 1952.2383 414.16211 L 1971.7891 420.37695 L 1971.791 400.53125 L 1952.2422 392.33594 z M 1700.8301 396.64453 L 1700.8262 436.42188 L 1801.5 450.44336 L 1801.5039 420.07422 L 1700.8301 396.64453 z M 1872.2246 398.17578 L 1872.2207 427.29102 L 1914.4941 437.12891 L 1914.5 411.61133 L 1872.2246 398.17578 z M 1975.3965 402.04297 L 1975.3945 421.52148 L 1995.6719 427.9668 L 1995.6758 410.54492 L 1975.3965 402.04297 z M 2009.3594 408.70703 L 2006.6582 415.14844 L 2000.5176 412.57422 L 2000.5137 429.50586 L 2009.3535 432.31641 L 2009.3594 408.70703 z M 1920.0586 413.37891 L 1920.0527 438.42188 L 1946.9668 444.68555 L 1946.9707 421.93164 L 1920.0586 413.37891 z M 183.04297 419.15039 C 152.66585 420.91647 135.35937 440.69569 135.35938 462.24219 C 135.35938 464.06303 135.49174 465.90365 135.74609 467.75195 L 191.64844 467.75195 C 189.2302 450.85 186.32521 434.46749 183.04297 419.15039 z M 198.58594 419.85547 C 201.78143 434.99939 204.5874 451.13514 206.91016 467.75195 L 253.57422 467.75195 C 246.43956 444.19199 226.67864 424.02769 198.58594 419.85547 z M 1807.7773 421.5332 L 1807.7734 451.31836 L 1866.3594 459.47852 L 1866.3633 435.16797 L 1807.7773 421.5332 z M 1952.2363 423.60547 L 1952.2324 445.91016 L 1971.7852 450.46094 L 1971.7871 429.82031 L 1952.2363 423.60547 z M 1177.0664 427.94922 L 1154.5156 456.31055 L 1154.5156 467.75195 L 1196.7207 467.75195 L 1177.0664 427.94922 z M 1975.3926 430.96484 L 1975.3906 451.30078 L 1995.666 456.01953 L 1995.6699 437.41016 L 1975.3926 430.96484 z M 1872.2188 436.53125 L 1872.2148 460.29297 L 1914.4902 466.18164 L 1914.4941 446.36914 L 1872.2188 436.53125 z M 2009.3516 438.10938 L 2008.2988 441.42383 L 2000.5117 438.94922 L 2000.5059 457.14648 L 2009.2539 459.18164 L 2007.2129 467.94727 L 2000.5039 466.38672 L 2000.502 478.16211 L 2009.3418 479.39258 L 2009.3516 438.10938 z M 1700.8242 445.50781 L 1700.8184 494.55859 L 1801.4922 498.74219 L 1801.498 459.5293 L 1700.8242 445.50781 z M 1920.0508 447.66211 L 1920.0469 466.95508 L 1946.9609 470.70312 L 1946.9648 453.92578 L 1920.0508 447.66211 z M 1952.2305 455.15039 L 1952.2266 471.4375 L 1971.7832 474.16211 L 1971.7852 459.70117 L 1952.2305 455.15039 z M 1807.7715 460.4043 L 1807.7656 499.00391 L 1866.3516 501.43945 L 1866.3574 468.56445 L 1807.7715 460.4043 z M 1975.3906 460.54102 L 1975.3887 474.66406 L 1995.6602 477.48633 L 1995.6621 465.25977 L 1975.3906 460.54102 z M 1872.2129 469.38086 L 1872.207 501.68164 L 1914.4824 503.43945 L 1914.4883 475.26953 L 1872.2129 469.38086 z M 1920.0469 476.04297 L 1920.041 503.66992 L 1946.9531 504.78906 L 1946.959 479.79102 L 1920.0469 476.04297 z M 80.724609 480.04492 C 89.802968 520.27035 130.47647 551.25586 172.80078 551.25586 L 172.80078 551.25391 C 181.63127 551.25391 190.46223 550.9012 198.93945 549.8418 C 198.20549 526.71626 196.22148 503.02632 193.30469 480.04492 L 139.35352 480.04492 C 143.7923 489.76577 151.9993 499.0013 164.32227 506.04297 C 166.08834 507.80905 166.79492 509.57572 166.79492 511.3418 C 166.79492 515.2272 163.26408 519.11133 159.02539 519.11133 C 157.966 519.11133 156.90538 518.75937 155.8457 518.40625 C 137.96686 508.79642 126.17681 495.08309 119.92188 480.04492 L 80.724609 480.04492 z M 208.53125 480.04492 C 211.22456 501.87421 213.05246 524.31962 213.77344 546.30859 C 239.20548 538.18455 256.51367 512.75431 256.51367 487.32227 C 256.51367 484.89189 256.36161 482.46299 256.09375 480.04492 L 208.53125 480.04492 z M 280.97656 480.04492 C 279.14604 504.66314 267.36326 529.26898 243.44531 547.36914 C 238.7933 550.90467 233.84107 553.73869 228.65234 556.05664 L 362.89258 556.05664 C 346.326 548.28893 334.81627 532.82761 342.17188 513.76172 C 349.72935 494.17253 367.86785 484.61675 384.68555 480.04492 L 280.97656 480.04492 z M 436.15234 480.04492 C 436.83423 480.28013 437.51907 480.50744 438.19336 480.76758 C 443.19499 482.69719 447.84757 485.30531 451.82422 488.48242 L 451.82422 480.04492 L 436.15234 480.04492 z M 463.30273 480.04492 L 463.30273 504.04492 C 465.40451 510.17916 465.43741 517.11586 462.54492 524.61328 C 456.06154 541.41843 441.78659 550.82838 427.24219 556.05664 L 598.57812 556.05664 L 566.23242 480.04492 L 463.30273 480.04492 z M 582.65625 480.04492 L 602.82227 527.43555 L 602.82227 480.04492 L 582.65625 480.04492 z M 614.30273 480.04492 L 614.30273 554.41406 L 614.33789 554.49609 C 614.55596 555.00854 614.6502 555.53497 614.67188 556.05664 L 700.40625 556.05664 C 700.77758 554.27181 701.31094 552.45069 702.02734 550.59375 C 711.18135 526.86626 735.86547 517.83769 754.91406 514.58594 C 760.36418 513.70712 765.89094 513.17815 771.38477 513.13477 C 780.54114 513.06245 789.60223 514.33974 798.04688 517.59766 C 814.8474 524.07928 827.76714 538.16785 824.00195 556.05664 L 1058.0645 556.05664 C 1052.8079 554.87498 1048.3778 552.93192 1044.7754 550.22461 C 1038.3827 545.42042 1033.8837 539.14323 1031.2793 531.39453 C 1028.6749 523.49086 1027.373 506.98665 1027.373 481.88086 L 1027.373 480.04492 L 965.61523 480.04492 C 965.51814 480.31483 965.43282 480.58213 965.32812 480.85352 C 956.17417 504.58085 931.48999 513.60956 912.44141 516.86133 C 897.90776 519.20485 882.82006 519.06229 869.30859 513.84961 C 853.99369 507.94114 841.91141 495.71133 842.74414 480.04492 L 614.30273 480.04492 z M 1952.2246 480.52539 L 1952.2188 505.00781 L 1971.7793 505.82031 L 1971.7812 483.24805 L 1952.2246 480.52539 z M 1975.3867 483.75195 L 1975.3848 505.9707 L 1995.6523 506.8125 L 1995.6582 486.57422 L 1975.3867 483.75195 z M 2000.5 487.24805 L 2000.4941 507.01367 L 2009.334 507.38086 L 2009.3398 488.47852 L 2000.5 487.24805 z M 1700.8184 503.56641 L 1700.8125 551.2832 L 1801.4863 544.39844 L 1801.4902 507.75 L 1700.8184 503.56641 z M 1807.7656 508.01172 L 1807.7598 543.96875 L 1866.3457 539.96094 L 1866.3496 510.44727 L 1807.7656 508.01172 z M 1872.2051 510.68945 L 1872.2012 539.56055 L 1914.4746 536.66992 L 1914.4805 512.44727 L 1872.2051 510.68945 z M 1920.0391 512.67773 L 1920.0332 536.28906 L 1946.9473 534.44922 L 1946.9512 513.79688 L 1920.0391 512.67773 z M 1952.2168 514.01562 L 1952.2129 534.08789 L 1971.7754 532.75 L 1971.7773 514.82812 L 1952.2168 514.01562 z M 1975.3828 514.97852 L 1975.3809 532.50391 L 1995.6465 531.11719 L 1995.6504 515.82031 L 1975.3828 514.97852 z M 2000.4922 516.02148 L 2000.4883 530.78711 L 2009.3281 530.18164 L 2009.332 516.38867 L 2000.4922 516.02148 z M 173.94727 704.79883 C 187.03746 704.79883 196.45703 712.75003 196.45703 723.88281 C 196.45703 730.12217 193.64339 735.74962 188.38281 739.78711 C 186.18072 741.49996 183.61183 742.96682 177.98438 745.6582 C 182.5109 748.59464 184.71379 750.42979 186.54883 752.87695 C 189.2403 756.54704 190.70898 760.82871 190.70898 765.35547 C 190.70898 781.25947 177.1279 792.75977 158.41016 792.75977 C 142.75086 792.75977 132.96484 785.29722 132.96484 773.55273 C 132.96484 762.41996 140.67152 753.48964 155.10742 747.98438 C 148.50115 743.21315 145.93164 738.44088 145.93164 730.97852 C 145.93164 716.29801 158.16564 704.79883 173.94727 704.79883 z M 172.96875 710.05859 C 163.42637 710.05859 155.71875 716.78814 155.71875 725.10742 C 155.71875 732.08068 160.3685 736.85114 172.72461 742.8457 C 173.33632 742.4773 174.19237 742.11441 174.68164 741.99023 C 182.14428 738.56478 187.2832 730.8578 187.2832 723.15039 C 187.2832 715.5655 181.28774 710.05859 172.96875 710.05859 z M 159.75586 751.28711 C 158.41008 751.89311 157.67586 752.14145 157.43164 752.26562 C 148.37859 756.18052 142.87305 763.76665 142.87305 772.08594 C 142.87305 781.5062 149.35711 787.37695 159.75586 787.37695 C 171.25565 787.37695 180.06445 780.15906 180.06445 770.86133 C 180.06445 765.47815 176.76145 760.46289 170.64453 756.79297 C 167.58611 754.9576 165.50579 753.97849 159.75586 751.28711 z "
       id="rect4160"
       transform="translate(-1152.4762,125.73599)" />
    <g
       style="font-size:2.19950008px;font-family:'Century Schoolbook L';text-anchor:start;fill:currentColor"
       id="text4"
       transform="matrix(51.186412,0,0,51.186412,-98.450355,-651.79324)" />
    <g
       style="font-style:italic;font-size:1.38540006px;font-family:'Century Schoolbook L';text-anchor:start;fill:#ffffff;fill-opacity:1"
       id="text36"
       inkscape:export-filename="/home/tom/DEVELOP/QT4/nootka/picts/c1-trecle_8.png"
       inkscape:export-xdpi="327.32205"
       inkscape:export-ydpi="327.32205"
       transform="matrix(82.786354,0,0,82.786354,-1169.7091,-1078.1682)" />
  </g>
</svg>
