<?xml version="1.0" encoding="UTF-8" standalone="no"?>
<!-- Created with Inkscape (http://www.inkscape.org/) -->

<svg
   xmlns:dc="http://purl.org/dc/elements/1.1/"
   xmlns:cc="http://creativecommons.org/ns#"
   xmlns:rdf="http://www.w3.org/1999/02/22-rdf-syntax-ns#"
   xmlns:svg="http://www.w3.org/2000/svg"
   xmlns="http://www.w3.org/2000/svg"
   xmlns:xlink="http://www.w3.org/1999/xlink"
   xmlns:sodipodi="http://sodipodi.sourceforge.net/DTD/sodipodi-0.dtd"
   xmlns:inkscape="http://www.inkscape.org/namespaces/inkscape"
   width="135"
   height="135"
   id="svg2606"
   sodipodi:version="0.32"
   inkscape:version="0.92.4 5da689c313, 2019-01-14"
   version="1.0"
   sodipodi:docname="melody.svg"
   inkscape:output_extension="org.inkscape.output.svgz.inkscape"
   inkscape:export-filename="../../picts/melody.png"
   inkscape:export-xdpi="182.04445"
   inkscape:export-ydpi="182.04445">
  <defs
     id="defs2608">
    <linearGradient
       inkscape:collect="always"
       id="linearGradient3449">
      <stop
         style="stop-color:#000000;stop-opacity:1;"
         offset="0"
         id="stop3451" />
      <stop
         style="stop-color:#000000;stop-opacity:0;"
         offset="1"
         id="stop3453" />
    </linearGradient>
    <linearGradient
       id="linearGradient3295">
      <stop
         style="stop-color:#63e9ff;stop-opacity:1;"
         offset="0"
         id="stop3297" />
      <stop
         style="stop-color:#ffffff;stop-opacity:0;"
         offset="1"
         id="stop3299" />
    </linearGradient>
    <linearGradient
       inkscape:collect="always"
       id="linearGradient3260">
      <stop
         style="stop-color:#ffffff;stop-opacity:1;"
         offset="0"
         id="stop3262" />
      <stop
         style="stop-color:#ffffff;stop-opacity:0;"
         offset="1"
         id="stop3264" />
    </linearGradient>
    <linearGradient
       id="linearGradient3202">
      <stop
         style="stop-color:#cdeeff;stop-opacity:1;"
         offset="0"
         id="stop3204" />
      <stop
         style="stop-color:#d2e8ed;stop-opacity:0;"
         offset="1"
         id="stop3206" />
    </linearGradient>
    <radialGradient
       id="XMLID_4_"
       cx="48"
       cy="-0.2148"
       r="55.147999"
       gradientTransform="matrix(0.9792,0,0,0.9725,133.0002,20.8762)"
       gradientUnits="userSpaceOnUse">
      <stop
         offset="0"
         style="stop-color:#72D13D"
         id="stop3082" />
      <stop
         offset="0.3553"
         style="stop-color:#35AC1C"
         id="stop3084" />
      <stop
         offset="0.6194"
         style="stop-color:#0F9508"
         id="stop3086" />
      <stop
         offset="0.7574"
         style="stop-color:#008C00"
         id="stop3088" />
      <stop
         offset="1"
         style="stop-color:#007A00"
         id="stop3090" />
    </radialGradient>
    <radialGradient
       inkscape:collect="always"
       xlink:href="#XMLID_4_"
       id="radialGradient3629"
       gradientUnits="userSpaceOnUse"
       gradientTransform="matrix(1,0,0,1.1383929,0,-10.517857)"
       cx="172"
       cy="76"
       fx="172"
       fy="76"
       r="56" />
    <radialGradient
       inkscape:collect="always"
       xlink:href="#linearGradient6666"
       id="radialGradient3213"
       gradientUnits="userSpaceOnUse"
       gradientTransform="matrix(1,0,0,1.1383929,0,-10.517857)"
       cx="172"
       cy="76"
       fx="188.88173"
       fy="121.44213"
       r="56" />
    <linearGradient
       inkscape:collect="always"
       xlink:href="#linearGradient3260"
       id="linearGradient3301"
       x1="73.742638"
       y1="15.336544"
       x2="78.939339"
       y2="16.750759"
       gradientUnits="userSpaceOnUse"
       spreadMethod="reflect" />
    <linearGradient
       inkscape:collect="always"
       xlink:href="#linearGradient3295"
       id="linearGradient3393"
       gradientUnits="userSpaceOnUse"
       spreadMethod="reflect"
       x1="74.75"
       y1="14.275884"
       x2="78.939339"
       y2="16.750759" />
    <linearGradient
       inkscape:collect="always"
       xlink:href="#linearGradient6404"
       id="linearGradient3409"
       gradientUnits="userSpaceOnUse"
       x1="194.5"
       y1="123.90683"
       x2="104.25"
       y2="5.1559582"
       gradientTransform="matrix(-1,0,0,0.8610463,236,-1.4361867)" />
    <radialGradient
       inkscape:collect="always"
       xlink:href="#linearGradient3449"
       id="radialGradient3455"
       cx="72.020813"
       cy="66.344505"
       fx="72.020813"
       fy="66.344505"
       r="60"
       gradientTransform="matrix(-0.5816285,0.01767767,0.02698625,0.8878982,96.078154,5.9419094)"
       gradientUnits="userSpaceOnUse" />
    <linearGradient
       inkscape:collect="always"
       xlink:href="#linearGradient3202"
       id="linearGradient3521"
       gradientUnits="userSpaceOnUse"
       gradientTransform="matrix(1,0,0,0.8610463,-108.16138,-1.4361867)"
       spreadMethod="reflect"
       x1="223.32712"
       y1="53.784153"
       x2="226.659"
       y2="57.279232" />
    <linearGradient
       inkscape:collect="always"
       xlink:href="#linearGradient3295"
       id="linearGradient2226"
       gradientUnits="userSpaceOnUse"
       x1="179.17224"
       y1="123.75864"
       x2="173.98071"
       y2="65.448112" />
    <linearGradient
       inkscape:collect="always"
       xlink:href="#linearGradient3295"
       id="linearGradient2228"
       gradientUnits="userSpaceOnUse"
       x1="179.17224"
       y1="123.75864"
       x2="173.98071"
       y2="65.448112"
       gradientTransform="translate(97)" />
    <linearGradient
       inkscape:collect="always"
       xlink:href="#linearGradient3202"
       id="linearGradient3253"
       x1="47.968472"
       y1="16.138517"
       x2="49.218472"
       y2="85.427559"
       gradientUnits="userSpaceOnUse"
       gradientTransform="translate(-0.5)" />
    <linearGradient
       inkscape:collect="always"
       xlink:href="#linearGradient3260"
       id="linearGradient3504"
       gradientUnits="userSpaceOnUse"
       gradientTransform="translate(-0.2125256,-0.1385179)"
       x1="87.468468"
       y1="-0.36148256"
       x2="116.71847"
       y2="106.42756" />
    <linearGradient
       inkscape:collect="always"
       xlink:href="#linearGradient3260"
       id="linearGradient3526"
       gradientUnits="userSpaceOnUse"
       gradientTransform="translate(-0.2125256,-0.1385179)"
       x1="196.46846"
       y1="63.138515"
       x2="52.218468"
       y2="66.224457" />
    <linearGradient
       inkscape:collect="always"
       xlink:href="#linearGradient3260"
       id="linearGradient3530"
       gradientUnits="userSpaceOnUse"
       gradientTransform="matrix(1,0,0,0.8610463,-108.16138,-1.4361867)"
       spreadMethod="reflect"
       x1="223.32712"
       y1="53.784153"
       x2="226.659"
       y2="57.279232" />
    <radialGradient
       inkscape:collect="always"
       xlink:href="#linearGradient3449"
       id="radialGradient3534"
       gradientUnits="userSpaceOnUse"
       gradientTransform="matrix(-0.2586607,-0.5212474,-0.8274344,0.4106011,163.53945,50.055595)"
       cx="-16.668488"
       cy="86.826965"
       fx="-16.668488"
       fy="86.826965"
       r="60" />
    <radialGradient
       r="43.474762"
       fy="51.592991"
       fx="88.042809"
       cy="74.979416"
       cx="77.533371"
       spreadMethod="reflect"
       gradientTransform="matrix(-0.4961056,0.4409829,-0.7360594,-0.8280666,-11.726835,87.897058)"
       gradientUnits="userSpaceOnUse"
       id="radialGradient3139"
       xlink:href="#linearGradient2990"
       inkscape:collect="always" />
    <clipPath
       id="clipPath3135"
       clipPathUnits="userSpaceOnUse">
      <path
         style="fill:url(#radialGradient3139);fill-opacity:1;stroke:none;stroke-width:16.49500084;stroke-linecap:round;stroke-linejoin:round;stroke-miterlimit:4;stroke-dasharray:none;stroke-dashoffset:4.1500001;stroke-opacity:1"
         d="m -97.32181,27.94375 c -10.23931,10e-7 -20.46922,3.874426 -28.23381,11.639012 -8.00722,8.007231 -11.88924,18.639851 -11.63901,29.196647 v 28.042632 c 0,4.051739 3.2545,7.306239 7.30624,7.306239 h 65.133155 c 4.05174,0 7.30624,-3.2545 7.30624,-7.306239 V 68.779409 c 0.25023,-10.556797 -3.63178,-21.189416 -11.639006,-29.196647 -7.76458,-7.764591 -17.994496,-11.639013 -28.233809,-11.639012 z m 0,15.537264 c 6.339352,10e-7 12.688275,2.436886 17.557634,7.306242 4.811426,4.811424 7.248997,11.046126 7.306242,17.302765 h -49.699436 c 0.0572,-6.25664 2.46651,-12.491342 7.27793,-17.302765 4.86936,-4.869361 11.21828,-7.306243 17.55763,-7.306242 z"
         id="path3137"
         sodipodi:nodetypes="csccccccsccsccsc"
         inkscape:connector-curvature="0" />
    </clipPath>
    <radialGradient
       r="43.474762"
       fy="51.592991"
       fx="88.042809"
       cy="74.979416"
       cx="77.533371"
       spreadMethod="reflect"
       gradientTransform="matrix(-0.4961056,0.4409829,-0.7360594,-0.8280666,-99.14147,87.897058)"
       gradientUnits="userSpaceOnUse"
       id="radialGradient3133"
       xlink:href="#linearGradient2990"
       inkscape:collect="always" />
    <clipPath
       id="clipPath3129"
       clipPathUnits="userSpaceOnUse">
      <path
         sodipodi:nodetypes="csccccccsccsccsc"
         id="path3131"
         d="m -184.73645,27.94375 c -10.23931,10e-7 -20.46922,3.874426 -28.23381,11.639012 -8.00722,8.007231 -11.88924,18.639851 -11.63901,29.196647 v 28.042632 c 0,4.051739 3.2545,7.306239 7.30624,7.306239 h 65.13316 c 4.05174,0 7.30624,-3.2545 7.30624,-7.306239 V 68.779409 c 0.25023,-10.556797 -3.63178,-21.189416 -11.63901,-29.196647 -7.76458,-7.764591 -17.99449,-11.639013 -28.23381,-11.639012 z m 0,15.537264 c 6.33936,10e-7 12.68828,2.436886 17.55764,7.306242 4.81142,4.811424 7.249,11.046126 7.30624,17.302765 h -49.69944 c 0.0573,-6.25664 2.46651,-12.491342 7.27793,-17.302765 4.86936,-4.869361 11.21828,-7.306243 17.55763,-7.306242 z"
         style="fill:url(#radialGradient3133);fill-opacity:1;stroke:none;stroke-width:16.49500084;stroke-linecap:round;stroke-linejoin:round;stroke-miterlimit:4;stroke-dasharray:none;stroke-dashoffset:4.1500001;stroke-opacity:1"
         inkscape:connector-curvature="0" />
    </clipPath>
    <radialGradient
       r="43.474762"
       fy="51.592991"
       fx="73.551216"
       cy="74.979408"
       cx="63.041775"
       spreadMethod="reflect"
       gradientTransform="matrix(-1.1040885,0.8280667,-0.6647496,-0.8863327,191.44623,62.253906)"
       gradientUnits="userSpaceOnUse"
       id="radialGradient2409"
       xlink:href="#linearGradient2990"
       inkscape:collect="always" />
    <linearGradient
       y2="-20.962214"
       x2="60.402065"
       y1="64.076149"
       x1="60.402065"
       gradientUnits="userSpaceOnUse"
       id="linearGradient3289"
       xlink:href="#linearGradient6674"
       inkscape:collect="always" />
    <linearGradient
       gradientUnits="userSpaceOnUse"
       y2="8"
       x2="-60"
       y1="105.83054"
       x1="-60.945251"
       id="linearGradient3243"
       xlink:href="#linearGradient3237"
       inkscape:collect="always" />
    <linearGradient
       y2="21.03125"
       x2="31.376678"
       y1="71.084908"
       x1="115.76678"
       gradientTransform="translate(0.2332229,1.9150941)"
       gradientUnits="userSpaceOnUse"
       id="linearGradient3233"
       xlink:href="#linearGradient6446"
       inkscape:collect="always" />
    <linearGradient
       y2="46.228859"
       x2="59.225807"
       y1="7.8973217"
       x1="59.225807"
       gradientTransform="translate(0.2623629,1)"
       gradientUnits="userSpaceOnUse"
       id="linearGradient3231"
       xlink:href="#linearGradient6446"
       inkscape:collect="always" />
    <linearGradient
       y2="82.029854"
       x2="74.447762"
       y1="-26.936626"
       x1="64"
       gradientUnits="userSpaceOnUse"
       id="linearGradient2816"
       xlink:href="#linearGradient6446"
       inkscape:collect="always" />
    <linearGradient
       gradientUnits="userSpaceOnUse"
       y2="88.633484"
       x2="19.934336"
       y1="50.580647"
       x1="19.096775"
       id="linearGradient6680"
       xlink:href="#linearGradient6674"
       inkscape:collect="always" />
    <linearGradient
       gradientTransform="translate(0,3)"
       gradientUnits="userSpaceOnUse"
       y2="50.728985"
       x2="62.038712"
       y1="15.91371"
       x1="62.038712"
       id="linearGradient6649"
       xlink:href="#linearGradient6643"
       inkscape:collect="always" />
    <linearGradient
       gradientUnits="userSpaceOnUse"
       y2="74.913147"
       x2="55.329033"
       y1="112"
       x1="55.329033"
       id="linearGradient6637"
       xlink:href="#linearGradient6631"
       inkscape:collect="always" />
    <linearGradient
       y2="28.235947"
       x2="13.96104"
       y1="21.101994"
       x1="21.094994"
       spreadMethod="reflect"
       gradientTransform="translate(0.4129032,0.6193548)"
       gradientUnits="userSpaceOnUse"
       id="linearGradient6472"
       xlink:href="#linearGradient6446"
       inkscape:collect="always" />
    <linearGradient
       y2="28.235947"
       x2="13.96104"
       y1="21.101994"
       x1="21.094994"
       spreadMethod="reflect"
       gradientTransform="translate(0.4129032,0.6193548)"
       gradientUnits="userSpaceOnUse"
       id="linearGradient6470"
       xlink:href="#linearGradient6446"
       inkscape:collect="always" />
    <linearGradient
       y2="27.070099"
       x2="15.126888"
       y1="21.101994"
       x1="21.094994"
       spreadMethod="reflect"
       gradientTransform="translate(0.4129032,0.6193548)"
       gradientUnits="userSpaceOnUse"
       id="linearGradient6464"
       xlink:href="#linearGradient6446"
       inkscape:collect="always" />
    <linearGradient
       gradientTransform="translate(-7.5870968,-7.3806452)"
       spreadMethod="reflect"
       gradientUnits="userSpaceOnUse"
       y2="27.007854"
       x2="15.189133"
       y1="21.101994"
       x1="21.094994"
       id="linearGradient6452"
       xlink:href="#linearGradient6446"
       inkscape:collect="always" />
    <linearGradient
       gradientUnits="userSpaceOnUse"
       y2="-24"
       x2="24"
       y1="88"
       x1="32"
       id="linearGradient6410"
       xlink:href="#linearGradient6404"
       inkscape:collect="always" />
    <radialGradient
       r="42.559486"
       fy="103.5803"
       fx="42.700352"
       cy="103.5803"
       cx="42.700352"
       spreadMethod="pad"
       gradientTransform="matrix(1.3965253,0.00698315,-0.0077815,1.5561835,-122.82611,-69.698616)"
       gradientUnits="userSpaceOnUse"
       id="radialGradient9692"
       xlink:href="#linearGradient6666"
       inkscape:collect="always" />
    <linearGradient
       id="linearGradient6404">
      <stop
         id="stop6406"
         offset="0"
         style="stop-color:#081e3e;stop-opacity:1;" />
      <stop
         id="stop6408"
         offset="1"
         style="stop-color:#387de4;stop-opacity:1;" />
    </linearGradient>
    <linearGradient
       id="linearGradient6446">
      <stop
         id="stop6448"
         offset="0"
         style="stop-color:#ffffff;stop-opacity:1;" />
      <stop
         id="stop6450"
         offset="1"
         style="stop-color:#ffffff;stop-opacity:0;" />
    </linearGradient>
    <linearGradient
       id="linearGradient6631">
      <stop
         id="stop6633"
         offset="0"
         style="stop-color:#703700;stop-opacity:1;" />
      <stop
         id="stop6635"
         offset="1"
         style="stop-color:#bf5e00;stop-opacity:0;" />
    </linearGradient>
    <linearGradient
       id="linearGradient6643">
      <stop
         id="stop6645"
         offset="0"
         style="stop-color:#fffddc;stop-opacity:1;" />
      <stop
         id="stop6647"
         offset="1"
         style="stop-color:#ffdfbf;stop-opacity:0;" />
    </linearGradient>
    <linearGradient
       id="linearGradient6666">
      <stop
         style="stop-color:#9fc1f2;stop-opacity:1;"
         offset="0"
         id="stop6668" />
      <stop
         id="stop3183"
         offset="0.5"
         style="stop-color:#587eb5;stop-opacity:1;" />
      <stop
         style="stop-color:#0c2a58;stop-opacity:1;"
         offset="1"
         id="stop6670" />
    </linearGradient>
    <linearGradient
       id="linearGradient6674">
      <stop
         id="stop6676"
         offset="0"
         style="stop-color:#001648;stop-opacity:1;" />
      <stop
         id="stop6678"
         offset="1"
         style="stop-color:#11a9ff;stop-opacity:0;" />
    </linearGradient>
    <linearGradient
       id="linearGradient3237">
      <stop
         id="stop3239"
         offset="0"
         style="stop-color:#d5e6ff;stop-opacity:1;" />
      <stop
         id="stop3241"
         offset="1"
         style="stop-color:#ffffff;stop-opacity:0;" />
    </linearGradient>
    <linearGradient
       id="linearGradient2990">
      <stop
         id="stop2992"
         offset="0"
         style="stop-color:#d7d7d7;stop-opacity:1;" />
      <stop
         id="stop2994"
         offset="1"
         style="stop-color:#ffffff;stop-opacity:1;" />
    </linearGradient>
    <linearGradient
       inkscape:collect="always"
       xlink:href="#linearGradient6404"
       id="linearGradient3219"
       gradientUnits="userSpaceOnUse"
       gradientTransform="matrix(-1,0,0,0.8610463,375,-1.4361867)"
       x1="194.5"
       y1="123.90683"
       x2="104.25"
       y2="5.1559582" />
    <radialGradient
       inkscape:collect="always"
       xlink:href="#linearGradient3449"
       id="radialGradient3221"
       gradientUnits="userSpaceOnUse"
       gradientTransform="matrix(-0.2586607,-0.5212474,-0.8274344,0.4106011,302.53945,50.055595)"
       cx="-16.668488"
       cy="86.826965"
       fx="-16.668488"
       fy="86.826965"
       r="60" />
    <linearGradient
       inkscape:collect="always"
       xlink:href="#linearGradient3260"
       id="linearGradient3223"
       gradientUnits="userSpaceOnUse"
       spreadMethod="reflect"
       x1="73.742638"
       y1="15.336544"
       x2="78.939339"
       y2="16.750759" />
    <linearGradient
       inkscape:collect="always"
       xlink:href="#linearGradient3202"
       id="linearGradient3225"
       gradientUnits="userSpaceOnUse"
       gradientTransform="matrix(1,0,0,0.8610463,-108.16138,-1.4361867)"
       spreadMethod="reflect"
       x1="223.32712"
       y1="53.784153"
       x2="226.659"
       y2="57.279232" />
    <radialGradient
       inkscape:collect="always"
       xlink:href="#linearGradient3449"
       id="radialGradient3227"
       gradientUnits="userSpaceOnUse"
       gradientTransform="matrix(-0.5816285,0.01767767,0.02698625,0.8878982,235.07816,5.9419094)"
       cx="72.020813"
       cy="66.344505"
       fx="72.020813"
       fy="66.344505"
       r="60" />
    <linearGradient
       inkscape:collect="always"
       xlink:href="#linearGradient3295"
       id="linearGradient3229"
       gradientUnits="userSpaceOnUse"
       spreadMethod="reflect"
       x1="74.75"
       y1="14.275884"
       x2="78.939339"
       y2="16.750759" />
    <linearGradient
       inkscape:collect="always"
       xlink:href="#linearGradient3260"
       id="linearGradient3232"
       gradientUnits="userSpaceOnUse"
       gradientTransform="matrix(1,0,0,0.8610463,-108.16138,-1.4361867)"
       spreadMethod="reflect"
       x1="223.32712"
       y1="53.784153"
       x2="226.659"
       y2="57.279232" />
    <radialGradient
       inkscape:collect="always"
       xlink:href="#linearGradient6666"
       id="radialGradient3234"
       gradientUnits="userSpaceOnUse"
       gradientTransform="matrix(1,0,0,1.1383929,0,-10.517857)"
       cx="172"
       cy="76"
       fx="188.88173"
       fy="121.44213"
       r="56" />
    <radialGradient
       inkscape:collect="always"
       xlink:href="#XMLID_4_"
       id="radialGradient3236"
       gradientUnits="userSpaceOnUse"
       gradientTransform="matrix(1,0,0,1.1383929,0,-10.517857)"
       cx="172"
       cy="76"
       fx="172"
       fy="76"
       r="56" />
    <linearGradient
       inkscape:collect="always"
       xlink:href="#linearGradient3295"
       id="linearGradient3238"
       gradientUnits="userSpaceOnUse"
       gradientTransform="translate(97)"
       x1="179.17224"
       y1="123.75864"
       x2="173.98071"
       y2="65.448112" />
    <linearGradient
       inkscape:collect="always"
       xlink:href="#linearGradient3295"
       id="linearGradient3240"
       gradientUnits="userSpaceOnUse"
       x1="179.17224"
       y1="123.75864"
       x2="173.98071"
       y2="65.448112" />
    <linearGradient
       inkscape:collect="always"
       xlink:href="#linearGradient3202"
       id="linearGradient3242"
       gradientUnits="userSpaceOnUse"
       gradientTransform="translate(138.5)"
       x1="47.968472"
       y1="16.138517"
       x2="49.218472"
       y2="85.427559" />
    <linearGradient
       inkscape:collect="always"
       xlink:href="#linearGradient3260"
       id="linearGradient3244"
       gradientUnits="userSpaceOnUse"
       gradientTransform="translate(138.78748,-0.1385179)"
       x1="87.468468"
       y1="-0.36148256"
       x2="116.71847"
       y2="106.42756" />
    <linearGradient
       inkscape:collect="always"
       xlink:href="#linearGradient3260"
       id="linearGradient3246"
       gradientUnits="userSpaceOnUse"
       gradientTransform="translate(138.78748,-0.1385179)"
       x1="196.46846"
       y1="63.138515"
       x2="52.218468"
       y2="66.224457" />
    <linearGradient
       inkscape:collect="always"
       xlink:href="#linearGradient6404"
       id="linearGradient3453"
       gradientUnits="userSpaceOnUse"
       gradientTransform="matrix(-1.3896695,0,0,1.420412,331.72315,-43.553736)"
       x1="194.5"
       y1="123.90683"
       x2="104.25"
       y2="5.1559582" />
    <radialGradient
       inkscape:collect="always"
       xlink:href="#linearGradient3449"
       id="radialGradient3456"
       gradientUnits="userSpaceOnUse"
       gradientTransform="matrix(-0.35945287,-0.85986788,-1.1498603,0.67734186,231.02693,41.388899)"
       cx="-16.668488"
       cy="86.826965"
       fx="-16.668488"
       fy="86.826965"
       r="60" />
    <linearGradient
       inkscape:collect="always"
       xlink:href="#linearGradient3260"
       id="linearGradient3458"
       gradientUnits="userSpaceOnUse"
       spreadMethod="reflect"
       x1="73.742638"
       y1="15.336544"
       x2="78.939339"
       y2="16.750759"
       gradientTransform="matrix(1.3896695,0,0,1.6496349,-52.080169,-41.184553)" />
    <linearGradient
       inkscape:collect="always"
       xlink:href="#linearGradient3202"
       id="linearGradient3460"
       gradientUnits="userSpaceOnUse"
       gradientTransform="matrix(1.3896695,0,0,1.420412,-203.94741,-44.419091)"
       spreadMethod="reflect"
       x1="223.32712"
       y1="53.784153"
       x2="226.659"
       y2="57.279232" />
    <radialGradient
       inkscape:collect="always"
       xlink:href="#linearGradient3449"
       id="radialGradient3462"
       gradientUnits="userSpaceOnUse"
       gradientTransform="matrix(-0.80827136,0.0291617,0.03750197,1.4647077,137.27803,-31.382572)"
       cx="72.020813"
       cy="66.344505"
       fx="72.020813"
       fy="66.344505"
       r="60" />
    <linearGradient
       inkscape:collect="always"
       xlink:href="#linearGradient3295"
       id="linearGradient3464"
       gradientUnits="userSpaceOnUse"
       spreadMethod="reflect"
       x1="74.75"
       y1="14.275884"
       x2="78.939339"
       y2="16.750759"
       gradientTransform="matrix(1.3896695,0,0,1.6496349,-56.31254,-42.478114)" />
    <linearGradient
       inkscape:collect="always"
       xlink:href="#linearGradient3260"
       id="linearGradient3466"
       gradientUnits="userSpaceOnUse"
       gradientTransform="matrix(1.6494254,-0.0073754,-0.00635056,1.1967501,-240.42411,-9.3643936)"
       spreadMethod="reflect"
       x1="223.32712"
       y1="53.784153"
       x2="226.659"
       y2="57.279232" />
    <radialGradient
       inkscape:collect="always"
       xlink:href="#linearGradient6666"
       id="radialGradient3468"
       gradientUnits="userSpaceOnUse"
       gradientTransform="matrix(1.3896695,0,0,1.8779325,-95.723148,-66.267494)"
       cx="172"
       cy="76"
       fx="188.88173"
       fy="121.44213"
       r="56" />
    <radialGradient
       inkscape:collect="always"
       xlink:href="#XMLID_4_"
       id="radialGradient3470"
       gradientUnits="userSpaceOnUse"
       gradientTransform="matrix(1.3896695,0,0,1.8779325,-95.723148,-66.267494)"
       cx="172"
       cy="76"
       fx="172"
       fy="76"
       r="56" />
    <linearGradient
       inkscape:collect="always"
       xlink:href="#linearGradient3295"
       id="linearGradient3472"
       gradientUnits="userSpaceOnUse"
       gradientTransform="matrix(1.3896695,0,0,1.6496349,1.1198035,-48.916873)"
       x1="179.17224"
       y1="123.75864"
       x2="173.98071"
       y2="65.448112" />
    <linearGradient
       inkscape:collect="always"
       xlink:href="#linearGradient3295"
       id="linearGradient3474"
       gradientUnits="userSpaceOnUse"
       x1="179.17224"
       y1="123.75864"
       x2="173.98071"
       y2="65.448112"
       gradientTransform="matrix(1.3896695,0,0,1.6496349,-133.67813,-48.916873)" />
    <linearGradient
       inkscape:collect="always"
       xlink:href="#linearGradient3202"
       id="linearGradient3476"
       gradientUnits="userSpaceOnUse"
       gradientTransform="matrix(1.3896695,0,0,1.6496349,3.0663225,-41.184553)"
       x1="47.968472"
       y1="16.138517"
       x2="49.218472"
       y2="85.427559" />
    <linearGradient
       inkscape:collect="always"
       xlink:href="#linearGradient3260"
       id="linearGradient3478"
       gradientUnits="userSpaceOnUse"
       gradientTransform="matrix(1.3896695,0,0,1.6496349,3.4658169,-41.413057)"
       x1="87.468468"
       y1="-0.36148256"
       x2="116.71847"
       y2="106.42756" />
    <linearGradient
       inkscape:collect="always"
       xlink:href="#linearGradient3260"
       id="linearGradient3480"
       gradientUnits="userSpaceOnUse"
       gradientTransform="matrix(1.3896695,0,0,1.6496349,3.4658169,-41.413057)"
       x1="196.46846"
       y1="63.138515"
       x2="52.218468"
       y2="66.224457" />
    <linearGradient
       id="linearGradient6404-2">
      <stop
         id="stop6406-7"
         offset="0"
         style="stop-color:#081e3e;stop-opacity:1;" />
      <stop
         id="stop6408-2"
         offset="1"
         style="stop-color:#387de4;stop-opacity:1;" />
    </linearGradient>
    <linearGradient
       inkscape:collect="always"
       id="linearGradient3260-1">
      <stop
         style="stop-color:#ffffff;stop-opacity:1;"
         offset="0"
         id="stop3262-5" />
      <stop
         style="stop-color:#ffffff;stop-opacity:0;"
         offset="1"
         id="stop3264-9" />
    </linearGradient>
    <linearGradient
       id="linearGradient3202-9">
      <stop
         style="stop-color:#cdeeff;stop-opacity:1;"
         offset="0"
         id="stop3204-1" />
      <stop
         style="stop-color:#d2e8ed;stop-opacity:0;"
         offset="1"
         id="stop3206-7" />
    </linearGradient>
    <linearGradient
       id="linearGradient3295-9">
      <stop
         style="stop-color:#63e9ff;stop-opacity:1;"
         offset="0"
         id="stop3297-7" />
      <stop
         style="stop-color:#ffffff;stop-opacity:0;"
         offset="1"
         id="stop3299-7" />
    </linearGradient>
    <radialGradient
       id="XMLID_4_-3"
       cx="48"
       cy="-0.2148"
       r="55.147999"
       gradientTransform="matrix(0.9792,0,0,0.9725,133.0002,20.8762)"
       gradientUnits="userSpaceOnUse">
      <stop
         offset="0"
         style="stop-color:#72D13D"
         id="stop3082-6" />
      <stop
         offset="0.3553"
         style="stop-color:#35AC1C"
         id="stop3084-5" />
      <stop
         offset="0.6194"
         style="stop-color:#0F9508"
         id="stop3086-6" />
      <stop
         offset="0.7574"
         style="stop-color:#008C00"
         id="stop3088-3" />
      <stop
         offset="1"
         style="stop-color:#007A00"
         id="stop3090-9" />
    </radialGradient>
    <linearGradient
       id="linearGradient6666-8">
      <stop
         style="stop-color:#9fc1f2;stop-opacity:1;"
         offset="0"
         id="stop6668-1" />
      <stop
         id="stop3183-2"
         offset="0.5"
         style="stop-color:#587eb5;stop-opacity:1;" />
      <stop
         style="stop-color:#0c2a58;stop-opacity:1;"
         offset="1"
         id="stop6670-9" />
    </linearGradient>
    <linearGradient
       inkscape:collect="always"
       xlink:href="#linearGradient3295-9"
       id="linearGradient3474-3"
       gradientUnits="userSpaceOnUse"
       x1="179.17224"
       y1="123.75864"
       x2="173.98071"
       y2="65.448112"
       gradientTransform="matrix(1.3896695,0,0,1.6496349,-133.67813,-48.916873)" />
    <linearGradient
       id="linearGradient3186">
      <stop
         style="stop-color:#63e9ff;stop-opacity:1;"
         offset="0"
         id="stop3188" />
      <stop
         style="stop-color:#ffffff;stop-opacity:0;"
         offset="1"
         id="stop3190" />
    </linearGradient>
    <linearGradient
       inkscape:collect="always"
       xlink:href="#linearGradient3295-9"
       id="linearGradient3472-8"
       gradientUnits="userSpaceOnUse"
       gradientTransform="matrix(1.3896695,0,0,1.6496349,1.1198035,-48.916873)"
       x1="179.17224"
       y1="123.75864"
       x2="173.98071"
       y2="65.448112" />
    <linearGradient
       id="linearGradient3195">
      <stop
         style="stop-color:#63e9ff;stop-opacity:1;"
         offset="0"
         id="stop3197" />
      <stop
         style="stop-color:#ffffff;stop-opacity:0;"
         offset="1"
         id="stop3199" />
    </linearGradient>
    <linearGradient
       id="linearGradient3203">
      <stop
         style="stop-color:#cdeeff;stop-opacity:1;"
         offset="0"
         id="stop3205" />
      <stop
         style="stop-color:#d2e8ed;stop-opacity:0;"
         offset="1"
         id="stop3207" />
    </linearGradient>
    <linearGradient
       inkscape:collect="always"
       xlink:href="#linearGradient3260-1"
       id="linearGradient3480-0"
       gradientUnits="userSpaceOnUse"
       gradientTransform="matrix(1.3896695,0,0,1.6496349,3.4658169,-41.413057)"
       x1="196.46846"
       y1="63.138515"
       x2="52.218468"
       y2="66.224457" />
    <linearGradient
       id="linearGradient3295-9-6">
      <stop
         style="stop-color:#63e9ff;stop-opacity:1;"
         offset="0"
         id="stop3297-7-7" />
      <stop
         style="stop-color:#ffffff;stop-opacity:0;"
         offset="1"
         id="stop3299-7-3" />
    </linearGradient>
    <linearGradient
       id="linearGradient3223-5">
      <stop
         style="stop-color:#63e9ff;stop-opacity:1;"
         offset="0"
         id="stop3225" />
      <stop
         style="stop-color:#ffffff;stop-opacity:0;"
         offset="1"
         id="stop3227" />
    </linearGradient>
    <linearGradient
       id="linearGradient6404-3">
      <stop
         id="stop6406-5"
         offset="0"
         style="stop-color:#081e3e;stop-opacity:1;" />
      <stop
         id="stop6408-23"
         offset="1"
         style="stop-color:#387de4;stop-opacity:1;" />
    </linearGradient>
    <linearGradient
       id="linearGradient3202-1">
      <stop
         style="stop-color:#cdeeff;stop-opacity:1;"
         offset="0"
         id="stop3204-2" />
      <stop
         style="stop-color:#d2e8ed;stop-opacity:0;"
         offset="1"
         id="stop3206-4" />
    </linearGradient>
    <linearGradient
       id="linearGradient3295-2">
      <stop
         style="stop-color:#63e9ff;stop-opacity:1;"
         offset="0"
         id="stop3297-4" />
      <stop
         style="stop-color:#ffffff;stop-opacity:0;"
         offset="1"
         id="stop3299-4" />
    </linearGradient>
    <radialGradient
       id="XMLID_4_-1"
       cx="48"
       cy="-0.2148"
       r="55.147999"
       gradientTransform="matrix(0.9792,0,0,0.9725,133.0002,20.8762)"
       gradientUnits="userSpaceOnUse">
      <stop
         offset="0"
         style="stop-color:#72D13D"
         id="stop3082-3" />
      <stop
         offset="0.3553"
         style="stop-color:#35AC1C"
         id="stop3084-6" />
      <stop
         offset="0.6194"
         style="stop-color:#0F9508"
         id="stop3086-1" />
      <stop
         offset="0.7574"
         style="stop-color:#008C00"
         id="stop3088-4" />
      <stop
         offset="1"
         style="stop-color:#007A00"
         id="stop3090-4" />
    </radialGradient>
    <linearGradient
       id="linearGradient6666-1">
      <stop
         style="stop-color:#9fc1f2;stop-opacity:1;"
         offset="0"
         id="stop6668-8" />
      <stop
         id="stop3183-8"
         offset="0.5"
         style="stop-color:#587eb5;stop-opacity:1;" />
      <stop
         style="stop-color:#0c2a58;stop-opacity:1;"
         offset="1"
         id="stop6670-93" />
    </linearGradient>
    <linearGradient
       id="linearGradient3288">
      <stop
         style="stop-color:#63e9ff;stop-opacity:1;"
         offset="0"
         id="stop3290" />
      <stop
         style="stop-color:#ffffff;stop-opacity:0;"
         offset="1"
         id="stop3292" />
    </linearGradient>
    <linearGradient
       id="linearGradient3297">
      <stop
         style="stop-color:#63e9ff;stop-opacity:1;"
         offset="0"
         id="stop3300" />
      <stop
         style="stop-color:#ffffff;stop-opacity:0;"
         offset="1"
         id="stop3302" />
    </linearGradient>
    <linearGradient
       id="linearGradient3305">
      <stop
         style="stop-color:#cdeeff;stop-opacity:1;"
         offset="0"
         id="stop3307" />
      <stop
         style="stop-color:#d2e8ed;stop-opacity:0;"
         offset="1"
         id="stop3309" />
    </linearGradient>
    <filter
       inkscape:collect="always"
       style="color-interpolation-filters:sRGB"
       id="filter1191"
       x="-0.036369322"
       width="1.0727386"
       y="-0.035638103"
       height="1.0712762">
      <feGaussianBlur
         inkscape:collect="always"
         stdDeviation="1.8524779"
         id="feGaussianBlur1193" />
    </filter>
    <filter
       inkscape:collect="always"
       style="color-interpolation-filters:sRGB"
       id="filter1227"
       x="-0.036099711"
       width="1.0721994"
       y="-0.035900839"
       height="1.0718017">
      <feGaussianBlur
         inkscape:collect="always"
         stdDeviation="1.8302063"
         id="feGaussianBlur1229" />
    </filter>
  </defs>
  <sodipodi:namedview
     id="base"
     pagecolor="#ffffff"
     bordercolor="#666666"
     borderopacity="1.0"
     inkscape:pageopacity="0.0"
     inkscape:pageshadow="2"
     inkscape:zoom="3.9999998"
     inkscape:cx="115.67783"
     inkscape:cy="22.770688"
     inkscape:document-units="px"
     inkscape:current-layer="layer1"
     width="128px"
     height="128px"
     showgrid="false"
     inkscape:grid-points="true"
     showguides="true"
     inkscape:guide-bbox="true"
     inkscape:window-width="1600"
     inkscape:window-height="1163"
     inkscape:window-x="0"
     inkscape:window-y="0"
     inkscape:window-maximized="1"
     fit-margin-top="0"
     fit-margin-left="0"
     fit-margin-right="0"
     fit-margin-bottom="0"
     objecttolerance="1"
     guidetolerance="1">
    <inkscape:grid
       type="xygrid"
       id="grid2576"
       spacingx="4"
       spacingy="4"
       empspacing="2"
       originx="-24.736328"
       originy="177.26542" />
    <inkscape:grid
       id="GridFromPre046Settings"
       type="xygrid"
       originx="-24.736328"
       originy="177.26542"
       spacingx="4"
       spacingy="4"
       color="#0000ff"
       empcolor="#0000ff"
       opacity="0.2"
       empopacity="0.4"
       empspacing="2" />
  </sodipodi:namedview>
  <metadata
     id="metadata2611">
    <rdf:RDF>
      <cc:Work
         rdf:about="">
        <dc:format>image/svg+xml</dc:format>
        <dc:type
           rdf:resource="http://purl.org/dc/dcmitype/StillImage" />
        <dc:title />
      </cc:Work>
    </rdf:RDF>
  </metadata>
  <g
     inkscape:label="Livello 1"
     inkscape:groupmode="layer"
     id="layer1"
     transform="translate(-24.736328,-170.26542)">
    <path
       style="opacity:0.79299999;fill:#1a1a1a;fill-opacity:1;stroke:none;stroke-width:0.00881799;filter:url(#filter1227)"
       d="m 60.654963,177.34003 -0.135137,11.80714 c -0.0097,0.0428 -0.03238,0.0883 -0.03238,0.12887 v 76.29832 c -2.068143,-0.33556 -4.933994,0.48293 -7.889936,2.04741 -4.137338,2.18977 -8.17238,5.63104 -11.805163,9.38037 -4.742805,4.94571 -10.394387,12.19859 -10.394387,18.46124 0,5.39287 5.34877,5.08553 10.99978,2.09462 4.137338,-2.18977 8.172379,-5.63103 11.805163,-9.38037 4.742805,-4.9457 10.394387,-12.19857 10.394387,-18.46125 0,-0.0278 -0.0055,-0.0505 -0.0055,-0.078 6.64e-4,-0.0106 0.0092,-0.0223 0.0092,-0.0327 v -77.36197 l 50.14854,22.07373 v 44.87213 c -2.07508,-0.38039 -4.98606,0.43712 -7.99083,2.02745 -4.13735,2.18977 -8.174188,5.63103 -11.806971,9.38037 -4.742805,4.94571 -10.392588,12.19856 -10.392588,18.46125 0,5.39286 5.348779,5.08551 10.99978,2.0946 4.137347,-2.18976 8.172379,-5.63102 11.805169,-9.38035 4.7083,-4.90975 10.30592,-12.09205 10.38717,-18.32331 0.0657,-0.0651 0.11172,-0.12919 0.11172,-0.18877 v -31.46205 l 32.09832,13.24061 v 9.15099 c -0.33927,-0.0552 -0.69268,-0.091 -1.07205,-0.0853 -1.93391,0.0288 -4.34737,0.8242 -6.81968,2.13272 -4.13735,2.18977 -8.17418,5.62921 -11.80698,9.37856 -4.7428,4.94571 -10.39438,12.20037 -10.39438,18.46306 0,5.39286 5.34878,5.0837 10.99978,2.0928 4.13735,-2.18978 8.17418,-5.63103 11.80697,-9.38037 4.55125,-4.74597 9.92513,-11.61395 10.35294,-17.69528 0.0206,-0.0219 0.0468,-0.0449 0.0468,-0.0653 v -30.41973 c 0,-0.0369 -0.0425,-0.0638 -0.10631,-0.0853 l -0.0468,-8.55995 z m 56.207877,38.59646 31.57671,12.97779 0.0768,5.47779 -31.65341,-13.10992 z"
       id="path26-5-7"
       inkscape:connector-curvature="0"
       sodipodi:nodetypes="ccscccsscscscccscscccsccccccscccsscccccccc" />
    <g
       transform="matrix(4.1006069,0,0,4.4918906,-2605.5439,-1509.9642)"
       style="font-style:normal;font-variant:normal;font-weight:500;font-stretch:normal;font-size:18.00580597px;line-height:125%;font-family:feta14;-inkscape-font-specification:'feta14 Medium';letter-spacing:0px;word-spacing:0px;fill:#ffff00;fill-opacity:1;stroke:none;stroke-width:1.38413346"
       id="text3606-8" />
    <g
       transform="matrix(4.1143643,0,0,9.1905686,-2746.2501,-3157.6083)"
       style="font-style:normal;font-variant:normal;font-weight:500;font-stretch:normal;font-size:18.00580597px;line-height:125%;font-family:feta14;-inkscape-font-specification:'feta14 Medium';letter-spacing:0px;word-spacing:0px;fill:#aa0000;fill-opacity:1;stroke:none;stroke-width:0.96603775"
       id="text3606-8-7" />
    <g
       id="g1166"
       transform="translate(0.70710682,-144.24979)">
      <path
         sodipodi:nodetypes="sccccsccs"
         inkscape:connector-curvature="0"
         id="path2488-36-7"
         d="m 47.702547,192.48253 c -3.341078,0.1275 -6.705794,1.75308 -6.705794,3.82998 0.02272,28.33629 0.08839,49.41167 0,75.30765 0,4.52498 6.032433,4.2357 10.232228,2.19355 l 75.289039,-38.02114 c 0.9968,-0.54755 1.57302,-1.35876 1.57302,-2.21428 0,-0.85552 -0.57622,-1.66674 -1.57302,-2.21429 L 51.925948,193.33509 c -1.191305,-0.65961 -2.704728,-0.9105 -4.223401,-0.85256 z"
         style="fill:#00ff00;fill-opacity:1;fill-rule:evenodd;stroke:none;stroke-width:30.00000191;stroke-linecap:round;stroke-miterlimit:4;stroke-dasharray:none;stroke-opacity:1;paint-order:stroke markers fill" />
      <g
         transform="translate(6)"
         id="g1206">
        <a
           id="a18"
           xlink:href="textedit:///home/tom/Nuty/LilyPond/icon.ly:28:9:10"
           style="fill:#000000;stroke:none;stroke-width:0.18684907"
           transform="matrix(12.754786,-6.7011825,0,10.913506,-266.15216,341.53383)">
          <path
             id="path20"
             d="m 220,138 c 56,0 109,-29 109,-91 0,-72 -56,-121 -103,-149 -36,-21 -76,-36 -117,-36 -56,0 -109,29 -109,91 0,72 56,121 103,149 36,21 76,36 117,36 z"
             transform="matrix(0.004,0,0,-0.004,26.0925,6.1213)"
             inkscape:connector-curvature="0"
             style="fill:#000000;stroke:none;stroke-width:0.18684907" />
        </a>
        <path
           style="fill:#000000;stroke:none;stroke-width:2.20449758"
           d="M 66.964727,236.16536 67.355505,235.96 c 0.173195,-0.0912 0.312624,-0.0448 0.312624,0.10332 v 20.34416 c 0,0.14816 -0.139423,0.34059 -0.312624,0.43174 l -0.390778,0.20535 c -0.173195,0.0908 -0.312625,0.0448 -0.312625,-0.10332 v -20.34416 c 0,-0.14816 0.139424,-0.34061 0.312625,-0.43174 z"
           id="rect22"
           inkscape:connector-curvature="0" />
        <a
           id="a24"
           xlink:href="textedit:///home/tom/Nuty/LilyPond/icon.ly:28:12:13"
           style="fill:#000000;stroke:none;stroke-width:0.21654466"
           transform="matrix(11.005675,-5.7822241,0,9.4168958,-228.54039,332.86065)">
          <path
             id="path26"
             d="m 220,138 c 56,0 109,-29 109,-91 0,-72 -56,-121 -103,-149 -36,-21 -76,-36 -117,-36 -56,0 -109,29 -109,91 0,72 56,121 103,149 36,21 76,36 117,36 z"
             transform="matrix(0.004,0,0,-0.004,28.6087,5.6213)"
             inkscape:connector-curvature="0"
             style="fill:#000000;stroke:none;stroke-width:0.21654466" />
        </a>
        <path
           style="fill:#000000;stroke:none;stroke-width:2.20449758"
           d="m 86.630272,222.48972 0.390772,-0.20537 c 0.173226,-0.0912 0.312618,-0.0448 0.312618,0.10333 v 23.68781 c 0,0.14816 -0.139517,0.3406 -0.312618,0.43173 l -0.390772,0.20536 c -0.173226,0.0912 -0.312618,0.0448 -0.312618,-0.10332 v -23.6878 c 0,-0.14816 0.139517,-0.3406 0.312618,-0.43174 z"
           id="rect28"
           inkscape:connector-curvature="0" />
        <path
           style="fill:#000000;stroke:none;stroke-width:2.20449758"
           d="m 47.299955,258.14778 v -5.09915 l 20.056331,-9.79244 v 5.09909 z"
           id="polygon30"
           inkscape:connector-curvature="0" />
        <path
           style="fill:#000000;stroke:none;stroke-width:2.20449758"
           d="m 46.990592,267.51938 v -4.4991 l 40.296392,-21.05543 v 4.4991 z"
           id="polygon32"
           inkscape:connector-curvature="0" />
        <a
           id="a42"
           xlink:href="textedit:///home/tom/Nuty/LilyPond/icon.ly:28:2:3"
           style="fill:#000000;stroke:none;stroke-width:0.17892604"
           transform="matrix(13.319582,-6.9979181,0,11.396768,-267.04047,327.96574)">
          <path
             id="path44"
             d="m 220,138 c 56,0 109,-29 109,-91 0,-72 -56,-121 -103,-149 -36,-21 -76,-36 -117,-36 -56,0 -109,29 -109,91 0,72 56,121 103,149 36,21 76,36 117,36 z"
             transform="matrix(0.004,0,0,-0.004,23.5764,5.6213)"
             inkscape:connector-curvature="0"
             style="fill:#000000;stroke:none;stroke-width:0.17892604" />
        </a>
        <path
           style="fill:#000000;stroke:none;stroke-width:2.20449758"
           d="m 47.299955,229.69349 0.390779,-0.32777 c 0.173194,-0.14551 0.312624,-0.0765 0.312624,0.15377 v 36.8214 c 0,0.23032 -0.139423,0.5325 -0.312624,0.67796 l -0.390779,0.32775 c -0.173194,0.14551 -0.312624,0.0765 -0.312624,-0.15378 v -36.82139 c 0,-0.2303 0.139423,-0.53249 0.312624,-0.67794 z"
           id="rect56"
           inkscape:connector-curvature="0" />
      </g>
      <path
         sodipodi:nodetypes="cccccsccccccsccccc"
         inkscape:connector-curvature="0"
         id="path2488-36-6"
         d="m 41.781698,176.78679 c -5.036468,0.19219 -10.108554,2.64263 -10.108554,5.77343 0.364413,63.58812 0,68.5202 0,113.52149 0,6.82113 9.093501,6.38505 15.424438,3.30664 L 151.54635,242.0739 c 1.50262,-0.82539 2.37122,-2.04825 2.37122,-3.3379 0,-1.28964 -0.8686,-2.5125 -2.37122,-3.33789 L 48.148202,178.07194 c -1.79582,-0.99431 -4.077202,-1.3725 -6.366504,-1.28515 z m 9.646282,20.99218 c 1.518679,-0.0579 3.0321,0.19391 4.223408,0.85352 l 74.591652,38.0293 c 0.99681,0.54755 1.57384,1.35737 1.57384,2.21289 0,0.85552 -0.57703,1.66729 -1.57384,2.21484 L 54.954463,279.111 c -4.1998,2.04215 -10.232033,2.33163 -10.232033,-2.19336 0.228191,-26.36424 0,-49.40211 0,-75.30859 0,-2.0769 3.364471,-3.70258 6.70555,-3.83008 z"
         style="opacity:0.80800003;fill:#1a1a1a;fill-opacity:1;fill-rule:evenodd;stroke:none;stroke-width:30.00000191;stroke-linecap:round;stroke-miterlimit:4;stroke-dasharray:none;stroke-opacity:1;paint-order:stroke markers fill;filter:url(#filter1191)" />
      <path
         sodipodi:nodetypes="cccccsccccccsccccc"
         inkscape:connector-curvature="0"
         id="path2488-36"
         d="m 38.056021,171.49048 c -5.036468,0.19219 -10.108554,2.64263 -10.108554,5.77343 0.364413,63.58812 0,68.5202 0,113.52149 0,6.82113 9.093501,6.38505 15.424438,3.30664 L 147.82068,236.77759 c 1.50262,-0.82539 2.37122,-2.04825 2.37122,-3.3379 0,-1.28964 -0.8686,-2.5125 -2.37122,-3.33789 L 44.422525,172.77563 c -1.79582,-0.99431 -4.077202,-1.3725 -6.366504,-1.28515 z m 9.646282,20.99218 c 1.518679,-0.0579 3.0321,0.19391 4.223408,0.85352 l 74.591659,38.0293 c 0.99681,0.54755 1.57384,1.35737 1.57384,2.21289 0,0.85552 -0.57703,1.66729 -1.57384,2.21484 l -75.288584,38.02148 c -4.1998,2.04215 -10.232033,2.33163 -10.232033,-2.19336 0.228191,-26.36424 0,-49.40211 0,-75.30859 0,-2.0769 3.364471,-3.70258 6.70555,-3.83008 z"
         style="fill:#00a0a0;fill-opacity:1;fill-rule:evenodd;stroke:none;stroke-width:30.00000191;stroke-linecap:round;stroke-miterlimit:4;stroke-dasharray:none;stroke-opacity:1;paint-order:stroke markers fill" />
    </g>
    <a
       id="a24-3"
       xlink:href="textedit:///home/tom/Nuty/LilyPond/icon.ly:28:12:13"
       style="fill:#00a0a0;fill-opacity:1;stroke:none;stroke-width:0.09412112"
       transform="matrix(-25.227696,13.352263,0,-21.745418,782.23753,-3.1783533)">
      <path
         style="fill:#00a0a0;fill-opacity:1;stroke:none;stroke-width:0.00952362"
         d="m -196.32031,-9.7605056 -0.14649,12.705078 c -0.0105,0.04602 -0.0351,0.09498 -0.0351,0.138672 V 85.184091 c -2.24188,-0.361079 -5.34848,0.519663 -8.55274,2.203125 -4.4849,2.356305 -8.85891,6.059277 -12.79687,10.09375 -5.14123,5.321834 -11.26758,13.126304 -11.26758,19.865234 0,5.803 5.7981,5.47228 11.92383,2.25391 4.4849,-2.3563 8.85891,-6.05927 12.79687,-10.09375 5.14123,-5.32183 11.26758,-13.126277 11.26758,-19.865237 0,-0.02994 -0.006,-0.05437 -0.006,-0.08398 7.2e-4,-0.01138 0.01,-0.02395 0.01,-0.03516 V 6.2766034 l 54.36133,23.7524386 v 48.284683 c -2.2494,-0.409319 -5.40492,0.470361 -8.66211,2.18164 -4.48491,2.356305 -8.86087,6.059274 -12.79883,10.09375 -5.14123,5.321837 -11.26563,13.126265 -11.26563,19.865235 0,5.80299 5.79811,5.47227 11.92383,2.2539 4.48491,-2.3563 8.85891,-6.05927 12.79688,-10.09374 5.10383,-5.28313 11.17168,-13.011651 11.25976,-19.716801 0.0712,-0.07006 0.1211,-0.139017 0.1211,-0.203125 V 48.839832 l 34.79478,14.247561 v 9.846929 c -0.36777,-0.05941 -0.75087,-0.09788 -1.16211,-0.0918 -2.09637,0.03098 -4.71258,0.886886 -7.39258,2.294922 -4.48491,2.356303 -8.86086,6.057316 -12.79883,10.091797 -5.14123,5.321835 -11.26758,13.128226 -11.26758,19.867189 0,5.803 5.79811,5.47032 11.92383,2.25196 4.48491,-2.35631 8.86086,-6.05927 12.79883,-10.093753 4.93358,-5.1069 10.7589,-12.497204 11.222656,-19.041021 0.02228,-0.02353 0.05078,-0.04834 0.05078,-0.07031 V 45.410144 c 0,-0.03976 -0.04609,-0.06865 -0.115235,-0.0918 l -0.05078,-9.210937 z m 60.92969,41.5317356 34.22935,13.964754 0.0832,5.894378 -34.3125,-14.106937 z"
         transform="matrix(-0.03656711,-0.02245318,0,-0.04273656,21.546464,4.7520107)"
         id="path26-5"
         inkscape:connector-curvature="0"
         sodipodi:nodetypes="ccscccsscscscccscscccsccccccscccsscccccccc" />
    </a>
    <a
       id="a24-3-3"
       xlink:href="textedit:///home/tom/Nuty/LilyPond/icon.ly:28:12:13"
       style="fill:#000000;stroke:none;stroke-width:0.08714749"
       transform="matrix(-27.346979,14.36771,0,-23.399169,671.59391,-28.550482)" />
    <a
       id="a24-3-0"
       xlink:href="textedit:///home/tom/Nuty/LilyPond/icon.ly:28:12:13"
       style="fill:#000000;stroke:none;stroke-width:0.08714749"
       transform="matrix(-27.346979,14.36771,0,-23.399169,709.87061,-20.997377)" />
  </g>
</svg>
