<?xml version="1.0" encoding="UTF-8" standalone="no"?>
<svg
   xmlns:dc="http://purl.org/dc/elements/1.1/"
   xmlns:cc="http://creativecommons.org/ns#"
   xmlns:rdf="http://www.w3.org/1999/02/22-rdf-syntax-ns#"
   xmlns:svg="http://www.w3.org/2000/svg"
   xmlns="http://www.w3.org/2000/svg"
   xmlns:sodipodi="http://sodipodi.sourceforge.net/DTD/sodipodi-0.dtd"
   xmlns:inkscape="http://www.inkscape.org/namespaces/inkscape"
   viewBox="0 0 8.3094015 12"
   version="1.1"
   id="svg6"
   sodipodi:docname="mic.svg"
   inkscape:version="0.92.0 r"
   width="8.3094015"
   height="12">
  <metadata
     id="metadata10">
    <rdf:RDF>
      <cc:Work
         rdf:about="">
        <dc:format>image/svg+xml</dc:format>
        <dc:type
           rdf:resource="http://purl.org/dc/dcmitype/StillImage" />
        <dc:title></dc:title>
      </cc:Work>
    </rdf:RDF>
  </metadata>
  <sodipodi:namedview
     pagecolor="#ffffff"
     bordercolor="#666666"
     borderopacity="1"
     objecttolerance="10"
     gridtolerance="10"
     guidetolerance="10"
     inkscape:pageopacity="0"
     inkscape:pageshadow="2"
     inkscape:window-width="1920"
     inkscape:window-height="1039"
     id="namedview8"
     showgrid="false"
     inkscape:zoom="14.75"
     inkscape:cx="-7.4801419"
     inkscape:cy="3.4888733"
     inkscape:window-x="0"
     inkscape:window-y="0"
     inkscape:window-maximized="1"
     inkscape:current-layer="svg6"
     fit-margin-top="0"
     fit-margin-left="0"
     fit-margin-right="0"
     fit-margin-bottom="0" />
  <defs
     id="defs3051">
    <style
       type="text/css"
       id="current-color-scheme">
      .ColorScheme-Text {
        color:#4d4d4d;
      }
      </style>
  </defs>
  <path
     style="fill:currentColor;fill-opacity:1;stroke:none"
     d="M 4.3094011,0 C 3.2422025,0 2.3835124,0.8298659 2.3211199,1.8808594 H 4.5047136 V 2.6445312 H 2.3094011 V 3.1484375 H 4.5047136 V 3.9101562 H 2.3094011 V 4.4160156 H 4.5047136 V 5.1777344 H 2.3094011 V 6 c 0,1.108 0.892,2 2,2 1.108,0 2,-0.892 2,-2 V 2 c 0,-1.108 -0.892,-2 -2,-2 z m -2,5.1777344 c -4,5.8815106 -2.00000002,2.9407556 0,0 z m 0,-1.2675782 c -4,6.7265628 -2.00000002,3.3632813 0,0 z m 0.011719,-2.0292968 c -4.0078125,8.0794266 -2.00390632,4.0397135 0,0 z M 0.30940108,5 v 1 c 0,1.847 1.28600002,3.405469 3.00000002,3.855469 V 11 h -1 v 1 h 4 v -1 h -1 V 9.855469 c 1.714,-0.451 3,-2.010469 3,-3.855469 V 5 h -1 v 1 c 0,1.645 -1.355,3 -3,3 -1.645,0 -3,-1.355 -3,-3 V 5 Z"
     id="path4"
     inkscape:connector-curvature="0"
     sodipodi:nodetypes="sccccccccccccssssscccccccsccccccccsccssscc" />
</svg>
