<?xml version="1.0" encoding="UTF-8" standalone="no"?>
<svg
   xmlns:dc="http://purl.org/dc/elements/1.1/"
   xmlns:cc="http://creativecommons.org/ns#"
   xmlns:rdf="http://www.w3.org/1999/02/22-rdf-syntax-ns#"
   xmlns:svg="http://www.w3.org/2000/svg"
   xmlns="http://www.w3.org/2000/svg"
   xmlns:sodipodi="http://sodipodi.sourceforge.net/DTD/sodipodi-0.dtd"
   xmlns:inkscape="http://www.inkscape.org/namespaces/inkscape"
   version="1.1"
   x="0px"
   y="0px"
   viewBox="0 0 3275.8291 1572.4258"
   enable-background="new 0 0 96 96"
   xml:space="preserve"
   id="svg20"
   sodipodi:docname="piano-bg.svg"
   width="3275.8289"
   height="1572.4258"
   inkscape:version="1.0.1 (3bc2e813f5, 2020-09-07, custom)"
   inkscape:export-filename="../../picts/pianoBg.png"
   inkscape:export-xdpi="56.290096"
   inkscape:export-ydpi="56.290096"><metadata
   id="metadata26"><rdf:RDF><cc:Work
       rdf:about=""><dc:format>image/svg+xml</dc:format><dc:type
         rdf:resource="http://purl.org/dc/dcmitype/StillImage" /><dc:title /></cc:Work></rdf:RDF></metadata><defs
   id="defs24"><filter
     inkscape:label="Dark Glass"
     inkscape:menu="Bevels"
     inkscape:menu-tooltip="Illuminated glass effect with light coming from beneath"
     height="1.5"
     width="1.5"
     y="-0.25"
     x="-0.25"
     style="color-interpolation-filters:sRGB"
     id="filter1636"><feBlend
       in2="SourceGraphic"
       result="result1"
       mode="screen"
       id="feBlend1616" /><feGaussianBlur
       stdDeviation="2"
       result="result6"
       id="feGaussianBlur1618" /><feComposite
       operator="xor"
       in="result6"
       in2="result1"
       result="result7"
       id="feComposite1620" /><feComposite
       result="result4"
       in="result7"
       operator="xor"
       in2="result7"
       id="feComposite1622" /><feGaussianBlur
       result="result3"
       stdDeviation="3"
       in="result4"
       id="feGaussianBlur1624" /><feSpecularLighting
       result="result5"
       specularExponent="55"
       specularConstant="1.5"
       surfaceScale="6"
       in="result3"
       id="feSpecularLighting1628"><fePointLight
         z="20000"
         y="-8000"
         x="-5000"
         id="fePointLight1626" /></feSpecularLighting><feComposite
       in="result3"
       k3="1"
       k2="1.5"
       operator="arithmetic"
       in2="SourceGraphic"
       result="result92"
       id="feComposite1630"
       k1="0"
       k4="0" /><feComposite
       in="result5"
       operator="atop"
       in2="result92"
       result="result93"
       id="feComposite1632" /><feBlend
       mode="multiply"
       in2="result93"
       id="feBlend1634" /></filter><filter
     inkscape:label="Dark Glass"
     inkscape:menu="Bevels"
     inkscape:menu-tooltip="Illuminated glass effect with light coming from beneath"
     height="1.5"
     width="1.5"
     y="-0.25"
     x="-0.25"
     style="color-interpolation-filters:sRGB"
     id="filter1658"><feBlend
       in2="SourceGraphic"
       result="result1"
       mode="screen"
       id="feBlend1638" /><feGaussianBlur
       stdDeviation="2"
       result="result6"
       id="feGaussianBlur1640" /><feComposite
       operator="xor"
       in="result6"
       in2="result1"
       result="result7"
       id="feComposite1642" /><feComposite
       result="result4"
       in="result7"
       operator="xor"
       in2="result7"
       id="feComposite1644" /><feGaussianBlur
       result="result3"
       stdDeviation="3"
       in="result4"
       id="feGaussianBlur1646" /><feSpecularLighting
       result="result5"
       specularExponent="55"
       specularConstant="1.5"
       surfaceScale="6"
       in="result3"
       id="feSpecularLighting1650"><fePointLight
         z="20000"
         y="-8000"
         x="-5000"
         id="fePointLight1648" /></feSpecularLighting><feComposite
       in="result3"
       k3="1"
       k2="1.5"
       operator="arithmetic"
       in2="SourceGraphic"
       result="result92"
       id="feComposite1652"
       k1="0"
       k4="0" /><feComposite
       in="result5"
       operator="atop"
       in2="result92"
       result="result93"
       id="feComposite1654" /><feBlend
       mode="multiply"
       in2="result93"
       id="feBlend1656" /></filter><filter
     inkscape:label="Stained Glass"
     inkscape:menu="Bevels"
     inkscape:menu-tooltip="Illuminated stained glass effect"
     height="1.5"
     width="1.5"
     y="-0.25"
     x="-0.25"
     style="color-interpolation-filters:sRGB"
     id="filter1928"><feBlend
       in2="SourceGraphic"
       result="result1"
       mode="screen"
       id="feBlend1906" /><feGaussianBlur
       stdDeviation="7"
       result="result6"
       id="feGaussianBlur1908" /><feComposite
       operator="xor"
       in="result6"
       in2="result6"
       result="result7"
       id="feComposite1910" /><feComposite
       in2="result1"
       operator="atop"
       in="result6"
       result="result92"
       id="feComposite1912" /><feComposite
       result="result4"
       in="result7"
       operator="xor"
       in2="result92"
       id="feComposite1914" /><feGaussianBlur
       result="result3"
       stdDeviation="0.7"
       in="result4"
       id="feGaussianBlur1916" /><feSpecularLighting
       result="result5"
       specularExponent="50"
       specularConstant="1.5"
       surfaceScale="4"
       id="feSpecularLighting1920"><fePointLight
         z="20000"
         y="-8000"
         x="-5000"
         id="fePointLight1918" /></feSpecularLighting><feComposite
       in="result3"
       k3="1"
       k2="1"
       operator="arithmetic"
       in2="SourceGraphic"
       result="result93"
       id="feComposite1922"
       k1="0"
       k4="0" /><feComposite
       in="result5"
       operator="atop"
       in2="result93"
       result="result94"
       id="feComposite1924" /><feBlend
       mode="multiply"
       in2="result94"
       id="feBlend1926" /></filter></defs><sodipodi:namedview
   pagecolor="#ffffff"
   bordercolor="#666666"
   borderopacity="1"
   objecttolerance="10"
   gridtolerance="10"
   guidetolerance="10"
   inkscape:pageopacity="0"
   inkscape:pageshadow="2"
   inkscape:window-width="2560"
   inkscape:window-height="1403"
   id="namedview22"
   showgrid="false"
   fit-margin-top="0"
   fit-margin-left="0"
   fit-margin-right="0"
   fit-margin-bottom="0"
   inkscape:zoom="0.30729166"
   inkscape:cx="2455.6758"
   inkscape:cy="1852.2809"
   inkscape:window-x="0"
   inkscape:window-y="0"
   inkscape:window-maximized="1"
   inkscape:current-layer="svg20"
   inkscape:document-rotation="0" /><path
   style="fill:#666666;fill-opacity:1;stroke:#000000;stroke-width:1px;stroke-linecap:butt;stroke-linejoin:miter;stroke-opacity:1"
   d="M 1.521946,1429.2394 C 511.04199,240.85629 515.03149,242.98513 515.03149,242.98513 795.86109,-151.232 1593.311,-4.7733923 1750.6588,325.93868 c 62.1055,125.41903 34.1999,351.39467 438.5539,497.24497 562.6082,78.22921 759.2499,334.52425 1086.0719,606.05575 z"
   id="path851"
   inkscape:connector-curvature="0"
   sodipodi:nodetypes="cccccc" /><path
   id="rect849"
   style="opacity:0.99;fill:#4d4d4d;fill-opacity:1;fill-rule:nonzero;stroke:none;stroke-width:40.1376;stroke-linecap:round;stroke-linejoin:round;stroke-miterlimit:10;stroke-dasharray:none;stroke-dashoffset:0;stroke-opacity:1;paint-order:normal"
   d="m 3275.2846,1429.2394 v 123.3579 c 0,10.985 -10.9372,19.8285 -24.523,19.8285 H 26.044964 c -13.585752,0 -24.523018,-8.8435 -24.523018,-19.8285 v -123.3579 z"
   sodipodi:nodetypes="csssscc" /><path
   style="color:#000000;font-style:normal;font-variant:normal;font-weight:normal;font-stretch:normal;font-size:medium;line-height:normal;font-family:sans-serif;font-variant-ligatures:normal;font-variant-position:normal;font-variant-caps:normal;font-variant-numeric:normal;font-variant-alternates:normal;font-feature-settings:normal;text-indent:0;text-align:start;text-decoration:none;text-decoration-line:none;text-decoration-style:solid;text-decoration-color:#000000;letter-spacing:normal;word-spacing:normal;text-transform:none;writing-mode:lr-tb;direction:ltr;text-orientation:mixed;dominant-baseline:auto;baseline-shift:baseline;text-anchor:start;white-space:normal;shape-padding:0;clip-rule:nonzero;display:inline;overflow:visible;visibility:visible;opacity:1;isolation:auto;mix-blend-mode:normal;color-interpolation:sRGB;color-interpolation-filters:linearRGB;solid-color:#000000;solid-opacity:1;vector-effect:none;fill:#999999;fill-opacity:1;fill-rule:nonzero;stroke:none;stroke-width:84.5904;stroke-linecap:round;stroke-linejoin:round;stroke-miterlimit:4;stroke-dasharray:none;stroke-dashoffset:0;stroke-opacity:1;color-rendering:auto;image-rendering:auto;shape-rendering:auto;text-rendering:auto;enable-background:accumulate"
   d="m 1038.2563,845.85612 c -22.824,4.3901 -40.6687,17.6342 -44.0179,32.6695 L 881.13671,1386.6508 c -0.1547,0.7132 -0.2751,1.4262 -0.3616,2.138 -0.014,0.082 -0.027,0.1644 -0.04,0.2466 -2.7665,20.3285 22.05319,35.2487 53.32539,32.0562 197.2916,0.4002 394.583,0.8016 591.8749,1.2004 l 490.7329,0.9962 c 28.7794,0.055 55.5104,-15.2357 59.7263,-34.1649 l 112.9871,-507.61028 c 4.2157,-18.9397 -15.7091,-34.3512 -44.5002,-34.425 l -1090.8761,-2.7264 c -5.2239,-0.013 -10.5329,0.4911 -15.7492,1.4945 z m 135.0007,67.4301 328.0931,0.8201 -492.5927,367.88608 72.4539,-325.50907 113.9696,79.25547 c 0.9164,0.7089 8.7688,6.7885 13.1546,10.1814 0.267,0.2066 1.5452,1.1962 1.7384,1.3456 0.1703,0.1319 0.5542,0.4277 0.6533,0.5043 0.026,0.019 0.1155,0.09 0.1323,0.1029 0.01,0.01 0.037,0.027 0.043,0.032 9e-4,5e-4 0.01,0.01 0.01,0.01 4e-4,2e-4 84.5234,-48.31527 84.5226,-48.31587 l -0.01,-0.01 c -0.01,0 -0.031,-0.024 -0.041,-0.031 -0.017,-0.013 -0.1067,-0.083 -0.1323,-0.1031 -0.099,-0.077 -0.4826,-0.374 -0.653,-0.5058 -0.1931,-0.1494 -1.4716,-1.1376 -1.7386,-1.3442 -4.6385,-3.5882 -13.9122,-10.7692 -13.9122,-10.7692 l -0.7244,-0.553 z m 500.8565,1.2523 320.9786,0.8021 -137.3222,72.38491 -0.9711,0.5558 c 0,0 -12.4583,7.1262 -18.6882,10.6873 -0.3586,0.2049 -2.0754,1.18567 -2.3348,1.33397 -0.2285,0.1306 -0.7443,0.4262 -0.8774,0.5023 l -0.1777,0.1012 -0.055,0.031 h -0.01 c -5e-4,3e-4 62.9308,48.6844 62.9318,48.6839 h 0.011 l 0.057,-0.031 0.1781,-0.1027 c 0.1328,-0.076 0.6482,-0.3701 0.8769,-0.5008 0.2596,-0.1483 1.9763,-1.129 2.3349,-1.334 5.8905,-3.3672 16.4394,-9.402 17.6701,-10.1055 l 149.1056,-78.59787 -72.0909,323.87867 z m -157.1647,84.74171 -78.843,354.21327 -394.3746,-0.798 z m 104.0181,1.37967 308.9864,353.8312 -387.5697,-0.7848 z"
   id="path815"
   inkscape:connector-curvature="0"
   sodipodi:nodetypes="ccccccccccccccccccccccccccccccccccccccccccccccccccccccccccccc" /><text
   xml:space="preserve"
   style="font-style:normal;font-variant:normal;font-weight:normal;font-stretch:normal;font-size:105.465px;line-height:1.25;font-family:Arial;-inkscape-font-specification:Arial;letter-spacing:0px;word-spacing:0px;fill:#ffdd55;fill-opacity:1;stroke:none;stroke-width:6.59155"
   x="4117.2212"
   y="1541.1055"
   id="text852-5"
   transform="skewX(-47.441506)"><tspan
     sodipodi:role="line"
     id="tspan850-3"
     x="4117.2212"
     y="1541.1055"
     style="font-style:normal;font-variant:normal;font-weight:normal;font-stretch:normal;font-family:'FL Prosty 2';-inkscape-font-specification:'FL Prosty 2, ';fill:#ffdd55;stroke-width:6.59155">Nootkoff</tspan></text>

</svg>
