<?xml version="1.0" encoding="UTF-8" standalone="no"?>
<!-- Created with Inkscape (http://www.inkscape.org/) -->

<svg
   xmlns:dc="http://purl.org/dc/elements/1.1/"
   xmlns:cc="http://creativecommons.org/ns#"
   xmlns:rdf="http://www.w3.org/1999/02/22-rdf-syntax-ns#"
   xmlns:svg="http://www.w3.org/2000/svg"
   xmlns="http://www.w3.org/2000/svg"
   xmlns:sodipodi="http://sodipodi.sourceforge.net/DTD/sodipodi-0.dtd"
   xmlns:inkscape="http://www.inkscape.org/namespaces/inkscape"
   width="8.3774462mm"
   height="7.89079mm"
   viewBox="0 0 29.683865 27.959492"
   id="svg4160"
   version="1.1"
   inkscape:version="0.91 r13725"
   sodipodi:docname="qt.svg"
   inkscape:export-filename="/home/tom/DEVELOP/QT5/nootka/picts/qt.png"
   inkscape:export-xdpi="775.7652"
   inkscape:export-ydpi="775.7652">
  <defs
     id="defs4162">
    <filter
       style="color-interpolation-filters:sRGB"
       y="-0.25"
       x="-0.25"
       height="1.5"
       width="1.5"
       inkscape:label="Drop shadow"
       id="filter4748-3">
      <feGaussianBlur
         result="blur"
         stdDeviation="1"
         in="SourceAlpha"
         id="feGaussianBlur4750-0" />
      <feColorMatrix
         values="1 0 0 0 0 0 1 0 0 0 0 0 1 0 0 0 0 0 0.7 0 "
         type="matrix"
         result="bluralpha"
         id="feColorMatrix4752-7" />
      <feOffset
         result="offsetBlur"
         dy="1"
         dx="1"
         in="bluralpha"
         id="feOffset4754-8" />
      <feMerge
         id="feMerge4756-6">
        <feMergeNode
           in="offsetBlur"
           id="feMergeNode4758-8" />
        <feMergeNode
           in="SourceGraphic"
           id="feMergeNode4760-8" />
      </feMerge>
    </filter>
    <filter
       style="color-interpolation-filters:sRGB"
       id="filter4748-3-2"
       inkscape:label="Drop shadow"
       width="1.5"
       height="1.5"
       x="-0.25"
       y="-0.25">
      <feGaussianBlur
         id="feGaussianBlur4750-0-3"
         in="SourceAlpha"
         stdDeviation="1"
         result="blur" />
      <feColorMatrix
         id="feColorMatrix4752-7-4"
         result="bluralpha"
         type="matrix"
         values="1 0 0 0 0 0 1 0 0 0 0 0 1 0 0 0 0 0 0.7 0 " />
      <feOffset
         id="feOffset4754-8-0"
         in="bluralpha"
         dx="1"
         dy="1"
         result="offsetBlur" />
      <feMerge
         id="feMerge4756-6-9">
        <feMergeNode
           id="feMergeNode4758-8-9"
           in="offsetBlur" />
        <feMergeNode
           id="feMergeNode4760-8-2"
           in="SourceGraphic" />
      </feMerge>
    </filter>
  </defs>
  <sodipodi:namedview
     id="base"
     pagecolor="#ffffff"
     bordercolor="#666666"
     borderopacity="1.0"
     inkscape:pageopacity="0.0"
     inkscape:pageshadow="2"
     inkscape:zoom="11.2"
     inkscape:cx="17.431218"
     inkscape:cy="18.354746"
     inkscape:document-units="px"
     inkscape:current-layer="layer1"
     showgrid="false"
     inkscape:window-width="1366"
     inkscape:window-height="737"
     inkscape:window-x="0"
     inkscape:window-y="0"
     inkscape:window-maximized="1"
     fit-margin-top="0"
     fit-margin-left="0"
     fit-margin-right="0"
     fit-margin-bottom="0" />
  <metadata
     id="metadata4165">
    <rdf:RDF>
      <cc:Work
         rdf:about="">
        <dc:format>image/svg+xml</dc:format>
        <dc:type
           rdf:resource="http://purl.org/dc/dcmitype/StillImage" />
        <dc:title></dc:title>
      </cc:Work>
    </rdf:RDF>
  </metadata>
  <g
     inkscape:label="Layer 1"
     inkscape:groupmode="layer"
     id="layer1"
     transform="translate(5.0565524,-266.37207)">
    <rect
       rx="2.6451859"
       style="fill:#ffffff;fill-opacity:1;filter:url(#filter4748-3-2)"
       id="rect3894-43"
       width="24.615585"
       height="22.828316"
       x="-3.7678094"
       y="267.89703"
       ry="2.6451859" />
    <g
       id="g4743"
       transform="matrix(0.0169063,0,0,0.04416333,7.3061691,261.6221)">
      <path
         inkscape:connector-curvature="0"
         inkscape:export-ydpi="327.32205"
         inkscape:export-xdpi="327.32205"
         inkscape:export-filename="/home/tom/DEVELOP/QT4/nootka/picts/c1-trecle_8.png"
         id="line26"
         d="m -619.11844,560.79202 1398.23688,0"
         style="stroke:#000000;stroke-width:18.62784576;stroke-linecap:round;stroke-linejoin:round;stroke-opacity:1" />
      <path
         inkscape:connector-curvature="0"
         inkscape:export-ydpi="327.32205"
         inkscape:export-xdpi="327.32205"
         inkscape:export-filename="/home/tom/DEVELOP/QT4/nootka/picts/c1-trecle_8.png"
         id="line28"
         d="m -619.11844,478.00567 1398.23688,0"
         style="stroke:#000000;stroke-width:18.62784576;stroke-linecap:round;stroke-linejoin:round;stroke-opacity:1" />
      <path
         inkscape:connector-curvature="0"
         inkscape:export-ydpi="327.32205"
         inkscape:export-xdpi="327.32205"
         inkscape:export-filename="/home/tom/DEVELOP/QT4/nootka/picts/c1-trecle_8.png"
         id="line30"
         d="m -619.11844,395.2193 1398.23688,0"
         style="stroke:#000000;stroke-width:18.62784576;stroke-linecap:round;stroke-linejoin:round;stroke-opacity:1" />
      <path
         inkscape:connector-curvature="0"
         inkscape:export-ydpi="327.32205"
         inkscape:export-xdpi="327.32205"
         inkscape:export-filename="/home/tom/DEVELOP/QT4/nootka/picts/c1-trecle_8.png"
         id="line32"
         d="m -619.11844,312.43305 1398.23688,0"
         style="stroke:#000000;stroke-width:18.62784576;stroke-linecap:round;stroke-linejoin:round;stroke-opacity:1" />
      <path
         inkscape:connector-curvature="0"
         inkscape:export-ydpi="327.32205"
         inkscape:export-xdpi="327.32205"
         inkscape:export-filename="/home/tom/DEVELOP/QT4/nootka/picts/c1-trecle_8.png"
         id="line34"
         d="m -619.11844,229.64668 1398.23688,0"
         style="stroke:#000000;stroke-width:18.62784576;stroke-linecap:round;stroke-linejoin:round;stroke-opacity:1" />
    </g>
    <g
       style="font-style:normal;font-weight:normal;font-size:438.40618896px;line-height:125%;font-family:Sans;letter-spacing:0px;word-spacing:0px;fill:#44aa00;fill-opacity:1;stroke:none;stroke-width:1px;stroke-linecap:butt;stroke-linejoin:miter;stroke-opacity:1"
       id="text4750"
       transform="matrix(0.04521469,0,0,0.04521469,24.360995,261.06814)">
      <path
         d="m -430.88401,264.97483 c -31.39628,0 -56.37059,11.70225 -74.92293,35.10675 -18.40964,23.40449 18.85579,57.22251 18.85579,97.60954 0,40.24431 -37.26543,70.14647 -18.85579,93.55097 18.55234,23.4045 43.52665,35.10675 74.92293,35.10675 31.39627,0 56.22787,-11.70225 74.4948,-35.10675 18.40963,-23.4045 -18.36213,-54.29402 -18.36213,-94.53833 0,-40.38703 36.77176,-73.21769 18.36213,-96.62218 -18.26693,-23.4045 -43.09853,-35.10675 -74.4948,-35.10675 z m 60.58054,284.49308 56.94143,62.29307 -52.23199,0 -47.30848,-51.16166 c -4.70944,0.28542 -8.34855,0.49949 -10.91734,0.6422 -2.42607,0.14271 -4.78079,0.21406 -7.06416,0.21406 -44.95376,0 -80.91677,-14.98459 -107.88902,-44.95376 -26.82955,-30.11188 -40.24432,-70.3562 -40.24432,-120.73295 0,-50.51947 13.41477,-90.76379 40.24432,-120.73296 26.97225,-30.11188 62.93526,-45.16782 107.88902,-45.16782 44.81105,0 80.63134,15.05594 107.46089,45.16782 26.82955,29.96917 40.24432,70.21349 40.24432,120.73296 0,37.10469 -7.49229,68.85774 -22.47688,95.25915 -14.84188,26.40142 -36.39114,45.88138 -64.64779,58.43989 z"
         id="path4755"
         inkscape:connector-curvature="0"
         sodipodi:nodetypes="scscscscscccccscscscscc"
         style="fill:#44aa00;fill-opacity:1" />
    </g>
    <g
       id="g4208"
       transform="matrix(0.88629433,0,0,0.88629433,0.73914672,26.751428)">
      <g
         transform="matrix(-4.2707924,-0.0046879,0.0046879,-4.2707924,17.19141,290.9203)"
         id="text949-8"
         style="font-size:4px;font-family:Emmentaler;fill:#44aa00;fill-opacity:1">
        <path
           d="M 0.808,-0.576 C 0.42000039,-0.576 0,-0.24399962 0,0.14 c 0,0.25999974 0.21200029,0.436 0.5,0.436 0.38799961,0 0.808,-0.33200038 0.808,-0.716 0,-0.25999974 -0.2120003,-0.436 -0.5,-0.436"
           id="path5416"
           inkscape:connector-curvature="0"
           style="fill:#44aa00;fill-opacity:1" />
      </g>
      <g
         transform="matrix(4.2707924,0.0046879,0.0046879,-4.2707924,17.22686,276.10396)"
         id="text1155-0"
         style="font-size:4px;font-family:Emmentaler;fill:#44aa00;fill-opacity:1">
        <path
           d="M 0.856,-2.052 C 0.856,-1.6160004 0.36799963,-1.2479998 0,-1 l -0.1,0 0,1 0.1,0 c 0,-0.81999918 1.076,-1.2320008 1.076,-2.052 0,-0.2799997 -0.016346,-0.2238381 -0.11089127,-0.485656 -0.024,-0.04 -0.0225457,-0.032364 -0.0625458,-0.032364 -0.0639999,0 -0.124,0.048 -0.124,0.12"
           id="path5364"
           inkscape:connector-curvature="0"
           style="fill:#44aa00;fill-opacity:1" />
      </g>
      <rect
         transform="matrix(-0.9999994,-0.00109766,0.00109766,-0.9999994,0,0)"
         width="0.47100765"
         height="14.10085"
         ry="0.13140908"
         x="-17.510738"
         y="-290.05432"
         id="rect1161-6"
         style="fill:#44aa00;fill-opacity:1" />
    </g>
  </g>
</svg>
