<?xml version="1.0" encoding="UTF-8" standalone="no"?>
<svg
   xmlns:dc="http://purl.org/dc/elements/1.1/"
   xmlns:cc="http://creativecommons.org/ns#"
   xmlns:rdf="http://www.w3.org/1999/02/22-rdf-syntax-ns#"
   xmlns:svg="http://www.w3.org/2000/svg"
   xmlns="http://www.w3.org/2000/svg"
   xmlns:sodipodi="http://sodipodi.sourceforge.net/DTD/sodipodi-0.dtd"
   xmlns:inkscape="http://www.inkscape.org/namespaces/inkscape"
   width="100%"
   height="100%"
   viewBox="0 0 800 800"
   version="1.1"
   xml:space="preserve"
   style="fill-rule:evenodd;clip-rule:evenodd;stroke-linejoin:round;stroke-miterlimit:1.41421;"
   id="svg2"
   inkscape:version="0.91 r13725"
   sodipodi:docname="settings.svg"
   inkscape:export-filename="/home/tom/DEVELOP/QT5/nootka-beta/spare_parts/mobile/settings.png"
   inkscape:export-xdpi="14.4"
   inkscape:export-ydpi="14.4"><metadata
     id="metadata17"><rdf:RDF><cc:Work
         rdf:about=""><dc:format>image/svg+xml</dc:format><dc:type
           rdf:resource="http://purl.org/dc/dcmitype/StillImage" /><dc:title></dc:title></cc:Work></rdf:RDF></metadata><defs
     id="defs15" /><sodipodi:namedview
     pagecolor="#ffffff"
     bordercolor="#666666"
     borderopacity="1"
     objecttolerance="10"
     gridtolerance="10"
     guidetolerance="10"
     inkscape:pageopacity="0"
     inkscape:pageshadow="2"
     inkscape:window-width="1920"
     inkscape:window-height="1046"
     id="namedview13"
     showgrid="false"
     inkscape:zoom="0.834386"
     inkscape:cx="375.82548"
     inkscape:cy="314.18037"
     inkscape:window-x="0"
     inkscape:window-y="0"
     inkscape:window-maximized="1"
     inkscape:current-layer="svg2" /><g
     id="g9"
     transform="matrix(1.29538,0,0,1.29538,117.749,32.3418)"
     style="fill:#ffaaaa"><path
       inkscape:connector-curvature="0"
       id="path11"
       style="fill:#ffffff"
       d="m 240.05867,-19.287413 c -13.22257,-0.868206 -26.4878,-0.868206 -39.71037,0 l -26.82909,67.87232 c -10.25706,2.039652 -20.36999,4.750348 -30.27308,8.112487 L 86.074763,11.331576 C 74.18967,17.191106 62.702366,23.824297 51.684327,31.187336 l 10.702117,72.193754 c -7.863438,6.89492 -15.265679,14.29832 -22.161754,22.16176 l -72.193752,-10.70212 c -7.363039,11.01804 -13.995078,22.50535 -19.855761,34.39044 l 45.365818,57.17135 c -3.3621384,9.9031 -6.071682,20.01604 -8.111333,30.2731 l -67.873473,26.82908 c -0.868207,13.22257 -0.868207,26.4878 0,39.71037 l 67.873473,26.82908 c 2.039651,10.25822 4.7491946,20.37 8.111333,30.27309 l -45.365818,57.17135 c 5.860683,11.8851 12.492722,23.37357 19.855761,34.39045 L 40.22469,441.17692 c 6.896075,7.86344 14.298316,15.26683 22.161754,22.16176 l -10.702117,72.1949 c 11.018039,7.36188 22.505343,13.99508 34.390436,19.85461 l 57.171367,-45.36467 c 9.90309,3.36214 20.01602,6.07169 30.27308,8.11133 l 26.82909,67.87348 c 13.22257,0.86705 26.4878,0.86705 39.71037,0 l 26.82909,-67.87348 c 10.25821,-2.03964 20.36999,-4.74919 30.27309,-8.11133 l 57.17135,45.36467 c 11.88509,-5.85953 23.37356,-12.49273 34.39044,-19.85461 l -10.70212,-72.1949 c 7.86344,-6.89493 15.26684,-14.29832 22.16176,-22.16176 l 72.1949,10.70212 c 7.36189,-11.01688 13.99508,-22.50535 19.85462,-34.39045 l -45.36468,-57.17135 c 3.36215,-9.90309 6.07169,-20.01487 8.11134,-30.27309 l 67.87347,-26.82908 c 0.86706,-13.22257 0.86706,-26.4878 0,-39.71037 l -67.87347,-26.82908 c -2.03965,-10.25706 -4.74919,-20.37 -8.11134,-30.2731 l 45.36468,-57.17135 c -5.85954,-11.88509 -12.49273,-23.3724 -19.85462,-34.39044 l -72.1949,10.70212 c -6.89492,-7.86344 -14.29832,-15.26684 -22.16176,-22.16176 L 388.72264,31.187336 C 377.70576,23.824297 366.21729,17.191106 354.3322,11.331576 l -57.17135,45.365818 c -9.9031,-3.362139 -20.01488,-6.072835 -30.27309,-8.112487 l -26.82909,-67.87232 z M 220.20406,142.78246 c 77.58633,0 140.578,62.99053 140.578,140.578 0,77.58632 -62.99167,140.57801 -140.578,140.57801 -77.58747,0 -140.578002,-62.99169 -140.578002,-140.57801 0,-77.58747 62.990532,-140.578 140.578002,-140.578 z" /></g></svg>