<?xml version="1.0" encoding="UTF-8" standalone="no"?>
<!-- Created with Inkscape (http://www.inkscape.org/) -->

<svg
   xmlns:dc="http://purl.org/dc/elements/1.1/"
   xmlns:cc="http://creativecommons.org/ns#"
   xmlns:rdf="http://www.w3.org/1999/02/22-rdf-syntax-ns#"
   xmlns:svg="http://www.w3.org/2000/svg"
   xmlns="http://www.w3.org/2000/svg"
   xmlns:xlink="http://www.w3.org/1999/xlink"
   xmlns:sodipodi="http://sodipodi.sourceforge.net/DTD/sodipodi-0.dtd"
   xmlns:inkscape="http://www.inkscape.org/namespaces/inkscape"
   version="1.0"
   width="63.273773"
   height="63.277653"
   id="svg7854"
   inkscape:version="0.92.2 5c3e80d, 2017-08-06"
   sodipodi:docname="stopExam.svg"
   inkscape:export-filename="../../picts/stopExam.png"
   inkscape:export-xdpi="388.38354"
   inkscape:export-ydpi="388.38354">
  <metadata
     id="metadata3073">
    <rdf:RDF>
      <cc:Work
         rdf:about="">
        <dc:format>image/svg+xml</dc:format>
        <dc:type
           rdf:resource="http://purl.org/dc/dcmitype/StillImage" />
        <dc:title />
      </cc:Work>
    </rdf:RDF>
  </metadata>
  <sodipodi:namedview
     pagecolor="#ffffff"
     bordercolor="#666666"
     borderopacity="1"
     objecttolerance="3"
     gridtolerance="7"
     guidetolerance="4"
     inkscape:pageopacity="0"
     inkscape:pageshadow="2"
     inkscape:window-width="1600"
     inkscape:window-height="1163"
     id="namedview3071"
     showgrid="false"
     inkscape:zoom="4.9166667"
     inkscape:cx="24.086837"
     inkscape:cy="34.228064"
     inkscape:window-x="0"
     inkscape:window-y="0"
     inkscape:window-maximized="1"
     inkscape:current-layer="svg7854"
     fit-margin-top="0"
     fit-margin-left="0"
     fit-margin-right="0"
     fit-margin-bottom="0"
     showguides="false" />
  <defs
     id="defs7856">
    <inkscape:perspective
       sodipodi:type="inkscape:persp3d"
       inkscape:vp_x="0 : 24 : 1"
       inkscape:vp_y="0 : 1000 : 0"
       inkscape:vp_z="48 : 24 : 1"
       inkscape:persp3d-origin="24 : 16 : 1"
       id="perspective3075" />
    <linearGradient
       id="linearGradient7577">
      <stop
         id="stop7579"
         style="stop-color:#000000;stop-opacity:0.3137255"
         offset="0" />
      <stop
         id="stop7581"
         style="stop-color:#ffffff;stop-opacity:1"
         offset="1" />
    </linearGradient>
    <linearGradient
       id="linearGradient7305">
      <stop
         id="stop7307"
         style="stop-color:#ffffff;stop-opacity:1"
         offset="0" />
      <stop
         id="stop7313"
         style="stop-color:#ffffff;stop-opacity:0"
         offset="0.20971029" />
      <stop
         id="stop7329"
         style="stop-color:#ffffff;stop-opacity:0.81065089"
         offset="0.34936365" />
      <stop
         id="stop7321"
         style="stop-color:#ffffff;stop-opacity:0"
         offset="0.42850056" />
      <stop
         id="stop7323"
         style="stop-color:#ffffff;stop-opacity:1"
         offset="0.52134049" />
      <stop
         id="stop7317"
         style="stop-color:#ffffff;stop-opacity:0"
         offset="0.55746967" />
      <stop
         id="stop7319"
         style="stop-color:#ffffff;stop-opacity:0.56804734"
         offset="0.71001518" />
      <stop
         id="stop7416"
         style="stop-color:#ffffff;stop-opacity:0"
         offset="0.74394959" />
      <stop
         id="stop7309"
         style="stop-color:#ffffff;stop-opacity:0"
         offset="1" />
    </linearGradient>
    <linearGradient
       id="linearGradient7344">
      <stop
         id="stop7346"
         style="stop-color:#eeeeec;stop-opacity:1"
         offset="0" />
      <stop
         id="stop7348"
         style="stop-color:#92948f;stop-opacity:1"
         offset="1" />
    </linearGradient>
    <linearGradient
       x1="22.28924"
       y1="12.965953"
       x2="25.71076"
       y2="25.735243"
       id="linearGradient7469"
       xlink:href="#linearGradient7577"
       gradientUnits="userSpaceOnUse" />
    <radialGradient
       cx="28.541149"
       cy="31.678772"
       r="12.000001"
       fx="28.541149"
       fy="31.678772"
       id="radialGradient7471"
       xlink:href="#linearGradient7344"
       gradientUnits="userSpaceOnUse"
       gradientTransform="matrix(3.8208255,0,0,2.3034327,-81.08966,-41.851943)" />
    <linearGradient
       x1="-0.24809971"
       y1="9.9014263"
       x2="48.156212"
       y2="37.847668"
       id="linearGradient7473"
       xlink:href="#linearGradient7305"
       gradientUnits="userSpaceOnUse" />
    <linearGradient
       inkscape:collect="always"
       xlink:href="#linearGradient7577"
       id="linearGradient3185"
       gradientUnits="userSpaceOnUse"
       x1="22.28924"
       y1="12.965953"
       x2="25.71076"
       y2="25.735243" />
    <radialGradient
       inkscape:collect="always"
       xlink:href="#linearGradient7344"
       id="radialGradient3187"
       gradientUnits="userSpaceOnUse"
       gradientTransform="matrix(3.8208255,0,0,2.3034327,-81.08966,-41.851943)"
       cx="28.541149"
       cy="31.678772"
       fx="28.541149"
       fy="31.678772"
       r="12.000001" />
    <linearGradient
       inkscape:collect="always"
       xlink:href="#linearGradient7305"
       id="linearGradient3189"
       gradientUnits="userSpaceOnUse"
       x1="-0.24809971"
       y1="9.9014263"
       x2="48.156212"
       y2="37.847668" />
    <radialGradient
       inkscape:collect="always"
       xlink:href="#linearGradient7344"
       id="radialGradient3202"
       gradientUnits="userSpaceOnUse"
       gradientTransform="matrix(3.8208255,0,0,2.3034327,-81.08966,-41.851943)"
       cx="28.541149"
       cy="31.678772"
       fx="28.541149"
       fy="31.678772"
       r="12.000001" />
    <linearGradient
       inkscape:collect="always"
       xlink:href="#linearGradient7305"
       id="linearGradient3204"
       gradientUnits="userSpaceOnUse"
       x1="-0.24809971"
       y1="9.9014263"
       x2="48.156212"
       y2="37.847668" />
    <filter
       id="filter4084"
       inkscape:label="Inner Shadow"
       inkscape:menu="Shadows and Glows"
       inkscape:menu-tooltip="Adds a colorizable drop shadow inside"
       style="color-interpolation-filters:sRGB">
      <feGaussianBlur
         id="feGaussianBlur4086"
         stdDeviation="4"
         result="result8" />
      <feOffset
         id="feOffset4088"
         dx="4"
         dy="4"
         result="result11" />
      <feComposite
         id="feComposite4090"
         in2="result11"
         result="result6"
         in="SourceGraphic"
         operator="in" />
      <feFlood
         id="feFlood4092"
         result="result10"
         in="result6"
         flood-opacity="1"
         flood-color="rgb(0,0,0)" />
      <feBlend
         id="feBlend4094"
         in2="result10"
         mode="normal"
         in="result6"
         result="result12" />
      <feComposite
         id="feComposite4096"
         in2="SourceGraphic"
         result="result2"
         operator="in" />
    </filter>
    <filter
       id="filter4084-4"
       inkscape:label="Inner Shadow"
       inkscape:menu="Shadows and Glows"
       inkscape:menu-tooltip="Adds a colorizable drop shadow inside"
       style="color-interpolation-filters:sRGB">
      <feGaussianBlur
         id="feGaussianBlur4086-5"
         stdDeviation="4"
         result="result8" />
      <feOffset
         id="feOffset4088-2"
         dx="4"
         dy="4"
         result="result11" />
      <feComposite
         id="feComposite4090-5"
         in2="result11"
         result="result6"
         in="SourceGraphic"
         operator="in" />
      <feFlood
         id="feFlood4092-4"
         result="result10"
         in="result6"
         flood-opacity="1"
         flood-color="rgb(0,0,0)" />
      <feBlend
         id="feBlend4094-7"
         in2="result10"
         mode="normal"
         in="result6"
         result="result12" />
      <feComposite
         id="feComposite4096-4"
         in2="SourceGraphic"
         result="result2"
         operator="in" />
    </filter>
    <filter
       inkscape:collect="always"
       style="color-interpolation-filters:sRGB"
       id="filter1237"
       x="-0.024001054"
       width="1.0480021"
       y="-0.023998946"
       height="1.047998">
      <feGaussianBlur
         inkscape:collect="always"
         stdDeviation="0.22243165"
         id="feGaussianBlur1239" />
    </filter>
    <filter
       inkscape:collect="always"
       style="color-interpolation-filters:sRGB"
       id="filter1308"
       x="-0.04800161"
       width="1.0960032"
       y="-0.047998391"
       height="1.0959969">
      <feGaussianBlur
         inkscape:collect="always"
         stdDeviation="1.1639453"
         id="feGaussianBlur1310" />
    </filter>
    <filter
       inkscape:collect="always"
       style="color-interpolation-filters:sRGB"
       id="filter5276"
       x="-0.036001792"
       width="1.0720036"
       y="-0.035998209"
       height="1.0719964">
      <feGaussianBlur
         inkscape:collect="always"
         stdDeviation="0.88278808"
         id="feGaussianBlur5278" />
    </filter>
  </defs>
  <path
     style="opacity:1;fill:#ffffff;fill-opacity:1;fill-rule:nonzero;stroke:none;stroke-width:0.47891262;stroke-linecap:round;stroke-linejoin:round;stroke-miterlimit:4;stroke-dasharray:none;stroke-opacity:1;paint-order:stroke markers fill"
     d="M 12.832306,48.455164 5.4497135,41.071297 V 30.694853 20.318406 l 7.3838735,-7.382592 7.383872,-7.3825926 h 10.456274 10.456271 l 7.302768,7.3040616 7.302766,7.30406 v 10.454978 10.454976 l -7.382594,7.383867 -7.382593,7.383882 H 30.592625 20.214898 Z"
     id="path5297"
     inkscape:connector-curvature="0" />
  <path
     inkscape:connector-curvature="0"
     style="opacity:0.69300022;fill:#333333;fill-opacity:1;fill-rule:evenodd;stroke:none;stroke-width:2.64581752;filter:url(#filter5276)"
     d="m 20.63958,3.0518123 -8.617187,8.6191397 -8.6171883,8.625 v 12.183594 12.193359 l 8.6171883,8.617188 8.617187,8.617187 h 12.191407 12.18164 l 8.625,-8.617187 8.617188,-8.617188 V 32.479546 20.295952 l -8.617188,-8.625 -8.625,-8.6191397 H 32.830987 Z M 34.05169,14.743218 c 1.923293,2.7e-5 3.741169,0.441951 5.453125,1.326172 2.028954,1.048053 3.549943,2.570632 4.564453,4.568359 0.591752,1.211779 0.886698,2.521443 0.886719,3.929688 -2e-5,2.259781 -0.781733,4.439156 -2.345704,6.535156 -1.141317,1.539288 -2.409779,2.718343 -3.804687,3.537109 -2.219195,1.310027 -3.940203,2.782416 -5.166016,4.419922 -0.422725,0.589508 -0.634782,1.113772 -0.634765,1.572266 -1.7e-5,0.06548 -0.02019,0.17992 -0.0625,0.34375 -0.02108,0.130952 -0.0332,0.229361 -0.0332,0.294922 0,0.622274 -0.771592,0.933593 -2.314453,0.933593 -0.655207,0 -1.024844,-0.08239 -1.109375,-0.246093 -0.06339,-0.06548 -0.08362,-0.161931 -0.0625,-0.292969 0.02108,-0.130952 0.03125,-0.295695 0.03125,-0.492188 0,-1.932275 0.803878,-3.766174 2.410157,-5.501953 0.464964,-0.524 1.194136,-1.245067 2.1875,-2.162109 1.014477,-0.916985 1.763872,-1.636156 2.25,-2.160156 1.585117,-1.735753 2.378889,-3.505352 2.378906,-5.306641 -1.7e-5,-0.916984 -0.276677,-1.816898 -0.826172,-2.701172 -0.760883,-1.211726 -1.817288,-1.818331 -3.169922,-1.818359 -0.824285,2.8e-5 -1.595881,0.311348 -2.314453,0.933594 -0.845432,0.75326 -1.267578,1.719451 -1.267578,2.898437 0,0.360274 0.08479,0.703771 0.253906,1.03125 0.19021,0.327534 0.285156,0.606706 0.285156,0.835937 0,0.458522 -0.401955,0.687528 -1.205078,0.6875 h -8.464844 c -0.845397,2.9e-5 -1.267578,-0.785365 -1.267578,-2.357421 v -0.689453 c 0,-3.799013 1.405816,-6.532824 4.216797,-8.203126 2.198048,-1.277233 5.242001,-1.915988 9.13086,-1.916015 z m -6.658203,29.181641 h 5.896484 c 0.338157,0 0.992626,0.769333 1.964844,2.308593 1.014477,1.637507 1.52342,2.816617 1.523437,3.53711 -1.7e-5,0.327507 -0.08481,0.474146 -0.253906,0.441406 -0.169024,-0.03275 -0.30645,-0.04883 -0.412109,-0.04883 h -4.851563 c -0.169024,0 -0.781157,-0.737186 -1.837891,-2.210938 -1.18359,-1.637514 -1.860217,-2.979319 -2.029296,-4.027343 z"
     id="5-36-7" />
  <path
     inkscape:connector-curvature="0"
     style="opacity:0.71199999;fill:#333333;fill-opacity:1;fill-rule:evenodd;stroke:none;stroke-width:2.61634898;filter:url(#filter1308)"
     d="m 20.208362,2.3728817 -8.521485,8.5214843 -8.5214844,8.53125 v 12.046875 12.056641 l 8.5214844,8.521484 8.521485,8.521483 H 32.26305 44.309925 l 8.529296,-8.521483 8.521485,-8.521484 V 31.472491 19.425616 L 52.839221,10.894366 44.309925,2.3728817 H 32.26305 Z m 13.761719,4.302735 c 2.6889,3.9e-5 5.229606,0.617314 7.623047,1.853515 2.836616,1.4652527 4.964455,3.5957083 6.382812,6.3886713 0.827312,1.694157 1.240207,3.525311 1.240235,5.494141 -2.8e-5,3.159332 -1.092754,6.204408 -3.279297,9.134766 -1.595641,2.152032 -3.368179,3.800618 -5.31836,4.945312 -3.102596,1.831513 -5.510838,3.890337 -7.224609,6.179688 -0.591001,0.824173 -0.886746,1.558211 -0.886719,2.199218 -2.7e-5,0.09154 -0.03068,0.251423 -0.08984,0.480469 -0.02947,0.183079 -0.04297,0.320451 -0.04297,0.41211 0,0.869982 -1.079299,1.304687 -3.236328,1.304687 -0.916024,0 -1.432602,-0.114881 -1.550782,-0.34375 -0.08863,-0.09154 -0.117413,-0.228907 -0.08789,-0.412109 0.02947,-0.183079 0.04297,-0.410835 0.04297,-0.685547 0,-2.701457 1.123446,-5.266619 3.36914,-7.69336 0.650051,-0.73259 1.669797,-1.739398 3.058594,-3.021484 1.418307,-1.282013 2.466842,-2.288895 3.146484,-3.021484 2.216105,-2.426707 3.324191,-4.899639 3.324219,-7.417969 -2.8e-5,-1.282011 -0.384113,-2.541065 -1.152344,-3.777344 -1.06377,-1.694079 -2.540559,-2.540977 -4.43164,-2.541016 -1.15241,3.9e-5 -2.231709,0.434744 -3.236329,1.304688 -1.181974,1.053111 -1.773437,2.402475 -1.773437,4.050781 0,0.503689 0.119031,0.98552 0.355469,1.44336 0.265927,0.457916 0.398437,0.847487 0.398437,1.167968 0,0.641048 -0.560773,0.960976 -1.683593,0.960938 H 17.083362 c -1.181924,3.8e-5 -1.773437,-1.099029 -1.773437,-3.296875 v -0.960937 c 0,-5.311293 1.964576,-9.135504 5.894531,-11.4707036 3.073028,-1.7856637 7.328719,-2.6776947 12.765625,-2.6777337 z M 24.661487,47.472491 h 8.244141 c 0.472771,0 1.388813,1.074566 2.748047,3.226563 1.418306,2.289352 2.126927,3.93801 2.126953,4.945312 -2.6e-5,0.457877 -0.117103,0.664914 -0.353516,0.619141 -0.236307,-0.04578 -0.428454,-0.06836 -0.576172,-0.06836 h -6.78125 c -0.236307,0 -1.092925,-1.031387 -2.570312,-3.091797 -1.654744,-2.289361 -2.601507,-4.165644 -2.837891,-5.630859 z"
     id="5-6-7"
     transform="matrix(0.99202796,0,0,0.99202796,73.868329,1.6375731)" />
  <g
     id="g1260"
     transform="translate(-72.880527,0.22120241)">
    <path
       inkscape:connector-curvature="0"
       id="path1255"
       d="M 8.892704,50.481255 0.7138552,42.298346 V 30.58991 18.881473 L 9.046835,10.55248 17.379815,2.2234858 h 11.558366 11.558364 l 8.328996,8.3329782 8.328992,8.332981 v 11.70851 11.708508 l -8.182908,8.178852 -8.182907,8.178848 H 28.930136 17.071555 Z"
       style="opacity:1;fill:#e2e3db;fill-opacity:1;fill-rule:nonzero;stroke:none;stroke-width:0.18012983;stroke-linecap:round;stroke-linejoin:round;stroke-miterlimit:4;stroke-dasharray:none;stroke-opacity:1;paint-order:stroke markers fill" />
    <path
       transform="matrix(2.634873,0,0,2.634873,0.00660172,-5.3821379)"
       id="5-3"
       d="M 7.2812508,2.9472656 4.0253915,6.203125 0.767579,9.464844 v 4.603516 4.609375 l 3.2578125,3.255859 3.2558593,3.257813 h 4.6074222 4.605469 l 3.259765,-3.257813 3.25586,-3.255859 V 14.06836 9.464844 L 19.753907,6.203125 16.494142,2.9472656 h -4.605469 z m 0.4277344,1.0332031 h 0.1035156 4.0761722 4.074219 0.103515 l 0.07227,0.072266 2.884766,2.8828125 2.880859,2.8847658 0.07227,0.07227 v 0.103516 4.072265 4.078125 0.103516 l -0.07227,0.07227 -2.880859,2.88086 -2.884766,2.880859 -0.07227,0.07422 H 15.962892 11.888673 7.8125008 7.7089852 L 7.6367192,24.08398 4.7558598,21.203121 1.8750004,18.322261 1.8027344,18.249991 V 18.146485 14.06836 9.996094 9.892578 L 1.8750004,9.820312 4.7558598,6.9355465 7.6367192,4.052734 Z M 7.9160165,4.4765624 5.1074227,7.2871093 2.298829,10.09961 v 3.96875 3.97461 l 2.8085937,2.808593 2.8085938,2.808594 h 3.9726565 3.970703 l 2.8125,-2.808594 2.808594,-2.808593 v -3.97461 -3.96875 l -2.808594,-2.8125007 -2.8125,-2.8105469 h -3.970703 z m 4.6503905,1.015625 c 0.903255,1.29e-5 1.756545,0.2077829 2.560547,0.6230469 0.952876,0.4922076 1.668078,1.2082739 2.144532,2.1464847 0.27791,0.569099 0.416007,1.184335 0.416015,1.845703 -8e-6,1.061282 -0.36706,2.083995 -1.101562,3.06836 -0.536007,0.72291 -1.132006,1.277584 -1.78711,1.662109 -1.042221,0.61524 -1.850091,1.307134 -2.425781,2.076172 -0.198528,0.276855 -0.298836,0.522955 -0.298828,0.738281 -8e-6,0.03075 -0.0094,0.08322 -0.0293,0.160157 -0.0099,0.0615 -0.01367,0.107882 -0.01367,0.138672 0,0.292244 -0.363303,0.439453 -1.08789,0.439453 -0.307711,0 -0.481786,-0.03836 -0.521485,-0.115235 -0.02977,-0.03075 -0.03922,-0.07713 -0.0293,-0.138671 0.0099,-0.0615 0.01563,-0.138188 0.01563,-0.230469 0,-0.907472 0.376487,-1.768794 1.130859,-2.583985 0.218366,-0.246091 0.56082,-0.584947 1.027343,-1.015625 0.476438,-0.430653 0.828336,-0.769534 1.056641,-1.015625 0.744433,-0.815179 1.11718,-1.646233 1.117188,-2.492188 -8e-6,-0.430653 -0.128654,-0.852288 -0.386719,-1.267578 -0.35734,-0.569074 -0.854984,-0.853503 -1.490234,-0.853516 -0.387117,1.3e-5 -0.748468,0.145269 -1.085938,0.4375 -0.397048,0.353761 -0.595703,0.80763 -0.595703,1.361328 0,0.169199 0.03972,0.330578 0.119141,0.484375 0.08933,0.153823 0.134765,0.284921 0.134765,0.392578 0,0.215339 -0.189228,0.322279 -0.566406,0.322266 H 6.8945321 C 6.4975006,11.675794 6.298829,11.306657 6.298829,10.568359 v -0.322266 c 0,-1.784165 0.6603215,-3.0690759 1.980469,-3.8535149 1.03229,-0.5998386 2.460748,-0.9003778 4.287109,-0.9003907 z M 9.439454,19.197266 h 2.769532 c 0.158812,0 0.467236,0.361088 0.923828,1.083985 0.476438,0.769038 0.714835,1.323738 0.714843,1.662109 -7e-6,0.15381 -0.03972,0.222407 -0.11914,0.207031 -0.07938,-0.01538 -0.143738,-0.02344 -0.19336,-0.02344 h -2.279296 c -0.07938,0 -0.366998,-0.344978 -0.863282,-1.03711 C 9.836718,20.3208 9.51886,19.689457 9.439454,19.197263 Z"
       style="opacity:0.76099997;fill:#666666;fill-opacity:1;fill-rule:evenodd;stroke:none;filter:url(#filter1237)"
       inkscape:connector-curvature="0" />
    <path
       inkscape:connector-curvature="0"
       id="5"
       d="M 17.668922,0.86108937 9.0901457,9.4398664 0.50622332,18.034081 V 30.16376 42.308877 l 8.58392238,8.578775 8.5787763,8.583925 h 12.13997 12.134826 l 8.589067,-8.583925 8.57878,-8.578775 V 30.16376 18.034081 L 50.532785,9.4398664 41.943718,0.86108937 H 29.808892 Z m 1.127025,2.72236003 h 0.272749 10.740196 10.735051 0.272749 l 0.190401,0.190411 7.60099,7.5958436 7.590699,7.600992 0.190402,0.190412 v 0.27275 10.729904 10.745342 0.27275 l -0.190402,0.190402 -7.590699,7.590699 -7.60099,7.590698 -0.190401,0.195553 H 40.543943 29.808892 19.068696 18.795947 L 18.605536,56.553658 11.014838,48.962962 3.4241396,41.372261 3.2337287,41.181852 V 40.909101 30.16376 19.433857 19.161106 l 0.1904109,-0.190411 7.5906984,-7.600991 7.590698,-7.5958456 z m 0.5455,1.307144 -7.400287,7.4054326 -7.4002871,7.410581 V 30.16376 40.636351 l 7.4002871,7.400286 7.400287,7.400288 h 10.467445 10.462299 l 7.41058,-7.400288 7.400288,-7.400286 V 30.16376 19.706607 L 47.681771,12.296026 40.271191,4.8905934 H 29.808892 Z m 12.25319,2.676043 c 2.37996,3.3e-5 4.628273,0.54748 6.746715,1.641649 2.510707,1.2969036 4.395173,3.1836476 5.650572,5.6557136 0.732255,1.499505 1.096123,3.120573 1.096145,4.863193 -2.2e-5,2.796344 -0.967156,5.491063 -2.902477,8.084738 -1.412309,1.904776 -2.982692,3.366271 -4.70881,4.379446 -2.746118,1.62108 -4.874751,3.444132 -6.391624,5.47045 -0.523095,0.729478 -0.787393,1.37792 -0.787371,1.945276 -2.2e-5,0.08103 -0.02485,0.219263 -0.0772,0.421996 -0.02609,0.162045 -0.03603,0.284255 -0.03603,0.365382 0,0.770025 -0.957258,1.157901 -2.866453,1.157901 -0.810777,0 -1.269444,-0.101076 -1.374045,-0.30363 -0.07843,-0.08103 -0.103336,-0.203228 -0.0772,-0.365378 0.02613,-0.162047 0.04117,-0.36411 0.04117,-0.607259 0,-2.391072 0.991997,-4.660546 2.979669,-6.808472 0.575368,-0.648419 1.47769,-1.541261 2.706919,-2.676043 1.255355,-1.134715 2.182561,-2.027625 2.784115,-2.676042 1.961486,-2.147891 2.943628,-4.337613 2.943651,-6.566597 -2.3e-5,-1.134717 -0.338988,-2.245672 -1.018958,-3.339907 -0.941544,-1.499439 -2.252774,-2.248872 -3.926578,-2.248907 -1.020003,3.5e-5 -1.972118,0.382766 -2.861308,1.152758 -1.046172,0.932113 -1.5696,2.128002 -1.5696,3.586926 0,0.445818 0.104629,0.871031 0.31392,1.276267 0.235375,0.405304 0.355088,0.75073 0.355088,1.034393 0,0.567391 -0.498591,0.849164 -1.492406,0.84913 H 16.649935 c -1.046128,3.4e-5 -1.569603,-0.972595 -1.569603,-2.917916 v -0.849131 c 0,-4.701047 1.739864,-8.086625 5.218284,-10.1535226 2.719954,-1.580498 6.483757,-2.372381 11.295989,-2.372414 z M 23.355513,43.677776 h 7.297366 c 0.418447,0 1.231106,0.95142 2.434168,2.856162 1.255354,2.026318 1.883498,3.487884 1.883518,4.379445 -1.6e-5,0.405271 -0.104663,0.586016 -0.313915,0.545501 -0.209161,-0.04053 -0.378733,-0.06174 -0.509481,-0.06174 h -6.005654 c -0.209161,0 -0.966997,-0.908973 -2.274638,-2.732652 -1.464623,-2.026329 -2.302138,-3.689833 -2.511364,-4.986703 z"
       style="fill:#d40000;fill-opacity:1;fill-rule:evenodd;stroke:none;stroke-width:2.63487291" />
  </g>
  <path
     style="fill:#ff0000;fill-opacity:1;fill-rule:evenodd;stroke:none;stroke-width:2.59549141"
     d="m 91.631461,2.0655886 -8.453551,8.4535504 -8.45355,8.463238 v 11.950837 11.960525 l 8.45355,8.45355 8.453551,8.453551 h 11.958589 11.95083 l 8.4613,-8.453551 8.45356,-8.45355 V 30.933214 18.982377 l -8.45356,-8.463238 -8.4613,-8.4535504 h -11.95083 z m 13.652009,4.2684327 c 2.66746,3.89e-5 5.18792,0.6123932 7.56228,1.8387393 2.814,1.4535717 4.92487,3.5670424 6.33192,6.3377414 0.82072,1.68065 1.23032,3.497206 1.23035,5.45034 -3e-5,3.134146 -1.08404,6.154946 -3.25315,9.061943 -1.58292,2.134876 -3.34133,3.77032 -5.27596,4.905888 -3.07787,1.816913 -5.46691,3.859324 -7.16702,6.130423 -0.58629,0.817603 -0.87968,1.545789 -0.87965,2.181686 -3e-5,0.09081 -0.0304,0.249419 -0.0891,0.476639 -0.0292,0.181619 -0.0426,0.317896 -0.0426,0.408825 0,0.863046 -1.07069,1.294286 -3.21053,1.294286 -0.908718,0 -1.421177,-0.113966 -1.538415,-0.34101 -0.08792,-0.09081 -0.116477,-0.227082 -0.08719,-0.408824 0.02923,-0.181619 0.04263,-0.40756 0.04263,-0.680082 0,-2.67992 1.114485,-5.224632 3.342285,-7.632028 0.64486,-0.72675 1.65648,-1.725531 3.03421,-2.997396 1.407,-1.271793 2.44717,-2.270648 3.1214,-2.997397 2.19843,-2.407361 3.29769,-4.860579 3.29771,-7.358833 -2e-5,-1.27179 -0.38105,-2.520807 -1.14315,-3.74723 -1.05529,-1.680574 -2.52031,-2.52072 -4.39631,-2.520758 -1.14323,3.8e-5 -2.21392,0.431277 -3.21053,1.294286 -1.17255,1.044715 -1.7593,2.383322 -1.7593,4.018488 0,0.499673 0.11808,0.977663 0.35263,1.431853 0.26381,0.454266 0.39526,0.840731 0.39526,1.158657 0,0.635938 -0.5563,0.953315 -1.67017,0.953277 H 88.531373 c -1.172501,3.8e-5 -1.759299,-1.090267 -1.759299,-3.270592 v -0.953276 c 0,-5.26895 1.948914,-9.062675 5.84754,-11.3792583 3.048529,-1.7714289 7.270294,-2.6563485 12.663856,-2.6563874 z M 96.049085,46.805661 h 8.178415 c 0.46901,0 1.37774,1.066 2.72614,3.200841 1.407,2.271101 2.10997,3.906616 2.11,4.905888 -3e-5,0.454227 -0.11617,0.659613 -0.3507,0.614205 -0.23442,-0.04541 -0.42504,-0.06781 -0.57158,-0.06781 h -6.72719 c -0.23442,0 -1.08421,-1.023165 -2.549818,-3.067149 -1.641552,-2.27111 -2.580767,-4.132435 -2.815267,-5.58597 z"
     id="5-6"
     inkscape:connector-curvature="0" />
  <path
     style="fill:#ff0000;fill-opacity:1;fill-rule:evenodd;stroke:none;stroke-width:2.64581752"
     d="M 18.519531 0.90039062 L 9.9023438 9.5195312 L 1.2851562 18.144531 L 1.2851562 30.328125 L 1.2851562 42.521484 L 9.9023438 51.138672 L 18.519531 59.755859 L 30.710938 59.755859 L 42.892578 59.755859 L 51.517578 51.138672 L 60.134766 42.521484 L 60.134766 30.328125 L 60.134766 18.144531 L 51.517578 9.5195312 L 42.892578 0.90039062 L 30.710938 0.90039062 L 18.519531 0.90039062 z M 31.931641 12.591797 C 33.854934 12.591824 35.67281 13.033748 37.384766 13.917969 C 39.41372 14.966022 40.934709 16.488601 41.949219 18.486328 C 42.540971 19.698107 42.835917 21.007771 42.835938 22.416016 C 42.835918 24.675797 42.054205 26.855172 40.490234 28.951172 C 39.348917 30.49046 38.080455 31.669515 36.685547 32.488281 C 34.466352 33.798308 32.745344 35.270697 31.519531 36.908203 C 31.096806 37.497711 30.884749 38.021975 30.884766 38.480469 C 30.884749 38.545949 30.864576 38.660389 30.822266 38.824219 C 30.801186 38.955171 30.789062 39.05358 30.789062 39.119141 C 30.789062 39.741415 30.01747 40.052734 28.474609 40.052734 C 27.819402 40.052734 27.449765 39.970341 27.365234 39.806641 C 27.301844 39.741161 27.281614 39.64471 27.302734 39.513672 C 27.323814 39.38272 27.333984 39.217977 27.333984 39.021484 C 27.333984 37.089209 28.137862 35.25531 29.744141 33.519531 C 30.209105 32.995531 30.938277 32.274464 31.931641 31.357422 C 32.946118 30.440437 33.695513 29.721266 34.181641 29.197266 C 35.766758 27.461513 36.56053 25.691914 36.560547 23.890625 C 36.56053 22.973641 36.28387 22.073727 35.734375 21.189453 C 34.973492 19.977727 33.917087 19.371122 32.564453 19.371094 C 31.740168 19.371122 30.968572 19.682442 30.25 20.304688 C 29.404568 21.057948 28.982422 22.024139 28.982422 23.203125 C 28.982422 23.563399 29.067209 23.906896 29.236328 24.234375 C 29.426538 24.561909 29.521484 24.841081 29.521484 25.070312 C 29.521484 25.528834 29.119529 25.75784 28.316406 25.757812 L 19.851562 25.757812 C 19.006165 25.757841 18.583984 24.972447 18.583984 23.400391 L 18.583984 22.710938 C 18.583984 18.911925 19.9898 16.178114 22.800781 14.507812 C 24.998829 13.230579 28.042782 12.591824 31.931641 12.591797 z M 25.273438 41.773438 L 31.169922 41.773438 C 31.508079 41.773438 32.162548 42.542771 33.134766 44.082031 C 34.149243 45.719538 34.658186 46.898648 34.658203 47.619141 C 34.658186 47.946648 34.573396 48.093287 34.404297 48.060547 C 34.235273 48.027797 34.097847 48.011719 33.992188 48.011719 L 29.140625 48.011719 C 28.971601 48.011719 28.359468 47.274533 27.302734 45.800781 C 26.119144 44.163267 25.442517 42.821462 25.273438 41.773438 z "
     id="5-36" />
  <path
     inkscape:connector-curvature="0"
     d="m 54.332206,40.691743 -6.824658,6.825187 -0.832681,-0.832733 6.824674,-6.825189 z m -6.824658,6.825187 -6.83283,6.825185 -0.832662,-0.832737 6.832811,-6.825181 z m -6.83283,6.825185 -0.171357,0.171424 h -0.244896 v -0.587815 l 0.416322,0.416365 z m -0.416321,0.171424 h -9.649231 v -1.175631 h 9.649231 z m -9.649231,0 h -9.657383 v -1.175631 h 9.657383 z m -9.657383,0 h -0.244907 l -0.171427,-0.171424 0.416331,-0.416366 v 0.587815 z m -0.41634,-0.171424 -6.824662,-6.825185 0.832673,-0.832733 6.824662,6.825181 z M 13.710781,47.51693 6.8861212,40.691743 7.7187944,39.859008 14.543454,46.684197 Z M 6.8861212,40.691743 6.7146957,40.520316 v -0.244923 h 0.5877609 l -0.4163327,0.41637 z M 6.7146957,40.275374 v -9.658133 h 1.1755319 v 9.658133 z m 0,-9.658133 v -9.649962 h 1.1755319 v 9.649962 z m 0,-9.649962 V 20.722357 L 6.8861212,20.550931 7.3024534,20.9673 H 6.7146917 Z m 0.1714255,-0.416369 6.8246598,-6.83335 0.832673,0.832734 -6.8246596,6.83335 z m 6.8246598,-6.83335 6.824662,-6.8251955 0.832673,0.832743 -6.824662,6.8251865 z m 6.824662,-6.8251955 0.171426,-0.1714492 h 0.244908 v 0.5878139 l -0.41633,-0.4163704 z m 0.41634,-0.1714492 h 9.657383 v 1.175629 h -9.657383 z m 9.657383,0 h 9.649231 v 1.175629 h -9.649231 z m 9.649231,0 h 0.244893 l 0.17138,0.1714492 -0.416321,0.4163714 V 6.720922 Z m 0.416321,0.1714492 6.83283,6.8251955 -0.832681,0.832734 -6.832811,-6.8251865 z m 6.83283,6.8251955 6.824658,6.83335 -0.832665,0.832734 -6.824674,-6.83335 z m 6.824658,6.83335 0.17138,0.171425 v 0.244924 h -0.587767 l 0.416321,-0.416367 z m 0.17138,0.416369 v 9.649962 h -1.175552 v -9.649962 z m 0,9.649962 v 9.658133 h -1.175552 v -9.658133 z m 0,9.658133 v 0.244921 l -0.17138,0.171427 -0.416323,-0.416372 h 0.587766 z"
     style="fill:#ffffff;fill-opacity:1;fill-rule:nonzero;stroke:#ffffff;stroke-width:3;stroke-linejoin:round;stroke-miterlimit:4;stroke-dasharray:none;stroke-opacity:1"
     id="6" />
</svg>
