<?xml version="1.0" encoding="UTF-8" standalone="no"?>
<svg
   xmlns:dc="http://purl.org/dc/elements/1.1/"
   xmlns:cc="http://creativecommons.org/ns#"
   xmlns:rdf="http://www.w3.org/1999/02/22-rdf-syntax-ns#"
   xmlns:svg="http://www.w3.org/2000/svg"
   xmlns="http://www.w3.org/2000/svg"
   xmlns:sodipodi="http://sodipodi.sourceforge.net/DTD/sodipodi-0.dtd"
   xmlns:inkscape="http://www.inkscape.org/namespaces/inkscape"
   width="545.08582"
   height="535.83179"
   viewBox="0 0 545.08581 535.83181"
   version="1.1"
   id="svg7"
   sodipodi:docname="systemsettings.svg"
   inkscape:version="0.92.4 5da689c313, 2019-01-14"
   inkscape:export-filename="../../picts/systemsettings.png"
   inkscape:export-xdpi="45.148499"
   inkscape:export-ydpi="45.148499">
  <metadata
     id="metadata11">
    <rdf:RDF>
      <cc:Work
         rdf:about="">
        <dc:format>image/svg+xml</dc:format>
        <dc:type
           rdf:resource="http://purl.org/dc/dcmitype/StillImage" />
        <dc:title />
      </cc:Work>
    </rdf:RDF>
  </metadata>
  <sodipodi:namedview
     pagecolor="#ffffff"
     bordercolor="#666666"
     borderopacity="1"
     objecttolerance="10"
     gridtolerance="10"
     guidetolerance="10"
     inkscape:pageopacity="0"
     inkscape:pageshadow="2"
     inkscape:window-width="1600"
     inkscape:window-height="1163"
     id="namedview9"
     showgrid="false"
     fit-margin-top="0"
     fit-margin-left="0"
     fit-margin-right="0"
     fit-margin-bottom="0"
     inkscape:zoom="1.3037281"
     inkscape:cx="373.72342"
     inkscape:cy="241.30896"
     inkscape:window-x="0"
     inkscape:window-y="0"
     inkscape:window-maximized="1"
     inkscape:current-layer="svg7" />
  <defs
     id="defs3">
    <style
       id="current-color-scheme"
       type="text/css">
   .ColorScheme-Text { color:#444444; } .ColorScheme-Highlight { color:#4285f4; }
  </style>
    <filter
       inkscape:collect="always"
       style="color-interpolation-filters:sRGB"
       id="filter948"
       x="-0.036169775"
       width="1.0723395"
       y="-0.035831813"
       height="1.0716636">
      <feGaussianBlur
         inkscape:collect="always"
         stdDeviation="7.4649609"
         id="feGaussianBlur950" />
    </filter>
  </defs>
  <path
     style="fill:#ff0000;fill-opacity:1;stroke-width:1.18218577"
     d="m 251.15911,381.66472 c -10.33068,-20.14151 -24.0462,-36.87864 -51.19339,-62.47152 -29.23539,-27.56155 -42.418,-42.09575 -54.06654,-59.6099 -14.70386,-22.10798 -20.95066,-39.30571 -20.06819,-55.24862 0.72503,-13.09855 4.99684,-22.52805 14.98695,-33.08193 7.13863,-7.54147 16.93702,-14.04145 26.08513,-17.30415 15.316,-5.46251 33.2998,-3.59095 51.1683,5.32505 10.94233,5.45999 19.36844,11.47264 29.57967,21.1073 5.27274,4.97503 6.59957,4.78451 13.99963,-2.01019 18.31109,-16.81318 38.55338,-26.46163 57.95368,-27.6235 12.80657,-0.76697 25.97929,3.7994 39.04386,13.53468 11.27176,8.39933 18.15705,18.31288 21.28614,30.64818 2.63591,10.39106 2.14558,18.82394 -1.78844,30.75787 -8.70471,26.40594 -29.48621,55.15328 -59.74667,82.6484 -11.1284,10.11143 -26.50257,25.62061 -33.37698,33.67007 -11.83473,13.85769 -22.37508,29.74925 -28.29315,42.65734 l -1.90294,4.15055 z"
     id="path4961-6-3"
     inkscape:connector-curvature="0"
     sodipodi:nodetypes="cssssssscsscsscscc" />
  <path
     inkscape:connector-curvature="0"
     style="color:#444444;opacity:0.75800003;fill:#1a1a1a;fill-opacity:1;stroke-width:1.00000012;filter:url(#filter948)"
     d="m 223.08399,19.915906 -5.50977,65.839841 c -20.87661,7.73294 -40.28696,18.957853 -57.40039,33.197273 L 100.33399,90.777237 37.841802,199.01943 92.17383,236.75185 c -1.93472,10.93823 -2.93897,22.02103 -3,33.1289 0.007,11.15049 0.96354,22.27946 2.85937,33.26758 l -54.191398,37.59375 62.492188,108.24414 59.70117,-28.10742 c 17.17091,14.17887 36.62776,25.33334 57.53906,32.98828 l 5.36914,66.04883 h 124.98438 l 5.50976,-65.83984 c 20.87663,-7.73291 40.28499,-18.95786 57.39844,-33.19727 l 59.8418,28.17578 62.49023,-108.24219 -54.33008,-37.73242 c 1.93469,-10.93825 2.93894,-22.02105 3,-33.1289 -0.009,-11.15052 -0.96554,-22.27945 -2.86132,-33.26758 L 533.16992,199.08974 470.67774,90.845597 410.97657,118.95302 C 393.80556,104.77417 374.34881,93.619667 353.4375,85.964737 L 348.06641,19.915906 Z M 353.85157,160.84169 c 12.04733,-0.0946 24.39063,4.49036 36.63867,13.61719 11.27176,8.39933 18.15802,18.31314 21.28711,30.64844 2.63591,10.39106 2.14495,18.82388 -1.78907,30.75781 -8.70471,26.40594 -29.48563,55.15332 -59.74609,82.64844 -11.1284,10.11143 -26.50254,25.62046 -33.37695,33.66992 -11.83473,13.85769 -22.37685,29.74816 -28.29492,42.65625 l -1.90235,4.15039 -3.66601,-7.14844 c -10.33068,-20.14151 -24.04617,-36.87978 -51.19336,-62.47266 -29.23539,-27.56155 -42.41787,-42.09522 -54.06641,-59.60937 -14.70386,-22.10798 -20.95083,-39.30514 -20.06836,-55.24805 0.72503,-13.09855 4.99622,-22.52815 14.98633,-33.08203 7.13863,-7.54147 16.93783,-14.04199 26.08594,-17.30469 15.316,-5.46251 33.29947,-3.58982 51.16797,5.32618 10.94233,5.45999 19.36689,11.4708 29.57812,21.10546 5.27274,4.97504 6.59994,4.78494 14,-2.00976 18.31109,-16.81318 38.55478,-26.46118 57.95508,-27.62305 0.80041,-0.0479 1.60114,-0.0757 2.4043,-0.082 z"
     id="path5-7-5" />
  <path
     style="color:#444444;fill:#00a0a0;fill-opacity:1;stroke-width:1.00000012"
     d="m 191.24219,9.7401274 -5.50977,65.8398436 c -20.87661,7.73294 -40.28696,18.957845 -57.40039,33.197269 L 68.492188,80.601455 6,188.84365 60.332031,226.57607 c -1.93472,10.93823 -2.93897,22.02103 -3,33.1289 0.007,11.15049 0.963535,22.27946 2.859375,33.26758 L 6,330.5663 68.492188,438.81044 128.19336,410.70302 c 17.17091,14.17887 36.62776,25.33334 57.53906,32.98828 l 5.36914,66.04883 h 124.98438 l 5.50976,-65.83984 c 20.87663,-7.73291 40.28499,-18.95786 57.39844,-33.19727 l 59.8418,28.17578 62.49023,-108.24219 -54.33008,-37.73242 c 1.93469,-10.93825 2.93894,-22.02105 3,-33.1289 -0.009,-11.15052 -0.96554,-22.27945 -2.86132,-33.26758 L 501.32812,188.91396 438.83594,80.669815 379.13477,108.77724 C 361.96376,94.598386 342.50701,83.443885 321.5957,75.788955 L 316.22461,9.7401274 Z M 322.00977,150.66591 c 12.04733,-0.0946 24.39063,4.49036 36.63867,13.61719 11.27176,8.39933 18.15802,18.31314 21.28711,30.64844 2.63591,10.39106 2.14495,18.82388 -1.78907,30.75781 -8.70471,26.40594 -29.48563,55.15332 -59.74609,82.64844 -11.1284,10.11143 -26.50254,25.62046 -33.37695,33.66992 -11.83473,13.85769 -22.37685,29.74816 -28.29492,42.65625 l -1.90235,4.15039 -3.66601,-7.14844 C 240.82948,361.5244 227.11399,344.78613 199.9668,319.19325 170.73141,291.6317 157.54893,277.09803 145.90039,259.58388 131.19653,237.4759 124.94956,220.27874 125.83203,204.33583 c 0.72503,-13.09855 4.99622,-22.52815 14.98633,-33.08203 7.13863,-7.54147 16.93783,-14.04199 26.08594,-17.30469 15.316,-5.46251 33.29947,-3.58982 51.16797,5.32618 10.94233,5.45999 19.36689,11.4708 29.57812,21.10546 5.27274,4.97504 6.59994,4.78494 14,-2.00976 18.31109,-16.81318 38.55478,-26.46118 57.95508,-27.62305 0.80041,-0.0479 1.60114,-0.0757 2.4043,-0.082 z"
     id="path5-7"
     inkscape:connector-curvature="0" />
</svg>
