<?xml version="1.0" encoding="UTF-8" standalone="no"?>
<!-- Created with Inkscape (http://www.inkscape.org/) -->

<svg
   xmlns:dc="http://purl.org/dc/elements/1.1/"
   xmlns:cc="http://creativecommons.org/ns#"
   xmlns:rdf="http://www.w3.org/1999/02/22-rdf-syntax-ns#"
   xmlns:svg="http://www.w3.org/2000/svg"
   xmlns="http://www.w3.org/2000/svg"
   xmlns:xlink="http://www.w3.org/1999/xlink"
   xmlns:sodipodi="http://sodipodi.sourceforge.net/DTD/sodipodi-0.dtd"
   xmlns:inkscape="http://www.inkscape.org/namespaces/inkscape"
   width="434"
   height="434"
   id="svg3240"
   version="1.1"
   inkscape:version="0.92.4 5da689c313, 2019-01-14"
   sodipodi:docname="correct.svg"
   inkscape:export-filename="../../../picts/flat/correct.png"
   inkscape:export-xdpi="56.626728"
   inkscape:export-ydpi="56.626728">
  <defs
     id="defs3242">
    <linearGradient
       gradientTransform="translate(375.44836,360.94199)"
       inkscape:collect="always"
       xlink:href="#linearGradient2948"
       id="linearGradient3880"
       x1="144.20778"
       y1="114.70131"
       x2="54.025951"
       y2="-27.012987"
       gradientUnits="userSpaceOnUse" />
    <linearGradient
       id="linearGradient2948">
      <stop
         style="stop-color:#66f515;stop-opacity:1"
         offset="0"
         id="stop2950" />
      <stop
         style="stop-color:#002e00;stop-opacity:1"
         offset="1"
         id="stop2952" />
    </linearGradient>
    <linearGradient
       gradientTransform="translate(375.44836,360.94199)"
       inkscape:collect="always"
       xlink:href="#linearGradient2956"
       id="linearGradient3888"
       x1="75.036758"
       y1="61.392914"
       x2="118.94741"
       y2="61.392914"
       gradientUnits="userSpaceOnUse" />
    <linearGradient
       id="linearGradient2956">
      <stop
         style="stop-color:#030303;stop-opacity:1;"
         offset="0"
         id="stop2958" />
      <stop
         style="stop-color:#008c00;stop-opacity:1"
         offset="1"
         id="stop2960" />
    </linearGradient>
    <linearGradient
       inkscape:collect="always"
       xlink:href="#linearGradient2948"
       id="linearGradient3044"
       gradientUnits="userSpaceOnUse"
       gradientTransform="translate(375.44836,360.94199)"
       x1="144.20778"
       y1="114.70131"
       x2="54.025951"
       y2="-27.012987" />
    <linearGradient
       inkscape:collect="always"
       xlink:href="#linearGradient2956"
       id="linearGradient3046"
       gradientUnits="userSpaceOnUse"
       gradientTransform="translate(375.44836,360.94199)"
       x1="75.036758"
       y1="61.392914"
       x2="118.94741"
       y2="61.392914" />
  </defs>
  <sodipodi:namedview
     id="base"
     pagecolor="#ffffff"
     bordercolor="#666666"
     borderopacity="1.0"
     inkscape:pageopacity="0.0"
     inkscape:pageshadow="2"
     inkscape:zoom="0.9899495"
     inkscape:cx="131.96268"
     inkscape:cy="194.03308"
     inkscape:document-units="px"
     inkscape:current-layer="layer1"
     showgrid="false"
     fit-margin-top="0"
     fit-margin-left="0"
     fit-margin-right="0"
     fit-margin-bottom="0"
     inkscape:window-width="1920"
     inkscape:window-height="1043"
     inkscape:window-x="0"
     inkscape:window-y="0"
     inkscape:window-maximized="1" />
  <metadata
     id="metadata3245">
    <rdf:RDF>
      <cc:Work
         rdf:about="">
        <dc:format>image/svg+xml</dc:format>
        <dc:type
           rdf:resource="http://purl.org/dc/dcmitype/StillImage" />
        <dc:title></dc:title>
      </cc:Work>
    </rdf:RDF>
  </metadata>
  <g
     inkscape:label="Layer 1"
     inkscape:groupmode="layer"
     id="layer1"
     transform="translate(-491.04692,-214.60183)">
    <path
       style="opacity:1;fill:#000000;fill-opacity:1;fill-rule:nonzero;stroke:none;stroke-width:5.52982426;stroke-linecap:round;stroke-linejoin:round;stroke-miterlimit:4;stroke-dasharray:none;stroke-dashoffset:0;stroke-opacity:0;paint-order:normal"
       d="m 742.03651,247.09837 c -18.45604,1.86751 -35.89755,8.7551 -52.7407,16.16609 -18.83775,9.19583 -39.38194,15.77897 -56.05212,28.78101 0.0479,5.14715 1.44153,10.20362 3.55334,14.87004 7.78111,13.48532 17.46564,26.18832 21.65057,41.49745 10.9243,39.31972 12.18907,80.67301 10.90196,121.24788 2.93964,14.42435 -11.08451,27.27146 -5.75231,41.14534 14.56484,5.20938 30.26477,4.12336 45.45472,4.00912 13.05114,2.01656 30.78314,-0.5806 32.71021,-16.69316 0.62401,-83.65335 0.10407,-167.35269 0.27433,-251.02377 z m -28.04658,294.24929 c -7.8627,-0.0676 -16.10043,0.95185 -23.50823,0.4385 -14.46904,2.99027 -32.62746,-5.14745 -44.54965,5.48014 2.9636,6.97918 7.13706,13.4017 11.64503,19.47967 12.93144,12.82731 18.31977,31.63731 32.64541,42.93607 18.38075,8.34532 39.45025,6.05557 59.13887,6.13896 10.81848,-1.26859 35.96378,5.58096 33.29127,-12.10945 -10.55595,-19.69827 -26.82087,-35.70589 -42.75677,-51.13576 -6.30768,-9.25541 -15.79674,-11.1412 -25.90593,-11.22813 z m -68.05788,5.91864 c -0.517,-1.2175 -1.00955,-2.44509 -1.44726,-3.69807 l 0.50762,4.57507 c 0.3073,-0.30891 0.62337,-0.59507 0.93964,-0.877 z"
       id="rect883"
       inkscape:connector-curvature="0" />
  </g>
</svg>
