<?xml version="1.0" encoding="UTF-8" standalone="no"?>
<!-- Created with Inkscape (http://www.inkscape.org/) -->

<svg
   xmlns:dc="http://purl.org/dc/elements/1.1/"
   xmlns:cc="http://creativecommons.org/ns#"
   xmlns:rdf="http://www.w3.org/1999/02/22-rdf-syntax-ns#"
   xmlns:svg="http://www.w3.org/2000/svg"
   xmlns="http://www.w3.org/2000/svg"
   xmlns:sodipodi="http://sodipodi.sourceforge.net/DTD/sodipodi-0.dtd"
   xmlns:inkscape="http://www.inkscape.org/namespaces/inkscape"
   width="204"
   height="204"
   id="svg2"
   version="1.1"
   inkscape:version="0.92.4 5da689c313, 2019-01-14"
   sodipodi:docname="fork.svg"
   inkscape:export-filename="../../../picts/flat/fork.png"
   inkscape:export-xdpi="120.47059"
   inkscape:export-ydpi="120.47059">
  <defs
     id="defs4" />
  <sodipodi:namedview
     id="base"
     pagecolor="#ffffff"
     bordercolor="#666666"
     borderopacity="1.0"
     inkscape:pageopacity="0.0"
     inkscape:pageshadow="2"
     inkscape:zoom="1.979899"
     inkscape:cx="-41.435299"
     inkscape:cy="119.06241"
     inkscape:document-units="px"
     inkscape:current-layer="layer1"
     showgrid="false"
     inkscape:window-width="1920"
     inkscape:window-height="1043"
     inkscape:window-x="0"
     inkscape:window-y="0"
     inkscape:window-maximized="1"
     fit-margin-top="0"
     fit-margin-left="0"
     fit-margin-right="0"
     fit-margin-bottom="0"
     inkscape:snap-grids="false"
     inkscape:snap-to-guides="false" />
  <metadata
     id="metadata7">
    <rdf:RDF>
      <cc:Work
         rdf:about="">
        <dc:format>image/svg+xml</dc:format>
        <dc:type
           rdf:resource="http://purl.org/dc/dcmitype/StillImage" />
        <dc:title></dc:title>
      </cc:Work>
    </rdf:RDF>
  </metadata>
  <g
     inkscape:label="Layer 1"
     inkscape:groupmode="layer"
     id="layer1"
     transform="translate(-606.5483,-527.08425)">
    <path
       style="fill:#000000;stroke:none;stroke-width:0.99999994"
       d="m 692.08676,715.48701 c -0.14232,-4.90513 1.33159,-10.09731 7.85655,-12.99085 5.05877,-6.58492 3.53444,-12.49644 2.49929,-39.70353 -6.68105,-0.53263 3.91434,0.63135 -14.08922,-2.20754 -8.19157,-1.41432 -11.15774,-8.405 -10.70181,-21.85695 -0.41602,-28.93543 0.12053,-80.25959 -0.0499,-109.19983 -0.10446,-2.3151 14.79919,-1.93363 15.52851,-0.55611 0.79412,44.37529 0.44353,45.89161 1.08867,106.64535 3.67018,9.19548 13.88375,8.31625 13.88375,8.31625 0,0 13.55606,0.79893 15.73994,-6.87542 0.11336,-22.89165 0.68769,-48.58963 0.23829,-107.79285 0.92991,-2.30933 14.64855,-2.29186 14.87029,0.11334 -7.1e-4,36.77803 1.17806,73.0515 0.37706,109.51949 0.35323,15.83533 -2.02458,18.12086 -9.72327,21.77915 -4.71684,1.48511 -9.5654,1.02333 -14.35222,1.39315 -0.08,25.11772 -1.83212,34.77832 2.9791,40.63237 6.45726,2.23402 10.4516,13.71385 5.8228,19.4796 -5.0376,7.69254 -17.53014,11.46734 -25.72051,5.48216 -4.13337,-2.8447 -6.27388,-7.56017 -6.24721,-12.17785 z"
       id="path2996"
       inkscape:connector-curvature="0"
       sodipodi:nodetypes="cccccccccccccccccccc"
       inkscape:export-filename="../../../picts/flat/path2996.png"
       inkscape:export-xdpi="120.54543"
       inkscape:export-ydpi="120.54543" />
  </g>
</svg>
