<?xml version="1.0" encoding="UTF-8" standalone="no"?>
<svg
   xmlns:dc="http://purl.org/dc/elements/1.1/"
   xmlns:cc="http://creativecommons.org/ns#"
   xmlns:rdf="http://www.w3.org/1999/02/22-rdf-syntax-ns#"
   xmlns:svg="http://www.w3.org/2000/svg"
   xmlns="http://www.w3.org/2000/svg"
   xmlns:sodipodi="http://sodipodi.sourceforge.net/DTD/sodipodi-0.dtd"
   xmlns:inkscape="http://www.inkscape.org/namespaces/inkscape"
   width="535"
   height="535"
   viewBox="0 0 534.99999 535.00002"
   version="1.1"
   id="svg7"
   sodipodi:docname="systemsettings.svg"
   inkscape:version="0.92.4 5da689c313, 2019-01-14"
   inkscape:export-filename="../../../picts/flat/systemsettings.png"
   inkscape:export-xdpi="45.936447"
   inkscape:export-ydpi="45.936447">
  <metadata
     id="metadata11">
    <rdf:RDF>
      <cc:Work
         rdf:about="">
        <dc:format>image/svg+xml</dc:format>
        <dc:type
           rdf:resource="http://purl.org/dc/dcmitype/StillImage" />
        <dc:title />
      </cc:Work>
    </rdf:RDF>
  </metadata>
  <sodipodi:namedview
     pagecolor="#ffffff"
     bordercolor="#666666"
     borderopacity="1"
     objecttolerance="10"
     gridtolerance="10"
     guidetolerance="10"
     inkscape:pageopacity="0"
     inkscape:pageshadow="2"
     inkscape:window-width="1920"
     inkscape:window-height="1043"
     id="namedview9"
     showgrid="false"
     fit-margin-top="0"
     fit-margin-left="0"
     fit-margin-right="0"
     fit-margin-bottom="0"
     inkscape:zoom="0.65186405"
     inkscape:cx="122.11947"
     inkscape:cy="476.14231"
     inkscape:window-x="0"
     inkscape:window-y="0"
     inkscape:window-maximized="1"
     inkscape:current-layer="svg7" />
  <defs
     id="defs3">
    <style
       id="current-color-scheme"
       type="text/css">
   .ColorScheme-Text { color:#444444; } .ColorScheme-Highlight { color:#4285f4; }
  </style>
  </defs>
  <path
     style="color:#444444;fill:#000000;fill-opacity:1;stroke-width:1.05676043"
     d="M 201.53516 3.3105469 L 195.71289 72.886719 C 173.65132 81.058583 153.13948 92.921094 135.05469 107.96875 L 71.818359 78.193359 L 5.7792969 192.58008 L 63.195312 232.45312 C 61.150779 244.0122 60.087932 255.72452 60.023438 267.46289 C 60.030836 279.24628 61.041473 291.00732 63.044922 302.61914 L 5.7792969 342.3457 L 71.818359 456.73438 L 134.9082 427.03125 C 153.05373 442.01492 173.61466 453.80315 195.71289 461.89258 L 201.38672 531.68945 L 333.46484 531.68945 L 339.28711 462.11328 C 361.34871 453.94144 381.85853 442.0789 399.94336 427.03125 L 463.18164 456.80664 L 529.21875 342.41992 L 471.80469 302.54688 C 473.84919 290.98777 474.91203 279.27544 474.97656 267.53711 C 474.96756 255.75368 473.9565 243.99267 471.95312 232.38086 L 529.2207 192.6543 L 463.18164 78.265625 L 400.0918 107.96875 C 381.94614 92.985102 361.38534 81.196849 339.28711 73.107422 L 333.61133 3.3105469 L 201.53516 3.3105469 z M 414.17383 142.69727 C 415.0376 142.68581 415.90161 142.69432 416.76367 142.7207 C 425.03942 142.97398 433.18272 144.97602 440.15039 148.8418 C 447.15164 152.72626 453.44392 159.82231 455.58594 166.24609 C 461.69849 184.57734 446.87223 203.72985 422.52539 208.95312 C 415.02689 210.56183 403.43291 210.44237 396.31055 208.68359 C 385.63054 206.04629 373.25606 196.57009 370.33789 188.79297 C 369.77367 187.28932 369.10093 186.38784 368.84375 186.79102 C 368.58659 187.19421 349.57352 226.71669 326.5918 274.61914 C 303.61007 322.52159 284.41225 362.18145 283.92969 362.75195 C 283.44713 363.32249 282.81184 363.75634 282.51758 363.71484 C 281.26552 363.53875 278.32781 361.95007 277.91992 361.22852 C 277.67638 360.79772 278.57897 357.43087 279.92578 353.74609 C 281.64473 349.04325 282.61796 344.34552 283.1875 337.98633 C 284.48852 323.46 282.84459 313.86193 272.19727 273.7793 C 264.06592 243.16827 264.86807 224.74727 275.17578 205.31445 C 278.37627 199.2807 280.63389 196.38615 286.37305 190.96484 C 290.32741 187.22945 294.14535 184.19496 294.85547 184.22266 C 295.56559 184.2504 297.29252 185.3164 298.69336 186.5918 C 303.15902 190.65758 302.32159 193.49477 292.94922 206.06445 C 283.72423 218.43652 281.91753 222.70855 281.51172 233.09375 C 281.04177 245.12 283.83083 256.94063 291.08398 273.66016 C 294.78982 282.20265 303.02646 297.91364 304.97656 300.16016 C 305.75417 301.05603 312.32594 288.0375 336.16602 238.36914 C 375.09845 157.25731 373.29324 160.74077 379.0918 155.50586 C 388.19993 147.28311 401.2172 142.86906 414.17383 142.69727 z M 169.76367 153.45117 C 175.91731 153.37937 181.53363 154.48867 186.46875 156.8125 C 196.07475 161.33573 205.38794 173.26044 207.64258 183.92188 C 208.03837 185.79351 208.37086 196.70429 208.38086 208.16797 C 208.39787 227.88428 208.4974 229.19509 210.23438 232.41406 C 212.80453 237.17708 215.93939 239.88376 223.07227 243.49414 C 237.45336 250.77331 243.27648 264.05429 237.5332 276.48242 C 235.30951 281.29439 225.29548 292.38984 219.64844 296.29883 L 217.28516 297.93359 L 239.47266 336.20898 C 268.36977 386.06195 268.4665 386.21508 272.88867 388.80664 C 274.88572 389.97698 277.04852 391.92426 277.69531 393.13281 C 278.92214 395.42516 280.81368 396.23058 280.00195 394.11523 C 279.3175 392.33159 281.63524 390.80384 284.08984 391.41992 C 286.84021 392.11023 287.89113 395.74558 285.91211 397.72461 C 284.75561 398.8811 284.21824 398.9409 282.82422 398.07031 C 280.48991 396.61251 280.69923 397.36979 283.90234 401.98242 C 286.27834 405.40401 286.70303 405.70317 286.92969 404.11133 C 287.63285 399.17306 293.89844 399.69998 293.89844 404.69727 C 293.89844 407.68812 291.95067 408.87814 289.53125 407.36719 C 287.20414 405.91388 287.58165 407.26517 290.68164 411.48047 C 293.3206 415.0689 293.44103 415.13182 293.9082 413.13867 C 294.83695 409.17615 300.70312 410.32791 300.70312 414.47266 C 300.70312 417.31572 298.46232 418.90387 296.33008 417.57227 C 294.83206 416.63674 294.73888 416.68719 295.48633 418.04688 C 295.94824 418.88711 297.33178 420.91702 298.56055 422.55469 L 300.79492 425.53125 L 297.55859 428.33594 C 292.35401 432.84847 287.88353 435.68974 282.14258 438.13281 C 279.18732 439.3904 276.41942 440.41992 275.99023 440.41992 C 275.56107 440.41992 274.24022 438.50554 273.05469 436.16602 C 271.86916 433.8265 270.69118 431.91211 270.4375 431.91211 C 270.18387 431.91211 270.22353 432.31239 270.52539 432.80078 C 271.26978 434.00522 269.36098 436.16602 267.55273 436.16602 C 265.95993 436.16602 263.27148 433.62485 263.27148 432.11914 C 263.27148 430.39095 265.95976 428.43747 267.61523 428.96289 C 269.64571 429.60735 269.63183 429.38856 267.35547 424.70312 C 265.47849 420.83975 263.9297 419.50256 264.6875 422.40039 C 265.32604 424.84214 262.83142 426.4168 260.21484 425.22461 C 258.45 424.4205 258.10628 423.74356 258.32422 421.48438 C 258.56746 418.96285 258.83033 418.73497 261.35742 418.84961 C 262.87813 418.9186 264.12109 418.83361 264.12109 418.66016 C 264.12109 418.4867 263.27905 416.61222 262.25 414.49414 C 260.34027 410.56333 258.82752 409.30932 259.61133 412.30664 C 260.15613 414.3899 256.28211 415.65877 254.32812 414.03711 C 251.40982 411.61513 253.78582 406.54608 257.31445 407.66602 L 259.0957 408.23047 L 257.35547 404.98438 C 256.38816 403.17956 255.61328 400.13658 255.61328 398.13672 C 255.61328 395.29171 254.66542 392.97564 251.08203 387.06641 C 245.27592 377.49176 202.91295 310.14795 201.88281 308.85547 C 201.31636 308.14477 199.18416 308.66213 194.03906 310.75977 C 184.63622 314.5932 175.6008 316.00156 169.37109 314.60742 C 162.3457 313.03521 158.46882 309.76223 154.77344 302.28516 C 151.85581 296.38172 151.60954 295.2844 151.31641 286.87109 C 150.76195 270.95734 148.16933 267.89927 126.04688 257.0957 C 105.25975 246.94424 98.631362 241.10453 93.923828 228.78711 C 89.976233 218.45803 90.925708 207.88217 96.804688 196.68359 C 100.54205 189.56443 112.8506 177.33318 122.90039 170.75 C 140.09069 159.48938 156.22568 153.60913 169.76367 153.45117 z "
     id="path5-7" />
</svg>
