<?xml version="1.0" encoding="UTF-8" standalone="no"?>
<!-- Created with Inkscape (http://www.inkscape.org/) -->

<svg
   xmlns:dc="http://purl.org/dc/elements/1.1/"
   xmlns:cc="http://creativecommons.org/ns#"
   xmlns:rdf="http://www.w3.org/1999/02/22-rdf-syntax-ns#"
   xmlns:svg="http://www.w3.org/2000/svg"
   xmlns="http://www.w3.org/2000/svg"
   xmlns:sodipodi="http://sodipodi.sourceforge.net/DTD/sodipodi-0.dtd"
   xmlns:inkscape="http://www.inkscape.org/namespaces/inkscape"
   version="1.1"
   width="1024"
   height="1024"
   id="svg2"
   inkscape:version="0.48.1 r9760"
   sodipodi:docname="4.svg">
  <sodipodi:namedview
     pagecolor="#ffffff"
     bordercolor="#666666"
     borderopacity="1"
     objecttolerance="10"
     gridtolerance="10"
     guidetolerance="10"
     inkscape:pageopacity="0"
     inkscape:pageshadow="2"
     inkscape:window-width="1600"
     inkscape:window-height="1176"
     id="namedview2992"
     showgrid="false"
     inkscape:zoom="0.5"
     inkscape:cx="427.21494"
     inkscape:cy="202.80004"
     inkscape:window-x="-2"
     inkscape:window-y="-3"
     inkscape:window-maximized="1"
     inkscape:current-layer="svg2"
     showguides="true"
     inkscape:guide-bbox="true">
    <sodipodi:guide
       orientation="1,0"
       position="98.531273,1149.0485"
       id="guide2992" />
  </sodipodi:namedview>
  <defs
     id="defs4" />
  <metadata
     id="metadata7">
    <rdf:RDF>
      <cc:Work
         rdf:about="">
        <dc:format>image/svg+xml</dc:format>
        <dc:type
           rdf:resource="http://purl.org/dc/dcmitype/StillImage" />
        <dc:title />
      </cc:Work>
    </rdf:RDF>
  </metadata>
  <g
     style="font-size:1197.60473633px;font-style:normal;font-variant:normal;font-weight:normal;font-stretch:normal;line-height:125%;letter-spacing:0px;word-spacing:0px;fill:#000000;fill-opacity:1;stroke:none;font-family:Emmentaler;-inkscape-font-specification:Emmentaler"
     id="text3033"
     transform="translate(-54,0)">
    <path
       d="m 432.35927,212.00003 c -10.77843,0 -20.35928,11.97606 -20.35928,25.1497 0,243.11351 -149.70059,373.65269 -149.70059,391.61675 0,13.17363 10.77848,33.53293 45.50898,33.53293 l 182.03592,0 c -2.39521,61.07778 -40.71862,114.97005 -97.00598,114.97005 -11.97604,0 -16.76647,9.58085 -16.76647,17.96407 0,8.38323 4.79043,16.76647 16.76647,16.76647 58.68257,0 116.16772,-16.76647 174.85029,-16.76647 58.68257,0 114.97011,16.76647 173.65269,16.76647 11.97603,0 17.96407,-8.38324 17.96407,-16.76647 0,-8.38322 -5.98804,-17.96407 -17.96407,-17.96407 -56.28737,0 -93.41318,-53.89227 -95.80838,-114.97005 l 94.61077,0 c 14.37124,0 21.55689,-10.77846 21.55689,-21.55689 0,-10.77843 -7.18565,-21.55688 -21.55689,-21.55688 l -94.61077,0 0,-259.88023 c 0,-13.17364 -9.58085,-20.35928 -19.16168,-20.35928 -19.16166,0 -19.1617,33.53297 -46.70658,70.65868 -45.50894,61.07778 -89.82036,45.50903 -89.82036,94.61077 l 0,114.97006 -182.03592,0 337.72454,-382.03591 c 2.3952,-2.39521 2.39521,-5.98803 2.39521,-8.38324 0,-8.38322 -8.38325,-16.76646 -20.35928,-16.76646 -13.17364,0 -50.29945,17.96407 -99.4012,17.96407 -43.11372,0 -92.21557,-17.96407 -95.80838,-17.96407"
       id="path3038"
       inkscape:connector-curvature="0" />
  </g>
  <path
     style="font-size:medium;font-style:normal;font-variant:normal;font-weight:normal;font-stretch:normal;text-indent:0;text-align:start;text-decoration:none;line-height:normal;letter-spacing:normal;word-spacing:normal;text-transform:none;direction:ltr;block-progression:tb;writing-mode:lr-tb;text-anchor:start;baseline-shift:baseline;color:#000000;fill:#000000;fill-opacity:1;stroke:none;stroke-width:20;marker:none;visibility:visible;display:inline;overflow:visible;enable-background:accumulate;font-family:Sans;-inkscape-font-specification:Sans"
     d="M 500.05551,124.14361 C 279.16505,124.14361 100,303.3824 100,524.0718 100,744.76121 279.16505,924 500.05551,924 c 220.89045,0 400.08865,-179.23879 400.08865,-399.9282 0,-220.6894 -179.1982,-399.92819 -400.08865,-399.92819 z m 0,20.95751 c 209.29455,0 378.88315,169.47509 378.88315,378.97068 0,209.4956 -169.5886,378.97069 -378.88315,378.97069 -209.29453,0 -378.84998,-169.47509 -378.84998,-378.97069 0,-209.49559 169.55545,-378.97068 378.84998,-378.97068 z"
     id="path2985"
     inkscape:connector-curvature="0" />
</svg>
