<?xml version="1.0" encoding="UTF-8" standalone="no"?>
<!-- Created with Inkscape (http://www.inkscape.org/) -->

<svg
   xmlns:dc="http://purl.org/dc/elements/1.1/"
   xmlns:cc="http://creativecommons.org/ns#"
   xmlns:rdf="http://www.w3.org/1999/02/22-rdf-syntax-ns#"
   xmlns:svg="http://www.w3.org/2000/svg"
   xmlns="http://www.w3.org/2000/svg"
   xmlns:sodipodi="http://sodipodi.sourceforge.net/DTD/sodipodi-0.dtd"
   xmlns:inkscape="http://www.inkscape.org/namespaces/inkscape"
   width="300"
   height="1000"
   id="svg5826"
   version="1.1"
   inkscape:version="0.48.4 r9939"
   sodipodi:docname="clef-G.svg">
  <defs
     id="defs5828" />
  <sodipodi:namedview
     id="base"
     pagecolor="#ffffff"
     bordercolor="#666666"
     borderopacity="1.0"
     inkscape:pageopacity="0.0"
     inkscape:pageshadow="2"
     inkscape:zoom="0.7"
     inkscape:cx="94.476395"
     inkscape:cy="523.85611"
     inkscape:document-units="px"
     inkscape:current-layer="layer1"
     showgrid="false"
     inkscape:window-width="1600"
     inkscape:window-height="1176"
     inkscape:window-x="-2"
     inkscape:window-y="-3"
     inkscape:window-maximized="1"
     showguides="true"
     inkscape:guide-bbox="true">
    <sodipodi:guide
       orientation="0,1"
       position="-105.71429,484.28571"
       id="guide2988" />
  </sodipodi:namedview>
  <metadata
     id="metadata5831">
    <rdf:RDF>
      <cc:Work
         rdf:about="">
        <dc:format>image/svg+xml</dc:format>
        <dc:type
           rdf:resource="http://purl.org/dc/dcmitype/StillImage" />
        <dc:title></dc:title>
      </cc:Work>
    </rdf:RDF>
  </metadata>
  <g
     inkscape:label="Layer 1"
     inkscape:groupmode="layer"
     id="layer1"
     transform="translate(0,-52.362183)">
    <path
       style="fill:currentColor"
       inkscape:connector-curvature="0"
       d="M 116.89092,441.47279 C 102.5827,391.81471 94.16609,344.26074 94.16609,281.9777 c 0,-50.49978 23.56653,-97.6329 63.54559,-128.35349 0.84223,-0.84223 2.10413,-1.26203 3.36652,-1.26203 1.26206,0 2.52511,0.42109 3.36669,1.26203 31.98317,37.8748 60.17894,111.09943 60.17894,162.02003 0,63.12478 -37.8748,112.36199 -79.95798,159.91595 9.2583,30.72075 17.67491,61.86223 25.67066,93.00379 h 2.52498 c 64.80814,0 106.89121,53.44547 106.89121,108.99533 0,31.98315 -13.88742,64.38718 -45.02886,87.53287 -10.52086,7.99575 -22.30415,13.46668 -34.92913,16.83333 0,5.47081 0.42112,11.36243 0.42112,16.83325 0,19.35816 -0.42112,38.71646 -1.68327,58.07466 -2.94583,50.92064 -39.5582,95.52876 -90.05799,95.52876 -46.71224,0 -85.00788,-38.7165 -85.00788,-86.27046 0,-24.40824 22.72484,-43.76643 47.55396,-43.76643 22.72483,0 39.9789,20.19989 39.9789,43.76643 0,21.8833 -18.09564,39.97906 -39.9789,39.97906 -5.47081,0 -11.36243,-1.68341 -16.4124,-4.20838 10.94159,19.77904 31.14148,33.66657 54.70801,33.66657 41.66234,0 69.85799,-38.7165 72.38309,-81.2205 1.26202,-18.51662 1.68327,-37.45395 1.68327,-55.97057 v -13.04583 c -10.94158,1.6834 -21.88329,2.5251 -33.24572,2.5251 C 71.02065,787.81717 10,715.85494 10,631.26776 10,555.09733 66.39141,499.12677 116.8912,441.47279 z m 82.48294,324.04024 c 30.72074,-9.25832 52.18319,-40.82061 52.18319,-71.54135 0,-37.8748 -26.93322,-74.90803 -70.69968,-80.79969 9.67903,46.29157 16.83324,100.57885 18.51649,152.34104 z m -47.97466,5.47078 c 10.5207,0 21.04156,-0.42111 31.5623,-2.10411 -1.68328,-53.44562 -9.67915,-108.9953 -19.77904,-156.54925 -36.61238,2.10409 -57.23312,26.09152 -57.23312,52.18303 0,18.93747 10.94158,38.7165 34.929,52.60389 1.68341,1.6834 2.94581,3.78752 2.94581,5.89165 0,4.62921 -3.78751,8.83746 -8.41661,8.83746 -1.26203,0 -2.52495,-0.42113 -3.7875,-0.84223 -33.66646,-18.09564 -48.81638,-47.97468 -48.81638,-77.43288 0,-37.87493 25.67066,-74.90803 70.69964,-83.32464 -6.73332,-26.93321 -14.72909,-53.44558 -22.30411,-79.95795 -46.2914,52.18304 -92.58281,104.78707 -92.58281,174.22417 0,58.07482 55.12885,106.47036 112.78282,106.47036 z m 29.87902,-558.86405 c -42.08315,23.14568 -68.17467,66.91211 -68.17467,114.88692 0,37.8748 7.99575,68.1747 16.83321,99.3163 36.19152,-42.92488 66.4913,-87.95387 66.4913,-143.92443 0,-30.72074 -3.36655,-43.34557 -15.14984,-70.27879 z"
       id="path5597" />
    <text
       xml:space="preserve"
       style="font-size:18px;font-style:normal;font-variant:normal;font-weight:normal;font-stretch:normal;line-height:125%;letter-spacing:0px;word-spacing:0px;fill:#000000;fill-opacity:1;stroke:none;font-family:Emmentaler;-inkscape-font-specification:Emmentaler"
       x="487.14288"
       y="349.50504"
       id="text5867"
       sodipodi:linespacing="125%"><tspan
         sodipodi:role="line"
         id="tspan5869"
         x="487.14288"
         y="349.50504"
         style="font-size:600px" /></text>
  </g>
</svg>
