<?xml version="1.0" encoding="UTF-8" standalone="no"?>
<!-- Created with Inkscape (http://www.inkscape.org/) -->

<svg
   xmlns:dc="http://purl.org/dc/elements/1.1/"
   xmlns:cc="http://creativecommons.org/ns#"
   xmlns:rdf="http://www.w3.org/1999/02/22-rdf-syntax-ns#"
   xmlns:svg="http://www.w3.org/2000/svg"
   xmlns="http://www.w3.org/2000/svg"
   xmlns:sodipodi="http://sodipodi.sourceforge.net/DTD/sodipodi-0.dtd"
   xmlns:inkscape="http://www.inkscape.org/namespaces/inkscape"
   width="744.09448819"
   height="1052.3622047"
   id="svg3088"
   version="1.1"
   inkscape:version="0.48.4 r9939"
   sodipodi:docname="Nowy dokument 8">
  <defs
     id="defs3090" />
  <sodipodi:namedview
     id="base"
     pagecolor="#ffffff"
     bordercolor="#666666"
     borderopacity="1.0"
     inkscape:pageopacity="0.0"
     inkscape:pageshadow="2"
     inkscape:zoom="0.49497475"
     inkscape:cx="1046.2986"
     inkscape:cy="422.2713"
     inkscape:document-units="px"
     inkscape:current-layer="layer1"
     showgrid="false"
     inkscape:window-width="1366"
     inkscape:window-height="744"
     inkscape:window-x="-2"
     inkscape:window-y="-3"
     inkscape:window-maximized="1" />
  <metadata
     id="metadata3093">
    <rdf:RDF>
      <cc:Work
         rdf:about="">
        <dc:format>image/svg+xml</dc:format>
        <dc:type
           rdf:resource="http://purl.org/dc/dcmitype/StillImage" />
        <dc:title></dc:title>
      </cc:Work>
    </rdf:RDF>
  </metadata>
  <g
     inkscape:label="Layer 1"
     inkscape:groupmode="layer"
     id="layer1">
    <path
       style="fill:#000000"
       d="m 413.48798,511.84366 c -0.42613,-5.1386 -0.82964,-5.95259 -4.33754,-8.75 -8.8927,-7.09157 -8.94257,-7.1574 -8.90107,-11.74776 0.0216,-2.38512 1.06054,-7.43761 2.30883,-11.22776 2.64267,-8.02389 1.86918,-10.10475 -2.48344,-6.68098 -1.96615,1.54658 -3.51968,1.99907 -5.31572,1.54829 -4.0142,-1.0075 -5.04888,-2.42359 -5.04888,-6.91001 0,-9.58871 11.2124,-12.82462 13.45646,-3.88356 1.41948,5.65565 2.94759,4.58759 5.65,-3.94904 2.09294,-6.61138 2.34548,-8.38756 1.28186,-9.01538 -0.81572,-0.48149 -2.1052,-0.001 -3.35646,1.25 -2.58605,2.58605 -6.46399,2.59973 -9.03186,0.0319 -4.31297,-4.31297 -0.8062,-14 5.06809,-14 3.32493,0 6.93191,3.06639 6.93191,5.89301 0,1.87415 2.58209,3.67463 3.31755,2.31332 0.20988,-0.38848 1.43332,-3.9748 2.71875,-7.9696 1.7766,-5.52119 2.05819,-7.54224 1.17406,-8.42637 -0.88414,-0.88414 -1.64774,-0.72451 -3.18372,0.66553 -1.93018,1.74679 -6.90913,2.3328 -8.97457,1.05629 -1.95958,-1.21109 -2.37177,-7.63855 -0.71293,-11.11717 2.91317,-6.10898 10.77689,-5.60568 12.43571,0.79591 1.41379,5.456 3.37212,3.94578 5.9727,-4.60603 1.9238,-6.32627 2.14082,-8.05585 1.09212,-8.70398 -0.81197,-0.50182 -2.09826,-0.0672 -3.38866,1.14512 -5.60178,5.26259 -12.97171,-0.90825 -10.39811,-8.70633 1.20746,-3.65861 3.48252,-5.3397 7.22637,-5.3397 2.69671,0 5.72073,2.79821 5.72073,5.29356 0,0.89984 0.85033,2.09115 1.88962,2.64736 1.47975,0.79194 2.00456,0.6369 2.41955,-0.71481 4.43535,-14.44677 4.60229,-15.32286 3.03439,-15.92452 -0.84998,-0.32616 -1.84665,-0.1056 -2.21484,0.49013 -0.36818,0.59574 -1.95851,1.57327 -3.53405,2.17229 -5.71322,2.17216 -9.9109,-3.44577 -7.66329,-10.25608 2.32908,-7.05721 10.48684,-7.49824 12.69757,-0.68647 1.92612,5.93481 3.73478,4.86889 6.33854,-3.73555 1.29583,-4.28225 2.55641,-8.34841 2.80127,-9.03591 0.69777,-1.95908 -2.55832,-1.46546 -5.71162,0.86588 -6.42985,4.75379 -12.55493,-2.65475 -8.7652,-10.60189 2.95784,-6.20265 10.80838,-5.76529 12.48251,0.6954 1.22684,4.73453 3.53323,4.65231 5.72313,-0.20402 4.31409,-9.56694 15.95188,-15.35785 26.45601,-13.16438 6.48245,1.35367 11.4112,5.0286 15.44732,11.51768 2.30424,3.70465 2.997,6.16111 3.36805,11.94286 0.76257,11.88259 -3.07431,18.51224 -15.53052,26.83476 -2.17014,1.44996 -4.15236,3.47496 -4.40494,4.5 -0.76589,3.10826 1.77424,19.0002 5.57253,34.86371 3.69838,15.44623 6.43535,34.86502 5.3227,37.76454 -0.34661,0.90325 -3.53368,3.47599 -7.08238,5.7172 -7.33079,4.62981 -10.43334,8.27465 -14.67427,17.23918 -2.58895,5.47255 -2.9706,7.40299 -2.97129,15.02908 l -7.9e-4,8.75 -19.87617,0 -19.87617,0 -0.46984,-5.66566 z"
       id="path3161"
       inkscape:connector-curvature="0" />
  </g>
</svg>
