<?xml version="1.0" encoding="UTF-8" standalone="no"?>
<!-- Created with Inkscape (http://www.inkscape.org/) -->

<svg
   xmlns:dc="http://purl.org/dc/elements/1.1/"
   xmlns:cc="http://creativecommons.org/ns#"
   xmlns:rdf="http://www.w3.org/1999/02/22-rdf-syntax-ns#"
   xmlns:svg="http://www.w3.org/2000/svg"
   xmlns="http://www.w3.org/2000/svg"
   xmlns:sodipodi="http://sodipodi.sourceforge.net/DTD/sodipodi-0.dtd"
   xmlns:inkscape="http://www.inkscape.org/namespaces/inkscape"
   width="744.09003"
   height="1000"
   id="svg3088"
   version="1.1"
   inkscape:version="0.48.4 r9939"
   sodipodi:docname="electric-head.svg">
  <defs
     id="defs3090" />
  <sodipodi:namedview
     id="base"
     pagecolor="#ffffff"
     bordercolor="#666666"
     borderopacity="1.0"
     inkscape:pageopacity="0.0"
     inkscape:pageshadow="2"
     inkscape:zoom="0.49497475"
     inkscape:cx="1046.2986"
     inkscape:cy="503.0835"
     inkscape:document-units="px"
     inkscape:current-layer="layer1"
     showgrid="false"
     inkscape:window-width="1366"
     inkscape:window-height="744"
     inkscape:window-x="-2"
     inkscape:window-y="-3"
     inkscape:window-maximized="1"
     showguides="true"
     inkscape:guide-bbox="true">
    <sodipodi:guide
       orientation="0,1"
       position="-68.690373,147.48227"
       id="guide2983" />
    <sodipodi:guide
       orientation="0,1"
       position="-48.487322,850.54844"
       id="guide2985" />
  </sodipodi:namedview>
  <metadata
     id="metadata3093">
    <rdf:RDF>
      <cc:Work
         rdf:about="">
        <dc:format>image/svg+xml</dc:format>
        <dc:type
           rdf:resource="http://purl.org/dc/dcmitype/StillImage" />
        <dc:title />
      </cc:Work>
    </rdf:RDF>
  </metadata>
  <g
     inkscape:label="Layer 1"
     inkscape:groupmode="layer"
     id="layer1"
     transform="translate(0,-52.362183)">
    <path
       style="fill:#000000"
       d="m 270.93871,880.61347 c -1.7129,-20.65539 -3.33488,-23.92736 -17.43543,-35.17198 -35.74557,-28.50566 -35.94604,-28.77027 -35.77921,-47.22193 0.0867,-9.58737 4.263,-29.89662 9.2807,-45.13172 10.62261,-32.25326 7.51345,-40.61761 -9.98258,-26.85523 -7.90323,6.21672 -14.1479,8.03557 -21.36736,6.22359 -16.1357,-4.0498 -20.29475,-9.742 -20.29475,-27.77586 0,-38.54328 45.06997,-51.55055 54.09033,-15.61056 5.70581,22.73375 11.84829,18.44052 22.71104,-15.87378 8.4129,-26.57546 9.42802,-33.71508 5.15263,-36.23871 -3.27892,-1.93542 -8.46217,-0.004 -13.49181,5.02456 -10.39503,10.39504 -25.98301,10.45003 -36.30495,0.12827 -17.33665,-17.33664 -3.24064,-56.27517 20.37196,-56.27517 13.36508,0 27.86389,12.32584 27.86389,23.68787 0,7.53344 10.37912,14.77074 13.33541,9.29874 0.84364,-1.56154 5.76144,-15.97732 10.92844,-32.03503 7.14131,-22.19328 8.27321,-30.3172 4.71931,-33.8711 -3.55394,-3.55393 -6.62335,-2.91227 -12.79745,2.6752 -7.75867,7.02151 -27.77233,9.37706 -36.07468,4.24593 -7.87684,-4.86817 -9.53369,-30.70433 -2.86573,-44.68719 11.70994,-24.55598 43.31937,-22.53289 49.98726,3.19929 5.68295,21.93123 13.55475,15.86066 24.00819,-18.51466 7.73301,-25.42941 8.60535,-32.38173 4.38994,-34.98698 -3.26384,-2.01715 -8.43428,-0.27013 -13.62125,4.60299 -22.51721,21.15379 -52.14178,-3.65087 -41.7968,-34.99645 4.85357,-14.70635 13.99854,-21.46374 29.04752,-21.46374 10.83983,0 22.99535,11.24783 22.99535,21.27828 0,3.61705 3.41803,8.4057 7.59563,10.64147 5.94808,3.18332 8.05763,2.56012 9.72575,-2.87328 17.82857,-58.07102 18.49961,-61.59261 12.1972,-64.01109 -3.41663,-1.31103 -7.4229,-0.42446 -8.90291,1.97016 -1.47995,2.39467 -7.87252,6.32401 -14.20564,8.73186 -22.96519,8.73134 -39.83841,-13.8508 -30.80378,-41.2259 9.36209,-28.36755 42.15346,-30.14034 51.03984,-2.75938 7.74234,23.8559 15.01252,19.57127 25.47874,-15.01562 5.20879,-17.21317 10.27588,-33.55771 11.26013,-36.32123 2.8048,-7.87482 -10.28355,-5.89065 -22.95873,3.48053 -25.84577,19.1086 -50.46648,-10.67117 -35.23307,-42.61593 11.88949,-24.9325 43.44595,-23.17447 50.17538,2.79526 4.93147,19.03118 14.20236,18.70069 23.005,-0.82009 17.34116,-38.45579 64.12105,-61.73325 106.34401,-52.91625 26.05721,5.44128 45.86909,20.21323 62.09289,46.29709 9.26225,14.89142 12.04691,24.76554 13.5384,48.00618 3.06527,47.76391 -12.35767,74.41281 -62.42731,107.86648 -8.72322,5.82832 -16.69107,13.96812 -17.70635,18.08843 -3.07861,12.49414 7.13184,76.37425 22.39965,140.14007 14.86621,62.08851 25.86789,140.14535 21.39542,151.8004 -1.39327,3.63076 -14.20418,13.97228 -28.46872,22.98118 -29.46725,18.61023 -41.93843,33.26122 -58.98551,69.29553 -10.40667,21.99778 -11.94078,29.75747 -11.94355,60.41173 l -0.003,35.17197 -79.89534,0 -79.89534,0 -1.88859,-22.77399 z"
       id="path3161"
       inkscape:connector-curvature="0" />
  </g>
</svg>
