<?xml version="1.0" encoding="UTF-8" standalone="no"?>
<!-- Created with Inkscape (http://www.inkscape.org/) -->

<svg
   xmlns:dc="http://purl.org/dc/elements/1.1/"
   xmlns:cc="http://creativecommons.org/ns#"
   xmlns:rdf="http://www.w3.org/1999/02/22-rdf-syntax-ns#"
   xmlns:svg="http://www.w3.org/2000/svg"
   xmlns="http://www.w3.org/2000/svg"
   xmlns:sodipodi="http://sodipodi.sourceforge.net/DTD/sodipodi-0.dtd"
   xmlns:inkscape="http://www.inkscape.org/namespaces/inkscape"
   width="744.09448819"
   height="1052.3622047"
   id="svg2"
   version="1.1"
   inkscape:version="0.48.4 r9939"
   sodipodi:docname="Nowy dokument 1">
  <defs
     id="defs4" />
  <sodipodi:namedview
     id="base"
     pagecolor="#ffffff"
     bordercolor="#666666"
     borderopacity="1.0"
     inkscape:pageopacity="0.0"
     inkscape:pageshadow="2"
     inkscape:zoom="0.98994949"
     inkscape:cx="359.78398"
     inkscape:cy="638.66909"
     inkscape:document-units="px"
     inkscape:current-layer="layer1"
     showgrid="false"
     inkscape:window-width="1366"
     inkscape:window-height="744"
     inkscape:window-x="-2"
     inkscape:window-y="-3"
     inkscape:window-maximized="1" />
  <metadata
     id="metadata7">
    <rdf:RDF>
      <cc:Work
         rdf:about="">
        <dc:format>image/svg+xml</dc:format>
        <dc:type
           rdf:resource="http://purl.org/dc/dcmitype/StillImage" />
        <dc:title></dc:title>
      </cc:Work>
    </rdf:RDF>
  </metadata>
  <g
     inkscape:label="Layer 1"
     inkscape:groupmode="layer"
     id="layer1">
    <path
       style="fill:#000000"
       d="m 174.5691,477.49978 c -0.21605,-11.41553 0.92525,-24.06676 -6.05575,-33.99892 -4.24197,-8.55823 -12.20985,-14.0667 -20.09385,-18.94851 0.94797,-8.43505 2.1915,-16.84583 2.78236,-25.3142 -10.369,1.27852 -13.97173,13.73419 -22.82401,15.51633 -13.54223,-2.51526 -2.39777,-18.27354 -5.57879,-27.3441 -3.11952,-11.65294 11.99715,-16.06326 16.26404,-4.97559 4.91533,6.80697 17.23296,9.13992 13.99306,-3.04407 1.11908,-17.84591 0.90903,-35.73212 0.86341,-53.60247 -9.5189,-0.62483 -14.55331,8.78583 -19.8308,14.94547 -9.74121,4.99441 -14.10279,-6.51462 -9.84152,-13.95119 1.55191,-8.23077 -6.29472,-24.36064 6.99664,-24.90653 7.59819,1.91548 10.5442,13.77906 20.28144,13.00082 3.84569,0.30557 0.70705,-5.71444 1.40701,-8.25788 -0.68359,-11.75069 -1.36718,-23.50139 -2.05078,-35.25208 8.54135,-0.058 17.5607,0.88092 25.19428,-3.82395 8.05641,-4.94853 17.24218,-5.70508 26.40922,-5.88343 10.18486,-1.09523 19.35309,6.00223 29.65076,5.58627 9.31682,-2.39003 20.98019,0.0521 16.86541,12.33051 0.94649,9.00613 -4.41186,21.92106 2.28424,28.49411 10.48303,1.41541 16.08544,-9.40327 23.8368,-14.20499 14.68304,-2.43428 6.39187,15.49019 7.38792,23.55977 4.13948,8.24809 -3.71412,22.57312 -12.23015,13.17584 -3.63543,-6.86585 -17.80989,-16.06213 -22.0074,-7.91346 -3.03919,4.52847 -1.59042,16.83868 -1.45007,24.85965 0.50039,11.31264 1.08824,22.62122 1.63103,33.93189 7.71504,2.015 15.57696,0.44784 21.17524,-6.04088 3.97882,-6.60573 12.47777,-10.71025 18.04104,-3.56656 -3.62594,10.24636 -2.6372,21.27043 -2.6915,31.93737 -7.86431,9.31366 -14.20566,-1.64439 -19.83917,-6.94976 -8.75541,-7.3698 -19.95475,-2.11016 -14.20553,9.33258 2.92321,9.71386 1.02541,19.83136 -8.15885,25.1467 -9.85509,11.88987 -17.60911,26.7944 -18.06115,42.48191 1.10419,4.20079 -5.14448,1.58304 -7.56597,2.51435 -14.18533,0.4684 -28.39279,1.49645 -42.5786,1.165 z"
       id="path3066"
       inkscape:connector-curvature="0" />
  </g>
</svg>
