<?xml version="1.0" encoding="UTF-8" standalone="no"?>
<!-- Created with Inkscape (http://www.inkscape.org/) -->

<svg
   xmlns:dc="http://purl.org/dc/elements/1.1/"
   xmlns:cc="http://creativecommons.org/ns#"
   xmlns:rdf="http://www.w3.org/1999/02/22-rdf-syntax-ns#"
   xmlns:svg="http://www.w3.org/2000/svg"
   xmlns="http://www.w3.org/2000/svg"
   xmlns:sodipodi="http://sodipodi.sourceforge.net/DTD/sodipodi-0.dtd"
   xmlns:inkscape="http://www.inkscape.org/namespaces/inkscape"
   width="744.09448"
   height="1000"
   id="svg3005"
   version="1.1"
   inkscape:version="0.48.4 r9939"
   sodipodi:docname="head-classic.svg">
  <defs
     id="defs3007" />
  <sodipodi:namedview
     id="base"
     pagecolor="#ffffff"
     bordercolor="#666666"
     borderopacity="1.0"
     inkscape:pageopacity="0.0"
     inkscape:pageshadow="2"
     inkscape:zoom="1.4"
     inkscape:cx="288.72668"
     inkscape:cy="486.8845"
     inkscape:document-units="px"
     inkscape:current-layer="layer1"
     showgrid="false"
     inkscape:window-width="1600"
     inkscape:window-height="1176"
     inkscape:window-x="-2"
     inkscape:window-y="-3"
     inkscape:window-maximized="1"
     showguides="true"
     inkscape:guide-bbox="true">
    <sodipodi:guide
       orientation="0,1"
       position="-88.893424,800.04082"
       id="guide3100" />
    <sodipodi:guide
       orientation="0,1"
       position="-69.700526,197.9899"
       id="guide3102" />
    <sodipodi:guide
       orientation="0,1"
       position="40.406102,572.75649"
       id="guide3818" />
    <sodipodi:guide
       orientation="0,1"
       position="103.03556,541.44176"
       id="guide3820" />
    <sodipodi:guide
       orientation="0,1"
       position="167.68532,449.51788"
       id="guide3822" />
    <sodipodi:guide
       orientation="0,1"
       position="192.93913,418.20315"
       id="guide3824" />
    <sodipodi:guide
       orientation="0,1"
       position="200.0102,326.27927"
       id="guide3826" />
    <sodipodi:guide
       orientation="0,1"
       position="189.90868,297.995"
       id="guide3828" />
    <sodipodi:guide
       orientation="0,1"
       position="488.91383,281.83256"
       id="guide3830" />
  </sodipodi:namedview>
  <metadata
     id="metadata3010">
    <rdf:RDF>
      <cc:Work
         rdf:about="">
        <dc:format>image/svg+xml</dc:format>
        <dc:type
           rdf:resource="http://purl.org/dc/dcmitype/StillImage" />
        <dc:title />
      </cc:Work>
    </rdf:RDF>
  </metadata>
  <g
     inkscape:label="Layer 1"
     inkscape:groupmode="layer"
     id="layer1"
     transform="translate(0,-52.362183)">
    <path
       style="opacity:1;fill:#000000"
       d="m 285.64779,844.99973 c -5.25466,-20.76826 -16.25988,-39.64658 -21.62328,-60.28401 -12.90322,-6.4549 8.5457,-36.59895 -11.76799,-23.56083 -20.79242,-6.68704 -1.8813,-43.15029 -22.06931,-51.4648 -17.02567,-1.94553 -26.93826,-29.08132 -3.00782,-25.49486 16.3809,2.57703 38.85951,18.88479 31.86845,-9.13685 -2.74874,-15.75129 6.37334,-46.30433 -18.89202,-37.493 -5.82582,-22.04781 -3.06723,-46.39516 -28.54723,-56.25672 -17.18283,-25.72826 29.39254,-20.89388 42.34317,-11.79912 -1.01305,-16.90985 2.32294,-43.55429 -5.6174,-54.52318 -30.04847,9.30486 -7.24265,-41.36916 -31.00455,-48.70305 -10.56056,-8.16094 -26.60671,-19.8519 -11.56267,-31.96583 17.13004,-8.70411 51.44488,26.67591 42.33439,-7.84578 -0.24448,-17.39884 -4.65637,-43.86355 5.24885,-50.47074 3.71646,-16.22088 -5.88862,-40.1281 20.55448,-39.47435 32.72854,-10.97168 43.87216,-46.34517 63.72308,-70.7648 22.83826,-18.58252 21.44738,18.12722 30.27868,22.40991 23.68697,7.53091 11.41017,-36.22554 36.44793,-26.14745 24.36509,20.75318 31.54175,57.95484 61.79223,73.16551 14.85827,4.38378 33.34821,9.54663 24.14672,29.0579 9.76787,21.30257 8.44072,44.43324 7.23813,68.24684 -8.85949,39.96999 30.74603,-13.87485 46.57809,6.67319 4.36796,21.91713 -33.19151,29.84716 -28.5854,54.67889 -0.59976,11.31752 -2.03587,36.72965 -19.30037,23.69659 -3.6888,18.78953 -3.20141,38.23135 -5.27985,57.29737 14.30682,-7.32736 34.58562,-18.46856 49.45088,-10.97225 10.6895,11.41509 -6.35477,18.40876 -12.68991,26.27134 -29.66657,5.2973 -6.79314,50.12923 -33.99112,51.64642 -12.86282,5.57484 -3.78456,39.3694 -7.34333,54.8292 13.8559,-8.42202 60.22718,-19.78424 44.84057,10.28617 -21.42793,11.67632 -30.25305,29.73162 -30.8251,53.40212 -10.53045,4.13042 -20.01436,-1.85732 -17.18144,15.5407 -0.84315,24.27453 -20.14278,42.7147 -25.13928,66.25645 2.60334,13.74326 -3.27846,17.16091 -15.80908,14.87686 -51.45134,0 -102.90266,0 -154.354,0 -0.75149,-3.99261 -1.50301,-7.98522 -2.2545,-11.97784 z m 56.06454,-90.63255 c -8.93551,0 -38.83173,0 -47.76724,0 -0.79155,9.5793 -0.61338,16.16244 1.0624,16.16244 10.47913,11.36422 35.60546,13.13199 47.34729,0 -1.03653,-11.42945 -0.64245,-16.16244 -0.64245,-16.16244 z m 109.50683,-0.051 c -8.93552,0 -41.76501,0.051 -46.40738,0.051 -0.79154,16.16244 -0.43488,16.16244 -0.43488,16.16244 14.01467,11.11168 33.72259,11.36422 46.97964,0 -0.14704,-7.55083 0.54169,-9.09986 -0.13737,-16.21344 z m 2.67621,-73.90077 c 0,-15.08319 2.52538,-31.17318 2.52538,-46.25638 -15.93018,0 -31.46916,0 -47.39934,0 -0.19047,29.57783 -3.36344,61.41048 -2.66465,90.98306 16.28575,-0.47497 29.97035,-0.95148 46.02338,-0.48723 0,-15.0832 1.51523,-29.15624 1.51523,-44.23945 z M 338.17085,634.15903 c -15.92877,0 -31.34766,0 -47.27643,0 0,30.1664 1.76777,61.75748 1.76777,91.92388 17.04572,0 32.10413,0 48.48033,0.50508 -0.66587,-31.30026 -2.62962,-65.57448 -2.97167,-92.42896 z m 120.03785,-75.4261 c 0,-15.0832 1.51523,-32.7293 1.51523,-47.81251 -16.81447,0 -30.59852,0 -47.16045,0 0,30.1664 -2.27285,61.75747 -2.27285,91.92388 16.56193,0 30.34599,0 46.90792,0 0,-15.08321 1.01015,-29.02817 1.01015,-44.11137 z M 337.25766,601.5269 c -1.17784,-27.67011 -2.80703,-61.49354 -2.57035,-90.2588 -16.56195,0 -32.80703,-0.31687 -49.36896,-0.31687 0,30.16639 2.27285,61.72667 2.27285,91.89307 18.94983,0 40.64396,0 48.90885,0 z M 460.98345,466.14526 c 6.9519,-26.97396 -22.83129,-57.22147 -41.7976,-28.59332 -4.87361,10.50312 -4.40003,32.16676 -4.66871,43.23289 15.49207,0 30.98415,0 46.47621,0 -0.003,-4.87959 -0.009,-9.76122 -0.0109,-14.63957 z m -128.42858,13.46043 c -0.65688,-24.11782 -3.23087,-59.1437 -30.084,-54.93957 -21.62847,8.02095 -17.4368,35.19054 -18.16258,53.62775 11.85398,0.65277 38.67558,0.46564 48.00415,-0.44671 -0.20751,-8.43052 1.27691,-11.65621 0.24239,-16.11422 l 0.50508,17.87275 z"
       id="path3078"
       inkscape:connector-curvature="0"
       sodipodi:nodetypes="cccccccccccccccccccccccccccccccccccccccccsccccsccccsccccccccccscccccccccccccccccccc" />
  </g>
</svg>
