<?xml version="1.0" encoding="UTF-8" standalone="no"?>
<!-- Created with Inkscape (http://www.inkscape.org/) -->

<svg
   xmlns:dc="http://purl.org/dc/elements/1.1/"
   xmlns:cc="http://creativecommons.org/ns#"
   xmlns:rdf="http://www.w3.org/1999/02/22-rdf-syntax-ns#"
   xmlns:svg="http://www.w3.org/2000/svg"
   xmlns="http://www.w3.org/2000/svg"
   xmlns:sodipodi="http://sodipodi.sourceforge.net/DTD/sodipodi-0.dtd"
   xmlns:inkscape="http://www.inkscape.org/namespaces/inkscape"
   width="744.09448"
   height="1000"
   id="svg2"
   version="1.1"
   inkscape:version="0.48.4 r9939"
   sodipodi:docname="head-bass.svg">
  <defs
     id="defs4" />
  <sodipodi:namedview
     id="base"
     pagecolor="#ffffff"
     bordercolor="#666666"
     borderopacity="1.0"
     inkscape:pageopacity="0.0"
     inkscape:pageshadow="2"
     inkscape:zoom="0.49497475"
     inkscape:cx="538.52376"
     inkscape:cy="536.81778"
     inkscape:document-units="px"
     inkscape:current-layer="layer1"
     showgrid="false"
     inkscape:window-width="1366"
     inkscape:window-height="744"
     inkscape:window-x="-2"
     inkscape:window-y="-3"
     inkscape:window-maximized="1"
     showguides="true"
     inkscape:guide-bbox="true">
    <sodipodi:guide
       orientation="0,1"
       position="-62.629458,856.60936"
       id="guide3001" />
    <sodipodi:guide
       orientation="0,1"
       position="-195.96959,149.50258"
       id="guide3003" />
  </sodipodi:namedview>
  <metadata
     id="metadata7">
    <rdf:RDF>
      <cc:Work
         rdf:about="">
        <dc:format>image/svg+xml</dc:format>
        <dc:type
           rdf:resource="http://purl.org/dc/dcmitype/StillImage" />
        <dc:title />
      </cc:Work>
    </rdf:RDF>
  </metadata>
  <g
     inkscape:label="Layer 1"
     inkscape:groupmode="layer"
     id="layer1"
     transform="translate(0,-52.362183)">
    <path
       style="fill:#000000"
       d="m 270.63336,899.97657 c -0.1509,-36.97946 4.1535,-77.89547 -17.977,-110.39627 -13.3261,-27.91967 -38.8652,-46.14184 -64.16281,-62.33055 3.4755,-27.27125 7.907,-54.4497 10.2277,-81.84601 -33.6414,3.64199 -45.9076,43.80636 -74.6613,49.15223 -43.735436,-8.79669 -6.88665,-59.29395 -16.7523,-88.82179 -9.542326,-37.88788 39.6249,-51.44393 52.9101,-15.33151 15.591,22.28059 55.36941,30.428 45.46281,-9.18548 4.482,-57.73999 4.6616,-115.67438 5.373,-173.54952 -30.79681,-2.48112 -47.55311,27.75317 -64.94031,47.44739 -31.78695,15.70604 -45.35859,-21.7755 -31.20098,-45.65391 5.42148,-26.58065 -19.214266,-79.1943 23.85588,-80.32317 24.5146,6.56854 33.4849,45.13024 65.05621,43.07805 12.4396,1.17445 2.5645,-18.47218 4.9536,-26.67543 -1.6489,-38.08733 -3.2978,-76.17472 -4.9467,-114.26206 27.6639,0.22278 56.8277,3.69706 81.7752,-11.17264 26.3285,-15.63844 56.1129,-17.64692 85.8088,-17.7838 33.0363,-3.05727 62.3863,20.36853 95.7552,19.5165 30.2873,-7.29217 67.9416,1.17734 54.0257,40.74305 2.6322,29.21174 -15.3418,70.779 6.0274,92.38767 33.8813,5.08775 52.5448,-29.67909 77.8783,-44.85677 47.668,-7.17751 19.9555,50.47209 22.7931,76.65323 13.0091,26.91036 -13.1134,72.92426 -40.2406,42.08187 -11.4433,-22.40976 -56.9049,-52.87324 -70.8903,-26.68567 -10.0602,14.51931 -5.9601,54.45545 -5.8911,80.43802 1.0766,36.65992 2.4367,73.31089 3.6508,109.96647 24.8883,6.89646 50.4243,2.1992 68.8661,-18.54534 13.203,-21.20131 40.924,-34.08516 58.5972,-10.68294 -12.235,33.00841 -9.5632,68.75728 -10.2518,103.29943 -25.9163,29.78412 -45.9257,-6.00827 -63.9148,-23.46047 -28,-24.28794 -69.5218,-13.50735 -51.4532,23.82625 0.42837,33.74161 -7.6325,72.13009 -22.6311,86.75937 -32.4872,38.03144 -58.3152,85.92684 -60.5332,136.70895 3.3739,13.65729 -16.7363,4.87932 -24.6232,7.77895 -45.9615,0.83496 -92.0217,3.48126 -137.9464,1.7259 z"
       id="path3066-5"
       inkscape:connector-curvature="0"
       sodipodi:nodetypes="ccccccccccccccccccccccccccccccccccc" />
  </g>
</svg>
