<?xml version="1.0" encoding="UTF-8" standalone="no"?>
<!-- Created with Inkscape (http://www.inkscape.org/) -->

<svg
   xmlns:dc="http://purl.org/dc/elements/1.1/"
   xmlns:cc="http://creativecommons.org/ns#"
   xmlns:rdf="http://www.w3.org/1999/02/22-rdf-syntax-ns#"
   xmlns:svg="http://www.w3.org/2000/svg"
   xmlns="http://www.w3.org/2000/svg"
   xmlns:sodipodi="http://sodipodi.sourceforge.net/DTD/sodipodi-0.dtd"
   xmlns:inkscape="http://www.inkscape.org/namespaces/inkscape"
   width="744.09448"
   height="1000"
   id="svg3005"
   version="1.1"
   inkscape:version="0.48.4 r9939"
   sodipodi:docname="head-classic.svg">
  <defs
     id="defs3007" />
  <sodipodi:namedview
     id="base"
     pagecolor="#ffffff"
     bordercolor="#666666"
     borderopacity="1.0"
     inkscape:pageopacity="0.0"
     inkscape:pageshadow="2"
     inkscape:zoom="0.49497475"
     inkscape:cx="410.29753"
     inkscape:cy="541.67046"
     inkscape:document-units="px"
     inkscape:current-layer="layer1"
     showgrid="false"
     inkscape:window-width="1366"
     inkscape:window-height="744"
     inkscape:window-x="-2"
     inkscape:window-y="-3"
     inkscape:window-maximized="1"
     showguides="true"
     inkscape:guide-bbox="true">
    <sodipodi:guide
       orientation="0,1"
       position="-88.893424,800.04082"
       id="guide3100" />
    <sodipodi:guide
       orientation="0,1"
       position="-69.700526,197.9899"
       id="guide3102" />
  </sodipodi:namedview>
  <metadata
     id="metadata3010">
    <rdf:RDF>
      <cc:Work
         rdf:about="">
        <dc:format>image/svg+xml</dc:format>
        <dc:type
           rdf:resource="http://purl.org/dc/dcmitype/StillImage" />
        <dc:title></dc:title>
      </cc:Work>
    </rdf:RDF>
  </metadata>
  <g
     inkscape:label="Layer 1"
     inkscape:groupmode="layer"
     id="layer1"
     transform="translate(0,-52.362183)">
    <path
       style="fill:#000000"
       d="m 285.64779,844.99973 c -5.25466,-20.76826 -16.25988,-39.64658 -21.62328,-60.28401 -12.90322,-6.4549 8.5457,-36.59895 -11.76799,-23.56083 -20.79242,-6.68704 -1.8813,-43.15029 -22.06931,-51.4648 -17.02567,-1.94553 -26.93826,-29.08132 -3.00782,-25.49486 16.3809,2.57703 38.85951,18.88479 31.86845,-9.13685 -2.74874,-15.75129 6.37334,-46.30433 -18.89202,-37.493 -5.82582,-22.04781 -3.06723,-46.39516 -28.54723,-56.25672 -17.18283,-25.72826 29.39254,-20.89388 42.34317,-11.79912 -1.01305,-16.90985 2.32294,-43.55429 -5.6174,-54.52318 -30.04847,9.30486 -7.24265,-41.36916 -31.00455,-48.70305 -10.56056,-8.16094 -26.60671,-19.8519 -11.56267,-31.96583 17.13004,-8.70411 51.44488,26.67591 42.33439,-7.84578 -0.24448,-17.39884 -4.65637,-43.86355 5.24885,-50.47074 3.71646,-16.22088 -5.88862,-40.1281 20.55448,-39.47435 32.72854,-10.97168 43.87216,-46.34517 63.72308,-70.7648 22.83826,-18.58252 21.44738,18.12722 30.27868,22.40991 23.68697,7.53091 11.41017,-36.22554 36.44793,-26.14745 24.36509,20.75318 31.54175,57.95484 61.79223,73.16551 14.85827,4.38378 33.34821,9.54663 24.14672,29.0579 9.76787,21.30257 8.44072,44.43324 7.23813,68.24684 -8.85949,39.96999 30.74603,-13.87485 46.57809,6.67319 4.36796,21.91713 -33.19151,29.84716 -28.5854,54.67889 -0.59976,11.31752 -2.03587,36.72965 -19.30037,23.69659 -3.6888,18.78953 -3.20141,38.23135 -5.27985,57.29737 14.30682,-7.32736 34.58562,-18.46856 49.45088,-10.97225 10.6895,11.41509 -6.35477,18.40876 -12.68991,26.27134 -29.66657,5.2973 -6.79314,50.12923 -33.99112,51.64642 -12.86282,5.57484 -3.78456,39.3694 -7.34333,54.8292 13.8559,-8.42202 60.22718,-19.78424 44.84057,10.28617 -21.42793,11.67632 -30.25305,29.73162 -30.8251,53.40212 -10.53045,4.13042 -20.01436,-1.85732 -17.18144,15.5407 -0.84315,24.27453 -20.14278,42.7147 -25.13928,66.25645 2.60334,13.74326 -3.27846,17.16091 -15.80908,14.87686 -51.45134,0 -102.90266,0 -154.354,0 -0.75149,-3.99261 -1.50301,-7.98522 -2.2545,-11.97784 z m 56.45445,-82.9576 c 2.7694,-11.28305 -12.73912,-4.2882 -19.33027,-6.21072 -8.93551,0 -17.87106,0 -26.80657,0 -2.30678,10.58945 1.65946,14.90593 12.42661,12.42146 11.23675,0 22.47348,0 33.71023,0 0,-2.07025 0,-4.14048 0,-6.21074 z m 108.24414,0 c 2.7694,-11.28305 -12.73913,-4.2882 -19.33027,-6.21072 -8.93552,0 -17.87106,0 -26.80658,0 -2.30677,10.58945 1.65946,14.90593 12.42661,12.42146 11.23675,0 22.47349,0 33.71024,0 0,-2.07025 0,-4.14048 0,-6.21074 z m 3.54899,-81.62672 c 0,-15.08319 0,-30.1664 0,-45.2496 -15.93018,0 -30.96409,0.89627 -46.89427,0.89627 -0.19047,29.57783 0.67717,56.47698 1.37596,86.04956 15.78068,3.06056 29.46528,3.08912 45.51831,3.55337 0,-15.0832 0,-30.16639 0,-45.2496 z M 338.87346,719.8979 c 0.66084,-28.83087 -1.49336,-57.67255 -1.71277,-86.50658 -15.92877,0 -30.59004,0 -46.51881,0 0,30.1664 0,60.3328 0,90.4992 15.78303,-0.70836 32.10413,1.70967 47.47018,-1.71749 l 0.76137,-2.27513 z M 459.21885,557.97532 c 0,-15.0832 0,-30.16639 0,-45.2496 -16.56193,0 -33.1239,1.79251 -49.68583,1.79251 0,30.1664 0,58.54029 0,88.7067 16.56193,0 33.1239,0 49.68583,0 0,-15.08321 0,-30.16641 0,-45.24961 z m -123.22388,39.25843 c -0.16769,-28.68026 -1.54434,-57.20039 -1.30766,-85.96565 -16.56195,0 -32.80703,-0.31687 -49.36896,-0.31687 0,30.16639 0,60.3328 0,90.4992 16.51193,-0.73355 33.58421,1.80972 49.65614,-1.79112 l 1.02039,-2.42556 z M 460.98345,466.14526 c 7.20444,-24.70112 -22.83129,-57.22147 -41.7976,-28.59332 -4.116,12.77596 -6.92541,32.16676 -4.66871,43.23289 15.49207,0 30.98415,0 46.47621,0 -0.003,-4.87959 -0.009,-9.76122 -0.0109,-14.63957 z m -128.42858,8.21459 c 1.36342,-19.57214 -3.23087,-53.89786 -30.084,-49.69373 -21.62847,8.02095 -16.42665,34.18039 -17.15243,52.6176 4.14893,4.10481 15.98502,0.52245 23.03461,1.72661 7.32857,-1.62829 19.81999,3.36216 23.70685,-2.6784 l 0.33611,-1.33918 0.15882,-0.6329 0,0 z"
       id="path3078"
       inkscape:connector-curvature="0"
       sodipodi:nodetypes="ccccccccccccccccccccccccccccccccccccccccccccccccsccccscccccccsccccscccccccccccccccccccccc" />
  </g>
</svg>
