<?xml version="1.0" encoding="UTF-8" standalone="no"?>
<!-- Created with Inkscape (http://www.inkscape.org/) -->

<svg
   xmlns:dc="http://purl.org/dc/elements/1.1/"
   xmlns:cc="http://creativecommons.org/ns#"
   xmlns:rdf="http://www.w3.org/1999/02/22-rdf-syntax-ns#"
   xmlns:svg="http://www.w3.org/2000/svg"
   xmlns="http://www.w3.org/2000/svg"
   xmlns:sodipodi="http://sodipodi.sourceforge.net/DTD/sodipodi-0.dtd"
   xmlns:inkscape="http://www.inkscape.org/namespaces/inkscape"
   version="1.1"
   width="1024"
   height="1024"
   id="svg2"
   inkscape:version="0.48.3.1 r9886"
   sodipodi:docname="I.svg">
  <sodipodi:namedview
     pagecolor="#ffffff"
     bordercolor="#666666"
     borderopacity="1"
     objecttolerance="10"
     gridtolerance="10"
     guidetolerance="10"
     inkscape:pageopacity="0"
     inkscape:pageshadow="2"
     inkscape:window-width="1600"
     inkscape:window-height="1176"
     id="namedview2992"
     showgrid="false"
     inkscape:zoom="0.488"
     inkscape:cx="1277.5117"
     inkscape:cy="359.35324"
     inkscape:window-x="-2"
     inkscape:window-y="-3"
     inkscape:window-maximized="1"
     inkscape:current-layer="svg2"
     showguides="true"
     inkscape:guide-bbox="true">
    <sodipodi:guide
       orientation="1,0"
       position="98.531273,1149.0485"
       id="guide2992" />
    <sodipodi:guide
       orientation="0,1"
       position="26.081807,904.16932"
       id="guide3008" />
    <sodipodi:guide
       orientation="0,1"
       position="98.531273,101.42925"
       id="guide3010" />
  </sodipodi:namedview>
  <defs
     id="defs4" />
  <metadata
     id="metadata7">
    <rdf:RDF>
      <cc:Work
         rdf:about="">
        <dc:format>image/svg+xml</dc:format>
        <dc:type
           rdf:resource="http://purl.org/dc/dcmitype/StillImage" />
        <dc:title></dc:title>
      </cc:Work>
    </rdf:RDF>
  </metadata>
  <g
     transform="matrix(1.0122104,0,0,0.98793689,2.0491799,6.147541)"
     style="font-size:78.62335968px;font-style:normal;font-variant:normal;font-weight:normal;font-stretch:normal;line-height:125%;letter-spacing:0px;word-spacing:0px;fill:#000000;fill-opacity:1;stroke:none;font-family:Nimbus Roman No9 L;-inkscape-font-specification:Nimbus Roman No9 L"
     id="text3015">
    <path
       d="m 161.05329,857.09033 0,-675.36235 89.37265,0 0,675.36235 -89.37265,0"
       style="font-size:943.48028564px;font-family:Arial;-inkscape-font-specification:Arial"
       id="path3038"
       inkscape:connector-curvature="0" />
  </g>
  <path
     inkscape:connector-curvature="0"
     id="path1342-4-1-5"
     style="fill:#000000;fill-opacity:1;fill-rule:nonzero;stroke:none"
     d="m 112.86687,895.08185 c 16.06028,-1.1915 32.22224,-2.1453 48.31796,-3.706 15.505,-3.2008 31.02221,-2.6503 46.53324,-3.6881 13.98106,2.6357 28.0108,0.5379 42.00407,1.4077 10.24217,3.3951 20.51806,3.5498 30.79859,4.8905 9.52639,2.0352 19.04521,4.4007 28.54735,7.2448 6.47352,2.7765 12.99194,1.0807 19.50038,0.3097 l -13.92861,27.6445 c -6.53717,0.4096 -13.05662,2.117 -19.54543,-1.1622 -9.4631,-2.4817 -18.90021,-5.879 -28.39391,-7.2726 -10.30599,-0.8932 -20.57362,-1.8996 -30.8433,-4.7091 -13.9255,-0.5881 -27.86287,-0.1335 -41.78046,-1.5787 -15.39783,0.8537 -30.79875,0.7455 -46.19504,3.0617 -16.45026,1.037 -32.91704,2.6475 -49.350437,5.0467 l 14.335597,-27.4889 z" />
  <path
     inkscape:connector-curvature="0"
     id="path1342-4-1-5-6"
     style="fill:#000000;fill-opacity:1;fill-rule:nonzero;stroke:none"
     d="m 98.531273,119.83068 c 16.060277,-1.1915 32.222237,-2.1453 48.317957,-3.706 15.505,-3.2008 31.02221,-2.6503 46.53324,-3.6881 13.98106,2.6357 28.0108,0.5379 42.00407,1.4077 10.24217,3.3951 20.51806,3.5498 30.79859,4.8905 9.52639,2.0352 19.04521,4.4007 28.54735,7.2448 6.47352,2.7765 12.99194,1.0807 19.50038,0.3097 l -13.92861,27.6445 c -6.53717,0.4096 -13.05662,2.117 -19.54543,-1.1622 -9.4631,-2.4817 -18.90021,-5.879 -28.39391,-7.2726 -10.30599,-0.8932 -20.57362,-1.8996 -30.8433,-4.7091 -13.9255,-0.5881 -27.86287,-0.1335 -41.78046,-1.5787 -15.39783,0.8537 -30.79875,0.7455 -46.19504,3.0617 -16.45026,1.037 -32.91704,2.6475 -49.350437,5.0467 l 14.3356,-27.4889 z" />
</svg>
