<?xml version="1.0" encoding="UTF-8" standalone="no"?>
<!-- Created with Inkscape (http://www.inkscape.org/) -->

<svg
   xmlns:dc="http://purl.org/dc/elements/1.1/"
   xmlns:cc="http://creativecommons.org/ns#"
   xmlns:rdf="http://www.w3.org/1999/02/22-rdf-syntax-ns#"
   xmlns:svg="http://www.w3.org/2000/svg"
   xmlns="http://www.w3.org/2000/svg"
   xmlns:sodipodi="http://sodipodi.sourceforge.net/DTD/sodipodi-0.dtd"
   xmlns:inkscape="http://www.inkscape.org/namespaces/inkscape"
   version="1.1"
   width="1000"
   height="1000"
   id="svg2"
   inkscape:version="0.48.1 r9760"
   sodipodi:docname="letterSharp.svg">
  <sodipodi:namedview
     pagecolor="#ffffff"
     bordercolor="#666666"
     borderopacity="1"
     objecttolerance="10"
     gridtolerance="10"
     guidetolerance="10"
     inkscape:pageopacity="0"
     inkscape:pageshadow="2"
     inkscape:window-width="1600"
     inkscape:window-height="1176"
     id="namedview8"
     showgrid="false"
     inkscape:zoom="0.67396115"
     inkscape:cx="465.5579"
     inkscape:cy="438.43672"
     inkscape:window-x="-2"
     inkscape:window-y="-3"
     inkscape:window-maximized="1"
     inkscape:current-layer="svg2"
     showguides="true"
     inkscape:guide-bbox="true">
    <sodipodi:guide
       orientation="1,0"
       position="348.68479,854.64867"
       id="guide5187" />
    <sodipodi:guide
       orientation="0,1"
       position="-83.090843,500.02882"
       id="guide2996" />
  </sodipodi:namedview>
  <defs
     id="defs4" />
  <metadata
     id="metadata7">
    <rdf:RDF>
      <cc:Work
         rdf:about="">
        <dc:format>image/svg+xml</dc:format>
        <dc:type
           rdf:resource="http://purl.org/dc/dcmitype/StillImage" />
        <dc:title></dc:title>
      </cc:Work>
    </rdf:RDF>
  </metadata>
  <text
     xml:space="preserve"
     style="font-size:600px;font-style:normal;font-variant:normal;font-weight:normal;font-stretch:normal;line-height:125%;letter-spacing:0px;word-spacing:0px;fill:#000000;fill-opacity:1;stroke:none;font-family:Emmentaler;-inkscape-font-specification:Emmentaler"
     x="1030.295"
     y="-227.54099"
     id="text5163"
     sodipodi:linespacing="125%"><tspan
       sodipodi:role="line"
       id="tspan5165"
       x="1030.295"
       y="-227.54099" /></text>
  <text
     xml:space="preserve"
     style="font-size:600px;font-style:normal;font-variant:normal;font-weight:normal;font-stretch:normal;line-height:125%;letter-spacing:0px;word-spacing:0px;fill:#000000;fill-opacity:1;stroke:none;font-family:Emmentaler;-inkscape-font-specification:Emmentaler"
     x="1034.4918"
     y="-718.55737"
     id="text5167"
     sodipodi:linespacing="125%"><tspan
       sodipodi:role="line"
       id="tspan5169"
       x="1034.4918"
       y="-718.55737" /></text>
  <g
     style="font-size:600px;font-style:normal;font-variant:normal;font-weight:normal;font-stretch:normal;line-height:125%;letter-spacing:0px;word-spacing:0px;fill:#000000;fill-opacity:1;stroke:none;font-family:Emmentaler;-inkscape-font-specification:Emmentaler"
     id="text5216"
     transform="matrix(1.2,0,0,1.2,-334.47476,-78.599188)">
    <path
       d="m 780.89563,519.16599 0,-144 30,-12 c 12.99999,-5 22,-19.00002 22,-33 l 0,-42 c 0,-19.99998 -17.00002,-36 -36,-36 -6.99999,0 -11.00001,2 -16,4 l 0,-124 c 0,-13.99999 -11.00001,-25 -25,-25 -13.99999,0 -26,11.00001 -26,25 l 0,145 -69,29 0,-124 c 0,-13.99999 -12.00001,-26 -26,-26 -13.99999,0 -25,12.00001 -25,26 l 0,144 -30,13 c -12.99999,4.99999 -22,19.00001 -22,33 l 0,41 c 0,19.99998 17.00002,36 36,36 6.99999,0 11,-2.00001 16,-4 l 0,144 -30,12 c -12.99999,4.99999 -22,19.00001 -22,33 l 0,42 c 0,19.99998 17.00002,36 36,36 6.99999,0 11,-2.00001 16,-4 l 0,124 c 0,13.99998 11.00001,25 25,25 13.99999,0 26,-11.00002 26,-25 l 0,-145 69,-29 0,124 c 0,13.99998 12.00001,26 26,26 13.99999,0 25,-12.00002 25,-26 l 0,-144 30,-13 c 12.99999,-5 22,-19.00002 22,-33 l 0,-41 c 0,-19.99998 -17.00002,-36 -36,-36 -6.99999,0 -11.00001,2 -16,4 m -51,-123 0,144 -69,28 0,-144 69,-28"
       style="font-size:1000px"
       id="path5221"
       inkscape:connector-curvature="0" />
  </g>
</svg>
