<?xml version="1.0" encoding="UTF-8" standalone="no"?>
<!-- Created with Inkscape (http://www.inkscape.org/) -->

<svg
   xmlns:dc="http://purl.org/dc/elements/1.1/"
   xmlns:cc="http://creativecommons.org/ns#"
   xmlns:rdf="http://www.w3.org/1999/02/22-rdf-syntax-ns#"
   xmlns:svg="http://www.w3.org/2000/svg"
   xmlns="http://www.w3.org/2000/svg"
   xmlns:sodipodi="http://sodipodi.sourceforge.net/DTD/sodipodi-0.dtd"
   xmlns:inkscape="http://www.inkscape.org/namespaces/inkscape"
   version="1.1"
   width="1000"
   height="1000"
   id="svg2"
   inkscape:version="0.48.2 r9819"
   sodipodi:docname="note-x.svg"
   inkscape:export-filename="/home/tom/DEVELOP/QT4/nootka/unused-picts/proto/note.png"
   inkscape:export-xdpi="300.09186"
   inkscape:export-ydpi="300.09186">
  <sodipodi:namedview
     pagecolor="#ffffff"
     bordercolor="#666666"
     borderopacity="1"
     objecttolerance="10"
     gridtolerance="10"
     guidetolerance="10"
     inkscape:pageopacity="0"
     inkscape:pageshadow="2"
     inkscape:window-width="1600"
     inkscape:window-height="1176"
     id="namedview8"
     showgrid="false"
     inkscape:zoom="0.33698058"
     inkscape:cx="801.03379"
     inkscape:cy="-63.229638"
     inkscape:window-x="-8"
     inkscape:window-y="-3"
     inkscape:window-maximized="1"
     inkscape:current-layer="svg2"
     showguides="true"
     inkscape:guide-bbox="true">
    <sodipodi:guide
       orientation="1,0"
       position="-369.31148,1443.6721"
       id="guide5187" />
    <sodipodi:guide
       orientation="0,1"
       position="2098.3607,-520.39344"
       id="guide2996" />
  </sodipodi:namedview>
  <defs
     id="defs4" />
  <metadata
     id="metadata7">
    <rdf:RDF>
      <cc:Work
         rdf:about="">
        <dc:format>image/svg+xml</dc:format>
        <dc:type
           rdf:resource="http://purl.org/dc/dcmitype/StillImage" />
        <dc:title />
      </cc:Work>
    </rdf:RDF>
  </metadata>
  <g
     style="font-size:600px;font-style:normal;font-variant:normal;font-weight:normal;font-stretch:normal;line-height:125%;letter-spacing:0px;word-spacing:0px;fill:#000000;fill-opacity:1;stroke:none;font-family:Emmentaler;-inkscape-font-specification:Emmentaler"
     id="text5163" />
  <g
     style="font-size:600px;font-style:normal;font-variant:normal;font-weight:normal;font-stretch:normal;line-height:125%;letter-spacing:0px;word-spacing:0px;fill:#000000;fill-opacity:1;stroke:none;font-family:Emmentaler;-inkscape-font-specification:Emmentaler"
     id="text5167" />
  <path
     style="fill:#000000"
     d="m 361.1516,878.04356 c -50.52876,1.09239 -97.63761,-50.25564 -82.05063,-100.89664 18.66213,-82.0759 116.69831,-135.13748 195.56402,-105.31322 15.18134,14.34718 33.73571,22.17116 25.9472,-6.78596 0.44152,-180.02813 -0.49559,-360.05853 0.59291,-540.08523 39.26218,-9.38577 16.26847,55.80251 39.26835,75.14 45.1818,97.06023 148.76742,157.13289 177.38783,263.33854 9.93329,44.10735 8.90722,96.37803 -18.73374,133.64675 -37.58239,-6.92231 -21.13862,-58.65871 -23.93385,-86.15358 -3.21425,-60.05973 -36.49112,-115.22816 -84.26309,-150.7899 -19.58125,-13.44821 -56.10244,-52.12348 -69.45861,-43.14624 -1.04563,145.65976 0.41381,291.32552 -0.80243,436.98461 -9.95935,74.81229 -86.6924,127.46118 -159.51796,124.06087 z"
     id="path3066"
     inkscape:connector-curvature="0" />
  <path
     style="font-size:medium;font-style:normal;font-variant:normal;font-weight:normal;font-stretch:normal;text-indent:0;text-align:start;text-decoration:none;line-height:normal;letter-spacing:normal;word-spacing:normal;text-transform:none;direction:ltr;block-progression:tb;writing-mode:lr-tb;text-anchor:start;baseline-shift:baseline;color:#000000;fill:#000000;fill-opacity:1;stroke:none;stroke-width:65.22207642;marker:none;visibility:visible;display:inline;overflow:visible;enable-background:accumulate;font-family:Sans;-inkscape-font-specification:Sans"
     d="m 243.9375,108.78125 c -27.73685,-0.1049 -41.57464,37.38585 -21.77302,56.20387 169.81258,234.88577 340.45844,469.2771 508.77038,705.17424 18.80921,21.95784 59.49731,4.48935 55.7214,-24.36244 -5.79835,-30.18864 -33.61457,-51.25406 -48.25295,-77.59999 C 581.9517,551.05327 425.71583,333.64225 267.73894,117.66938 c -6.3074,-6.01451 -15.09564,-9.2963 -23.80144,-8.88813 z"
     id="path3832"
     inkscape:connector-curvature="0" />
  <path
     style="font-size:medium;font-style:normal;font-variant:normal;font-weight:normal;font-stretch:normal;text-indent:0;text-align:start;text-decoration:none;line-height:normal;letter-spacing:normal;word-spacing:normal;text-transform:none;direction:ltr;block-progression:tb;writing-mode:lr-tb;text-anchor:start;baseline-shift:baseline;color:#000000;fill:#000000;fill-opacity:1;stroke:none;stroke-width:65.22207642;marker:none;visibility:visible;display:inline;overflow:visible;enable-background:accumulate;font-family:Sans;-inkscape-font-specification:Sans"
     d="m 755.0625,108.625 c -28.27286,0.37451 -37.13262,32.76273 -53.44096,50.29628 C 540.031,382.72098 377.1754,605.63899 217.34375,830.6875 c -15.85615,24.43185 11.59469,58.29776 38.6593,47.61798 25.76327,-13.40614 34.94631,-45.35156 54.20626,-66.0611 C 467.42863,592.67886 626.91573,374.64601 784.1682,155.1692 794.68418,134.64528 778.13774,108.1629 755.0625,108.625 z"
     id="path3832-4"
     inkscape:connector-curvature="0" />
</svg>
