<?xml version="1.0" encoding="UTF-8" standalone="no"?>
<!-- Created with Inkscape (http://www.inkscape.org/) -->

<svg
   xmlns:dc="http://purl.org/dc/elements/1.1/"
   xmlns:cc="http://creativecommons.org/ns#"
   xmlns:rdf="http://www.w3.org/1999/02/22-rdf-syntax-ns#"
   xmlns:svg="http://www.w3.org/2000/svg"
   xmlns="http://www.w3.org/2000/svg"
   xmlns:sodipodi="http://sodipodi.sourceforge.net/DTD/sodipodi-0.dtd"
   xmlns:inkscape="http://www.inkscape.org/namespaces/inkscape"
   version="1.1"
   width="1000"
   height="1000"
   id="svg2"
   inkscape:version="0.48.2 r9819"
   sodipodi:docname="sing.svg"
   inkscape:export-filename="/home/tom/DEVELOP/QT4/nootka/unused-picts/proto/note.png"
   inkscape:export-xdpi="300.09186"
   inkscape:export-ydpi="300.09186">
  <sodipodi:namedview
     pagecolor="#ffffff"
     bordercolor="#666666"
     borderopacity="1"
     objecttolerance="10"
     gridtolerance="10"
     guidetolerance="10"
     inkscape:pageopacity="0"
     inkscape:pageshadow="2"
     inkscape:window-width="1600"
     inkscape:window-height="1176"
     id="namedview8"
     showgrid="false"
     inkscape:zoom="0.33698058"
     inkscape:cx="141.80219"
     inkscape:cy="267.84626"
     inkscape:window-x="-8"
     inkscape:window-y="-3"
     inkscape:window-maximized="1"
     inkscape:current-layer="svg2"
     showguides="true"
     inkscape:guide-bbox="true">
    <sodipodi:guide
       orientation="1,0"
       position="203.54098,940.06557"
       id="guide5187" />
    <sodipodi:guide
       orientation="0,1"
       position="1460.0248,-189.92193"
       id="guide2996" />
    <sodipodi:guide
       orientation="0,1"
       position="577.1846,540.09048"
       id="guide2987" />
  </sodipodi:namedview>
  <defs
     id="defs4" />
  <metadata
     id="metadata7">
    <rdf:RDF>
      <cc:Work
         rdf:about="">
        <dc:format>image/svg+xml</dc:format>
        <dc:type
           rdf:resource="http://purl.org/dc/dcmitype/StillImage" />
        <dc:title />
      </cc:Work>
    </rdf:RDF>
  </metadata>
  <g
     style="font-size:600px;font-style:normal;font-variant:normal;font-weight:normal;font-stretch:normal;line-height:125%;letter-spacing:0px;word-spacing:0px;fill:#000000;fill-opacity:1;stroke:none;font-family:Emmentaler;-inkscape-font-specification:Emmentaler"
     id="text5163" />
  <g
     style="font-size:600px;font-style:normal;font-variant:normal;font-weight:normal;font-stretch:normal;line-height:125%;letter-spacing:0px;word-spacing:0px;fill:#000000;fill-opacity:1;stroke:none;font-family:Emmentaler;-inkscape-font-specification:Emmentaler"
     id="text5167" />
  <path
     inkscape:connector-curvature="0"
     id="path3093"
     d="m -665.17206,1856.1312 0,-264 565.499998,0 565.500002,0 0,264 0,263.9999 -565.500002,0 -565.499998,0 0,-263.9999 z"
     style="fill:#fefefe" />
  <path
     style="fill:#000000"
     d="m 204.14182,765.75802 c 52.77639,-28.71435 114.28204,-39.8377 164.24529,-73.40296 27.87782,-33.79662 16.38035,-82.32242 9.3851,-121.69321 -16.97868,-38.57442 -29.98764,-81.50967 -58.64835,-112.28595 -16.74687,-32.05627 -29.12922,-71.53952 -7.38194,-98.2359 -1.95412,-56.69855 -2.64045,-120.90953 41.41251,-163.67934 61.2519,-76.95506 188.95005,-81.46695 255.39758,-9.00875 45.63445,41.23145 56.25129,107.66646 54.43033,165.62653 24.92855,31.86009 -1.8062,86.0212 -10.66913,106.83108 -19.10267,40.06166 -31.04431,66.75336 -43.90395,105.215 -22.2106,63.46757 -33.47478,95.78393 -2.80176,128.74729 27.29911,28.49022 49.81838,32.76501 162.57406,82.42943 C 540.76228,909.91857 408.92416,897.94167 204.14182,765.75802 z M 519.40271,499.97118 c 1.27913,-73.11187 -66.70723,-73.15083 -66.55991,0 -4.5771,71.31351 68.44735,71.95395 66.55991,0 z"
     id="path3079"
     inkscape:connector-curvature="0"
     sodipodi:nodetypes="cccccccccccccccc" />
</svg>
