<?xml version="1.0" encoding="UTF-8" standalone="no"?>
<!-- Created with Inkscape (http://www.inkscape.org/) -->

<svg
   xmlns:dc="http://purl.org/dc/elements/1.1/"
   xmlns:cc="http://creativecommons.org/ns#"
   xmlns:rdf="http://www.w3.org/1999/02/22-rdf-syntax-ns#"
   xmlns:svg="http://www.w3.org/2000/svg"
   xmlns="http://www.w3.org/2000/svg"
   xmlns:sodipodi="http://sodipodi.sourceforge.net/DTD/sodipodi-0.dtd"
   xmlns:inkscape="http://www.inkscape.org/namespaces/inkscape"
   version="1.1"
   width="1024"
   height="1024"
   id="svg2"
   inkscape:version="0.48.3.1 r9886"
   sodipodi:docname="V.svg">
  <sodipodi:namedview
     pagecolor="#ffffff"
     bordercolor="#666666"
     borderopacity="1"
     objecttolerance="10"
     gridtolerance="10"
     guidetolerance="10"
     inkscape:pageopacity="0"
     inkscape:pageshadow="2"
     inkscape:window-width="1600"
     inkscape:window-height="1176"
     id="namedview2992"
     showgrid="false"
     inkscape:zoom="0.34506811"
     inkscape:cx="1819.2061"
     inkscape:cy="482.50881"
     inkscape:window-x="-2"
     inkscape:window-y="-3"
     inkscape:window-maximized="1"
     inkscape:current-layer="svg2"
     showguides="true"
     inkscape:guide-bbox="true">
    <sodipodi:guide
       orientation="1,0"
       position="98.531273,1149.0485"
       id="guide2992" />
    <sodipodi:guide
       orientation="0,1"
       position="26.081807,904.16932"
       id="guide3008" />
    <sodipodi:guide
       orientation="0,1"
       position="98.531273,101.42925"
       id="guide3010" />
  </sodipodi:namedview>
  <defs
     id="defs4" />
  <metadata
     id="metadata7">
    <rdf:RDF>
      <cc:Work
         rdf:about="">
        <dc:format>image/svg+xml</dc:format>
        <dc:type
           rdf:resource="http://purl.org/dc/dcmitype/StillImage" />
        <dc:title></dc:title>
      </cc:Work>
    </rdf:RDF>
  </metadata>
  <g
     style="font-size:61.64226532px;font-style:normal;font-variant:normal;font-weight:normal;font-stretch:normal;line-height:125%;letter-spacing:0px;word-spacing:0px;fill:#000000;fill-opacity:1;stroke:none;font-family:Nimbus Roman No9 L;-inkscape-font-specification:Nimbus Roman No9 L"
     id="text3004"
     transform="matrix(1,0,0,1.0456822,-23.183829,-21.292822)">
    <path
       d="m 773.33624,225.00516 -238.7887,621.72976 -119.39436,0 -247.07042,-621.72976 167.70423,-12.64865 151.83097,438.81082 153.21125,-438.81082 132.50703,12.64865"
       style="font-size:739.70715332px;font-family:FL Prosty 2;-inkscape-font-specification:FL Prosty 2"
       id="path3137"
       inkscape:connector-curvature="0" />
  </g>
  <path
     inkscape:connector-curvature="0"
     id="path1342-4"
     style="fill:#000000;fill-opacity:1;fill-rule:nonzero;stroke:none"
     d="m 147.08961,895.08182 c 54.3998,-1.19151 109.1448,-2.14527 163.66503,-3.70598 52.5195,-3.20075 105.07987,-2.65028 157.61997,-3.68805 47.35715,2.63569 94.8791,0.53791 142.27837,1.40769 34.69245,3.39511 69.49944,3.54981 104.32213,4.89043 32.26843,2.03522 64.51087,4.40079 96.6971,7.24488 21.9276,2.77647 44.00712,1.08062 66.05294,0.30967 l -47.17976,27.64448 c -22.14283,0.40957 -44.22582,2.11705 -66.20526,-1.16218 -32.05376,-2.48167 -64.01984,-5.87902 -96.17727,-7.27257 -34.90883,-0.89323 -69.6883,-1.89968 -104.47435,-4.70909 -47.16886,-0.5881 -94.37813,-0.13352 -141.52069,-1.57879 -52.15667,0.85371 -104.32323,0.74558 -156.47405,3.06178 -55.72136,1.03698 -111.49834,2.64743 -167.162497,5.04666 l 48.558337,-27.48893 z" />
  <path
     inkscape:connector-curvature="0"
     id="path1342-4-1"
     style="fill:#000000;fill-opacity:1;fill-rule:nonzero;stroke:none"
     d="m 128.43393,125.81702 c 54.39981,-1.19151 109.14481,-2.14527 163.66504,-3.70598 52.5195,-3.20075 105.07987,-2.65028 157.61997,-3.68805 47.35715,2.63569 94.8791,0.53791 142.27837,1.40769 34.69245,3.39511 69.49944,3.54981 104.32213,4.89043 32.26843,2.03522 64.51087,4.40079 96.6971,7.24488 21.9276,2.77647 44.00712,1.08062 66.05294,0.30967 l -47.17976,27.64448 c -22.14283,0.40957 -44.22582,2.11705 -66.20526,-1.16218 -32.05376,-2.48167 -64.01984,-5.87902 -96.17727,-7.27257 -34.90883,-0.89323 -69.6883,-1.89968 -104.47435,-4.70909 -47.16886,-0.5881 -94.37813,-0.13352 -141.52069,-1.57879 -52.15667,0.85371 -104.32323,0.74558 -156.47405,3.06178 -55.72136,1.03698 -111.49835,2.64743 -167.162501,5.04666 l 48.558331,-27.48893 z" />
</svg>
